<svg width="400" height="300" xmlns="http://www.w3.org/2000/svg">
  <line x1="40" y1="250" x2="40" y2="50" stroke="black" stroke-width="2" />
  <line x1="35" y1="250.0" x2="40" y2="250.0" stroke="black" stroke-width="1" />
  <text x="10" y="255.0" font-size="10" fill="black">75</text>
  <line x1="40" y1="250.0" x2="380" y2="250.0" stroke="lightgray" stroke-width="1" stroke-dasharray="5, 5" />
  <line x1="35" y1="210.0" x2="40" y2="210.0" stroke="black" stroke-width="1" />
  <text x="10" y="215.0" font-size="10" fill="black">85</text>
  <line x1="40" y1="210.0" x2="380" y2="210.0" stroke="lightgray" stroke-width="1" stroke-dasharray="5, 5" />
  <line x1="35" y1="170.0" x2="40" y2="170.0" stroke="black" stroke-width="1" />
  <text x="10" y="175.0" font-size="10" fill="black">95</text>
  <line x1="40" y1="170.0" x2="380" y2="170.0" stroke="lightgray" stroke-width="1" stroke-dasharray="5, 5" />
  <line x1="35" y1="130.0" x2="40" y2="130.0" stroke="black" stroke-width="1" />
  <text x="10" y="135.0" font-size="10" fill="black">105</text>
  <line x1="40" y1="130.0" x2="380" y2="130.0" stroke="lightgray" stroke-width="1" stroke-dasharray="5, 5" />
  <line x1="35" y1="90.0" x2="40" y2="90.0" stroke="black" stroke-width="1" />
  <text x="10" y="95.0" font-size="10" fill="black">115</text>
  <line x1="40" y1="90.0" x2="380" y2="90.0" stroke="lightgray" stroke-width="1" stroke-dasharray="5, 5" />
  <line x1="35" y1="50.0" x2="40" y2="50.0" stroke="black" stroke-width="1" />
  <text x="10" y="55.0" font-size="10" fill="black">125</text>
  <line x1="40" y1="50.0" x2="380" y2="50.0" stroke="lightgray" stroke-width="1" stroke-dasharray="5, 5" />
  <line x1="35" y1="150.0" x2="40" y2="150.0" stroke="black" stroke-width="1" />
  <text x="10" y="155.0" font-size="10" fill="black">100</text>
  <line x1="40" y1="150.0" x2="380" y2="150.0" stroke="lightgray" stroke-width="1" stroke-dasharray="5, 5" />
  <line x1="45.333333333333336" y1="144.80689531975702" x2="45.333333333333336" y2="150.4821364773133" stroke="black" stroke-width="1" />
  <rect x="40.53333333333333" y="146.19506966773838" width="9.6" height="3.8049303322616197" fill="green" />
  <line x1="56.0" y1="146.3022508038585" x2="56.0" y2="151.57198999642725" stroke="black" stroke-width="1" />
  <rect x="51.199999999999996" y="146.4808860307253" width="9.6" height="1" fill="green" />
  <line x1="66.66666666666666" y1="144.19435512683106" x2="66.66666666666666" y2="147.26688102893888" stroke="black" stroke-width="1" />
  <rect x="61.86666666666666" y="145.37334762415145" width="9.6" height="1.3219006788138472" fill="green" />
  <line x1="77.33333333333333" y1="142.74740978921045" x2="77.33333333333333" y2="147.98142193640575" stroke="black" stroke-width="1" />
  <rect x="72.53333333333333" y="145.35548410146475" width="9.6" height="1" fill="red" />
  <line x1="87.99999999999999" y1="142.10432297249014" x2="87.99999999999999" y2="150.03572704537333" stroke="black" stroke-width="1" />
  <rect x="83.19999999999999" y="143.08681672025722" width="9.6" height="5.82350839585564" fill="red" />
  <line x1="98.66666666666666" y1="142.31868524473026" x2="98.66666666666666" y2="149.26759556984638" stroke="black" stroke-width="1" />
  <rect x="93.86666666666666" y="144.78385137549122" width="9.6" height="2.109860664523069" fill="green" />
  <line x1="109.33333333333333" y1="143.99785637727757" x2="109.33333333333333" y2="150.05269739192568" stroke="black" stroke-width="1" />
  <rect x="104.53333333333333" y="144.1764916041443" width="9.6" height="1" fill="green" />
  <line x1="119.99999999999999" y1="141.19328331546984" x2="119.99999999999999" y2="148.26723829939266" stroke="black" stroke-width="1" />
  <rect x="115.19999999999999" y="142.65809217577703" width="9.6" height="3.635226866738151" fill="green" />
  <line x1="130.66666666666666" y1="139.38906752411572" x2="130.66666666666666" y2="146.8560200071454" stroke="black" stroke-width="1" />
  <rect x="125.86666666666666" y="142.85459092533046" width="9.6" height="2.5544837441943287" fill="red" />
  <line x1="141.33333333333334" y1="133.9228295819936" x2="141.33333333333334" y2="141.13969274740975" stroke="black" stroke-width="1" />
  <rect x="136.53333333333333" y="138.96034297963558" width="9.6" height="1" fill="red" />
  <line x1="152.0" y1="138.42443729903533" x2="152.0" y2="143.64058592354417" stroke="black" stroke-width="1" />
  <rect x="147.2" y="138.7995712754555" width="9.6" height="2.125759199714139" fill="red" />
  <line x1="162.66666666666666" y1="140.92533047516963" x2="162.66666666666666" y2="154.9124687388353" stroke="black" stroke-width="1" />
  <rect x="157.86666666666665" y="141.72918899606992" width="9.6" height="10.325116112897547" fill="red" />
  <line x1="173.33333333333334" y1="153.82279385494815" x2="173.33333333333334" y2="161.50410861021794" stroke="black" stroke-width="1" />
  <rect x="168.53333333333333" y="154.03715612718827" width="9.6" height="1.4469453376206047" fill="red" />
  <line x1="184.0" y1="147.2132904608789" x2="184.0" y2="154.28724544480167" stroke="black" stroke-width="1" />
  <rect x="179.2" y="152.75098249374776" width="9.6" height="1.3486959628438626" fill="green" />
  <line x1="194.66666666666666" y1="147.64201500535899" x2="194.66666666666666" y2="157.41336191496958" stroke="black" stroke-width="1" />
  <rect x="189.86666666666665" y="149.94640943193997" width="9.6" height="5.591282600928878" fill="red" />
  <line x1="205.33333333333334" y1="154.7338335119685" x2="205.33333333333334" y2="162.87959985709176" stroke="black" stroke-width="1" />
  <rect x="200.53333333333333" y="155.3769203286888" width="9.6" height="1" fill="green" />
  <line x1="216.0" y1="154.3586995355484" x2="216.0" y2="162.84387281171848" stroke="black" stroke-width="1" />
  <rect x="211.2" y="156.80600214362266" width="9.6" height="2.125759199714196" fill="green" />
  <line x1="226.66666666666666" y1="151.48267238299388" x2="226.66666666666666" y2="160.77170418006432" stroke="black" stroke-width="1" />
  <rect x="221.86666666666665" y="152.2508038585209" width="9.6" height="2.1525544837441544" fill="green" />
  <line x1="237.33333333333334" y1="150.6609503394069" x2="237.33333333333334" y2="157.32404430153622" stroke="black" stroke-width="1" />
  <rect x="232.53333333333333" y="152.05430510896747" width="9.6" height="1" fill="green" />
  <line x1="248.0" y1="149.78563772775988" x2="248.0" y2="153.59056806002138" stroke="black" stroke-width="1" />
  <rect x="243.2" y="150.60735977134686" width="9.6" height="1.9292604501608253" fill="red" />
  <line x1="258.66666666666663" y1="161.9685602000714" x2="258.66666666666663" y2="167.86352268667383" stroke="black" stroke-width="1" />
  <rect x="253.86666666666665" y="163.18327974276525" width="9.6" height="1" fill="red" />
  <line x1="269.3333333333333" y1="162.540192926045" x2="269.3333333333333" y2="166.82743837084672" stroke="black" stroke-width="1" />
  <rect x="264.53333333333336" y="162.73669167559842" width="9.6" height="1.8578063594140417" fill="green" />
  <line x1="279.99999999999994" y1="152.16148624508747" x2="279.99999999999994" y2="161.39692747409788" stroke="black" stroke-width="1" />
  <rect x="275.2" y="155.7699178277956" width="9.6" height="5.609146123615574" fill="green" />
  <line x1="290.66666666666663" y1="139.46052161486244" x2="290.66666666666663" y2="148.73168988924618" stroke="black" stroke-width="1" />
  <rect x="285.8666666666667" y="141.1575562700964" width="9.6" height="6.931046802429478" fill="green" />
  <line x1="301.3333333333333" y1="133.61914969632005" x2="301.3333333333333" y2="143.39049660593065" stroke="black" stroke-width="1" />
  <rect x="296.53333333333336" y="139.19256877456235" width="9.6" height="3.16184351554125" fill="red" />
  <line x1="311.99999999999994" y1="140.12147195426934" x2="311.99999999999994" y2="146.62379421221863" stroke="black" stroke-width="1" />
  <rect x="307.2" y="143.8906752411575" width="9.6" height="1.5541264737406664" fill="red" />
  <line x1="322.66666666666663" y1="140.30010718113613" x2="322.66666666666663" y2="146.76670239371202" stroke="black" stroke-width="1" />
  <rect x="317.8666666666667" y="141.55948553054662" width="9.6" height="2.277599142550855" fill="red" />
  <line x1="333.3333333333333" y1="143.97999285459093" x2="333.3333333333333" y2="149.8213647731332" stroke="black" stroke-width="1" />
  <rect x="328.53333333333336" y="145.62343694176485" width="9.6" height="2.5723472668810246" fill="green" />
  <line x1="343.99999999999994" y1="141.81850660950334" x2="343.99999999999994" y2="147.33833511968555" stroke="black" stroke-width="1" />
  <rect x="339.2" y="143.56913183279738" width="9.6" height="1" fill="green" />
  <line x1="354.66666666666663" y1="139.9964272954627" x2="354.66666666666663" y2="143.96212933190418" stroke="black" stroke-width="1" />
  <rect x="349.8666666666667" y="141.88996070025001" width="9.6" height="1.1968560200072034" fill="red" />
</svg>