<svg width="400" height="300" xmlns="http://www.w3.org/2000/svg">
  <line x1="40" y1="250" x2="40" y2="50" stroke="black" stroke-width="2" />
  <line x1="35" y1="250.0" x2="40" y2="250.0" stroke="black" stroke-width="1" />
  <text x="10" y="255.0" font-size="10" fill="black">75</text>
  <line x1="40" y1="250.0" x2="380" y2="250.0" stroke="lightgray" stroke-width="1" stroke-dasharray="5, 5" />
  <line x1="35" y1="210.0" x2="40" y2="210.0" stroke="black" stroke-width="1" />
  <text x="10" y="215.0" font-size="10" fill="black">85</text>
  <line x1="40" y1="210.0" x2="380" y2="210.0" stroke="lightgray" stroke-width="1" stroke-dasharray="5, 5" />
  <line x1="35" y1="170.0" x2="40" y2="170.0" stroke="black" stroke-width="1" />
  <text x="10" y="175.0" font-size="10" fill="black">95</text>
  <line x1="40" y1="170.0" x2="380" y2="170.0" stroke="lightgray" stroke-width="1" stroke-dasharray="5, 5" />
  <line x1="35" y1="130.0" x2="40" y2="130.0" stroke="black" stroke-width="1" />
  <text x="10" y="135.0" font-size="10" fill="black">105</text>
  <line x1="40" y1="130.0" x2="380" y2="130.0" stroke="lightgray" stroke-width="1" stroke-dasharray="5, 5" />
  <line x1="35" y1="90.0" x2="40" y2="90.0" stroke="black" stroke-width="1" />
  <text x="10" y="95.0" font-size="10" fill="black">115</text>
  <line x1="40" y1="90.0" x2="380" y2="90.0" stroke="lightgray" stroke-width="1" stroke-dasharray="5, 5" />
  <line x1="35" y1="50.0" x2="40" y2="50.0" stroke="black" stroke-width="1" />
  <text x="10" y="55.0" font-size="10" fill="black">125</text>
  <line x1="40" y1="50.0" x2="380" y2="50.0" stroke="lightgray" stroke-width="1" stroke-dasharray="5, 5" />
  <line x1="35" y1="150.0" x2="40" y2="150.0" stroke="black" stroke-width="1" />
  <text x="10" y="155.0" font-size="10" fill="black">100</text>
  <line x1="40" y1="150.0" x2="380" y2="150.0" stroke="lightgray" stroke-width="1" stroke-dasharray="5, 5" />
  <line x1="45.333333333333336" y1="146.6898425999321" x2="45.333333333333336" y2="150.9924130902503" stroke="black" stroke-width="1" />
  <rect x="40.53333333333333" y="147.3185369720303" width="9.6" height="2.6814630279696985" fill="green" />
  <line x1="56.0" y1="141.93749292265886" x2="56.0" y2="146.21333937266445" stroke="black" stroke-width="1" />
  <rect x="51.199999999999996" y="143.45940437096596" width="9.6" height="2.50028309364734" fill="green" />
  <line x1="66.66666666666666" y1="141.8921979390783" x2="66.66666666666666" y2="145.6245045861171" stroke="black" stroke-width="1" />
  <rect x="61.86666666666666" y="142.97927754501194" width="9.6" height="1" fill="red" />
  <line x1="77.33333333333333" y1="141.18559619522142" x2="77.33333333333333" y2="147.92548975200998" stroke="black" stroke-width="1" />
  <rect x="72.53333333333333" y="142.49009172234184" width="9.6" height="2.9351149360207387" fill="red" />
  <line x1="87.99999999999999" y1="142.70750764352852" x2="87.99999999999999" y2="147.19171101800475" stroke="black" stroke-width="1" />
  <rect x="83.19999999999999" y="143.22387045634696" width="9.6" height="2.473106103499049" fill="green" />
  <line x1="98.66666666666666" y1="138.9752009964896" x2="98.66666666666666" y2="143.42316838410147" stroke="black" stroke-width="1" />
  <rect x="93.86666666666666" y="139.2832068848375" width="9.6" height="3.0619408900464578" fill="green" />
  <line x1="109.33333333333333" y1="133.94754840901373" x2="109.33333333333333" y2="139.31944287170194" stroke="black" stroke-width="1" />
  <rect x="104.53333333333333" y="137.53935001698562" width="9.6" height="1" fill="red" />
  <line x1="119.99999999999999" y1="131.38376174838635" x2="119.99999999999999" y2="138.1598912920394" stroke="black" stroke-width="1" />
  <rect x="115.19999999999999" y="132.71543426565512" width="9.6" height="4.248669459857297" fill="green" />
  <line x1="130.66666666666666" y1="127.30721322613522" x2="130.66666666666666" y2="132.57954931491344" stroke="black" stroke-width="1" />
  <rect x="125.86666666666666" y="129.12807156607408" width="9.6" height="3.098176876910827" fill="green" />
  <line x1="141.33333333333334" y1="124.36303929339829" x2="141.33333333333334" y2="130.56845204393613" stroke="black" stroke-width="1" />
  <rect x="136.53333333333333" y="125.70377080738308" width="9.6" height="1.1414335862302778" fill="green" />
  <line x1="152.0" y1="117.93115162495758" x2="152.0" y2="124.22715434265655" stroke="black" stroke-width="1" />
  <rect x="147.2" y="118.8642282867172" width="9.6" height="4.8918582267014585" fill="green" />
  <line x1="162.66666666666666" y1="112.55010757558603" x2="162.66666666666666" y2="120.85720756426224" stroke="black" stroke-width="1" />
  <rect x="157.86666666666665" y="118.03985958555091" width="9.6" height="1.6577963990488342" fill="green" />
  <line x1="173.33333333333334" y1="110.80172120937607" x2="173.33333333333334" y2="120.40425772845651" stroke="black" stroke-width="1" />
  <rect x="168.53333333333333" y="116.36394519306987" width="9.6" height="1" fill="red" />
  <line x1="184.0" y1="115.68452043936139" x2="184.0" y2="130.67716000452947" stroke="black" stroke-width="1" />
  <rect x="179.2" y="115.68452043936139" width="9.6" height="13.14460423508092" fill="red" />
  <line x1="194.66666666666666" y1="125.88495074170538" x2="194.66666666666666" y2="134.5997055826067" stroke="black" stroke-width="1" />
  <rect x="189.86666666666665" y="129.82561431321483" width="9.6" height="3.985958555090008" fill="red" />
  <line x1="205.33333333333334" y1="127.85075302910201" x2="205.33333333333334" y2="133.9565168157627" stroke="black" stroke-width="1" />
  <rect x="200.53333333333333" y="129.68972936247314" width="9.6" height="3.9497225682255817" fill="red" />
  <line x1="216.0" y1="129.37266447740916" x2="216.0" y2="136.71951081417734" stroke="black" stroke-width="1" />
  <rect x="211.2" y="131.63741365643756" width="9.6" height="2.6271090476729455" fill="red" />
  <line x1="226.66666666666666" y1="135.44219227720527" x2="226.66666666666666" y2="146.64817121503796" stroke="black" stroke-width="1" />
  <rect x="221.86666666666665" y="135.44219227720527" width="9.6" height="4.0946665156834" fill="red" />
  <line x1="237.33333333333334" y1="137.8156494168271" x2="237.33333333333334" y2="143.0064545351603" stroke="black" stroke-width="1" />
  <rect x="232.53333333333333" y="137.96059336428488" width="9.6" height="3.5964216962971136" fill="red" />
  <line x1="248.0" y1="140.1451704223757" x2="248.0" y2="144.87260785867966" stroke="black" stroke-width="1" />
  <rect x="243.2" y="140.913826293738" width="9.6" height="3.5964216962971136" fill="red" />
  <line x1="258.66666666666663" y1="139.63650775676592" x2="258.66666666666663" y2="143.84894122975885" stroke="black" stroke-width="1" />
  <rect x="253.86666666666665" y="140.7326463594157" width="9.6" height="2.6995810214019116" fill="green" />
  <line x1="269.3333333333333" y1="132.28966141999774" x2="269.3333333333333" y2="139.3647378552825" stroke="black" stroke-width="1" />
  <rect x="264.53333333333336" y="136.29373796852002" width="9.6" height="2.8807609557241562" fill="green" />
  <line x1="279.99999999999994" y1="133.43109500622808" x2="279.99999999999994" y2="137.9242667874533" stroke="black" stroke-width="1" />
  <rect x="275.2" y="135.02547842826414" width="9.6" height="1.3407315139847356" fill="red" />
  <line x1="290.66666666666663" y1="131.30223077794136" x2="290.66666666666663" y2="135.77737515570146" stroke="black" stroke-width="1" />
  <rect x="285.8666666666667" y="131.47435171554747" width="9.6" height="2.0745102479900766" fill="red" />
  <line x1="301.3333333333333" y1="135.1432453855736" x2="301.3333333333333" y2="138.67625410485783" stroke="black" stroke-width="1" />
  <rect x="296.53333333333336" y="135.31536632317972" width="9.6" height="2.219454195447838" fill="red" />
  <line x1="311.99999999999994" y1="133.59913939531197" x2="311.99999999999994" y2="139.24697089797303" stroke="black" stroke-width="1" />
  <rect x="307.2" y="135.72302117540482" width="9.6" height="2.1107462348545027" fill="red" />
  <line x1="322.66666666666663" y1="137.27220020382748" x2="322.66666666666663" y2="140.7417053561319" stroke="black" stroke-width="1" />
  <rect x="317.8666666666667" y="138.2142452723361" width="9.6" height="1" fill="green" />
  <line x1="333.3333333333333" y1="137.0818706828219" x2="333.3333333333333" y2="141.2490091722342" stroke="black" stroke-width="1" />
  <rect x="328.53333333333336" y="137.9062393839883" width="9.6" height="2.3009851658928255" fill="red" />
  <line x1="343.99999999999994" y1="136.00385007360433" x2="343.99999999999994" y2="141.13124221492478" stroke="black" stroke-width="1" />
  <rect x="339.2" y="138.55848714754842" width="9.6" height="1.3044955271203662" fill="green" />
  <line x1="354.66666666666663" y1="134.8533574906579" x2="354.66666666666663" y2="137.77941342996263" stroke="black" stroke-width="1" />
  <rect x="349.8666666666667" y="135.578077227947" width="9.6" height="1.2954365304042312" fill="green" />
</svg>