<svg width="400" height="300" xmlns="http://www.w3.org/2000/svg">
  <line x1="40" y1="250" x2="40" y2="50" stroke="black" stroke-width="2" />
  <line x1="35" y1="250.0" x2="40" y2="250.0" stroke="black" stroke-width="1" />
  <text x="10" y="255.0" font-size="10" fill="black">75</text>
  <line x1="40" y1="250.0" x2="380" y2="250.0" stroke="lightgray" stroke-width="1" stroke-dasharray="5, 5" />
  <line x1="35" y1="210.0" x2="40" y2="210.0" stroke="black" stroke-width="1" />
  <text x="10" y="215.0" font-size="10" fill="black">85</text>
  <line x1="40" y1="210.0" x2="380" y2="210.0" stroke="lightgray" stroke-width="1" stroke-dasharray="5, 5" />
  <line x1="35" y1="170.0" x2="40" y2="170.0" stroke="black" stroke-width="1" />
  <text x="10" y="175.0" font-size="10" fill="black">95</text>
  <line x1="40" y1="170.0" x2="380" y2="170.0" stroke="lightgray" stroke-width="1" stroke-dasharray="5, 5" />
  <line x1="35" y1="130.0" x2="40" y2="130.0" stroke="black" stroke-width="1" />
  <text x="10" y="135.0" font-size="10" fill="black">105</text>
  <line x1="40" y1="130.0" x2="380" y2="130.0" stroke="lightgray" stroke-width="1" stroke-dasharray="5, 5" />
  <line x1="35" y1="90.0" x2="40" y2="90.0" stroke="black" stroke-width="1" />
  <text x="10" y="95.0" font-size="10" fill="black">115</text>
  <line x1="40" y1="90.0" x2="380" y2="90.0" stroke="lightgray" stroke-width="1" stroke-dasharray="5, 5" />
  <line x1="35" y1="50.0" x2="40" y2="50.0" stroke="black" stroke-width="1" />
  <text x="10" y="55.0" font-size="10" fill="black">125</text>
  <line x1="40" y1="50.0" x2="380" y2="50.0" stroke="lightgray" stroke-width="1" stroke-dasharray="5, 5" />
  <line x1="35" y1="150.0" x2="40" y2="150.0" stroke="black" stroke-width="1" />
  <text x="10" y="155.0" font-size="10" fill="black">100</text>
  <line x1="40" y1="150.0" x2="380" y2="150.0" stroke="lightgray" stroke-width="1" stroke-dasharray="5, 5" />
  <line x1="45.333333333333336" y1="142.3437181836693" x2="45.333333333333336" y2="150.81449806556708" stroke="black" stroke-width="1" />
  <rect x="40.53333333333333" y="147.96375483608227" width="9.6" height="2.0362451639177266" fill="green" />
  <line x1="56.0" y1="142.83241702300955" x2="56.0" y2="149.30767664426793" stroke="black" stroke-width="1" />
  <rect x="51.199999999999996" y="147.80085522296883" width="9.6" height="1" fill="red" />
  <line x1="66.66666666666666" y1="145.92750967216455" x2="66.66666666666666" y2="151.46609651802078" stroke="black" stroke-width="1" />
  <rect x="61.86666666666666" y="148.6968030950926" width="9.6" height="2.3620443901446038" fill="red" />
  <line x1="77.33333333333333" y1="149.51130116065974" x2="77.33333333333333" y2="157.7377316228874" stroke="black" stroke-width="1" />
  <rect x="72.53333333333333" y="152.68784361637142" width="9.6" height="2.769293422928115" fill="red" />
  <line x1="87.99999999999999" y1="154.05782936265524" x2="87.99999999999999" y2="168.12258195886784" stroke="black" stroke-width="1" />
  <rect x="83.19999999999999" y="154.39828955406233" width="9.6" height="7.737731622887395" fill="red" />
  <line x1="98.66666666666666" y1="157.0861331704337" x2="98.66666666666666" y2="164.0908165343107" stroke="black" stroke-width="1" />
  <rect x="93.86666666666666" y="158.14498065567096" width="9.6" height="3.5837914884951374" fill="green" />
  <line x1="109.33333333333333" y1="155.09061290979434" x2="109.33333333333333" y2="159.20382814090817" stroke="black" stroke-width="1" />
  <rect x="104.53333333333333" y="157.0861331704337" width="9.6" height="1" fill="green" />
  <line x1="119.99999999999999" y1="152.60639380981468" x2="119.99999999999999" y2="160.5884748523722" stroke="black" stroke-width="1" />
  <rect x="115.19999999999999" y="156.10873549175318" width="9.6" height="1.9547953573610357" fill="red" />
  <line x1="130.66666666666666" y1="143.4025656689065" x2="130.66666666666666" y2="158.7965791081246" stroke="black" stroke-width="1" />
  <rect x="125.86666666666666" y="150.4072490327835" width="9.6" height="7.697006719609078" fill="green" />
  <line x1="141.33333333333334" y1="144.66503767053547" x2="141.33333333333334" y2="152.8507432294848" stroke="black" stroke-width="1" />
  <rect x="136.53333333333333" y="145.03156180004072" width="9.6" height="3.665241295051885" fill="green" />
  <line x1="152.0" y1="140.79617185909183" x2="152.0" y2="145.35736102626754" stroke="black" stroke-width="1" />
  <rect x="147.2" y="143.15821624923643" width="9.6" height="1.873345550804288" fill="green" />
  <line x1="162.66666666666666" y1="136.72368153125632" x2="162.66666666666666" y2="145.5699450213806" stroke="black" stroke-width="1" />
  <rect x="157.86666666666665" y="138.51557727550397" width="9.6" height="6.5974343310934955" fill="green" />
  <line x1="173.33333333333334" y1="136.64223172469968" x2="173.33333333333334" y2="146.45693341478312" stroke="black" stroke-width="1" />
  <rect x="168.53333333333333" y="136.88658114436976" width="9.6" height="6.1901852983099275" fill="red" />
  <line x1="184.0" y1="140.79617185909183" x2="184.0" y2="149.00631236000817" stroke="black" stroke-width="1" />
  <rect x="179.2" y="142.09936876399922" width="9.6" height="2.280594583587799" fill="red" />
  <line x1="194.66666666666666" y1="142.50661779678273" x2="194.66666666666666" y2="154.7240887802891" stroke="black" stroke-width="1" />
  <rect x="189.86666666666665" y="144.46141315414377" width="9.6" height="8.878028914681295" fill="red" />
  <line x1="205.33333333333334" y1="149.87701079209933" x2="205.33333333333334" y2="162.70616982284668" stroke="black" stroke-width="1" />
  <rect x="200.53333333333333" y="153.17654245571168" width="9.6" height="1.7918957442475971" fill="red" />
  <line x1="216.0" y1="148.33027896558752" x2="216.0" y2="159.28527794746492" stroke="black" stroke-width="1" />
  <rect x="211.2" y="148.61535328853597" width="9.6" height="6.353084911423309" fill="green" />
  <line x1="226.66666666666666" y1="149.38912645082468" x2="226.66666666666666" y2="157.004683363877" stroke="black" stroke-width="1" />
  <rect x="221.86666666666665" y="150.0" width="9.6" height="4.235389940948835" fill="red" />
  <line x1="237.33333333333334" y1="154.39828955406233" x2="237.33333333333334" y2="160.9672164528609" stroke="black" stroke-width="1" />
  <rect x="232.53333333333333" y="155.9458358786398" width="9.6" height="1.1402972917938996" fill="red" />
  <line x1="248.0" y1="149.67420077377318" x2="248.0" y2="157.41193239666052" stroke="black" stroke-width="1" />
  <rect x="243.2" y="149.83710038688656" width="9.6" height="7.167582976990445" fill="green" />
  <line x1="258.66666666666663" y1="140.71472205253508" x2="258.66666666666663" y2="148.81897780492767" stroke="black" stroke-width="1" />
  <rect x="253.86666666666665" y="142.83241702300955" width="9.6" height="3.9910405212787623" fill="green" />
  <line x1="269.3333333333333" y1="139.39523518631643" x2="269.3333333333333" y2="152.11769497047442" stroke="black" stroke-width="1" />
  <rect x="264.53333333333336" y="142.01791895744248" width="9.6" height="4.886988393402532" fill="red" />
  <line x1="279.99999999999994" y1="141.28487069843214" x2="279.99999999999994" y2="152.68784361637142" stroke="black" stroke-width="1" />
  <rect x="275.2" y="144.86866218692728" width="9.6" height="2.687843616371481" fill="green" />
  <line x1="290.66666666666663" y1="142.42516799022604" x2="290.66666666666663" y2="151.3439218081857" stroke="black" stroke-width="1" />
  <rect x="285.8666666666667" y="143.6469150885767" width="9.6" height="7.086133170433641" fill="red" />
  <line x1="301.3333333333333" y1="146.5791081246182" x2="301.3333333333333" y2="150.89594787212383" stroke="black" stroke-width="1" />
  <rect x="296.53333333333336" y="147.55650580329876" width="9.6" height="1" fill="green" />
  <line x1="311.99999999999994" y1="140.87762166564852" x2="311.99999999999994" y2="146.96843819995928" stroke="black" stroke-width="1" />
  <rect x="307.2" y="142.66951740989617" width="9.6" height="3.665241295051885" fill="green" />
  <line x1="322.66666666666663" y1="133.8729383017715" x2="322.66666666666663" y2="144.2985135410304" stroke="black" stroke-width="1" />
  <rect x="317.8666666666667" y="135.09468540012222" width="9.6" height="7.5748320097739565" fill="green" />
  <line x1="333.3333333333333" y1="131.5923437181837" x2="333.3333333333333" y2="150.0" stroke="black" stroke-width="1" />
  <rect x="328.53333333333336" y="132.56974139686417" width="9.6" height="10.588474852372258" fill="red" />
  <line x1="343.99999999999994" y1="138.2712278558339" x2="343.99999999999994" y2="145.0722867033191" stroke="black" stroke-width="1" />
  <rect x="339.2" y="141.7735695377724" width="9.6" height="2.443494196701181" fill="green" />
  <line x1="354.66666666666663" y1="125.15780900020366" x2="354.66666666666663" y2="136.9680309509265" stroke="black" stroke-width="1" />
  <rect x="349.8666666666667" y="130.20769700671957" width="9.6" height="5.131337813072719" fill="red" />
</svg>