<svg width="400" height="300" xmlns="http://www.w3.org/2000/svg">
  <line x1="40" y1="250" x2="40" y2="50" stroke="black" stroke-width="2" />
  <line x1="35" y1="250.0" x2="40" y2="250.0" stroke="black" stroke-width="1" />
  <text x="10" y="255.0" font-size="10" fill="black">75</text>
  <line x1="40" y1="250.0" x2="380" y2="250.0" stroke="lightgray" stroke-width="1" stroke-dasharray="5, 5" />
  <line x1="35" y1="210.0" x2="40" y2="210.0" stroke="black" stroke-width="1" />
  <text x="10" y="215.0" font-size="10" fill="black">85</text>
  <line x1="40" y1="210.0" x2="380" y2="210.0" stroke="lightgray" stroke-width="1" stroke-dasharray="5, 5" />
  <line x1="35" y1="170.0" x2="40" y2="170.0" stroke="black" stroke-width="1" />
  <text x="10" y="175.0" font-size="10" fill="black">95</text>
  <line x1="40" y1="170.0" x2="380" y2="170.0" stroke="lightgray" stroke-width="1" stroke-dasharray="5, 5" />
  <line x1="35" y1="130.0" x2="40" y2="130.0" stroke="black" stroke-width="1" />
  <text x="10" y="135.0" font-size="10" fill="black">105</text>
  <line x1="40" y1="130.0" x2="380" y2="130.0" stroke="lightgray" stroke-width="1" stroke-dasharray="5, 5" />
  <line x1="35" y1="90.0" x2="40" y2="90.0" stroke="black" stroke-width="1" />
  <text x="10" y="95.0" font-size="10" fill="black">115</text>
  <line x1="40" y1="90.0" x2="380" y2="90.0" stroke="lightgray" stroke-width="1" stroke-dasharray="5, 5" />
  <line x1="35" y1="50.0" x2="40" y2="50.0" stroke="black" stroke-width="1" />
  <text x="10" y="55.0" font-size="10" fill="black">125</text>
  <line x1="40" y1="50.0" x2="380" y2="50.0" stroke="lightgray" stroke-width="1" stroke-dasharray="5, 5" />
  <line x1="35" y1="150.0" x2="40" y2="150.0" stroke="black" stroke-width="1" />
  <text x="10" y="155.0" font-size="10" fill="black">100</text>
  <line x1="40" y1="150.0" x2="380" y2="150.0" stroke="lightgray" stroke-width="1" stroke-dasharray="5, 5" />
  <line x1="45.333333333333336" y1="149.08695652173918" x2="45.333333333333336" y2="153.4782608695652" stroke="black" stroke-width="1" />
  <rect x="40.53333333333333" y="150.0" width="9.6" height="1.9999999999999432" fill="red" />
  <line x1="56.0" y1="148.91304347826082" x2="56.0" y2="154.30434782608694" stroke="black" stroke-width="1" />
  <rect x="51.199999999999996" y="151.99999999999994" width="9.6" height="1.1739130434783647" fill="red" />
  <line x1="66.66666666666666" y1="147.304347826087" x2="66.66666666666666" y2="152.4782608695652" stroke="black" stroke-width="1" />
  <rect x="61.86666666666666" y="147.39130434782612" width="9.6" height="1.0434782608695627" fill="green" />
  <line x1="77.33333333333333" y1="135.6521739130435" x2="77.33333333333333" y2="150.17391304347825" stroke="black" stroke-width="1" />
  <rect x="72.53333333333333" y="135.6521739130435" width="9.6" height="11.739130434782624" fill="green" />
  <line x1="87.99999999999999" y1="135.1304347826087" x2="87.99999999999999" y2="144.60869565217394" stroke="black" stroke-width="1" />
  <rect x="83.19999999999999" y="137.2173913043478" width="9.6" height="1" fill="green" />
  <line x1="98.66666666666666" y1="137.86956521739125" x2="98.66666666666666" y2="143.04347826086962" stroke="black" stroke-width="1" />
  <rect x="93.86666666666666" y="139.56521739130432" width="9.6" height="1" fill="red" />
  <line x1="109.33333333333333" y1="141.30434782608694" x2="109.33333333333333" y2="152.43478260869568" stroke="black" stroke-width="1" />
  <rect x="104.53333333333333" y="141.30434782608694" width="9.6" height="6.5652173913043725" fill="red" />
  <line x1="119.99999999999999" y1="143.04347826086962" x2="119.99999999999999" y2="150.5217391304348" stroke="black" stroke-width="1" />
  <rect x="115.19999999999999" y="148.04347826086956" width="9.6" height="1" fill="green" />
  <line x1="130.66666666666666" y1="136.82608695652175" x2="130.66666666666666" y2="147.95652173913038" stroke="black" stroke-width="1" />
  <rect x="125.86666666666666" y="138.47826086956513" width="9.6" height="9.478260869565247" fill="green" />
  <line x1="141.33333333333334" y1="135.17391304347825" x2="141.33333333333334" y2="140.6521739130435" stroke="black" stroke-width="1" />
  <rect x="136.53333333333333" y="135.17391304347825" width="9.6" height="3.3043478260868824" fill="green" />
  <line x1="152.0" y1="132.86956521739125" x2="152.0" y2="139.56521739130432" stroke="black" stroke-width="1" />
  <rect x="147.2" y="132.86956521739125" width="9.6" height="2.6956521739131745" fill="green" />
  <line x1="162.66666666666666" y1="128.5217391304348" x2="162.66666666666666" y2="140.695652173913" stroke="black" stroke-width="1" />
  <rect x="157.86666666666665" y="132.695652173913" width="9.6" height="4.0869565217391255" fill="red" />
  <line x1="173.33333333333334" y1="140.52173913043475" x2="173.33333333333334" y2="149.82608695652175" stroke="black" stroke-width="1" />
  <rect x="168.53333333333333" y="142.8695652173913" width="9.6" height="4.52173913043481" fill="red" />
  <line x1="184.0" y1="146.04347826086956" x2="184.0" y2="155.1304347826087" stroke="black" stroke-width="1" />
  <rect x="179.2" y="146.04347826086956" width="9.6" height="7.652173913043441" fill="red" />
  <line x1="194.66666666666666" y1="153.08695652173913" x2="194.66666666666666" y2="165.30434782608694" stroke="black" stroke-width="1" />
  <rect x="189.86666666666665" y="153.695652173913" width="9.6" height="10.52173913043481" fill="red" />
  <line x1="205.33333333333334" y1="158.43478260869563" x2="205.33333333333334" y2="163.91304347826087" stroke="black" stroke-width="1" />
  <rect x="200.53333333333333" y="159.8695652173913" width="9.6" height="4.043478260869563" fill="green" />
  <line x1="216.0" y1="155.39130434782606" x2="216.0" y2="163.08695652173918" stroke="black" stroke-width="1" />
  <rect x="211.2" y="155.39130434782606" width="9.6" height="4.869565217391312" fill="green" />
  <line x1="226.66666666666666" y1="150.56521739130432" x2="226.66666666666666" y2="158.7826086956522" stroke="black" stroke-width="1" />
  <rect x="221.86666666666665" y="154.26086956521743" width="9.6" height="3.47826086956519" fill="red" />
  <line x1="237.33333333333334" y1="141.69565217391312" x2="237.33333333333334" y2="159.43478260869568" stroke="black" stroke-width="1" />
  <rect x="232.53333333333333" y="152.26086956521738" width="9.6" height="4.652173913043498" fill="red" />
  <line x1="248.0" y1="148.7826086956522" x2="248.0" y2="154.60869565217394" stroke="black" stroke-width="1" />
  <rect x="243.2" y="148.7826086956522" width="9.6" height="5.826086956521749" fill="red" />
  <line x1="258.66666666666663" y1="150.73913043478262" x2="258.66666666666663" y2="160.43478260869568" stroke="black" stroke-width="1" />
  <rect x="253.86666666666665" y="153.304347826087" width="9.6" height="1.7391304347825667" fill="green" />
  <line x1="269.3333333333333" y1="144.695652173913" x2="269.3333333333333" y2="155.17391304347825" stroke="black" stroke-width="1" />
  <rect x="264.53333333333336" y="144.695652173913" width="9.6" height="8.608695652173992" fill="green" />
  <line x1="279.99999999999994" y1="139.1739130434783" x2="279.99999999999994" y2="145.82608695652175" stroke="black" stroke-width="1" />
  <rect x="275.2" y="141.65217391304344" width="9.6" height="3.0434782608695627" fill="green" />
  <line x1="290.66666666666663" y1="119.26086956521738" x2="290.66666666666663" y2="139.08695652173913" stroke="black" stroke-width="1" />
  <rect x="285.8666666666667" y="121.304347826087" width="9.6" height="16.521739130434753" fill="green" />
  <line x1="301.3333333333333" y1="119.43478260869568" x2="301.3333333333333" y2="124.60869565217394" stroke="black" stroke-width="1" />
  <rect x="296.53333333333336" y="120.69565217391312" width="9.6" height="1" fill="green" />
  <line x1="311.99999999999994" y1="118.60869565217394" x2="311.99999999999994" y2="127.60869565217388" stroke="black" stroke-width="1" />
  <rect x="307.2" y="120.26086956521738" width="9.6" height="1" fill="green" />
  <line x1="322.66666666666663" y1="112.34782608695656" x2="322.66666666666663" y2="120.08695652173913" stroke="black" stroke-width="1" />
  <rect x="317.8666666666667" y="112.34782608695656" width="9.6" height="5.826086956521749" fill="green" />
  <line x1="333.3333333333333" y1="103.91304347826093" x2="333.3333333333333" y2="112.34782608695656" stroke="black" stroke-width="1" />
  <rect x="328.53333333333336" y="106.78260869565224" width="9.6" height="5.565217391304316" fill="green" />
  <line x1="343.99999999999994" y1="81.39130434782606" x2="343.99999999999994" y2="98.26086956521738" stroke="black" stroke-width="1" />
  <rect x="339.2" y="81.39130434782606" width="9.6" height="16.69565217391306" fill="green" />
  <line x1="354.66666666666663" y1="81.73913043478257" x2="354.66666666666663" y2="93.82608695652175" stroke="black" stroke-width="1" />
  <rect x="349.8666666666667" y="83.30434782608688" width="9.6" height="8.000000000000057" fill="red" />
</svg>