<svg width="400" height="300" xmlns="http://www.w3.org/2000/svg">
  <line x1="40" y1="250" x2="40" y2="50" stroke="black" stroke-width="2" />
  <line x1="35" y1="250.0" x2="40" y2="250.0" stroke="black" stroke-width="1" />
  <text x="10" y="255.0" font-size="10" fill="black">75</text>
  <line x1="40" y1="250.0" x2="380" y2="250.0" stroke="lightgray" stroke-width="1" stroke-dasharray="5, 5" />
  <line x1="35" y1="210.0" x2="40" y2="210.0" stroke="black" stroke-width="1" />
  <text x="10" y="215.0" font-size="10" fill="black">85</text>
  <line x1="40" y1="210.0" x2="380" y2="210.0" stroke="lightgray" stroke-width="1" stroke-dasharray="5, 5" />
  <line x1="35" y1="170.0" x2="40" y2="170.0" stroke="black" stroke-width="1" />
  <text x="10" y="175.0" font-size="10" fill="black">95</text>
  <line x1="40" y1="170.0" x2="380" y2="170.0" stroke="lightgray" stroke-width="1" stroke-dasharray="5, 5" />
  <line x1="35" y1="130.0" x2="40" y2="130.0" stroke="black" stroke-width="1" />
  <text x="10" y="135.0" font-size="10" fill="black">105</text>
  <line x1="40" y1="130.0" x2="380" y2="130.0" stroke="lightgray" stroke-width="1" stroke-dasharray="5, 5" />
  <line x1="35" y1="90.0" x2="40" y2="90.0" stroke="black" stroke-width="1" />
  <text x="10" y="95.0" font-size="10" fill="black">115</text>
  <line x1="40" y1="90.0" x2="380" y2="90.0" stroke="lightgray" stroke-width="1" stroke-dasharray="5, 5" />
  <line x1="35" y1="50.0" x2="40" y2="50.0" stroke="black" stroke-width="1" />
  <text x="10" y="55.0" font-size="10" fill="black">125</text>
  <line x1="40" y1="50.0" x2="380" y2="50.0" stroke="lightgray" stroke-width="1" stroke-dasharray="5, 5" />
  <line x1="35" y1="150.0" x2="40" y2="150.0" stroke="black" stroke-width="1" />
  <text x="10" y="155.0" font-size="10" fill="black">100</text>
  <line x1="40" y1="150.0" x2="380" y2="150.0" stroke="lightgray" stroke-width="1" stroke-dasharray="5, 5" />
  <line x1="45.333333333333336" y1="147.32713538640326" x2="45.333333333333336" y2="151.1621150493899" stroke="black" stroke-width="1" />
  <rect x="40.53333333333333" y="148.0244044160371" width="9.6" height="1.9755955839628996" fill="green" />
  <line x1="56.0" y1="146.62986635676936" x2="56.0" y2="149.97094712376526" stroke="black" stroke-width="1" />
  <rect x="51.199999999999996" y="147.03660662405582" width="9.6" height="2.149912841371304" fill="red" />
  <line x1="66.66666666666666" y1="146.80418361417782" x2="66.66666666666666" y2="150.4357931435212" stroke="black" stroke-width="1" />
  <rect x="61.86666666666666" y="146.8622893666473" width="9.6" height="2.2661243463103347" fill="green" />
  <line x1="77.33333333333333" y1="142.50435793143527" x2="77.33333333333333" y2="147.1237652527601" stroke="black" stroke-width="1" />
  <rect x="72.53333333333333" y="145.758280069727" width="9.6" height="1" fill="green" />
  <line x1="87.99999999999999" y1="143.7245787332946" x2="87.99999999999999" y2="150.29052876234744" stroke="black" stroke-width="1" />
  <rect x="83.19999999999999" y="143.7245787332946" width="9.6" height="3.4282393957001887" fill="red" />
  <line x1="98.66666666666666" y1="144.13131900058113" x2="98.66666666666666" y2="149.44799535153982" stroke="black" stroke-width="1" />
  <rect x="93.86666666666666" y="144.47995351539805" width="9.6" height="2.266124346310221" fill="green" />
  <line x1="109.33333333333333" y1="137.9140034863451" x2="109.33333333333333" y2="144.82858803021497" stroke="black" stroke-width="1" />
  <rect x="104.53333333333333" y="138.37884950610106" width="9.6" height="5.868680999418984" fill="green" />
  <line x1="119.99999999999999" y1="134.36955258570606" x2="119.99999999999999" y2="137.15862870424172" stroke="black" stroke-width="1" />
  <rect x="115.19999999999999" y="134.54386984311446" width="9.6" height="1.0459035444509368" fill="green" />
  <line x1="130.66666666666666" y1="132.7425915165602" x2="130.66666666666666" y2="135.73503776873912" stroke="black" stroke-width="1" />
  <rect x="125.86666666666666" y="133.09122603137712" width="9.6" height="1" fill="green" />
  <line x1="141.33333333333334" y1="130.3602556653109" x2="141.33333333333334" y2="136.11272515979084" stroke="black" stroke-width="1" />
  <rect x="136.53333333333333" y="131.34805345729228" width="9.6" height="1" fill="green" />
  <line x1="152.0" y1="128.32655432887867" x2="152.0" y2="132.9169087739686" stroke="black" stroke-width="1" />
  <rect x="147.2" y="128.90761185357354" width="9.6" height="1.56885531667632" fill="green" />
  <line x1="162.66666666666666" y1="124.17199302730972" x2="162.66666666666666" y2="130.2149912841371" stroke="black" stroke-width="1" />
  <rect x="157.86666666666665" y="125.76990122022079" width="9.6" height="3.3120278907612715" fill="green" />
  <line x1="173.33333333333334" y1="122.74840209180712" x2="173.33333333333334" y2="132.16153399186527" stroke="black" stroke-width="1" />
  <rect x="168.53333333333333" y="124.08483439860555" width="9.6" height="4.299825682742494" fill="red" />
  <line x1="184.0" y1="127.68739105171409" x2="184.0" y2="137.5653689715282" stroke="black" stroke-width="1" />
  <rect x="179.2" y="128.03602556653112" width="9.6" height="8.42533410807664" fill="red" />
  <line x1="194.66666666666666" y1="133.55607205113307" x2="194.66666666666666" y2="138.08832074375363" stroke="black" stroke-width="1" />
  <rect x="189.86666666666665" y="136.63567693201628" width="9.6" height="1" fill="green" />
  <line x1="205.33333333333334" y1="129.86635676932013" x2="205.33333333333334" y2="137.5653689715282" stroke="black" stroke-width="1" />
  <rect x="200.53333333333333" y="132.5101685066822" width="9.6" height="3.6025566531086497" fill="green" />
  <line x1="216.0" y1="129.19814061592103" x2="216.0" y2="134.4276583381755" stroke="black" stroke-width="1" />
  <rect x="211.2" y="131.8128994770483" width="9.6" height="2.440441603718739" fill="red" />
  <line x1="226.66666666666666" y1="135.29924462521785" x2="226.66666666666666" y2="139.9471237652528" stroke="black" stroke-width="1" />
  <rect x="221.86666666666665" y="135.35735037768745" width="9.6" height="1.6269610691458638" fill="red" />
  <line x1="237.33333333333334" y1="135.24113887274848" x2="237.33333333333334" y2="139.4538059267868" stroke="black" stroke-width="1" />
  <rect x="232.53333333333333" y="136.11272515979084" width="9.6" height="1.3364323067984287" fill="green" />
  <line x1="248.0" y1="134.74723997675773" x2="248.0" y2="140.47065659500288" stroke="black" stroke-width="1" />
  <rect x="243.2" y="135.06682161533996" width="9.6" height="3.312027890761101" fill="green" />
  <line x1="258.66666666666663" y1="130.24404416037197" x2="258.66666666666663" y2="133.8466008134805" stroke="black" stroke-width="1" />
  <rect x="253.86666666666665" y="131.05752469494485" width="9.6" height="1.9174898314932989" fill="green" />
  <line x1="269.3333333333333" y1="129.6048808832075" x2="269.3333333333333" y2="133.2364904125509" stroke="black" stroke-width="1" />
  <rect x="264.53333333333336" y="132.21963974433464" width="9.6" height="1" fill="red" />
  <line x1="279.99999999999994" y1="129.43056362579898" x2="279.99999999999994" y2="135.8803021499129" stroke="black" stroke-width="1" />
  <rect x="275.2" y="132.27774549680424" width="9.6" height="1" fill="red" />
  <line x1="290.66666666666663" y1="131.98721673445675" x2="290.66666666666663" y2="139.77338756536903" stroke="black" stroke-width="1" />
  <rect x="285.8666666666667" y="134.19523532829754" width="9.6" height="5.461940732132405" fill="red" />
  <line x1="301.3333333333333" y1="132.80069726902968" x2="301.3333333333333" y2="141.05171411969792" stroke="black" stroke-width="1" />
  <rect x="296.53333333333336" y="133.7303893085416" width="9.6" height="7.147007553747812" fill="green" />
  <line x1="311.99999999999994" y1="130.47646717024986" x2="311.99999999999994" y2="136.40325392213828" stroke="black" stroke-width="1" />
  <rect x="307.2" y="133.20743753631604" width="9.6" height="1.0459035444509936" fill="green" />
  <line x1="322.66666666666663" y1="132.71353864032545" x2="322.66666666666663" y2="139.77338756536903" stroke="black" stroke-width="1" />
  <rect x="317.8666666666667" y="135.5316676350959" width="9.6" height="1" fill="green" />
  <line x1="333.3333333333333" y1="132.10342823939573" x2="333.3333333333333" y2="135.67693201626963" stroke="black" stroke-width="1" />
  <rect x="328.53333333333336" y="133.32364904125518" width="9.6" height="1.5107495642067192" fill="red" />
  <line x1="343.99999999999994" y1="133.9047065659501" x2="343.99999999999994" y2="138.37884950610106" stroke="black" stroke-width="1" />
  <rect x="339.2" y="135.1249273678094" width="9.6" height="3.1377106333527536" fill="green" />
  <line x1="354.66666666666663" y1="130.47646717024986" x2="354.66666666666663" y2="134.77629285299253" stroke="black" stroke-width="1" />
  <rect x="349.8666666666667" y="132.8588030214991" width="9.6" height="1.452643811737346" fill="green" />
</svg>