<svg width="400" height="300" xmlns="http://www.w3.org/2000/svg">
  <line x1="40" y1="250" x2="40" y2="50" stroke="black" stroke-width="2" />
  <line x1="35" y1="250.0" x2="40" y2="250.0" stroke="black" stroke-width="1" />
  <text x="10" y="255.0" font-size="10" fill="black">75</text>
  <line x1="40" y1="250.0" x2="380" y2="250.0" stroke="lightgray" stroke-width="1" stroke-dasharray="5, 5" />
  <line x1="35" y1="210.0" x2="40" y2="210.0" stroke="black" stroke-width="1" />
  <text x="10" y="215.0" font-size="10" fill="black">85</text>
  <line x1="40" y1="210.0" x2="380" y2="210.0" stroke="lightgray" stroke-width="1" stroke-dasharray="5, 5" />
  <line x1="35" y1="170.0" x2="40" y2="170.0" stroke="black" stroke-width="1" />
  <text x="10" y="175.0" font-size="10" fill="black">95</text>
  <line x1="40" y1="170.0" x2="380" y2="170.0" stroke="lightgray" stroke-width="1" stroke-dasharray="5, 5" />
  <line x1="35" y1="130.0" x2="40" y2="130.0" stroke="black" stroke-width="1" />
  <text x="10" y="135.0" font-size="10" fill="black">105</text>
  <line x1="40" y1="130.0" x2="380" y2="130.0" stroke="lightgray" stroke-width="1" stroke-dasharray="5, 5" />
  <line x1="35" y1="90.0" x2="40" y2="90.0" stroke="black" stroke-width="1" />
  <text x="10" y="95.0" font-size="10" fill="black">115</text>
  <line x1="40" y1="90.0" x2="380" y2="90.0" stroke="lightgray" stroke-width="1" stroke-dasharray="5, 5" />
  <line x1="35" y1="50.0" x2="40" y2="50.0" stroke="black" stroke-width="1" />
  <text x="10" y="55.0" font-size="10" fill="black">125</text>
  <line x1="40" y1="50.0" x2="380" y2="50.0" stroke="lightgray" stroke-width="1" stroke-dasharray="5, 5" />
  <line x1="35" y1="150.0" x2="40" y2="150.0" stroke="black" stroke-width="1" />
  <text x="10" y="155.0" font-size="10" fill="black">100</text>
  <line x1="40" y1="150.0" x2="380" y2="150.0" stroke="lightgray" stroke-width="1" stroke-dasharray="5, 5" />
  <line x1="45.333333333333336" y1="146.5217391304348" x2="45.333333333333336" y2="150.36613272311217" stroke="black" stroke-width="1" />
  <rect x="40.53333333333333" y="148.90160183066365" width="9.6" height="1.098398169336349" fill="green" />
  <line x1="56.0" y1="145.78947368421058" x2="56.0" y2="149.45080091533185" stroke="black" stroke-width="1" />
  <rect x="51.199999999999996" y="145.78947368421058" width="9.6" height="2.562929061784871" fill="green" />
  <line x1="66.66666666666666" y1="145.0572082379863" x2="66.66666666666666" y2="146.88787185354693" stroke="black" stroke-width="1" />
  <rect x="61.86666666666666" y="145.9725400457666" width="9.6" height="1" fill="red" />
  <line x1="77.33333333333333" y1="144.14187643020597" x2="77.33333333333333" y2="145.9725400457666" stroke="black" stroke-width="1" />
  <rect x="72.53333333333333" y="144.69107551487417" width="9.6" height="1.2814645308924355" fill="green" />
  <line x1="87.99999999999999" y1="140.66361556064078" x2="87.99999999999999" y2="144.87414187643026" stroke="black" stroke-width="1" />
  <rect x="83.19999999999999" y="141.76201372997707" width="9.6" height="2.929061784897101" fill="green" />
  <line x1="98.66666666666666" y1="138.64988558352405" x2="98.66666666666666" y2="141.94508009153327" stroke="black" stroke-width="1" />
  <rect x="93.86666666666666" y="138.64988558352405" width="9.6" height="3.112128146453017" fill="green" />
  <line x1="109.33333333333333" y1="136.81922196796341" x2="109.33333333333333" y2="141.21281464530898" stroke="black" stroke-width="1" />
  <rect x="104.53333333333333" y="139.38215102974834" width="9.6" height="1.8306636155606384" fill="red" />
  <line x1="119.99999999999999" y1="138.64988558352405" x2="119.99999999999999" y2="141.0297482837529" stroke="black" stroke-width="1" />
  <rect x="115.19999999999999" y="141.0297482837529" width="9.6" height="1" fill="red" />
  <line x1="130.66666666666666" y1="139.7482837528604" x2="130.66666666666666" y2="143.22654462242565" stroke="black" stroke-width="1" />
  <rect x="125.86666666666666" y="141.0297482837529" width="9.6" height="1.8306636155606384" fill="green" />
  <line x1="141.33333333333334" y1="135.90389016018304" x2="141.33333333333334" y2="141.0297482837529" stroke="black" stroke-width="1" />
  <rect x="136.53333333333333" y="136.08695652173924" width="9.6" height="4.942791762013655" fill="green" />
  <line x1="152.0" y1="133.70709382151034" x2="152.0" y2="138.283752860412" stroke="black" stroke-width="1" />
  <rect x="147.2" y="133.70709382151034" width="9.6" height="3.112128146453074" fill="green" />
  <line x1="162.66666666666666" y1="126.93363844393593" x2="162.66666666666666" y2="133.5240274599543" stroke="black" stroke-width="1" />
  <rect x="157.86666666666665" y="128.94736842105266" width="9.6" height="4.576659038901653" fill="green" />
  <line x1="173.33333333333334" y1="127.48283752860414" x2="173.33333333333334" y2="134.62242562929066" stroke="black" stroke-width="1" />
  <rect x="168.53333333333333" y="128.21510297482848" width="9.6" height="2.196796338672641" fill="green" />
  <line x1="184.0" y1="121.99084668192228" x2="184.0" y2="129.13043478260875" stroke="black" stroke-width="1" />
  <rect x="179.2" y="122.3569794050344" width="9.6" height="5.858123569794088" fill="green" />
  <line x1="194.66666666666666" y1="121.80778032036619" x2="194.66666666666666" y2="125.65217391304355" stroke="black" stroke-width="1" />
  <rect x="189.86666666666665" y="122.17391304347825" width="9.6" height="1.2814645308924923" fill="green" />
  <line x1="205.33333333333334" y1="121.25858123569799" x2="205.33333333333334" y2="125.46910755148747" stroke="black" stroke-width="1" />
  <rect x="200.53333333333333" y="122.54004576659037" width="9.6" height="2.1967963386728115" fill="red" />
  <line x1="216.0" y1="123.27231121281466" x2="216.0" y2="127.66590389016022" stroke="black" stroke-width="1" />
  <rect x="211.2" y="124.73684210526318" width="9.6" height="2.929061784897044" fill="red" />
  <line x1="226.66666666666666" y1="126.38443935926773" x2="226.66666666666666" y2="133.8901601830663" stroke="black" stroke-width="1" />
  <rect x="221.86666666666665" y="126.56750572082382" width="9.6" height="1.4645308924484652" fill="green" />
  <line x1="237.33333333333334" y1="124.91990846681927" x2="237.33333333333334" y2="128.03203661327228" stroke="black" stroke-width="1" />
  <rect x="232.53333333333333" y="125.28604118993138" width="9.6" height="1" fill="green" />
  <line x1="248.0" y1="121.6247139588101" x2="248.0" y2="126.38443935926773" stroke="black" stroke-width="1" />
  <rect x="243.2" y="123.45537757437074" width="9.6" height="1.464530892448522" fill="green" />
  <line x1="258.66666666666663" y1="120.5263157894737" x2="258.66666666666663" y2="124.5537757437072" stroke="black" stroke-width="1" />
  <rect x="253.86666666666665" y="120.5263157894737" width="9.6" height="3.1121281464531307" fill="green" />
  <line x1="269.3333333333333" y1="116.86498855835242" x2="269.3333333333333" y2="121.25858123569799" stroke="black" stroke-width="1" />
  <rect x="264.53333333333336" y="117.04805491990851" width="9.6" height="2.929061784897044" fill="green" />
  <line x1="279.99999999999994" y1="114.3020594965675" x2="279.99999999999994" y2="117.7803203661328" stroke="black" stroke-width="1" />
  <rect x="275.2" y="115.58352402745999" width="9.6" height="1.8306636155606384" fill="green" />
  <line x1="290.66666666666663" y1="113.93592677345544" x2="290.66666666666663" y2="118.69565217391312" stroke="black" stroke-width="1" />
  <rect x="285.8666666666667" y="116.31578947368422" width="9.6" height="1.464530892448579" fill="red" />
  <line x1="301.3333333333333" y1="114.11899313501152" x2="301.3333333333333" y2="118.329519450801" stroke="black" stroke-width="1" />
  <rect x="296.53333333333336" y="115.03432494279178" width="9.6" height="2.7459954233410144" fill="green" />
  <line x1="311.99999999999994" y1="110.09153318077801" x2="311.99999999999994" y2="116.31578947368422" stroke="black" stroke-width="1" />
  <rect x="307.2" y="111.18993135011442" width="9.6" height="4.02745995423345" fill="green" />
  <line x1="322.66666666666663" y1="109.90846681922204" x2="322.66666666666663" y2="113.02059496567506" stroke="black" stroke-width="1" />
  <rect x="317.8666666666667" y="110.27459954233416" width="9.6" height="1" fill="green" />
  <line x1="333.3333333333333" y1="103.31807780320366" x2="333.3333333333333" y2="110.27459954233416" stroke="black" stroke-width="1" />
  <rect x="328.53333333333336" y="103.31807780320366" width="9.6" height="6.956521739130494" fill="green" />
  <line x1="343.99999999999994" y1="100.93821510297482" x2="343.99999999999994" y2="106.43020594965674" stroke="black" stroke-width="1" />
  <rect x="339.2" y="102.03661327231129" width="9.6" height="1.2814645308923787" fill="green" />
  <line x1="354.66666666666663" y1="100.75514874141885" x2="354.66666666666663" y2="111.37299771167051" stroke="black" stroke-width="1" />
  <rect x="349.8666666666667" y="101.304347826087" width="9.6" height="10.068649885583511" fill="red" />
</svg>