<svg width="400" height="300" xmlns="http://www.w3.org/2000/svg">
  <line x1="40" y1="250" x2="40" y2="50" stroke="black" stroke-width="2" />
  <line x1="35" y1="250.0" x2="40" y2="250.0" stroke="black" stroke-width="1" />
  <text x="10" y="255.0" font-size="10" fill="black">75</text>
  <line x1="40" y1="250.0" x2="380" y2="250.0" stroke="lightgray" stroke-width="1" stroke-dasharray="5, 5" />
  <line x1="35" y1="210.0" x2="40" y2="210.0" stroke="black" stroke-width="1" />
  <text x="10" y="215.0" font-size="10" fill="black">85</text>
  <line x1="40" y1="210.0" x2="380" y2="210.0" stroke="lightgray" stroke-width="1" stroke-dasharray="5, 5" />
  <line x1="35" y1="170.0" x2="40" y2="170.0" stroke="black" stroke-width="1" />
  <text x="10" y="175.0" font-size="10" fill="black">95</text>
  <line x1="40" y1="170.0" x2="380" y2="170.0" stroke="lightgray" stroke-width="1" stroke-dasharray="5, 5" />
  <line x1="35" y1="130.0" x2="40" y2="130.0" stroke="black" stroke-width="1" />
  <text x="10" y="135.0" font-size="10" fill="black">105</text>
  <line x1="40" y1="130.0" x2="380" y2="130.0" stroke="lightgray" stroke-width="1" stroke-dasharray="5, 5" />
  <line x1="35" y1="90.0" x2="40" y2="90.0" stroke="black" stroke-width="1" />
  <text x="10" y="95.0" font-size="10" fill="black">115</text>
  <line x1="40" y1="90.0" x2="380" y2="90.0" stroke="lightgray" stroke-width="1" stroke-dasharray="5, 5" />
  <line x1="35" y1="50.0" x2="40" y2="50.0" stroke="black" stroke-width="1" />
  <text x="10" y="55.0" font-size="10" fill="black">125</text>
  <line x1="40" y1="50.0" x2="380" y2="50.0" stroke="lightgray" stroke-width="1" stroke-dasharray="5, 5" />
  <line x1="35" y1="150.0" x2="40" y2="150.0" stroke="black" stroke-width="1" />
  <text x="10" y="155.0" font-size="10" fill="black">100</text>
  <line x1="40" y1="150.0" x2="380" y2="150.0" stroke="lightgray" stroke-width="1" stroke-dasharray="5, 5" />
  <line x1="45.333333333333336" y1="148.33884227476898" x2="45.333333333333336" y2="151.11873887617594" stroke="black" stroke-width="1" />
  <rect x="40.53333333333333" y="149.38977879481314" width="9.6" height="1" fill="green" />
  <line x1="56.0" y1="141.49080430544956" x2="56.0" y2="149.38977879481314" stroke="black" stroke-width="1" />
  <rect x="51.199999999999996" y="148.16933638443936" width="9.6" height="1" fill="green" />
  <line x1="66.66666666666666" y1="147.76252224764806" x2="66.66666666666666" y2="161.7976099669463" stroke="black" stroke-width="1" />
  <rect x="61.86666666666666" y="147.76252224764806" width="9.6" height="13.797779472836737" fill="red" />
  <line x1="77.33333333333333" y1="158.20408509195698" x2="77.33333333333333" y2="164.34019832189165" stroke="black" stroke-width="1" />
  <rect x="72.53333333333333" y="160.10255106364946" width="9.6" height="3.9325366556487893" fill="red" />
  <line x1="87.99999999999999" y1="160.10255106364946" x2="87.99999999999999" y2="164.7639630477159" stroke="black" stroke-width="1" />
  <rect x="83.19999999999999" y="161.05178404949572" width="9.6" height="3.2206119162640903" fill="green" />
  <line x1="98.66666666666666" y1="154.30544961437408" x2="98.66666666666666" y2="160.0516992965505" stroke="black" stroke-width="1" />
  <rect x="93.86666666666666" y="155.6614967370116" width="9.6" height="4.3902025595389205" fill="green" />
  <line x1="109.33333333333333" y1="146.7793880837359" x2="109.33333333333333" y2="153.62742605305533" stroke="black" stroke-width="1" />
  <rect x="104.53333333333333" y="147.22010339859304" width="9.6" height="3.559623696923495" fill="green" />
  <line x1="119.99999999999999" y1="145.18603271463684" x2="119.99999999999999" y2="152.0001695058903" stroke="black" stroke-width="1" />
  <rect x="115.19999999999999" y="146.71158572760402" width="9.6" height="4.33935079244003" fill="red" />
  <line x1="130.66666666666666" y1="151.38994830070345" x2="130.66666666666666" y2="155.8649038054072" stroke="black" stroke-width="1" />
  <rect x="125.86666666666666" y="153.35621662852782" width="9.6" height="1.6272565471650182" fill="red" />
  <line x1="141.33333333333334" y1="147.28790575472493" x2="141.33333333333334" y2="155.5597932028138" stroke="black" stroke-width="1" />
  <rect x="136.53333333333333" y="149.52538350707687" width="9.6" height="3.152809560132198" fill="green" />
  <line x1="152.0" y1="149.89829646580216" x2="152.0" y2="155.76320027120943" stroke="black" stroke-width="1" />
  <rect x="147.2" y="150.16950589032967" width="9.6" height="3.898635477582843" fill="green" />
  <line x1="162.66666666666666" y1="156.44122383252818" x2="162.66666666666666" y2="163.39096533604538" stroke="black" stroke-width="1" />
  <rect x="157.86666666666665" y="157.2887532841766" width="9.6" height="1.2543435884396672" fill="red" />
  <line x1="173.33333333333334" y1="156.2378167641325" x2="173.33333333333334" y2="163.611322993474" stroke="black" stroke-width="1" />
  <rect x="168.53333333333333" y="159.1533180778032" width="9.6" height="4.169844902110356" fill="red" />
  <line x1="184.0" y1="159.18721925586914" x2="184.0" y2="166.67937960844142" stroke="black" stroke-width="1" />
  <rect x="179.2" y="159.89914399525384" width="9.6" height="6.441223832528124" fill="red" />
  <line x1="194.66666666666666" y1="162.91634884312225" x2="194.66666666666666" y2="171.21535723366384" stroke="black" stroke-width="1" />
  <rect x="189.86666666666665" y="164.91651834901262" width="9.6" height="3.2206119162640334" fill="red" />
  <line x1="205.33333333333334" y1="156.2378167641325" x2="205.33333333333334" y2="168.06932790914482" stroke="black" stroke-width="1" />
  <rect x="200.53333333333333" y="160.10255106364946" width="9.6" height="7.254852106110661" fill="green" />
  <line x1="216.0" y1="158.78040511907784" x2="216.0" y2="176.51072124756337" stroke="black" stroke-width="1" />
  <rect x="211.2" y="159.79744046105606" width="9.6" height="14.509704212221322" fill="red" />
  <line x1="226.66666666666666" y1="173.8664293584202" x2="226.66666666666666" y2="184.6470039833884" stroke="black" stroke-width="1" />
  <rect x="221.86666666666665" y="174.4596999745741" width="9.6" height="3.57657428595644" fill="red" />
  <line x1="237.33333333333334" y1="172.57818459191452" x2="237.33333333333334" y2="177.8976184422408" stroke="black" stroke-width="1" />
  <rect x="232.53333333333333" y="172.91719637257393" width="9.6" height="4.508856682769704" fill="green" />
  <line x1="248.0" y1="168.71345029239768" x2="248.0" y2="173.93423171455203" stroke="black" stroke-width="1" />
  <rect x="243.2" y="172.10356809899145" width="9.6" height="1.0848376981099932" fill="red" />
  <line x1="258.66666666666663" y1="166.62852784134247" x2="258.66666666666663" y2="171.3577421815408" stroke="black" stroke-width="1" />
  <rect x="253.86666666666665" y="167.89982201881514" width="9.6" height="2.2374777523518787" fill="green" />
  <line x1="269.3333333333333" y1="162.27222645986944" x2="269.3333333333333" y2="169.89999152470546" stroke="black" stroke-width="1" />
  <rect x="264.53333333333336" y="162.91634884312225" width="9.6" height="6.3056191202645095" fill="green" />
  <line x1="279.99999999999994" y1="158.0006780235613" x2="279.99999999999994" y2="164.17069243156197" stroke="black" stroke-width="1" />
  <rect x="275.2" y="161.5603017204848" width="9.6" height="1.593355369099072" fill="green" />
  <line x1="290.66666666666663" y1="151.4068988897364" x2="290.66666666666663" y2="159.49232985846254" stroke="black" stroke-width="1" />
  <rect x="285.8666666666667" y="156.2039155860666" width="9.6" height="1" fill="red" />
  <line x1="301.3333333333333" y1="158.40749216035255" x2="301.3333333333333" y2="162.67904059666074" stroke="black" stroke-width="1" />
  <rect x="296.53333333333336" y="158.57699805068228" width="9.6" height="1" fill="red" />
  <line x1="311.99999999999994" y1="150.66785320789893" x2="311.99999999999994" y2="159.7296381049241" stroke="black" stroke-width="1" />
  <rect x="307.2" y="152.1357742181541" width="9.6" height="6.881939147385367" fill="green" />
  <line x1="322.66666666666663" y1="149.42367997287909" x2="322.66666666666663" y2="153.9325366556488" stroke="black" stroke-width="1" />
  <rect x="317.8666666666667" y="150.50851767098902" width="9.6" height="2.678193067209122" fill="red" />
  <line x1="333.3333333333333" y1="153.18671073819814" x2="333.3333333333333" y2="163.39096533604538" stroke="black" stroke-width="1" />
  <rect x="328.53333333333336" y="155.10212729892362" width="9.6" height="5.814052038308375" fill="red" />
  <line x1="343.99999999999994" y1="165.2894313077379" x2="343.99999999999994" y2="173.22230697516738" stroke="black" stroke-width="1" />
  <rect x="339.2" y="167.59471141622168" width="9.6" height="5.6275955589457" fill="green" />
  <line x1="354.66666666666663" y1="156.44122383252818" x2="354.66666666666663" y2="166.0691584032545" stroke="black" stroke-width="1" />
  <rect x="349.8666666666667" y="157.3565556403085" width="9.6" height="6.983642681583149" fill="green" />
</svg>