<svg width="400" height="300" xmlns="http://www.w3.org/2000/svg">
  <line x1="40" y1="250" x2="40" y2="50" stroke="black" stroke-width="2" />
  <line x1="35" y1="250.0" x2="40" y2="250.0" stroke="black" stroke-width="1" />
  <text x="10" y="255.0" font-size="10" fill="black">75</text>
  <line x1="40" y1="250.0" x2="380" y2="250.0" stroke="lightgray" stroke-width="1" stroke-dasharray="5, 5" />
  <line x1="35" y1="210.0" x2="40" y2="210.0" stroke="black" stroke-width="1" />
  <text x="10" y="215.0" font-size="10" fill="black">85</text>
  <line x1="40" y1="210.0" x2="380" y2="210.0" stroke="lightgray" stroke-width="1" stroke-dasharray="5, 5" />
  <line x1="35" y1="170.0" x2="40" y2="170.0" stroke="black" stroke-width="1" />
  <text x="10" y="175.0" font-size="10" fill="black">95</text>
  <line x1="40" y1="170.0" x2="380" y2="170.0" stroke="lightgray" stroke-width="1" stroke-dasharray="5, 5" />
  <line x1="35" y1="130.0" x2="40" y2="130.0" stroke="black" stroke-width="1" />
  <text x="10" y="135.0" font-size="10" fill="black">105</text>
  <line x1="40" y1="130.0" x2="380" y2="130.0" stroke="lightgray" stroke-width="1" stroke-dasharray="5, 5" />
  <line x1="35" y1="90.0" x2="40" y2="90.0" stroke="black" stroke-width="1" />
  <text x="10" y="95.0" font-size="10" fill="black">115</text>
  <line x1="40" y1="90.0" x2="380" y2="90.0" stroke="lightgray" stroke-width="1" stroke-dasharray="5, 5" />
  <line x1="35" y1="50.0" x2="40" y2="50.0" stroke="black" stroke-width="1" />
  <text x="10" y="55.0" font-size="10" fill="black">125</text>
  <line x1="40" y1="50.0" x2="380" y2="50.0" stroke="lightgray" stroke-width="1" stroke-dasharray="5, 5" />
  <line x1="35" y1="150.0" x2="40" y2="150.0" stroke="black" stroke-width="1" />
  <text x="10" y="155.0" font-size="10" fill="black">100</text>
  <line x1="40" y1="150.0" x2="380" y2="150.0" stroke="lightgray" stroke-width="1" stroke-dasharray="5, 5" />
  <line x1="45.333333333333336" y1="141.6347159288951" x2="45.333333333333336" y2="153.06727082607188" stroke="black" stroke-width="1" />
  <rect x="40.53333333333333" y="143.86545834785647" width="9.6" height="6.134541652143525" fill="green" />
  <line x1="56.0" y1="141.07703032415475" x2="56.0" y2="145.95677936563266" stroke="black" stroke-width="1" />
  <rect x="51.199999999999996" y="143.4471941443012" width="9.6" height="1" fill="green" />
  <line x1="66.66666666666666" y1="141.21645172533988" x2="66.66666666666666" y2="146.37504356918794" stroke="black" stroke-width="1" />
  <rect x="61.86666666666666" y="142.88950853956084" width="9.6" height="2.091321017776181" fill="red" />
  <line x1="77.33333333333333" y1="139.54339491111887" x2="77.33333333333333" y2="144.56256535378185" stroke="black" stroke-width="1" />
  <rect x="72.53333333333333" y="142.05298013245027" width="9.6" height="2.5095852213315766" fill="green" />
  <line x1="87.99999999999999" y1="137.73091669571284" x2="87.99999999999999" y2="141.21645172533988" stroke="black" stroke-width="1" />
  <rect x="83.19999999999999" y="139.54339491111887" width="9.6" height="1.6730568142210132" fill="green" />
  <line x1="98.66666666666666" y1="138.8462879051935" x2="98.66666666666666" y2="142.1924015336354" stroke="black" stroke-width="1" />
  <rect x="93.86666666666666" y="139.4039735099338" width="9.6" height="1" fill="green" />
  <line x1="109.33333333333333" y1="138.8462879051935" x2="109.33333333333333" y2="146.6538863715581" stroke="black" stroke-width="1" />
  <rect x="104.53333333333333" y="139.4039735099338" width="9.6" height="6.273963053328657" fill="red" />
  <line x1="119.99999999999999" y1="144.28372255141164" x2="119.99999999999999" y2="149.1634715928895" stroke="black" stroke-width="1" />
  <rect x="115.19999999999999" y="145.67793656326245" width="9.6" height="1.67305681422107" fill="red" />
  <line x1="130.66666666666666" y1="144.841408156152" x2="130.66666666666666" y2="154.18264203555248" stroke="black" stroke-width="1" />
  <rect x="125.86666666666666" y="145.67793656326245" width="9.6" height="5.019170442662926" fill="red" />
  <line x1="141.33333333333334" y1="141.6347159288951" x2="141.33333333333334" y2="148.6057859881492" stroke="black" stroke-width="1" />
  <rect x="136.53333333333333" y="146.7933077727431" width="9.6" height="1" fill="green" />
  <line x1="152.0" y1="144.0048797490415" x2="152.0" y2="150.41826420355522" stroke="black" stroke-width="1" />
  <rect x="147.2" y="144.70198675496687" width="9.6" height="2.3701638201465016" fill="green" />
  <line x1="162.66666666666666" y1="141.07703032415475" x2="162.66666666666666" y2="146.7933077727431" stroke="black" stroke-width="1" />
  <rect x="157.86666666666665" y="144.70198675496687" width="9.6" height="1" fill="red" />
  <line x1="173.33333333333334" y1="148.7452073893342" x2="173.33333333333334" y2="154.60090623910776" stroke="black" stroke-width="1" />
  <rect x="168.53333333333333" y="148.88462879051934" width="9.6" height="2.5095852213315197" fill="red" />
  <line x1="184.0" y1="147.07215057511337" x2="184.0" y2="155.29801324503313" stroke="black" stroke-width="1" />
  <rect x="179.2" y="151.53363541303594" width="9.6" height="3.7643778319971943" fill="red" />
  <line x1="194.66666666666666" y1="152.2307424189613" x2="194.66666666666666" y2="155.8556988497735" stroke="black" stroke-width="1" />
  <rect x="189.86666666666665" y="153.48553502962704" width="9.6" height="1.8124782154060881" fill="green" />
  <line x1="205.33333333333334" y1="152.50958522133146" x2="205.33333333333334" y2="155.8556988497735" stroke="black" stroke-width="1" />
  <rect x="200.53333333333333" y="153.48553502962704" width="9.6" height="1" fill="green" />
  <line x1="216.0" y1="145.81735796444758" x2="216.0" y2="155.01917044266298" stroke="black" stroke-width="1" />
  <rect x="211.2" y="148.1875217845939" width="9.6" height="5.019170442662983" fill="green" />
  <line x1="226.66666666666666" y1="146.93272917392824" x2="226.66666666666666" y2="153.62495643081212" stroke="black" stroke-width="1" />
  <rect x="221.86666666666665" y="148.1875217845939" width="9.6" height="3.3461136284420263" fill="red" />
  <line x1="237.33333333333334" y1="148.32694318577904" x2="237.33333333333334" y2="158.92296967584525" stroke="black" stroke-width="1" />
  <rect x="232.53333333333333" y="150.41826420355522" width="9.6" height="6.134541652143639" fill="red" />
  <line x1="248.0" y1="154.18264203555248" x2="248.0" y2="158.22586266991982" stroke="black" stroke-width="1" />
  <rect x="243.2" y="155.15859184384806" width="9.6" height="1.5336354130358814" fill="red" />
  <line x1="258.66666666666663" y1="155.71627744858836" x2="258.66666666666663" y2="160.5960264900662" stroke="black" stroke-width="1" />
  <rect x="253.86666666666665" y="156.55280585569886" width="9.6" height="2.230742418961313" fill="red" />
  <line x1="269.3333333333333" y1="150.13942140118513" x2="269.3333333333333" y2="158.78354827466018" stroke="black" stroke-width="1" />
  <rect x="264.53333333333336" y="152.09132101777624" width="9.6" height="5.019170442662926" fill="green" />
  <line x1="279.99999999999994" y1="151.39421401185086" x2="279.99999999999994" y2="154.8797490414779" stroke="black" stroke-width="1" />
  <rect x="275.2" y="151.53363541303594" width="9.6" height="1" fill="green" />
  <line x1="290.66666666666663" y1="148.0481003834089" x2="290.66666666666663" y2="161.01429069362155" stroke="black" stroke-width="1" />
  <rect x="285.8666666666667" y="151.1153712094807" width="9.6" height="6.273963053328657" fill="red" />
  <line x1="301.3333333333333" y1="154.18264203555248" x2="301.3333333333333" y2="160.45660508888113" stroke="black" stroke-width="1" />
  <rect x="296.53333333333336" y="155.15859184384806" width="9.6" height="1.6730568142209563" fill="green" />
  <line x1="311.99999999999994" y1="150.8365284071105" x2="311.99999999999994" y2="155.01917044266298" stroke="black" stroke-width="1" />
  <rect x="307.2" y="152.6490066225166" width="9.6" height="1.3942140118508064" fill="green" />
  <line x1="322.66666666666663" y1="145.25967235970717" x2="322.66666666666663" y2="154.32206343673755" stroke="black" stroke-width="1" />
  <rect x="317.8666666666667" y="146.2356221680028" width="9.6" height="5.019170442662926" fill="green" />
  <line x1="333.3333333333333" y1="142.88950853956084" x2="333.3333333333333" y2="147.90867898222376" stroke="black" stroke-width="1" />
  <rect x="328.53333333333336" y="142.88950853956084" width="9.6" height="5.019170442662926" fill="green" />
  <line x1="343.99999999999994" y1="131.5963750435692" x2="343.99999999999994" y2="142.1924015336354" stroke="black" stroke-width="1" />
  <rect x="339.2" y="137.17323109097254" width="9.6" height="2.9278494248867446" fill="green" />
  <line x1="354.66666666666663" y1="133.13001045660513" x2="354.66666666666663" y2="139.12513070756364" stroke="black" stroke-width="1" />
  <rect x="349.8666666666667" y="136.61554548623218" width="9.6" height="1.1153712094806565" fill="green" />
</svg>