<svg width="400" height="300" xmlns="http://www.w3.org/2000/svg">
  <line x1="40" y1="250" x2="40" y2="50" stroke="black" stroke-width="2" />
  <line x1="35" y1="250.0" x2="40" y2="250.0" stroke="black" stroke-width="1" />
  <text x="10" y="255.0" font-size="10" fill="black">75</text>
  <line x1="40" y1="250.0" x2="380" y2="250.0" stroke="lightgray" stroke-width="1" stroke-dasharray="5, 5" />
  <line x1="35" y1="210.0" x2="40" y2="210.0" stroke="black" stroke-width="1" />
  <text x="10" y="215.0" font-size="10" fill="black">85</text>
  <line x1="40" y1="210.0" x2="380" y2="210.0" stroke="lightgray" stroke-width="1" stroke-dasharray="5, 5" />
  <line x1="35" y1="170.0" x2="40" y2="170.0" stroke="black" stroke-width="1" />
  <text x="10" y="175.0" font-size="10" fill="black">95</text>
  <line x1="40" y1="170.0" x2="380" y2="170.0" stroke="lightgray" stroke-width="1" stroke-dasharray="5, 5" />
  <line x1="35" y1="130.0" x2="40" y2="130.0" stroke="black" stroke-width="1" />
  <text x="10" y="135.0" font-size="10" fill="black">105</text>
  <line x1="40" y1="130.0" x2="380" y2="130.0" stroke="lightgray" stroke-width="1" stroke-dasharray="5, 5" />
  <line x1="35" y1="90.0" x2="40" y2="90.0" stroke="black" stroke-width="1" />
  <text x="10" y="95.0" font-size="10" fill="black">115</text>
  <line x1="40" y1="90.0" x2="380" y2="90.0" stroke="lightgray" stroke-width="1" stroke-dasharray="5, 5" />
  <line x1="35" y1="50.0" x2="40" y2="50.0" stroke="black" stroke-width="1" />
  <text x="10" y="55.0" font-size="10" fill="black">125</text>
  <line x1="40" y1="50.0" x2="380" y2="50.0" stroke="lightgray" stroke-width="1" stroke-dasharray="5, 5" />
  <line x1="35" y1="150.0" x2="40" y2="150.0" stroke="black" stroke-width="1" />
  <text x="10" y="155.0" font-size="10" fill="black">100</text>
  <line x1="40" y1="150.0" x2="380" y2="150.0" stroke="lightgray" stroke-width="1" stroke-dasharray="5, 5" />
  <line x1="45.333333333333336" y1="148.4089265419982" x2="45.333333333333336" y2="151.48775699969008" stroke="black" stroke-width="1" />
  <rect x="40.53333333333333" y="149.58673416675276" width="9.6" height="1" fill="green" />
  <line x1="56.0" y1="145.98098977167064" x2="56.0" y2="149.72104556255817" stroke="black" stroke-width="1" />
  <rect x="51.199999999999996" y="147.6237214588284" width="9.6" height="1.8390329579501667" fill="green" />
  <line x1="66.66666666666666" y1="144.56555429279882" x2="66.66666666666666" y2="149.6487240417399" stroke="black" stroke-width="1" />
  <rect x="61.86666666666666" y="144.93749354272137" width="9.6" height="2.975513999380098" fill="green" />
  <line x1="77.33333333333333" y1="142.25126562661433" x2="77.33333333333333" y2="148.8945138960636" stroke="black" stroke-width="1" />
  <rect x="72.53333333333333" y="142.49922512656264" width="9.6" height="2.5622481661329175" fill="green" />
  <line x1="87.99999999999999" y1="141.03213141853502" x2="87.99999999999999" y2="145.88800495919003" stroke="black" stroke-width="1" />
  <rect x="83.19999999999999" y="142.41657195991326" width="9.6" height="2.6655646244446416" fill="red" />
  <line x1="98.66666666666666" y1="142.14794916830255" x2="98.66666666666666" y2="148.3262733753487" stroke="black" stroke-width="1" />
  <rect x="93.86666666666666" y="143.3670833763819" width="9.6" height="1.4257671247029293" fill="red" />
  <line x1="109.33333333333333" y1="140.15394152288468" x2="109.33333333333333" y2="145.20611633433208" stroke="black" stroke-width="1" />
  <rect x="104.53333333333333" y="140.90815166856083" width="9.6" height="4.091331749147685" fill="green" />
  <line x1="119.99999999999999" y1="137.97396425250543" x2="119.99999999999999" y2="142.99514412645937" stroke="black" stroke-width="1" />
  <rect x="115.19999999999999" y="139.35840479388378" width="9.6" height="2.6655646244445848" fill="green" />
  <line x1="130.66666666666666" y1="136.7341667527637" x2="130.66666666666666" y2="141.92065296001653" stroke="black" stroke-width="1" />
  <rect x="125.86666666666666" y="138.8004959189999" width="9.6" height="1.1158177497675297" fill="red" />
  <line x1="141.33333333333334" y1="134.41987808657922" x2="141.33333333333334" y2="140.30891621035232" stroke="black" stroke-width="1" />
  <rect x="136.53333333333333" y="138.180597169129" width="9.6" height="1" fill="red" />
  <line x1="152.0" y1="132.2502324620313" x2="152.0" y2="139.35840479388378" stroke="black" stroke-width="1" />
  <rect x="147.2" y="132.33288562868069" width="9.6" height="6.240314082033194" fill="green" />
  <line x1="162.66666666666666" y1="126.981093088129" x2="162.66666666666666" y2="136.30023762785413" stroke="black" stroke-width="1" />
  <rect x="157.86666666666665" y="132.7874780452526" width="9.6" height="1.3017873747288604" fill="red" />
  <line x1="173.33333333333334" y1="127.72497158797398" x2="173.33333333333334" y2="135.70100216964568" stroke="black" stroke-width="1" />
  <rect x="168.53333333333333" y="128.24155387953306" width="9.6" height="6.922202706891198" fill="green" />
  <line x1="184.0" y1="124.43950821365843" x2="184.0" y2="134.75049075317696" stroke="black" stroke-width="1" />
  <rect x="179.2" y="128.3035437545201" width="9.6" height="3.078830457691936" fill="red" />
  <line x1="194.66666666666666" y1="128.2622171711954" x2="194.66666666666666" y2="138.10827564831084" stroke="black" stroke-width="1" />
  <rect x="189.86666666666665" y="131.8163033371216" width="9.6" height="3.3887798326273355" fill="red" />
  <line x1="205.33333333333334" y1="126.29920446327094" x2="205.33333333333334" y2="133.77931604504596" stroke="black" stroke-width="1" />
  <rect x="200.53333333333333" y="129.44002479595002" width="9.6" height="3.2854633743155546" fill="green" />
  <line x1="216.0" y1="124.6874677136068" x2="216.0" y2="130.80380204566592" stroke="black" stroke-width="1" />
  <rect x="211.2" y="125.74129558838729" width="9.6" height="2.3142886661845523" fill="green" />
  <line x1="226.66666666666666" y1="115.82291559045359" x2="226.66666666666666" y2="130.45252608740572" stroke="black" stroke-width="1" />
  <rect x="221.86666666666665" y="116.29817129868798" width="9.6" height="4.401281124083027" fill="green" />
  <line x1="237.33333333333334" y1="110.59510279987609" x2="237.33333333333334" y2="119.65595619382174" stroke="black" stroke-width="1" />
  <rect x="232.53333333333333" y="112.74408513276165" width="9.6" height="3.326789957640301" fill="green" />
  <line x1="248.0" y1="103.48693046802362" x2="248.0" y2="111.66959396631893" stroke="black" stroke-width="1" />
  <rect x="243.2" y="106.1731583841306" width="9.6" height="4.773220374005575" fill="green" />
  <line x1="258.66666666666663" y1="99.74687467713608" x2="258.66666666666663" y2="104.66473809277818" stroke="black" stroke-width="1" />
  <rect x="253.86666666666665" y="101.2759582601509" width="9.6" height="2.6449013327822968" fill="green" />
  <line x1="269.3333333333333" y1="97.80452526087407" x2="269.3333333333333" y2="109.87188759169334" stroke="black" stroke-width="1" />
  <rect x="264.53333333333336" y="101.08998863518963" width="9.6" height="6.44694699865687" fill="red" />
  <line x1="279.99999999999994" y1="101.8958570100217" x2="279.99999999999994" y2="108.65275338361403" stroke="black" stroke-width="1" />
  <rect x="275.2" y="105.8632090091952" width="9.6" height="1.6737266246512945" fill="green" />
  <line x1="290.66666666666663" y1="98.54840376071917" x2="290.66666666666663" y2="115.30633329889451" stroke="black" stroke-width="1" />
  <rect x="285.8666666666667" y="99.51957846885017" width="9.6" height="8.513276164893" fill="red" />
  <line x1="301.3333333333333" y1="99.85019113544791" x2="301.3333333333333" y2="108.34280400867857" stroke="black" stroke-width="1" />
  <rect x="296.53333333333336" y="100.16014051038337" width="9.6" height="6.963529290215888" fill="green" />
  <line x1="311.99999999999994" y1="94.12645934497368" x2="311.99999999999994" y2="101.04866205186494" stroke="black" stroke-width="1" />
  <rect x="307.2" y="94.37441884492205" width="9.6" height="5.165822915590468" fill="green" />
  <line x1="322.66666666666663" y1="92.948651720219" x2="322.66666666666663" y2="99.20962909391466" stroke="black" stroke-width="1" />
  <rect x="317.8666666666667" y="93.40324413679105" width="9.6" height="2.4589317078210797" fill="green" />
  <line x1="333.3333333333333" y1="91.58487447050322" x2="333.3333333333333" y2="95.07697076144234" stroke="black" stroke-width="1" />
  <rect x="328.53333333333336" y="92.86599855356963" width="9.6" height="1" fill="green" />
  <line x1="343.99999999999994" y1="87.14226676309539" x2="343.99999999999994" y2="92.60770740779014" stroke="black" stroke-width="1" />
  <rect x="339.2" y="88.32007438784996" width="9.6" height="2.7275544994317897" fill="green" />
  <line x1="354.66666666666663" y1="86.83231738815999" x2="354.66666666666663" y2="93.81650997003828" stroke="black" stroke-width="1" />
  <rect x="349.8666666666667" y="89.20859592933158" width="9.6" height="4.4632709990701755" fill="red" />
</svg>