<svg width="400" height="300" xmlns="http://www.w3.org/2000/svg">
  <line x1="40" y1="250" x2="40" y2="50" stroke="black" stroke-width="2" />
  <line x1="35" y1="250.0" x2="40" y2="250.0" stroke="black" stroke-width="1" />
  <text x="10" y="255.0" font-size="10" fill="black">75</text>
  <line x1="40" y1="250.0" x2="380" y2="250.0" stroke="lightgray" stroke-width="1" stroke-dasharray="5, 5" />
  <line x1="35" y1="210.0" x2="40" y2="210.0" stroke="black" stroke-width="1" />
  <text x="10" y="215.0" font-size="10" fill="black">85</text>
  <line x1="40" y1="210.0" x2="380" y2="210.0" stroke="lightgray" stroke-width="1" stroke-dasharray="5, 5" />
  <line x1="35" y1="170.0" x2="40" y2="170.0" stroke="black" stroke-width="1" />
  <text x="10" y="175.0" font-size="10" fill="black">95</text>
  <line x1="40" y1="170.0" x2="380" y2="170.0" stroke="lightgray" stroke-width="1" stroke-dasharray="5, 5" />
  <line x1="35" y1="130.0" x2="40" y2="130.0" stroke="black" stroke-width="1" />
  <text x="10" y="135.0" font-size="10" fill="black">105</text>
  <line x1="40" y1="130.0" x2="380" y2="130.0" stroke="lightgray" stroke-width="1" stroke-dasharray="5, 5" />
  <line x1="35" y1="90.0" x2="40" y2="90.0" stroke="black" stroke-width="1" />
  <text x="10" y="95.0" font-size="10" fill="black">115</text>
  <line x1="40" y1="90.0" x2="380" y2="90.0" stroke="lightgray" stroke-width="1" stroke-dasharray="5, 5" />
  <line x1="35" y1="50.0" x2="40" y2="50.0" stroke="black" stroke-width="1" />
  <text x="10" y="55.0" font-size="10" fill="black">125</text>
  <line x1="40" y1="50.0" x2="380" y2="50.0" stroke="lightgray" stroke-width="1" stroke-dasharray="5, 5" />
  <line x1="35" y1="150.0" x2="40" y2="150.0" stroke="black" stroke-width="1" />
  <text x="10" y="155.0" font-size="10" fill="black">100</text>
  <line x1="40" y1="150.0" x2="380" y2="150.0" stroke="lightgray" stroke-width="1" stroke-dasharray="5, 5" />
  <line x1="45.333333333333336" y1="144.23631123919307" x2="45.333333333333336" y2="152.30547550432283" stroke="black" stroke-width="1" />
  <rect x="40.53333333333333" y="145.7732949087416" width="9.6" height="4.226705091258395" fill="green" />
  <line x1="56.0" y1="139.24111431316044" x2="56.0" y2="145.38904899135446" stroke="black" stroke-width="1" />
  <rect x="51.199999999999996" y="143.08357348703169" width="9.6" height="2.3054755043227715" fill="green" />
  <line x1="66.66666666666666" y1="138.47262247838614" x2="66.66666666666666" y2="143.46781940441883" stroke="black" stroke-width="1" />
  <rect x="61.86666666666666" y="138.47262247838614" width="9.6" height="4.610951008645543" fill="green" />
  <line x1="77.33333333333333" y1="132.32468780019218" x2="77.33333333333333" y2="138.85686839577335" stroke="black" stroke-width="1" />
  <rect x="72.53333333333333" y="134.24591738712775" width="9.6" height="3.8424591738713048" fill="green" />
  <line x1="87.99999999999999" y1="132.32468780019218" x2="87.99999999999999" y2="137.70413064361196" stroke="black" stroke-width="1" />
  <rect x="83.19999999999999" y="133.8616714697406" width="9.6" height="1" fill="green" />
  <line x1="98.66666666666666" y1="133.8616714697406" x2="98.66666666666666" y2="138.85686839577335" stroke="black" stroke-width="1" />
  <rect x="93.86666666666666" y="133.8616714697406" width="9.6" height="1.1527377521614426" fill="red" />
  <line x1="109.33333333333333" y1="130.0192122958694" x2="109.33333333333333" y2="137.31988472622476" stroke="black" stroke-width="1" />
  <rect x="104.53333333333333" y="133.09317963496642" width="9.6" height="3.0739673390970097" fill="green" />
  <line x1="119.99999999999999" y1="121.95004803073965" x2="119.99999999999999" y2="133.4774255523535" stroke="black" stroke-width="1" />
  <rect x="115.19999999999999" y="122.71853986551395" width="9.6" height="10.374639769452472" fill="green" />
  <line x1="130.66666666666666" y1="122.71853986551395" x2="130.66666666666666" y2="129.2507204610951" stroke="black" stroke-width="1" />
  <rect x="125.86666666666666" y="122.71853986551395" width="9.6" height="3.8424591738713048" fill="red" />
  <line x1="141.33333333333334" y1="120.79731027857832" x2="141.33333333333334" y2="128.09798270893367" stroke="black" stroke-width="1" />
  <rect x="136.53333333333333" y="123.87127761767533" width="9.6" height="1.152737752161329" fill="green" />
  <line x1="152.0" y1="120.02881844380403" x2="152.0" y2="127.32949087415949" stroke="black" stroke-width="1" />
  <rect x="147.2" y="123.87127761767533" width="9.6" height="1.152737752161329" fill="red" />
  <line x1="162.66666666666666" y1="122.33429394812674" x2="162.66666666666666" y2="131.17195004803068" stroke="black" stroke-width="1" />
  <rect x="157.86666666666665" y="127.32949087415949" width="9.6" height="2.689721421709919" fill="red" />
  <line x1="173.33333333333334" y1="128.09798270893367" x2="173.33333333333334" y2="137.31988472622476" stroke="black" stroke-width="1" />
  <rect x="168.53333333333333" y="130.7877041306436" width="9.6" height="4.6109510086456" fill="green" />
  <line x1="184.0" y1="130.7877041306436" x2="184.0" y2="136.16714697406343" stroke="black" stroke-width="1" />
  <rect x="179.2" y="131.17195004803068" width="9.6" height="4.226705091258509" fill="red" />
  <line x1="194.66666666666666" y1="132.70893371757933" x2="194.66666666666666" y2="146.15754082612875" stroke="black" stroke-width="1" />
  <rect x="189.86666666666665" y="136.16714697406343" width="9.6" height="9.990393852065324" fill="red" />
  <line x1="205.33333333333334" y1="136.9356388088376" x2="205.33333333333334" y2="144.23631123919307" stroke="black" stroke-width="1" />
  <rect x="200.53333333333333" y="142.31508165225745" width="9.6" height="1.921229586935624" fill="green" />
  <line x1="216.0" y1="137.31988472622476" x2="216.0" y2="145.00480307396737" stroke="black" stroke-width="1" />
  <rect x="211.2" y="141.16234390009606" width="9.6" height="1.1527377521613857" fill="green" />
  <line x1="226.66666666666666" y1="140.00960614793468" x2="226.66666666666666" y2="144.62055715658016" stroke="black" stroke-width="1" />
  <rect x="221.86666666666665" y="142.69932756964454" width="9.6" height="1.921229586935624" fill="red" />
  <line x1="237.33333333333334" y1="140.00960614793468" x2="237.33333333333334" y2="153.84245917387125" stroke="black" stroke-width="1" />
  <rect x="232.53333333333333" y="144.62055715658016" width="9.6" height="6.916426512968371" fill="red" />
  <line x1="248.0" y1="138.85686839577335" x2="248.0" y2="150.3842459173871" stroke="black" stroke-width="1" />
  <rect x="243.2" y="140.00960614793468" width="9.6" height="10.374639769452415" fill="green" />
  <line x1="258.66666666666663" y1="140.00960614793468" x2="258.66666666666663" y2="148.46301633045147" stroke="black" stroke-width="1" />
  <rect x="253.86666666666665" y="140.00960614793468" width="9.6" height="6.532180595581224" fill="red" />
  <line x1="269.3333333333333" y1="138.85686839577335" x2="269.3333333333333" y2="146.5417867435159" stroke="black" stroke-width="1" />
  <rect x="264.53333333333336" y="140.39385206532182" width="9.6" height="6.147934678194076" fill="green" />
  <line x1="279.99999999999994" y1="133.09317963496642" x2="279.99999999999994" y2="144.23631123919307" stroke="black" stroke-width="1" />
  <rect x="275.2" y="133.09317963496642" width="9.6" height="11.143131604226653" fill="green" />
  <line x1="290.66666666666663" y1="122.33429394812674" x2="290.66666666666663" y2="133.09317963496642" stroke="black" stroke-width="1" />
  <rect x="285.8666666666667" y="122.33429394812674" width="9.6" height="9.606147934678233" fill="green" />
  <line x1="301.3333333333333" y1="118.49183477425555" x2="301.3333333333333" y2="125.40826128722375" stroke="black" stroke-width="1" />
  <rect x="296.53333333333336" y="123.10278578290104" width="9.6" height="1.1527377521614426" fill="red" />
  <line x1="311.99999999999994" y1="116.95485110470702" x2="311.99999999999994" y2="125.02401536983666" stroke="black" stroke-width="1" />
  <rect x="307.2" y="120.79731027857832" width="9.6" height="3.4582132564841572" fill="green" />
  <line x1="322.66666666666663" y1="115.41786743515854" x2="322.66666666666663" y2="120.79731027857832" stroke="black" stroke-width="1" />
  <rect x="317.8666666666667" y="117.72334293948126" width="9.6" height="2.3054755043227715" fill="green" />
  <line x1="333.3333333333333" y1="106.58021133525455" x2="333.3333333333333" y2="131.17195004803068" stroke="black" stroke-width="1" />
  <rect x="328.53333333333336" y="117.72334293948126" width="9.6" height="8.453410182516848" fill="red" />
  <line x1="343.99999999999994" y1="117.72334293948126" x2="343.99999999999994" y2="129.2507204610951" stroke="black" stroke-width="1" />
  <rect x="339.2" y="121.18155619596547" width="9.6" height="4.995196926032634" fill="red" />
  <line x1="354.66666666666663" y1="114.2651296829971" x2="354.66666666666663" y2="127.32949087415949" stroke="black" stroke-width="1" />
  <rect x="349.8666666666667" y="115.80211335254563" width="9.6" height="11.527377521613857" fill="green" />
</svg>