<svg width="400" height="300" xmlns="http://www.w3.org/2000/svg">
  <line x1="40" y1="250" x2="40" y2="50" stroke="black" stroke-width="2" />
  <line x1="35" y1="250.0" x2="40" y2="250.0" stroke="black" stroke-width="1" />
  <text x="10" y="255.0" font-size="10" fill="black">75</text>
  <line x1="40" y1="250.0" x2="380" y2="250.0" stroke="lightgray" stroke-width="1" stroke-dasharray="5, 5" />
  <line x1="35" y1="210.0" x2="40" y2="210.0" stroke="black" stroke-width="1" />
  <text x="10" y="215.0" font-size="10" fill="black">85</text>
  <line x1="40" y1="210.0" x2="380" y2="210.0" stroke="lightgray" stroke-width="1" stroke-dasharray="5, 5" />
  <line x1="35" y1="170.0" x2="40" y2="170.0" stroke="black" stroke-width="1" />
  <text x="10" y="175.0" font-size="10" fill="black">95</text>
  <line x1="40" y1="170.0" x2="380" y2="170.0" stroke="lightgray" stroke-width="1" stroke-dasharray="5, 5" />
  <line x1="35" y1="130.0" x2="40" y2="130.0" stroke="black" stroke-width="1" />
  <text x="10" y="135.0" font-size="10" fill="black">105</text>
  <line x1="40" y1="130.0" x2="380" y2="130.0" stroke="lightgray" stroke-width="1" stroke-dasharray="5, 5" />
  <line x1="35" y1="90.0" x2="40" y2="90.0" stroke="black" stroke-width="1" />
  <text x="10" y="95.0" font-size="10" fill="black">115</text>
  <line x1="40" y1="90.0" x2="380" y2="90.0" stroke="lightgray" stroke-width="1" stroke-dasharray="5, 5" />
  <line x1="35" y1="50.0" x2="40" y2="50.0" stroke="black" stroke-width="1" />
  <text x="10" y="55.0" font-size="10" fill="black">125</text>
  <line x1="40" y1="50.0" x2="380" y2="50.0" stroke="lightgray" stroke-width="1" stroke-dasharray="5, 5" />
  <line x1="35" y1="150.0" x2="40" y2="150.0" stroke="black" stroke-width="1" />
  <text x="10" y="155.0" font-size="10" fill="black">100</text>
  <line x1="40" y1="150.0" x2="380" y2="150.0" stroke="lightgray" stroke-width="1" stroke-dasharray="5, 5" />
  <line x1="45.333333333333336" y1="146.95321001088138" x2="45.333333333333336" y2="150.87051142546244" stroke="black" stroke-width="1" />
  <rect x="40.53333333333333" y="147.38846572361257" width="9.6" height="2.611534276387431" fill="green" />
  <line x1="56.0" y1="147.38846572361257" x2="56.0" y2="153.48204570184987" stroke="black" stroke-width="1" />
  <rect x="51.199999999999996" y="147.38846572361257" width="9.6" height="6.093579978237301" fill="red" />
  <line x1="66.66666666666666" y1="151.3057671381937" x2="66.66666666666666" y2="153.91730141458106" stroke="black" stroke-width="1" />
  <rect x="61.86666666666666" y="151.3057671381937" width="9.6" height="1.3057671381936302" fill="red" />
  <line x1="77.33333333333333" y1="149.5647442872688" x2="77.33333333333333" y2="152.61153427638732" stroke="black" stroke-width="1" />
  <rect x="72.53333333333333" y="150.0" width="9.6" height="1" fill="green" />
  <line x1="87.99999999999999" y1="146.95321001088138" x2="87.99999999999999" y2="150.0" stroke="black" stroke-width="1" />
  <rect x="83.19999999999999" y="146.95321001088138" width="9.6" height="2.611534276387431" fill="green" />
  <line x1="98.66666666666666" y1="146.95321001088138" x2="98.66666666666666" y2="152.61153427638732" stroke="black" stroke-width="1" />
  <rect x="93.86666666666666" y="147.38846572361257" width="9.6" height="3.917301414581118" fill="red" />
  <line x1="109.33333333333333" y1="149.12948857453745" x2="109.33333333333333" y2="151.74102285092488" stroke="black" stroke-width="1" />
  <rect x="104.53333333333333" y="150.4352557127312" width="9.6" height="1.305767138193687" fill="green" />
  <line x1="119.99999999999999" y1="148.69423286180626" x2="119.99999999999999" y2="153.48204570184987" stroke="black" stroke-width="1" />
  <rect x="115.19999999999999" y="150.0" width="9.6" height="2.6115342763873173" fill="red" />
  <line x1="130.66666666666666" y1="150.0" x2="130.66666666666666" y2="152.61153427638732" stroke="black" stroke-width="1" />
  <rect x="125.86666666666666" y="150.4352557127312" width="9.6" height="2.176278563656126" fill="green" />
  <line x1="141.33333333333334" y1="149.5647442872688" x2="141.33333333333334" y2="153.91730141458106" stroke="black" stroke-width="1" />
  <rect x="136.53333333333333" y="149.5647442872688" width="9.6" height="2.1762785636560693" fill="red" />
  <line x1="152.0" y1="149.12948857453745" x2="152.0" y2="151.3057671381937" stroke="black" stroke-width="1" />
  <rect x="147.2" y="150.0" width="9.6" height="1.305767138193687" fill="green" />
  <line x1="162.66666666666666" y1="143.03590859630032" x2="162.66666666666666" y2="149.5647442872688" stroke="black" stroke-width="1" />
  <rect x="157.86666666666665" y="145.6474428726877" width="9.6" height="3.917301414581118" fill="green" />
  <line x1="173.33333333333334" y1="146.51795429815013" x2="173.33333333333334" y2="152.17627856365607" stroke="black" stroke-width="1" />
  <rect x="168.53333333333333" y="146.51795429815013" width="9.6" height="3.917301414581061" fill="red" />
  <line x1="184.0" y1="147.82372143634382" x2="184.0" y2="151.74102285092488" stroke="black" stroke-width="1" />
  <rect x="179.2" y="150.87051142546244" width="9.6" height="1" fill="red" />
  <line x1="194.66666666666666" y1="148.69423286180626" x2="194.66666666666666" y2="154.3525571273123" stroke="black" stroke-width="1" />
  <rect x="189.86666666666665" y="150.87051142546244" width="9.6" height="1" fill="green" />
  <line x1="205.33333333333334" y1="144.7769314472252" x2="205.33333333333334" y2="150.4352557127312" stroke="black" stroke-width="1" />
  <rect x="200.53333333333333" y="146.51795429815013" width="9.6" height="3.917301414581061" fill="green" />
  <line x1="216.0" y1="143.4711643090315" x2="216.0" y2="150.0" stroke="black" stroke-width="1" />
  <rect x="211.2" y="145.2121871599564" width="9.6" height="3.046789989118622" fill="red" />
  <line x1="226.66666666666666" y1="147.82372143634382" x2="226.66666666666666" y2="150.4352557127312" stroke="black" stroke-width="1" />
  <rect x="221.86666666666665" y="147.82372143634382" width="9.6" height="1.7410228509249919" fill="red" />
  <line x1="237.33333333333334" y1="146.95321001088138" x2="237.33333333333334" y2="154.3525571273123" stroke="black" stroke-width="1" />
  <rect x="232.53333333333333" y="148.69423286180626" width="9.6" height="5.658324265506053" fill="red" />
  <line x1="248.0" y1="150.0" x2="248.0" y2="163.92818280739937" stroke="black" stroke-width="1" />
  <rect x="243.2" y="150.0" width="9.6" height="12.622415669205623" fill="red" />
  <line x1="258.66666666666663" y1="154.3525571273123" x2="258.66666666666663" y2="161.75190424374318" stroke="black" stroke-width="1" />
  <rect x="253.86666666666665" y="154.3525571273123" width="9.6" height="7.399347116430874" fill="green" />
  <line x1="269.3333333333333" y1="150.4352557127312" x2="269.3333333333333" y2="153.48204570184987" stroke="black" stroke-width="1" />
  <rect x="264.53333333333336" y="151.3057671381937" width="9.6" height="2.176278563656183" fill="green" />
  <line x1="279.99999999999994" y1="151.3057671381937" x2="279.99999999999994" y2="155.65832426550594" stroke="black" stroke-width="1" />
  <rect x="275.2" y="151.3057671381937" width="9.6" height="3.046789989118622" fill="red" />
  <line x1="290.66666666666663" y1="146.08269858541894" x2="290.66666666666663" y2="154.7878128400435" stroke="black" stroke-width="1" />
  <rect x="285.8666666666667" y="147.38846572361257" width="9.6" height="7.399347116430931" fill="green" />
  <line x1="301.3333333333333" y1="145.2121871599564" x2="301.3333333333333" y2="155.65832426550594" stroke="black" stroke-width="1" />
  <rect x="296.53333333333336" y="147.38846572361257" width="9.6" height="5.658324265506053" fill="red" />
  <line x1="311.99999999999994" y1="149.5647442872688" x2="311.99999999999994" y2="153.48204570184987" stroke="black" stroke-width="1" />
  <rect x="307.2" y="151.74102285092488" width="9.6" height="1.305767138193744" fill="green" />
  <line x1="322.66666666666663" y1="146.51795429815013" x2="322.66666666666663" y2="152.61153427638732" stroke="black" stroke-width="1" />
  <rect x="317.8666666666667" y="147.38846572361257" width="9.6" height="3.046789989118622" fill="green" />
  <line x1="333.3333333333333" y1="145.6474428726877" x2="333.3333333333333" y2="149.5647442872688" stroke="black" stroke-width="1" />
  <rect x="328.53333333333336" y="145.6474428726877" width="9.6" height="1.7410228509248782" fill="green" />
  <line x1="343.99999999999994" y1="140.42437431991289" x2="343.99999999999994" y2="145.2121871599564" stroke="black" stroke-width="1" />
  <rect x="339.2" y="141.73014145810657" width="9.6" height="3.482045701849813" fill="green" />
  <line x1="354.66666666666663" y1="137.8128400435255" x2="354.66666666666663" y2="140.85963003264413" stroke="black" stroke-width="1" />
  <rect x="349.8666666666667" y="139.55386289445045" width="9.6" height="1.305767138193687" fill="green" />
</svg>