<svg width="400" height="300" xmlns="http://www.w3.org/2000/svg">
  <line x1="40" y1="250" x2="40" y2="50" stroke="black" stroke-width="2" />
  <line x1="35" y1="250.0" x2="40" y2="250.0" stroke="black" stroke-width="1" />
  <text x="10" y="255.0" font-size="10" fill="black">75</text>
  <line x1="40" y1="250.0" x2="380" y2="250.0" stroke="lightgray" stroke-width="1" stroke-dasharray="5, 5" />
  <line x1="35" y1="210.0" x2="40" y2="210.0" stroke="black" stroke-width="1" />
  <text x="10" y="215.0" font-size="10" fill="black">85</text>
  <line x1="40" y1="210.0" x2="380" y2="210.0" stroke="lightgray" stroke-width="1" stroke-dasharray="5, 5" />
  <line x1="35" y1="170.0" x2="40" y2="170.0" stroke="black" stroke-width="1" />
  <text x="10" y="175.0" font-size="10" fill="black">95</text>
  <line x1="40" y1="170.0" x2="380" y2="170.0" stroke="lightgray" stroke-width="1" stroke-dasharray="5, 5" />
  <line x1="35" y1="130.0" x2="40" y2="130.0" stroke="black" stroke-width="1" />
  <text x="10" y="135.0" font-size="10" fill="black">105</text>
  <line x1="40" y1="130.0" x2="380" y2="130.0" stroke="lightgray" stroke-width="1" stroke-dasharray="5, 5" />
  <line x1="35" y1="90.0" x2="40" y2="90.0" stroke="black" stroke-width="1" />
  <text x="10" y="95.0" font-size="10" fill="black">115</text>
  <line x1="40" y1="90.0" x2="380" y2="90.0" stroke="lightgray" stroke-width="1" stroke-dasharray="5, 5" />
  <line x1="35" y1="50.0" x2="40" y2="50.0" stroke="black" stroke-width="1" />
  <text x="10" y="55.0" font-size="10" fill="black">125</text>
  <line x1="40" y1="50.0" x2="380" y2="50.0" stroke="lightgray" stroke-width="1" stroke-dasharray="5, 5" />
  <line x1="35" y1="150.0" x2="40" y2="150.0" stroke="black" stroke-width="1" />
  <text x="10" y="155.0" font-size="10" fill="black">100</text>
  <line x1="40" y1="150.0" x2="380" y2="150.0" stroke="lightgray" stroke-width="1" stroke-dasharray="5, 5" />
  <line x1="45.333333333333336" y1="146.03106125970663" x2="45.333333333333336" y2="150.0" stroke="black" stroke-width="1" />
  <rect x="40.53333333333333" y="147.23899913718725" width="9.6" height="2.7610008628127503" fill="green" />
  <line x1="56.0" y1="144.30543572044866" x2="56.0" y2="146.89387402933562" stroke="black" stroke-width="1" />
  <rect x="51.199999999999996" y="145.16824849007764" width="9.6" height="1.553062985332133" fill="green" />
  <line x1="66.66666666666666" y1="143.18377911993093" x2="66.66666666666666" y2="146.54874892148405" stroke="black" stroke-width="1" />
  <rect x="61.86666666666666" y="144.04659188956003" width="9.6" height="1" fill="green" />
  <line x1="77.33333333333333" y1="141.02674719585855" x2="77.33333333333333" y2="144.9094046591889" stroke="black" stroke-width="1" />
  <rect x="72.53333333333333" y="142.9249352890423" width="9.6" height="1.1216566005177242" fill="green" />
  <line x1="87.99999999999999" y1="135.504745470233" x2="87.99999999999999" y2="143.0974978429681" stroke="black" stroke-width="1" />
  <rect x="83.19999999999999" y="135.504745470233" width="9.6" height="7.42018981880932" fill="green" />
  <line x1="98.66666666666666" y1="135.15962036238136" x2="98.66666666666666" y2="138.7834339948231" stroke="black" stroke-width="1" />
  <rect x="93.86666666666666" y="135.67730802415872" width="9.6" height="1.9844693701467122" fill="red" />
  <line x1="109.33333333333333" y1="139.30112165660046" x2="109.33333333333333" y2="143.01121656600515" stroke="black" stroke-width="1" />
  <rect x="104.53333333333333" y="139.30112165660046" width="9.6" height="1" fill="red" />
  <line x1="119.99999999999999" y1="137.4892148403796" x2="119.99999999999999" y2="141.19930974978428" stroke="black" stroke-width="1" />
  <rect x="115.19999999999999" y="139.12855910267473" width="9.6" height="1.2079378774806173" fill="green" />
  <line x1="130.66666666666666" y1="132.6574633304573" x2="130.66666666666666" y2="139.6462467644521" stroke="black" stroke-width="1" />
  <rect x="125.86666666666666" y="132.6574633304573" width="9.6" height="6.988783433994797" fill="green" />
  <line x1="141.33333333333334" y1="128.51596203623814" x2="141.33333333333334" y2="133.08886971527176" stroke="black" stroke-width="1" />
  <rect x="136.53333333333333" y="128.94736842105266" width="9.6" height="2.674719585849857" fill="green" />
  <line x1="152.0" y1="124.97842968075929" x2="152.0" y2="133.3477135461605" stroke="black" stroke-width="1" />
  <rect x="147.2" y="125.92752372735117" width="9.6" height="4.659188955996569" fill="green" />
  <line x1="162.66666666666666" y1="120.40552200172561" x2="162.66666666666666" y2="126.10008628127696" stroke="black" stroke-width="1" />
  <rect x="157.86666666666665" y="122.13114754098359" width="9.6" height="3.7963761863675813" fill="green" />
  <line x1="173.33333333333334" y1="124.37446074201898" x2="173.33333333333334" y2="129.89646246764454" stroke="black" stroke-width="1" />
  <rect x="168.53333333333333" y="125.75496117342533" width="9.6" height="2.5884383088870777" fill="red" />
  <line x1="184.0" y1="127.82571182053493" x2="184.0" y2="131.36324417601378" stroke="black" stroke-width="1" />
  <rect x="179.2" y="128.3433994823124" width="9.6" height="2.1570319240723848" fill="red" />
  <line x1="194.66666666666666" y1="127.91199309749788" x2="194.66666666666666" y2="134.29680759275237" stroke="black" stroke-width="1" />
  <rect x="189.86666666666665" y="131.36324417601378" width="9.6" height="1" fill="green" />
  <line x1="205.33333333333334" y1="126.79033649698016" x2="205.33333333333334" y2="131.01811906816215" stroke="black" stroke-width="1" />
  <rect x="200.53333333333333" y="128.1708369283865" width="9.6" height="1.7256255392580329" fill="green" />
  <line x1="216.0" y1="124.02933563416741" x2="216.0" y2="131.44952545297667" stroke="black" stroke-width="1" />
  <rect x="211.2" y="127.65314926660915" width="9.6" height="2.9335634167385933" fill="red" />
  <line x1="226.66666666666666" y1="124.28817946505603" x2="226.66666666666666" y2="129.81018119068153" stroke="black" stroke-width="1" />
  <rect x="221.86666666666665" y="128.1708369283865" width="9.6" height="1" fill="green" />
  <line x1="237.33333333333334" y1="119.45642795513373" x2="237.33333333333334" y2="125.5823986194996" stroke="black" stroke-width="1" />
  <rect x="232.53333333333333" y="121.2683347713546" width="9.6" height="3.3649698015531158" fill="green" />
  <line x1="248.0" y1="114.1069887834339" x2="248.0" y2="120.40552200172561" stroke="black" stroke-width="1" />
  <rect x="243.2" y="115.832614322692" width="9.6" height="4.055220017256204" fill="green" />
  <line x1="258.66666666666663" y1="115.1423641069888" x2="258.66666666666663" y2="120.23295944779983" stroke="black" stroke-width="1" />
  <rect x="253.86666666666665" y="116.52286453839514" width="9.6" height="3.623813632441795" fill="red" />
  <line x1="269.3333333333333" y1="117.38567730802413" x2="269.3333333333333" y2="126.87661777394305" stroke="black" stroke-width="1" />
  <rect x="264.53333333333336" y="119.28386540120795" width="9.6" height="1" fill="red" />
  <line x1="279.99999999999994" y1="114.62467644521138" x2="279.99999999999994" y2="121.52717860224334" stroke="black" stroke-width="1" />
  <rect x="275.2" y="117.55823986194997" width="9.6" height="1.9844693701466554" fill="green" />
  <line x1="290.66666666666663" y1="109.10267471958582" x2="290.66666666666663" y2="137.31665228645386" stroke="black" stroke-width="1" />
  <rect x="285.8666666666667" y="114.1069887834339" width="9.6" height="14.840379637618753" fill="red" />
  <line x1="301.3333333333333" y1="123.77049180327867" x2="301.3333333333333" y2="135.59102674719583" stroke="black" stroke-width="1" />
  <rect x="296.53333333333336" y="128.51596203623814" width="9.6" height="3.0198446937014864" fill="red" />
  <line x1="311.99999999999994" y1="122.56255392579811" x2="311.99999999999994" y2="131.7083692838654" stroke="black" stroke-width="1" />
  <rect x="307.2" y="123.77049180327867" width="9.6" height="6.557377049180332" fill="green" />
  <line x1="322.66666666666663" y1="111.00086281276964" x2="322.66666666666663" y2="117.04055220017261" stroke="black" stroke-width="1" />
  <rect x="317.8666666666667" y="111.86367558239863" width="9.6" height="3.7963761863675245" fill="green" />
  <line x1="333.3333333333333" y1="103.23554788610869" x2="333.3333333333333" y2="113.93442622950818" stroke="black" stroke-width="1" />
  <rect x="328.53333333333336" y="103.23554788610869" width="9.6" height="9.663503019844711" fill="green" />
  <line x1="343.99999999999994" y1="84.59879206212253" x2="343.99999999999994" y2="98.74892148403802" stroke="black" stroke-width="1" />
  <rect x="339.2" y="90.29335634167381" width="9.6" height="3.9689387402933676" fill="green" />
  <line x1="354.66666666666663" y1="84.08110440034511" x2="354.66666666666663" y2="93.05435720448656" stroke="black" stroke-width="1" />
  <rect x="349.8666666666667" y="86.66954270923208" width="9.6" height="3.6238136324417383" fill="green" />
</svg>