<svg width="400" height="300" xmlns="http://www.w3.org/2000/svg">
  <line x1="40" y1="250" x2="40" y2="50" stroke="black" stroke-width="2" />
  <line x1="35" y1="250.0" x2="40" y2="250.0" stroke="black" stroke-width="1" />
  <text x="10" y="255.0" font-size="10" fill="black">75</text>
  <line x1="40" y1="250.0" x2="380" y2="250.0" stroke="lightgray" stroke-width="1" stroke-dasharray="5, 5" />
  <line x1="35" y1="210.0" x2="40" y2="210.0" stroke="black" stroke-width="1" />
  <text x="10" y="215.0" font-size="10" fill="black">85</text>
  <line x1="40" y1="210.0" x2="380" y2="210.0" stroke="lightgray" stroke-width="1" stroke-dasharray="5, 5" />
  <line x1="35" y1="170.0" x2="40" y2="170.0" stroke="black" stroke-width="1" />
  <text x="10" y="175.0" font-size="10" fill="black">95</text>
  <line x1="40" y1="170.0" x2="380" y2="170.0" stroke="lightgray" stroke-width="1" stroke-dasharray="5, 5" />
  <line x1="35" y1="130.0" x2="40" y2="130.0" stroke="black" stroke-width="1" />
  <text x="10" y="135.0" font-size="10" fill="black">105</text>
  <line x1="40" y1="130.0" x2="380" y2="130.0" stroke="lightgray" stroke-width="1" stroke-dasharray="5, 5" />
  <line x1="35" y1="90.0" x2="40" y2="90.0" stroke="black" stroke-width="1" />
  <text x="10" y="95.0" font-size="10" fill="black">115</text>
  <line x1="40" y1="90.0" x2="380" y2="90.0" stroke="lightgray" stroke-width="1" stroke-dasharray="5, 5" />
  <line x1="35" y1="50.0" x2="40" y2="50.0" stroke="black" stroke-width="1" />
  <text x="10" y="55.0" font-size="10" fill="black">125</text>
  <line x1="40" y1="50.0" x2="380" y2="50.0" stroke="lightgray" stroke-width="1" stroke-dasharray="5, 5" />
  <line x1="35" y1="150.0" x2="40" y2="150.0" stroke="black" stroke-width="1" />
  <text x="10" y="155.0" font-size="10" fill="black">100</text>
  <line x1="40" y1="150.0" x2="380" y2="150.0" stroke="lightgray" stroke-width="1" stroke-dasharray="5, 5" />
  <line x1="45.333333333333336" y1="150.0" x2="45.333333333333336" y2="154.32972522897586" stroke="black" stroke-width="1" />
  <rect x="40.53333333333333" y="150.0" width="9.6" height="1.665278934221476" fill="red" />
  <line x1="56.0" y1="148.00166527893418" x2="56.0" y2="154.99583680266443" stroke="black" stroke-width="1" />
  <rect x="51.199999999999996" y="151.66527893422148" width="9.6" height="1.9983347210657598" fill="red" />
  <line x1="66.66666666666666" y1="143.00582847626976" x2="66.66666666666666" y2="154.99583680266443" stroke="black" stroke-width="1" />
  <rect x="61.86666666666666" y="143.67194004995838" width="9.6" height="9.991673605328856" fill="green" />
  <line x1="77.33333333333333" y1="142.33971690258113" x2="77.33333333333333" y2="146.3363863447127" stroke="black" stroke-width="1" />
  <rect x="72.53333333333333" y="143.3388842631141" width="9.6" height="1.3322231473771353" fill="green" />
  <line x1="87.99999999999999" y1="135.67860116569523" x2="87.99999999999999" y2="146.66944213155705" stroke="black" stroke-width="1" />
  <rect x="83.19999999999999" y="136.0116569525395" width="9.6" height="9.325562031640288" fill="green" />
  <line x1="98.66666666666666" y1="132.34804329725227" x2="98.66666666666666" y2="141.67360532889256" stroke="black" stroke-width="1" />
  <rect x="93.86666666666666" y="133.68026644462947" width="9.6" height="3.9966694421315765" fill="green" />
  <line x1="109.33333333333333" y1="134.0133222314737" x2="109.33333333333333" y2="141.67360532889256" stroke="black" stroke-width="1" />
  <rect x="104.53333333333333" y="134.3463780183181" width="9.6" height="2.9975020815985545" fill="red" />
  <line x1="119.99999999999999" y1="129.6835970024979" x2="119.99999999999999" y2="137.01082431307248" stroke="black" stroke-width="1" />
  <rect x="115.19999999999999" y="133.0141548709409" width="9.6" height="2.9975020815986113" fill="green" />
  <line x1="130.66666666666666" y1="129.3505412156536" x2="130.66666666666666" y2="134.3463780183181" stroke="black" stroke-width="1" />
  <rect x="125.86666666666666" y="129.6835970024979" width="9.6" height="3.9966694421315765" fill="green" />
  <line x1="141.33333333333334" y1="127.01915070774356" x2="141.33333333333334" y2="133.0141548709409" stroke="black" stroke-width="1" />
  <rect x="136.53333333333333" y="127.01915070774356" width="9.6" height="5.328892589508712" fill="green" />
  <line x1="152.0" y1="124.02164862614484" x2="152.0" y2="131.01582014987503" stroke="black" stroke-width="1" />
  <rect x="147.2" y="125.68692756036637" width="9.6" height="1.3322231473771922" fill="green" />
  <line x1="162.66666666666666" y1="121.35720233139057" x2="162.66666666666666" y2="139.6752706078268" stroke="black" stroke-width="1" />
  <rect x="157.86666666666665" y="131.01582014987503" width="9.6" height="5.661948376353109" fill="red" />
  <line x1="173.33333333333334" y1="141.00749375520405" x2="173.33333333333334" y2="146.00333055786842" stroke="black" stroke-width="1" />
  <rect x="168.53333333333333" y="143.3388842631141" width="9.6" height="1" fill="green" />
  <line x1="184.0" y1="143.00582847626976" x2="184.0" y2="152.99750208159867" stroke="black" stroke-width="1" />
  <rect x="179.2" y="145.3372189841798" width="9.6" height="7.3272273105745285" fill="red" />
  <line x1="194.66666666666666" y1="153.99666944213152" x2="194.66666666666666" y2="166.31973355537053" stroke="black" stroke-width="1" />
  <rect x="189.86666666666665" y="155.661948376353" width="9.6" height="10.324729392173197" fill="red" />
  <line x1="205.33333333333334" y1="158.99250624479595" x2="205.33333333333334" y2="164.98751040799334" stroke="black" stroke-width="1" />
  <rect x="200.53333333333333" y="163.65528726061615" width="9.6" height="1" fill="red" />
  <line x1="216.0" y1="160.99084096586176" x2="216.0" y2="169.65029142381348" stroke="black" stroke-width="1" />
  <rect x="211.2" y="163.65528726061615" width="9.6" height="4.662781015820144" fill="red" />
  <line x1="226.66666666666666" y1="165.9866777685262" x2="226.66666666666666" y2="172.64779350541215" stroke="black" stroke-width="1" />
  <rect x="221.86666666666665" y="166.9858451290591" width="9.6" height="2.997502081598668" fill="red" />
  <line x1="237.33333333333334" y1="161.99000832639467" x2="237.33333333333334" y2="173.31390507910072" stroke="black" stroke-width="1" />
  <rect x="232.53333333333333" y="162.32306411323896" width="9.6" height="7.660283097418812" fill="red" />
  <line x1="248.0" y1="137.01082431307248" x2="248.0" y2="157.6602830974188" stroke="black" stroke-width="1" />
  <rect x="243.2" y="141.67360532889256" width="9.6" height="10.324729392173197" fill="red" />
  <line x1="258.66666666666663" y1="147.00249791840133" x2="258.66666666666663" y2="154.32972522897586" stroke="black" stroke-width="1" />
  <rect x="253.86666666666665" y="151.66527893422148" width="9.6" height="1.9983347210657598" fill="green" />
  <line x1="269.3333333333333" y1="143.67194004995838" x2="269.3333333333333" y2="151.66527893422148" stroke="black" stroke-width="1" />
  <rect x="264.53333333333336" y="143.67194004995838" width="9.6" height="6.661115736885904" fill="green" />
  <line x1="279.99999999999994" y1="131.68193172356365" x2="279.99999999999994" y2="146.00333055786842" stroke="black" stroke-width="1" />
  <rect x="275.2" y="132.014987510408" width="9.6" height="12.323064113239013" fill="green" />
  <line x1="290.66666666666663" y1="110.03330557868446" x2="290.66666666666663" y2="129.01748542880932" stroke="black" stroke-width="1" />
  <rect x="285.8666666666667" y="110.03330557868446" width="9.6" height="17.985012489591952" fill="green" />
  <line x1="301.3333333333333" y1="109.03413821815155" x2="301.3333333333333" y2="121.35720233139057" stroke="black" stroke-width="1" />
  <rect x="296.53333333333336" y="111.03247293921726" width="9.6" height="5.661948376353109" fill="red" />
  <line x1="311.99999999999994" y1="115.02914238134883" x2="311.99999999999994" y2="122.02331390507908" stroke="black" stroke-width="1" />
  <rect x="307.2" y="117.36053288925888" width="9.6" height="1.332223147377249" fill="red" />
  <line x1="322.66666666666663" y1="113.03080766028313" x2="322.66666666666663" y2="119.02581182348041" stroke="black" stroke-width="1" />
  <rect x="317.8666666666667" y="115.02914238134883" width="9.6" height="2.3313905079100437" fill="red" />
  <line x1="333.3333333333333" y1="107.7019150707743" x2="333.3333333333333" y2="119.02581182348041" stroke="black" stroke-width="1" />
  <rect x="328.53333333333336" y="108.0349708576187" width="9.6" height="10.657785179017424" fill="green" />
  <line x1="343.99999999999994" y1="93.0474604496253" x2="343.99999999999994" y2="103.70524562864273" stroke="black" stroke-width="1" />
  <rect x="339.2" y="94.37968359700244" width="9.6" height="9.325562031640288" fill="green" />
  <line x1="354.66666666666663" y1="97.37718567860111" x2="354.66666666666663" y2="102.03996669442131" stroke="black" stroke-width="1" />
  <rect x="349.8666666666667" y="99.04246461282264" width="9.6" height="1.3322231473771353" fill="red" />
</svg>