<svg width="400" height="300" xmlns="http://www.w3.org/2000/svg">
  <line x1="40" y1="250" x2="40" y2="50" stroke="black" stroke-width="2" />
  <line x1="35" y1="250.0" x2="40" y2="250.0" stroke="black" stroke-width="1" />
  <text x="10" y="255.0" font-size="10" fill="black">75</text>
  <line x1="40" y1="250.0" x2="380" y2="250.0" stroke="lightgray" stroke-width="1" stroke-dasharray="5, 5" />
  <line x1="35" y1="210.0" x2="40" y2="210.0" stroke="black" stroke-width="1" />
  <text x="10" y="215.0" font-size="10" fill="black">85</text>
  <line x1="40" y1="210.0" x2="380" y2="210.0" stroke="lightgray" stroke-width="1" stroke-dasharray="5, 5" />
  <line x1="35" y1="170.0" x2="40" y2="170.0" stroke="black" stroke-width="1" />
  <text x="10" y="175.0" font-size="10" fill="black">95</text>
  <line x1="40" y1="170.0" x2="380" y2="170.0" stroke="lightgray" stroke-width="1" stroke-dasharray="5, 5" />
  <line x1="35" y1="130.0" x2="40" y2="130.0" stroke="black" stroke-width="1" />
  <text x="10" y="135.0" font-size="10" fill="black">105</text>
  <line x1="40" y1="130.0" x2="380" y2="130.0" stroke="lightgray" stroke-width="1" stroke-dasharray="5, 5" />
  <line x1="35" y1="90.0" x2="40" y2="90.0" stroke="black" stroke-width="1" />
  <text x="10" y="95.0" font-size="10" fill="black">115</text>
  <line x1="40" y1="90.0" x2="380" y2="90.0" stroke="lightgray" stroke-width="1" stroke-dasharray="5, 5" />
  <line x1="35" y1="50.0" x2="40" y2="50.0" stroke="black" stroke-width="1" />
  <text x="10" y="55.0" font-size="10" fill="black">125</text>
  <line x1="40" y1="50.0" x2="380" y2="50.0" stroke="lightgray" stroke-width="1" stroke-dasharray="5, 5" />
  <line x1="35" y1="150.0" x2="40" y2="150.0" stroke="black" stroke-width="1" />
  <text x="10" y="155.0" font-size="10" fill="black">100</text>
  <line x1="40" y1="150.0" x2="380" y2="150.0" stroke="lightgray" stroke-width="1" stroke-dasharray="5, 5" />
  <line x1="45.333333333333336" y1="144.85139246431072" x2="45.333333333333336" y2="150.0" stroke="black" stroke-width="1" />
  <rect x="40.53333333333333" y="145.97472501755203" width="9.6" height="4.025274982447968" fill="green" />
  <line x1="56.0" y1="142.0430610812076" x2="56.0" y2="149.7191668616897" stroke="black" stroke-width="1" />
  <rect x="51.199999999999996" y="144.47694827989704" width="9.6" height="4.399719166861644" fill="red" />
  <line x1="66.66666666666666" y1="146.4427802480692" x2="66.66666666666666" y2="148.68944535455182" stroke="black" stroke-width="1" />
  <rect x="61.86666666666666" y="147.47250175520713" width="9.6" height="1" fill="green" />
  <line x1="77.33333333333333" y1="144.85139246431072" x2="77.33333333333333" y2="148.03416803182773" stroke="black" stroke-width="1" />
  <rect x="72.53333333333333" y="146.53639129417274" width="9.6" height="1" fill="green" />
  <line x1="87.99999999999999" y1="143.91528200327633" x2="87.99999999999999" y2="146.53639129417274" stroke="black" stroke-width="1" />
  <rect x="83.19999999999999" y="145.13222560262102" width="9.6" height="1" fill="green" />
  <line x1="98.66666666666666" y1="144.66417037210385" x2="98.66666666666666" y2="148.40861221624147" stroke="black" stroke-width="1" />
  <rect x="93.86666666666666" y="145.6002808331383" width="9.6" height="1.123332553241255" fill="red" />
  <line x1="109.33333333333333" y1="146.25555815586233" x2="109.33333333333333" y2="149.34472267727585" stroke="black" stroke-width="1" />
  <rect x="104.53333333333333" y="146.72361338637955" width="9.6" height="2.4338871986894333" fill="red" />
  <line x1="119.99999999999999" y1="146.25555815586233" x2="119.99999999999999" y2="149.157500585069" stroke="black" stroke-width="1" />
  <rect x="115.19999999999999" y="147.47250175520713" width="9.6" height="1.6849988298618541" fill="green" />
  <line x1="130.66666666666666" y1="146.72361338637955" x2="130.66666666666666" y2="150.2808331383103" stroke="black" stroke-width="1" />
  <rect x="125.86666666666666" y="147.47250175520713" width="9.6" height="1" fill="red" />
  <line x1="141.33333333333334" y1="146.63000234027612" x2="141.33333333333334" y2="149.25111163117253" stroke="black" stroke-width="1" />
  <rect x="136.53333333333333" y="147.56611280131045" width="9.6" height="1.6849988298620815" fill="red" />
  <line x1="152.0" y1="145.0386145565177" x2="152.0" y2="149.157500585069" stroke="black" stroke-width="1" />
  <rect x="147.2" y="146.06833606365547" width="9.6" height="3.0891645214135224" fill="green" />
  <line x1="162.66666666666666" y1="142.88556049613845" x2="162.66666666666666" y2="149.7191668616897" stroke="black" stroke-width="1" />
  <rect x="157.86666666666665" y="146.06833606365547" width="9.6" height="3.1827755675170692" fill="red" />
  <line x1="173.33333333333334" y1="149.53194476948283" x2="173.33333333333334" y2="154.49333021296513" stroke="black" stroke-width="1" />
  <rect x="168.53333333333333" y="151.4041656915516" width="9.6" height="1" fill="green" />
  <line x1="184.0" y1="150.74888836882752" x2="184.0" y2="153.7444418441376" stroke="black" stroke-width="1" />
  <rect x="179.2" y="151.4041656915516" width="9.6" height="2.340276152586" fill="red" />
  <line x1="194.66666666666666" y1="152.6211092908963" x2="194.66666666666666" y2="156.83360636555108" stroke="black" stroke-width="1" />
  <rect x="189.86666666666665" y="153.7444418441376" width="9.6" height="1.591387783758421" fill="red" />
  <line x1="205.33333333333334" y1="150.5616662766206" x2="205.33333333333334" y2="155.6166627662064" stroke="black" stroke-width="1" />
  <rect x="200.53333333333333" y="150.5616662766206" width="9.6" height="4.774163351275433" fill="green" />
  <line x1="216.0" y1="146.25555815586233" x2="216.0" y2="151.31055464544812" stroke="black" stroke-width="1" />
  <rect x="211.2" y="150.09361104610338" width="9.6" height="1" fill="green" />
  <line x1="226.66666666666666" y1="144.00889304937976" x2="226.66666666666666" y2="149.25111163117253" stroke="black" stroke-width="1" />
  <rect x="221.86666666666665" y="144.00889304937976" width="9.6" height="3.369997659723822" fill="red" />
  <line x1="237.33333333333334" y1="145.22583664872457" x2="237.33333333333334" y2="151.4041656915516" stroke="black" stroke-width="1" />
  <rect x="232.53333333333333" y="145.50666978703487" width="9.6" height="2.901942429206599" fill="red" />
  <line x1="248.0" y1="145.3194476948279" x2="248.0" y2="150.84249941493096" stroke="black" stroke-width="1" />
  <rect x="243.2" y="148.2213901240346" width="9.6" height="1.591387783758421" fill="red" />
  <line x1="258.66666666666663" y1="149.53194476948283" x2="258.66666666666663" y2="151.9658319681722" stroke="black" stroke-width="1" />
  <rect x="253.86666666666665" y="149.81277790779302" width="9.6" height="1.404165691551725" fill="red" />
  <line x1="269.3333333333333" y1="149.06388953896555" x2="269.3333333333333" y2="153.4636087058273" stroke="black" stroke-width="1" />
  <rect x="264.53333333333336" y="151.21694359934475" width="9.6" height="1.591387783758421" fill="red" />
  <line x1="279.99999999999994" y1="150.9361104610344" x2="279.99999999999994" y2="154.9613854434823" stroke="black" stroke-width="1" />
  <rect x="275.2" y="150.9361104610344" width="9.6" height="2.714720336999733" fill="green" />
  <line x1="290.66666666666663" y1="147.75333489351743" x2="290.66666666666663" y2="150.9361104610344" stroke="black" stroke-width="1" />
  <rect x="285.8666666666667" y="149.06388953896555" width="9.6" height="1.3105546454481214" fill="red" />
  <line x1="301.3333333333333" y1="149.90638895389657" x2="301.3333333333333" y2="154.680552305172" stroke="black" stroke-width="1" />
  <rect x="296.53333333333336" y="150.37444418441368" width="9.6" height="2.43388719868949" fill="red" />
  <line x1="311.99999999999994" y1="139.51556283641474" x2="311.99999999999994" y2="153.65083079803412" stroke="black" stroke-width="1" />
  <rect x="307.2" y="143.2600046805523" width="9.6" height="9.548326702550867" fill="green" />
  <line x1="322.66666666666663" y1="137.3625087760355" x2="322.66666666666663" y2="143.07278258834532" stroke="black" stroke-width="1" />
  <rect x="317.8666666666667" y="138.67306342148373" width="9.6" height="3.1827755675168987" fill="green" />
  <line x1="333.3333333333333" y1="137.17528668382863" x2="333.3333333333333" y2="142.51111631172478" stroke="black" stroke-width="1" />
  <rect x="328.53333333333336" y="140.45167329744908" width="9.6" height="1" fill="green" />
  <line x1="343.99999999999994" y1="133.71167797800138" x2="343.99999999999994" y2="139.9836180669319" stroke="black" stroke-width="1" />
  <rect x="339.2" y="136.5200093611046" width="9.6" height="3.463608705827312" fill="green" />
  <line x1="354.66666666666663" y1="129.03112567282938" x2="354.66666666666663" y2="135.3030657617599" stroke="black" stroke-width="1" />
  <rect x="349.8666666666667" y="132.21390124034633" width="9.6" height="2.901942429206599" fill="green" />
</svg>