<svg width="400" height="300" xmlns="http://www.w3.org/2000/svg">
  <line x1="40" y1="250" x2="40" y2="50" stroke="black" stroke-width="2" />
  <line x1="35" y1="250.0" x2="40" y2="250.0" stroke="black" stroke-width="1" />
  <text x="10" y="255.0" font-size="10" fill="black">75</text>
  <line x1="40" y1="250.0" x2="380" y2="250.0" stroke="lightgray" stroke-width="1" stroke-dasharray="5, 5" />
  <line x1="35" y1="210.0" x2="40" y2="210.0" stroke="black" stroke-width="1" />
  <text x="10" y="215.0" font-size="10" fill="black">85</text>
  <line x1="40" y1="210.0" x2="380" y2="210.0" stroke="lightgray" stroke-width="1" stroke-dasharray="5, 5" />
  <line x1="35" y1="170.0" x2="40" y2="170.0" stroke="black" stroke-width="1" />
  <text x="10" y="175.0" font-size="10" fill="black">95</text>
  <line x1="40" y1="170.0" x2="380" y2="170.0" stroke="lightgray" stroke-width="1" stroke-dasharray="5, 5" />
  <line x1="35" y1="130.0" x2="40" y2="130.0" stroke="black" stroke-width="1" />
  <text x="10" y="135.0" font-size="10" fill="black">105</text>
  <line x1="40" y1="130.0" x2="380" y2="130.0" stroke="lightgray" stroke-width="1" stroke-dasharray="5, 5" />
  <line x1="35" y1="90.0" x2="40" y2="90.0" stroke="black" stroke-width="1" />
  <text x="10" y="95.0" font-size="10" fill="black">115</text>
  <line x1="40" y1="90.0" x2="380" y2="90.0" stroke="lightgray" stroke-width="1" stroke-dasharray="5, 5" />
  <line x1="35" y1="50.0" x2="40" y2="50.0" stroke="black" stroke-width="1" />
  <text x="10" y="55.0" font-size="10" fill="black">125</text>
  <line x1="40" y1="50.0" x2="380" y2="50.0" stroke="lightgray" stroke-width="1" stroke-dasharray="5, 5" />
  <line x1="35" y1="150.0" x2="40" y2="150.0" stroke="black" stroke-width="1" />
  <text x="10" y="155.0" font-size="10" fill="black">100</text>
  <line x1="40" y1="150.0" x2="380" y2="150.0" stroke="lightgray" stroke-width="1" stroke-dasharray="5, 5" />
  <line x1="45.333333333333336" y1="148.06837606837604" x2="45.333333333333336" y2="151.67521367521368" stroke="black" stroke-width="1" />
  <rect x="40.53333333333333" y="149.24786324786322" width="9.6" height="1" fill="green" />
  <line x1="56.0" y1="148.1623931623932" x2="56.0" y2="152.11965811965814" stroke="black" stroke-width="1" />
  <rect x="51.199999999999996" y="149.14529914529913" width="9.6" height="1.7264957264957275" fill="red" />
  <line x1="66.66666666666666" y1="148.5726495726496" x2="66.66666666666666" y2="152.12820512820514" stroke="black" stroke-width="1" />
  <rect x="61.86666666666666" y="149.04273504273505" width="9.6" height="1" fill="green" />
  <line x1="77.33333333333333" y1="149.0683760683761" x2="77.33333333333333" y2="152.974358974359" stroke="black" stroke-width="1" />
  <rect x="72.53333333333333" y="149.5384615384615" width="9.6" height="1" fill="red" />
  <line x1="87.99999999999999" y1="147.5128205128205" x2="87.99999999999999" y2="151.1111111111111" stroke="black" stroke-width="1" />
  <rect x="83.19999999999999" y="148.72649572649567" width="9.6" height="1" fill="red" />
  <line x1="98.66666666666666" y1="148.00000000000006" x2="98.66666666666666" y2="155.21367521367523" stroke="black" stroke-width="1" />
  <rect x="93.86666666666666" y="148.03418803418805" width="9.6" height="3.299145299145266" fill="red" />
  <line x1="109.33333333333333" y1="147.8376068376068" x2="109.33333333333333" y2="150.85470085470087" stroke="black" stroke-width="1" />
  <rect x="104.53333333333333" y="149.4529914529915" width="9.6" height="1" fill="green" />
  <line x1="119.99999999999999" y1="143.5897435897436" x2="119.99999999999999" y2="149.81196581196582" stroke="black" stroke-width="1" />
  <rect x="115.19999999999999" y="144.025641025641" width="9.6" height="3.341880341880369" fill="green" />
  <line x1="130.66666666666666" y1="142.81196581196582" x2="130.66666666666666" y2="149.26068376068378" stroke="black" stroke-width="1" />
  <rect x="125.86666666666666" y="144.01709401709405" width="9.6" height="2.7350427350427253" fill="red" />
  <line x1="141.33333333333334" y1="138.1025641025641" x2="141.33333333333334" y2="144.4700854700854" stroke="black" stroke-width="1" />
  <rect x="136.53333333333333" y="139.05982905982899" width="9.6" height="5.410256410256409" fill="green" />
  <line x1="152.0" y1="134.8376068376068" x2="152.0" y2="140.0427350427351" stroke="black" stroke-width="1" />
  <rect x="147.2" y="136.88888888888886" width="9.6" height="1.2820512820513272" fill="green" />
  <line x1="162.66666666666666" y1="134.02564102564105" x2="162.66666666666666" y2="139.70940170940167" stroke="black" stroke-width="1" />
  <rect x="157.86666666666665" y="137.63247863247858" width="9.6" height="1" fill="red" />
  <line x1="173.33333333333334" y1="134.47008547008545" x2="173.33333333333334" y2="138.73504273504278" stroke="black" stroke-width="1" />
  <rect x="168.53333333333333" y="137.05982905982904" width="9.6" height="1" fill="green" />
  <line x1="184.0" y1="136.18803418803418" x2="184.0" y2="145.6323931623932" stroke="black" stroke-width="1" />
  <rect x="179.2" y="137.05982905982904" width="9.6" height="4.940170940170958" fill="red" />
  <line x1="194.66666666666666" y1="139.36752136752136" x2="194.66666666666666" y2="144.26495726495727" stroke="black" stroke-width="1" />
  <rect x="189.86666666666665" y="142.21367521367523" width="9.6" height="1" fill="red" />
  <line x1="205.33333333333334" y1="131.87179487179492" x2="205.33333333333334" y2="140.11538461538464" stroke="black" stroke-width="1" />
  <rect x="200.53333333333333" y="133.68376068376068" width="9.6" height="5.632478632478694" fill="green" />
  <line x1="216.0" y1="132.62393162393164" x2="216.0" y2="137.75213675213678" stroke="black" stroke-width="1" />
  <rect x="211.2" y="132.88888888888886" width="9.6" height="1" fill="green" />
  <line x1="226.66666666666666" y1="131.957264957265" x2="226.66666666666666" y2="141.58974358974365" stroke="black" stroke-width="1" />
  <rect x="221.86666666666665" y="132.75213675213672" width="9.6" height="1.4188034188034635" fill="green" />
  <line x1="237.33333333333334" y1="128.73504273504273" x2="237.33333333333334" y2="137.17948717948713" stroke="black" stroke-width="1" />
  <rect x="232.53333333333333" y="129.39316239316236" width="9.6" height="4.410256410256409" fill="green" />
  <line x1="248.0" y1="125.34188034188037" x2="248.0" y2="129.95726495726495" stroke="black" stroke-width="1" />
  <rect x="243.2" y="128.32478632478626" width="9.6" height="1" fill="green" />
  <line x1="258.66666666666663" y1="124.08547008547009" x2="258.66666666666663" y2="128.29914529914532" stroke="black" stroke-width="1" />
  <rect x="253.86666666666665" y="124.60683760683764" width="9.6" height="2.059829059829042" fill="green" />
  <line x1="269.3333333333333" y1="121.16239316239313" x2="269.3333333333333" y2="124.4871794871795" stroke="black" stroke-width="1" />
  <rect x="264.53333333333336" y="121.80341880341877" width="9.6" height="2.042735042735103" fill="green" />
  <line x1="279.99999999999994" y1="121.11111111111114" x2="279.99999999999994" y2="127.74358974358978" stroke="black" stroke-width="1" />
  <rect x="275.2" y="121.55555555555554" width="9.6" height="5.572649572649652" fill="red" />
  <line x1="290.66666666666663" y1="121.68376068376068" x2="290.66666666666663" y2="134.40170940170935" stroke="black" stroke-width="1" />
  <rect x="285.8666666666667" y="122.64957264957263" width="9.6" height="5.974358974359006" fill="red" />
  <line x1="301.3333333333333" y1="128.17948717948724" x2="301.3333333333333" y2="133.12820512820514" stroke="black" stroke-width="1" />
  <rect x="296.53333333333336" y="128.85470085470087" width="9.6" height="2.6410256410255784" fill="green" />
  <line x1="311.99999999999994" y1="124.62393162393164" x2="311.99999999999994" y2="130.0854700854701" stroke="black" stroke-width="1" />
  <rect x="307.2" y="125.09401709401715" width="9.6" height="3.4017094017092973" fill="green" />
  <line x1="322.66666666666663" y1="128.4230769230769" x2="322.66666666666663" y2="135.96581196581195" stroke="black" stroke-width="1" />
  <rect x="317.8666666666667" y="128.90598290598285" width="9.6" height="4.504273504273499" fill="red" />
  <line x1="333.3333333333333" y1="131.28205128205127" x2="333.3333333333333" y2="136.71794871794873" stroke="black" stroke-width="1" />
  <rect x="328.53333333333336" y="131.66666666666663" width="9.6" height="4.008547008547055" fill="green" />
  <line x1="343.99999999999994" y1="128.09829059829065" x2="343.99999999999994" y2="132.05128205128204" stroke="black" stroke-width="1" />
  <rect x="339.2" y="130.1111111111111" width="9.6" height="1" fill="green" />
  <line x1="354.66666666666663" y1="126.06837606837604" x2="354.66666666666663" y2="130.86324786324786" stroke="black" stroke-width="1" />
  <rect x="349.8666666666667" y="128.0854700854701" width="9.6" height="2.2307692307692832" fill="green" />
</svg>