<svg width="400" height="300" xmlns="http://www.w3.org/2000/svg">
  <line x1="40" y1="250" x2="40" y2="50" stroke="black" stroke-width="2" />
  <line x1="35" y1="250.0" x2="40" y2="250.0" stroke="black" stroke-width="1" />
  <text x="10" y="255.0" font-size="10" fill="black">75</text>
  <line x1="40" y1="250.0" x2="380" y2="250.0" stroke="lightgray" stroke-width="1" stroke-dasharray="5, 5" />
  <line x1="35" y1="210.0" x2="40" y2="210.0" stroke="black" stroke-width="1" />
  <text x="10" y="215.0" font-size="10" fill="black">85</text>
  <line x1="40" y1="210.0" x2="380" y2="210.0" stroke="lightgray" stroke-width="1" stroke-dasharray="5, 5" />
  <line x1="35" y1="170.0" x2="40" y2="170.0" stroke="black" stroke-width="1" />
  <text x="10" y="175.0" font-size="10" fill="black">95</text>
  <line x1="40" y1="170.0" x2="380" y2="170.0" stroke="lightgray" stroke-width="1" stroke-dasharray="5, 5" />
  <line x1="35" y1="130.0" x2="40" y2="130.0" stroke="black" stroke-width="1" />
  <text x="10" y="135.0" font-size="10" fill="black">105</text>
  <line x1="40" y1="130.0" x2="380" y2="130.0" stroke="lightgray" stroke-width="1" stroke-dasharray="5, 5" />
  <line x1="35" y1="90.0" x2="40" y2="90.0" stroke="black" stroke-width="1" />
  <text x="10" y="95.0" font-size="10" fill="black">115</text>
  <line x1="40" y1="90.0" x2="380" y2="90.0" stroke="lightgray" stroke-width="1" stroke-dasharray="5, 5" />
  <line x1="35" y1="50.0" x2="40" y2="50.0" stroke="black" stroke-width="1" />
  <text x="10" y="55.0" font-size="10" fill="black">125</text>
  <line x1="40" y1="50.0" x2="380" y2="50.0" stroke="lightgray" stroke-width="1" stroke-dasharray="5, 5" />
  <line x1="35" y1="150.0" x2="40" y2="150.0" stroke="black" stroke-width="1" />
  <text x="10" y="155.0" font-size="10" fill="black">100</text>
  <line x1="40" y1="150.0" x2="380" y2="150.0" stroke="lightgray" stroke-width="1" stroke-dasharray="5, 5" />
  <line x1="45.333333333333336" y1="148.67644294040235" x2="45.333333333333336" y2="155.4446324497086" stroke="black" stroke-width="1" />
  <rect x="40.53333333333333" y="150.0" width="9.6" height="3.369054333521376" fill="red" />
  <line x1="56.0" y1="150.1804850535815" x2="56.0" y2="156.8734724572288" stroke="black" stroke-width="1" />
  <rect x="51.199999999999996" y="151.97029516826473" width="9.6" height="1.81237074638085" fill="green" />
  <line x1="66.66666666666666" y1="150.6091370558375" x2="66.66666666666666" y2="154.52716676066927" stroke="black" stroke-width="1" />
  <rect x="61.86666666666666" y="152.66967475089297" width="9.6" height="1.2182741116751572" fill="red" />
  <line x1="77.33333333333333" y1="144.35984207557811" x2="77.33333333333333" y2="153.7337845459673" stroke="black" stroke-width="1" />
  <rect x="72.53333333333333" y="147.54841135551794" width="9.6" height="6.0236886632825986" fill="green" />
  <line x1="87.99999999999999" y1="140.72758037225037" x2="87.99999999999999" y2="152.48918969731147" stroke="black" stroke-width="1" />
  <rect x="83.19999999999999" y="146.16469261139315" width="9.6" height="3.8127467569091777" fill="red" />
  <line x1="98.66666666666666" y1="144.006392178981" x2="98.66666666666666" y2="155.1438240270728" stroke="black" stroke-width="1" />
  <rect x="93.86666666666666" y="146.2248542959203" width="9.6" height="6.7080278247790375" fill="red" />
  <line x1="109.33333333333333" y1="152.93288212069933" x2="109.33333333333333" y2="162.74675690919344" stroke="black" stroke-width="1" />
  <rect x="104.53333333333333" y="153.23369054333517" width="9.6" height="4.873096446700515" fill="red" />
  <line x1="119.99999999999999" y1="155.9334461364918" x2="119.99999999999999" y2="162.4760293288212" stroke="black" stroke-width="1" />
  <rect x="115.19999999999999" y="159.62586952434663" width="9.6" height="1" fill="green" />
  <line x1="130.66666666666666" y1="158.1331077270163" x2="130.66666666666666" y2="164.62680955066736" stroke="black" stroke-width="1" />
  <rect x="125.86666666666666" y="160.69749952998683" width="9.6" height="1" fill="red" />
  <line x1="141.33333333333334" y1="153.534498965971" x2="141.33333333333334" y2="162.1986087610453" stroke="black" stroke-width="1" />
  <rect x="136.53333333333333" y="159.66347057717616" width="9.6" height="1" fill="red" />
  <line x1="152.0" y1="156.28689603308896" x2="152.0" y2="162.55875164504602" stroke="black" stroke-width="1" />
  <rect x="147.2" y="157.93382214702007" width="9.6" height="1" fill="red" />
  <line x1="162.66666666666666" y1="154.82045497273924" x2="162.66666666666666" y2="167.50885504794132" stroke="black" stroke-width="1" />
  <rect x="157.86666666666665" y="159.2197781537883" width="9.6" height="5.925925925925924" fill="red" />
  <line x1="173.33333333333334" y1="161.51344237638654" x2="173.33333333333334" y2="170.92874600488813" stroke="black" stroke-width="1" />
  <rect x="168.53333333333333" y="164.40872344425645" width="9.6" height="5.015980447452478" fill="green" />
  <line x1="184.0" y1="157.7236322617033" x2="184.0" y2="165.60443692423388" stroke="black" stroke-width="1" />
  <rect x="179.2" y="161.31039669110731" width="9.6" height="3.865388230870508" fill="green" />
  <line x1="194.66666666666666" y1="155.50110923105848" x2="194.66666666666666" y2="175.3055085542395" stroke="black" stroke-width="1" />
  <rect x="189.86666666666665" y="157.5352509870276" width="9.6" height="16.25117503290096" fill="red" />
  <line x1="205.33333333333334" y1="165.46907313404773" x2="205.33333333333334" y2="172.4252679075014" stroke="black" stroke-width="1" />
  <rect x="200.53333333333333" y="169.3570219966159" width="9.6" height="1.0302688475276796" fill="red" />
  <line x1="216.0" y1="163.32581312276744" x2="216.0" y2="173.96856551983456" stroke="black" stroke-width="1" />
  <rect x="211.2" y="167.85297988343666" width="9.6" height="2.5343109607069323" fill="red" />
  <line x1="226.66666666666666" y1="164.1229554427524" x2="226.66666666666666" y2="177.29836435420185" stroke="black" stroke-width="1" />
  <rect x="221.86666666666665" y="165.09306260575295" width="9.6" height="3.624741492761814" fill="green" />
  <line x1="237.33333333333334" y1="153.90298928369992" x2="237.33333333333334" y2="162.54371122391422" stroke="black" stroke-width="1" />
  <rect x="232.53333333333333" y="154.7377326565143" width="9.6" height="6.429780033841041" fill="green" />
  <line x1="248.0" y1="153.24797894341037" x2="248.0" y2="161.12239142695995" stroke="black" stroke-width="1" />
  <rect x="243.2" y="155.47471329197214" width="9.6" height="3.218650122203428" fill="green" />
  <line x1="258.66666666666663" y1="148.3455536755029" x2="258.66666666666663" y2="160.90430532054893" stroke="black" stroke-width="1" />
  <rect x="253.86666666666665" y="148.9622109419064" width="9.6" height="6.572664034592947" fill="green" />
  <line x1="269.3333333333333" y1="142.3293852227862" x2="269.3333333333333" y2="151.00018800526408" stroke="black" stroke-width="1" />
  <rect x="264.53333333333336" y="145.7134799774393" width="9.6" height="1" fill="red" />
  <line x1="279.99999999999994" y1="140.75014100394804" x2="279.99999999999994" y2="148.49400263207366" stroke="black" stroke-width="1" />
  <rect x="275.2" y="145.45027260763294" width="9.6" height="1" fill="green" />
  <line x1="290.66666666666663" y1="127.31152472269213" x2="290.66666666666663" y2="139.00545215266027" stroke="black" stroke-width="1" />
  <rect x="285.8666666666667" y="129.54502726076322" width="9.6" height="6.843391614965299" fill="green" />
  <line x1="301.3333333333333" y1="125.48411355517953" x2="301.3333333333333" y2="131.65061101710842" stroke="black" stroke-width="1" />
  <rect x="296.53333333333336" y="127.85297988343672" width="9.6" height="1.0152284263959928" fill="green" />
  <line x1="311.99999999999994" y1="118.35502914081593" x2="311.99999999999994" y2="127.05583756345175" stroke="black" stroke-width="1" />
  <rect x="307.2" y="121.72400827223163" width="9.6" height="3.8277871780409782" fill="red" />
  <line x1="322.66666666666663" y1="123.04380522654634" x2="322.66666666666663" y2="133.23745064861805" stroke="black" stroke-width="1" />
  <rect x="317.8666666666667" y="123.8447076518143" width="9.6" height="2.519270539575018" fill="red" />
  <line x1="333.3333333333333" y1="116.17409287460043" x2="333.3333333333333" y2="126.07068997931935" stroke="black" stroke-width="1" />
  <rect x="328.53333333333336" y="122.61891332957322" width="9.6" height="3.2036097010716844" fill="green" />
  <line x1="343.99999999999994" y1="115.7830419251739" x2="343.99999999999994" y2="127.10088362474147" stroke="black" stroke-width="1" />
  <rect x="339.2" y="117.03891708967848" width="9.6" height="5.9334461364918525" fill="red" />
  <line x1="354.66666666666663" y1="120.7163752585073" x2="354.66666666666663" y2="125.4765933446136" stroke="black" stroke-width="1" />
  <rect x="349.8666666666667" y="121.27279563827784" width="9.6" height="2.060537695055473" fill="red" />
</svg>