<svg width="400" height="300" xmlns="http://www.w3.org/2000/svg">
  <line x1="40" y1="250" x2="40" y2="50" stroke="black" stroke-width="2" />
  <line x1="35" y1="250.0" x2="40" y2="250.0" stroke="black" stroke-width="1" />
  <text x="10" y="255.0" font-size="10" fill="black">75</text>
  <line x1="40" y1="250.0" x2="380" y2="250.0" stroke="lightgray" stroke-width="1" stroke-dasharray="5, 5" />
  <line x1="35" y1="210.0" x2="40" y2="210.0" stroke="black" stroke-width="1" />
  <text x="10" y="215.0" font-size="10" fill="black">85</text>
  <line x1="40" y1="210.0" x2="380" y2="210.0" stroke="lightgray" stroke-width="1" stroke-dasharray="5, 5" />
  <line x1="35" y1="170.0" x2="40" y2="170.0" stroke="black" stroke-width="1" />
  <text x="10" y="175.0" font-size="10" fill="black">95</text>
  <line x1="40" y1="170.0" x2="380" y2="170.0" stroke="lightgray" stroke-width="1" stroke-dasharray="5, 5" />
  <line x1="35" y1="130.0" x2="40" y2="130.0" stroke="black" stroke-width="1" />
  <text x="10" y="135.0" font-size="10" fill="black">105</text>
  <line x1="40" y1="130.0" x2="380" y2="130.0" stroke="lightgray" stroke-width="1" stroke-dasharray="5, 5" />
  <line x1="35" y1="90.0" x2="40" y2="90.0" stroke="black" stroke-width="1" />
  <text x="10" y="95.0" font-size="10" fill="black">115</text>
  <line x1="40" y1="90.0" x2="380" y2="90.0" stroke="lightgray" stroke-width="1" stroke-dasharray="5, 5" />
  <line x1="35" y1="50.0" x2="40" y2="50.0" stroke="black" stroke-width="1" />
  <text x="10" y="55.0" font-size="10" fill="black">125</text>
  <line x1="40" y1="50.0" x2="380" y2="50.0" stroke="lightgray" stroke-width="1" stroke-dasharray="5, 5" />
  <line x1="35" y1="150.0" x2="40" y2="150.0" stroke="black" stroke-width="1" />
  <text x="10" y="155.0" font-size="10" fill="black">100</text>
  <line x1="40" y1="150.0" x2="380" y2="150.0" stroke="lightgray" stroke-width="1" stroke-dasharray="5, 5" />
  <line x1="45.333333333333336" y1="147.9746835443038" x2="45.333333333333336" y2="151.01265822784808" stroke="black" stroke-width="1" />
  <rect x="40.53333333333333" y="150.0" width="9.6" height="1.0126582278480782" fill="red" />
  <line x1="56.0" y1="146.96202531645565" x2="56.0" y2="151.01265822784808" stroke="black" stroke-width="1" />
  <rect x="51.199999999999996" y="147.9746835443038" width="9.6" height="1.012658227848135" fill="red" />
  <line x1="66.66666666666666" y1="136.8354430379747" x2="66.66666666666666" y2="147.9746835443038" stroke="black" stroke-width="1" />
  <rect x="61.86666666666666" y="136.8354430379747" width="9.6" height="11.139240506329088" fill="green" />
  <line x1="77.33333333333333" y1="136.8354430379747" x2="77.33333333333333" y2="146.96202531645565" stroke="black" stroke-width="1" />
  <rect x="72.53333333333333" y="136.8354430379747" width="9.6" height="10.126582278480953" fill="red" />
  <line x1="87.99999999999999" y1="146.96202531645565" x2="87.99999999999999" y2="156.07594936708858" stroke="black" stroke-width="1" />
  <rect x="83.19999999999999" y="151.01265822784808" width="9.6" height="5.063291139240505" fill="green" />
  <line x1="98.66666666666666" y1="150.0" x2="98.66666666666666" y2="154.05063291139243" stroke="black" stroke-width="1" />
  <rect x="93.86666666666666" y="152.0253164556962" width="9.6" height="1.012658227848135" fill="red" />
  <line x1="109.33333333333333" y1="144.93670886075955" x2="109.33333333333333" y2="154.05063291139243" stroke="black" stroke-width="1" />
  <rect x="104.53333333333333" y="144.93670886075955" width="9.6" height="8.101265822784796" fill="green" />
  <line x1="119.99999999999999" y1="142.91139240506334" x2="119.99999999999999" y2="156.07594936708858" stroke="black" stroke-width="1" />
  <rect x="115.19999999999999" y="142.91139240506334" width="9.6" height="12.151898734177166" fill="red" />
  <line x1="130.66666666666666" y1="141.89873417721515" x2="130.66666666666666" y2="155.0632911392405" stroke="black" stroke-width="1" />
  <rect x="125.86666666666666" y="146.96202531645565" width="9.6" height="8.101265822784853" fill="green" />
  <line x1="141.33333333333334" y1="135.82278481012662" x2="141.33333333333334" y2="146.96202531645565" stroke="black" stroke-width="1" />
  <rect x="136.53333333333333" y="135.82278481012662" width="9.6" height="10.126582278480953" fill="red" />
  <line x1="152.0" y1="140.88607594936713" x2="152.0" y2="147.9746835443038" stroke="black" stroke-width="1" />
  <rect x="147.2" y="140.88607594936713" width="9.6" height="4.050632911392427" fill="green" />
  <line x1="162.66666666666666" y1="139.87341772151905" x2="162.66666666666666" y2="150.0" stroke="black" stroke-width="1" />
  <rect x="157.86666666666665" y="139.87341772151905" width="9.6" height="1.0126582278480782" fill="red" />
  <line x1="173.33333333333334" y1="146.96202531645565" x2="173.33333333333334" y2="150.0" stroke="black" stroke-width="1" />
  <rect x="168.53333333333333" y="146.96202531645565" width="9.6" height="3.0379746835443484" fill="green" />
  <line x1="184.0" y1="139.87341772151905" x2="184.0" y2="146.96202531645565" stroke="black" stroke-width="1" />
  <rect x="179.2" y="139.87341772151905" width="9.6" height="6.075949367088526" fill="red" />
  <line x1="194.66666666666666" y1="145.94936708860757" x2="194.66666666666666" y2="150.0" stroke="black" stroke-width="1" />
  <rect x="189.86666666666665" y="145.94936708860757" width="9.6" height="1.0126582278480782" fill="red" />
  <line x1="205.33333333333334" y1="142.91139240506334" x2="205.33333333333334" y2="155.0632911392405" stroke="black" stroke-width="1" />
  <rect x="200.53333333333333" y="145.94936708860757" width="9.6" height="1" fill="red" />
  <line x1="216.0" y1="143.92405063291147" x2="216.0" y2="150.0" stroke="black" stroke-width="1" />
  <rect x="211.2" y="144.93670886075955" width="9.6" height="3.0379746835442347" fill="red" />
  <line x1="226.66666666666666" y1="144.93670886075955" x2="226.66666666666666" y2="150.0" stroke="black" stroke-width="1" />
  <rect x="221.86666666666665" y="144.93670886075955" width="9.6" height="3.0379746835442347" fill="green" />
  <line x1="237.33333333333334" y1="145.94936708860757" x2="237.33333333333334" y2="155.0632911392405" stroke="black" stroke-width="1" />
  <rect x="232.53333333333333" y="150.0" width="9.6" height="1.0126582278480782" fill="red" />
  <line x1="248.0" y1="140.88607594936713" x2="248.0" y2="150.0" stroke="black" stroke-width="1" />
  <rect x="243.2" y="140.88607594936713" width="9.6" height="4.050632911392427" fill="red" />
  <line x1="258.66666666666663" y1="143.92405063291147" x2="258.66666666666663" y2="151.01265822784808" stroke="black" stroke-width="1" />
  <rect x="253.86666666666665" y="143.92405063291147" width="9.6" height="7.0886075949366045" fill="red" />
  <line x1="269.3333333333333" y1="140.88607594936713" x2="269.3333333333333" y2="151.01265822784808" stroke="black" stroke-width="1" />
  <rect x="264.53333333333336" y="145.94936708860757" width="9.6" height="5.063291139240505" fill="green" />
  <line x1="279.99999999999994" y1="147.9746835443038" x2="279.99999999999994" y2="155.0632911392405" stroke="black" stroke-width="1" />
  <rect x="275.2" y="147.9746835443038" width="9.6" height="7.088607594936718" fill="green" />
  <line x1="290.66666666666663" y1="130.75949367088617" x2="290.66666666666663" y2="144.93670886075955" stroke="black" stroke-width="1" />
  <rect x="285.8666666666667" y="139.87341772151905" width="9.6" height="5.063291139240505" fill="green" />
  <line x1="301.3333333333333" y1="138.8607594936709" x2="301.3333333333333" y2="148.98734177215192" stroke="black" stroke-width="1" />
  <rect x="296.53333333333336" y="139.87341772151905" width="9.6" height="9.113924050632875" fill="red" />
  <line x1="311.99999999999994" y1="150.0" x2="311.99999999999994" y2="154.05063291139243" stroke="black" stroke-width="1" />
  <rect x="307.2" y="150.0" width="9.6" height="1.0126582278480782" fill="green" />
  <line x1="322.66666666666663" y1="150.0" x2="322.66666666666663" y2="153.03797468354435" stroke="black" stroke-width="1" />
  <rect x="317.8666666666667" y="151.01265822784808" width="9.6" height="2.02531645569627" fill="green" />
  <line x1="333.3333333333333" y1="144.93670886075955" x2="333.3333333333333" y2="152.0253164556962" stroke="black" stroke-width="1" />
  <rect x="328.53333333333336" y="144.93670886075955" width="9.6" height="7.088607594936661" fill="red" />
  <line x1="343.99999999999994" y1="135.82278481012662" x2="343.99999999999994" y2="145.94936708860757" stroke="black" stroke-width="1" />
  <rect x="339.2" y="145.94936708860757" width="9.6" height="1" fill="red" />
  <line x1="354.66666666666663" y1="137.84810126582283" x2="354.66666666666663" y2="147.9746835443038" stroke="black" stroke-width="1" />
  <rect x="349.8666666666667" y="145.94936708860757" width="9.6" height="2.0253164556962133" fill="green" />
</svg>