<svg width="400" height="300" xmlns="http://www.w3.org/2000/svg">
  <line x1="40" y1="250" x2="40" y2="50" stroke="black" stroke-width="2" />
  <line x1="35" y1="250.0" x2="40" y2="250.0" stroke="black" stroke-width="1" />
  <text x="10" y="255.0" font-size="10" fill="black">75</text>
  <line x1="40" y1="250.0" x2="380" y2="250.0" stroke="lightgray" stroke-width="1" stroke-dasharray="5, 5" />
  <line x1="35" y1="210.0" x2="40" y2="210.0" stroke="black" stroke-width="1" />
  <text x="10" y="215.0" font-size="10" fill="black">85</text>
  <line x1="40" y1="210.0" x2="380" y2="210.0" stroke="lightgray" stroke-width="1" stroke-dasharray="5, 5" />
  <line x1="35" y1="170.0" x2="40" y2="170.0" stroke="black" stroke-width="1" />
  <text x="10" y="175.0" font-size="10" fill="black">95</text>
  <line x1="40" y1="170.0" x2="380" y2="170.0" stroke="lightgray" stroke-width="1" stroke-dasharray="5, 5" />
  <line x1="35" y1="130.0" x2="40" y2="130.0" stroke="black" stroke-width="1" />
  <text x="10" y="135.0" font-size="10" fill="black">105</text>
  <line x1="40" y1="130.0" x2="380" y2="130.0" stroke="lightgray" stroke-width="1" stroke-dasharray="5, 5" />
  <line x1="35" y1="90.0" x2="40" y2="90.0" stroke="black" stroke-width="1" />
  <text x="10" y="95.0" font-size="10" fill="black">115</text>
  <line x1="40" y1="90.0" x2="380" y2="90.0" stroke="lightgray" stroke-width="1" stroke-dasharray="5, 5" />
  <line x1="35" y1="50.0" x2="40" y2="50.0" stroke="black" stroke-width="1" />
  <text x="10" y="55.0" font-size="10" fill="black">125</text>
  <line x1="40" y1="50.0" x2="380" y2="50.0" stroke="lightgray" stroke-width="1" stroke-dasharray="5, 5" />
  <line x1="35" y1="150.0" x2="40" y2="150.0" stroke="black" stroke-width="1" />
  <text x="10" y="155.0" font-size="10" fill="black">100</text>
  <line x1="40" y1="150.0" x2="380" y2="150.0" stroke="lightgray" stroke-width="1" stroke-dasharray="5, 5" />
  <line x1="45.333333333333336" y1="140.31847133757964" x2="45.333333333333336" y2="160.36093418259026" stroke="black" stroke-width="1" />
  <rect x="40.53333333333333" y="150.0" width="9.6" height="2.377919320594458" fill="red" />
  <line x1="56.0" y1="148.38641188959656" x2="56.0" y2="157.13375796178337" stroke="black" stroke-width="1" />
  <rect x="51.199999999999996" y="152.1231422505308" width="9.6" height="2.717622080679405" fill="red" />
  <line x1="66.66666666666666" y1="150.50955414012736" x2="66.66666666666666" y2="154.75583864118897" stroke="black" stroke-width="1" />
  <rect x="61.86666666666666" y="153.99150743099784" width="9.6" height="1" fill="green" />
  <line x1="77.33333333333333" y1="149.49044585987264" x2="77.33333333333333" y2="156.28450106157112" stroke="black" stroke-width="1" />
  <rect x="72.53333333333333" y="150.50955414012736" width="9.6" height="4.076433121019193" fill="green" />
  <line x1="87.99999999999999" y1="146.2632696390658" x2="87.99999999999999" y2="152.1231422505308" stroke="black" stroke-width="1" />
  <rect x="83.19999999999999" y="148.72611464968156" width="9.6" height="1.9532908704882743" fill="green" />
  <line x1="98.66666666666666" y1="147.53715498938436" x2="98.66666666666666" y2="155.7749469214437" stroke="black" stroke-width="1" />
  <rect x="93.86666666666666" y="148.72611464968156" width="9.6" height="3.6518046709128953" fill="red" />
  <line x1="109.33333333333333" y1="151.10403397027602" x2="109.33333333333333" y2="157.55838641188956" stroke="black" stroke-width="1" />
  <rect x="104.53333333333333" y="151.18895966029726" width="9.6" height="6.199575371549884" fill="red" />
  <line x1="119.99999999999999" y1="155.4352441613588" x2="119.99999999999999" y2="163.1634819532909" stroke="black" stroke-width="1" />
  <rect x="115.19999999999999" y="157.21868365180467" width="9.6" height="5.94479830148623" fill="red" />
  <line x1="130.66666666666666" y1="155.2653927813164" x2="130.66666666666666" y2="162.99363057324837" stroke="black" stroke-width="1" />
  <rect x="125.86666666666666" y="158.3227176220807" width="9.6" height="4.670912951167679" fill="green" />
  <line x1="141.33333333333334" y1="156.11464968152865" x2="141.33333333333334" y2="162.65392781316348" stroke="black" stroke-width="1" />
  <rect x="136.53333333333333" y="157.30360934182596" width="9.6" height="2.8874734607218215" fill="red" />
  <line x1="152.0" y1="159.17197452229294" x2="152.0" y2="165.6263269639066" stroke="black" stroke-width="1" />
  <rect x="147.2" y="160.27600849256896" width="9.6" height="1.358811040339674" fill="red" />
  <line x1="162.66666666666666" y1="158.74734607218682" x2="162.66666666666666" y2="170.55201698513798" stroke="black" stroke-width="1" />
  <rect x="157.86666666666665" y="163.58811040339702" width="9.6" height="6.02972399150741" fill="red" />
  <line x1="173.33333333333334" y1="176.41188959660298" x2="173.33333333333334" y2="184.47983014861995" stroke="black" stroke-width="1" />
  <rect x="168.53333333333333" y="179.46921443736727" width="9.6" height="1.1040339702760775" fill="red" />
  <line x1="184.0" y1="177.2611464968153" x2="184.0" y2="185.58386411889592" stroke="black" stroke-width="1" />
  <rect x="179.2" y="180.57324840764335" width="9.6" height="5.010615711252569" fill="red" />
  <line x1="194.66666666666666" y1="183.80042462845012" x2="194.66666666666666" y2="195.43524416135887" stroke="black" stroke-width="1" />
  <rect x="189.86666666666665" y="186.43312101910834" width="9.6" height="9.002123142250525" fill="red" />
  <line x1="205.33333333333334" y1="188.64118895966027" x2="205.33333333333334" y2="192.80254777070058" stroke="black" stroke-width="1" />
  <rect x="200.53333333333333" y="191.95329087048833" width="9.6" height="1" fill="red" />
  <line x1="216.0" y1="191.52866242038215" x2="216.0" y2="199.59660297239913" stroke="black" stroke-width="1" />
  <rect x="211.2" y="192.547770700637" width="9.6" height="5.9447983014861165" fill="red" />
  <line x1="226.66666666666666" y1="190.3397027600849" x2="226.66666666666666" y2="198.9171974522293" stroke="black" stroke-width="1" />
  <rect x="221.86666666666665" y="196.70912951167725" width="9.6" height="1" fill="green" />
  <line x1="237.33333333333334" y1="184.90445859872608" x2="237.33333333333334" y2="192.97239915074312" stroke="black" stroke-width="1" />
  <rect x="232.53333333333333" y="190.42462845010613" width="9.6" height="2.5477707006369883" fill="red" />
  <line x1="248.0" y1="187.79193205944802" x2="248.0" y2="193.312101910828" stroke="black" stroke-width="1" />
  <rect x="243.2" y="188.98089171974516" width="9.6" height="2.292993630573278" fill="green" />
  <line x1="258.66666666666663" y1="185.92356687898086" x2="258.66666666666663" y2="191.27388535031844" stroke="black" stroke-width="1" />
  <rect x="253.86666666666665" y="188.64118895966027" width="9.6" height="2.632696390658168" fill="red" />
  <line x1="269.3333333333333" y1="177.515923566879" x2="269.3333333333333" y2="190.67940552016984" stroke="black" stroke-width="1" />
  <rect x="264.53333333333336" y="179.12951167728238" width="9.6" height="11.040339702760093" fill="green" />
  <line x1="279.99999999999994" y1="179.0445859872611" x2="279.99999999999994" y2="183.20594479830146" stroke="black" stroke-width="1" />
  <rect x="275.2" y="179.0445859872611" width="9.6" height="1" fill="green" />
  <line x1="290.66666666666663" y1="160.9554140127388" x2="290.66666666666663" y2="174.7133757961784" stroke="black" stroke-width="1" />
  <rect x="285.8666666666667" y="171.06157112526546" width="9.6" height="1.8683651804669807" fill="green" />
  <line x1="301.3333333333333" y1="166.98513800424627" x2="301.3333333333333" y2="185.6687898089172" stroke="black" stroke-width="1" />
  <rect x="296.53333333333336" y="167.57961783439492" width="9.6" height="16.645435244161263" fill="red" />
  <line x1="311.99999999999994" y1="181.0828025477707" x2="311.99999999999994" y2="191.44373673036085" stroke="black" stroke-width="1" />
  <rect x="307.2" y="183.29087048832275" width="9.6" height="1" fill="green" />
  <line x1="322.66666666666663" y1="170.72186836518046" x2="322.66666666666663" y2="179.3842887473461" stroke="black" stroke-width="1" />
  <rect x="317.8666666666667" y="176.07218683651809" width="9.6" height="1.1040339702760207" fill="red" />
  <line x1="333.3333333333333" y1="171.7409766454353" x2="333.3333333333333" y2="180.40339702760082" stroke="black" stroke-width="1" />
  <rect x="328.53333333333336" y="173.43949044585986" width="9.6" height="6.114649681528647" fill="green" />
  <line x1="343.99999999999994" y1="152.37791932059446" x2="343.99999999999994" y2="167.83439490445858" stroke="black" stroke-width="1" />
  <rect x="339.2" y="154.07643312101914" width="9.6" height="13.757961783439441" fill="green" />
  <line x1="354.66666666666663" y1="144.14012738853506" x2="354.66666666666663" y2="153.22717622080683" stroke="black" stroke-width="1" />
  <rect x="349.8666666666667" y="144.14012738853506" width="9.6" height="7.048832271762194" fill="green" />
</svg>