<svg width="400" height="300" xmlns="http://www.w3.org/2000/svg">
  <line x1="40" y1="250" x2="40" y2="50" stroke="black" stroke-width="2" />
  <line x1="35" y1="250.0" x2="40" y2="250.0" stroke="black" stroke-width="1" />
  <text x="10" y="255.0" font-size="10" fill="black">75</text>
  <line x1="40" y1="250.0" x2="380" y2="250.0" stroke="lightgray" stroke-width="1" stroke-dasharray="5, 5" />
  <line x1="35" y1="210.0" x2="40" y2="210.0" stroke="black" stroke-width="1" />
  <text x="10" y="215.0" font-size="10" fill="black">85</text>
  <line x1="40" y1="210.0" x2="380" y2="210.0" stroke="lightgray" stroke-width="1" stroke-dasharray="5, 5" />
  <line x1="35" y1="170.0" x2="40" y2="170.0" stroke="black" stroke-width="1" />
  <text x="10" y="175.0" font-size="10" fill="black">95</text>
  <line x1="40" y1="170.0" x2="380" y2="170.0" stroke="lightgray" stroke-width="1" stroke-dasharray="5, 5" />
  <line x1="35" y1="130.0" x2="40" y2="130.0" stroke="black" stroke-width="1" />
  <text x="10" y="135.0" font-size="10" fill="black">105</text>
  <line x1="40" y1="130.0" x2="380" y2="130.0" stroke="lightgray" stroke-width="1" stroke-dasharray="5, 5" />
  <line x1="35" y1="90.0" x2="40" y2="90.0" stroke="black" stroke-width="1" />
  <text x="10" y="95.0" font-size="10" fill="black">115</text>
  <line x1="40" y1="90.0" x2="380" y2="90.0" stroke="lightgray" stroke-width="1" stroke-dasharray="5, 5" />
  <line x1="35" y1="50.0" x2="40" y2="50.0" stroke="black" stroke-width="1" />
  <text x="10" y="55.0" font-size="10" fill="black">125</text>
  <line x1="40" y1="50.0" x2="380" y2="50.0" stroke="lightgray" stroke-width="1" stroke-dasharray="5, 5" />
  <line x1="35" y1="150.0" x2="40" y2="150.0" stroke="black" stroke-width="1" />
  <text x="10" y="155.0" font-size="10" fill="black">100</text>
  <line x1="40" y1="150.0" x2="380" y2="150.0" stroke="lightgray" stroke-width="1" stroke-dasharray="5, 5" />
  <line x1="45.333333333333336" y1="149.29624346172136" x2="45.333333333333336" y2="153.13837375178315" stroke="black" stroke-width="1" />
  <rect x="40.53333333333333" y="150.0" width="9.6" height="2.0256776034236736" fill="red" />
  <line x1="56.0" y1="148.90632429862103" x2="56.0" y2="153.93723252496437" stroke="black" stroke-width="1" />
  <rect x="51.199999999999996" y="149.1155492154066" width="9.6" height="2.4441274369947905" fill="green" />
  <line x1="66.66666666666666" y1="144.9976224441275" x2="66.66666666666666" y2="149.01093675701384" stroke="black" stroke-width="1" />
  <rect x="61.86666666666666" y="146.00570613409423" width="9.6" height="2.948169281978039" fill="green" />
  <line x1="77.33333333333333" y1="144.48407037565386" x2="77.33333333333333" y2="148.93485496909176" stroke="black" stroke-width="1" />
  <rect x="72.53333333333333" y="146.63338088445084" width="9.6" height="1" fill="green" />
  <line x1="87.99999999999999" y1="144.11326676176895" x2="87.99999999999999" y2="155.69662387066097" stroke="black" stroke-width="1" />
  <rect x="83.19999999999999" y="146.42415596766529" width="9.6" height="8.378506894911993" fill="red" />
  <line x1="98.66666666666666" y1="151.2743699476938" x2="98.66666666666666" y2="158.09320019020447" stroke="black" stroke-width="1" />
  <rect x="93.86666666666666" y="153.44270090347123" width="9.6" height="1" fill="red" />
  <line x1="109.33333333333333" y1="153.15748930099858" x2="109.33333333333333" y2="158.8064669519734" stroke="black" stroke-width="1" />
  <rect x="104.53333333333333" y="154.02757964812173" width="9.6" height="2.7341892534474823" fill="red" />
  <line x1="119.99999999999999" y1="155.93437945791726" x2="119.99999999999999" y2="159.84308131241085" stroke="black" stroke-width="1" />
  <rect x="115.19999999999999" y="156.4289110794104" width="9.6" height="1" fill="green" />
  <line x1="130.66666666666666" y1="155.32572515454115" x2="130.66666666666666" y2="162.63908701854496" stroke="black" stroke-width="1" />
  <rect x="125.86666666666666" y="155.43984783642418" width="9.6" height="4.070375653827853" fill="red" />
  <line x1="141.33333333333334" y1="148.6210175939135" x2="141.33333333333334" y2="159.51022349025203" stroke="black" stroke-width="1" />
  <rect x="136.53333333333333" y="155.38278649548266" width="9.6" height="1.7308606752258697" fill="red" />
  <line x1="152.0" y1="152.95767950546838" x2="152.0" y2="158.05515929624352" stroke="black" stroke-width="1" />
  <rect x="147.2" y="153.29053732762725" width="9.6" height="1.4645744174987954" fill="green" />
  <line x1="162.66666666666666" y1="150.6847360912982" x2="162.66666666666666" y2="162.90537327627203" stroke="black" stroke-width="1" />
  <rect x="157.86666666666665" y="152.55825011887782" width="9.6" height="8.05515929624346" fill="red" />
  <line x1="173.33333333333334" y1="158.90156918687592" x2="173.33333333333334" y2="165.43509272467907" stroke="black" stroke-width="1" />
  <rect x="168.53333333333333" y="161.12696148359487" width="9.6" height="2.8435568235853452" fill="green" />
  <line x1="184.0" y1="157.13266761768898" x2="184.0" y2="163.7612933903947" stroke="black" stroke-width="1" />
  <rect x="179.2" y="161.61198288159773" width="9.6" height="1" fill="green" />
  <line x1="194.66666666666666" y1="159.4626723728008" x2="194.66666666666666" y2="168.830242510699" stroke="black" stroke-width="1" />
  <rect x="189.86666666666665" y="160.97479790775083" width="9.6" height="6.9995244888255" fill="red" />
  <line x1="205.33333333333334" y1="161.3647170708512" x2="205.33333333333334" y2="167.54636233951504" stroke="black" stroke-width="1" />
  <rect x="200.53333333333333" y="162.7056585829767" width="9.6" height="1.44555397051829" fill="red" />
  <line x1="216.0" y1="154.06086543033769" x2="216.0" y2="162.26818830242513" stroke="black" stroke-width="1" />
  <rect x="211.2" y="156.0865430337613" width="9.6" height="5.706134094151196" fill="green" />
  <line x1="226.66666666666666" y1="146.7760342368046" x2="226.66666666666666" y2="160.48026628625774" stroke="black" stroke-width="1" />
  <rect x="221.86666666666665" y="147.67950546837847" width="9.6" height="7.170708511650105" fill="green" />
  <line x1="237.33333333333334" y1="143.56233951497865" x2="237.33333333333334" y2="150.80836899667145" stroke="black" stroke-width="1" />
  <rect x="232.53333333333333" y="143.91345696623875" width="9.6" height="3.5092724679029175" fill="green" />
  <line x1="248.0" y1="139.32001902044703" x2="248.0" y2="145.37803138373755" stroke="black" stroke-width="1" />
  <rect x="243.2" y="140.4992867332383" width="9.6" height="4.531621493105035" fill="green" />
  <line x1="258.66666666666663" y1="137.7032810271042" x2="258.66666666666663" y2="142.75320970042793" stroke="black" stroke-width="1" />
  <rect x="253.86666666666665" y="139.78601997146933" width="9.6" height="1" fill="green" />
  <line x1="269.3333333333333" y1="129.79077508321444" x2="269.3333333333333" y2="138.90156918687592" stroke="black" stroke-width="1" />
  <rect x="264.53333333333336" y="131.33143128863526" width="9.6" height="4.831193533048122" fill="red" />
  <line x1="279.99999999999994" y1="135.3257251545412" x2="279.99999999999994" y2="140.67047075606274" stroke="black" stroke-width="1" />
  <rect x="275.2" y="136.30527817403708" width="9.6" height="3.984783642415664" fill="red" />
  <line x1="290.66666666666663" y1="130.1236329053733" x2="290.66666666666663" y2="134.49833571088925" stroke="black" stroke-width="1" />
  <rect x="285.8666666666667" y="130.38516405135522" width="9.6" height="2.410841654778949" fill="red" />
  <line x1="301.3333333333333" y1="132.2729434141703" x2="301.3333333333333" y2="137.04707560627674" stroke="black" stroke-width="1" />
  <rect x="296.53333333333336" y="134.1940085592011" width="9.6" height="1.8544935805991827" fill="red" />
  <line x1="311.99999999999994" y1="134.91678554446037" x2="311.99999999999994" y2="140.69053732762723" stroke="black" stroke-width="1" />
  <rect x="307.2" y="136.99001426533528" width="9.6" height="1" fill="red" />
  <line x1="322.66666666666663" y1="137.8744650499287" x2="322.66666666666663" y2="144.76937708036138" stroke="black" stroke-width="1" />
  <rect x="317.8666666666667" y="138.2073228720875" width="9.6" height="3.6424155967665115" fill="red" />
  <line x1="333.3333333333333" y1="138.09415121255347" x2="333.3333333333333" y2="142.42035187826917" stroke="black" stroke-width="1" />
  <rect x="328.53333333333336" y="139.0537327627199" width="9.6" height="2.1683309557775488" fill="green" />
  <line x1="343.99999999999994" y1="136.01997146932956" x2="343.99999999999994" y2="141.88777936281508" stroke="black" stroke-width="1" />
  <rect x="339.2" y="136.22444127437" width="9.6" height="3.5901093675701077" fill="red" />
  <line x1="354.66666666666663" y1="139.30099857346647" x2="354.66666666666663" y2="143.4664764621969" stroke="black" stroke-width="1" />
  <rect x="349.8666666666667" y="139.61483594864478" width="9.6" height="3.328578221588259" fill="red" />
</svg>