<svg width="400" height="300" xmlns="http://www.w3.org/2000/svg">
  <line x1="40" y1="250" x2="40" y2="50" stroke="black" stroke-width="2" />
  <line x1="35" y1="250.0" x2="40" y2="250.0" stroke="black" stroke-width="1" />
  <text x="10" y="255.0" font-size="10" fill="black">75</text>
  <line x1="40" y1="250.0" x2="380" y2="250.0" stroke="lightgray" stroke-width="1" stroke-dasharray="5, 5" />
  <line x1="35" y1="210.0" x2="40" y2="210.0" stroke="black" stroke-width="1" />
  <text x="10" y="215.0" font-size="10" fill="black">85</text>
  <line x1="40" y1="210.0" x2="380" y2="210.0" stroke="lightgray" stroke-width="1" stroke-dasharray="5, 5" />
  <line x1="35" y1="170.0" x2="40" y2="170.0" stroke="black" stroke-width="1" />
  <text x="10" y="175.0" font-size="10" fill="black">95</text>
  <line x1="40" y1="170.0" x2="380" y2="170.0" stroke="lightgray" stroke-width="1" stroke-dasharray="5, 5" />
  <line x1="35" y1="130.0" x2="40" y2="130.0" stroke="black" stroke-width="1" />
  <text x="10" y="135.0" font-size="10" fill="black">105</text>
  <line x1="40" y1="130.0" x2="380" y2="130.0" stroke="lightgray" stroke-width="1" stroke-dasharray="5, 5" />
  <line x1="35" y1="90.0" x2="40" y2="90.0" stroke="black" stroke-width="1" />
  <text x="10" y="95.0" font-size="10" fill="black">115</text>
  <line x1="40" y1="90.0" x2="380" y2="90.0" stroke="lightgray" stroke-width="1" stroke-dasharray="5, 5" />
  <line x1="35" y1="50.0" x2="40" y2="50.0" stroke="black" stroke-width="1" />
  <text x="10" y="55.0" font-size="10" fill="black">125</text>
  <line x1="40" y1="50.0" x2="380" y2="50.0" stroke="lightgray" stroke-width="1" stroke-dasharray="5, 5" />
  <line x1="35" y1="150.0" x2="40" y2="150.0" stroke="black" stroke-width="1" />
  <text x="10" y="155.0" font-size="10" fill="black">100</text>
  <line x1="40" y1="150.0" x2="380" y2="150.0" stroke="lightgray" stroke-width="1" stroke-dasharray="5, 5" />
  <line x1="45.333333333333336" y1="142.23985890652557" x2="45.333333333333336" y2="153.9304610733182" stroke="black" stroke-width="1" />
  <rect x="40.53333333333333" y="142.44142101284956" width="9.6" height="7.55857898715044" fill="green" />
  <line x1="56.0" y1="140.2242378432855" x2="56.0" y2="149.798437893676" stroke="black" stroke-width="1" />
  <rect x="51.199999999999996" y="142.23985890652557" width="9.6" height="6.651549508692426" fill="red" />
  <line x1="66.66666666666666" y1="147.48047367094983" x2="66.66666666666666" y2="152.4187452758881" stroke="black" stroke-width="1" />
  <rect x="61.86666666666666" y="147.48047367094983" width="9.6" height="2.5195263290501657" fill="green" />
  <line x1="77.33333333333333" y1="146.47266313932982" x2="77.33333333333333" y2="151.5117157974301" stroke="black" stroke-width="1" />
  <rect x="72.53333333333333" y="148.6898463088939" width="9.6" height="1" fill="red" />
  <line x1="87.99999999999999" y1="141.83673469387753" x2="87.99999999999999" y2="148.4882842025699" stroke="black" stroke-width="1" />
  <rect x="83.19999999999999" y="143.44923154446957" width="9.6" height="5.039052658100331" fill="green" />
  <line x1="98.66666666666666" y1="138.6117409926934" x2="98.66666666666666" y2="144.4570420760897" stroke="black" stroke-width="1" />
  <rect x="93.86666666666666" y="143.44923154446957" width="9.6" height="1.0078105316201231" fill="red" />
  <line x1="109.33333333333333" y1="124.30083144368848" x2="109.33333333333333" y2="138.8133030990174" stroke="black" stroke-width="1" />
  <rect x="104.53333333333333" y="130.9523809523809" width="9.6" height="4.837490551776341" fill="green" />
  <line x1="119.99999999999999" y1="126.92113882590075" x2="119.99999999999999" y2="137.20080624842524" stroke="black" stroke-width="1" />
  <rect x="115.19999999999999" y="129.7430083144368" width="9.6" height="1.0078105316201231" fill="green" />
  <line x1="130.66666666666666" y1="109.78835978835974" x2="130.66666666666666" y2="119.6649029982363" stroke="black" stroke-width="1" />
  <rect x="125.86666666666666" y="109.78835978835974" width="9.6" height="1" fill="green" />
  <line x1="141.33333333333334" y1="103.7414965986394" x2="141.33333333333334" y2="125.71176618795664" stroke="black" stroke-width="1" />
  <rect x="136.53333333333333" y="108.57898715041568" width="9.6" height="15.11715797430088" fill="red" />
  <line x1="152.0" y1="123.29302091206847" x2="152.0" y2="132.16175359032496" stroke="black" stroke-width="1" />
  <rect x="147.2" y="124.90551776266062" width="9.6" height="6.046863189720284" fill="red" />
  <line x1="162.66666666666666" y1="128.93675988914077" x2="162.66666666666666" y2="142.23985890652557" stroke="black" stroke-width="1" />
  <rect x="157.86666666666665" y="130.9523809523809" width="9.6" height="11.287477954144663" fill="red" />
  <line x1="173.33333333333334" y1="147.27891156462584" x2="173.33333333333334" y2="164.61325270849073" stroke="black" stroke-width="1" />
  <rect x="168.53333333333333" y="149.39531368102797" width="9.6" height="14.814814814814781" fill="red" />
  <line x1="184.0" y1="153.52733686067012" x2="184.0" y2="164.4116906021668" stroke="black" stroke-width="1" />
  <rect x="179.2" y="162.8999748047367" width="9.6" height="1.5117157974300994" fill="red" />
  <line x1="194.66666666666666" y1="165.01637692113877" x2="194.66666666666666" y2="182.8546233308138" stroke="black" stroke-width="1" />
  <rect x="189.86666666666665" y="165.01637692113877" width="9.6" height="16.93121693121691" fill="red" />
  <line x1="205.33333333333334" y1="174.69135802469134" x2="205.33333333333334" y2="186.18039808515994" stroke="black" stroke-width="1" />
  <rect x="200.53333333333333" y="179.73041068279156" width="9.6" height="6.449987402368379" fill="red" />
  <line x1="216.0" y1="182.35071806500378" x2="216.0" y2="192.22726127488033" stroke="black" stroke-width="1" />
  <rect x="211.2" y="185.57571176618796" width="9.6" height="6.651549508692369" fill="red" />
  <line x1="226.66666666666666" y1="186.88586545729396" x2="226.66666666666666" y2="230.22171831695636" stroke="black" stroke-width="1" />
  <rect x="221.86666666666665" y="190.5139833711262" width="9.6" height="35.87805492567401" fill="red" />
  <line x1="237.33333333333334" y1="221.35298563869992" x2="237.33333333333334" y2="237.47795414462075" stroke="black" stroke-width="1" />
  <rect x="232.53333333333333" y="223.46938775510205" width="9.6" height="12.39606953892661" fill="red" />
  <line x1="248.0" y1="225.6865709246661" x2="248.0" y2="238.28420256991683" stroke="black" stroke-width="1" />
  <rect x="243.2" y="227.50062988158226" width="9.6" height="8.364827412446402" fill="green" />
  <line x1="258.66666666666663" y1="221.25220458553792" x2="258.66666666666663" y2="228.91156462585036" stroke="black" stroke-width="1" />
  <rect x="253.86666666666665" y="222.15923406399594" width="9.6" height="6.147644242882336" fill="green" />
  <line x1="269.3333333333333" y1="217.22096245905766" x2="269.3333333333333" y2="222.36079617032" stroke="black" stroke-width="1" />
  <rect x="264.53333333333336" y="222.15923406399594" width="9.6" height="1" fill="red" />
  <line x1="279.99999999999994" y1="217.01940035273367" x2="279.99999999999994" y2="223.7717309145881" stroke="black" stroke-width="1" />
  <rect x="275.2" y="220.84908037288994" width="9.6" height="1" fill="red" />
  <line x1="290.66666666666663" y1="211.4764424288233" x2="290.66666666666663" y2="218.43033509700172" stroke="black" stroke-width="1" />
  <rect x="285.8666666666667" y="211.4764424288233" width="9.6" height="6.34920634920644" fill="green" />
  <line x1="301.3333333333333" y1="208.55379188712521" x2="301.3333333333333" y2="215.30612244897958" stroke="black" stroke-width="1" />
  <rect x="296.53333333333336" y="211.37566137566137" width="9.6" height="1.6124968505920947" fill="red" />
  <line x1="311.99999999999994" y1="210.0655076845553" x2="311.99999999999994" y2="227.39984882842026" stroke="black" stroke-width="1" />
  <rect x="307.2" y="210.97253716301333" width="9.6" height="7.760141093474488" fill="red" />
  <line x1="322.66666666666663" y1="208.15066767447712" x2="322.66666666666663" y2="215.60846560846556" stroke="black" stroke-width="1" />
  <rect x="317.8666666666667" y="212.8873771730914" width="9.6" height="2.519526329050109" fill="green" />
  <line x1="333.3333333333333" y1="212.0811287477954" x2="333.3333333333333" y2="220.74829931972783" stroke="black" stroke-width="1" />
  <rect x="328.53333333333336" y="212.28269085411944" width="9.6" height="5.8453010833962935" fill="red" />
  <line x1="343.99999999999994" y1="212.98815822625346" x2="343.99999999999994" y2="225.7873519778281" stroke="black" stroke-width="1" />
  <rect x="339.2" y="214.39909297052156" width="9.6" height="3.023431594860085" fill="green" />
  <line x1="354.66666666666663" y1="202.50692869740493" x2="354.66666666666663" y2="212.7865961199294" stroke="black" stroke-width="1" />
  <rect x="349.8666666666667" y="203.4139581758629" width="9.6" height="9.372637944066526" fill="green" />
</svg>