<svg width="400" height="300" xmlns="http://www.w3.org/2000/svg">
  <line x1="40" y1="250" x2="40" y2="50" stroke="black" stroke-width="2" />
  <line x1="35" y1="250.0" x2="40" y2="250.0" stroke="black" stroke-width="1" />
  <text x="10" y="255.0" font-size="10" fill="black">75</text>
  <line x1="40" y1="250.0" x2="380" y2="250.0" stroke="lightgray" stroke-width="1" stroke-dasharray="5, 5" />
  <line x1="35" y1="210.0" x2="40" y2="210.0" stroke="black" stroke-width="1" />
  <text x="10" y="215.0" font-size="10" fill="black">85</text>
  <line x1="40" y1="210.0" x2="380" y2="210.0" stroke="lightgray" stroke-width="1" stroke-dasharray="5, 5" />
  <line x1="35" y1="170.0" x2="40" y2="170.0" stroke="black" stroke-width="1" />
  <text x="10" y="175.0" font-size="10" fill="black">95</text>
  <line x1="40" y1="170.0" x2="380" y2="170.0" stroke="lightgray" stroke-width="1" stroke-dasharray="5, 5" />
  <line x1="35" y1="130.0" x2="40" y2="130.0" stroke="black" stroke-width="1" />
  <text x="10" y="135.0" font-size="10" fill="black">105</text>
  <line x1="40" y1="130.0" x2="380" y2="130.0" stroke="lightgray" stroke-width="1" stroke-dasharray="5, 5" />
  <line x1="35" y1="90.0" x2="40" y2="90.0" stroke="black" stroke-width="1" />
  <text x="10" y="95.0" font-size="10" fill="black">115</text>
  <line x1="40" y1="90.0" x2="380" y2="90.0" stroke="lightgray" stroke-width="1" stroke-dasharray="5, 5" />
  <line x1="35" y1="50.0" x2="40" y2="50.0" stroke="black" stroke-width="1" />
  <text x="10" y="55.0" font-size="10" fill="black">125</text>
  <line x1="40" y1="50.0" x2="380" y2="50.0" stroke="lightgray" stroke-width="1" stroke-dasharray="5, 5" />
  <line x1="35" y1="150.0" x2="40" y2="150.0" stroke="black" stroke-width="1" />
  <text x="10" y="155.0" font-size="10" fill="black">100</text>
  <line x1="40" y1="150.0" x2="380" y2="150.0" stroke="lightgray" stroke-width="1" stroke-dasharray="5, 5" />
  <line x1="45.333333333333336" y1="143.5467487265285" x2="45.333333333333336" y2="152.431919692873" stroke="black" stroke-width="1" />
  <rect x="40.53333333333333" y="147.22749204547148" width="9.6" height="2.772507954528521" fill="green" />
  <line x1="56.0" y1="138.40207340573318" x2="56.0" y2="147.92061903410365" stroke="black" stroke-width="1" />
  <rect x="51.199999999999996" y="138.5873056182125" width="9.6" height="8.640186427258982" fill="green" />
  <line x1="66.66666666666666" y1="124.96377515199492" x2="66.66666666666666" y2="138.75759974904025" stroke="black" stroke-width="1" />
  <rect x="61.86666666666666" y="132.60609772493018" width="9.6" height="5.78402521548179" fill="green" />
  <line x1="77.33333333333333" y1="131.13619049041716" x2="77.33333333333333" y2="136.88436430993522" stroke="black" stroke-width="1" />
  <rect x="72.53333333333333" y="133.45458076273837" width="9.6" height="1" fill="green" />
  <line x1="87.99999999999999" y1="130.83742885738616" x2="87.99999999999999" y2="139.9556338974948" stroke="black" stroke-width="1" />
  <rect x="83.19999999999999" y="137.11142315103888" width="9.6" height="1.2189474627668346" fill="red" />
  <line x1="98.66666666666666" y1="134.08198019210369" x2="98.66666666666666" y2="144.50278595222795" stroke="black" stroke-width="1" />
  <rect x="93.86666666666666" y="135.24117532826432" width="9.6" height="4.421672168860027" fill="red" />
  <line x1="109.33333333333333" y1="137.35640769012434" x2="109.33333333333333" y2="142.70567497721942" stroke="black" stroke-width="1" />
  <rect x="104.53333333333333" y="138.6410827121581" width="9.6" height="1" fill="green" />
  <line x1="119.99999999999999" y1="127.0192551872488" x2="119.99999999999999" y2="139.5493180765726" stroke="black" stroke-width="1" />
  <rect x="115.19999999999999" y="134.29111333522548" width="9.6" height="4.296192282987022" fill="green" />
  <line x1="130.66666666666666" y1="133.72346623246642" x2="130.66666666666666" y2="145.41699654930306" stroke="black" stroke-width="1" />
  <rect x="125.86666666666666" y="134.2253857759586" width="9.6" height="7.1643039600854195" fill="red" />
  <line x1="141.33333333333334" y1="131.85321840969186" x2="141.33333333333334" y2="140.0572128527254" stroke="black" stroke-width="1" />
  <rect x="136.53333333333333" y="136.2270887172669" width="9.6" height="1.4818576998341655" fill="green" />
  <line x1="152.0" y1="130.6223204816037" x2="152.0" y2="138.8083892266555" stroke="black" stroke-width="1" />
  <rect x="147.2" y="130.92705734729543" width="9.6" height="1" fill="green" />
  <line x1="162.66666666666666" y1="129.4272739494794" x2="162.66666666666666" y2="149.05591323962176" stroke="black" stroke-width="1" />
  <rect x="157.86666666666665" y="131.6739614298731" width="9.6" height="14.806626533020676" fill="red" />
  <line x1="173.33333333333334" y1="140.9056958905337" x2="173.33333333333334" y2="147.83099054419432" stroke="black" stroke-width="1" />
  <rect x="168.53333333333333" y="143.87538652286275" width="9.6" height="3.8062232048160354" fill="green" />
  <line x1="184.0" y1="139.3162840028084" x2="184.0" y2="148.5480184634689" stroke="black" stroke-width="1" />
  <rect x="179.2" y="141.52114485457776" width="9.6" height="6.262043828331514" fill="green" />
  <line x1="194.66666666666666" y1="141.80090524774806" x2="194.66666666666666" y2="154.23643995638076" stroke="black" stroke-width="1" />
  <rect x="189.86666666666665" y="142.57278580284714" width="9.6" height="9.614149350940409" fill="red" />
  <line x1="205.33333333333334" y1="141.59284764650522" x2="205.33333333333334" y2="148.38071194897145" stroke="black" stroke-width="1" />
  <rect x="200.53333333333333" y="146.42083563628756" width="9.6" height="1" fill="green" />
  <line x1="216.0" y1="143.3317001030727" x2="216.0" y2="152.16602183947538" stroke="black" stroke-width="1" />
  <rect x="211.2" y="145.55442690049745" width="9.6" height="1.941950614702023" fill="red" />
  <line x1="226.66666666666666" y1="141.90953497751815" x2="226.66666666666666" y2="155.15662578611654" stroke="black" stroke-width="1" />
  <rect x="221.86666666666665" y="142.8058198766114" width="9.6" height="2.396068296909334" fill="green" />
  <line x1="237.33333333333334" y1="134.79303287871767" x2="237.33333333333334" y2="142.36962789238595" stroke="black" stroke-width="1" />
  <rect x="232.53333333333333" y="139.62102086850007" width="9.6" height="1.1233437401969013" fill="green" />
  <line x1="248.0" y1="131.9488221322618" x2="248.0" y2="143.68417907772277" stroke="black" stroke-width="1" />
  <rect x="243.2" y="133.49043215870216" width="9.6" height="10.187771686360065" fill="green" />
  <line x1="258.66666666666663" y1="129.9291934929716" x2="258.66666666666663" y2="138.52659725438048" stroke="black" stroke-width="1" />
  <rect x="253.86666666666665" y="131.73371375647935" width="9.6" height="2.091331431217668" fill="red" />
  <line x1="269.3333333333333" y1="127.174611236425" x2="269.3333333333333" y2="132.70767668016072" stroke="black" stroke-width="1" />
  <rect x="264.53333333333336" y="127.60482798798972" width="9.6" height="3.638916690318638" fill="green" />
  <line x1="279.99999999999994" y1="127.22241309770999" x2="279.99999999999994" y2="138.90399294922543" stroke="black" stroke-width="1" />
  <rect x="275.2" y="127.22241309770999" width="9.6" height="10.205697384341818" fill="red" />
  <line x1="290.66666666666663" y1="122.37649940994578" x2="290.66666666666663" y2="134.5002464783472" stroke="black" stroke-width="1" />
  <rect x="285.8666666666667" y="128.7460974261685" width="9.6" height="1" fill="red" />
  <line x1="301.3333333333333" y1="127.7463214973933" x2="301.3333333333333" y2="133.9385746082488" stroke="black" stroke-width="1" />
  <rect x="296.53333333333336" y="128.41745962983435" width="9.6" height="2.700805162601" fill="red" />
  <line x1="311.99999999999994" y1="124.41411349954433" x2="311.99999999999994" y2="132.2356332999716" stroke="black" stroke-width="1" />
  <rect x="307.2" y="128.5250138177255" width="9.6" height="1.7806193328652853" fill="green" />
  <line x1="322.66666666666663" y1="118.32529166604422" x2="322.66666666666663" y2="129.07473522250268" stroke="black" stroke-width="1" />
  <rect x="317.8666666666667" y="118.43284585393536" width="9.6" height="9.342276264882116" fill="green" />
  <line x1="333.3333333333333" y1="116.7239293129976" x2="333.3333333333333" y2="122.04786161361153" stroke="black" stroke-width="1" />
  <rect x="328.53333333333336" y="118.85111214017894" width="9.6" height="1" fill="green" />
  <line x1="343.99999999999994" y1="116.64027605574887" x2="343.99999999999994" y2="130.70597373885244" stroke="black" stroke-width="1" />
  <rect x="339.2" y="116.9569633867618" width="9.6" height="7.9470594386269795" fill="red" />
  <line x1="354.66666666666663" y1="125.33423957695345" x2="354.66666666666663" y2="130.98627190296213" stroke="black" stroke-width="1" />
  <rect x="349.8666666666667" y="126.73841925219955" width="9.6" height="1" fill="red" />
</svg>