<svg width="400" height="300" xmlns="http://www.w3.org/2000/svg">
  <line x1="40" y1="250" x2="40" y2="50" stroke="black" stroke-width="2" />
  <line x1="35" y1="250.0" x2="40" y2="250.0" stroke="black" stroke-width="1" />
  <text x="10" y="255.0" font-size="10" fill="black">75</text>
  <line x1="40" y1="250.0" x2="380" y2="250.0" stroke="lightgray" stroke-width="1" stroke-dasharray="5, 5" />
  <line x1="35" y1="210.0" x2="40" y2="210.0" stroke="black" stroke-width="1" />
  <text x="10" y="215.0" font-size="10" fill="black">85</text>
  <line x1="40" y1="210.0" x2="380" y2="210.0" stroke="lightgray" stroke-width="1" stroke-dasharray="5, 5" />
  <line x1="35" y1="170.0" x2="40" y2="170.0" stroke="black" stroke-width="1" />
  <text x="10" y="175.0" font-size="10" fill="black">95</text>
  <line x1="40" y1="170.0" x2="380" y2="170.0" stroke="lightgray" stroke-width="1" stroke-dasharray="5, 5" />
  <line x1="35" y1="130.0" x2="40" y2="130.0" stroke="black" stroke-width="1" />
  <text x="10" y="135.0" font-size="10" fill="black">105</text>
  <line x1="40" y1="130.0" x2="380" y2="130.0" stroke="lightgray" stroke-width="1" stroke-dasharray="5, 5" />
  <line x1="35" y1="90.0" x2="40" y2="90.0" stroke="black" stroke-width="1" />
  <text x="10" y="95.0" font-size="10" fill="black">115</text>
  <line x1="40" y1="90.0" x2="380" y2="90.0" stroke="lightgray" stroke-width="1" stroke-dasharray="5, 5" />
  <line x1="35" y1="50.0" x2="40" y2="50.0" stroke="black" stroke-width="1" />
  <text x="10" y="55.0" font-size="10" fill="black">125</text>
  <line x1="40" y1="50.0" x2="380" y2="50.0" stroke="lightgray" stroke-width="1" stroke-dasharray="5, 5" />
  <line x1="35" y1="150.0" x2="40" y2="150.0" stroke="black" stroke-width="1" />
  <text x="10" y="155.0" font-size="10" fill="black">100</text>
  <line x1="40" y1="150.0" x2="380" y2="150.0" stroke="lightgray" stroke-width="1" stroke-dasharray="5, 5" />
  <line x1="45.333333333333336" y1="141.25000000000006" x2="45.333333333333336" y2="150.54347826086962" stroke="black" stroke-width="1" />
  <rect x="40.53333333333333" y="143.47826086956525" width="9.6" height="6.521739130434753" fill="green" />
  <line x1="56.0" y1="138.26086956521743" x2="56.0" y2="143.31521739130437" stroke="black" stroke-width="1" />
  <rect x="51.199999999999996" y="140.5978260869565" width="9.6" height="2.500000000000057" fill="red" />
  <line x1="66.66666666666666" y1="142.2826086956522" x2="66.66666666666666" y2="147.1195652173913" stroke="black" stroke-width="1" />
  <rect x="61.86666666666666" y="142.66304347826082" width="9.6" height="2.282608695652243" fill="red" />
  <line x1="77.33333333333333" y1="144.07608695652175" x2="77.33333333333333" y2="148.695652173913" stroke="black" stroke-width="1" />
  <rect x="72.53333333333333" y="144.56521739130437" width="9.6" height="1" fill="green" />
  <line x1="87.99999999999999" y1="140.76086956521738" x2="87.99999999999999" y2="145.86956521739137" stroke="black" stroke-width="1" />
  <rect x="83.19999999999999" y="142.44565217391312" width="9.6" height="2.499999999999943" fill="green" />
  <line x1="98.66666666666666" y1="141.57608695652175" x2="98.66666666666666" y2="145.5978260869565" stroke="black" stroke-width="1" />
  <rect x="93.86666666666666" y="143.0434782608695" width="9.6" height="1" fill="red" />
  <line x1="109.33333333333333" y1="136.79347826086962" x2="109.33333333333333" y2="144.07608695652175" stroke="black" stroke-width="1" />
  <rect x="104.53333333333333" y="140.76086956521738" width="9.6" height="2.3369565217391823" fill="green" />
  <line x1="119.99999999999999" y1="136.9565217391305" x2="119.99999999999999" y2="142.01086956521738" stroke="black" stroke-width="1" />
  <rect x="115.19999999999999" y="138.26086956521743" width="9.6" height="3.695652173913004" fill="green" />
  <line x1="130.66666666666666" y1="102.66304347826087" x2="130.66666666666666" y2="139.83695652173918" stroke="black" stroke-width="1" />
  <rect x="125.86666666666666" y="117.39130434782606" width="9.6" height="20.978260869565304" fill="green" />
  <line x1="141.33333333333334" y1="114.1304347826088" x2="141.33333333333334" y2="122.98913043478262" stroke="black" stroke-width="1" />
  <rect x="136.53333333333333" y="117.60869565217388" width="9.6" height="1.9021739130435549" fill="green" />
  <line x1="152.0" y1="115.92391304347825" x2="152.0" y2="121.304347826087" stroke="black" stroke-width="1" />
  <rect x="147.2" y="116.03260869565213" width="9.6" height="2.989130434782737" fill="green" />
  <line x1="162.66666666666666" y1="112.98913043478257" x2="162.66666666666666" y2="119.67391304347831" stroke="black" stroke-width="1" />
  <rect x="157.86666666666665" y="117.06521739130437" width="9.6" height="1" fill="red" />
  <line x1="173.33333333333334" y1="117.71739130434787" x2="173.33333333333334" y2="123.42391304347825" stroke="black" stroke-width="1" />
  <rect x="168.53333333333333" y="120.86956521739137" width="9.6" height="1.4673913043478137" fill="green" />
  <line x1="184.0" y1="118.69565217391306" x2="184.0" y2="123.85869565217388" stroke="black" stroke-width="1" />
  <rect x="179.2" y="122.60869565217394" width="9.6" height="1" fill="red" />
  <line x1="194.66666666666666" y1="125.97826086956525" x2="194.66666666666666" y2="132.11956521739137" stroke="black" stroke-width="1" />
  <rect x="189.86666666666665" y="126.08695652173918" width="9.6" height="5.8152173913043725" fill="red" />
  <line x1="205.33333333333334" y1="129.0217391304348" x2="205.33333333333334" y2="132.60869565217394" stroke="black" stroke-width="1" />
  <rect x="200.53333333333333" y="130.43478260869568" width="9.6" height="1.4673913043478706" fill="green" />
  <line x1="216.0" y1="129.51086956521738" x2="216.0" y2="136.9565217391305" stroke="black" stroke-width="1" />
  <rect x="211.2" y="131.9565217391305" width="9.6" height="2.9891304347826235" fill="red" />
  <line x1="226.66666666666666" y1="135.16304347826093" x2="226.66666666666666" y2="142.33695652173913" stroke="black" stroke-width="1" />
  <rect x="221.86666666666665" y="135.76086956521738" width="9.6" height="4.510869565217433" fill="red" />
  <line x1="237.33333333333334" y1="132.60869565217394" x2="237.33333333333334" y2="141.08695652173913" stroke="black" stroke-width="1" />
  <rect x="232.53333333333333" y="139.1304347826087" width="9.6" height="1" fill="red" />
  <line x1="248.0" y1="135.6521739130435" x2="248.0" y2="140.3804347826087" stroke="black" stroke-width="1" />
  <rect x="243.2" y="137.8260869565218" width="9.6" height="1" fill="red" />
  <line x1="258.66666666666663" y1="132.7173913043478" x2="258.66666666666663" y2="140.92391304347825" stroke="black" stroke-width="1" />
  <rect x="253.86666666666665" y="137.2826086956522" width="9.6" height="3.6413043478260647" fill="green" />
  <line x1="269.3333333333333" y1="134.83695652173913" x2="269.3333333333333" y2="139.1304347826087" stroke="black" stroke-width="1" />
  <rect x="264.53333333333336" y="137.1195652173913" width="9.6" height="1" fill="green" />
  <line x1="279.99999999999994" y1="136.68478260869563" x2="279.99999999999994" y2="141.35869565217394" stroke="black" stroke-width="1" />
  <rect x="275.2" y="137.1195652173913" width="9.6" height="1.9565217391304373" fill="red" />
  <line x1="290.66666666666663" y1="135.21739130434787" x2="290.66666666666663" y2="140.5978260869565" stroke="black" stroke-width="1" />
  <rect x="285.8666666666667" y="135.32608695652175" width="9.6" height="1" fill="green" />
  <line x1="301.3333333333333" y1="133.85869565217394" x2="301.3333333333333" y2="139.6739130434783" stroke="black" stroke-width="1" />
  <rect x="296.53333333333336" y="135.32608695652175" width="9.6" height="1" fill="red" />
  <line x1="311.99999999999994" y1="129.945652173913" x2="311.99999999999994" y2="135.70652173913044" stroke="black" stroke-width="1" />
  <rect x="307.2" y="131.46739130434793" width="9.6" height="2.2826086956521294" fill="green" />
  <line x1="322.66666666666663" y1="124.83695652173913" x2="322.66666666666663" y2="130.48913043478262" stroke="black" stroke-width="1" />
  <rect x="317.8666666666667" y="125.16304347826087" width="9.6" height="4.72826086956519" fill="green" />
  <line x1="333.3333333333333" y1="121.14130434782612" x2="333.3333333333333" y2="126.52173913043481" stroke="black" stroke-width="1" />
  <rect x="328.53333333333336" y="122.39130434782606" width="9.6" height="3.152173913043555" fill="green" />
  <line x1="343.99999999999994" y1="118.47826086956525" x2="343.99999999999994" y2="122.50000000000006" stroke="black" stroke-width="1" />
  <rect x="339.2" y="120.65217391304344" width="9.6" height="1" fill="red" />
  <line x1="354.66666666666663" y1="119.56521739130437" x2="354.66666666666663" y2="125.81521739130437" stroke="black" stroke-width="1" />
  <rect x="349.8666666666667" y="121.35869565217394" width="9.6" height="1.4673913043478137" fill="green" />
</svg>