<svg width="400" height="300" xmlns="http://www.w3.org/2000/svg">
  <line x1="40" y1="250" x2="40" y2="50" stroke="black" stroke-width="2" />
  <line x1="35" y1="250.0" x2="40" y2="250.0" stroke="black" stroke-width="1" />
  <text x="10" y="255.0" font-size="10" fill="black">75</text>
  <line x1="40" y1="250.0" x2="380" y2="250.0" stroke="lightgray" stroke-width="1" stroke-dasharray="5, 5" />
  <line x1="35" y1="210.0" x2="40" y2="210.0" stroke="black" stroke-width="1" />
  <text x="10" y="215.0" font-size="10" fill="black">85</text>
  <line x1="40" y1="210.0" x2="380" y2="210.0" stroke="lightgray" stroke-width="1" stroke-dasharray="5, 5" />
  <line x1="35" y1="170.0" x2="40" y2="170.0" stroke="black" stroke-width="1" />
  <text x="10" y="175.0" font-size="10" fill="black">95</text>
  <line x1="40" y1="170.0" x2="380" y2="170.0" stroke="lightgray" stroke-width="1" stroke-dasharray="5, 5" />
  <line x1="35" y1="130.0" x2="40" y2="130.0" stroke="black" stroke-width="1" />
  <text x="10" y="135.0" font-size="10" fill="black">105</text>
  <line x1="40" y1="130.0" x2="380" y2="130.0" stroke="lightgray" stroke-width="1" stroke-dasharray="5, 5" />
  <line x1="35" y1="90.0" x2="40" y2="90.0" stroke="black" stroke-width="1" />
  <text x="10" y="95.0" font-size="10" fill="black">115</text>
  <line x1="40" y1="90.0" x2="380" y2="90.0" stroke="lightgray" stroke-width="1" stroke-dasharray="5, 5" />
  <line x1="35" y1="50.0" x2="40" y2="50.0" stroke="black" stroke-width="1" />
  <text x="10" y="55.0" font-size="10" fill="black">125</text>
  <line x1="40" y1="50.0" x2="380" y2="50.0" stroke="lightgray" stroke-width="1" stroke-dasharray="5, 5" />
  <line x1="35" y1="150.0" x2="40" y2="150.0" stroke="black" stroke-width="1" />
  <text x="10" y="155.0" font-size="10" fill="black">100</text>
  <line x1="40" y1="150.0" x2="380" y2="150.0" stroke="lightgray" stroke-width="1" stroke-dasharray="5, 5" />
  <line x1="45.333333333333336" y1="143.99661099007506" x2="45.333333333333336" y2="150.48414427499392" stroke="black" stroke-width="1" />
  <rect x="40.53333333333333" y="143.99661099007506" width="9.6" height="6.003389009924945" fill="green" />
  <line x1="56.0" y1="142.83466473008957" x2="56.0" y2="148.54756717501817" stroke="black" stroke-width="1" />
  <rect x="51.199999999999996" y="143.31880900508355" width="9.6" height="4.454127329944356" fill="red" />
  <line x1="66.66666666666666" y1="143.2219801500848" x2="66.66666666666666" y2="148.160251755023" stroke="black" stroke-width="1" />
  <rect x="61.86666666666666" y="143.2219801500848" width="9.6" height="2.2270636649720927" fill="green" />
  <line x1="77.33333333333333" y1="138.961510530138" x2="77.33333333333333" y2="144.86807068506414" stroke="black" stroke-width="1" />
  <rect x="72.53333333333333" y="139.05833938513678" width="9.6" height="4.163640764948013" fill="green" />
  <line x1="87.99999999999999" y1="136.0566448801743" x2="87.99999999999999" y2="140.31711450012108" stroke="black" stroke-width="1" />
  <rect x="83.19999999999999" y="136.0566448801743" width="9.6" height="3.389009924957577" fill="green" />
  <line x1="98.66666666666666" y1="128.21350762527237" x2="98.66666666666666" y2="137.5090777051562" stroke="black" stroke-width="1" />
  <rect x="93.86666666666666" y="132.47397724521903" width="9.6" height="3.5826676349552713" fill="green" />
  <line x1="109.33333333333333" y1="127.92302106027603" x2="109.33333333333333" y2="133.2486080852094" stroke="black" stroke-width="1" />
  <rect x="104.53333333333333" y="132.1834906802227" width="9.6" height="1.0651174049867222" fill="red" />
  <line x1="119.99999999999999" y1="129.85959816025172" x2="119.99999999999999" y2="138.38053740014527" stroke="black" stroke-width="1" />
  <rect x="115.19999999999999" y="131.50568869523119" width="9.6" height="1.4524328249818268" fill="red" />
  <line x1="130.66666666666666" y1="132.1834906802227" x2="130.66666666666666" y2="139.54248366013076" stroke="black" stroke-width="1" />
  <rect x="125.86666666666666" y="133.63592350520463" width="9.6" height="4.841442749939404" fill="red" />
  <line x1="141.33333333333334" y1="131.50568869523119" x2="141.33333333333334" y2="138.1868796901477" stroke="black" stroke-width="1" />
  <rect x="136.53333333333333" y="134.89469862018888" width="9.6" height="2.8080367949648917" fill="green" />
  <line x1="152.0" y1="125.59912854030506" x2="152.0" y2="136.83127572016457" stroke="black" stroke-width="1" />
  <rect x="147.2" y="127.63253449527963" width="9.6" height="6.487533284918868" fill="green" />
  <line x1="162.66666666666666" y1="123.27523602033403" x2="162.66666666666666" y2="133.34543694020817" stroke="black" stroke-width="1" />
  <rect x="157.86666666666665" y="127.05156136528683" width="9.6" height="3.098523359961291" fill="red" />
  <line x1="173.33333333333334" y1="133.44226579520705" x2="173.33333333333334" y2="138.38053740014527" stroke="black" stroke-width="1" />
  <rect x="168.53333333333333" y="134.79786976519" width="9.6" height="1.6460905349794643" fill="red" />
  <line x1="184.0" y1="135.37884289518274" x2="184.0" y2="143.80295328007742" stroke="black" stroke-width="1" />
  <rect x="179.2" y="136.44396030016946" width="9.6" height="1.0651174049867222" fill="red" />
  <line x1="194.66666666666666" y1="135.57250060518032" x2="194.66666666666666" y2="145.25538610505936" stroke="black" stroke-width="1" />
  <rect x="189.86666666666665" y="136.0566448801743" width="9.6" height="8.230452674897094" fill="red" />
  <line x1="205.33333333333334" y1="138.38053740014527" x2="205.33333333333334" y2="143.80295328007742" stroke="black" stroke-width="1" />
  <rect x="200.53333333333333" y="138.76785282014043" width="9.6" height="5.035100459936984" fill="green" />
  <line x1="216.0" y1="136.0566448801743" x2="216.0" y2="149.03171145001215" stroke="black" stroke-width="1" />
  <rect x="211.2" y="138.76785282014043" width="9.6" height="5.422415879932203" fill="red" />
  <line x1="226.66666666666666" y1="141.57588961510532" x2="226.66666666666666" y2="148.4507383200194" stroke="black" stroke-width="1" />
  <rect x="221.86666666666665" y="144.19026870007264" width="9.6" height="3.5826676349552713" fill="red" />
  <line x1="237.33333333333334" y1="141.1885741951101" x2="237.33333333333334" y2="152.9048656499637" stroke="black" stroke-width="1" />
  <rect x="232.53333333333333" y="146.61099007504237" width="9.6" height="5.131929314935803" fill="red" />
  <line x1="248.0" y1="141.6727184701042" x2="248.0" y2="150.58097312999274" stroke="black" stroke-width="1" />
  <rect x="243.2" y="144.2870975550714" width="9.6" height="6.293875574921344" fill="green" />
  <line x1="258.66666666666663" y1="143.02832244008715" x2="258.66666666666663" y2="147.86976519002667" stroke="black" stroke-width="1" />
  <rect x="253.86666666666665" y="144.2870975550714" width="9.6" height="3.2921810699589287" fill="red" />
  <line x1="269.3333333333333" y1="141.38223190510774" x2="269.3333333333333" y2="147.86976519002667" stroke="black" stroke-width="1" />
  <rect x="264.53333333333336" y="142.44734931009447" width="9.6" height="4.550956184943118" fill="green" />
  <line x1="279.99999999999994" y1="133.63592350520463" x2="279.99999999999994" y2="142.15686274509807" stroke="black" stroke-width="1" />
  <rect x="275.2" y="133.63592350520463" width="9.6" height="3.0016945049624155" fill="red" />
  <line x1="290.66666666666663" y1="125.59912854030506" x2="290.66666666666663" y2="135.28201404018398" stroke="black" stroke-width="1" />
  <rect x="285.8666666666667" y="131.11837327523608" width="9.6" height="4.1636407649479" fill="green" />
  <line x1="301.3333333333333" y1="131.11837327523608" x2="301.3333333333333" y2="139.05833938513678" stroke="black" stroke-width="1" />
  <rect x="296.53333333333336" y="131.21520213023484" width="9.6" height="6.003389009924945" fill="red" />
  <line x1="311.99999999999994" y1="135.37884289518274" x2="311.99999999999994" y2="140.41394335511984" stroke="black" stroke-width="1" />
  <rect x="307.2" y="137.0249334301622" width="9.6" height="3.3890099249576338" fill="red" />
  <line x1="322.66666666666663" y1="131.79617526022759" x2="322.66666666666663" y2="137.31541999515866" stroke="black" stroke-width="1" />
  <rect x="317.8666666666667" y="133.15177923021065" width="9.6" height="4.163640764948013" fill="green" />
  <line x1="333.3333333333333" y1="130.44057129024446" x2="333.3333333333333" y2="134.60421205519248" stroke="black" stroke-width="1" />
  <rect x="328.53333333333336" y="132.8612926652143" width="9.6" height="1" fill="green" />
  <line x1="343.99999999999994" y1="125.21181312030996" x2="343.99999999999994" y2="131.60251755023006" stroke="black" stroke-width="1" />
  <rect x="339.2" y="128.6976519002663" width="9.6" height="2.8080367949648917" fill="green" />
  <line x1="354.66666666666663" y1="117.36867586540791" x2="354.66666666666663" y2="127.92302106027603" stroke="black" stroke-width="1" />
  <rect x="349.8666666666667" y="121.82280319535221" width="9.6" height="6.10021786492382" fill="green" />
</svg>