<svg width="400" height="300" xmlns="http://www.w3.org/2000/svg">
  <line x1="40" y1="250" x2="40" y2="50" stroke="black" stroke-width="2" />
  <line x1="35" y1="250.0" x2="40" y2="250.0" stroke="black" stroke-width="1" />
  <text x="10" y="255.0" font-size="10" fill="black">75</text>
  <line x1="40" y1="250.0" x2="380" y2="250.0" stroke="lightgray" stroke-width="1" stroke-dasharray="5, 5" />
  <line x1="35" y1="210.0" x2="40" y2="210.0" stroke="black" stroke-width="1" />
  <text x="10" y="215.0" font-size="10" fill="black">85</text>
  <line x1="40" y1="210.0" x2="380" y2="210.0" stroke="lightgray" stroke-width="1" stroke-dasharray="5, 5" />
  <line x1="35" y1="170.0" x2="40" y2="170.0" stroke="black" stroke-width="1" />
  <text x="10" y="175.0" font-size="10" fill="black">95</text>
  <line x1="40" y1="170.0" x2="380" y2="170.0" stroke="lightgray" stroke-width="1" stroke-dasharray="5, 5" />
  <line x1="35" y1="130.0" x2="40" y2="130.0" stroke="black" stroke-width="1" />
  <text x="10" y="135.0" font-size="10" fill="black">105</text>
  <line x1="40" y1="130.0" x2="380" y2="130.0" stroke="lightgray" stroke-width="1" stroke-dasharray="5, 5" />
  <line x1="35" y1="90.0" x2="40" y2="90.0" stroke="black" stroke-width="1" />
  <text x="10" y="95.0" font-size="10" fill="black">115</text>
  <line x1="40" y1="90.0" x2="380" y2="90.0" stroke="lightgray" stroke-width="1" stroke-dasharray="5, 5" />
  <line x1="35" y1="50.0" x2="40" y2="50.0" stroke="black" stroke-width="1" />
  <text x="10" y="55.0" font-size="10" fill="black">125</text>
  <line x1="40" y1="50.0" x2="380" y2="50.0" stroke="lightgray" stroke-width="1" stroke-dasharray="5, 5" />
  <line x1="35" y1="150.0" x2="40" y2="150.0" stroke="black" stroke-width="1" />
  <text x="10" y="155.0" font-size="10" fill="black">100</text>
  <line x1="40" y1="150.0" x2="380" y2="150.0" stroke="lightgray" stroke-width="1" stroke-dasharray="5, 5" />
  <line x1="45.333333333333336" y1="142.93937068303916" x2="45.333333333333336" y2="150.0" stroke="black" stroke-width="1" />
  <rect x="40.53333333333333" y="142.93937068303916" width="9.6" height="7.060629316960842" fill="green" />
  <line x1="56.0" y1="144.47429009976986" x2="56.0" y2="144.47429009976986" stroke="black" stroke-width="1" />
  <rect x="51.199999999999996" y="144.47429009976986" width="9.6" height="1" fill="red" />
  <line x1="66.66666666666666" y1="137.4136607828089" x2="66.66666666666666" y2="146.00920951650045" stroke="black" stroke-width="1" />
  <rect x="61.86666666666666" y="137.4136607828089" width="9.6" height="8.595548733691544" fill="green" />
  <line x1="77.33333333333333" y1="135.87874136607832" x2="77.33333333333333" y2="140.17651573292403" stroke="black" stroke-width="1" />
  <rect x="72.53333333333333" y="139.86953184957792" width="9.6" height="1" fill="red" />
  <line x1="87.99999999999999" y1="141.09746738296246" x2="87.99999999999999" y2="141.09746738296246" stroke="black" stroke-width="1" />
  <rect x="83.19999999999999" y="141.09746738296246" width="9.6" height="1" fill="red" />
  <line x1="98.66666666666666" y1="126.36224098234845" x2="98.66666666666666" y2="133.42287029930935" stroke="black" stroke-width="1" />
  <rect x="93.86666666666666" y="126.36224098234845" width="9.6" height="7.060629316960899" fill="green" />
  <line x1="109.33333333333333" y1="130.04604758250196" x2="109.33333333333333" y2="133.42287029930935" stroke="black" stroke-width="1" />
  <rect x="104.53333333333333" y="130.04604758250196" width="9.6" height="1.5349194167305882" fill="green" />
  <line x1="119.99999999999999" y1="129.73906369915585" x2="119.99999999999999" y2="137.4136607828089" stroke="black" stroke-width="1" />
  <rect x="115.19999999999999" y="129.73906369915585" width="9.6" height="7.674597083653055" fill="red" />
  <line x1="130.66666666666666" y1="137.72064466615507" x2="130.66666666666666" y2="139.25556408288566" stroke="black" stroke-width="1" />
  <rect x="125.86666666666666" y="137.72064466615507" width="9.6" height="1" fill="red" />
  <line x1="141.33333333333334" y1="126.97620874904072" x2="141.33333333333334" y2="134.65080583269378" stroke="black" stroke-width="1" />
  <rect x="136.53333333333333" y="129.73906369915585" width="9.6" height="4.911742133537928" fill="green" />
  <line x1="152.0" y1="130.66001534919423" x2="152.0" y2="133.11588641596313" stroke="black" stroke-width="1" />
  <rect x="147.2" y="130.66001534919423" width="9.6" height="2.455871066768907" fill="green" />
  <line x1="162.66666666666666" y1="129.4320798158097" x2="162.66666666666666" y2="131.88795088257876" stroke="black" stroke-width="1" />
  <rect x="157.86666666666665" y="131.58096699923254" width="9.6" height="1" fill="red" />
  <line x1="173.33333333333334" y1="140.7904834996163" x2="173.33333333333334" y2="144.7812739831159" stroke="black" stroke-width="1" />
  <rect x="168.53333333333333" y="144.7812739831159" width="9.6" height="1" fill="red" />
  <line x1="184.0" y1="135.26477359938605" x2="184.0" y2="144.1673062164237" stroke="black" stroke-width="1" />
  <rect x="179.2" y="137.4136607828089" width="9.6" height="6.753645433614793" fill="green" />
  <line x1="194.66666666666666" y1="134.65080583269378" x2="194.66666666666666" y2="134.65080583269378" stroke="black" stroke-width="1" />
  <rect x="189.86666666666665" y="134.65080583269378" width="9.6" height="1" fill="red" />
  <line x1="205.33333333333334" y1="138.33461243284734" x2="205.33333333333334" y2="150.92095165003843" stroke="black" stroke-width="1" />
  <rect x="200.53333333333333" y="138.64159631619344" width="9.6" height="12.27935533384499" fill="red" />
  <line x1="216.0" y1="144.7812739831159" x2="216.0" y2="146.93016116653877" stroke="black" stroke-width="1" />
  <rect x="211.2" y="146.31619339984655" width="9.6" height="1" fill="green" />
  <line x1="226.66666666666666" y1="148.4650805832694" x2="226.66666666666666" y2="148.4650805832694" stroke="black" stroke-width="1" />
  <rect x="221.86666666666665" y="148.4650805832694" width="9.6" height="1" fill="red" />
  <line x1="237.33333333333334" y1="139.56254796623188" x2="237.33333333333334" y2="144.7812739831159" stroke="black" stroke-width="1" />
  <rect x="232.53333333333333" y="141.71143514965473" width="9.6" height="3.0698388334611764" fill="green" />
  <line x1="248.0" y1="140.7904834996163" x2="248.0" y2="140.7904834996163" stroke="black" stroke-width="1" />
  <rect x="243.2" y="140.7904834996163" width="9.6" height="1" fill="red" />
  <line x1="258.66666666666663" y1="133.72985418265546" x2="258.66666666666663" y2="137.72064466615507" stroke="black" stroke-width="1" />
  <rect x="253.86666666666665" y="133.72985418265546" width="9.6" height="3.06983883346129" fill="green" />
  <line x1="269.3333333333333" y1="123.90636991557943" x2="269.3333333333333" y2="134.0368380660015" stroke="black" stroke-width="1" />
  <rect x="264.53333333333336" y="123.90636991557943" width="9.6" height="10.130468150422075" fill="green" />
  <line x1="279.99999999999994" y1="118.68764389869534" x2="279.99999999999994" y2="127.59017651573299" stroke="black" stroke-width="1" />
  <rect x="275.2" y="121.75748273215657" width="9.6" height="5.832693783576417" fill="green" />
  <line x1="290.66666666666663" y1="104.25940138142755" x2="290.66666666666663" y2="119.91557943207988" stroke="black" stroke-width="1" />
  <rect x="285.8666666666667" y="106.71527244819652" width="9.6" height="13.200306983883365" fill="green" />
  <line x1="301.3333333333333" y1="107.94320798158094" x2="301.3333333333333" y2="114.69685341519568" stroke="black" stroke-width="1" />
  <rect x="296.53333333333336" y="108.55717574827327" width="9.6" height="6.13967766692241" fill="red" />
  <line x1="311.99999999999994" y1="121.45049884881047" x2="311.99999999999994" y2="161.66538756715278" stroke="black" stroke-width="1" />
  <rect x="307.2" y="121.45049884881047" width="9.6" height="38.37298541826556" fill="red" />
  <line x1="322.66666666666663" y1="162.27935533384505" x2="322.66666666666663" y2="175.17267843438225" stroke="black" stroke-width="1" />
  <rect x="317.8666666666667" y="163.81427475057563" width="9.6" height="2.455871066768964" fill="red" />
  <line x1="333.3333333333333" y1="165.04221028396012" x2="333.3333333333333" y2="175.47966231772835" stroke="black" stroke-width="1" />
  <rect x="328.53333333333336" y="165.04221028396012" width="9.6" height="3.069838833461233" fill="green" />
  <line x1="343.99999999999994" y1="146.6231772831926" x2="343.99999999999994" y2="162.5863392171911" stroke="black" stroke-width="1" />
  <rect x="339.2" y="148.4650805832694" width="9.6" height="14.121258633921684" fill="green" />
  <line x1="354.66666666666663" y1="144.1673062164237" x2="354.66666666666663" y2="148.4650805832694" stroke="black" stroke-width="1" />
  <rect x="349.8666666666667" y="146.00920951650045" width="9.6" height="2.455871066768964" fill="red" />
</svg>