<svg width="400" height="300" xmlns="http://www.w3.org/2000/svg">
  <line x1="40" y1="250" x2="40" y2="50" stroke="black" stroke-width="2" />
  <line x1="35" y1="250.0" x2="40" y2="250.0" stroke="black" stroke-width="1" />
  <text x="10" y="255.0" font-size="10" fill="black">75</text>
  <line x1="40" y1="250.0" x2="380" y2="250.0" stroke="lightgray" stroke-width="1" stroke-dasharray="5, 5" />
  <line x1="35" y1="210.0" x2="40" y2="210.0" stroke="black" stroke-width="1" />
  <text x="10" y="215.0" font-size="10" fill="black">85</text>
  <line x1="40" y1="210.0" x2="380" y2="210.0" stroke="lightgray" stroke-width="1" stroke-dasharray="5, 5" />
  <line x1="35" y1="170.0" x2="40" y2="170.0" stroke="black" stroke-width="1" />
  <text x="10" y="175.0" font-size="10" fill="black">95</text>
  <line x1="40" y1="170.0" x2="380" y2="170.0" stroke="lightgray" stroke-width="1" stroke-dasharray="5, 5" />
  <line x1="35" y1="130.0" x2="40" y2="130.0" stroke="black" stroke-width="1" />
  <text x="10" y="135.0" font-size="10" fill="black">105</text>
  <line x1="40" y1="130.0" x2="380" y2="130.0" stroke="lightgray" stroke-width="1" stroke-dasharray="5, 5" />
  <line x1="35" y1="90.0" x2="40" y2="90.0" stroke="black" stroke-width="1" />
  <text x="10" y="95.0" font-size="10" fill="black">115</text>
  <line x1="40" y1="90.0" x2="380" y2="90.0" stroke="lightgray" stroke-width="1" stroke-dasharray="5, 5" />
  <line x1="35" y1="50.0" x2="40" y2="50.0" stroke="black" stroke-width="1" />
  <text x="10" y="55.0" font-size="10" fill="black">125</text>
  <line x1="40" y1="50.0" x2="380" y2="50.0" stroke="lightgray" stroke-width="1" stroke-dasharray="5, 5" />
  <line x1="35" y1="150.0" x2="40" y2="150.0" stroke="black" stroke-width="1" />
  <text x="10" y="155.0" font-size="10" fill="black">100</text>
  <line x1="40" y1="150.0" x2="380" y2="150.0" stroke="lightgray" stroke-width="1" stroke-dasharray="5, 5" />
  <line x1="45.333333333333336" y1="139.96227652944071" x2="45.333333333333336" y2="152.493029358701" stroke="black" stroke-width="1" />
  <rect x="40.53333333333333" y="141.34000328030186" width="9.6" height="8.659996719698142" fill="green" />
  <line x1="56.0" y1="123.56076759061835" x2="56.0" y2="145.14515335410857" stroke="black" stroke-width="1" />
  <rect x="51.199999999999996" y="123.56076759061835" width="9.6" height="18.763326226012794" fill="green" />
  <line x1="66.66666666666666" y1="123.9544038051501" x2="66.66666666666666" y2="137.04280793833033" stroke="black" stroke-width="1" />
  <rect x="61.86666666666666" y="128.80925045104146" width="9.6" height="3.772347055929174" fill="red" />
  <line x1="77.33333333333333" y1="125.69296375266521" x2="77.33333333333333" y2="134.51697556175174" stroke="black" stroke-width="1" />
  <rect x="72.53333333333333" y="128.4812202722651" width="9.6" height="3.8871576185008507" fill="green" />
  <line x1="87.99999999999999" y1="121.10054124979496" x2="87.99999999999999" y2="146.19484992619317" stroke="black" stroke-width="1" />
  <rect x="83.19999999999999" y="123.49516155486305" width="9.6" height="20.60029522716087" fill="red" />
  <line x1="98.66666666666666" y1="124.87288830572413" x2="98.66666666666666" y2="139.2406101361325" stroke="black" stroke-width="1" />
  <rect x="93.86666666666666" y="125.62735771690996" width="9.6" height="11.513859275053278" fill="green" />
  <line x1="109.33333333333333" y1="119.42758733803515" x2="109.33333333333333" y2="142.02886665573232" stroke="black" stroke-width="1" />
  <rect x="104.53333333333333" y="124.9712973593571" width="9.6" height="10.2017385599475" fill="red" />
  <line x1="119.99999999999999" y1="126.18500902082997" x2="119.99999999999999" y2="143.63621453173698" stroke="black" stroke-width="1" />
  <rect x="115.19999999999999" y="129.13728062981795" width="9.6" height="10.660980810234548" fill="green" />
  <line x1="130.66666666666666" y1="129.038871576185" x2="130.66666666666666" y2="147.70378874856488" stroke="black" stroke-width="1" />
  <rect x="125.86666666666666" y="129.7277349516155" width="9.6" height="8.233557487288863" fill="red" />
  <line x1="141.33333333333334" y1="141.83204854846645" x2="141.33333333333334" y2="167.15597835000818" stroke="black" stroke-width="1" />
  <rect x="136.53333333333333" y="151.9189765458422" width="9.6" height="12.350336230933237" fill="red" />
  <line x1="152.0" y1="150.62325733967526" x2="152.0" y2="165.48302443824832" stroke="black" stroke-width="1" />
  <rect x="147.2" y="157.90552730851238" width="9.6" height="1" fill="red" />
  <line x1="162.66666666666666" y1="168.79612924389045" x2="162.66666666666666" y2="198.05642119074952" stroke="black" stroke-width="1" />
  <rect x="157.86666666666665" y="169.4521896014433" width="9.6" height="26.27521731999343" fill="red" />
  <line x1="173.33333333333334" y1="178.440216499918" x2="173.33333333333334" y2="208.45497785796294" stroke="black" stroke-width="1" />
  <rect x="168.53333333333333" y="201.59914712153522" width="9.6" height="2.624241430211555" fill="green" />
  <line x1="184.0" y1="190.31490897162536" x2="184.0" y2="206.35558471379363" stroke="black" stroke-width="1" />
  <rect x="179.2" y="198.3188453337707" width="9.6" height="7.29867147777594" fill="green" />
  <line x1="194.66666666666666" y1="195.2353616532721" x2="194.66666666666666" y2="218.85353452517631" stroke="black" stroke-width="1" />
  <rect x="189.86666666666665" y="195.59619484992618" width="9.6" height="17.09037231425293" fill="red" />
  <line x1="205.33333333333334" y1="200.48384451369526" x2="205.33333333333334" y2="209.86550762670169" stroke="black" stroke-width="1" />
  <rect x="200.53333333333333" y="200.74626865671644" width="9.6" height="5.215679842545512" fill="green" />
  <line x1="216.0" y1="191.1349844185665" x2="216.0" y2="205.73232737411843" stroke="black" stroke-width="1" />
  <rect x="211.2" y="195.3993767426603" width="9.6" height="1" fill="green" />
  <line x1="226.66666666666666" y1="165.58143349188128" x2="226.66666666666666" y2="197.62998195834018" stroke="black" stroke-width="1" />
  <rect x="221.86666666666665" y="166.49991799245527" width="9.6" height="24.667869443988877" fill="green" />
  <line x1="237.33333333333334" y1="153.77234705592912" x2="237.33333333333334" y2="171.51877972773497" stroke="black" stroke-width="1" />
  <rect x="232.53333333333333" y="159.1848450057405" width="9.6" height="7.544694111858291" fill="green" />
  <line x1="248.0" y1="156.51139904871252" x2="248.0" y2="164.2365097588978" stroke="black" stroke-width="1" />
  <rect x="243.2" y="159.31605707725112" width="9.6" height="1" fill="green" />
  <line x1="258.66666666666663" y1="162.3339347219944" x2="258.66666666666663" y2="174.86468755125475" stroke="black" stroke-width="1" />
  <rect x="253.86666666666665" y="166.893554206987" width="9.6" height="1" fill="red" />
  <line x1="269.3333333333333" y1="160.30014761358046" x2="269.3333333333333" y2="173.3229457110054" stroke="black" stroke-width="1" />
  <rect x="264.53333333333336" y="162.36673773987206" width="9.6" height="8.46317861243233" fill="red" />
  <line x1="279.99999999999994" y1="163.9084795801213" x2="279.99999999999994" y2="178.6042315893062" stroke="black" stroke-width="1" />
  <rect x="275.2" y="169.84582581597505" width="9.6" height="8.266360505166517" fill="red" />
  <line x1="290.66666666666663" y1="157.47908807610298" x2="290.66666666666663" y2="165.38461538461536" stroke="black" stroke-width="1" />
  <rect x="285.8666666666667" y="163.35082827620136" width="9.6" height="1.7057569296375732" fill="green" />
  <line x1="301.3333333333333" y1="160.89683450877482" x2="301.3333333333333" y2="171.48564867967855" stroke="black" stroke-width="1" />
  <rect x="296.53333333333336" y="166.00787272429062" width="9.6" height="3.4771198950303415" fill="red" />
  <line x1="311.99999999999994" y1="166.23749384943414" x2="311.99999999999994" y2="173.22453665737243" stroke="black" stroke-width="1" />
  <rect x="307.2" y="167.68082663605048" width="9.6" height="1" fill="red" />
  <line x1="322.66666666666663" y1="150.459242250287" x2="322.66666666666663" y2="171.51877972773497" stroke="black" stroke-width="1" />
  <rect x="317.8666666666667" y="153.50992291290794" width="9.6" height="14.285714285714334" fill="green" />
  <line x1="333.3333333333333" y1="140.15909463670664" x2="333.3333333333333" y2="151.08249958996225" stroke="black" stroke-width="1" />
  <rect x="328.53333333333336" y="144.84992619320974" width="9.6" height="4.887649663769082" fill="green" />
  <line x1="343.99999999999994" y1="131.22027226504838" x2="343.99999999999994" y2="150.459242250287" stroke="black" stroke-width="1" />
  <rect x="339.2" y="134.0577333114647" width="9.6" height="9.053632934229938" fill="red" />
  <line x1="354.66666666666663" y1="143.14416926357228" x2="354.66666666666663" y2="158.79120879120876" stroke="black" stroke-width="1" />
  <rect x="349.8666666666667" y="143.34098737083815" width="9.6" height="8.430375594554619" fill="red" />
</svg>