<svg width="400" height="300" xmlns="http://www.w3.org/2000/svg">
  <line x1="40" y1="250" x2="40" y2="50" stroke="black" stroke-width="2" />
  <line x1="35" y1="250.0" x2="40" y2="250.0" stroke="black" stroke-width="1" />
  <text x="10" y="255.0" font-size="10" fill="black">75</text>
  <line x1="40" y1="250.0" x2="380" y2="250.0" stroke="lightgray" stroke-width="1" stroke-dasharray="5, 5" />
  <line x1="35" y1="210.0" x2="40" y2="210.0" stroke="black" stroke-width="1" />
  <text x="10" y="215.0" font-size="10" fill="black">85</text>
  <line x1="40" y1="210.0" x2="380" y2="210.0" stroke="lightgray" stroke-width="1" stroke-dasharray="5, 5" />
  <line x1="35" y1="170.0" x2="40" y2="170.0" stroke="black" stroke-width="1" />
  <text x="10" y="175.0" font-size="10" fill="black">95</text>
  <line x1="40" y1="170.0" x2="380" y2="170.0" stroke="lightgray" stroke-width="1" stroke-dasharray="5, 5" />
  <line x1="35" y1="130.0" x2="40" y2="130.0" stroke="black" stroke-width="1" />
  <text x="10" y="135.0" font-size="10" fill="black">105</text>
  <line x1="40" y1="130.0" x2="380" y2="130.0" stroke="lightgray" stroke-width="1" stroke-dasharray="5, 5" />
  <line x1="35" y1="90.0" x2="40" y2="90.0" stroke="black" stroke-width="1" />
  <text x="10" y="95.0" font-size="10" fill="black">115</text>
  <line x1="40" y1="90.0" x2="380" y2="90.0" stroke="lightgray" stroke-width="1" stroke-dasharray="5, 5" />
  <line x1="35" y1="50.0" x2="40" y2="50.0" stroke="black" stroke-width="1" />
  <text x="10" y="55.0" font-size="10" fill="black">125</text>
  <line x1="40" y1="50.0" x2="380" y2="50.0" stroke="lightgray" stroke-width="1" stroke-dasharray="5, 5" />
  <line x1="35" y1="150.0" x2="40" y2="150.0" stroke="black" stroke-width="1" />
  <text x="10" y="155.0" font-size="10" fill="black">100</text>
  <line x1="40" y1="150.0" x2="380" y2="150.0" stroke="lightgray" stroke-width="1" stroke-dasharray="5, 5" />
  <line x1="45.333333333333336" y1="149.31359931359924" x2="45.333333333333336" y2="155.92020592020594" stroke="black" stroke-width="1" />
  <rect x="40.53333333333333" y="149.91419991419986" width="9.6" height="1" fill="green" />
  <line x1="56.0" y1="147.34019734019734" x2="56.0" y2="150.9438009438009" stroke="black" stroke-width="1" />
  <rect x="51.199999999999996" y="149.91419991419986" width="9.6" height="1" fill="red" />
  <line x1="66.66666666666666" y1="148.1981981981982" x2="66.66666666666666" y2="153.0888030888031" stroke="black" stroke-width="1" />
  <rect x="61.86666666666666" y="151.45860145860144" width="9.6" height="1" fill="green" />
  <line x1="77.33333333333333" y1="148.02659802659798" x2="77.33333333333333" y2="152.40240240240234" stroke="black" stroke-width="1" />
  <rect x="72.53333333333333" y="150.17160017160012" width="9.6" height="1" fill="green" />
  <line x1="87.99999999999999" y1="148.1981981981982" x2="87.99999999999999" y2="151.28700128700126" stroke="black" stroke-width="1" />
  <rect x="83.19999999999999" y="149.65679965679965" width="9.6" height="1" fill="green" />
  <line x1="98.66666666666666" y1="148.02659802659798" x2="98.66666666666666" y2="150.9438009438009" stroke="black" stroke-width="1" />
  <rect x="93.86666666666666" y="150.0" width="9.6" height="1" fill="red" />
  <line x1="109.33333333333333" y1="147.68339768339763" x2="109.33333333333333" y2="151.88760188760187" stroke="black" stroke-width="1" />
  <rect x="104.53333333333333" y="149.65679965679965" width="9.6" height="1.0296010296010536" fill="green" />
  <line x1="119.99999999999999" y1="144.4229944229944" x2="119.99999999999999" y2="150.60060060060061" stroke="black" stroke-width="1" />
  <rect x="115.19999999999999" y="147.42599742599742" width="9.6" height="2.230802230802226" fill="green" />
  <line x1="130.66666666666666" y1="139.7039897039897" x2="130.66666666666666" y2="147.16859716859716" stroke="black" stroke-width="1" />
  <rect x="125.86666666666666" y="141.59159159159157" width="9.6" height="5.577005577005593" fill="green" />
  <line x1="141.33333333333334" y1="138.41698841698837" x2="141.33333333333334" y2="142.7069927069927" stroke="black" stroke-width="1" />
  <rect x="136.53333333333333" y="138.41698841698837" width="9.6" height="3.1746031746031917" fill="green" />
  <line x1="152.0" y1="136.6151866151866" x2="152.0" y2="140.13299013299007" stroke="black" stroke-width="1" />
  <rect x="147.2" y="136.70098670098668" width="9.6" height="1.801801801801787" fill="green" />
  <line x1="162.66666666666666" y1="130.86658086658088" x2="162.66666666666666" y2="137.9021879021879" stroke="black" stroke-width="1" />
  <rect x="157.86666666666665" y="132.15358215358214" width="9.6" height="4.54740454740454" fill="green" />
  <line x1="173.33333333333334" y1="134.72758472758477" x2="173.33333333333334" y2="137.5589875589875" stroke="black" stroke-width="1" />
  <rect x="168.53333333333333" y="135.15658515658515" width="9.6" height="1" fill="red" />
  <line x1="184.0" y1="133.69798369798372" x2="184.0" y2="136.35778635778638" stroke="black" stroke-width="1" />
  <rect x="179.2" y="134.72758472758477" width="9.6" height="1" fill="green" />
  <line x1="194.66666666666666" y1="132.15358215358214" x2="194.66666666666666" y2="137.30158730158723" stroke="black" stroke-width="1" />
  <rect x="189.86666666666665" y="136.2719862719863" width="9.6" height="1" fill="red" />
  <line x1="205.33333333333334" y1="130.52338052338052" x2="205.33333333333334" y2="136.1861861861862" stroke="black" stroke-width="1" />
  <rect x="200.53333333333333" y="131.46718146718143" width="9.6" height="3.946803946803982" fill="green" />
  <line x1="216.0" y1="129.2363792363792" x2="216.0" y2="135.58558558558553" stroke="black" stroke-width="1" />
  <rect x="211.2" y="132.15358215358214" width="9.6" height="3.3462033462033673" fill="red" />
  <line x1="226.66666666666666" y1="129.57957957957956" x2="226.66666666666666" y2="154.29000429000428" stroke="black" stroke-width="1" />
  <rect x="221.86666666666665" y="129.57957957957956" width="9.6" height="17.67481767481769" fill="red" />
  <line x1="237.33333333333334" y1="138.50278850278846" x2="237.33333333333334" y2="147.34019734019734" stroke="black" stroke-width="1" />
  <rect x="232.53333333333333" y="144.59459459459458" width="9.6" height="1.2870012870012602" fill="red" />
  <line x1="248.0" y1="147.34019734019734" x2="248.0" y2="157.72200772200773" stroke="black" stroke-width="1" />
  <rect x="243.2" y="147.9407979407979" width="9.6" height="4.03260403260407" fill="red" />
  <line x1="258.66666666666663" y1="145.62419562419564" x2="258.66666666666663" y2="153.60360360360357" stroke="black" stroke-width="1" />
  <rect x="253.86666666666665" y="145.96739596739593" width="9.6" height="6.006006006006032" fill="green" />
  <line x1="269.3333333333333" y1="142.9643929643929" x2="269.3333333333333" y2="150.6864006864007" stroke="black" stroke-width="1" />
  <rect x="264.53333333333336" y="144.76619476619481" width="9.6" height="4.6332046332046275" fill="red" />
  <line x1="279.99999999999994" y1="145.70999570999572" x2="279.99999999999994" y2="149.39939939939944" stroke="black" stroke-width="1" />
  <rect x="275.2" y="147.34019734019734" width="9.6" height="1.9734019734019057" fill="green" />
  <line x1="290.66666666666663" y1="143.90819390819394" x2="290.66666666666663" y2="148.71299871299868" stroke="black" stroke-width="1" />
  <rect x="285.8666666666667" y="144.8519948519948" width="9.6" height="1" fill="red" />
  <line x1="301.3333333333333" y1="142.10639210639215" x2="301.3333333333333" y2="147.16859716859716" stroke="black" stroke-width="1" />
  <rect x="296.53333333333336" y="145.1093951093951" width="9.6" height="1" fill="green" />
  <line x1="311.99999999999994" y1="142.10639210639215" x2="311.99999999999994" y2="147.85499785499792" stroke="black" stroke-width="1" />
  <rect x="307.2" y="145.1093951093951" width="9.6" height="1" fill="green" />
  <line x1="322.66666666666663" y1="141.76319176319174" x2="322.66666666666663" y2="150.9438009438009" stroke="black" stroke-width="1" />
  <rect x="317.8666666666667" y="142.53539253539253" width="9.6" height="3.9468039468038683" fill="red" />
  <line x1="333.3333333333333" y1="122.71557271557276" x2="333.3333333333333" y2="137.38738738738732" stroke="black" stroke-width="1" />
  <rect x="328.53333333333336" y="122.97297297297291" width="9.6" height="8.665808665808754" fill="green" />
  <line x1="343.99999999999994" y1="119.62676962676966" x2="343.99999999999994" y2="128.8073788073787" stroke="black" stroke-width="1" />
  <rect x="339.2" y="122.97297297297291" width="9.6" height="1.8876018876019316" fill="red" />
  <line x1="354.66666666666663" y1="122.20077220077218" x2="354.66666666666663" y2="130.52338052338052" stroke="black" stroke-width="1" />
  <rect x="349.8666666666667" y="124.86057486057484" width="9.6" height="5.319605319605273" fill="red" />
</svg>