<svg width="400" height="300" xmlns="http://www.w3.org/2000/svg">
  <line x1="40" y1="250" x2="40" y2="50" stroke="black" stroke-width="2" />
  <line x1="35" y1="250.0" x2="40" y2="250.0" stroke="black" stroke-width="1" />
  <text x="10" y="255.0" font-size="10" fill="black">75</text>
  <line x1="40" y1="250.0" x2="380" y2="250.0" stroke="lightgray" stroke-width="1" stroke-dasharray="5, 5" />
  <line x1="35" y1="210.0" x2="40" y2="210.0" stroke="black" stroke-width="1" />
  <text x="10" y="215.0" font-size="10" fill="black">85</text>
  <line x1="40" y1="210.0" x2="380" y2="210.0" stroke="lightgray" stroke-width="1" stroke-dasharray="5, 5" />
  <line x1="35" y1="170.0" x2="40" y2="170.0" stroke="black" stroke-width="1" />
  <text x="10" y="175.0" font-size="10" fill="black">95</text>
  <line x1="40" y1="170.0" x2="380" y2="170.0" stroke="lightgray" stroke-width="1" stroke-dasharray="5, 5" />
  <line x1="35" y1="130.0" x2="40" y2="130.0" stroke="black" stroke-width="1" />
  <text x="10" y="135.0" font-size="10" fill="black">105</text>
  <line x1="40" y1="130.0" x2="380" y2="130.0" stroke="lightgray" stroke-width="1" stroke-dasharray="5, 5" />
  <line x1="35" y1="90.0" x2="40" y2="90.0" stroke="black" stroke-width="1" />
  <text x="10" y="95.0" font-size="10" fill="black">115</text>
  <line x1="40" y1="90.0" x2="380" y2="90.0" stroke="lightgray" stroke-width="1" stroke-dasharray="5, 5" />
  <line x1="35" y1="50.0" x2="40" y2="50.0" stroke="black" stroke-width="1" />
  <text x="10" y="55.0" font-size="10" fill="black">125</text>
  <line x1="40" y1="50.0" x2="380" y2="50.0" stroke="lightgray" stroke-width="1" stroke-dasharray="5, 5" />
  <line x1="35" y1="150.0" x2="40" y2="150.0" stroke="black" stroke-width="1" />
  <text x="10" y="155.0" font-size="10" fill="black">100</text>
  <line x1="40" y1="150.0" x2="380" y2="150.0" stroke="lightgray" stroke-width="1" stroke-dasharray="5, 5" />
  <line x1="45.333333333333336" y1="144.8466257668711" x2="45.333333333333336" y2="150.85889570552143" stroke="black" stroke-width="1" />
  <rect x="40.53333333333333" y="146.56441717791415" width="9.6" height="3.4355828220858484" fill="green" />
  <line x1="56.0" y1="143.00613496932516" x2="56.0" y2="150.1226993865031" stroke="black" stroke-width="1" />
  <rect x="51.199999999999996" y="146.1963190184049" width="9.6" height="3.9263803680981937" fill="red" />
  <line x1="66.66666666666666" y1="135.88957055214718" x2="66.66666666666666" y2="148.5276073619632" stroke="black" stroke-width="1" />
  <rect x="61.86666666666666" y="136.50306748466255" width="9.6" height="12.02453987730064" fill="green" />
  <line x1="77.33333333333333" y1="136.38036809815947" x2="77.33333333333333" y2="144.47852760736197" stroke="black" stroke-width="1" />
  <rect x="72.53333333333333" y="136.50306748466255" width="9.6" height="3.4355828220859053" fill="red" />
  <line x1="87.99999999999999" y1="134.29447852760734" x2="87.99999999999999" y2="139.44785276073617" stroke="black" stroke-width="1" />
  <rect x="83.19999999999999" y="134.66257668711654" width="9.6" height="4.294478527607339" fill="green" />
  <line x1="98.66666666666666" y1="134.66257668711654" x2="98.66666666666666" y2="139.81595092024543" stroke="black" stroke-width="1" />
  <rect x="93.86666666666666" y="134.66257668711654" width="9.6" height="1.8404907975460105" fill="red" />
  <line x1="109.33333333333333" y1="133.31288343558282" x2="109.33333333333333" y2="136.1349693251533" stroke="black" stroke-width="1" />
  <rect x="104.53333333333333" y="134.78527607361963" width="9.6" height="1" fill="red" />
  <line x1="119.99999999999999" y1="135.1533742331289" x2="119.99999999999999" y2="142.1472392638036" stroke="black" stroke-width="1" />
  <rect x="115.19999999999999" y="135.64417177914112" width="9.6" height="3.0674846625766463" fill="red" />
  <line x1="130.66666666666666" y1="135.88957055214718" x2="130.66666666666666" y2="139.32515337423314" stroke="black" stroke-width="1" />
  <rect x="125.86666666666666" y="138.71165644171776" width="9.6" height="1" fill="red" />
  <line x1="141.33333333333334" y1="134.5398773006135" x2="141.33333333333334" y2="139.5705521472392" stroke="black" stroke-width="1" />
  <rect x="136.53333333333333" y="137.11656441717787" width="9.6" height="1" fill="green" />
  <line x1="152.0" y1="135.88957055214718" x2="152.0" y2="142.1472392638036" stroke="black" stroke-width="1" />
  <rect x="147.2" y="135.88957055214718" width="9.6" height="1.2269938650306926" fill="green" />
  <line x1="162.66666666666666" y1="135.88957055214718" x2="162.66666666666666" y2="154.17177914110425" stroke="black" stroke-width="1" />
  <rect x="157.86666666666665" y="135.88957055214718" width="9.6" height="15.705521472392718" fill="red" />
  <line x1="173.33333333333334" y1="152.08588957055213" x2="173.33333333333334" y2="158.22085889570548" stroke="black" stroke-width="1" />
  <rect x="168.53333333333333" y="155.88957055214723" width="9.6" height="2.331288343558242" fill="red" />
  <line x1="184.0" y1="154.04907975460122" x2="184.0" y2="162.2699386503067" stroke="black" stroke-width="1" />
  <rect x="179.2" y="155.03067484662574" width="9.6" height="3.1901840490797326" fill="green" />
  <line x1="194.66666666666666" y1="153.68098159509202" x2="194.66666666666666" y2="162.6380368098159" stroke="black" stroke-width="1" />
  <rect x="189.86666666666665" y="155.03067484662574" width="9.6" height="7.484662576687128" fill="red" />
  <line x1="205.33333333333334" y1="157.97546012269936" x2="205.33333333333334" y2="161.41104294478527" stroke="black" stroke-width="1" />
  <rect x="200.53333333333333" y="159.20245398773" width="9.6" height="1.8404907975460674" fill="green" />
  <line x1="216.0" y1="155.64417177914106" x2="216.0" y2="160.67484662576686" stroke="black" stroke-width="1" />
  <rect x="211.2" y="158.58895705521473" width="9.6" height="1.7177914110428674" fill="green" />
  <line x1="226.66666666666666" y1="151.2269938650307" x2="226.66666666666666" y2="162.6380368098159" stroke="black" stroke-width="1" />
  <rect x="221.86666666666665" y="158.58895705521473" width="9.6" height="3.0674846625766463" fill="red" />
  <line x1="237.33333333333334" y1="151.34969325153367" x2="237.33333333333334" y2="160.67484662576686" stroke="black" stroke-width="1" />
  <rect x="232.53333333333333" y="158.95705521472394" width="9.6" height="1" fill="green" />
  <line x1="248.0" y1="151.71779141104292" x2="248.0" y2="158.34355828220856" stroke="black" stroke-width="1" />
  <rect x="243.2" y="154.29447852760734" width="9.6" height="4.049079754601223" fill="green" />
  <line x1="258.66666666666663" y1="151.96319018404904" x2="258.66666666666663" y2="156.01226993865032" stroke="black" stroke-width="1" />
  <rect x="253.86666666666665" y="153.68098159509202" width="9.6" height="1.595092024539838" fill="red" />
  <line x1="269.3333333333333" y1="145.58282208588957" x2="269.3333333333333" y2="155.88957055214723" stroke="black" stroke-width="1" />
  <rect x="264.53333333333336" y="147.54601226993867" width="9.6" height="7.852760736196274" fill="green" />
  <line x1="279.99999999999994" y1="145.09202453987734" x2="279.99999999999994" y2="150.36809815950915" stroke="black" stroke-width="1" />
  <rect x="275.2" y="145.21472392638037" width="9.6" height="1" fill="green" />
  <line x1="290.66666666666663" y1="132.57668711656436" x2="290.66666666666663" y2="143.1288343558282" stroke="black" stroke-width="1" />
  <rect x="285.8666666666667" y="134.66257668711654" width="9.6" height="4.294478527607339" fill="green" />
  <line x1="301.3333333333333" y1="133.0674846625766" x2="301.3333333333333" y2="141.65644171779138" stroke="black" stroke-width="1" />
  <rect x="296.53333333333336" y="133.31288343558282" width="9.6" height="8.220858895705419" fill="red" />
  <line x1="311.99999999999994" y1="137.97546012269936" x2="311.99999999999994" y2="143.74233128834356" stroke="black" stroke-width="1" />
  <rect x="307.2" y="138.46625766871165" width="9.6" height="2.0858895705520695" fill="green" />
  <line x1="322.66666666666663" y1="119.81595092024537" x2="322.66666666666663" y2="130.98159509202452" stroke="black" stroke-width="1" />
  <rect x="317.8666666666667" y="124.60122699386494" width="9.6" height="4.417177914110482" fill="green" />
  <line x1="333.3333333333333" y1="119.9386503067484" x2="333.3333333333333" y2="126.19631901840489" stroke="black" stroke-width="1" />
  <rect x="328.53333333333336" y="123.0061349693251" width="9.6" height="1" fill="green" />
  <line x1="343.99999999999994" y1="109.75460122699383" x2="343.99999999999994" y2="118.71165644171776" stroke="black" stroke-width="1" />
  <rect x="339.2" y="114.17177914110425" width="9.6" height="3.312883435582819" fill="green" />
  <line x1="354.66666666666663" y1="108.15950920245393" x2="354.66666666666663" y2="113.19018404907968" stroke="black" stroke-width="1" />
  <rect x="349.8666666666667" y="109.26380368098154" width="9.6" height="2.699386503067501" fill="green" />
</svg>