<svg width="400" height="300" xmlns="http://www.w3.org/2000/svg">
  <line x1="40" y1="250" x2="40" y2="50" stroke="black" stroke-width="2" />
  <line x1="35" y1="250.0" x2="40" y2="250.0" stroke="black" stroke-width="1" />
  <text x="10" y="255.0" font-size="10" fill="black">75</text>
  <line x1="40" y1="250.0" x2="380" y2="250.0" stroke="lightgray" stroke-width="1" stroke-dasharray="5, 5" />
  <line x1="35" y1="210.0" x2="40" y2="210.0" stroke="black" stroke-width="1" />
  <text x="10" y="215.0" font-size="10" fill="black">85</text>
  <line x1="40" y1="210.0" x2="380" y2="210.0" stroke="lightgray" stroke-width="1" stroke-dasharray="5, 5" />
  <line x1="35" y1="170.0" x2="40" y2="170.0" stroke="black" stroke-width="1" />
  <text x="10" y="175.0" font-size="10" fill="black">95</text>
  <line x1="40" y1="170.0" x2="380" y2="170.0" stroke="lightgray" stroke-width="1" stroke-dasharray="5, 5" />
  <line x1="35" y1="130.0" x2="40" y2="130.0" stroke="black" stroke-width="1" />
  <text x="10" y="135.0" font-size="10" fill="black">105</text>
  <line x1="40" y1="130.0" x2="380" y2="130.0" stroke="lightgray" stroke-width="1" stroke-dasharray="5, 5" />
  <line x1="35" y1="90.0" x2="40" y2="90.0" stroke="black" stroke-width="1" />
  <text x="10" y="95.0" font-size="10" fill="black">115</text>
  <line x1="40" y1="90.0" x2="380" y2="90.0" stroke="lightgray" stroke-width="1" stroke-dasharray="5, 5" />
  <line x1="35" y1="50.0" x2="40" y2="50.0" stroke="black" stroke-width="1" />
  <text x="10" y="55.0" font-size="10" fill="black">125</text>
  <line x1="40" y1="50.0" x2="380" y2="50.0" stroke="lightgray" stroke-width="1" stroke-dasharray="5, 5" />
  <line x1="35" y1="150.0" x2="40" y2="150.0" stroke="black" stroke-width="1" />
  <text x="10" y="155.0" font-size="10" fill="black">100</text>
  <line x1="40" y1="150.0" x2="380" y2="150.0" stroke="lightgray" stroke-width="1" stroke-dasharray="5, 5" />
  <line x1="45.333333333333336" y1="149.39717134245302" x2="45.333333333333336" y2="153.27869232552752" stroke="black" stroke-width="1" />
  <rect x="40.53333333333333" y="149.7681428240204" width="9.6" height="1" fill="green" />
  <line x1="56.0" y1="146.61488523069795" x2="56.0" y2="150.1854857407837" stroke="black" stroke-width="1" />
  <rect x="51.199999999999996" y="146.98585671226533" width="9.6" height="2.6895432413632534" fill="green" />
  <line x1="66.66666666666666" y1="141.86181312311612" x2="66.66666666666666" y2="150.0463714351959" stroke="black" stroke-width="1" />
  <rect x="61.86666666666666" y="142.27915603987952" width="9.6" height="5.379086482726564" fill="green" />
  <line x1="77.33333333333333" y1="140.03014143287737" x2="77.33333333333333" y2="145.12195687456534" stroke="black" stroke-width="1" />
  <rect x="72.53333333333333" y="142.07048458149785" width="9.6" height="1.6925573846509678" fill="red" />
  <line x1="87.99999999999999" y1="141.74588453512638" x2="87.99999999999999" y2="144.9455135636448" stroke="black" stroke-width="1" />
  <rect x="83.19999999999999" y="142.32552747507538" width="9.6" height="1" fill="red" />
  <line x1="98.66666666666666" y1="140.3547414792488" x2="98.66666666666666" y2="147.33364247623467" stroke="black" stroke-width="1" />
  <rect x="93.86666666666666" y="140.4706700672386" width="9.6" height="1.7621145374449725" fill="red" />
  <line x1="109.33333333333333" y1="139.9837699976814" x2="109.33333333333333" y2="142.55738465105497" stroke="black" stroke-width="1" />
  <rect x="104.53333333333333" y="141.18942731277536" width="9.6" height="1" fill="red" />
  <line x1="119.99999999999999" y1="139.89102712728965" x2="119.99999999999999" y2="145.36285648040808" stroke="black" stroke-width="1" />
  <rect x="115.19999999999999" y="141.2126130303733" width="9.6" height="2.3417574773939123" fill="red" />
  <line x1="130.66666666666666" y1="142.52677950382565" x2="130.66666666666666" y2="148.07558543936938" stroke="black" stroke-width="1" />
  <rect x="125.86666666666666" y="142.97472756781826" width="9.6" height="3.7792719684674694" fill="red" />
  <line x1="141.33333333333334" y1="146.6612566658938" x2="141.33333333333334" y2="151.41432877347557" stroke="black" stroke-width="1" />
  <rect x="136.53333333333333" y="147.12497101785306" width="9.6" height="3.8720148388592293" fill="red" />
  <line x1="152.0" y1="147.5886853698122" x2="152.0" y2="152.9445861349409" stroke="black" stroke-width="1" />
  <rect x="147.2" y="149.16531416647342" width="9.6" height="1.9012288430327544" fill="green" />
  <line x1="162.66666666666666" y1="137.54926964989573" x2="162.66666666666666" y2="151.48388592626947" stroke="black" stroke-width="1" />
  <rect x="157.86666666666665" y="138.36076976582427" width="9.6" height="11.9638302805472" fill="green" />
  <line x1="173.33333333333334" y1="133.46858335265478" x2="173.33333333333334" y2="141.25898446556926" stroke="black" stroke-width="1" />
  <rect x="168.53333333333333" y="136.0885694412242" width="9.6" height="1.437514491073557" fill="green" />
  <line x1="184.0" y1="133.28309761187114" x2="184.0" y2="138.40714120102018" stroke="black" stroke-width="1" />
  <rect x="179.2" y="134.28008346858337" width="9.6" height="1.3215859030837578" fill="green" />
  <line x1="194.66666666666666" y1="135.94945513563647" x2="194.66666666666666" y2="139.61279851611408" stroke="black" stroke-width="1" />
  <rect x="189.86666666666665" y="138.59262694180387" width="9.6" height="1" fill="red" />
  <line x1="205.33333333333334" y1="135.4625550660794" x2="205.33333333333334" y2="142.26756318108056" stroke="black" stroke-width="1" />
  <rect x="200.53333333333333" y="136.85369812195694" width="9.6" height="2.643171806167345" fill="green" />
  <line x1="216.0" y1="134.74379782054262" x2="216.0" y2="138.12891258984467" stroke="black" stroke-width="1" />
  <rect x="211.2" y="135.7871551124507" width="9.6" height="1.9476002782286628" fill="red" />
  <line x1="226.66666666666666" y1="137.8738696962671" x2="226.66666666666666" y2="145.58312079758872" stroke="black" stroke-width="1" />
  <rect x="221.86666666666665" y="138.59262694180387" width="9.6" height="3.8488291212613035" fill="red" />
  <line x1="237.33333333333334" y1="138.01298400185493" x2="237.33333333333334" y2="146.68444238349184" stroke="black" stroke-width="1" />
  <rect x="232.53333333333333" y="139.0331555761651" width="9.6" height="3.408300486900089" fill="green" />
  <line x1="248.0" y1="137.3869696267099" x2="248.0" y2="141.08509158358453" stroke="black" stroke-width="1" />
  <rect x="243.2" y="138.5810340830049" width="9.6" height="1" fill="red" />
  <line x1="258.66666666666663" y1="133.99026199860884" x2="258.66666666666663" y2="141.11987015998153" stroke="black" stroke-width="1" />
  <rect x="253.86666666666665" y="134.97565499652222" width="9.6" height="4.150243450034679" fill="red" />
  <line x1="269.3333333333333" y1="137.08555529793654" x2="269.3333333333333" y2="141.23579874797122" stroke="black" stroke-width="1" />
  <rect x="264.53333333333336" y="139.61279851611408" width="9.6" height="1" fill="red" />
  <line x1="279.99999999999994" y1="137.15511245073031" x2="279.99999999999994" y2="145.57152793878976" stroke="black" stroke-width="1" />
  <rect x="275.2" y="139.93739856248555" width="9.6" height="3.825643403663264" fill="red" />
  <line x1="290.66666666666663" y1="141.4212844887549" x2="290.66666666666663" y2="146.2207280315326" stroke="black" stroke-width="1" />
  <rect x="285.8666666666667" y="142.51101321585907" width="9.6" height="2.5272432181776026" fill="red" />
  <line x1="301.3333333333333" y1="147.10178530025502" x2="301.3333333333333" y2="155.33271504753077" stroke="black" stroke-width="1" />
  <rect x="296.53333333333336" y="149.8840714120102" width="9.6" height="3.2228147461163985" fill="red" />
  <line x1="311.99999999999994" y1="146.70762810108977" x2="311.99999999999994" y2="154.16183630883376" stroke="black" stroke-width="1" />
  <rect x="307.2" y="150.95061442151632" width="9.6" height="2.8750289821470005" fill="green" />
  <line x1="322.66666666666663" y1="152.13308601901235" x2="322.66666666666663" y2="157.0020867145838" stroke="black" stroke-width="1" />
  <rect x="317.8666666666667" y="153.5474147924878" width="9.6" height="2.480871782981751" fill="red" />
  <line x1="333.3333333333333" y1="154.069093438442" x2="333.3333333333333" y2="158.7124971017853" stroke="black" stroke-width="1" />
  <rect x="328.53333333333336" y="154.91537213076742" width="9.6" height="2.3185717597960434" fill="red" />
  <line x1="343.99999999999994" y1="153.5242290748899" x2="343.99999999999994" y2="158.9033155576165" stroke="black" stroke-width="1" />
  <rect x="339.2" y="156.5615580802226" width="9.6" height="1.0897287271041023" fill="green" />
  <line x1="354.66666666666663" y1="152.02875028982146" x2="354.66666666666663" y2="156.58474379782052" stroke="black" stroke-width="1" />
  <rect x="349.8666666666667" y="155.84280083468582" width="9.6" height="1" fill="green" />
</svg>