<svg width="400" height="300" xmlns="http://www.w3.org/2000/svg">
  <line x1="40" y1="250" x2="40" y2="50" stroke="black" stroke-width="2" />
  <line x1="35" y1="250.0" x2="40" y2="250.0" stroke="black" stroke-width="1" />
  <text x="10" y="255.0" font-size="10" fill="black">75</text>
  <line x1="40" y1="250.0" x2="380" y2="250.0" stroke="lightgray" stroke-width="1" stroke-dasharray="5, 5" />
  <line x1="35" y1="210.0" x2="40" y2="210.0" stroke="black" stroke-width="1" />
  <text x="10" y="215.0" font-size="10" fill="black">85</text>
  <line x1="40" y1="210.0" x2="380" y2="210.0" stroke="lightgray" stroke-width="1" stroke-dasharray="5, 5" />
  <line x1="35" y1="170.0" x2="40" y2="170.0" stroke="black" stroke-width="1" />
  <text x="10" y="175.0" font-size="10" fill="black">95</text>
  <line x1="40" y1="170.0" x2="380" y2="170.0" stroke="lightgray" stroke-width="1" stroke-dasharray="5, 5" />
  <line x1="35" y1="130.0" x2="40" y2="130.0" stroke="black" stroke-width="1" />
  <text x="10" y="135.0" font-size="10" fill="black">105</text>
  <line x1="40" y1="130.0" x2="380" y2="130.0" stroke="lightgray" stroke-width="1" stroke-dasharray="5, 5" />
  <line x1="35" y1="90.0" x2="40" y2="90.0" stroke="black" stroke-width="1" />
  <text x="10" y="95.0" font-size="10" fill="black">115</text>
  <line x1="40" y1="90.0" x2="380" y2="90.0" stroke="lightgray" stroke-width="1" stroke-dasharray="5, 5" />
  <line x1="35" y1="50.0" x2="40" y2="50.0" stroke="black" stroke-width="1" />
  <text x="10" y="55.0" font-size="10" fill="black">125</text>
  <line x1="40" y1="50.0" x2="380" y2="50.0" stroke="lightgray" stroke-width="1" stroke-dasharray="5, 5" />
  <line x1="35" y1="150.0" x2="40" y2="150.0" stroke="black" stroke-width="1" />
  <text x="10" y="155.0" font-size="10" fill="black">100</text>
  <line x1="40" y1="150.0" x2="380" y2="150.0" stroke="lightgray" stroke-width="1" stroke-dasharray="5, 5" />
  <line x1="45.333333333333336" y1="148.73674174711005" x2="45.333333333333336" y2="152.43117626027885" stroke="black" stroke-width="1" />
  <rect x="40.53333333333333" y="149.83315457037304" width="9.6" height="1" fill="green" />
  <line x1="56.0" y1="146.62733881539742" x2="56.0" y2="149.16577285186509" stroke="black" stroke-width="1" />
  <rect x="51.199999999999996" y="148.56989631748309" width="9.6" height="1" fill="green" />
  <line x1="66.66666666666666" y1="143.46919318317248" x2="66.66666666666666" y2="149.30878322011677" stroke="black" stroke-width="1" />
  <rect x="61.86666666666666" y="143.82671910380174" width="9.6" height="3.908950065546321" fill="green" />
  <line x1="77.33333333333333" y1="140.29913002025978" x2="77.33333333333333" y2="145.7573590751996" stroke="black" stroke-width="1" />
  <rect x="72.53333333333333" y="144.3510904540579" width="9.6" height="1" fill="red" />
  <line x1="87.99999999999999" y1="141.84840900965315" x2="87.99999999999999" y2="146.8537718984627" stroke="black" stroke-width="1" />
  <rect x="83.19999999999999" y="142.7064712191634" width="9.6" height="1.7399594803955551" fill="red" />
  <line x1="98.66666666666666" y1="144.54177094506014" x2="98.66666666666666" y2="148.9750923608628" stroke="black" stroke-width="1" />
  <rect x="93.86666666666666" y="144.68478131331182" width="9.6" height="2.097485401024983" fill="red" />
  <line x1="109.33333333333333" y1="142.49195566678583" x2="109.33333333333333" y2="147.9144321296627" stroke="black" stroke-width="1" />
  <rect x="104.53333333333333" y="143.96972947205342" width="9.6" height="3.944702657609298" fill="green" />
  <line x1="119.99999999999999" y1="142.18209986890713" x2="119.99999999999999" y2="146.99678226671426" stroke="black" stroke-width="1" />
  <rect x="115.19999999999999" y="142.82564652603975" width="9.6" height="3.7659396972947548" fill="red" />
  <line x1="130.66666666666666" y1="141.9437492551544" x2="130.66666666666666" y2="148.1885353354785" stroke="black" stroke-width="1" />
  <rect x="125.86666666666666" y="146.18639017995474" width="9.6" height="1" fill="red" />
  <line x1="141.33333333333334" y1="143.3738529376713" x2="141.33333333333334" y2="147.3304731259683" stroke="black" stroke-width="1" />
  <rect x="136.53333333333333" y="144.73245143606243" width="9.6" height="1" fill="green" />
  <line x1="152.0" y1="140.32296508163506" x2="152.0" y2="145.54284352282207" stroke="black" stroke-width="1" />
  <rect x="147.2" y="141.1333571683947" width="9.6" height="3.2892384697890975" fill="green" />
  <line x1="162.66666666666666" y1="132.88642593254679" x2="162.66666666666666" y2="142.4442855440352" stroke="black" stroke-width="1" />
  <rect x="157.86666666666665" y="134.03050887856034" width="9.6" height="8.318436419973807" fill="green" />
  <line x1="173.33333333333334" y1="130.50291979501844" x2="173.33333333333334" y2="136.15182934096055" stroke="black" stroke-width="1" />
  <rect x="168.53333333333333" y="130.7412704087713" width="9.6" height="5.410558932189247" fill="green" />
  <line x1="184.0" y1="129.19199141937787" x2="184.0" y2="133.67298295793108" stroke="black" stroke-width="1" />
  <rect x="179.2" y="130.52675485639372" width="9.6" height="1.2394231915146747" fill="red" />
  <line x1="194.66666666666666" y1="128.02407341198904" x2="194.66666666666666" y2="132.07603384578715" stroke="black" stroke-width="1" />
  <rect x="189.86666666666665" y="131.07496126802528" width="9.6" height="1" fill="red" />
  <line x1="205.33333333333334" y1="128.5007746394947" x2="205.33333333333334" y2="133.69681801930636" stroke="black" stroke-width="1" />
  <rect x="200.53333333333333" y="130.35990942676676" width="9.6" height="1.2394231915147316" fill="green" />
  <line x1="216.0" y1="125.8789178882136" x2="216.0" y2="130.71743534739602" stroke="black" stroke-width="1" />
  <rect x="211.2" y="126.23644380884286" width="9.6" height="4.480991538553155" fill="green" />
  <line x1="226.66666666666666" y1="128.11941365749016" x2="226.66666666666666" y2="136.15182934096055" stroke="black" stroke-width="1" />
  <rect x="221.86666666666665" y="129.07281611250153" width="9.6" height="6.387796448575841" fill="red" />
  <line x1="237.33333333333334" y1="133.81337146943156" x2="237.33333333333334" y2="138.9882016446192" stroke="black" stroke-width="1" />
  <rect x="232.53333333333333" y="135.50828268382793" width="9.6" height="1.0249076391370977" fill="red" />
  <line x1="248.0" y1="133.98283875580984" x2="248.0" y2="138.13013943510902" stroke="black" stroke-width="1" />
  <rect x="243.2" y="135.07925157907277" width="9.6" height="1.6922893576451088" fill="green" />
  <line x1="258.66666666666663" y1="127.38052675485642" x2="258.66666666666663" y2="134.50721010606605" stroke="black" stroke-width="1" />
  <rect x="253.86666666666665" y="127.54737218448338" width="9.6" height="6.030270527946584" fill="green" />
  <line x1="269.3333333333333" y1="128.190918841616" x2="269.3333333333333" y2="132.02836372303653" stroke="black" stroke-width="1" />
  <rect x="264.53333333333336" y="129.01322845906327" width="9.6" height="1.7757120724586457" fill="red" />
  <line x1="279.99999999999994" y1="130.7412704087713" x2="279.99999999999994" y2="138.67834584674057" stroke="black" stroke-width="1" />
  <rect x="275.2" y="132.76725062567027" width="9.6" height="2.693361935407097" fill="red" />
  <line x1="290.66666666666663" y1="137.27207722559882" x2="290.66666666666663" y2="143.89822428792752" stroke="black" stroke-width="1" />
  <rect x="285.8666666666667" y="137.93945894410678" width="9.6" height="3.1938982242879206" fill="red" />
  <line x1="301.3333333333333" y1="133.98283875580984" x2="301.3333333333333" y2="141.22869741389582" stroke="black" stroke-width="1" />
  <rect x="296.53333333333336" y="134.74556071981885" width="9.6" height="6.459301632701681" fill="green" />
  <line x1="311.99999999999994" y1="132.44547729710405" x2="311.99999999999994" y2="138.6304373733762" stroke="black" stroke-width="1" />
  <rect x="307.2" y="135.2460970086998" width="9.6" height="1" fill="red" />
  <line x1="322.66666666666663" y1="134.0781790013109" x2="322.66666666666663" y2="138.5710880705518" stroke="black" stroke-width="1" />
  <rect x="317.8666666666667" y="137.08139673459652" width="9.6" height="1" fill="green" />
  <line x1="333.3333333333333" y1="133.64914789655586" x2="333.3333333333333" y2="139.8939339768799" stroke="black" stroke-width="1" />
  <rect x="328.53333333333336" y="135.1030866404481" width="9.6" height="4.314146108926252" fill="red" />
  <line x1="343.99999999999994" y1="133.81599332618282" x2="343.99999999999994" y2="141.5623882731498" stroke="black" stroke-width="1" />
  <rect x="339.2" y="137.15290191872242" width="9.6" height="4.075795495173395" fill="green" />
  <line x1="354.66666666666663" y1="134.20927183887494" x2="354.66666666666663" y2="138.65451078536523" stroke="black" stroke-width="1" />
  <rect x="349.8666666666667" y="136.34250983196273" width="9.6" height="1.2870933142653485" fill="green" />
</svg>