<svg width="400" height="300" xmlns="http://www.w3.org/2000/svg">
  <line x1="40" y1="250" x2="40" y2="50" stroke="black" stroke-width="2" />
  <line x1="35" y1="250.0" x2="40" y2="250.0" stroke="black" stroke-width="1" />
  <text x="10" y="255.0" font-size="10" fill="black">75</text>
  <line x1="40" y1="250.0" x2="380" y2="250.0" stroke="lightgray" stroke-width="1" stroke-dasharray="5, 5" />
  <line x1="35" y1="210.0" x2="40" y2="210.0" stroke="black" stroke-width="1" />
  <text x="10" y="215.0" font-size="10" fill="black">85</text>
  <line x1="40" y1="210.0" x2="380" y2="210.0" stroke="lightgray" stroke-width="1" stroke-dasharray="5, 5" />
  <line x1="35" y1="170.0" x2="40" y2="170.0" stroke="black" stroke-width="1" />
  <text x="10" y="175.0" font-size="10" fill="black">95</text>
  <line x1="40" y1="170.0" x2="380" y2="170.0" stroke="lightgray" stroke-width="1" stroke-dasharray="5, 5" />
  <line x1="35" y1="130.0" x2="40" y2="130.0" stroke="black" stroke-width="1" />
  <text x="10" y="135.0" font-size="10" fill="black">105</text>
  <line x1="40" y1="130.0" x2="380" y2="130.0" stroke="lightgray" stroke-width="1" stroke-dasharray="5, 5" />
  <line x1="35" y1="90.0" x2="40" y2="90.0" stroke="black" stroke-width="1" />
  <text x="10" y="95.0" font-size="10" fill="black">115</text>
  <line x1="40" y1="90.0" x2="380" y2="90.0" stroke="lightgray" stroke-width="1" stroke-dasharray="5, 5" />
  <line x1="35" y1="50.0" x2="40" y2="50.0" stroke="black" stroke-width="1" />
  <text x="10" y="55.0" font-size="10" fill="black">125</text>
  <line x1="40" y1="50.0" x2="380" y2="50.0" stroke="lightgray" stroke-width="1" stroke-dasharray="5, 5" />
  <line x1="35" y1="150.0" x2="40" y2="150.0" stroke="black" stroke-width="1" />
  <text x="10" y="155.0" font-size="10" fill="black">100</text>
  <line x1="40" y1="150.0" x2="380" y2="150.0" stroke="lightgray" stroke-width="1" stroke-dasharray="5, 5" />
  <line x1="45.333333333333336" y1="141.11592632719396" x2="45.333333333333336" y2="150.21668472372698" stroke="black" stroke-width="1" />
  <rect x="40.53333333333333" y="143.9328277356446" width="9.6" height="6.067172264355406" fill="green" />
  <line x1="56.0" y1="139.1657638136511" x2="56.0" y2="143.49945828819068" stroke="black" stroke-width="1" />
  <rect x="51.199999999999996" y="141.33261105092095" width="9.6" height="1.3001083423617956" fill="green" />
  <line x1="66.66666666666666" y1="138.94907908992417" x2="66.66666666666666" y2="144.36619718309862" stroke="black" stroke-width="1" />
  <rect x="61.86666666666666" y="139.1657638136511" width="9.6" height="1.3001083423619093" fill="green" />
  <line x1="77.33333333333333" y1="138.2990249187432" x2="77.33333333333333" y2="143.71614301191767" stroke="black" stroke-width="1" />
  <rect x="72.53333333333333" y="139.1657638136511" width="9.6" height="2.6002166847237618" fill="red" />
  <line x1="87.99999999999999" y1="139.38244853737808" x2="87.99999999999999" y2="149.78331527627302" stroke="black" stroke-width="1" />
  <rect x="83.19999999999999" y="139.599133261105" width="9.6" height="4.767063921993611" fill="green" />
  <line x1="98.66666666666666" y1="139.38244853737808" x2="98.66666666666666" y2="144.58288190682555" stroke="black" stroke-width="1" />
  <rect x="93.86666666666666" y="139.599133261105" width="9.6" height="3.0335861321777315" fill="red" />
  <line x1="109.33333333333333" y1="140.24918743228596" x2="109.33333333333333" y2="142.63271939328274" stroke="black" stroke-width="1" />
  <rect x="104.53333333333333" y="140.89924160346692" width="9.6" height="1.5167930660888942" fill="green" />
  <line x1="119.99999999999999" y1="137.8656554712893" x2="119.99999999999999" y2="142.4160346695558" stroke="black" stroke-width="1" />
  <rect x="115.19999999999999" y="141.76598049837486" width="9.6" height="1" fill="red" />
  <line x1="130.66666666666666" y1="139.38244853737808" x2="130.66666666666666" y2="143.49945828819068" stroke="black" stroke-width="1" />
  <rect x="125.86666666666666" y="140.68255687974" width="9.6" height="2.81690140845069" fill="green" />
  <line x1="141.33333333333334" y1="136.13217768147348" x2="141.33333333333334" y2="144.79956663055253" stroke="black" stroke-width="1" />
  <rect x="136.53333333333333" y="136.13217768147348" width="9.6" height="5.63380281690138" fill="green" />
  <line x1="152.0" y1="128.9815817984832" x2="152.0" y2="138.51570964247014" stroke="black" stroke-width="1" />
  <rect x="147.2" y="131.5817984832069" width="9.6" height="1.0834236186348676" fill="red" />
  <line x1="162.66666666666666" y1="133.9653304442037" x2="162.66666666666666" y2="152.1668472372698" stroke="black" stroke-width="1" />
  <rect x="157.86666666666665" y="136.78223185265443" width="9.6" height="14.734561213434404" fill="red" />
  <line x1="173.33333333333334" y1="154.7670639219935" x2="173.33333333333334" y2="164.51787648970748" stroke="black" stroke-width="1" />
  <rect x="168.53333333333333" y="155.41711809317445" width="9.6" height="4.550379198266455" fill="green" />
  <line x1="184.0" y1="154.98374864572042" x2="184.0" y2="161.26760563380282" stroke="black" stroke-width="1" />
  <rect x="179.2" y="155.41711809317445" width="9.6" height="4.333694474539527" fill="red" />
  <line x1="194.66666666666666" y1="153.03358613217767" x2="194.66666666666666" y2="165.81798483206927" stroke="black" stroke-width="1" />
  <rect x="189.86666666666665" y="159.75081256771398" width="9.6" height="5.63380281690138" fill="red" />
  <line x1="205.33333333333334" y1="158.45070422535213" x2="205.33333333333334" y2="165.81798483206927" stroke="black" stroke-width="1" />
  <rect x="200.53333333333333" y="163.65113759479954" width="9.6" height="1.7334777898158222" fill="green" />
  <line x1="216.0" y1="157.5839653304442" x2="216.0" y2="165.60130010834234" stroke="black" stroke-width="1" />
  <rect x="211.2" y="157.80065005417117" width="9.6" height="4.76706392199344" fill="red" />
  <line x1="226.66666666666666" y1="159.75081256771398" x2="226.66666666666666" y2="168.2015167930661" stroke="black" stroke-width="1" />
  <rect x="221.86666666666665" y="162.5677139761646" width="9.6" height="3.683640303358686" fill="red" />
  <line x1="237.33333333333334" y1="159.534127843987" x2="237.33333333333334" y2="167.55146262188515" stroke="black" stroke-width="1" />
  <rect x="232.53333333333333" y="161.7009750812568" width="9.6" height="1.9501625135427503" fill="red" />
  <line x1="248.0" y1="159.9674972914409" x2="248.0" y2="170.36836403033584" stroke="black" stroke-width="1" />
  <rect x="243.2" y="161.05092091007583" width="9.6" height="7.800650054171172" fill="red" />
  <line x1="258.66666666666663" y1="167.33477789815817" x2="258.66666666666663" y2="177.30227518959913" stroke="black" stroke-width="1" />
  <rect x="253.86666666666665" y="168.2015167930661" width="9.6" height="7.583965330444187" fill="red" />
  <line x1="269.3333333333333" y1="165.81798483206927" x2="269.3333333333333" y2="174.05200433369447" stroke="black" stroke-width="1" />
  <rect x="264.53333333333336" y="169.71830985915489" width="9.6" height="4.333694474539584" fill="green" />
  <line x1="279.99999999999994" y1="169.93499458288193" x2="279.99999999999994" y2="174.70205850487542" stroke="black" stroke-width="1" />
  <rect x="275.2" y="169.93499458288193" width="9.6" height="3.6836403033585725" fill="red" />
  <line x1="290.66666666666663" y1="151.73347778981577" x2="290.66666666666663" y2="169.50162513542796" stroke="black" stroke-width="1" />
  <rect x="285.8666666666667" y="153.68364030335857" width="9.6" height="13.001083423618638" fill="green" />
  <line x1="301.3333333333333" y1="150.4333694474539" x2="301.3333333333333" y2="162.35102925243768" stroke="black" stroke-width="1" />
  <rect x="296.53333333333336" y="153.68364030335857" width="9.6" height="6.283856988082334" fill="red" />
  <line x1="311.99999999999994" y1="156.0671722643553" x2="311.99999999999994" y2="161.91765980498377" stroke="black" stroke-width="1" />
  <rect x="307.2" y="159.9674972914409" width="9.6" height="1" fill="red" />
  <line x1="322.66666666666663" y1="154.33369447453953" x2="322.66666666666663" y2="166.2513542795233" stroke="black" stroke-width="1" />
  <rect x="317.8666666666667" y="154.33369447453953" width="9.6" height="10.400866738894877" fill="red" />
  <line x1="333.3333333333333" y1="158.6673889490791" x2="333.3333333333333" y2="168.63488624052002" stroke="black" stroke-width="1" />
  <rect x="328.53333333333336" y="158.6673889490791" width="9.6" height="9.534127843986994" fill="green" />
  <line x1="343.99999999999994" y1="144.79956663055253" x2="343.99999999999994" y2="153.4669555796316" stroke="black" stroke-width="1" />
  <rect x="339.2" y="147.83315276273026" width="9.6" height="5.633802816901323" fill="green" />
  <line x1="354.66666666666663" y1="145.4496208017335" x2="354.66666666666663" y2="152.6002166847237" stroke="black" stroke-width="1" />
  <rect x="349.8666666666667" y="150.86673889490794" width="9.6" height="1" fill="red" />
</svg>