<svg width="400" height="300" xmlns="http://www.w3.org/2000/svg">
  <line x1="40" y1="250" x2="40" y2="50" stroke="black" stroke-width="2" />
  <line x1="35" y1="250.0" x2="40" y2="250.0" stroke="black" stroke-width="1" />
  <text x="10" y="255.0" font-size="10" fill="black">75</text>
  <line x1="40" y1="250.0" x2="380" y2="250.0" stroke="lightgray" stroke-width="1" stroke-dasharray="5, 5" />
  <line x1="35" y1="210.0" x2="40" y2="210.0" stroke="black" stroke-width="1" />
  <text x="10" y="215.0" font-size="10" fill="black">85</text>
  <line x1="40" y1="210.0" x2="380" y2="210.0" stroke="lightgray" stroke-width="1" stroke-dasharray="5, 5" />
  <line x1="35" y1="170.0" x2="40" y2="170.0" stroke="black" stroke-width="1" />
  <text x="10" y="175.0" font-size="10" fill="black">95</text>
  <line x1="40" y1="170.0" x2="380" y2="170.0" stroke="lightgray" stroke-width="1" stroke-dasharray="5, 5" />
  <line x1="35" y1="130.0" x2="40" y2="130.0" stroke="black" stroke-width="1" />
  <text x="10" y="135.0" font-size="10" fill="black">105</text>
  <line x1="40" y1="130.0" x2="380" y2="130.0" stroke="lightgray" stroke-width="1" stroke-dasharray="5, 5" />
  <line x1="35" y1="90.0" x2="40" y2="90.0" stroke="black" stroke-width="1" />
  <text x="10" y="95.0" font-size="10" fill="black">115</text>
  <line x1="40" y1="90.0" x2="380" y2="90.0" stroke="lightgray" stroke-width="1" stroke-dasharray="5, 5" />
  <line x1="35" y1="50.0" x2="40" y2="50.0" stroke="black" stroke-width="1" />
  <text x="10" y="55.0" font-size="10" fill="black">125</text>
  <line x1="40" y1="50.0" x2="380" y2="50.0" stroke="lightgray" stroke-width="1" stroke-dasharray="5, 5" />
  <line x1="35" y1="150.0" x2="40" y2="150.0" stroke="black" stroke-width="1" />
  <text x="10" y="155.0" font-size="10" fill="black">100</text>
  <line x1="40" y1="150.0" x2="380" y2="150.0" stroke="lightgray" stroke-width="1" stroke-dasharray="5, 5" />
  <line x1="45.333333333333336" y1="147.17287488061118" x2="45.333333333333336" y2="153.16332378223495" stroke="black" stroke-width="1" />
  <rect x="40.53333333333333" y="148.2273161413562" width="9.6" height="1.772683858643802" fill="green" />
  <line x1="56.0" y1="144.43744030563516" x2="56.0" y2="150.18338108882523" stroke="black" stroke-width="1" />
  <rect x="51.199999999999996" y="144.45272206303724" width="9.6" height="3.484240687679062" fill="green" />
  <line x1="66.66666666666666" y1="144.26934097421207" x2="66.66666666666666" y2="151.10028653295132" stroke="black" stroke-width="1" />
  <rect x="61.86666666666666" y="145.10983763132765" width="9.6" height="4.752626552053471" fill="red" />
  <line x1="77.33333333333333" y1="149.40401146131802" x2="77.33333333333333" y2="153.92741165234003" stroke="black" stroke-width="1" />
  <rect x="72.53333333333333" y="150.99331423113654" width="9.6" height="1" fill="red" />
  <line x1="87.99999999999999" y1="147.69245463228276" x2="87.99999999999999" y2="156.84622731614138" stroke="black" stroke-width="1" />
  <rect x="83.19999999999999" y="150.38204393505254" width="9.6" height="4.446991404011499" fill="red" />
  <line x1="98.66666666666666" y1="144.116523400191" x2="98.66666666666666" y2="151.60458452722065" stroke="black" stroke-width="1" />
  <rect x="93.86666666666666" y="146.56160458452723" width="9.6" height="3.0716332378223683" fill="green" />
  <line x1="109.33333333333333" y1="141.51862464183375" x2="109.33333333333333" y2="147.72301814708692" stroke="black" stroke-width="1" />
  <rect x="104.53333333333333" y="144.6055396370583" width="9.6" height="2.047755491881503" fill="green" />
  <line x1="119.99999999999999" y1="145.8586437440306" x2="119.99999999999999" y2="153.59121298949378" stroke="black" stroke-width="1" />
  <rect x="115.19999999999999" y="146.25596943648526" width="9.6" height="6.953199617956045" fill="green" />
  <line x1="130.66666666666666" y1="144.75835721107921" x2="130.66666666666666" y2="156.70869149952244" stroke="black" stroke-width="1" />
  <rect x="125.86666666666666" y="149.8777459407832" width="9.6" height="4.477554918815713" fill="red" />
  <line x1="141.33333333333334" y1="134.41260744985675" x2="141.33333333333334" y2="158.35912129894945" stroke="black" stroke-width="1" />
  <rect x="136.53333333333333" y="135.84909264565425" width="9.6" height="21.394460362941743" fill="red" />
  <line x1="152.0" y1="154.00382043935053" x2="152.0" y2="166.42788920725883" stroke="black" stroke-width="1" />
  <rect x="147.2" y="156.58643744030564" width="9.6" height="6.93791786055391" fill="red" />
  <line x1="162.66666666666666" y1="162.31709646609363" x2="162.66666666666666" y2="173.09073543457498" stroke="black" stroke-width="1" />
  <rect x="157.86666666666665" y="163.95224450811844" width="9.6" height="6.968481375358124" fill="red" />
  <line x1="173.33333333333334" y1="168.75071633237826" x2="173.33333333333334" y2="175.35243553008593" stroke="black" stroke-width="1" />
  <rect x="168.53333333333333" y="171.5014326647564" width="9.6" height="1.8490926456543093" fill="green" />
  <line x1="184.0" y1="170.24848137535815" x2="184.0" y2="175.59694364851958" stroke="black" stroke-width="1" />
  <rect x="179.2" y="173.88538681948427" width="9.6" height="1" fill="green" />
  <line x1="194.66666666666666" y1="167.95606494746897" x2="194.66666666666666" y2="181.0370964660936" stroke="black" stroke-width="1" />
  <rect x="189.86666666666665" y="171.40974212034382" width="9.6" height="5.7612225405922" fill="red" />
  <line x1="205.33333333333334" y1="168.93409742120343" x2="205.33333333333334" y2="175.94842406876785" stroke="black" stroke-width="1" />
  <rect x="200.53333333333333" y="173.30468003820442" width="9.6" height="1.130850047755473" fill="red" />
  <line x1="216.0" y1="172.02101241642788" x2="216.0" y2="178.17803247373445" stroke="black" stroke-width="1" />
  <rect x="211.2" y="172.34192932187204" width="9.6" height="1.482330468003795" fill="red" />
  <line x1="226.66666666666666" y1="167.92550143266476" x2="226.66666666666666" y2="180.159923591213" stroke="black" stroke-width="1" />
  <rect x="221.86666666666665" y="168.61318051575932" width="9.6" height="7.274116523400153" fill="green" />
  <line x1="237.33333333333334" y1="161.62941738299907" x2="237.33333333333334" y2="168.61318051575932" stroke="black" stroke-width="1" />
  <rect x="232.53333333333333" y="162.80611270296083" width="9.6" height="3.0257879656160753" fill="green" />
  <line x1="248.0" y1="157.5186246418338" x2="248.0" y2="164.2196752626552" stroke="black" stroke-width="1" />
  <rect x="243.2" y="160.97230181470871" width="9.6" height="3.1021967526265257" fill="green" />
  <line x1="258.66666666666663" y1="156.02101241642788" x2="258.66666666666663" y2="160.97230181470871" stroke="black" stroke-width="1" />
  <rect x="253.86666666666665" y="157.39637058261695" width="9.6" height="3.5759312320917616" fill="green" />
  <line x1="269.3333333333333" y1="153.63705826170013" x2="269.3333333333333" y2="160.68194842406876" stroke="black" stroke-width="1" />
  <rect x="264.53333333333336" y="154.6303724928366" width="9.6" height="5.3944603629418" fill="red" />
  <line x1="279.99999999999994" y1="158.603629417383" x2="279.99999999999994" y2="166.48901623686726" stroke="black" stroke-width="1" />
  <rect x="275.2" y="158.78701050620822" width="9.6" height="5.455587392550115" fill="red" />
  <line x1="290.66666666666663" y1="138.09551098376306" x2="290.66666666666663" y2="155.65425023877742" stroke="black" stroke-width="1" />
  <rect x="285.8666666666667" y="143.52053486150902" width="9.6" height="8.05348615090736" fill="green" />
  <line x1="301.3333333333333" y1="136.90353390639922" x2="301.3333333333333" y2="150.65711556829035" stroke="black" stroke-width="1" />
  <rect x="296.53333333333336" y="142.28271251193883" width="9.6" height="1.2072588347660371" fill="green" />
  <line x1="311.99999999999994" y1="140.35721107927407" x2="311.99999999999994" y2="149.251193887297" stroke="black" stroke-width="1" />
  <rect x="307.2" y="141.59503342884426" width="9.6" height="4.64565425023892" fill="red" />
  <line x1="322.66666666666663" y1="133.63323782234954" x2="322.66666666666663" y2="143.06208213944603" stroke="black" stroke-width="1" />
  <rect x="317.8666666666667" y="136.720152817574" width="9.6" height="1" fill="green" />
  <line x1="333.3333333333333" y1="126.61891117478507" x2="333.3333333333333" y2="138.33390639923596" stroke="black" stroke-width="1" />
  <rect x="328.53333333333336" y="131.14231136580707" width="9.6" height="5.562559694364836" fill="green" />
  <line x1="343.99999999999994" y1="124.18911174785103" x2="343.99999999999994" y2="133.25119388729706" stroke="black" stroke-width="1" />
  <rect x="339.2" y="128.0248328557784" width="9.6" height="1" fill="red" />
  <line x1="354.66666666666663" y1="125.41165234001915" x2="354.66666666666663" y2="129.65982808022932" stroke="black" stroke-width="1" />
  <rect x="349.8666666666667" y="127.24546322827132" width="9.6" height="1" fill="green" />
</svg>