<svg width="400" height="300" xmlns="http://www.w3.org/2000/svg">
  <line x1="40" y1="250" x2="40" y2="50" stroke="black" stroke-width="2" />
  <line x1="35" y1="250.0" x2="40" y2="250.0" stroke="black" stroke-width="1" />
  <text x="10" y="255.0" font-size="10" fill="black">75</text>
  <line x1="40" y1="250.0" x2="380" y2="250.0" stroke="lightgray" stroke-width="1" stroke-dasharray="5, 5" />
  <line x1="35" y1="210.0" x2="40" y2="210.0" stroke="black" stroke-width="1" />
  <text x="10" y="215.0" font-size="10" fill="black">85</text>
  <line x1="40" y1="210.0" x2="380" y2="210.0" stroke="lightgray" stroke-width="1" stroke-dasharray="5, 5" />
  <line x1="35" y1="170.0" x2="40" y2="170.0" stroke="black" stroke-width="1" />
  <text x="10" y="175.0" font-size="10" fill="black">95</text>
  <line x1="40" y1="170.0" x2="380" y2="170.0" stroke="lightgray" stroke-width="1" stroke-dasharray="5, 5" />
  <line x1="35" y1="130.0" x2="40" y2="130.0" stroke="black" stroke-width="1" />
  <text x="10" y="135.0" font-size="10" fill="black">105</text>
  <line x1="40" y1="130.0" x2="380" y2="130.0" stroke="lightgray" stroke-width="1" stroke-dasharray="5, 5" />
  <line x1="35" y1="90.0" x2="40" y2="90.0" stroke="black" stroke-width="1" />
  <text x="10" y="95.0" font-size="10" fill="black">115</text>
  <line x1="40" y1="90.0" x2="380" y2="90.0" stroke="lightgray" stroke-width="1" stroke-dasharray="5, 5" />
  <line x1="35" y1="50.0" x2="40" y2="50.0" stroke="black" stroke-width="1" />
  <text x="10" y="55.0" font-size="10" fill="black">125</text>
  <line x1="40" y1="50.0" x2="380" y2="50.0" stroke="lightgray" stroke-width="1" stroke-dasharray="5, 5" />
  <line x1="35" y1="150.0" x2="40" y2="150.0" stroke="black" stroke-width="1" />
  <text x="10" y="155.0" font-size="10" fill="black">100</text>
  <line x1="40" y1="150.0" x2="380" y2="150.0" stroke="lightgray" stroke-width="1" stroke-dasharray="5, 5" />
  <line x1="45.333333333333336" y1="148.0473517207713" x2="45.333333333333336" y2="151.2692213814986" stroke="black" stroke-width="1" />
  <rect x="40.53333333333333" y="149.80473517207713" width="9.6" height="1" fill="green" />
  <line x1="56.0" y1="148.3402489626556" x2="56.0" y2="152.92897241884305" stroke="black" stroke-width="1" />
  <rect x="51.199999999999996" y="149.60947034415426" width="9.6" height="2.8313400048816106" fill="red" />
  <line x1="66.66666666666666" y1="150.87869172565286" x2="66.66666666666666" y2="153.41713448865028" stroke="black" stroke-width="1" />
  <rect x="61.86666666666666" y="152.44081034903587" width="9.6" height="1" fill="red" />
  <line x1="77.33333333333333" y1="152.92897241884305" x2="77.33333333333333" y2="157.32243104710767" stroke="black" stroke-width="1" />
  <rect x="72.53333333333333" y="154.00292897241883" width="9.6" height="2.733707590920176" fill="red" />
  <line x1="87.99999999999999" y1="154.1981938003417" x2="87.99999999999999" y2="157.51769587503048" stroke="black" stroke-width="1" />
  <rect x="83.19999999999999" y="154.97925311203318" width="9.6" height="1.5621186233830144" fill="green" />
  <line x1="98.66666666666666" y1="155.0768855259946" x2="98.66666666666666" y2="157.32243104710767" stroke="black" stroke-width="1" />
  <rect x="93.86666666666666" y="156.2484744935319" width="9.6" height="1" fill="green" />
  <line x1="109.33333333333333" y1="155.1745179399561" x2="109.33333333333333" y2="157.61532828899198" stroke="black" stroke-width="1" />
  <rect x="104.53333333333333" y="155.76031242372466" width="9.6" height="1" fill="green" />
  <line x1="119.99999999999999" y1="153.51476690261165" x2="119.99999999999999" y2="156.93190139126193" stroke="black" stroke-width="1" />
  <rect x="115.19999999999999" y="155.4674151818404" width="9.6" height="1" fill="green" />
  <line x1="130.66666666666666" y1="153.71003173053447" x2="130.66666666666666" y2="157.8105931169148" stroke="black" stroke-width="1" />
  <rect x="125.86666666666666" y="154.88162069807174" width="9.6" height="1.5621186233829576" fill="red" />
  <line x1="141.33333333333334" y1="155.36978276787892" x2="141.33333333333334" y2="158.20112277276053" stroke="black" stroke-width="1" />
  <rect x="136.53333333333333" y="155.4674151818404" width="9.6" height="1.366853795460031" fill="green" />
  <line x1="152.0" y1="149.90236758603857" x2="152.0" y2="156.15084207957034" stroke="black" stroke-width="1" />
  <rect x="147.2" y="150.97632413961435" width="9.6" height="4.49109104222606" fill="green" />
  <line x1="162.66666666666666" y1="148.14498413473274" x2="162.66666666666666" y2="152.3431779350745" stroke="black" stroke-width="1" />
  <rect x="157.86666666666665" y="150.0" width="9.6" height="1" fill="green" />
  <line x1="173.33333333333334" y1="151.65975103734445" x2="173.33333333333334" y2="155.27215035391748" stroke="black" stroke-width="1" />
  <rect x="168.53333333333333" y="152.5384427629973" width="9.6" height="1.6597510373443924" fill="green" />
  <line x1="184.0" y1="146.77813033927265" x2="184.0" y2="153.31950207468873" stroke="black" stroke-width="1" />
  <rect x="179.2" y="150.39052965584574" width="9.6" height="1.7573834513058273" fill="green" />
  <line x1="194.66666666666666" y1="150.48816206980712" x2="194.66666666666666" y2="154.78398828411036" stroke="black" stroke-width="1" />
  <rect x="189.86666666666665" y="151.3668537954601" width="9.6" height="1.5621186233829576" fill="red" />
  <line x1="205.33333333333334" y1="148.53551379057848" x2="205.33333333333334" y2="154.00292897241883" stroke="black" stroke-width="1" />
  <rect x="200.53333333333333" y="150.68342689773004" width="9.6" height="2.9289724188430455" fill="green" />
  <line x1="216.0" y1="146.97339516719552" x2="216.0" y2="151.65975103734445" stroke="black" stroke-width="1" />
  <rect x="211.2" y="150.48816206980712" width="9.6" height="1" fill="green" />
  <line x1="226.66666666666666" y1="150.09763241396143" x2="226.66666666666666" y2="155.36978276787892" stroke="black" stroke-width="1" />
  <rect x="221.86666666666665" y="150.48816206980712" width="9.6" height="2.8313400048816106" fill="red" />
  <line x1="237.33333333333334" y1="144.53258481815965" x2="237.33333333333334" y2="150.97632413961435" stroke="black" stroke-width="1" />
  <rect x="232.53333333333333" y="146.28996826946548" width="9.6" height="4.686355870148873" fill="green" />
  <line x1="248.0" y1="142.87283378081514" x2="248.0" y2="145.89943861361974" stroke="black" stroke-width="1" />
  <rect x="243.2" y="144.82548206004395" width="9.6" height="1" fill="green" />
  <line x1="258.66666666666663" y1="139.9438613619721" x2="258.66666666666663" y2="145.8018061996583" stroke="black" stroke-width="1" />
  <rect x="253.86666666666665" y="140.13912618989508" width="9.6" height="5.565047595801786" fill="green" />
  <line x1="269.3333333333333" y1="136.72199170124486" x2="269.3333333333333" y2="140.23675860385652" stroke="black" stroke-width="1" />
  <rect x="264.53333333333336" y="137.01488894312916" width="9.6" height="2.928972418842932" fill="green" />
  <line x1="279.99999999999994" y1="140.62728825970225" x2="279.99999999999994" y2="149.60947034415426" stroke="black" stroke-width="1" />
  <rect x="275.2" y="142.87283378081514" width="9.6" height="3.3195020746888986" fill="red" />
  <line x1="290.66666666666663" y1="140.52965584574082" x2="290.66666666666663" y2="145.313644129851" stroke="black" stroke-width="1" />
  <rect x="285.8666666666667" y="141.50597998535505" width="9.6" height="3.3195020746888986" fill="green" />
  <line x1="301.3333333333333" y1="141.11545032950931" x2="301.3333333333333" y2="153.41713448865028" stroke="black" stroke-width="1" />
  <rect x="296.53333333333336" y="141.79887722723936" width="9.6" height="9.567976568220729" fill="red" />
  <line x1="311.99999999999994" y1="144.63021723212097" x2="311.99999999999994" y2="150.58579448376867" stroke="black" stroke-width="1" />
  <rect x="307.2" y="146.87576275323408" width="9.6" height="1.5621186233829576" fill="green" />
  <line x1="322.66666666666663" y1="144.04442274835247" x2="322.66666666666663" y2="147.55918965096413" stroke="black" stroke-width="1" />
  <rect x="317.8666666666667" y="144.82548206004395" width="9.6" height="1" fill="red" />
  <line x1="333.3333333333333" y1="140.92018550158656" x2="333.3333333333333" y2="145.313644129851" stroke="black" stroke-width="1" />
  <rect x="328.53333333333336" y="142.87283378081514" width="9.6" height="2.1479131071516804" fill="green" />
  <line x1="343.99999999999994" y1="138.38174273858925" x2="343.99999999999994" y2="142.6775689528924" stroke="black" stroke-width="1" />
  <rect x="339.2" y="139.26043446424205" width="9.6" height="2.538442762997306" fill="green" />
  <line x1="354.66666666666663" y1="136.33146204539912" x2="354.66666666666663" y2="141.21308274347086" stroke="black" stroke-width="1" />
  <rect x="349.8666666666667" y="138.8699048083963" width="9.6" height="1" fill="green" />
</svg>