<svg width="400" height="300" xmlns="http://www.w3.org/2000/svg">
  <line x1="40" y1="250" x2="40" y2="50" stroke="black" stroke-width="2" />
  <line x1="35" y1="250.0" x2="40" y2="250.0" stroke="black" stroke-width="1" />
  <text x="10" y="255.0" font-size="10" fill="black">75</text>
  <line x1="40" y1="250.0" x2="380" y2="250.0" stroke="lightgray" stroke-width="1" stroke-dasharray="5, 5" />
  <line x1="35" y1="210.0" x2="40" y2="210.0" stroke="black" stroke-width="1" />
  <text x="10" y="215.0" font-size="10" fill="black">85</text>
  <line x1="40" y1="210.0" x2="380" y2="210.0" stroke="lightgray" stroke-width="1" stroke-dasharray="5, 5" />
  <line x1="35" y1="170.0" x2="40" y2="170.0" stroke="black" stroke-width="1" />
  <text x="10" y="175.0" font-size="10" fill="black">95</text>
  <line x1="40" y1="170.0" x2="380" y2="170.0" stroke="lightgray" stroke-width="1" stroke-dasharray="5, 5" />
  <line x1="35" y1="130.0" x2="40" y2="130.0" stroke="black" stroke-width="1" />
  <text x="10" y="135.0" font-size="10" fill="black">105</text>
  <line x1="40" y1="130.0" x2="380" y2="130.0" stroke="lightgray" stroke-width="1" stroke-dasharray="5, 5" />
  <line x1="35" y1="90.0" x2="40" y2="90.0" stroke="black" stroke-width="1" />
  <text x="10" y="95.0" font-size="10" fill="black">115</text>
  <line x1="40" y1="90.0" x2="380" y2="90.0" stroke="lightgray" stroke-width="1" stroke-dasharray="5, 5" />
  <line x1="35" y1="50.0" x2="40" y2="50.0" stroke="black" stroke-width="1" />
  <text x="10" y="55.0" font-size="10" fill="black">125</text>
  <line x1="40" y1="50.0" x2="380" y2="50.0" stroke="lightgray" stroke-width="1" stroke-dasharray="5, 5" />
  <line x1="35" y1="150.0" x2="40" y2="150.0" stroke="black" stroke-width="1" />
  <text x="10" y="155.0" font-size="10" fill="black">100</text>
  <line x1="40" y1="150.0" x2="380" y2="150.0" stroke="lightgray" stroke-width="1" stroke-dasharray="5, 5" />
  <line x1="45.333333333333336" y1="142.85327558202488" x2="45.333333333333336" y2="150.0" stroke="black" stroke-width="1" />
  <rect x="40.53333333333333" y="143.5029778018408" width="9.6" height="6.497022198159186" fill="green" />
  <line x1="56.0" y1="140.47103410936649" x2="56.0" y2="146.75148890092038" stroke="black" stroke-width="1" />
  <rect x="51.199999999999996" y="142.85327558202488" width="9.6" height="3.8982133188955004" fill="red" />
  <line x1="66.66666666666666" y1="143.28641039523546" x2="66.66666666666666" y2="148.0508933405522" stroke="black" stroke-width="1" />
  <rect x="61.86666666666666" y="145.23551705468327" width="9.6" height="1" fill="green" />
  <line x1="77.33333333333333" y1="142.85327558202488" x2="77.33333333333333" y2="147.8343259339469" stroke="black" stroke-width="1" />
  <rect x="72.53333333333333" y="146.1017866811045" width="9.6" height="1.7325392528424004" fill="green" />
  <line x1="87.99999999999999" y1="141.12073632918242" x2="87.99999999999999" y2="147.18462371413096" stroke="black" stroke-width="1" />
  <rect x="83.19999999999999" y="142.20357336220906" width="9.6" height="4.764482945316615" fill="green" />
  <line x1="98.66666666666666" y1="141.553871142393" x2="98.66666666666666" y2="144.36924742826199" stroke="black" stroke-width="1" />
  <rect x="93.86666666666666" y="141.77043854899836" width="9.6" height="1.0828370330265216" fill="green" />
  <line x1="109.33333333333333" y1="140.68760151597183" x2="109.33333333333333" y2="143.9361126150514" stroke="black" stroke-width="1" />
  <rect x="104.53333333333333" y="140.68760151597183" width="9.6" height="1.2994044396318714" fill="red" />
  <line x1="119.99999999999999" y1="140.47103410936649" x2="119.99999999999999" y2="143.5029778018408" stroke="black" stroke-width="1" />
  <rect x="115.19999999999999" y="141.553871142393" width="9.6" height="1.2994044396318714" fill="green" />
  <line x1="130.66666666666666" y1="137.22252301028692" x2="130.66666666666666" y2="141.553871142393" stroke="black" stroke-width="1" />
  <rect x="125.86666666666666" y="138.5219274499188" width="9.6" height="3.031943692474215" fill="green" />
  <line x1="141.33333333333334" y1="135.7065511640498" x2="141.33333333333334" y2="138.95506226312938" stroke="black" stroke-width="1" />
  <rect x="136.53333333333333" y="137.8722252301028" width="9.6" height="1" fill="red" />
  <line x1="152.0" y1="137.22252301028692" x2="152.0" y2="142.63670817541964" stroke="black" stroke-width="1" />
  <rect x="147.2" y="138.5219274499188" width="9.6" height="1" fill="red" />
  <line x1="162.66666666666666" y1="135.05684894423382" x2="162.66666666666666" y2="145.23551705468327" stroke="black" stroke-width="1" />
  <rect x="157.86666666666665" y="138.30536004331344" width="9.6" height="6.497022198159129" fill="red" />
  <line x1="173.33333333333334" y1="144.58581483486734" x2="173.33333333333334" y2="150.4331348132106" stroke="black" stroke-width="1" />
  <rect x="168.53333333333333" y="146.53492149431509" width="9.6" height="2.815376285868979" fill="green" />
  <line x1="184.0" y1="139.6047644829453" x2="184.0" y2="147.6177585273416" stroke="black" stroke-width="1" />
  <rect x="179.2" y="143.71954520844605" width="9.6" height="3.2485110990796215" fill="green" />
  <line x1="194.66666666666666" y1="143.71954520844605" x2="194.66666666666666" y2="149.35029778018406" stroke="black" stroke-width="1" />
  <rect x="189.86666666666665" y="143.71954520844605" width="9.6" height="5.6307525717380145" fill="red" />
  <line x1="205.33333333333334" y1="145.88521927449915" x2="205.33333333333334" y2="150.4331348132106" stroke="black" stroke-width="1" />
  <rect x="200.53333333333333" y="147.6177585273416" width="9.6" height="1.7325392528424572" fill="red" />
  <line x1="216.0" y1="142.4201407688143" x2="216.0" y2="149.35029778018406" stroke="black" stroke-width="1" />
  <rect x="211.2" y="147.40119112073626" width="9.6" height="1.949106659447807" fill="green" />
  <line x1="226.66666666666666" y1="144.15268002165675" x2="226.66666666666666" y2="150.21656740660524" stroke="black" stroke-width="1" />
  <rect x="221.86666666666665" y="147.40119112073626" width="9.6" height="2.5988088792637427" fill="red" />
  <line x1="237.33333333333334" y1="143.06984298863023" x2="237.33333333333334" y2="149.5668651867894" stroke="black" stroke-width="1" />
  <rect x="232.53333333333333" y="147.6177585273416" width="9.6" height="1" fill="green" />
  <line x1="248.0" y1="143.5029778018408" x2="248.0" y2="147.40119112073626" stroke="black" stroke-width="1" />
  <rect x="243.2" y="145.45208446128856" width="9.6" height="1" fill="green" />
  <line x1="258.66666666666663" y1="142.85327558202488" x2="258.66666666666663" y2="148.0508933405522" stroke="black" stroke-width="1" />
  <rect x="253.86666666666665" y="145.01894964807792" width="9.6" height="1" fill="green" />
  <line x1="269.3333333333333" y1="134.62371413102323" x2="269.3333333333333" y2="144.15268002165675" stroke="black" stroke-width="1" />
  <rect x="264.53333333333336" y="137.22252301028692" width="9.6" height="6.930157011369829" fill="green" />
  <line x1="279.99999999999994" y1="136.13968597726046" x2="279.99999999999994" y2="140.0378992961559" stroke="black" stroke-width="1" />
  <rect x="275.2" y="136.3562533838657" width="9.6" height="1" fill="green" />
  <line x1="290.66666666666663" y1="128.12669193286405" x2="290.66666666666663" y2="134.19057931781265" stroke="black" stroke-width="1" />
  <rect x="285.8666666666667" y="129.20952896589063" width="9.6" height="4.981050351922022" fill="green" />
  <line x1="301.3333333333333" y1="145.01894964807792" x2="301.3333333333333" y2="166.0259880887926" stroke="black" stroke-width="1" />
  <rect x="296.53333333333336" y="145.88521927449915" width="9.6" height="20.140768814293438" fill="red" />
  <line x1="311.99999999999994" y1="162.99404439631832" x2="311.99999999999994" y2="169.9242014076881" stroke="black" stroke-width="1" />
  <rect x="307.2" y="164.51001624255548" width="9.6" height="1" fill="red" />
  <line x1="322.66666666666663" y1="159.09583107742282" x2="322.66666666666663" y2="165.37628586897665" stroke="black" stroke-width="1" />
  <rect x="317.8666666666667" y="160.82837033026533" width="9.6" height="1.5159718462371075" fill="red" />
  <line x1="333.3333333333333" y1="158.2295614510016" x2="333.3333333333333" y2="163.64374661613425" stroke="black" stroke-width="1" />
  <rect x="328.53333333333336" y="159.09583107742282" width="9.6" height="3.2485110990796215" fill="green" />
  <line x1="343.99999999999994" y1="148.26746074715754" x2="343.99999999999994" y2="158.44612885760694" stroke="black" stroke-width="1" />
  <rect x="339.2" y="149.5668651867894" width="9.6" height="8.012994044396237" fill="green" />
  <line x1="354.66666666666663" y1="142.20357336220906" x2="354.66666666666663" y2="149.35029778018406" stroke="black" stroke-width="1" />
  <rect x="349.8666666666667" y="143.9361126150514" width="9.6" height="5.414185165132665" fill="green" />
</svg>