<svg width="400" height="300" xmlns="http://www.w3.org/2000/svg">
  <line x1="40" y1="250" x2="40" y2="50" stroke="black" stroke-width="2" />
  <line x1="35" y1="250.0" x2="40" y2="250.0" stroke="black" stroke-width="1" />
  <text x="10" y="255.0" font-size="10" fill="black">75</text>
  <line x1="40" y1="250.0" x2="380" y2="250.0" stroke="lightgray" stroke-width="1" stroke-dasharray="5, 5" />
  <line x1="35" y1="210.0" x2="40" y2="210.0" stroke="black" stroke-width="1" />
  <text x="10" y="215.0" font-size="10" fill="black">85</text>
  <line x1="40" y1="210.0" x2="380" y2="210.0" stroke="lightgray" stroke-width="1" stroke-dasharray="5, 5" />
  <line x1="35" y1="170.0" x2="40" y2="170.0" stroke="black" stroke-width="1" />
  <text x="10" y="175.0" font-size="10" fill="black">95</text>
  <line x1="40" y1="170.0" x2="380" y2="170.0" stroke="lightgray" stroke-width="1" stroke-dasharray="5, 5" />
  <line x1="35" y1="130.0" x2="40" y2="130.0" stroke="black" stroke-width="1" />
  <text x="10" y="135.0" font-size="10" fill="black">105</text>
  <line x1="40" y1="130.0" x2="380" y2="130.0" stroke="lightgray" stroke-width="1" stroke-dasharray="5, 5" />
  <line x1="35" y1="90.0" x2="40" y2="90.0" stroke="black" stroke-width="1" />
  <text x="10" y="95.0" font-size="10" fill="black">115</text>
  <line x1="40" y1="90.0" x2="380" y2="90.0" stroke="lightgray" stroke-width="1" stroke-dasharray="5, 5" />
  <line x1="35" y1="50.0" x2="40" y2="50.0" stroke="black" stroke-width="1" />
  <text x="10" y="55.0" font-size="10" fill="black">125</text>
  <line x1="40" y1="50.0" x2="380" y2="50.0" stroke="lightgray" stroke-width="1" stroke-dasharray="5, 5" />
  <line x1="35" y1="150.0" x2="40" y2="150.0" stroke="black" stroke-width="1" />
  <text x="10" y="155.0" font-size="10" fill="black">100</text>
  <line x1="40" y1="150.0" x2="380" y2="150.0" stroke="lightgray" stroke-width="1" stroke-dasharray="5, 5" />
  <line x1="45.333333333333336" y1="149.497349032569" x2="45.333333333333336" y2="154.6959994491496" stroke="black" stroke-width="1" />
  <rect x="40.53333333333333" y="150.0" width="9.6" height="2.2309440198306447" fill="red" />
  <line x1="56.0" y1="148.36122013358118" x2="56.0" y2="152.6509674309715" stroke="black" stroke-width="1" />
  <rect x="51.199999999999996" y="151.47352475383877" width="9.6" height="1" fill="green" />
  <line x1="66.66666666666666" y1="148.01005301934867" x2="66.66666666666666" y2="153.73201129243267" stroke="black" stroke-width="1" />
  <rect x="61.86666666666666" y="150.18591200165253" width="9.6" height="1" fill="green" />
  <line x1="77.33333333333333" y1="148.29924946636368" x2="77.33333333333333" y2="152.4030847621015" stroke="black" stroke-width="1" />
  <rect x="72.53333333333333" y="149.5937478482407" width="9.6" height="2.3686566136472607" fill="red" />
  <line x1="87.99999999999999" y1="148.6022171727604" x2="87.99999999999999" y2="157.0921985815603" stroke="black" stroke-width="1" />
  <rect x="83.19999999999999" y="151.14990015836946" width="9.6" height="1" fill="red" />
  <line x1="98.66666666666666" y1="147.04950767747704" x2="98.66666666666666" y2="151.70075053363627" stroke="black" stroke-width="1" />
  <rect x="93.86666666666666" y="147.5280589409901" width="9.6" height="2.416856021483227" fill="green" />
  <line x1="109.33333333333333" y1="142.308751635337" x2="109.33333333333333" y2="146.68112648901734" stroke="black" stroke-width="1" />
  <rect x="104.53333333333333" y="145.09054603043444" width="9.6" height="1" fill="red" />
  <line x1="119.99999999999999" y1="142.13661089306606" x2="119.99999999999999" y2="148.0307099084211" stroke="black" stroke-width="1" />
  <rect x="115.19999999999999" y="144.11278661433585" width="9.6" height="1.4597534944570612" fill="red" />
  <line x1="130.66666666666666" y1="141.79232940852432" x2="130.66666666666666" y2="147.96873924120354" stroke="black" stroke-width="1" />
  <rect x="125.86666666666666" y="144.42952558011422" width="9.6" height="1" fill="red" />
  <line x1="141.33333333333334" y1="141.95069889141354" x2="141.33333333333334" y2="147.6244577566618" stroke="black" stroke-width="1" />
  <rect x="136.53333333333333" y="142.66680437926044" width="9.6" height="1" fill="green" />
  <line x1="152.0" y1="141.50657577635474" x2="152.0" y2="146.09584796529634" stroke="black" stroke-width="1" />
  <rect x="147.2" y="143.6101356469049" width="9.6" height="1" fill="green" />
  <line x1="162.66666666666666" y1="136.4078358465881" x2="162.66666666666666" y2="142.49466363698957" stroke="black" stroke-width="1" />
  <rect x="157.86666666666665" y="137.77112166907665" width="9.6" height="4.241547889554454" fill="green" />
  <line x1="173.33333333333334" y1="131.39502857536314" x2="173.33333333333334" y2="138.3219720443434" stroke="black" stroke-width="1" />
  <rect x="168.53333333333333" y="133.98402533911724" width="9.6" height="2.8781932107690977" fill="green" />
  <line x1="184.0" y1="132.73084073538524" x2="184.0" y2="143.97507402051917" stroke="black" stroke-width="1" />
  <rect x="179.2" y="133.9771397094264" width="9.6" height="5.990497831026573" fill="red" />
  <line x1="194.66666666666666" y1="136.44219513874543" x2="194.66666666666666" y2="142.19169593059286" stroke="black" stroke-width="1" />
  <rect x="189.86666666666665" y="139.01053501342693" width="9.6" height="1" fill="green" />
  <line x1="205.33333333333334" y1="137.2202712938098" x2="205.33333333333334" y2="153.8903807753219" stroke="black" stroke-width="1" />
  <rect x="200.53333333333333" y="138.01900433794663" width="9.6" height="2.9057357295325232" fill="red" />
  <line x1="216.0" y1="133.55766714866076" x2="216.0" y2="142.95600082627556" stroke="black" stroke-width="1" />
  <rect x="211.2" y="137.53012462989733" width="9.6" height="2.630310541899064" fill="green" />
  <line x1="226.66666666666666" y1="142.78386008400463" x2="226.66666666666666" y2="151.34269778971282" stroke="black" stroke-width="1" />
  <rect x="221.86666666666665" y="143.9199889829925" width="9.6" height="1" fill="green" />
  <line x1="237.33333333333334" y1="143.396681126489" x2="237.33333333333334" y2="148.42319080079864" stroke="black" stroke-width="1" />
  <rect x="232.53333333333333" y="144.76003580527436" width="9.6" height="1" fill="red" />
  <line x1="248.0" y1="138.45968463816013" x2="248.0" y2="145.65516766508296" stroke="black" stroke-width="1" />
  <rect x="243.2" y="140.7732562142807" width="9.6" height="2.2309440198306447" fill="green" />
  <line x1="258.66666666666663" y1="137.69537974247743" x2="258.66666666666663" y2="145.29022929146873" stroke="black" stroke-width="1" />
  <rect x="253.86666666666665" y="140.305033395304" width="9.6" height="4.034978998829388" fill="red" />
  <line x1="269.3333333333333" y1="146.00977759416088" x2="269.3333333333333" y2="153.11919024994836" stroke="black" stroke-width="1" />
  <rect x="264.53333333333336" y="146.49521448736482" width="9.6" height="5.542931901122358" fill="red" />
  <line x1="279.99999999999994" y1="147.52117331129932" x2="279.99999999999994" y2="155.92852716380918" stroke="black" stroke-width="1" />
  <rect x="275.2" y="150.18591200165253" width="9.6" height="2.6096536528265233" fill="green" />
  <line x1="290.66666666666663" y1="147.3077187908833" x2="290.66666666666663" y2="154.36548922398947" stroke="black" stroke-width="1" />
  <rect x="285.8666666666667" y="148.07202368656613" width="9.6" height="4.578943744405365" fill="red" />
  <line x1="301.3333333333333" y1="151.4322109756937" x2="301.3333333333333" y2="157.7601046615713" stroke="black" stroke-width="1" />
  <rect x="296.53333333333336" y="154.0762927769744" width="9.6" height="2.2757006128210264" fill="green" />
  <line x1="311.99999999999994" y1="151.02251600908903" x2="311.99999999999994" y2="156.14198168422496" stroke="black" stroke-width="1" />
  <rect x="307.2" y="153.05033395303997" width="9.6" height="2.1207739447772838" fill="red" />
  <line x1="322.66666666666663" y1="152.48571231839156" x2="322.66666666666663" y2="160.27335949872617" stroke="black" stroke-width="1" />
  <rect x="317.8666666666667" y="153.9454658128485" width="9.6" height="3.0090201748949994" fill="green" />
  <line x1="333.3333333333333" y1="149.86917303587404" x2="333.3333333333333" y2="155.39833367761474" stroke="black" stroke-width="1" />
  <rect x="328.53333333333336" y="152.10011705570474" width="9.6" height="1.0741582317702978" fill="red" />
  <line x1="343.99999999999994" y1="152.9745920264408" x2="343.99999999999994" y2="156.89251532052606" stroke="black" stroke-width="1" />
  <rect x="339.2" y="154.0762927769744" width="9.6" height="1" fill="red" />
  <line x1="354.66666666666663" y1="146.01322040900635" x2="354.66666666666663" y2="152.98147765613163" stroke="black" stroke-width="1" />
  <rect x="349.8666666666667" y="149.35963643875232" width="9.6" height="2.8713075810783266" fill="green" />
</svg>