<svg width="400" height="300" xmlns="http://www.w3.org/2000/svg">
  <line x1="40" y1="250" x2="40" y2="50" stroke="black" stroke-width="2" />
  <line x1="35" y1="250.0" x2="40" y2="250.0" stroke="black" stroke-width="1" />
  <text x="10" y="255.0" font-size="10" fill="black">75</text>
  <line x1="40" y1="250.0" x2="380" y2="250.0" stroke="lightgray" stroke-width="1" stroke-dasharray="5, 5" />
  <line x1="35" y1="210.0" x2="40" y2="210.0" stroke="black" stroke-width="1" />
  <text x="10" y="215.0" font-size="10" fill="black">85</text>
  <line x1="40" y1="210.0" x2="380" y2="210.0" stroke="lightgray" stroke-width="1" stroke-dasharray="5, 5" />
  <line x1="35" y1="170.0" x2="40" y2="170.0" stroke="black" stroke-width="1" />
  <text x="10" y="175.0" font-size="10" fill="black">95</text>
  <line x1="40" y1="170.0" x2="380" y2="170.0" stroke="lightgray" stroke-width="1" stroke-dasharray="5, 5" />
  <line x1="35" y1="130.0" x2="40" y2="130.0" stroke="black" stroke-width="1" />
  <text x="10" y="135.0" font-size="10" fill="black">105</text>
  <line x1="40" y1="130.0" x2="380" y2="130.0" stroke="lightgray" stroke-width="1" stroke-dasharray="5, 5" />
  <line x1="35" y1="90.0" x2="40" y2="90.0" stroke="black" stroke-width="1" />
  <text x="10" y="95.0" font-size="10" fill="black">115</text>
  <line x1="40" y1="90.0" x2="380" y2="90.0" stroke="lightgray" stroke-width="1" stroke-dasharray="5, 5" />
  <line x1="35" y1="50.0" x2="40" y2="50.0" stroke="black" stroke-width="1" />
  <text x="10" y="55.0" font-size="10" fill="black">125</text>
  <line x1="40" y1="50.0" x2="380" y2="50.0" stroke="lightgray" stroke-width="1" stroke-dasharray="5, 5" />
  <line x1="35" y1="150.0" x2="40" y2="150.0" stroke="black" stroke-width="1" />
  <text x="10" y="155.0" font-size="10" fill="black">100</text>
  <line x1="40" y1="150.0" x2="380" y2="150.0" stroke="lightgray" stroke-width="1" stroke-dasharray="5, 5" />
  <line x1="45.333333333333336" y1="144.81296758104742" x2="45.333333333333336" y2="150.39900249376558" stroke="black" stroke-width="1" />
  <rect x="40.53333333333333" y="144.91271820448884" width="9.6" height="5.08728179551116" fill="green" />
  <line x1="56.0" y1="142.4189526184539" x2="56.0" y2="145.41147132169573" stroke="black" stroke-width="1" />
  <rect x="51.199999999999996" y="143.61596009975062" width="9.6" height="1.147132169576082" fill="green" />
  <line x1="66.66666666666666" y1="141.47132169576065" x2="66.66666666666666" y2="144.7630922693267" stroke="black" stroke-width="1" />
  <rect x="61.86666666666666" y="142.5187032418953" width="9.6" height="1.8952618453865284" fill="green" />
  <line x1="77.33333333333333" y1="140.32418952618457" x2="77.33333333333333" y2="143.71571072319205" stroke="black" stroke-width="1" />
  <rect x="72.53333333333333" y="140.52369077306741" width="9.6" height="1.3965087281794695" fill="green" />
  <line x1="87.99999999999999" y1="139.42643391521204" x2="87.99999999999999" y2="144.91271820448884" stroke="black" stroke-width="1" />
  <rect x="83.19999999999999" y="140.02493765586036" width="9.6" height="2.294264339152164" fill="red" />
  <line x1="98.66666666666666" y1="138.7281795511222" x2="98.66666666666666" y2="141.87032418952617" stroke="black" stroke-width="1" />
  <rect x="93.86666666666666" y="138.92768079800499" width="9.6" height="2.194513715710741" fill="green" />
  <line x1="109.33333333333333" y1="133.64089775561092" x2="109.33333333333333" y2="138.62842892768077" stroke="black" stroke-width="1" />
  <rect x="104.53333333333333" y="136.13466334164588" width="9.6" height="1.1970074812968505" fill="green" />
  <line x1="119.99999999999999" y1="134.63840399002498" x2="119.99999999999999" y2="139.2768079800499" stroke="black" stroke-width="1" />
  <rect x="115.19999999999999" y="135.53615960099756" width="9.6" height="1" fill="red" />
  <line x1="130.66666666666666" y1="133.96109725685778" x2="130.66666666666666" y2="137.43142144638404" stroke="black" stroke-width="1" />
  <rect x="125.86666666666666" y="136.13466334164588" width="9.6" height="1" fill="red" />
  <line x1="141.33333333333334" y1="135.38653366583543" x2="141.33333333333334" y2="139.62593516209483" stroke="black" stroke-width="1" />
  <rect x="136.53333333333333" y="135.63591022443893" width="9.6" height="2.892768079800476" fill="red" />
  <line x1="152.0" y1="132.14463840399003" x2="152.0" y2="139.32668329177062" stroke="black" stroke-width="1" />
  <rect x="147.2" y="133.2418952618454" width="9.6" height="4.788029925187061" fill="green" />
  <line x1="162.66666666666666" y1="121.7705735660848" x2="162.66666666666666" y2="131.84538653366582" stroke="black" stroke-width="1" />
  <rect x="157.86666666666665" y="121.7705735660848" width="9.6" height="9.675810473815488" fill="green" />
  <line x1="173.33333333333334" y1="118.37905236907727" x2="173.33333333333334" y2="139.0274314214464" stroke="black" stroke-width="1" />
  <rect x="168.53333333333333" y="121.07231920199501" width="9.6" height="15.162094763092341" fill="red" />
  <line x1="184.0" y1="132.9426433915212" x2="184.0" y2="142.0199501246883" stroke="black" stroke-width="1" />
  <rect x="179.2" y="137.93017456359104" width="9.6" height="1" fill="green" />
  <line x1="194.66666666666666" y1="133.13216957605994" x2="194.66666666666666" y2="139.72568578553614" stroke="black" stroke-width="1" />
  <rect x="189.86666666666665" y="137.43142144638404" width="9.6" height="2.094763092269318" fill="red" />
  <line x1="205.33333333333334" y1="123.26683291770576" x2="205.33333333333334" y2="138.42892768079798" stroke="black" stroke-width="1" />
  <rect x="200.53333333333333" y="123.7655860349127" width="9.6" height="14.663341645885282" fill="green" />
  <line x1="216.0" y1="114.19052369077303" x2="216.0" y2="127.2568578553616" stroke="black" stroke-width="1" />
  <rect x="211.2" y="114.58852867830427" width="9.6" height="8.578553615960061" fill="green" />
  <line x1="226.66666666666666" y1="112.89276807980053" x2="226.66666666666666" y2="121.67082294264338" stroke="black" stroke-width="1" />
  <rect x="221.86666666666665" y="113.09226932668332" width="9.6" height="2.892768079800476" fill="green" />
  <line x1="237.33333333333334" y1="112.29426433915216" x2="237.33333333333334" y2="116.78304239401501" stroke="black" stroke-width="1" />
  <rect x="232.53333333333333" y="112.4937655860349" width="9.6" height="3.5910224438902674" fill="green" />
  <line x1="248.0" y1="106.40897755610973" x2="248.0" y2="114.88778054862843" stroke="black" stroke-width="1" />
  <rect x="243.2" y="106.80798004987537" width="9.6" height="5.037406483790505" fill="green" />
  <line x1="258.66666666666663" y1="100.62344139650878" x2="258.66666666666663" y2="106.50872817955116" stroke="black" stroke-width="1" />
  <rect x="253.86666666666665" y="101.12219451371567" width="9.6" height="3.890274314214537" fill="green" />
  <line x1="269.3333333333333" y1="103.61596009975062" x2="269.3333333333333" y2="111.89526184538653" stroke="black" stroke-width="1" />
  <rect x="264.53333333333336" y="103.61596009975062" width="9.6" height="6.683291770573646" fill="red" />
  <line x1="279.99999999999994" y1="106.10972568578552" x2="279.99999999999994" y2="113.29177057356611" stroke="black" stroke-width="1" />
  <rect x="275.2" y="110.09975062344142" width="9.6" height="2.194513715710741" fill="red" />
  <line x1="290.66666666666663" y1="111.39650872817953" x2="290.66666666666663" y2="117.83042394014956" stroke="black" stroke-width="1" />
  <rect x="285.8666666666667" y="111.49625935162095" width="9.6" height="1" fill="red" />
  <line x1="301.3333333333333" y1="106.40897755610973" x2="301.3333333333333" y2="114.63840399002498" stroke="black" stroke-width="1" />
  <rect x="296.53333333333336" y="107.80548628428932" width="9.6" height="5.486284289276796" fill="green" />
  <line x1="311.99999999999994" y1="105.81047381546131" x2="311.99999999999994" y2="111.59600997506232" stroke="black" stroke-width="1" />
  <rect x="307.2" y="107.60598503740653" width="9.6" height="1" fill="red" />
  <line x1="322.66666666666663" y1="103.2169576059851" x2="322.66666666666663" y2="109.80049875311721" stroke="black" stroke-width="1" />
  <rect x="317.8666666666667" y="104.51371571072326" width="9.6" height="4.488778054862735" fill="green" />
  <line x1="333.3333333333333" y1="102.31920199501252" x2="333.3333333333333" y2="106.86384039900253" stroke="black" stroke-width="1" />
  <rect x="328.53333333333336" y="103.11720698254368" width="9.6" height="2.4937655860349537" fill="red" />
  <line x1="343.99999999999994" y1="102.31920199501252" x2="343.99999999999994" y2="107.5062344139651" stroke="black" stroke-width="1" />
  <rect x="339.2" y="104.91271820448878" width="9.6" height="1" fill="green" />
  <line x1="354.66666666666663" y1="100.62344139650878" x2="354.66666666666663" y2="106.25935162094765" stroke="black" stroke-width="1" />
  <rect x="349.8666666666667" y="102.21945137157104" width="9.6" height="1.7456359102244505" fill="green" />
</svg>