<svg width="400" height="300" xmlns="http://www.w3.org/2000/svg">
  <line x1="40" y1="250" x2="40" y2="50" stroke="black" stroke-width="2" />
  <line x1="35" y1="250.0" x2="40" y2="250.0" stroke="black" stroke-width="1" />
  <text x="10" y="255.0" font-size="10" fill="black">75</text>
  <line x1="40" y1="250.0" x2="380" y2="250.0" stroke="lightgray" stroke-width="1" stroke-dasharray="5, 5" />
  <line x1="35" y1="210.0" x2="40" y2="210.0" stroke="black" stroke-width="1" />
  <text x="10" y="215.0" font-size="10" fill="black">85</text>
  <line x1="40" y1="210.0" x2="380" y2="210.0" stroke="lightgray" stroke-width="1" stroke-dasharray="5, 5" />
  <line x1="35" y1="170.0" x2="40" y2="170.0" stroke="black" stroke-width="1" />
  <text x="10" y="175.0" font-size="10" fill="black">95</text>
  <line x1="40" y1="170.0" x2="380" y2="170.0" stroke="lightgray" stroke-width="1" stroke-dasharray="5, 5" />
  <line x1="35" y1="130.0" x2="40" y2="130.0" stroke="black" stroke-width="1" />
  <text x="10" y="135.0" font-size="10" fill="black">105</text>
  <line x1="40" y1="130.0" x2="380" y2="130.0" stroke="lightgray" stroke-width="1" stroke-dasharray="5, 5" />
  <line x1="35" y1="90.0" x2="40" y2="90.0" stroke="black" stroke-width="1" />
  <text x="10" y="95.0" font-size="10" fill="black">115</text>
  <line x1="40" y1="90.0" x2="380" y2="90.0" stroke="lightgray" stroke-width="1" stroke-dasharray="5, 5" />
  <line x1="35" y1="50.0" x2="40" y2="50.0" stroke="black" stroke-width="1" />
  <text x="10" y="55.0" font-size="10" fill="black">125</text>
  <line x1="40" y1="50.0" x2="380" y2="50.0" stroke="lightgray" stroke-width="1" stroke-dasharray="5, 5" />
  <line x1="35" y1="150.0" x2="40" y2="150.0" stroke="black" stroke-width="1" />
  <text x="10" y="155.0" font-size="10" fill="black">100</text>
  <line x1="40" y1="150.0" x2="380" y2="150.0" stroke="lightgray" stroke-width="1" stroke-dasharray="5, 5" />
  <line x1="45.333333333333336" y1="147.61663856098937" x2="45.333333333333336" y2="152.18849540940607" stroke="black" stroke-width="1" />
  <rect x="40.53333333333333" y="149.20554618699651" width="9.6" height="1" fill="green" />
  <line x1="56.0" y1="147.81060520891884" x2="56.0" y2="152.42833052276563" stroke="black" stroke-width="1" />
  <rect x="51.199999999999996" y="149.14558740865658" width="9.6" height="1.4240209855723833" fill="red" />
  <line x1="66.66666666666666" y1="148.21622634438825" x2="66.66666666666666" y2="151.60389732059218" stroke="black" stroke-width="1" />
  <rect x="61.86666666666666" y="148.21622634438825" width="9.6" height="1.5589282368371755" fill="green" />
  <line x1="77.33333333333333" y1="146.37249391043667" x2="77.33333333333333" y2="149.19055649241153" stroke="black" stroke-width="1" />
  <rect x="72.53333333333333" y="147.4367622259697" width="9.6" height="1" fill="red" />
  <line x1="87.99999999999999" y1="146.0277309349823" x2="87.99999999999999" y2="150.41971144837925" stroke="black" stroke-width="1" />
  <rect x="83.19999999999999" y="146.86715383174072" width="9.6" height="1.4989694584972426" fill="red" />
  <line x1="98.66666666666666" y1="146.46243207794652" x2="98.66666666666666" y2="152.30841296608583" stroke="black" stroke-width="1" />
  <rect x="93.86666666666666" y="147.2269065017801" width="9.6" height="1.8887015177065223" fill="red" />
  <line x1="109.33333333333333" y1="144.7236275060896" x2="109.33333333333333" y2="148.77084504403217" stroke="black" stroke-width="1" />
  <rect x="104.53333333333333" y="147.96140153644376" width="9.6" height="1" fill="green" />
  <line x1="119.99999999999999" y1="143.85422522016114" x2="119.99999999999999" y2="148.44107176316294" stroke="black" stroke-width="1" />
  <rect x="115.19999999999999" y="144.19898819561547" width="9.6" height="3.2977328086941498" fill="green" />
  <line x1="130.66666666666666" y1="142.31028667790895" x2="130.66666666666666" y2="148.77084504403217" stroke="black" stroke-width="1" />
  <rect x="125.86666666666666" y="143.53944163387666" width="9.6" height="2.952969833239763" fill="red" />
  <line x1="141.33333333333334" y1="136.29941914933488" x2="141.33333333333334" y2="144.6037099494099" stroke="black" stroke-width="1" />
  <rect x="136.53333333333333" y="138.80269814502537" width="9.6" height="5.0065579913808165" fill="green" />
  <line x1="152.0" y1="134.80044969083752" x2="152.0" y2="138.89263631253516" stroke="black" stroke-width="1" />
  <rect x="147.2" y="135.72981075510586" width="9.6" height="2.0535881581413378" fill="green" />
  <line x1="162.66666666666666" y1="127.15570545250154" x2="162.66666666666666" y2="135.72981075510586" stroke="black" stroke-width="1" />
  <rect x="157.86666666666665" y="132.47704703016677" width="9.6" height="3.2527637249390864" fill="green" />
  <line x1="173.33333333333334" y1="127.82274686153272" x2="173.33333333333334" y2="132.23721191680727" stroke="black" stroke-width="1" />
  <rect x="168.53333333333333" y="129.55405658609703" width="9.6" height="2.668165636125252" fill="green" />
  <line x1="184.0" y1="128.0400974330148" x2="184.0" y2="134.17088251826874" stroke="black" stroke-width="1" />
  <rect x="179.2" y="128.78958216226346" width="9.6" height="3.5675473112235068" fill="red" />
  <line x1="194.66666666666666" y1="129.8688401723815" x2="194.66666666666666" y2="134.14090312909883" stroke="black" stroke-width="1" />
  <rect x="189.86666666666665" y="131.23290237961402" width="9.6" height="2.3983511335957246" fill="green" />
  <line x1="205.33333333333334" y1="119.84073449503467" x2="205.33333333333334" y2="127.81525201424023" stroke="black" stroke-width="1" />
  <rect x="200.53333333333333" y="121.87933295859096" width="9.6" height="5.276372493910571" fill="green" />
  <line x1="216.0" y1="120.69799512834936" x2="216.0" y2="124.93723065392544" stroke="black" stroke-width="1" />
  <rect x="211.2" y="121.39966273187184" width="9.6" height="1" fill="red" />
  <line x1="226.66666666666666" y1="122.53887952032977" x2="226.66666666666666" y2="132.83679970020614" stroke="black" stroke-width="1" />
  <rect x="221.86666666666665" y="122.76372493910446" width="9.6" height="1.5889076260070283" fill="red" />
  <line x1="237.33333333333334" y1="121.29473486977707" x2="237.33333333333334" y2="128.0850665167697" stroke="black" stroke-width="1" />
  <rect x="232.53333333333333" y="122.23908562863028" width="9.6" height="2.0535881581413378" fill="green" />
  <line x1="248.0" y1="117.18755855349451" x2="248.0" y2="121.96927112610086" stroke="black" stroke-width="1" />
  <rect x="243.2" y="119.2711261008057" width="9.6" height="1.2891137343077048" fill="green" />
  <line x1="258.66666666666663" y1="113.94978452314047" x2="258.66666666666663" y2="118.68652801199175" stroke="black" stroke-width="1" />
  <rect x="253.86666666666665" y="114.57935169570925" width="9.6" height="3.642495784148366" fill="green" />
  <line x1="269.3333333333333" y1="110.69702079820127" x2="269.3333333333333" y2="115.17144463181569" stroke="black" stroke-width="1" />
  <rect x="264.53333333333336" y="112.9604646805322" width="9.6" height="1" fill="green" />
  <line x1="279.99999999999994" y1="112.27093872962348" x2="279.99999999999994" y2="118.10192992317792" stroke="black" stroke-width="1" />
  <rect x="275.2" y="112.54075323215301" width="9.6" height="5.036537380550783" fill="red" />
  <line x1="290.66666666666663" y1="113.08412966085814" x2="290.66666666666663" y2="125.98650927487353" stroke="black" stroke-width="1" />
  <rect x="285.8666666666667" y="113.66498032602595" width="9.6" height="8.768971332209048" fill="red" />
  <line x1="301.3333333333333" y1="119.79576541127972" x2="301.3333333333333" y2="125.41690088064462" stroke="black" stroke-width="1" />
  <rect x="296.53333333333336" y="122.04421959902572" width="9.6" height="1.0942477047030366" fill="red" />
  <line x1="311.99999999999994" y1="116.97770282930486" x2="311.99999999999994" y2="123.36331272250334" stroke="black" stroke-width="1" />
  <rect x="307.2" y="117.35244519392916" width="9.6" height="5.591156080194935" fill="green" />
  <line x1="322.66666666666663" y1="128.78958216226346" x2="322.66666666666663" y2="141.21603897320603" stroke="black" stroke-width="1" />
  <rect x="317.8666666666667" y="130.0187371182313" width="9.6" height="11.092373992879857" fill="red" />
  <line x1="333.3333333333333" y1="138.90762600712014" x2="333.3333333333333" y2="147.93142214727374" stroke="black" stroke-width="1" />
  <rect x="328.53333333333336" y="138.99756417462993" width="9.6" height="6.83530073074769" fill="red" />
  <line x1="343.99999999999994" y1="140.42158516020243" x2="343.99999999999994" y2="145.27824620573358" stroke="black" stroke-width="1" />
  <rect x="339.2" y="142.74498782087318" width="9.6" height="1.7837736556117534" fill="green" />
  <line x1="354.66666666666663" y1="133.3164699269252" x2="354.66666666666663" y2="141.11111111111114" stroke="black" stroke-width="1" />
  <rect x="349.8666666666667" y="137.5285741053026" width="9.6" height="3.012928611579582" fill="green" />
</svg>