<svg width="400" height="300" xmlns="http://www.w3.org/2000/svg">
  <line x1="40" y1="250" x2="40" y2="50" stroke="black" stroke-width="2" />
  <line x1="35" y1="250.0" x2="40" y2="250.0" stroke="black" stroke-width="1" />
  <text x="10" y="255.0" font-size="10" fill="black">75</text>
  <line x1="40" y1="250.0" x2="380" y2="250.0" stroke="lightgray" stroke-width="1" stroke-dasharray="5, 5" />
  <line x1="35" y1="210.0" x2="40" y2="210.0" stroke="black" stroke-width="1" />
  <text x="10" y="215.0" font-size="10" fill="black">85</text>
  <line x1="40" y1="210.0" x2="380" y2="210.0" stroke="lightgray" stroke-width="1" stroke-dasharray="5, 5" />
  <line x1="35" y1="170.0" x2="40" y2="170.0" stroke="black" stroke-width="1" />
  <text x="10" y="175.0" font-size="10" fill="black">95</text>
  <line x1="40" y1="170.0" x2="380" y2="170.0" stroke="lightgray" stroke-width="1" stroke-dasharray="5, 5" />
  <line x1="35" y1="130.0" x2="40" y2="130.0" stroke="black" stroke-width="1" />
  <text x="10" y="135.0" font-size="10" fill="black">105</text>
  <line x1="40" y1="130.0" x2="380" y2="130.0" stroke="lightgray" stroke-width="1" stroke-dasharray="5, 5" />
  <line x1="35" y1="90.0" x2="40" y2="90.0" stroke="black" stroke-width="1" />
  <text x="10" y="95.0" font-size="10" fill="black">115</text>
  <line x1="40" y1="90.0" x2="380" y2="90.0" stroke="lightgray" stroke-width="1" stroke-dasharray="5, 5" />
  <line x1="35" y1="50.0" x2="40" y2="50.0" stroke="black" stroke-width="1" />
  <text x="10" y="55.0" font-size="10" fill="black">125</text>
  <line x1="40" y1="50.0" x2="380" y2="50.0" stroke="lightgray" stroke-width="1" stroke-dasharray="5, 5" />
  <line x1="35" y1="150.0" x2="40" y2="150.0" stroke="black" stroke-width="1" />
  <text x="10" y="155.0" font-size="10" fill="black">100</text>
  <line x1="40" y1="150.0" x2="380" y2="150.0" stroke="lightgray" stroke-width="1" stroke-dasharray="5, 5" />
  <line x1="45.333333333333336" y1="145.02063273727651" x2="45.333333333333336" y2="150.99037138927105" stroke="black" stroke-width="1" />
  <rect x="40.53333333333333" y="145.87345254470432" width="9.6" height="4.126547455295679" fill="green" />
  <line x1="56.0" y1="142.9573590096286" x2="56.0" y2="146.4786795048143" stroke="black" stroke-width="1" />
  <rect x="51.199999999999996" y="144.38789546079784" width="9.6" height="1.815680880330092" fill="green" />
  <line x1="66.66666666666666" y1="138.72077028885832" x2="66.66666666666666" y2="144.38789546079784" stroke="black" stroke-width="1" />
  <rect x="61.86666666666666" y="139.87620357634114" width="9.6" height="4.346629986244807" fill="green" />
  <line x1="77.33333333333333" y1="134.15405777166438" x2="77.33333333333333" y2="139.60110041265477" stroke="black" stroke-width="1" />
  <rect x="72.53333333333333" y="135.69463548830817" width="9.6" height="1" fill="red" />
  <line x1="87.99999999999999" y1="130.63273727647868" x2="87.99999999999999" y2="136.5199449793672" stroke="black" stroke-width="1" />
  <rect x="83.19999999999999" y="134.15405777166438" width="9.6" height="1.155433287482822" fill="green" />
  <line x1="98.66666666666666" y1="132.88858321870703" x2="98.66666666666666" y2="137.3028885832187" stroke="black" stroke-width="1" />
  <rect x="93.86666666666666" y="133.4938101788171" width="9.6" height="1" fill="green" />
  <line x1="109.33333333333333" y1="130.71526822558457" x2="109.33333333333333" y2="134.20907840440168" stroke="black" stroke-width="1" />
  <rect x="104.53333333333333" y="131.6781292984869" width="9.6" height="1" fill="green" />
  <line x1="119.99999999999999" y1="129.36726272352132" x2="119.99999999999999" y2="133.1086657496561" stroke="black" stroke-width="1" />
  <rect x="115.19999999999999" y="129.36726272352132" width="9.6" height="1.7606602475929094" fill="red" />
  <line x1="130.66666666666666" y1="129.4773039889958" x2="130.66666666666666" y2="132.91609353507567" stroke="black" stroke-width="1" />
  <rect x="125.86666666666666" y="130.30261348005502" width="9.6" height="1.1004126547455826" fill="red" />
  <line x1="141.33333333333334" y1="129.25722145804679" x2="141.33333333333334" y2="133.6588720770289" stroke="black" stroke-width="1" />
  <rect x="136.53333333333333" y="129.53232462173315" width="9.6" height="2.36588720770294" fill="green" />
  <line x1="152.0" y1="123.72764786795057" x2="152.0" y2="130.63273727647868" stroke="black" stroke-width="1" />
  <rect x="147.2" y="125.07565337001375" width="9.6" height="4.3466299862449205" fill="green" />
  <line x1="162.66666666666666" y1="121.88445667125177" x2="162.66666666666666" y2="127.46905089408529" stroke="black" stroke-width="1" />
  <rect x="157.86666666666665" y="124.52544704264096" width="9.6" height="1" fill="red" />
  <line x1="173.33333333333334" y1="123.70013755158186" x2="173.33333333333334" y2="127.8266850068776" stroke="black" stroke-width="1" />
  <rect x="168.53333333333333" y="124.52544704264096" width="9.6" height="1" fill="red" />
  <line x1="184.0" y1="123.86519944979364" x2="184.0" y2="129.69738651994504" stroke="black" stroke-width="1" />
  <rect x="179.2" y="124.96561210453922" width="9.6" height="1.5955983493810777" fill="red" />
  <line x1="194.66666666666666" y1="124.58046767537832" x2="194.66666666666666" y2="130.19257221458054" stroke="black" stroke-width="1" />
  <rect x="189.86666666666665" y="126.89133425034385" width="9.6" height="1.4305364511691891" fill="red" />
  <line x1="205.33333333333334" y1="123.7551581843191" x2="205.33333333333334" y2="129.14718019257225" stroke="black" stroke-width="1" />
  <rect x="200.53333333333333" y="124.47042640990372" width="9.6" height="2.6960110041266034" fill="green" />
  <line x1="216.0" y1="115.88720770288859" x2="216.0" y2="124.80055020632739" stroke="black" stroke-width="1" />
  <rect x="211.2" y="116.38239339752408" width="9.6" height="8.0330123796424" fill="green" />
  <line x1="226.66666666666666" y1="115.777166437414" x2="226.66666666666666" y2="123.23246217331507" stroke="black" stroke-width="1" />
  <rect x="221.86666666666665" y="116.21733149931225" width="9.6" height="2.5309491059147717" fill="green" />
  <line x1="237.33333333333334" y1="110.35763411279225" x2="237.33333333333334" y2="117.41623108665749" stroke="black" stroke-width="1" />
  <rect x="232.53333333333333" y="111.70563961485567" width="9.6" height="3.686382393397423" fill="green" />
  <line x1="248.0" y1="106.06602475928469" x2="248.0" y2="111.54057771664378" stroke="black" stroke-width="1" />
  <rect x="243.2" y="106.53370013755159" width="9.6" height="4.2916093535075674" fill="green" />
  <line x1="258.66666666666663" y1="104.222833562586" x2="258.66666666666663" y2="109.0646492434663" stroke="black" stroke-width="1" />
  <rect x="253.86666666666665" y="105.21320495185694" width="9.6" height="1.5405777166437815" fill="red" />
  <line x1="269.3333333333333" y1="108.40440165061898" x2="269.3333333333333" y2="119.4085281980743" stroke="black" stroke-width="1" />
  <rect x="264.53333333333336" y="111.15543328748282" width="9.6" height="6.38239339752414" fill="red" />
  <line x1="279.99999999999994" y1="113.0811554332875" x2="279.99999999999994" y2="119.2984869325997" stroke="black" stroke-width="1" />
  <rect x="275.2" y="115.17193947730402" width="9.6" height="2.145804676753812" fill="green" />
  <line x1="290.66666666666663" y1="114.84181568088036" x2="290.66666666666663" y2="123.64511691884462" stroke="black" stroke-width="1" />
  <rect x="285.8666666666667" y="115.06189821182949" width="9.6" height="5.557083906464811" fill="red" />
  <line x1="301.3333333333333" y1="111.98074277854192" x2="301.3333333333333" y2="120.23383768913345" stroke="black" stroke-width="1" />
  <rect x="296.53333333333336" y="115.00687757909213" width="9.6" height="4.566712517193935" fill="green" />
  <line x1="311.99999999999994" y1="107.42833562585975" x2="311.99999999999994" y2="114.95185694635495" stroke="black" stroke-width="1" />
  <rect x="307.2" y="108.01925722145808" width="9.6" height="6.932599724896875" fill="green" />
  <line x1="322.66666666666663" y1="104.82806052269603" x2="322.66666666666663" y2="108.51444291609357" stroke="black" stroke-width="1" />
  <rect x="317.8666666666667" y="106.14855570839063" width="9.6" height="1.0453920220082296" fill="green" />
  <line x1="333.3333333333333" y1="101.03163686382396" x2="333.3333333333333" y2="106.09353507565339" stroke="black" stroke-width="1" />
  <rect x="328.53333333333336" y="102.13204951856943" width="9.6" height="2.806052269601082" fill="green" />
  <line x1="343.99999999999994" y1="103.23246217331501" x2="343.99999999999994" y2="113.90646492434666" stroke="black" stroke-width="1" />
  <rect x="339.2" y="104.11279229711141" width="9.6" height="6.162310866575012" fill="red" />
  <line x1="354.66666666666663" y1="108.25309491059147" x2="354.66666666666663" y2="112.03576341127928" stroke="black" stroke-width="1" />
  <rect x="349.8666666666667" y="110.38514442916096" width="9.6" height="1" fill="red" />
</svg>