<svg width="400" height="300" xmlns="http://www.w3.org/2000/svg">
  <line x1="40" y1="250" x2="40" y2="50" stroke="black" stroke-width="2" />
  <line x1="35" y1="250.0" x2="40" y2="250.0" stroke="black" stroke-width="1" />
  <text x="10" y="255.0" font-size="10" fill="black">75</text>
  <line x1="40" y1="250.0" x2="380" y2="250.0" stroke="lightgray" stroke-width="1" stroke-dasharray="5, 5" />
  <line x1="35" y1="210.0" x2="40" y2="210.0" stroke="black" stroke-width="1" />
  <text x="10" y="215.0" font-size="10" fill="black">85</text>
  <line x1="40" y1="210.0" x2="380" y2="210.0" stroke="lightgray" stroke-width="1" stroke-dasharray="5, 5" />
  <line x1="35" y1="170.0" x2="40" y2="170.0" stroke="black" stroke-width="1" />
  <text x="10" y="175.0" font-size="10" fill="black">95</text>
  <line x1="40" y1="170.0" x2="380" y2="170.0" stroke="lightgray" stroke-width="1" stroke-dasharray="5, 5" />
  <line x1="35" y1="130.0" x2="40" y2="130.0" stroke="black" stroke-width="1" />
  <text x="10" y="135.0" font-size="10" fill="black">105</text>
  <line x1="40" y1="130.0" x2="380" y2="130.0" stroke="lightgray" stroke-width="1" stroke-dasharray="5, 5" />
  <line x1="35" y1="90.0" x2="40" y2="90.0" stroke="black" stroke-width="1" />
  <text x="10" y="95.0" font-size="10" fill="black">115</text>
  <line x1="40" y1="90.0" x2="380" y2="90.0" stroke="lightgray" stroke-width="1" stroke-dasharray="5, 5" />
  <line x1="35" y1="50.0" x2="40" y2="50.0" stroke="black" stroke-width="1" />
  <text x="10" y="55.0" font-size="10" fill="black">125</text>
  <line x1="40" y1="50.0" x2="380" y2="50.0" stroke="lightgray" stroke-width="1" stroke-dasharray="5, 5" />
  <line x1="35" y1="150.0" x2="40" y2="150.0" stroke="black" stroke-width="1" />
  <text x="10" y="155.0" font-size="10" fill="black">100</text>
  <line x1="40" y1="150.0" x2="380" y2="150.0" stroke="lightgray" stroke-width="1" stroke-dasharray="5, 5" />
  <line x1="45.333333333333336" y1="145.15086206896547" x2="45.333333333333336" y2="152.15517241379308" stroke="black" stroke-width="1" />
  <rect x="40.53333333333333" y="146.22844827586204" width="9.6" height="3.7715517241379644" fill="green" />
  <line x1="56.0" y1="142.24137931034477" x2="56.0" y2="152.04741379310343" stroke="black" stroke-width="1" />
  <rect x="51.199999999999996" y="145.58189655172413" width="9.6" height="4.849137931034477" fill="red" />
  <line x1="66.66666666666666" y1="142.6724137931035" x2="66.66666666666666" y2="151.0775862068965" stroke="black" stroke-width="1" />
  <rect x="61.86666666666666" y="142.6724137931035" width="9.6" height="8.081896551724071" fill="green" />
  <line x1="77.33333333333333" y1="135.0215517241379" x2="77.33333333333333" y2="144.1810344827586" stroke="black" stroke-width="1" />
  <rect x="72.53333333333333" y="136.74568965517233" width="9.6" height="5.92672413793116" fill="green" />
  <line x1="87.99999999999999" y1="129.2025862068965" x2="87.99999999999999" y2="137.6077586206896" stroke="black" stroke-width="1" />
  <rect x="83.19999999999999" y="133.51293103448273" width="9.6" height="4.094827586206861" fill="green" />
  <line x1="98.66666666666666" y1="132.3275862068965" x2="98.66666666666666" y2="142.02586206896547" stroke="black" stroke-width="1" />
  <rect x="93.86666666666666" y="134.05172413793093" width="9.6" height="1.1853448275862206" fill="red" />
  <line x1="109.33333333333333" y1="133.18965517241378" x2="109.33333333333333" y2="138.79310344827587" stroke="black" stroke-width="1" />
  <rect x="104.53333333333333" y="133.18965517241378" width="9.6" height="2.262931034482733" fill="green" />
  <line x1="119.99999999999999" y1="131.3577586206896" x2="119.99999999999999" y2="138.90086206896547" stroke="black" stroke-width="1" />
  <rect x="115.19999999999999" y="133.18965517241378" width="9.6" height="1.4008620689654663" fill="red" />
  <line x1="130.66666666666666" y1="118.31896551724128" x2="130.66666666666666" y2="134.375" stroke="black" stroke-width="1" />
  <rect x="125.86666666666666" y="118.31896551724128" width="9.6" height="16.05603448275872" fill="green" />
  <line x1="141.33333333333334" y1="116.59482758620686" x2="141.33333333333334" y2="123.70689655172413" stroke="black" stroke-width="1" />
  <rect x="136.53333333333333" y="118.53448275862064" width="9.6" height="1.5086206896552312" fill="green" />
  <line x1="152.0" y1="118.10344827586209" x2="152.0" y2="125.4310344827586" stroke="black" stroke-width="1" />
  <rect x="147.2" y="118.96551724137925" width="9.6" height="1.0775862068966262" fill="red" />
  <line x1="162.66666666666666" y1="119.1810344827586" x2="162.66666666666666" y2="134.4827586206896" stroke="black" stroke-width="1" />
  <rect x="157.86666666666665" y="121.12068965517244" width="9.6" height="11.961206896551687" fill="red" />
  <line x1="173.33333333333334" y1="136.63793103448273" x2="173.33333333333334" y2="143.1034482758621" stroke="black" stroke-width="1" />
  <rect x="168.53333333333333" y="139.65517241379308" width="9.6" height="1" fill="red" />
  <line x1="184.0" y1="140.84051724137925" x2="184.0" y2="152.5862068965517" stroke="black" stroke-width="1" />
  <rect x="179.2" y="140.84051724137925" width="9.6" height="8.8362068965518" fill="red" />
  <line x1="194.66666666666666" y1="145.25862068965517" x2="194.66666666666666" y2="154.52586206896547" stroke="black" stroke-width="1" />
  <rect x="189.86666666666665" y="150.53879310344826" width="9.6" height="2.4784482758620356" fill="red" />
  <line x1="205.33333333333334" y1="145.25862068965517" x2="205.33333333333334" y2="152.2629310344828" stroke="black" stroke-width="1" />
  <rect x="200.53333333333333" y="146.875" width="9.6" height="5.38793103448279" fill="green" />
  <line x1="216.0" y1="147.84482758620686" x2="216.0" y2="155.28017241379308" stroke="black" stroke-width="1" />
  <rect x="211.2" y="150.3232758620689" width="9.6" height="1" fill="red" />
  <line x1="226.66666666666666" y1="150.0" x2="226.66666666666666" y2="157.43534482758616" stroke="black" stroke-width="1" />
  <rect x="221.86666666666665" y="151.29310344827587" width="9.6" height="2.9094827586206975" fill="red" />
  <line x1="237.33333333333334" y1="146.12068965517244" x2="237.33333333333334" y2="151.50862068965517" stroke="black" stroke-width="1" />
  <rect x="232.53333333333333" y="146.98275862068965" width="9.6" height="1.7241379310344769" fill="green" />
  <line x1="248.0" y1="143.2112068965517" x2="248.0" y2="153.5560344827586" stroke="black" stroke-width="1" />
  <rect x="243.2" y="144.5043103448275" width="9.6" height="6.573275862069011" fill="green" />
  <line x1="258.66666666666663" y1="142.13362068965517" x2="258.66666666666663" y2="147.3060344827586" stroke="black" stroke-width="1" />
  <rect x="253.86666666666665" y="145.15086206896547" width="9.6" height="1.831896551724185" fill="red" />
  <line x1="269.3333333333333" y1="143.1034482758621" x2="269.3333333333333" y2="150.75431034482756" stroke="black" stroke-width="1" />
  <rect x="264.53333333333336" y="144.61206896551727" width="9.6" height="5.387931034482733" fill="red" />
  <line x1="279.99999999999994" y1="142.88793103448273" x2="279.99999999999994" y2="151.61637931034477" stroke="black" stroke-width="1" />
  <rect x="275.2" y="144.07327586206895" width="9.6" height="6.142241379310292" fill="green" />
  <line x1="290.66666666666663" y1="123.49137931034483" x2="290.66666666666663" y2="143.2112068965517" stroke="black" stroke-width="1" />
  <rect x="285.8666666666667" y="124.13793103448268" width="9.6" height="16.379310344827672" fill="green" />
  <line x1="301.3333333333333" y1="122.19827586206884" x2="301.3333333333333" y2="128.01724137931035" stroke="black" stroke-width="1" />
  <rect x="296.53333333333336" y="124.13793103448268" width="9.6" height="1" fill="red" />
  <line x1="311.99999999999994" y1="120.25862068965506" x2="311.99999999999994" y2="128.5560344827586" stroke="black" stroke-width="1" />
  <rect x="307.2" y="120.90517241379308" width="9.6" height="4.310344827586164" fill="green" />
  <line x1="322.66666666666663" y1="114.65517241379308" x2="322.66666666666663" y2="122.4137931034482" stroke="black" stroke-width="1" />
  <rect x="317.8666666666667" y="115.51724137931035" width="9.6" height="3.6637931034482563" fill="green" />
  <line x1="333.3333333333333" y1="109.69827586206895" x2="333.3333333333333" y2="117.24137931034483" stroke="black" stroke-width="1" />
  <rect x="328.53333333333336" y="112.49999999999989" width="9.6" height="3.8793103448276156" fill="green" />
  <line x1="343.99999999999994" y1="104.52586206896547" x2="343.99999999999994" y2="108.40517241379314" stroke="black" stroke-width="1" />
  <rect x="339.2" y="107.32758620689651" width="9.6" height="1" fill="red" />
  <line x1="354.66666666666663" y1="108.40517241379314" x2="354.66666666666663" y2="117.02586206896547" stroke="black" stroke-width="1" />
  <rect x="349.8666666666667" y="108.40517241379314" width="9.6" height="7.11206896551721" fill="red" />
</svg>