<svg width="800" height="300" xmlns="http://www.w3.org/2000/svg">
  <line x1="40" y1="250" x2="40" y2="50" stroke="black" stroke-width="2" />
  <line x1="35" y1="250.0" x2="40" y2="250.0" stroke="black" stroke-width="1" />
  <text x="10" y="255.0" font-size="10" fill="black">75</text>
  <line x1="40" y1="250.0" x2="780" y2="250.0" stroke="lightgray" stroke-width="1" stroke-dasharray="5, 5" />
  <line x1="35" y1="210.0" x2="40" y2="210.0" stroke="black" stroke-width="1" />
  <text x="10" y="215.0" font-size="10" fill="black">85</text>
  <line x1="40" y1="210.0" x2="780" y2="210.0" stroke="lightgray" stroke-width="1" stroke-dasharray="5, 5" />
  <line x1="35" y1="170.0" x2="40" y2="170.0" stroke="black" stroke-width="1" />
  <text x="10" y="175.0" font-size="10" fill="black">95</text>
  <line x1="40" y1="170.0" x2="780" y2="170.0" stroke="lightgray" stroke-width="1" stroke-dasharray="5, 5" />
  <line x1="35" y1="130.0" x2="40" y2="130.0" stroke="black" stroke-width="1" />
  <text x="10" y="135.0" font-size="10" fill="black">105</text>
  <line x1="40" y1="130.0" x2="780" y2="130.0" stroke="lightgray" stroke-width="1" stroke-dasharray="5, 5" />
  <line x1="35" y1="90.0" x2="40" y2="90.0" stroke="black" stroke-width="1" />
  <text x="10" y="95.0" font-size="10" fill="black">115</text>
  <line x1="40" y1="90.0" x2="780" y2="90.0" stroke="lightgray" stroke-width="1" stroke-dasharray="5, 5" />
  <line x1="35" y1="50.0" x2="40" y2="50.0" stroke="black" stroke-width="1" />
  <text x="10" y="55.0" font-size="10" fill="black">125</text>
  <line x1="40" y1="50.0" x2="780" y2="50.0" stroke="lightgray" stroke-width="1" stroke-dasharray="5, 5" />
  <line x1="35" y1="150.0" x2="40" y2="150.0" stroke="black" stroke-width="1" />
  <text x="10" y="155.0" font-size="10" fill="black">100</text>
  <line x1="40" y1="150.0" x2="780" y2="150.0" stroke="lightgray" stroke-width="1" stroke-dasharray="5, 5" />
  <line x1="48.666666666666664" y1="149.236641221374" x2="48.666666666666664" y2="153.3216422529399" stroke="black" stroke-width="1" />
  <rect x="40.86666666666667" y="149.95873736331748" width="15.6" height="1" fill="green" />
  <line x1="66.0" y1="143.19166494739017" x2="66.0" y2="151.09345987208587" stroke="black" stroke-width="1" />
  <rect x="58.199999999999996" y="143.83123581596868" width="15.6" height="7.159067464410953" fill="green" />
  <line x1="83.33333333333333" y1="142.5727253971529" x2="83.33333333333333" y2="149.48421704146898" stroke="black" stroke-width="1" />
  <rect x="75.53333333333332" y="143.31545285743755" width="15.6" height="2.001237879100529" fill="red" />
  <line x1="100.66666666666667" y1="142.8718795131009" x2="100.66666666666667" y2="146.3069940169177" stroke="black" stroke-width="1" />
  <rect x="92.86666666666666" y="144.53270063957086" width="15.6" height="1" fill="green" />
  <line x1="118.0" y1="142.44893748710547" x2="118.0" y2="146.96719620383743" stroke="black" stroke-width="1" />
  <rect x="110.19999999999999" y="143.55271301836189" width="15.6" height="1.3100887146688365" fill="red" />
  <line x1="135.33333333333331" y1="141.54115948009076" x2="135.33333333333331" y2="145.15762327212707" stroke="black" stroke-width="1" />
  <rect x="127.53333333333332" y="142.42830616876415" width="15.6" height="1" fill="green" />
  <line x1="152.66666666666666" y1="141.56199711161543" x2="152.66666666666666" y2="145.48174128326804" stroke="black" stroke-width="1" />
  <rect x="144.86666666666667" y="142.40767485042295" width="15.6" height="1" fill="red" />
  <line x1="169.99999999999997" y1="140.88095729317098" x2="169.99999999999997" y2="147.3179286156385" stroke="black" stroke-width="1" />
  <rect x="162.2" y="141.5205281617495" width="15.6" height="4.270682896637197" fill="red" />
  <line x1="187.33333333333331" y1="145.15164018980818" x2="187.33333333333331" y2="149.69053022488134" stroke="black" stroke-width="1" />
  <rect x="179.53333333333333" y="146.61646379203626" width="15.6" height="1" fill="red" />
  <line x1="204.66666666666666" y1="144.71838250464202" x2="204.66666666666666" y2="150.06189395502372" stroke="black" stroke-width="1" />
  <rect x="196.86666666666667" y="145.62616051165674" width="15.6" height="1.691768103981758" fill="red" />
  <line x1="221.99999999999997" y1="144.59459459459458" x2="221.99999999999997" y2="149.401691768104" stroke="black" stroke-width="1" />
  <rect x="214.2" y="144.98658964307822" width="15.6" height="2.1869197441715755" fill="green" />
  <line x1="239.33333333333331" y1="137.47678976686615" x2="239.33333333333331" y2="145.43016298741486" stroke="black" stroke-width="1" />
  <rect x="231.53333333333333" y="142.1394677119868" width="15.6" height="3.1978543428925263" fill="green" />
  <line x1="256.6666666666667" y1="137.62120899525485" x2="256.6666666666667" y2="144.71838250464202" stroke="black" stroke-width="1" />
  <rect x="248.86666666666667" y="140.09696719620376" width="15.6" height="3.4454301629875204" fill="red" />
  <line x1="274.0" y1="143.29482153909635" x2="274.0" y2="153.5485867546936" stroke="black" stroke-width="1" />
  <rect x="266.2" y="143.6455539508974" width="15.6" height="8.458840519909245" fill="red" />
  <line x1="291.3333333333333" y1="148.22570662265315" x2="291.3333333333333" y2="152.16628842583037" stroke="black" stroke-width="1" />
  <rect x="283.5333333333333" y="150.84588405199094" width="15.6" height="1" fill="red" />
  <line x1="308.6666666666667" y1="144.3676500928409" x2="308.6666666666667" y2="149.8762120899525" stroke="black" stroke-width="1" />
  <rect x="300.8666666666667" y="144.75964514132454" width="15.6" height="2.9915411594800503" fill="green" />
  <line x1="326.0" y1="138.46709304724573" x2="326.0" y2="152.00123787910047" stroke="black" stroke-width="1" />
  <rect x="318.2" y="138.7146688673406" width="15.6" height="6.663915824221135" fill="green" />
  <line x1="343.3333333333333" y1="142.160099030328" x2="343.3333333333333" y2="150.95316690736536" stroke="black" stroke-width="1" />
  <rect x="335.5333333333333" y="142.160099030328" width="15.6" height="6.375077367443794" fill="red" />
  <line x1="360.6666666666667" y1="147.54487311739223" x2="360.6666666666667" y2="155.38477408706416" stroke="black" stroke-width="1" />
  <rect x="352.8666666666667" y="148.14318134928817" width="15.6" height="1.5679801939343747" fill="red" />
  <line x1="378.0" y1="148.5351763977718" x2="378.0" y2="154.27068289663708" stroke="black" stroke-width="1" />
  <rect x="370.2" y="149.31916649473902" width="15.6" height="1" fill="green" />
  <line x1="395.3333333333333" y1="145.29605941819688" x2="395.3333333333333" y2="148.80338353620795" stroke="black" stroke-width="1" />
  <rect x="387.5333333333333" y="145.99752424179906" width="15.6" height="1" fill="red" />
  <line x1="412.6666666666667" y1="145.47142562409744" x2="412.6666666666667" y2="154.25005157829588" stroke="black" stroke-width="1" />
  <rect x="404.8666666666667" y="148.10191871260565" width="15.6" height="2.7852279760677447" fill="red" />
  <line x1="430.0" y1="146.49267588198882" x2="430.0" y2="154.3375283680627" stroke="black" stroke-width="1" />
  <rect x="422.2" y="151.54734887559312" width="15.6" height="1" fill="red" />
  <line x1="447.3333333333333" y1="149.4223230864452" x2="447.3333333333333" y2="153.96121312151843" stroke="black" stroke-width="1" />
  <rect x="439.5333333333333" y="150.53641427687228" width="15.6" height="1" fill="green" />
  <line x1="464.6666666666667" y1="150.12172477821332" x2="464.6666666666667" y2="153.61048070971736" stroke="black" stroke-width="1" />
  <rect x="456.8666666666667" y="150.84588405199094" width="15.6" height="1" fill="green" />
  <line x1="482.0" y1="149.1334846296678" x2="482.0" y2="153.46606148132867" stroke="black" stroke-width="1" />
  <rect x="474.2" y="150.10315659170618" width="15.6" height="1" fill="green" />
  <line x1="499.3333333333333" y1="147.25603466061477" x2="499.3333333333333" y2="154.73034866927998" stroke="black" stroke-width="1" />
  <rect x="491.5333333333333" y="150.76335877862596" width="15.6" height="1.1553538271095931" fill="green" />
  <line x1="516.6666666666666" y1="148.57643903445432" x2="516.6666666666666" y2="156.02434495564268" stroke="black" stroke-width="1" />
  <rect x="508.8666666666666" y="149.75242417990512" width="15.6" height="5.652981225500298" fill="red" />
  <line x1="533.9999999999999" y1="152.0837631524654" x2="533.9999999999999" y2="158.79925727253965" stroke="black" stroke-width="1" />
  <rect x="526.1999999999999" y="154.08500103156587" width="15.6" height="3.713637301423603" fill="green" />
  <line x1="551.3333333333333" y1="145.35795337322054" x2="551.3333333333333" y2="157.4479059211883" stroke="black" stroke-width="1" />
  <rect x="543.5333333333333" y="148.12255003094697" width="15.6" height="4.518258716732021" fill="green" />

<!-- Resistance Line -->
<line x1="40" y1="130" x2="600" y2="130" stroke="blue" stroke-width="2" />
<text x="610" y="135" font-size="10" fill="blue">Resistance</text>

<!-- Support Line -->
<line x1="40" y1="150" x2="600" y2="150" stroke="green" stroke-width="2" />
<text x="610" y="155" font-size="10" fill="green">Support</text>

<!-- Trendline -->
<line x1="40" y1="170" x2="600" y2="130" stroke="orange" stroke-width="2" />
<text x="610" y="135" font-size="10" fill="orange">Trendline</text>
</svg>