<svg width="800" height="300" xmlns="http://www.w3.org/2000/svg">
  <line x1="40" y1="250" x2="40" y2="50" stroke="black" stroke-width="2" />
  <line x1="35" y1="250.0" x2="40" y2="250.0" stroke="black" stroke-width="1" />
  <text x="10" y="255.0" font-size="10" fill="black">75</text>
  <line x1="40" y1="250.0" x2="780" y2="250.0" stroke="lightgray" stroke-width="1" stroke-dasharray="5,5" />
  <line x1="35" y1="210.0" x2="40" y2="210.0" stroke="black" stroke-width="1" />
  <text x="10" y="215.0" font-size="10" fill="black">85</text>
  <line x1="40" y1="210.0" x2="780" y2="210.0" stroke="lightgray" stroke-width="1" stroke-dasharray="5,5" />
  <line x1="35" y1="170.0" x2="40" y2="170.0" stroke="black" stroke-width="1" />
  <text x="10" y="175.0" font-size="10" fill="black">95</text>
  <line x1="40" y1="170.0" x2="780" y2="170.0" stroke="lightgray" stroke-width="1" stroke-dasharray="5,5" />
  <line x1="35" y1="130.0" x2="40" y2="130.0" stroke="black" stroke-width="1" />
  <text x="10" y="135.0" font-size="10" fill="black">105</text>
  <line x1="40" y1="130.0" x2="780" y2="130.0" stroke="lightgray" stroke-width="1" stroke-dasharray="5,5" />
  <line x1="35" y1="90.0" x2="40" y2="90.0" stroke="black" stroke-width="1" />
  <text x="10" y="95.0" font-size="10" fill="black">115</text>
  <line x1="40" y1="90.0" x2="780" y2="90.0" stroke="lightgray" stroke-width="1" stroke-dasharray="5,5" />
  <line x1="35" y1="50.0" x2="40" y2="50.0" stroke="black" stroke-width="1" />
  <text x="10" y="55.0" font-size="10" fill="black">125</text>
  <line x1="40" y1="50.0" x2="780" y2="50.0" stroke="lightgray" stroke-width="1" stroke-dasharray="5,5" />
  <line x1="58.27759197324415" y1="149.236641221374" x2="58.27759197324415" y2="153.3216422529399" stroke="black" stroke-width="1" />
  <rect x="50.0" y="149.95873736331748" width="16.555183946488295" height="1" fill="green" />
  <line x1="76.67224080267559" y1="143.19166494739017" x2="76.67224080267559" y2="151.09345987208587" stroke="black" stroke-width="1" />
  <rect x="68.39464882943145" y="143.83123581596868" width="16.555183946488295" height="7.159067464410953" fill="green" />
  <line x1="95.06688963210702" y1="142.5727253971529" x2="95.06688963210702" y2="149.48421704146898" stroke="black" stroke-width="1" />
  <rect x="86.78929765886288" y="143.31545285743755" width="16.555183946488295" height="2.001237879100529" fill="red" />
  <line x1="113.46153846153845" y1="142.8718795131009" x2="113.46153846153845" y2="146.3069940169177" stroke="black" stroke-width="1" />
  <rect x="105.18394648829431" y="144.53270063957086" width="16.555183946488295" height="1" fill="green" />
  <line x1="131.8561872909699" y1="142.44893748710547" x2="131.8561872909699" y2="146.96719620383743" stroke="black" stroke-width="1" />
  <rect x="123.57859531772576" y="143.55271301836189" width="16.555183946488295" height="1.3100887146688365" fill="red" />
  <line x1="150.25083612040135" y1="141.54115948009076" x2="150.25083612040135" y2="145.15762327212707" stroke="black" stroke-width="1" />
  <rect x="141.9732441471572" y="142.42830616876415" width="16.555183946488295" height="1" fill="green" />
  <line x1="168.64548494983276" y1="141.56199711161543" x2="168.64548494983276" y2="145.48174128326804" stroke="black" stroke-width="1" />
  <rect x="160.36789297658862" y="142.40767485042295" width="16.555183946488295" height="1" fill="red" />
  <line x1="187.0401337792642" y1="140.88095729317098" x2="187.0401337792642" y2="147.3179286156385" stroke="black" stroke-width="1" />
  <rect x="178.76254180602007" y="141.5205281617495" width="16.555183946488295" height="4.270682896637197" fill="red" />
  <line x1="205.43478260869566" y1="145.15164018980818" x2="205.43478260869566" y2="149.69053022488134" stroke="black" stroke-width="1" />
  <rect x="197.1571906354515" y="146.61646379203626" width="16.555183946488295" height="1" fill="red" />
  <line x1="223.8294314381271" y1="144.71838250464202" x2="223.8294314381271" y2="150.06189395502372" stroke="black" stroke-width="1" />
  <rect x="215.55183946488296" y="145.62616051165674" width="16.555183946488295" height="1.691768103981758" fill="red" />
  <line x1="242.22408026755855" y1="144.59459459459458" x2="242.22408026755855" y2="149.401691768104" stroke="black" stroke-width="1" />
  <rect x="233.9464882943144" y="144.98658964307822" width="16.555183946488295" height="2.1869197441715755" fill="green" />
  <line x1="260.61872909698997" y1="137.47678976686615" x2="260.61872909698997" y2="145.43016298741486" stroke="black" stroke-width="1" />
  <rect x="252.34113712374582" y="142.1394677119868" width="16.555183946488295" height="3.1978543428925263" fill="green" />
  <line x1="279.0133779264214" y1="137.62120899525485" x2="279.0133779264214" y2="144.71838250464202" stroke="black" stroke-width="1" />
  <rect x="270.73578595317724" y="140.09696719620376" width="16.555183946488295" height="3.4454301629875204" fill="red" />
  <line x1="297.4080267558529" y1="143.29482153909635" x2="297.4080267558529" y2="153.5485867546936" stroke="black" stroke-width="1" />
  <rect x="289.13043478260875" y="143.6455539508974" width="16.555183946488295" height="8.458840519909245" fill="red" />
  <line x1="315.8026755852843" y1="148.22570662265315" x2="315.8026755852843" y2="152.16628842583037" stroke="black" stroke-width="1" />
  <rect x="307.52508361204013" y="150.84588405199094" width="16.555183946488295" height="1" fill="red" />
  <line x1="334.19732441471575" y1="144.3676500928409" x2="334.19732441471575" y2="149.8762120899525" stroke="black" stroke-width="1" />
  <rect x="325.9197324414716" y="144.75964514132454" width="16.555183946488295" height="2.9915411594800503" fill="green" />
  <line x1="352.5919732441472" y1="138.46709304724573" x2="352.5919732441472" y2="152.00123787910047" stroke="black" stroke-width="1" />
  <rect x="344.314381270903" y="138.7146688673406" width="16.555183946488295" height="6.663915824221135" fill="green" />
  <line x1="370.98662207357864" y1="142.160099030328" x2="370.98662207357864" y2="150.95316690736536" stroke="black" stroke-width="1" />
  <rect x="362.7090301003345" y="142.160099030328" width="16.555183946488295" height="6.375077367443794" fill="red" />
  <line x1="389.3812709030101" y1="147.54487311739223" x2="389.3812709030101" y2="155.38477408706416" stroke="black" stroke-width="1" />
  <rect x="381.1036789297659" y="148.14318134928817" width="16.555183946488295" height="1.5679801939343747" fill="red" />
  <line x1="407.77591973244154" y1="148.5351763977718" x2="407.77591973244154" y2="154.27068289663708" stroke="black" stroke-width="1" />
  <rect x="399.49832775919737" y="149.31916649473902" width="16.555183946488295" height="1" fill="green" />
  <line x1="426.170568561873" y1="145.29605941819688" x2="426.170568561873" y2="148.80338353620795" stroke="black" stroke-width="1" />
  <rect x="417.8929765886288" y="145.99752424179906" width="16.555183946488295" height="1" fill="red" />
  <line x1="444.5652173913044" y1="145.47142562409744" x2="444.5652173913044" y2="154.25005157829588" stroke="black" stroke-width="1" />
  <rect x="436.2876254180602" y="148.10191871260565" width="16.555183946488295" height="2.7852279760677447" fill="red" />
  <line x1="462.9598662207358" y1="146.49267588198882" x2="462.9598662207358" y2="154.3375283680627" stroke="black" stroke-width="1" />
  <rect x="454.68227424749165" y="151.54734887559312" width="16.555183946488295" height="1" fill="red" />
  <line x1="481.35451505016727" y1="149.4223230864452" x2="481.35451505016727" y2="153.96121312151843" stroke="black" stroke-width="1" />
  <rect x="473.0769230769231" y="150.53641427687228" width="16.555183946488295" height="1" fill="green" />
  <line x1="499.7491638795987" y1="150.12172477821332" x2="499.7491638795987" y2="153.61048070971736" stroke="black" stroke-width="1" />
  <rect x="491.47157190635454" y="150.84588405199094" width="16.555183946488295" height="1" fill="green" />
  <line x1="518.1438127090302" y1="149.1334846296678" x2="518.1438127090302" y2="153.46606148132867" stroke="black" stroke-width="1" />
  <rect x="509.866220735786" y="150.10315659170618" width="16.555183946488295" height="1" fill="green" />
  <line x1="536.5384615384617" y1="147.25603466061477" x2="536.5384615384617" y2="154.73034866927998" stroke="black" stroke-width="1" />
  <rect x="528.2608695652175" y="150.76335877862596" width="16.555183946488295" height="1.1553538271095931" fill="green" />
  <line x1="554.933110367893" y1="148.57643903445432" x2="554.933110367893" y2="156.02434495564268" stroke="black" stroke-width="1" />
  <rect x="546.6555183946489" y="149.75242417990512" width="16.555183946488295" height="5.652981225500298" fill="red" />
  <line x1="573.3277591973244" y1="152.0837631524654" x2="573.3277591973244" y2="158.79925727253965" stroke="black" stroke-width="1" />
  <rect x="565.0501672240803" y="154.08500103156587" width="16.555183946488295" height="3.713637301423603" fill="green" />
  <line x1="591.7224080267559" y1="145.35795337322054" x2="591.7224080267559" y2="157.4479059211883" stroke="black" stroke-width="1" />
  <rect x="583.4448160535118" y="148.12255003094697" width="16.555183946488295" height="4.518258716732021" fill="green" />
</svg>