<svg width="800" height="300" xmlns="http://www.w3.org/2000/svg">
  <line x1="40" y1="250" x2="40" y2="50" stroke="black" stroke-width="2" />
  <line x1="35" y1="250.0" x2="40" y2="250.0" stroke="black" stroke-width="1" />
  <text x="10" y="255.0" font-size="10" fill="black">75</text>
  <line x1="40" y1="250.0" x2="780" y2="250.0" stroke="lightgray" stroke-width="1" stroke-dasharray="5, 5" />
  <line x1="35" y1="210.0" x2="40" y2="210.0" stroke="black" stroke-width="1" />
  <text x="10" y="215.0" font-size="10" fill="black">85</text>
  <line x1="40" y1="210.0" x2="780" y2="210.0" stroke="lightgray" stroke-width="1" stroke-dasharray="5, 5" />
  <line x1="35" y1="170.0" x2="40" y2="170.0" stroke="black" stroke-width="1" />
  <text x="10" y="175.0" font-size="10" fill="black">95</text>
  <line x1="40" y1="170.0" x2="780" y2="170.0" stroke="lightgray" stroke-width="1" stroke-dasharray="5, 5" />
  <line x1="35" y1="130.0" x2="40" y2="130.0" stroke="black" stroke-width="1" />
  <text x="10" y="135.0" font-size="10" fill="black">105</text>
  <line x1="40" y1="130.0" x2="780" y2="130.0" stroke="lightgray" stroke-width="1" stroke-dasharray="5, 5" />
  <line x1="35" y1="90.0" x2="40" y2="90.0" stroke="black" stroke-width="1" />
  <text x="10" y="95.0" font-size="10" fill="black">115</text>
  <line x1="40" y1="90.0" x2="780" y2="90.0" stroke="lightgray" stroke-width="1" stroke-dasharray="5, 5" />
  <line x1="35" y1="50.0" x2="40" y2="50.0" stroke="black" stroke-width="1" />
  <text x="10" y="55.0" font-size="10" fill="black">125</text>
  <line x1="40" y1="50.0" x2="780" y2="50.0" stroke="lightgray" stroke-width="1" stroke-dasharray="5, 5" />
  <line x1="35" y1="150.0" x2="40" y2="150.0" stroke="black" stroke-width="1" />
  <text x="10" y="155.0" font-size="10" fill="black">100</text>
  <line x1="40" y1="150.0" x2="780" y2="150.0" stroke="lightgray" stroke-width="1" stroke-dasharray="5, 5" />
  <line x1="48.666666666666664" y1="141.10670712825913" x2="48.666666666666664" y2="150.8422617204434" stroke="black" stroke-width="1" />
  <rect x="40.86666666666667" y="146.30891187217435" width="15.6" height="3.691088127825651" fill="green" />
  <line x1="66.0" y1="137.06880535083917" x2="66.0" y2="143.08849941165545" stroke="black" stroke-width="1" />
  <rect x="58.199999999999996" y="137.11835015792406" width="15.6" height="3.4433640924010547" fill="green" />
  <line x1="83.33333333333333" y1="132.2381866600607" x2="83.33333333333333" y2="136.7467641047873" stroke="black" stroke-width="1" />
  <rect x="75.53333333333332" y="135.85495757725886" width="15.6" height="1" fill="green" />
  <line x1="100.66666666666667" y1="136.67244689415992" x2="100.66666666666667" y2="142.0728308664148" stroke="black" stroke-width="1" />
  <rect x="92.86666666666666" y="139.14968724840531" width="15.6" height="1.7340682479717202" fill="green" />
  <line x1="118.0" y1="134.8392890320183" x2="118.0" y2="145.44187774818857" stroke="black" stroke-width="1" />
  <rect x="110.19999999999999" y="135.65677834891937" width="15.6" height="8.571251625688888" fill="red" />
  <line x1="135.33333333333331" y1="138.3321979315043" x2="135.33333333333331" y2="144.15371276398093" stroke="black" stroke-width="1" />
  <rect x="127.53333333333332" y="139.71945252988166" width="15.6" height="2.229516318820856" fill="green" />
  <line x1="152.66666666666666" y1="134.93837864618808" x2="152.66666666666666" y2="142.60543754257753" stroke="black" stroke-width="1" />
  <rect x="144.86666666666667" y="137.83674986065523" width="15.6" height="1" fill="red" />
  <line x1="169.99999999999997" y1="137.68167461447945" x2="169.99999999999997" y2="142.5930513408063" stroke="black" stroke-width="1" />
  <rect x="162.2" y="139.18684585371892" width="15.6" height="2.8612126091534265" fill="red" />
  <line x1="187.33333333333331" y1="139.76899733696666" x2="187.33333333333331" y2="149.85532916331204" stroke="black" stroke-width="1" />
  <rect x="179.53333333333333" y="141.1686381371153" width="15.6" height="5.412770174026093" fill="red" />
  <line x1="204.66666666666666" y1="138.85241840589583" x2="204.66666666666666" y2="153.02223323217936" stroke="black" stroke-width="1" />
  <rect x="196.86666666666667" y="142.96463739394312" width="15.6" height="6.267418096240817" fill="red" />
  <line x1="221.99999999999997" y1="144.57484362420263" x2="221.99999999999997" y2="149.44881402118045" stroke="black" stroke-width="1" />
  <rect x="214.2" y="145.26847092339142" width="15.6" height="1.895088870997597" fill="green" />
  <line x1="239.33333333333331" y1="149.05864866538678" x2="239.33333333333331" y2="162.36142936768442" stroke="black" stroke-width="1" />
  <rect x="231.53333333333333" y="149.38068991143865" width="15.6" height="10.8007679445098" fill="red" />
  <line x1="256.6666666666667" y1="156.1187836749861" x2="256.6666666666667" y2="163.64563076732514" stroke="black" stroke-width="1" />
  <rect x="248.86666666666667" y="161.92791230569145" width="15.6" height="1" fill="red" />
  <line x1="274.0" y1="155.00402551557568" x2="274.0" y2="163.59881092462996" stroke="black" stroke-width="1" />
  <rect x="266.2" y="160.47872669845788" width="15.6" height="2.3286059329906266" fill="green" />
  <line x1="291.3333333333333" y1="159.01715488945308" x2="291.3333333333333" y2="177.05146466835942" stroke="black" stroke-width="1" />
  <rect x="283.5333333333333" y="160.33009227720316" width="15.6" height="15.804793460085534" fill="red" />
  <line x1="308.6666666666667" y1="169.9913296587601" x2="308.6666666666667" y2="185.31306124976777" stroke="black" stroke-width="1" />
  <rect x="300.8666666666667" y="172.1960735740385" width="15.6" height="9.41351334613239" fill="red" />
  <line x1="326.0" y1="175.26785161330275" x2="326.0" y2="182.52616585124167" stroke="black" stroke-width="1" />
  <rect x="318.2" y="177.299188703784" width="15.6" height="4.434260234099156" fill="red" />
  <line x1="343.3333333333333" y1="174.69808633182635" x2="343.3333333333333" y2="184.55750294172287" stroke="black" stroke-width="1" />
  <rect x="335.5333333333333" y="175.5403480522698" width="15.6" height="3.0717780392642453" fill="green" />
  <line x1="360.6666666666667" y1="166.4736483557317" x2="360.6666666666667" y2="171.84925992444414" stroke="black" stroke-width="1" />
  <rect x="352.8666666666667" y="166.79568960178364" width="15.6" height="2.204743915278357" fill="green" />
  <line x1="378.0" y1="157.65467269461817" x2="378.0" y2="165.507524617576" stroke="black" stroke-width="1" />
  <rect x="370.2" y="159.9337338205239" width="15.6" height="5.028797919118119" fill="green" />
  <line x1="395.3333333333333" y1="157.9767139406701" x2="395.3333333333333" y2="162.06416052517494" stroke="black" stroke-width="1" />
  <rect x="387.5333333333333" y="158.44738960797667" width="15.6" height="1.8579302656840468" fill="green" />
  <line x1="412.6666666666667" y1="152.27906112590574" x2="412.6666666666667" y2="157.6670588963894" stroke="black" stroke-width="1" />
  <rect x="404.8666666666667" y="155.32606676162754" width="15.6" height="1" fill="green" />
  <line x1="430.0" y1="152.402923143618" x2="430.0" y2="157.12206601845543" stroke="black" stroke-width="1" />
  <rect x="422.2" y="153.98835697033502" width="15.6" height="1" fill="red" />
  <line x1="447.3333333333333" y1="144.25280237815076" x2="447.3333333333333" y2="150.32204124605187" stroke="black" stroke-width="1" />
  <rect x="439.5333333333333" y="144.45098160649036" width="15.6" height="3.8892673561652487" fill="red" />
  <line x1="464.6666666666667" y1="144.40143679940547" x2="464.6666666666667" y2="148.5384281909952" stroke="black" stroke-width="1" />
  <rect x="456.8666666666667" y="144.74825044899984" width="15.6" height="1" fill="green" />
  <line x1="482.0" y1="140.04149377593353" x2="482.0" y2="149.50455192915098" stroke="black" stroke-width="1" />
  <rect x="474.2" y="142.8655477797734" width="15.6" height="6.193100885613376" fill="red" />
  <line x1="499.3333333333333" y1="145.67523378955843" x2="499.3333333333333" y2="151.93224747631137" stroke="black" stroke-width="1" />
  <rect x="491.5333333333333" y="146.1355050473772" width="15.6" height="1.833157862141661" fill="red" />
  <line x1="516.6666666666666" y1="146.68049792531122" x2="516.6666666666666" y2="150.4211308602217" stroke="black" stroke-width="1" />
  <rect x="508.8666666666666" y="149.95045519291506" width="15.6" height="1" fill="green" />
  <line x1="533.9999999999999" y1="143.53440267541959" x2="533.9999999999999" y2="147.9934353130613" stroke="black" stroke-width="1" />
  <rect x="526.1999999999999" y="144.62438843128763" width="15.6" height="2.254288722363185" fill="red" />
  <line x1="551.3333333333333" y1="139.52127330154207" x2="551.3333333333333" y2="147.13606242645687" stroke="black" stroke-width="1" />
  <rect x="543.5333333333333" y="143.85644392147145" width="15.6" height="2.8240540038397626" fill="green" />

<!-- Resistance Line -->
<line x1="40" y1="130" x2="600" y2="130" stroke="red" stroke-width="2" />
<text x="610" y="135" font-size="10" fill="red">Resistance</text>

<!-- Support Line -->
<line x1="40" y1="170" x2="600" y2="170" stroke="green" stroke-width="2" />
<text x="610" y="175" font-size="10" fill="green">Support</text>

<!-- Trendline -->
<line x1="40" y1="150" x2="600" y2="180" stroke="blue" stroke-width="2" />
<text x="610" y="185" font-size="10" fill="blue">Trendline</text>
</svg>