<svg width="800" height="300" xmlns="http://www.w3.org/2000/svg">
  <line x1="40" y1="250" x2="40" y2="50" stroke="black" stroke-width="2" />
  <line x1="35" y1="250.0" x2="40" y2="250.0" stroke="black" stroke-width="1" />
  <text x="10" y="255.0" font-size="10" fill="black">75</text>
  <line x1="40" y1="250.0" x2="780" y2="250.0" stroke="lightgray" stroke-width="1" stroke-dasharray="5,5" />
  <line x1="35" y1="210.0" x2="40" y2="210.0" stroke="black" stroke-width="1" />
  <text x="10" y="215.0" font-size="10" fill="black">85</text>
  <line x1="40" y1="210.0" x2="780" y2="210.0" stroke="lightgray" stroke-width="1" stroke-dasharray="5,5" />
  <line x1="35" y1="170.0" x2="40" y2="170.0" stroke="black" stroke-width="1" />
  <text x="10" y="175.0" font-size="10" fill="black">95</text>
  <line x1="40" y1="170.0" x2="780" y2="170.0" stroke="lightgray" stroke-width="1" stroke-dasharray="5,5" />
  <line x1="35" y1="130.0" x2="40" y2="130.0" stroke="black" stroke-width="1" />
  <text x="10" y="135.0" font-size="10" fill="black">105</text>
  <line x1="40" y1="130.0" x2="780" y2="130.0" stroke="lightgray" stroke-width="1" stroke-dasharray="5,5" />
  <line x1="35" y1="90.0" x2="40" y2="90.0" stroke="black" stroke-width="1" />
  <text x="10" y="95.0" font-size="10" fill="black">115</text>
  <line x1="40" y1="90.0" x2="780" y2="90.0" stroke="lightgray" stroke-width="1" stroke-dasharray="5,5" />
  <line x1="35" y1="50.0" x2="40" y2="50.0" stroke="black" stroke-width="1" />
  <text x="10" y="55.0" font-size="10" fill="black">125</text>
  <line x1="40" y1="50.0" x2="780" y2="50.0" stroke="lightgray" stroke-width="1" stroke-dasharray="5,5" />
  <line x1="58.27759197324415" y1="147.06281066425663" x2="58.27759197324415" y2="151.76208766380478" stroke="black" stroke-width="1" />
  <rect x="50.0" y="149.95481247175775" width="16.555183946488295" height="1" fill="green" />
  <line x1="76.67224080267559" y1="147.15318572074108" x2="76.67224080267559" y2="151.988251242657" stroke="black" stroke-width="1" />
  <rect x="68.39464882943145" y="147.33393583370986" width="16.555183946488295" height="1.3104383190240014" fill="green" />
  <line x1="95.06688963210702" y1="145.5490284681428" x2="95.06688963210702" y2="149.11703569814733" stroke="black" stroke-width="1" />
  <rect x="86.78929765886288" y="145.84274740171708" width="16.555183946488295" height="2.1690013556258805" fill="green" />
  <line x1="113.46153846153845" y1="137.92363307727067" x2="113.46153846153845" y2="145.81179394487123" stroke="black" stroke-width="1" />
  <rect x="105.18394648829431" y="143.06371441482145" width="16.555183946488295" height="1" fill="green" />
  <line x1="131.8561872909699" y1="139.99096249435155" x2="131.8561872909699" y2="153.0727519204699" stroke="black" stroke-width="1" />
  <rect x="123.57859531772576" y="140.19430637144143" width="16.555183946488295" height="11.861726163578908" fill="red" />
  <line x1="150.25083612040135" y1="145.63962946226843" x2="150.25083612040135" y2="154.06687754179842" stroke="black" stroke-width="1" />
  <rect x="141.9732441471572" y="149.32218707636696" width="16.555183946488295" height="1" fill="red" />
  <line x1="168.64548494983276" y1="149.03253502033442" x2="168.64548494983276" y2="156.19069136918205" stroke="black" stroke-width="1" />
  <rect x="160.36789297658862" y="150.7681879801175" width="16.555183946488295" height="2.7112516945322795" fill="red" />
  <line x1="187.0401337792642" y1="154.85765928603706" x2="187.0401337792642" y2="160.82241301400813" stroke="black" stroke-width="1" />
  <rect x="178.76254180602007" y="156.52959783099863" width="16.555183946488295" height="2.3271577044735636" fill="red" />
  <line x1="205.43478260869566" y1="157.56891098056934" x2="205.43478260869566" y2="168.34613646633534" stroke="black" stroke-width="1" />
  <rect x="197.1571906354515" y="157.56891098056934" width="16.555183946488295" height="6.529597830998625" fill="red" />
  <line x1="223.8294314381271" y1="156.2132851333032" x2="223.8294314381271" y2="164.07591504744687" stroke="black" stroke-width="1" />
  <rect x="215.55183946488296" y="158.63081789426116" width="16.555183946488295" height="2.4853140533213036" fill="red" />
  <line x1="242.22408026755855" y1="145.79755987347494" x2="242.22408026755855" y2="160.03163126976955" stroke="black" stroke-width="1" />
  <rect x="233.9464882943144" y="146.70131043831896" width="16.555183946488295" height="12.923633077270722" fill="green" />
  <line x1="260.61872909698997" y1="147.24356077722547" x2="260.61872909698997" y2="154.02169001355628" stroke="black" stroke-width="1" />
  <rect x="252.34113712374582" y="148.84771802982374" width="16.555183946488295" height="2.937189335743369" fill="red" />
  <line x1="279.0133779264214" y1="152.39493899683686" x2="279.0133779264214" y2="160.1671938544962" stroke="black" stroke-width="1" />
  <rect x="270.73578595317724" y="155.7840036150023" width="16.555183946488295" height="2.5982828739267347" fill="red" />
  <line x1="297.4080267558529" y1="143.5946678716674" x2="297.4080267558529" y2="154.62042476276542" stroke="black" stroke-width="1" />
  <rect x="289.13043478260875" y="148.0795300497063" width="16.555183946488295" height="6.529597830998625" fill="green" />
  <line x1="315.8026755852843" y1="146.97243560777224" x2="315.8026755852843" y2="163.28513330320828" stroke="black" stroke-width="1" />
  <rect x="307.52508361204013" y="149.54812471757793" width="16.555183946488295" height="13.217352010845048" fill="red" />
  <line x1="334.19732441471575" y1="152.68865793041118" x2="334.19732441471575" y2="157.9755987347492" stroke="black" stroke-width="1" />
  <rect x="325.9197324414716" y="153.7053773158608" width="16.555183946488295" height="1.9656574785359453" fill="green" />
  <line x1="352.5919732441472" y1="142.18255761409847" x2="352.5919732441472" y2="150.56484410302755" stroke="black" stroke-width="1" />
  <rect x="344.314381270903" y="144.32896520560325" width="16.555183946488295" height="4.65431540894707" fill="green" />
  <line x1="370.98662207357864" y1="132.03795752372338" x2="370.98662207357864" y2="152.95978309986447" stroke="black" stroke-width="1" />
  <rect x="362.7090301003345" y="133.09986443741525" width="16.555183946488295" height="9.997740623587845" fill="green" />
  <line x1="389.3812709030101" y1="126.57026660641668" x2="389.3812709030101" y2="135.31405332128338" stroke="black" stroke-width="1" />
  <rect x="381.1036789297659" y="127.49661093538185" width="16.555183946488295" height="4.9706281066424935" fill="green" />
  <line x1="407.77591973244154" y1="124.10754631721642" x2="407.77591973244154" y2="129.959331224582" stroke="black" stroke-width="1" />
  <rect x="399.49832775919737" y="127.49661093538185" width="16.555183946488295" height="1.1522819701762046" fill="red" />
  <line x1="426.170568561873" y1="130.18526886579298" x2="426.170568561873" y2="135.72074107546308" stroke="black" stroke-width="1" />
  <rect x="417.8929765886288" y="131.3601446000904" width="16.555183946488295" height="1" fill="red" />
  <line x1="444.5652173913044" y1="121.96113872571175" x2="444.5652173913044" y2="129.43967464979664" stroke="black" stroke-width="1" />
  <rect x="436.2876254180602" y="127.76773610483508" width="16.555183946488295" height="1" fill="green" />
  <line x1="462.9598662207358" y1="123.42973339358332" x2="462.9598662207358" y2="131.8798011748757" stroke="black" stroke-width="1" />
  <rect x="454.68227424749165" y="128.73926796204245" width="16.555183946488295" height="1" fill="red" />
  <line x1="481.35451505016727" y1="118.48169905106192" x2="481.35451505016727" y2="124.17532760957971" stroke="black" stroke-width="1" />
  <rect x="473.0769230769231" y="120.62810664256665" width="16.555183946488295" height="1" fill="red" />
  <line x1="499.7491638795987" y1="116.56122910076812" x2="499.7491638795987" y2="126.57026660641668" stroke="black" stroke-width="1" />
  <rect x="491.47157190635454" y="117.10347943967463" width="16.555183946488295" height="3.0953456845910523" fill="green" />
  <line x1="518.1438127090302" y1="110.66425666516045" x2="518.1438127090302" y2="119.43063714414819" stroke="black" stroke-width="1" />
  <rect x="509.866220735786" y="111.95210122006324" width="16.555183946488295" height="5.061003163126998" fill="green" />
  <line x1="536.5384615384617" y1="108.5856303660189" x2="536.5384615384617" y2="120.42476276547671" stroke="black" stroke-width="1" />
  <rect x="528.2608695652175" y="111.07094441934021" width="16.555183946488295" height="1" fill="red" />
  <line x1="554.933110367893" y1="111.79439674649797" x2="554.933110367893" y2="115.83822864889288" stroke="black" stroke-width="1" />
  <rect x="546.6555183946489" y="112.24582015363762" width="16.555183946488295" height="2.7564392227745316" fill="red" />
  <line x1="573.3277591973244" y1="110.48350655219156" x2="573.3277591973244" y2="121.75779484862181" stroke="black" stroke-width="1" />
  <rect x="565.0501672240803" y="110.98056936285576" width="16.555183946488295" height="7.117035698147333" fill="red" />
  <line x1="591.7224080267559" y1="118.68504292815174" x2="591.7224080267559" y2="126.72842295526436" stroke="black" stroke-width="1" />
  <rect x="583.4448160535118" y="119.18210573881606" width="16.555183946488295" height="6.122910076818812" fill="red" />
</svg>