<svg width="800" height="300" xmlns="http://www.w3.org/2000/svg">
  <line x1="40" y1="250" x2="40" y2="50" stroke="black" stroke-width="2" />
  <line x1="35" y1="250.0" x2="40" y2="250.0" stroke="black" stroke-width="1" />
  <text x="10" y="255.0" font-size="10" fill="black">75</text>
  <line x1="40" y1="250.0" x2="780" y2="250.0" stroke="lightgray" stroke-width="1" stroke-dasharray="5, 5" />
  <line x1="35" y1="210.0" x2="40" y2="210.0" stroke="black" stroke-width="1" />
  <text x="10" y="215.0" font-size="10" fill="black">85</text>
  <line x1="40" y1="210.0" x2="780" y2="210.0" stroke="lightgray" stroke-width="1" stroke-dasharray="5, 5" />
  <line x1="35" y1="170.0" x2="40" y2="170.0" stroke="black" stroke-width="1" />
  <text x="10" y="175.0" font-size="10" fill="black">95</text>
  <line x1="40" y1="170.0" x2="780" y2="170.0" stroke="lightgray" stroke-width="1" stroke-dasharray="5, 5" />
  <line x1="35" y1="130.0" x2="40" y2="130.0" stroke="black" stroke-width="1" />
  <text x="10" y="135.0" font-size="10" fill="black">105</text>
  <line x1="40" y1="130.0" x2="780" y2="130.0" stroke="lightgray" stroke-width="1" stroke-dasharray="5, 5" />
  <line x1="35" y1="90.0" x2="40" y2="90.0" stroke="black" stroke-width="1" />
  <text x="10" y="95.0" font-size="10" fill="black">115</text>
  <line x1="40" y1="90.0" x2="780" y2="90.0" stroke="lightgray" stroke-width="1" stroke-dasharray="5, 5" />
  <line x1="35" y1="50.0" x2="40" y2="50.0" stroke="black" stroke-width="1" />
  <text x="10" y="55.0" font-size="10" fill="black">125</text>
  <line x1="40" y1="50.0" x2="780" y2="50.0" stroke="lightgray" stroke-width="1" stroke-dasharray="5, 5" />
  <line x1="35" y1="150.0" x2="40" y2="150.0" stroke="black" stroke-width="1" />
  <text x="10" y="155.0" font-size="10" fill="black">100</text>
  <line x1="40" y1="150.0" x2="780" y2="150.0" stroke="lightgray" stroke-width="1" stroke-dasharray="5, 5" />
  <line x1="48.666666666666664" y1="144.80689531975702" x2="48.666666666666664" y2="150.4821364773133" stroke="black" stroke-width="1" />
  <rect x="40.86666666666667" y="146.19506966773838" width="15.6" height="3.8049303322616197" fill="green" />
  <line x1="66.0" y1="146.3022508038585" x2="66.0" y2="151.57198999642725" stroke="black" stroke-width="1" />
  <rect x="58.199999999999996" y="146.4808860307253" width="15.6" height="1" fill="green" />
  <line x1="83.33333333333333" y1="144.19435512683106" x2="83.33333333333333" y2="147.26688102893888" stroke="black" stroke-width="1" />
  <rect x="75.53333333333332" y="145.37334762415145" width="15.6" height="1.3219006788138472" fill="green" />
  <line x1="100.66666666666667" y1="142.74740978921045" x2="100.66666666666667" y2="147.98142193640575" stroke="black" stroke-width="1" />
  <rect x="92.86666666666666" y="145.35548410146475" width="15.6" height="1" fill="red" />
  <line x1="118.0" y1="142.10432297249014" x2="118.0" y2="150.03572704537333" stroke="black" stroke-width="1" />
  <rect x="110.19999999999999" y="143.08681672025722" width="15.6" height="5.82350839585564" fill="red" />
  <line x1="135.33333333333331" y1="142.31868524473026" x2="135.33333333333331" y2="149.26759556984638" stroke="black" stroke-width="1" />
  <rect x="127.53333333333332" y="144.78385137549122" width="15.6" height="2.109860664523069" fill="green" />
  <line x1="152.66666666666666" y1="143.99785637727757" x2="152.66666666666666" y2="150.05269739192568" stroke="black" stroke-width="1" />
  <rect x="144.86666666666667" y="144.1764916041443" width="15.6" height="1" fill="green" />
  <line x1="169.99999999999997" y1="141.19328331546984" x2="169.99999999999997" y2="148.26723829939266" stroke="black" stroke-width="1" />
  <rect x="162.2" y="142.65809217577703" width="15.6" height="3.635226866738151" fill="green" />
  <line x1="187.33333333333331" y1="139.38906752411572" x2="187.33333333333331" y2="146.8560200071454" stroke="black" stroke-width="1" />
  <rect x="179.53333333333333" y="142.85459092533046" width="15.6" height="2.5544837441943287" fill="red" />
  <line x1="204.66666666666666" y1="133.9228295819936" x2="204.66666666666666" y2="141.13969274740975" stroke="black" stroke-width="1" />
  <rect x="196.86666666666667" y="138.96034297963558" width="15.6" height="1" fill="red" />
  <line x1="221.99999999999997" y1="138.42443729903533" x2="221.99999999999997" y2="143.64058592354417" stroke="black" stroke-width="1" />
  <rect x="214.2" y="138.7995712754555" width="15.6" height="2.125759199714139" fill="red" />
  <line x1="239.33333333333331" y1="140.92533047516963" x2="239.33333333333331" y2="154.9124687388353" stroke="black" stroke-width="1" />
  <rect x="231.53333333333333" y="141.72918899606992" width="15.6" height="10.325116112897547" fill="red" />
  <line x1="256.6666666666667" y1="153.82279385494815" x2="256.6666666666667" y2="161.50410861021794" stroke="black" stroke-width="1" />
  <rect x="248.86666666666667" y="154.03715612718827" width="15.6" height="1.4469453376206047" fill="red" />
  <line x1="274.0" y1="147.2132904608789" x2="274.0" y2="154.28724544480167" stroke="black" stroke-width="1" />
  <rect x="266.2" y="152.75098249374776" width="15.6" height="1.3486959628438626" fill="green" />
  <line x1="291.3333333333333" y1="147.64201500535899" x2="291.3333333333333" y2="157.41336191496958" stroke="black" stroke-width="1" />
  <rect x="283.5333333333333" y="149.94640943193997" width="15.6" height="5.591282600928878" fill="red" />
  <line x1="308.6666666666667" y1="154.7338335119685" x2="308.6666666666667" y2="162.87959985709176" stroke="black" stroke-width="1" />
  <rect x="300.8666666666667" y="155.3769203286888" width="15.6" height="1" fill="green" />
  <line x1="326.0" y1="154.3586995355484" x2="326.0" y2="162.84387281171848" stroke="black" stroke-width="1" />
  <rect x="318.2" y="156.80600214362266" width="15.6" height="2.125759199714196" fill="green" />
  <line x1="343.3333333333333" y1="151.48267238299388" x2="343.3333333333333" y2="160.77170418006432" stroke="black" stroke-width="1" />
  <rect x="335.5333333333333" y="152.2508038585209" width="15.6" height="2.1525544837441544" fill="green" />
  <line x1="360.6666666666667" y1="150.6609503394069" x2="360.6666666666667" y2="157.32404430153622" stroke="black" stroke-width="1" />
  <rect x="352.8666666666667" y="152.05430510896747" width="15.6" height="1" fill="green" />
  <line x1="378.0" y1="149.78563772775988" x2="378.0" y2="153.59056806002138" stroke="black" stroke-width="1" />
  <rect x="370.2" y="150.60735977134686" width="15.6" height="1.9292604501608253" fill="red" />
  <line x1="395.3333333333333" y1="161.9685602000714" x2="395.3333333333333" y2="167.86352268667383" stroke="black" stroke-width="1" />
  <rect x="387.5333333333333" y="163.18327974276525" width="15.6" height="1" fill="red" />
  <line x1="412.6666666666667" y1="162.540192926045" x2="412.6666666666667" y2="166.82743837084672" stroke="black" stroke-width="1" />
  <rect x="404.8666666666667" y="162.73669167559842" width="15.6" height="1.8578063594140417" fill="green" />
  <line x1="430.0" y1="152.16148624508747" x2="430.0" y2="161.39692747409788" stroke="black" stroke-width="1" />
  <rect x="422.2" y="155.7699178277956" width="15.6" height="5.609146123615574" fill="green" />
  <line x1="447.3333333333333" y1="139.46052161486244" x2="447.3333333333333" y2="148.73168988924618" stroke="black" stroke-width="1" />
  <rect x="439.5333333333333" y="141.1575562700964" width="15.6" height="6.931046802429478" fill="green" />
  <line x1="464.6666666666667" y1="133.61914969632005" x2="464.6666666666667" y2="143.39049660593065" stroke="black" stroke-width="1" />
  <rect x="456.8666666666667" y="139.19256877456235" width="15.6" height="3.16184351554125" fill="red" />
  <line x1="482.0" y1="140.12147195426934" x2="482.0" y2="146.62379421221863" stroke="black" stroke-width="1" />
  <rect x="474.2" y="143.8906752411575" width="15.6" height="1.5541264737406664" fill="red" />
  <line x1="499.3333333333333" y1="140.30010718113613" x2="499.3333333333333" y2="146.76670239371202" stroke="black" stroke-width="1" />
  <rect x="491.5333333333333" y="141.55948553054662" width="15.6" height="2.277599142550855" fill="red" />
  <line x1="516.6666666666666" y1="143.97999285459093" x2="516.6666666666666" y2="149.8213647731332" stroke="black" stroke-width="1" />
  <rect x="508.8666666666666" y="145.62343694176485" width="15.6" height="2.5723472668810246" fill="green" />
  <line x1="533.9999999999999" y1="141.81850660950334" x2="533.9999999999999" y2="147.33833511968555" stroke="black" stroke-width="1" />
  <rect x="526.1999999999999" y="143.56913183279738" width="15.6" height="1" fill="green" />
  <line x1="551.3333333333333" y1="139.9964272954627" x2="551.3333333333333" y2="143.96212933190418" stroke="black" stroke-width="1" />
  <rect x="543.5333333333333" y="141.88996070025001" width="15.6" height="1.1968560200072034" fill="red" />

<!-- Resistance Line -->
<line x1="40" y1="130" x2="600" y2="130" stroke="red" stroke-width="2" />
<text x="605" y="135" font-size="10" fill="red">Resistance</text>

<!-- Support Line -->
<line x1="40" y1="170" x2="600" y2="170" stroke="green" stroke-width="2" />
<text x="605" y="175" font-size="10" fill="green">Support</text>

<!-- Trendline -->
<line x1="40" y1="150" x2="600" y2="160" stroke="blue" stroke-width="2" />
<text x="605" y="165" font-size="10" fill="blue">Trendline</text>
</svg>