<svg width="800" height="300" xmlns="http://www.w3.org/2000/svg">
  <line x1="40" y1="250" x2="40" y2="50" stroke="black" stroke-width="2" />
  <line x1="35" y1="250.0" x2="40" y2="250.0" stroke="black" stroke-width="1" />
  <text x="10" y="255.0" font-size="10" fill="black">75</text>
  <line x1="40" y1="250.0" x2="780" y2="250.0" stroke="lightgray" stroke-width="1" stroke-dasharray="5,5" />
  <line x1="35" y1="210.0" x2="40" y2="210.0" stroke="black" stroke-width="1" />
  <text x="10" y="215.0" font-size="10" fill="black">85</text>
  <line x1="40" y1="210.0" x2="780" y2="210.0" stroke="lightgray" stroke-width="1" stroke-dasharray="5,5" />
  <line x1="35" y1="170.0" x2="40" y2="170.0" stroke="black" stroke-width="1" />
  <text x="10" y="175.0" font-size="10" fill="black">95</text>
  <line x1="40" y1="170.0" x2="780" y2="170.0" stroke="lightgray" stroke-width="1" stroke-dasharray="5,5" />
  <line x1="35" y1="130.0" x2="40" y2="130.0" stroke="black" stroke-width="1" />
  <text x="10" y="135.0" font-size="10" fill="black">105</text>
  <line x1="40" y1="130.0" x2="780" y2="130.0" stroke="lightgray" stroke-width="1" stroke-dasharray="5,5" />
  <line x1="35" y1="90.0" x2="40" y2="90.0" stroke="black" stroke-width="1" />
  <text x="10" y="95.0" font-size="10" fill="black">115</text>
  <line x1="40" y1="90.0" x2="780" y2="90.0" stroke="lightgray" stroke-width="1" stroke-dasharray="5,5" />
  <line x1="35" y1="50.0" x2="40" y2="50.0" stroke="black" stroke-width="1" />
  <text x="10" y="55.0" font-size="10" fill="black">125</text>
  <line x1="40" y1="50.0" x2="780" y2="50.0" stroke="lightgray" stroke-width="1" stroke-dasharray="5,5" />
  <line x1="58.27759197324415" y1="144.80689531975702" x2="58.27759197324415" y2="150.4821364773133" stroke="black" stroke-width="1" />
  <rect x="50.0" y="146.19506966773838" width="16.555183946488295" height="3.8049303322616197" fill="green" />
  <line x1="76.67224080267559" y1="146.3022508038585" x2="76.67224080267559" y2="151.57198999642725" stroke="black" stroke-width="1" />
  <rect x="68.39464882943145" y="146.4808860307253" width="16.555183946488295" height="1" fill="green" />
  <line x1="95.06688963210702" y1="144.19435512683106" x2="95.06688963210702" y2="147.26688102893888" stroke="black" stroke-width="1" />
  <rect x="86.78929765886288" y="145.37334762415145" width="16.555183946488295" height="1.3219006788138472" fill="green" />
  <line x1="113.46153846153845" y1="142.74740978921045" x2="113.46153846153845" y2="147.98142193640575" stroke="black" stroke-width="1" />
  <rect x="105.18394648829431" y="145.35548410146475" width="16.555183946488295" height="1" fill="red" />
  <line x1="131.8561872909699" y1="142.10432297249014" x2="131.8561872909699" y2="150.03572704537333" stroke="black" stroke-width="1" />
  <rect x="123.57859531772576" y="143.08681672025722" width="16.555183946488295" height="5.82350839585564" fill="red" />
  <line x1="150.25083612040135" y1="142.31868524473026" x2="150.25083612040135" y2="149.26759556984638" stroke="black" stroke-width="1" />
  <rect x="141.9732441471572" y="144.78385137549122" width="16.555183946488295" height="2.109860664523069" fill="green" />
  <line x1="168.64548494983276" y1="143.99785637727757" x2="168.64548494983276" y2="150.05269739192568" stroke="black" stroke-width="1" />
  <rect x="160.36789297658862" y="144.1764916041443" width="16.555183946488295" height="1" fill="green" />
  <line x1="187.0401337792642" y1="141.19328331546984" x2="187.0401337792642" y2="148.26723829939266" stroke="black" stroke-width="1" />
  <rect x="178.76254180602007" y="142.65809217577703" width="16.555183946488295" height="3.635226866738151" fill="green" />
  <line x1="205.43478260869566" y1="139.38906752411572" x2="205.43478260869566" y2="146.8560200071454" stroke="black" stroke-width="1" />
  <rect x="197.1571906354515" y="142.85459092533046" width="16.555183946488295" height="2.5544837441943287" fill="red" />
  <line x1="223.8294314381271" y1="133.9228295819936" x2="223.8294314381271" y2="141.13969274740975" stroke="black" stroke-width="1" />
  <rect x="215.55183946488296" y="138.96034297963558" width="16.555183946488295" height="1" fill="red" />
  <line x1="242.22408026755855" y1="138.42443729903533" x2="242.22408026755855" y2="143.64058592354417" stroke="black" stroke-width="1" />
  <rect x="233.9464882943144" y="138.7995712754555" width="16.555183946488295" height="2.125759199714139" fill="red" />
  <line x1="260.61872909698997" y1="140.92533047516963" x2="260.61872909698997" y2="154.9124687388353" stroke="black" stroke-width="1" />
  <rect x="252.34113712374582" y="141.72918899606992" width="16.555183946488295" height="10.325116112897547" fill="red" />
  <line x1="279.0133779264214" y1="153.82279385494815" x2="279.0133779264214" y2="161.50410861021794" stroke="black" stroke-width="1" />
  <rect x="270.73578595317724" y="154.03715612718827" width="16.555183946488295" height="1.4469453376206047" fill="red" />
  <line x1="297.4080267558529" y1="147.2132904608789" x2="297.4080267558529" y2="154.28724544480167" stroke="black" stroke-width="1" />
  <rect x="289.13043478260875" y="152.75098249374776" width="16.555183946488295" height="1.3486959628438626" fill="green" />
  <line x1="315.8026755852843" y1="147.64201500535899" x2="315.8026755852843" y2="157.41336191496958" stroke="black" stroke-width="1" />
  <rect x="307.52508361204013" y="149.94640943193997" width="16.555183946488295" height="5.591282600928878" fill="red" />
  <line x1="334.19732441471575" y1="154.7338335119685" x2="334.19732441471575" y2="162.87959985709176" stroke="black" stroke-width="1" />
  <rect x="325.9197324414716" y="155.3769203286888" width="16.555183946488295" height="1" fill="green" />
  <line x1="352.5919732441472" y1="154.3586995355484" x2="352.5919732441472" y2="162.84387281171848" stroke="black" stroke-width="1" />
  <rect x="344.314381270903" y="156.80600214362266" width="16.555183946488295" height="2.125759199714196" fill="green" />
  <line x1="370.98662207357864" y1="151.48267238299388" x2="370.98662207357864" y2="160.77170418006432" stroke="black" stroke-width="1" />
  <rect x="362.7090301003345" y="152.2508038585209" width="16.555183946488295" height="2.1525544837441544" fill="green" />
  <line x1="389.3812709030101" y1="150.6609503394069" x2="389.3812709030101" y2="157.32404430153622" stroke="black" stroke-width="1" />
  <rect x="381.1036789297659" y="152.05430510896747" width="16.555183946488295" height="1" fill="green" />
  <line x1="407.77591973244154" y1="149.78563772775988" x2="407.77591973244154" y2="153.59056806002138" stroke="black" stroke-width="1" />
  <rect x="399.49832775919737" y="150.60735977134686" width="16.555183946488295" height="1.9292604501608253" fill="red" />
  <line x1="426.170568561873" y1="161.9685602000714" x2="426.170568561873" y2="167.86352268667383" stroke="black" stroke-width="1" />
  <rect x="417.8929765886288" y="163.18327974276525" width="16.555183946488295" height="1" fill="red" />
  <line x1="444.5652173913044" y1="162.540192926045" x2="444.5652173913044" y2="166.82743837084672" stroke="black" stroke-width="1" />
  <rect x="436.2876254180602" y="162.73669167559842" width="16.555183946488295" height="1.8578063594140417" fill="green" />
  <line x1="462.9598662207358" y1="152.16148624508747" x2="462.9598662207358" y2="161.39692747409788" stroke="black" stroke-width="1" />
  <rect x="454.68227424749165" y="155.7699178277956" width="16.555183946488295" height="5.609146123615574" fill="green" />
  <line x1="481.35451505016727" y1="139.46052161486244" x2="481.35451505016727" y2="148.73168988924618" stroke="black" stroke-width="1" />
  <rect x="473.0769230769231" y="141.1575562700964" width="16.555183946488295" height="6.931046802429478" fill="green" />
  <line x1="499.7491638795987" y1="133.61914969632005" x2="499.7491638795987" y2="143.39049660593065" stroke="black" stroke-width="1" />
  <rect x="491.47157190635454" y="139.19256877456235" width="16.555183946488295" height="3.16184351554125" fill="red" />
  <line x1="518.1438127090302" y1="140.12147195426934" x2="518.1438127090302" y2="146.62379421221863" stroke="black" stroke-width="1" />
  <rect x="509.866220735786" y="143.8906752411575" width="16.555183946488295" height="1.5541264737406664" fill="red" />
  <line x1="536.5384615384617" y1="140.30010718113613" x2="536.5384615384617" y2="146.76670239371202" stroke="black" stroke-width="1" />
  <rect x="528.2608695652175" y="141.55948553054662" width="16.555183946488295" height="2.277599142550855" fill="red" />
  <line x1="554.933110367893" y1="143.97999285459093" x2="554.933110367893" y2="149.8213647731332" stroke="black" stroke-width="1" />
  <rect x="546.6555183946489" y="145.62343694176485" width="16.555183946488295" height="2.5723472668810246" fill="green" />
  <line x1="573.3277591973244" y1="141.81850660950334" x2="573.3277591973244" y2="147.33833511968555" stroke="black" stroke-width="1" />
  <rect x="565.0501672240803" y="143.56913183279738" width="16.555183946488295" height="1" fill="green" />
  <line x1="591.7224080267559" y1="139.9964272954627" x2="591.7224080267559" y2="143.96212933190418" stroke="black" stroke-width="1" />
  <rect x="583.4448160535118" y="141.88996070025001" width="16.555183946488295" height="1.1968560200072034" fill="red" />
</svg>