<svg width="800" height="300" xmlns="http://www.w3.org/2000/svg">
  <line x1="40" y1="250" x2="40" y2="50" stroke="black" stroke-width="2" />
  <line x1="35" y1="250.0" x2="40" y2="250.0" stroke="black" stroke-width="1" />
  <text x="10" y="255.0" font-size="10" fill="black">75</text>
  <line x1="40" y1="250.0" x2="780" y2="250.0" stroke="lightgray" stroke-width="1" stroke-dasharray="5,5" />
  <line x1="35" y1="210.0" x2="40" y2="210.0" stroke="black" stroke-width="1" />
  <text x="10" y="215.0" font-size="10" fill="black">85</text>
  <line x1="40" y1="210.0" x2="780" y2="210.0" stroke="lightgray" stroke-width="1" stroke-dasharray="5,5" />
  <line x1="35" y1="170.0" x2="40" y2="170.0" stroke="black" stroke-width="1" />
  <text x="10" y="175.0" font-size="10" fill="black">95</text>
  <line x1="40" y1="170.0" x2="780" y2="170.0" stroke="lightgray" stroke-width="1" stroke-dasharray="5,5" />
  <line x1="35" y1="130.0" x2="40" y2="130.0" stroke="black" stroke-width="1" />
  <text x="10" y="135.0" font-size="10" fill="black">105</text>
  <line x1="40" y1="130.0" x2="780" y2="130.0" stroke="lightgray" stroke-width="1" stroke-dasharray="5,5" />
  <line x1="35" y1="90.0" x2="40" y2="90.0" stroke="black" stroke-width="1" />
  <text x="10" y="95.0" font-size="10" fill="black">115</text>
  <line x1="40" y1="90.0" x2="780" y2="90.0" stroke="lightgray" stroke-width="1" stroke-dasharray="5,5" />
  <line x1="35" y1="50.0" x2="40" y2="50.0" stroke="black" stroke-width="1" />
  <text x="10" y="55.0" font-size="10" fill="black">125</text>
  <line x1="40" y1="50.0" x2="780" y2="50.0" stroke="lightgray" stroke-width="1" stroke-dasharray="5,5" />
  <line x1="58.27759197324415" y1="146.6898425999321" x2="58.27759197324415" y2="150.9924130902503" stroke="black" stroke-width="1" />
  <rect x="50.0" y="147.3185369720303" width="16.555183946488295" height="2.6814630279696985" fill="green" />
  <line x1="76.67224080267559" y1="141.93749292265886" x2="76.67224080267559" y2="146.21333937266445" stroke="black" stroke-width="1" />
  <rect x="68.39464882943145" y="143.45940437096596" width="16.555183946488295" height="2.50028309364734" fill="green" />
  <line x1="95.06688963210702" y1="141.8921979390783" x2="95.06688963210702" y2="145.6245045861171" stroke="black" stroke-width="1" />
  <rect x="86.78929765886288" y="142.97927754501194" width="16.555183946488295" height="1" fill="red" />
  <line x1="113.46153846153845" y1="141.18559619522142" x2="113.46153846153845" y2="147.92548975200998" stroke="black" stroke-width="1" />
  <rect x="105.18394648829431" y="142.49009172234184" width="16.555183946488295" height="2.9351149360207387" fill="red" />
  <line x1="131.8561872909699" y1="142.70750764352852" x2="131.8561872909699" y2="147.19171101800475" stroke="black" stroke-width="1" />
  <rect x="123.57859531772576" y="143.22387045634696" width="16.555183946488295" height="2.473106103499049" fill="green" />
  <line x1="150.25083612040135" y1="138.9752009964896" x2="150.25083612040135" y2="143.42316838410147" stroke="black" stroke-width="1" />
  <rect x="141.9732441471572" y="139.2832068848375" width="16.555183946488295" height="3.0619408900464578" fill="green" />
  <line x1="168.64548494983276" y1="133.94754840901373" x2="168.64548494983276" y2="139.31944287170194" stroke="black" stroke-width="1" />
  <rect x="160.36789297658862" y="137.53935001698562" width="16.555183946488295" height="1" fill="red" />
  <line x1="187.0401337792642" y1="131.38376174838635" x2="187.0401337792642" y2="138.1598912920394" stroke="black" stroke-width="1" />
  <rect x="178.76254180602007" y="132.71543426565512" width="16.555183946488295" height="4.248669459857297" fill="green" />
  <line x1="205.43478260869566" y1="127.30721322613522" x2="205.43478260869566" y2="132.57954931491344" stroke="black" stroke-width="1" />
  <rect x="197.1571906354515" y="129.12807156607408" width="16.555183946488295" height="3.098176876910827" fill="green" />
  <line x1="223.8294314381271" y1="124.36303929339829" x2="223.8294314381271" y2="130.56845204393613" stroke="black" stroke-width="1" />
  <rect x="215.55183946488296" y="125.70377080738308" width="16.555183946488295" height="1.1414335862302778" fill="green" />
  <line x1="242.22408026755855" y1="117.93115162495758" x2="242.22408026755855" y2="124.22715434265655" stroke="black" stroke-width="1" />
  <rect x="233.9464882943144" y="118.8642282867172" width="16.555183946488295" height="4.8918582267014585" fill="green" />
  <line x1="260.61872909698997" y1="112.55010757558603" x2="260.61872909698997" y2="120.85720756426224" stroke="black" stroke-width="1" />
  <rect x="252.34113712374582" y="118.03985958555091" width="16.555183946488295" height="1.6577963990488342" fill="green" />
  <line x1="279.0133779264214" y1="110.80172120937607" x2="279.0133779264214" y2="120.40425772845651" stroke="black" stroke-width="1" />
  <rect x="270.73578595317724" y="116.36394519306987" width="16.555183946488295" height="1" fill="red" />
  <line x1="297.4080267558529" y1="115.68452043936139" x2="297.4080267558529" y2="130.67716000452947" stroke="black" stroke-width="1" />
  <rect x="289.13043478260875" y="115.68452043936139" width="16.555183946488295" height="13.14460423508092" fill="red" />
  <line x1="315.8026755852843" y1="125.88495074170538" x2="315.8026755852843" y2="134.5997055826067" stroke="black" stroke-width="1" />
  <rect x="307.52508361204013" y="129.82561431321483" width="16.555183946488295" height="3.985958555090008" fill="red" />
  <line x1="334.19732441471575" y1="127.85075302910201" x2="334.19732441471575" y2="133.9565168157627" stroke="black" stroke-width="1" />
  <rect x="325.9197324414716" y="129.68972936247314" width="16.555183946488295" height="3.9497225682255817" fill="red" />
  <line x1="352.5919732441472" y1="129.37266447740916" x2="352.5919732441472" y2="136.71951081417734" stroke="black" stroke-width="1" />
  <rect x="344.314381270903" y="131.63741365643756" width="16.555183946488295" height="2.6271090476729455" fill="red" />
  <line x1="370.98662207357864" y1="135.44219227720527" x2="370.98662207357864" y2="146.64817121503796" stroke="black" stroke-width="1" />
  <rect x="362.7090301003345" y="135.44219227720527" width="16.555183946488295" height="4.0946665156834" fill="red" />
  <line x1="389.3812709030101" y1="137.8156494168271" x2="389.3812709030101" y2="143.0064545351603" stroke="black" stroke-width="1" />
  <rect x="381.1036789297659" y="137.96059336428488" width="16.555183946488295" height="3.5964216962971136" fill="red" />
  <line x1="407.77591973244154" y1="140.1451704223757" x2="407.77591973244154" y2="144.87260785867966" stroke="black" stroke-width="1" />
  <rect x="399.49832775919737" y="140.913826293738" width="16.555183946488295" height="3.5964216962971136" fill="red" />
  <line x1="426.170568561873" y1="139.63650775676592" x2="426.170568561873" y2="143.84894122975885" stroke="black" stroke-width="1" />
  <rect x="417.8929765886288" y="140.7326463594157" width="16.555183946488295" height="2.6995810214019116" fill="green" />
  <line x1="444.5652173913044" y1="132.28966141999774" x2="444.5652173913044" y2="139.3647378552825" stroke="black" stroke-width="1" />
  <rect x="436.2876254180602" y="136.29373796852002" width="16.555183946488295" height="2.8807609557241562" fill="green" />
  <line x1="462.9598662207358" y1="133.43109500622808" x2="462.9598662207358" y2="137.9242667874533" stroke="black" stroke-width="1" />
  <rect x="454.68227424749165" y="135.02547842826414" width="16.555183946488295" height="1.3407315139847356" fill="red" />
  <line x1="481.35451505016727" y1="131.30223077794136" x2="481.35451505016727" y2="135.77737515570146" stroke="black" stroke-width="1" />
  <rect x="473.0769230769231" y="131.47435171554747" width="16.555183946488295" height="2.0745102479900766" fill="red" />
  <line x1="499.7491638795987" y1="135.1432453855736" x2="499.7491638795987" y2="138.67625410485783" stroke="black" stroke-width="1" />
  <rect x="491.47157190635454" y="135.31536632317972" width="16.555183946488295" height="2.219454195447838" fill="red" />
  <line x1="518.1438127090302" y1="133.59913939531197" x2="518.1438127090302" y2="139.24697089797303" stroke="black" stroke-width="1" />
  <rect x="509.866220735786" y="135.72302117540482" width="16.555183946488295" height="2.1107462348545027" fill="red" />
  <line x1="536.5384615384617" y1="137.27220020382748" x2="536.5384615384617" y2="140.7417053561319" stroke="black" stroke-width="1" />
  <rect x="528.2608695652175" y="138.2142452723361" width="16.555183946488295" height="1" fill="green" />
  <line x1="554.933110367893" y1="137.0818706828219" x2="554.933110367893" y2="141.2490091722342" stroke="black" stroke-width="1" />
  <rect x="546.6555183946489" y="137.9062393839883" width="16.555183946488295" height="2.3009851658928255" fill="red" />
  <line x1="573.3277591973244" y1="136.00385007360433" x2="573.3277591973244" y2="141.13124221492478" stroke="black" stroke-width="1" />
  <rect x="565.0501672240803" y="138.55848714754842" width="16.555183946488295" height="1.3044955271203662" fill="green" />
  <line x1="591.7224080267559" y1="134.8533574906579" x2="591.7224080267559" y2="137.77941342996263" stroke="black" stroke-width="1" />
  <rect x="583.4448160535118" y="135.578077227947" width="16.555183946488295" height="1.2954365304042312" fill="green" />
</svg>