<svg width="800" height="300" xmlns="http://www.w3.org/2000/svg">
  <line x1="40" y1="250" x2="40" y2="50" stroke="black" stroke-width="2" />
  <line x1="35" y1="250.0" x2="40" y2="250.0" stroke="black" stroke-width="1" />
  <text x="10" y="255.0" font-size="10" fill="black">75</text>
  <line x1="40" y1="250.0" x2="780" y2="250.0" stroke="lightgray" stroke-width="1" stroke-dasharray="5,5" />
  <line x1="35" y1="210.0" x2="40" y2="210.0" stroke="black" stroke-width="1" />
  <text x="10" y="215.0" font-size="10" fill="black">85</text>
  <line x1="40" y1="210.0" x2="780" y2="210.0" stroke="lightgray" stroke-width="1" stroke-dasharray="5,5" />
  <line x1="35" y1="170.0" x2="40" y2="170.0" stroke="black" stroke-width="1" />
  <text x="10" y="175.0" font-size="10" fill="black">95</text>
  <line x1="40" y1="170.0" x2="780" y2="170.0" stroke="lightgray" stroke-width="1" stroke-dasharray="5,5" />
  <line x1="35" y1="130.0" x2="40" y2="130.0" stroke="black" stroke-width="1" />
  <text x="10" y="135.0" font-size="10" fill="black">105</text>
  <line x1="40" y1="130.0" x2="780" y2="130.0" stroke="lightgray" stroke-width="1" stroke-dasharray="5,5" />
  <line x1="35" y1="90.0" x2="40" y2="90.0" stroke="black" stroke-width="1" />
  <text x="10" y="95.0" font-size="10" fill="black">115</text>
  <line x1="40" y1="90.0" x2="780" y2="90.0" stroke="lightgray" stroke-width="1" stroke-dasharray="5,5" />
  <line x1="35" y1="50.0" x2="40" y2="50.0" stroke="black" stroke-width="1" />
  <text x="10" y="55.0" font-size="10" fill="black">125</text>
  <line x1="40" y1="50.0" x2="780" y2="50.0" stroke="lightgray" stroke-width="1" stroke-dasharray="5,5" />
  <line x1="58.27759197324415" y1="142.3437181836693" x2="58.27759197324415" y2="150.81449806556708" stroke="black" stroke-width="1" />
  <rect x="50.0" y="147.96375483608227" width="16.555183946488295" height="2.0362451639177266" fill="green" />
  <line x1="76.67224080267559" y1="142.83241702300955" x2="76.67224080267559" y2="149.30767664426793" stroke="black" stroke-width="1" />
  <rect x="68.39464882943145" y="147.80085522296883" width="16.555183946488295" height="1" fill="red" />
  <line x1="95.06688963210702" y1="145.92750967216455" x2="95.06688963210702" y2="151.46609651802078" stroke="black" stroke-width="1" />
  <rect x="86.78929765886288" y="148.6968030950926" width="16.555183946488295" height="2.3620443901446038" fill="red" />
  <line x1="113.46153846153845" y1="149.51130116065974" x2="113.46153846153845" y2="157.7377316228874" stroke="black" stroke-width="1" />
  <rect x="105.18394648829431" y="152.68784361637142" width="16.555183946488295" height="2.769293422928115" fill="red" />
  <line x1="131.8561872909699" y1="154.05782936265524" x2="131.8561872909699" y2="168.12258195886784" stroke="black" stroke-width="1" />
  <rect x="123.57859531772576" y="154.39828955406233" width="16.555183946488295" height="7.737731622887395" fill="red" />
  <line x1="150.25083612040135" y1="157.0861331704337" x2="150.25083612040135" y2="164.0908165343107" stroke="black" stroke-width="1" />
  <rect x="141.9732441471572" y="158.14498065567096" width="16.555183946488295" height="3.5837914884951374" fill="green" />
  <line x1="168.64548494983276" y1="155.09061290979434" x2="168.64548494983276" y2="159.20382814090817" stroke="black" stroke-width="1" />
  <rect x="160.36789297658862" y="157.0861331704337" width="16.555183946488295" height="1" fill="green" />
  <line x1="187.0401337792642" y1="152.60639380981468" x2="187.0401337792642" y2="160.5884748523722" stroke="black" stroke-width="1" />
  <rect x="178.76254180602007" y="156.10873549175318" width="16.555183946488295" height="1.9547953573610357" fill="red" />
  <line x1="205.43478260869566" y1="143.4025656689065" x2="205.43478260869566" y2="158.7965791081246" stroke="black" stroke-width="1" />
  <rect x="197.1571906354515" y="150.4072490327835" width="16.555183946488295" height="7.697006719609078" fill="green" />
  <line x1="223.8294314381271" y1="144.66503767053547" x2="223.8294314381271" y2="152.8507432294848" stroke="black" stroke-width="1" />
  <rect x="215.55183946488296" y="145.03156180004072" width="16.555183946488295" height="3.665241295051885" fill="green" />
  <line x1="242.22408026755855" y1="140.79617185909183" x2="242.22408026755855" y2="145.35736102626754" stroke="black" stroke-width="1" />
  <rect x="233.9464882943144" y="143.15821624923643" width="16.555183946488295" height="1.873345550804288" fill="green" />
  <line x1="260.61872909698997" y1="136.72368153125632" x2="260.61872909698997" y2="145.5699450213806" stroke="black" stroke-width="1" />
  <rect x="252.34113712374582" y="138.51557727550397" width="16.555183946488295" height="6.5974343310934955" fill="green" />
  <line x1="279.0133779264214" y1="136.64223172469968" x2="279.0133779264214" y2="146.45693341478312" stroke="black" stroke-width="1" />
  <rect x="270.73578595317724" y="136.88658114436976" width="16.555183946488295" height="6.1901852983099275" fill="red" />
  <line x1="297.4080267558529" y1="140.79617185909183" x2="297.4080267558529" y2="149.00631236000817" stroke="black" stroke-width="1" />
  <rect x="289.13043478260875" y="142.09936876399922" width="16.555183946488295" height="2.280594583587799" fill="red" />
  <line x1="315.8026755852843" y1="142.50661779678273" x2="315.8026755852843" y2="154.7240887802891" stroke="black" stroke-width="1" />
  <rect x="307.52508361204013" y="144.46141315414377" width="16.555183946488295" height="8.878028914681295" fill="red" />
  <line x1="334.19732441471575" y1="149.87701079209933" x2="334.19732441471575" y2="162.70616982284668" stroke="black" stroke-width="1" />
  <rect x="325.9197324414716" y="153.17654245571168" width="16.555183946488295" height="1.7918957442475971" fill="red" />
  <line x1="352.5919732441472" y1="148.33027896558752" x2="352.5919732441472" y2="159.28527794746492" stroke="black" stroke-width="1" />
  <rect x="344.314381270903" y="148.61535328853597" width="16.555183946488295" height="6.353084911423309" fill="green" />
  <line x1="370.98662207357864" y1="149.38912645082468" x2="370.98662207357864" y2="157.004683363877" stroke="black" stroke-width="1" />
  <rect x="362.7090301003345" y="150.0" width="16.555183946488295" height="4.235389940948835" fill="red" />
  <line x1="389.3812709030101" y1="154.39828955406233" x2="389.3812709030101" y2="160.9672164528609" stroke="black" stroke-width="1" />
  <rect x="381.1036789297659" y="155.9458358786398" width="16.555183946488295" height="1.1402972917938996" fill="red" />
  <line x1="407.77591973244154" y1="149.67420077377318" x2="407.77591973244154" y2="157.41193239666052" stroke="black" stroke-width="1" />
  <rect x="399.49832775919737" y="149.83710038688656" width="16.555183946488295" height="7.167582976990445" fill="green" />
  <line x1="426.170568561873" y1="140.71472205253508" x2="426.170568561873" y2="148.81897780492767" stroke="black" stroke-width="1" />
  <rect x="417.8929765886288" y="142.83241702300955" width="16.555183946488295" height="3.9910405212787623" fill="green" />
  <line x1="444.5652173913044" y1="139.39523518631643" x2="444.5652173913044" y2="152.11769497047442" stroke="black" stroke-width="1" />
  <rect x="436.2876254180602" y="142.01791895744248" width="16.555183946488295" height="4.886988393402532" fill="red" />
  <line x1="462.9598662207358" y1="141.28487069843214" x2="462.9598662207358" y2="152.68784361637142" stroke="black" stroke-width="1" />
  <rect x="454.68227424749165" y="144.86866218692728" width="16.555183946488295" height="2.687843616371481" fill="green" />
  <line x1="481.35451505016727" y1="142.42516799022604" x2="481.35451505016727" y2="151.3439218081857" stroke="black" stroke-width="1" />
  <rect x="473.0769230769231" y="143.6469150885767" width="16.555183946488295" height="7.086133170433641" fill="red" />
  <line x1="499.7491638795987" y1="146.5791081246182" x2="499.7491638795987" y2="150.89594787212383" stroke="black" stroke-width="1" />
  <rect x="491.47157190635454" y="147.55650580329876" width="16.555183946488295" height="1" fill="green" />
  <line x1="518.1438127090302" y1="140.87762166564852" x2="518.1438127090302" y2="146.96843819995928" stroke="black" stroke-width="1" />
  <rect x="509.866220735786" y="142.66951740989617" width="16.555183946488295" height="3.665241295051885" fill="green" />
  <line x1="536.5384615384617" y1="133.8729383017715" x2="536.5384615384617" y2="144.2985135410304" stroke="black" stroke-width="1" />
  <rect x="528.2608695652175" y="135.09468540012222" width="16.555183946488295" height="7.5748320097739565" fill="green" />
  <line x1="554.933110367893" y1="131.5923437181837" x2="554.933110367893" y2="150.0" stroke="black" stroke-width="1" />
  <rect x="546.6555183946489" y="132.56974139686417" width="16.555183946488295" height="10.588474852372258" fill="red" />
  <line x1="573.3277591973244" y1="138.2712278558339" x2="573.3277591973244" y2="145.0722867033191" stroke="black" stroke-width="1" />
  <rect x="565.0501672240803" y="141.7735695377724" width="16.555183946488295" height="2.443494196701181" fill="green" />
  <line x1="591.7224080267559" y1="125.15780900020366" x2="591.7224080267559" y2="136.9680309509265" stroke="black" stroke-width="1" />
  <rect x="583.4448160535118" y="130.20769700671957" width="16.555183946488295" height="5.131337813072719" fill="red" />
</svg>