<svg width="800" height="300" xmlns="http://www.w3.org/2000/svg">
  <line x1="40" y1="250" x2="40" y2="50" stroke="black" stroke-width="2" />
  <line x1="35" y1="250.0" x2="40" y2="250.0" stroke="black" stroke-width="1" />
  <text x="10" y="255.0" font-size="10" fill="black">75</text>
  <line x1="40" y1="250.0" x2="780" y2="250.0" stroke="lightgray" stroke-width="1" stroke-dasharray="5,5" />
  <line x1="35" y1="210.0" x2="40" y2="210.0" stroke="black" stroke-width="1" />
  <text x="10" y="215.0" font-size="10" fill="black">85</text>
  <line x1="40" y1="210.0" x2="780" y2="210.0" stroke="lightgray" stroke-width="1" stroke-dasharray="5,5" />
  <line x1="35" y1="170.0" x2="40" y2="170.0" stroke="black" stroke-width="1" />
  <text x="10" y="175.0" font-size="10" fill="black">95</text>
  <line x1="40" y1="170.0" x2="780" y2="170.0" stroke="lightgray" stroke-width="1" stroke-dasharray="5,5" />
  <line x1="35" y1="130.0" x2="40" y2="130.0" stroke="black" stroke-width="1" />
  <text x="10" y="135.0" font-size="10" fill="black">105</text>
  <line x1="40" y1="130.0" x2="780" y2="130.0" stroke="lightgray" stroke-width="1" stroke-dasharray="5,5" />
  <line x1="35" y1="90.0" x2="40" y2="90.0" stroke="black" stroke-width="1" />
  <text x="10" y="95.0" font-size="10" fill="black">115</text>
  <line x1="40" y1="90.0" x2="780" y2="90.0" stroke="lightgray" stroke-width="1" stroke-dasharray="5,5" />
  <line x1="35" y1="50.0" x2="40" y2="50.0" stroke="black" stroke-width="1" />
  <text x="10" y="55.0" font-size="10" fill="black">125</text>
  <line x1="40" y1="50.0" x2="780" y2="50.0" stroke="lightgray" stroke-width="1" stroke-dasharray="5,5" />
  <line x1="58.27759197324415" y1="149.08695652173918" x2="58.27759197324415" y2="153.4782608695652" stroke="black" stroke-width="1" />
  <rect x="50.0" y="150.0" width="16.555183946488295" height="1.9999999999999432" fill="red" />
  <line x1="76.67224080267559" y1="148.91304347826082" x2="76.67224080267559" y2="154.30434782608694" stroke="black" stroke-width="1" />
  <rect x="68.39464882943145" y="151.99999999999994" width="16.555183946488295" height="1.1739130434783647" fill="red" />
  <line x1="95.06688963210702" y1="147.304347826087" x2="95.06688963210702" y2="152.4782608695652" stroke="black" stroke-width="1" />
  <rect x="86.78929765886288" y="147.39130434782612" width="16.555183946488295" height="1.0434782608695627" fill="green" />
  <line x1="113.46153846153845" y1="135.6521739130435" x2="113.46153846153845" y2="150.17391304347825" stroke="black" stroke-width="1" />
  <rect x="105.18394648829431" y="135.6521739130435" width="16.555183946488295" height="11.739130434782624" fill="green" />
  <line x1="131.8561872909699" y1="135.1304347826087" x2="131.8561872909699" y2="144.60869565217394" stroke="black" stroke-width="1" />
  <rect x="123.57859531772576" y="137.2173913043478" width="16.555183946488295" height="1" fill="green" />
  <line x1="150.25083612040135" y1="137.86956521739125" x2="150.25083612040135" y2="143.04347826086962" stroke="black" stroke-width="1" />
  <rect x="141.9732441471572" y="139.56521739130432" width="16.555183946488295" height="1" fill="red" />
  <line x1="168.64548494983276" y1="141.30434782608694" x2="168.64548494983276" y2="152.43478260869568" stroke="black" stroke-width="1" />
  <rect x="160.36789297658862" y="141.30434782608694" width="16.555183946488295" height="6.5652173913043725" fill="red" />
  <line x1="187.0401337792642" y1="143.04347826086962" x2="187.0401337792642" y2="150.5217391304348" stroke="black" stroke-width="1" />
  <rect x="178.76254180602007" y="148.04347826086956" width="16.555183946488295" height="1" fill="green" />
  <line x1="205.43478260869566" y1="136.82608695652175" x2="205.43478260869566" y2="147.95652173913038" stroke="black" stroke-width="1" />
  <rect x="197.1571906354515" y="138.47826086956513" width="16.555183946488295" height="9.478260869565247" fill="green" />
  <line x1="223.8294314381271" y1="135.17391304347825" x2="223.8294314381271" y2="140.6521739130435" stroke="black" stroke-width="1" />
  <rect x="215.55183946488296" y="135.17391304347825" width="16.555183946488295" height="3.3043478260868824" fill="green" />
  <line x1="242.22408026755855" y1="132.86956521739125" x2="242.22408026755855" y2="139.56521739130432" stroke="black" stroke-width="1" />
  <rect x="233.9464882943144" y="132.86956521739125" width="16.555183946488295" height="2.6956521739131745" fill="green" />
  <line x1="260.61872909698997" y1="128.5217391304348" x2="260.61872909698997" y2="140.695652173913" stroke="black" stroke-width="1" />
  <rect x="252.34113712374582" y="132.695652173913" width="16.555183946488295" height="4.0869565217391255" fill="red" />
  <line x1="279.0133779264214" y1="140.52173913043475" x2="279.0133779264214" y2="149.82608695652175" stroke="black" stroke-width="1" />
  <rect x="270.73578595317724" y="142.8695652173913" width="16.555183946488295" height="4.52173913043481" fill="red" />
  <line x1="297.4080267558529" y1="146.04347826086956" x2="297.4080267558529" y2="155.1304347826087" stroke="black" stroke-width="1" />
  <rect x="289.13043478260875" y="146.04347826086956" width="16.555183946488295" height="7.652173913043441" fill="red" />
  <line x1="315.8026755852843" y1="153.08695652173913" x2="315.8026755852843" y2="165.30434782608694" stroke="black" stroke-width="1" />
  <rect x="307.52508361204013" y="153.695652173913" width="16.555183946488295" height="10.52173913043481" fill="red" />
  <line x1="334.19732441471575" y1="158.43478260869563" x2="334.19732441471575" y2="163.91304347826087" stroke="black" stroke-width="1" />
  <rect x="325.9197324414716" y="159.8695652173913" width="16.555183946488295" height="4.043478260869563" fill="green" />
  <line x1="352.5919732441472" y1="155.39130434782606" x2="352.5919732441472" y2="163.08695652173918" stroke="black" stroke-width="1" />
  <rect x="344.314381270903" y="155.39130434782606" width="16.555183946488295" height="4.869565217391312" fill="green" />
  <line x1="370.98662207357864" y1="150.56521739130432" x2="370.98662207357864" y2="158.7826086956522" stroke="black" stroke-width="1" />
  <rect x="362.7090301003345" y="154.26086956521743" width="16.555183946488295" height="3.47826086956519" fill="red" />
  <line x1="389.3812709030101" y1="141.69565217391312" x2="389.3812709030101" y2="159.43478260869568" stroke="black" stroke-width="1" />
  <rect x="381.1036789297659" y="152.26086956521738" width="16.555183946488295" height="4.652173913043498" fill="red" />
  <line x1="407.77591973244154" y1="148.7826086956522" x2="407.77591973244154" y2="154.60869565217394" stroke="black" stroke-width="1" />
  <rect x="399.49832775919737" y="148.7826086956522" width="16.555183946488295" height="5.826086956521749" fill="red" />
  <line x1="426.170568561873" y1="150.73913043478262" x2="426.170568561873" y2="160.43478260869568" stroke="black" stroke-width="1" />
  <rect x="417.8929765886288" y="153.304347826087" width="16.555183946488295" height="1.7391304347825667" fill="green" />
  <line x1="444.5652173913044" y1="144.695652173913" x2="444.5652173913044" y2="155.17391304347825" stroke="black" stroke-width="1" />
  <rect x="436.2876254180602" y="144.695652173913" width="16.555183946488295" height="8.608695652173992" fill="green" />
  <line x1="462.9598662207358" y1="139.1739130434783" x2="462.9598662207358" y2="145.82608695652175" stroke="black" stroke-width="1" />
  <rect x="454.68227424749165" y="141.65217391304344" width="16.555183946488295" height="3.0434782608695627" fill="green" />
  <line x1="481.35451505016727" y1="119.26086956521738" x2="481.35451505016727" y2="139.08695652173913" stroke="black" stroke-width="1" />
  <rect x="473.0769230769231" y="121.304347826087" width="16.555183946488295" height="16.521739130434753" fill="green" />
  <line x1="499.7491638795987" y1="119.43478260869568" x2="499.7491638795987" y2="124.60869565217394" stroke="black" stroke-width="1" />
  <rect x="491.47157190635454" y="120.69565217391312" width="16.555183946488295" height="1" fill="green" />
  <line x1="518.1438127090302" y1="118.60869565217394" x2="518.1438127090302" y2="127.60869565217388" stroke="black" stroke-width="1" />
  <rect x="509.866220735786" y="120.26086956521738" width="16.555183946488295" height="1" fill="green" />
  <line x1="536.5384615384617" y1="112.34782608695656" x2="536.5384615384617" y2="120.08695652173913" stroke="black" stroke-width="1" />
  <rect x="528.2608695652175" y="112.34782608695656" width="16.555183946488295" height="5.826086956521749" fill="green" />
  <line x1="554.933110367893" y1="103.91304347826093" x2="554.933110367893" y2="112.34782608695656" stroke="black" stroke-width="1" />
  <rect x="546.6555183946489" y="106.78260869565224" width="16.555183946488295" height="5.565217391304316" fill="green" />
  <line x1="573.3277591973244" y1="81.39130434782606" x2="573.3277591973244" y2="98.26086956521738" stroke="black" stroke-width="1" />
  <rect x="565.0501672240803" y="81.39130434782606" width="16.555183946488295" height="16.69565217391306" fill="green" />
  <line x1="591.7224080267559" y1="81.73913043478257" x2="591.7224080267559" y2="93.82608695652175" stroke="black" stroke-width="1" />
  <rect x="583.4448160535118" y="83.30434782608688" width="16.555183946488295" height="8.000000000000057" fill="red" />
</svg>