<svg width="800" height="300" xmlns="http://www.w3.org/2000/svg">
  <line x1="40" y1="250" x2="40" y2="50" stroke="black" stroke-width="2" />
  <line x1="35" y1="250.0" x2="40" y2="250.0" stroke="black" stroke-width="1" />
  <text x="10" y="255.0" font-size="10" fill="black">75</text>
  <line x1="40" y1="250.0" x2="780" y2="250.0" stroke="lightgray" stroke-width="1" stroke-dasharray="5, 5" />
  <line x1="35" y1="210.0" x2="40" y2="210.0" stroke="black" stroke-width="1" />
  <text x="10" y="215.0" font-size="10" fill="black">85</text>
  <line x1="40" y1="210.0" x2="780" y2="210.0" stroke="lightgray" stroke-width="1" stroke-dasharray="5, 5" />
  <line x1="35" y1="170.0" x2="40" y2="170.0" stroke="black" stroke-width="1" />
  <text x="10" y="175.0" font-size="10" fill="black">95</text>
  <line x1="40" y1="170.0" x2="780" y2="170.0" stroke="lightgray" stroke-width="1" stroke-dasharray="5, 5" />
  <line x1="35" y1="130.0" x2="40" y2="130.0" stroke="black" stroke-width="1" />
  <text x="10" y="135.0" font-size="10" fill="black">105</text>
  <line x1="40" y1="130.0" x2="780" y2="130.0" stroke="lightgray" stroke-width="1" stroke-dasharray="5, 5" />
  <line x1="35" y1="90.0" x2="40" y2="90.0" stroke="black" stroke-width="1" />
  <text x="10" y="95.0" font-size="10" fill="black">115</text>
  <line x1="40" y1="90.0" x2="780" y2="90.0" stroke="lightgray" stroke-width="1" stroke-dasharray="5, 5" />
  <line x1="35" y1="50.0" x2="40" y2="50.0" stroke="black" stroke-width="1" />
  <text x="10" y="55.0" font-size="10" fill="black">125</text>
  <line x1="40" y1="50.0" x2="780" y2="50.0" stroke="lightgray" stroke-width="1" stroke-dasharray="5, 5" />
  <line x1="35" y1="150.0" x2="40" y2="150.0" stroke="black" stroke-width="1" />
  <text x="10" y="155.0" font-size="10" fill="black">100</text>
  <line x1="40" y1="150.0" x2="780" y2="150.0" stroke="lightgray" stroke-width="1" stroke-dasharray="5, 5" />
  <line x1="48.666666666666664" y1="149.08695652173918" x2="48.666666666666664" y2="153.4782608695652" stroke="black" stroke-width="1" />
  <rect x="40.86666666666667" y="150.0" width="15.6" height="1.9999999999999432" fill="red" />
  <line x1="66.0" y1="148.91304347826082" x2="66.0" y2="154.30434782608694" stroke="black" stroke-width="1" />
  <rect x="58.199999999999996" y="151.99999999999994" width="15.6" height="1.1739130434783647" fill="red" />
  <line x1="83.33333333333333" y1="147.304347826087" x2="83.33333333333333" y2="152.4782608695652" stroke="black" stroke-width="1" />
  <rect x="75.53333333333332" y="147.39130434782612" width="15.6" height="1.0434782608695627" fill="green" />
  <line x1="100.66666666666667" y1="135.6521739130435" x2="100.66666666666667" y2="150.17391304347825" stroke="black" stroke-width="1" />
  <rect x="92.86666666666666" y="135.6521739130435" width="15.6" height="11.739130434782624" fill="green" />
  <line x1="118.0" y1="135.1304347826087" x2="118.0" y2="144.60869565217394" stroke="black" stroke-width="1" />
  <rect x="110.19999999999999" y="137.2173913043478" width="15.6" height="1" fill="green" />
  <line x1="135.33333333333331" y1="137.86956521739125" x2="135.33333333333331" y2="143.04347826086962" stroke="black" stroke-width="1" />
  <rect x="127.53333333333332" y="139.56521739130432" width="15.6" height="1" fill="red" />
  <line x1="152.66666666666666" y1="141.30434782608694" x2="152.66666666666666" y2="152.43478260869568" stroke="black" stroke-width="1" />
  <rect x="144.86666666666667" y="141.30434782608694" width="15.6" height="6.5652173913043725" fill="red" />
  <line x1="169.99999999999997" y1="143.04347826086962" x2="169.99999999999997" y2="150.5217391304348" stroke="black" stroke-width="1" />
  <rect x="162.2" y="148.04347826086956" width="15.6" height="1" fill="green" />
  <line x1="187.33333333333331" y1="136.82608695652175" x2="187.33333333333331" y2="147.95652173913038" stroke="black" stroke-width="1" />
  <rect x="179.53333333333333" y="138.47826086956513" width="15.6" height="9.478260869565247" fill="green" />
  <line x1="204.66666666666666" y1="135.17391304347825" x2="204.66666666666666" y2="140.6521739130435" stroke="black" stroke-width="1" />
  <rect x="196.86666666666667" y="135.17391304347825" width="15.6" height="3.3043478260868824" fill="green" />
  <line x1="221.99999999999997" y1="132.86956521739125" x2="221.99999999999997" y2="139.56521739130432" stroke="black" stroke-width="1" />
  <rect x="214.2" y="132.86956521739125" width="15.6" height="2.6956521739131745" fill="green" />
  <line x1="239.33333333333331" y1="128.5217391304348" x2="239.33333333333331" y2="140.695652173913" stroke="black" stroke-width="1" />
  <rect x="231.53333333333333" y="132.695652173913" width="15.6" height="4.0869565217391255" fill="red" />
  <line x1="256.6666666666667" y1="140.52173913043475" x2="256.6666666666667" y2="149.82608695652175" stroke="black" stroke-width="1" />
  <rect x="248.86666666666667" y="142.8695652173913" width="15.6" height="4.52173913043481" fill="red" />
  <line x1="274.0" y1="146.04347826086956" x2="274.0" y2="155.1304347826087" stroke="black" stroke-width="1" />
  <rect x="266.2" y="146.04347826086956" width="15.6" height="7.652173913043441" fill="red" />
  <line x1="291.3333333333333" y1="153.08695652173913" x2="291.3333333333333" y2="165.30434782608694" stroke="black" stroke-width="1" />
  <rect x="283.5333333333333" y="153.695652173913" width="15.6" height="10.52173913043481" fill="red" />
  <line x1="308.6666666666667" y1="158.43478260869563" x2="308.6666666666667" y2="163.91304347826087" stroke="black" stroke-width="1" />
  <rect x="300.8666666666667" y="159.8695652173913" width="15.6" height="4.043478260869563" fill="green" />
  <line x1="326.0" y1="155.39130434782606" x2="326.0" y2="163.08695652173918" stroke="black" stroke-width="1" />
  <rect x="318.2" y="155.39130434782606" width="15.6" height="4.869565217391312" fill="green" />
  <line x1="343.3333333333333" y1="150.56521739130432" x2="343.3333333333333" y2="158.7826086956522" stroke="black" stroke-width="1" />
  <rect x="335.5333333333333" y="154.26086956521743" width="15.6" height="3.47826086956519" fill="red" />
  <line x1="360.6666666666667" y1="141.69565217391312" x2="360.6666666666667" y2="159.43478260869568" stroke="black" stroke-width="1" />
  <rect x="352.8666666666667" y="152.26086956521738" width="15.6" height="4.652173913043498" fill="red" />
  <line x1="378.0" y1="148.7826086956522" x2="378.0" y2="154.60869565217394" stroke="black" stroke-width="1" />
  <rect x="370.2" y="148.7826086956522" width="15.6" height="5.826086956521749" fill="red" />
  <line x1="395.3333333333333" y1="150.73913043478262" x2="395.3333333333333" y2="160.43478260869568" stroke="black" stroke-width="1" />
  <rect x="387.5333333333333" y="153.304347826087" width="15.6" height="1.7391304347825667" fill="green" />
  <line x1="412.6666666666667" y1="144.695652173913" x2="412.6666666666667" y2="155.17391304347825" stroke="black" stroke-width="1" />
  <rect x="404.8666666666667" y="144.695652173913" width="15.6" height="8.608695652173992" fill="green" />
  <line x1="430.0" y1="139.1739130434783" x2="430.0" y2="145.82608695652175" stroke="black" stroke-width="1" />
  <rect x="422.2" y="141.65217391304344" width="15.6" height="3.0434782608695627" fill="green" />
  <line x1="447.3333333333333" y1="119.26086956521738" x2="447.3333333333333" y2="139.08695652173913" stroke="black" stroke-width="1" />
  <rect x="439.5333333333333" y="121.304347826087" width="15.6" height="16.521739130434753" fill="green" />
  <line x1="464.6666666666667" y1="119.43478260869568" x2="464.6666666666667" y2="124.60869565217394" stroke="black" stroke-width="1" />
  <rect x="456.8666666666667" y="120.69565217391312" width="15.6" height="1" fill="green" />
  <line x1="482.0" y1="118.60869565217394" x2="482.0" y2="127.60869565217388" stroke="black" stroke-width="1" />
  <rect x="474.2" y="120.26086956521738" width="15.6" height="1" fill="green" />
  <line x1="499.3333333333333" y1="112.34782608695656" x2="499.3333333333333" y2="120.08695652173913" stroke="black" stroke-width="1" />
  <rect x="491.5333333333333" y="112.34782608695656" width="15.6" height="5.826086956521749" fill="green" />
  <line x1="516.6666666666666" y1="103.91304347826093" x2="516.6666666666666" y2="112.34782608695656" stroke="black" stroke-width="1" />
  <rect x="508.8666666666666" y="106.78260869565224" width="15.6" height="5.565217391304316" fill="green" />
  <line x1="533.9999999999999" y1="81.39130434782606" x2="533.9999999999999" y2="98.26086956521738" stroke="black" stroke-width="1" />
  <rect x="526.1999999999999" y="81.39130434782606" width="15.6" height="16.69565217391306" fill="green" />
  <line x1="551.3333333333333" y1="81.73913043478257" x2="551.3333333333333" y2="93.82608695652175" stroke="black" stroke-width="1" />
  <rect x="543.5333333333333" y="83.30434782608688" width="15.6" height="8.000000000000057" fill="red" />

<!-- Resistance Line -->
<line x1="40" y1="130" x2="600" y2="130" stroke="blue" stroke-width="2" />
<text x="605" y="130" font-size="10" fill="blue">Resistance</text>

<!-- Support Line -->
<line x1="40" y1="150" x2="600" y2="150" stroke="green" stroke-width="2" />
<text x="605" y="150" font-size="10" fill="green">Support</text>

<!-- Trendline -->
<line x1="40" y1="170" x2="600" y2="90" stroke="purple" stroke-width="2" />
<text x="605" y="90" font-size="10" fill="purple">Trendline</text>
</svg>