<svg width="800" height="300" xmlns="http://www.w3.org/2000/svg">
  <line x1="40" y1="250" x2="40" y2="50" stroke="black" stroke-width="2" />
  <line x1="35" y1="250.0" x2="40" y2="250.0" stroke="black" stroke-width="1" />
  <text x="10" y="255.0" font-size="10" fill="black">75</text>
  <line x1="40" y1="250.0" x2="780" y2="250.0" stroke="lightgray" stroke-width="1" stroke-dasharray="5, 5" />
  <line x1="35" y1="210.0" x2="40" y2="210.0" stroke="black" stroke-width="1" />
  <text x="10" y="215.0" font-size="10" fill="black">85</text>
  <line x1="40" y1="210.0" x2="780" y2="210.0" stroke="lightgray" stroke-width="1" stroke-dasharray="5, 5" />
  <line x1="35" y1="170.0" x2="40" y2="170.0" stroke="black" stroke-width="1" />
  <text x="10" y="175.0" font-size="10" fill="black">95</text>
  <line x1="40" y1="170.0" x2="780" y2="170.0" stroke="lightgray" stroke-width="1" stroke-dasharray="5, 5" />
  <line x1="35" y1="130.0" x2="40" y2="130.0" stroke="black" stroke-width="1" />
  <text x="10" y="135.0" font-size="10" fill="black">105</text>
  <line x1="40" y1="130.0" x2="780" y2="130.0" stroke="lightgray" stroke-width="1" stroke-dasharray="5, 5" />
  <line x1="35" y1="90.0" x2="40" y2="90.0" stroke="black" stroke-width="1" />
  <text x="10" y="95.0" font-size="10" fill="black">115</text>
  <line x1="40" y1="90.0" x2="780" y2="90.0" stroke="lightgray" stroke-width="1" stroke-dasharray="5, 5" />
  <line x1="35" y1="50.0" x2="40" y2="50.0" stroke="black" stroke-width="1" />
  <text x="10" y="55.0" font-size="10" fill="black">125</text>
  <line x1="40" y1="50.0" x2="780" y2="50.0" stroke="lightgray" stroke-width="1" stroke-dasharray="5, 5" />
  <line x1="35" y1="150.0" x2="40" y2="150.0" stroke="black" stroke-width="1" />
  <text x="10" y="155.0" font-size="10" fill="black">100</text>
  <line x1="40" y1="150.0" x2="780" y2="150.0" stroke="lightgray" stroke-width="1" stroke-dasharray="5, 5" />
  <line x1="48.666666666666664" y1="145.70010270455327" x2="48.666666666666664" y2="151.1229031153715" stroke="black" stroke-width="1" />
  <rect x="40.86666666666667" y="146.65867853474833" width="15.6" height="3.341321465251667" fill="green" />
  <line x1="66.0" y1="145.39883601506335" x2="66.0" y2="150.43820609380356" stroke="black" stroke-width="1" />
  <rect x="58.199999999999996" y="147.86374529270796" width="15.6" height="2.2458062307429714" fill="green" />
  <line x1="83.33333333333333" y1="148.74015748031502" x2="83.33333333333333" y2="154.0807942485451" stroke="black" stroke-width="1" />
  <rect x="75.53333333333332" y="149.23313933584393" width="15.6" height="4.491612461485829" fill="red" />
  <line x1="100.66666666666667" y1="148.38411502909963" x2="100.66666666666667" y2="154.10818212940774" stroke="black" stroke-width="1" />
  <rect x="92.86666666666666" y="151.69804861348854" width="15.6" height="1" fill="red" />
  <line x1="118.0" y1="149.22136254707289" x2="118.0" y2="152.51968503937007" stroke="black" stroke-width="1" />
  <rect x="110.19999999999999" y="150.87641218760706" width="15.6" height="1.0407394727832866" fill="green" />
  <line x1="135.33333333333331" y1="144.40273878808625" x2="135.33333333333331" y2="149.27367339952076" stroke="black" stroke-width="1" />
  <rect x="127.53333333333332" y="145.70010270455327" width="15.6" height="2.998972954467604" fill="green" />
  <line x1="152.66666666666666" y1="138.93529613146188" x2="152.66666666666666" y2="145.89181787059226" stroke="black" stroke-width="1" />
  <rect x="144.86666666666667" y="142.00273878808628" width="15.6" height="1.2872304005478554" fill="red" />
  <line x1="169.99999999999997" y1="140.4142416980486" x2="169.99999999999997" y2="148.11023622047247" stroke="black" stroke-width="1" />
  <rect x="162.2" y="142.82437521396787" width="15.6" height="4.710715508387523" fill="red" />
  <line x1="187.33333333333331" y1="147.01472098596378" x2="187.33333333333331" y2="151.56110920917502" stroke="black" stroke-width="1" />
  <rect x="179.53333333333333" y="148.931872646354" width="15.6" height="1.205066757959628" fill="red" />
  <line x1="204.66666666666666" y1="144.16638137624102" x2="204.66666666666666" y2="151.67066073262583" stroke="black" stroke-width="1" />
  <rect x="196.86666666666667" y="146.24786032180765" width="15.6" height="2.6292365628208927" fill="green" />
  <line x1="221.99999999999997" y1="144.44026018486824" x2="221.99999999999997" y2="150.95857583019517" stroke="black" stroke-width="1" />
  <rect x="214.2" y="144.79630263608357" width="15.6" height="4.738103389250284" fill="green" />
  <line x1="239.33333333333331" y1="150.76686066415613" x2="239.33333333333331" y2="154.84765491270116" stroke="black" stroke-width="1" />
  <rect x="231.53333333333333" y="151.3693940431359" width="15.6" height="2.4375213967819604" fill="red" />
  <line x1="256.6666666666667" y1="151.43211229031158" x2="256.6666666666667" y2="161.99589181787064" stroke="black" stroke-width="1" />
  <rect x="248.86666666666667" y="153.86169120164334" width="15.6" height="7.038685381718551" fill="red" />
  <line x1="274.0" y1="157.8877096884629" x2="274.0" y2="164.9263950701815" stroke="black" stroke-width="1" />
  <rect x="266.2" y="157.8877096884629" width="15.6" height="6.134885313248844" fill="red" />
  <line x1="291.3333333333333" y1="160.79082505991101" x2="291.3333333333333" y2="172.40328654570357" stroke="black" stroke-width="1" />
  <rect x="283.5333333333333" y="163.6528586100651" width="15.6" height="6.860664156110886" fill="red" />
  <line x1="308.6666666666667" y1="161.03731598767547" x2="308.6666666666667" y2="170.56829852790145" stroke="black" stroke-width="1" />
  <rect x="300.8666666666667" y="165.748031496063" width="15.6" height="4.560082163642676" fill="green" />
  <line x1="326.0" y1="163.61177678877095" x2="326.0" y2="174.5395412529956" stroke="black" stroke-width="1" />
  <rect x="318.2" y="164.1184525847313" width="15.6" height="7.298870249914444" fill="red" />
  <line x1="343.3333333333333" y1="170.7323519342691" x2="343.3333333333333" y2="179.2579253680247" stroke="black" stroke-width="1" />
  <rect x="335.5333333333333" y="171.4720985963711" width="15.6" height="1" fill="red" />
  <line x1="360.6666666666667" y1="168.02122560766867" x2="360.6666666666667" y2="173.6357411845259" stroke="black" stroke-width="1" />
  <rect x="352.8666666666667" y="168.73331051009927" width="15.6" height="2.6840123245464724" fill="green" />
  <line x1="378.0" y1="162.37932214994868" x2="378.0" y2="167.3573433755563" stroke="black" stroke-width="1" />
  <rect x="370.2" y="164.89900718931875" width="15.6" height="2.026703183841107" fill="green" />
  <line x1="395.3333333333333" y1="157.9014036288943" x2="395.3333333333333" y2="163.6528586100651" stroke="black" stroke-width="1" />
  <rect x="387.5333333333333" y="160.84560082163642" width="15.6" height="1.0955152345088095" fill="green" />
  <line x1="412.6666666666667" y1="155.23108524477925" x2="412.6666666666667" y2="161.8041766518316" stroke="black" stroke-width="1" />
  <rect x="404.8666666666667" y="157.23040054775765" width="15.6" height="4.4094488188976015" fill="green" />
  <line x1="430.0" y1="151.23245463882233" x2="430.0" y2="157.8329339267375" stroke="black" stroke-width="1" />
  <rect x="422.2" y="155.7240671003081" width="15.6" height="1.752824375214061" fill="green" />
  <line x1="447.3333333333333" y1="148.0006846970216" x2="447.3333333333333" y2="153.06744265662445" stroke="black" stroke-width="1" />
  <rect x="439.5333333333333" y="150.65730914070525" width="15.6" height="2.2458062307429145" fill="red" />
  <line x1="464.6666666666667" y1="150.3834303320781" x2="464.6666666666667" y2="157.14823690516948" stroke="black" stroke-width="1" />
  <rect x="456.8666666666667" y="151.01335159192058" width="15.6" height="1.2324546388223894" fill="green" />
  <line x1="482.0" y1="143.5227661759672" x2="482.0" y2="150.27387880862727" stroke="black" stroke-width="1" />
  <rect x="474.2" y="145.91920575145502" width="15.6" height="3.5330366312906563" fill="green" />
  <line x1="499.3333333333333" y1="141.646696336871" x2="499.3333333333333" y2="147.64464224580627" stroke="black" stroke-width="1" />
  <rect x="491.5333333333333" y="142.2492297158508" width="15.6" height="3.916466963368748" fill="red" />
  <line x1="516.6666666666666" y1="146.2752482026704" x2="516.6666666666666" y2="156.9839096199932" stroke="black" stroke-width="1" />
  <rect x="508.8666666666666" y="147.54878466278677" width="15.6" height="8.147894556658628" fill="red" />
  <line x1="533.9999999999999" y1="157.75077028414927" x2="533.9999999999999" y2="164.84423142759334" stroke="black" stroke-width="1" />
  <rect x="526.1999999999999" y="161.11947963026358" width="15.6" height="2.9852790140363368" fill="green" />
  <line x1="551.3333333333333" y1="150.76686066415613" x2="551.3333333333333" y2="158.79150975693256" stroke="black" stroke-width="1" />
  <rect x="543.5333333333333" y="151.53372132831225" width="15.6" height="6.874358096542323" fill="green" />

<!-- Resistance Line -->
<line x1="40" y1="130" x2="600" y2="130" stroke="blue" stroke-width="2" />
<text x="605" y="135" font-size="10" fill="blue">Resistance</text>

<!-- Support Line -->
<line x1="40" y1="170" x2="600" y2="170" stroke="green" stroke-width="2" />
<text x="605" y="175" font-size="10" fill="green">Support</text>

<!-- Trendline -->
<line x1="40" y1="250" x2="600" y2="130" stroke="red" stroke-width="2" />
<text x="605" y="135" font-size="10" fill="red">Trendline</text>
</svg>