<svg width="800" height="300" xmlns="http://www.w3.org/2000/svg">
  <line x1="40" y1="250" x2="40" y2="50" stroke="black" stroke-width="2" />
  <line x1="35" y1="250.0" x2="40" y2="250.0" stroke="black" stroke-width="1" />
  <text x="10" y="255.0" font-size="10" fill="black">75</text>
  <line x1="40" y1="250.0" x2="780" y2="250.0" stroke="lightgray" stroke-width="1" stroke-dasharray="5,5" />
  <line x1="35" y1="210.0" x2="40" y2="210.0" stroke="black" stroke-width="1" />
  <text x="10" y="215.0" font-size="10" fill="black">85</text>
  <line x1="40" y1="210.0" x2="780" y2="210.0" stroke="lightgray" stroke-width="1" stroke-dasharray="5,5" />
  <line x1="35" y1="170.0" x2="40" y2="170.0" stroke="black" stroke-width="1" />
  <text x="10" y="175.0" font-size="10" fill="black">95</text>
  <line x1="40" y1="170.0" x2="780" y2="170.0" stroke="lightgray" stroke-width="1" stroke-dasharray="5,5" />
  <line x1="35" y1="130.0" x2="40" y2="130.0" stroke="black" stroke-width="1" />
  <text x="10" y="135.0" font-size="10" fill="black">105</text>
  <line x1="40" y1="130.0" x2="780" y2="130.0" stroke="lightgray" stroke-width="1" stroke-dasharray="5,5" />
  <line x1="35" y1="90.0" x2="40" y2="90.0" stroke="black" stroke-width="1" />
  <text x="10" y="95.0" font-size="10" fill="black">115</text>
  <line x1="40" y1="90.0" x2="780" y2="90.0" stroke="lightgray" stroke-width="1" stroke-dasharray="5,5" />
  <line x1="35" y1="50.0" x2="40" y2="50.0" stroke="black" stroke-width="1" />
  <text x="10" y="55.0" font-size="10" fill="black">125</text>
  <line x1="40" y1="50.0" x2="780" y2="50.0" stroke="lightgray" stroke-width="1" stroke-dasharray="5,5" />
  <line x1="58.27759197324415" y1="145.70010270455327" x2="58.27759197324415" y2="151.1229031153715" stroke="black" stroke-width="1" />
  <rect x="50.0" y="146.65867853474833" width="16.555183946488295" height="3.341321465251667" fill="green" />
  <line x1="76.67224080267559" y1="145.39883601506335" x2="76.67224080267559" y2="150.43820609380356" stroke="black" stroke-width="1" />
  <rect x="68.39464882943145" y="147.86374529270796" width="16.555183946488295" height="2.2458062307429714" fill="green" />
  <line x1="95.06688963210702" y1="148.74015748031502" x2="95.06688963210702" y2="154.0807942485451" stroke="black" stroke-width="1" />
  <rect x="86.78929765886288" y="149.23313933584393" width="16.555183946488295" height="4.491612461485829" fill="red" />
  <line x1="113.46153846153845" y1="148.38411502909963" x2="113.46153846153845" y2="154.10818212940774" stroke="black" stroke-width="1" />
  <rect x="105.18394648829431" y="151.69804861348854" width="16.555183946488295" height="1" fill="red" />
  <line x1="131.8561872909699" y1="149.22136254707289" x2="131.8561872909699" y2="152.51968503937007" stroke="black" stroke-width="1" />
  <rect x="123.57859531772576" y="150.87641218760706" width="16.555183946488295" height="1.0407394727832866" fill="green" />
  <line x1="150.25083612040135" y1="144.40273878808625" x2="150.25083612040135" y2="149.27367339952076" stroke="black" stroke-width="1" />
  <rect x="141.9732441471572" y="145.70010270455327" width="16.555183946488295" height="2.998972954467604" fill="green" />
  <line x1="168.64548494983276" y1="138.93529613146188" x2="168.64548494983276" y2="145.89181787059226" stroke="black" stroke-width="1" />
  <rect x="160.36789297658862" y="142.00273878808628" width="16.555183946488295" height="1.2872304005478554" fill="red" />
  <line x1="187.0401337792642" y1="140.4142416980486" x2="187.0401337792642" y2="148.11023622047247" stroke="black" stroke-width="1" />
  <rect x="178.76254180602007" y="142.82437521396787" width="16.555183946488295" height="4.710715508387523" fill="red" />
  <line x1="205.43478260869566" y1="147.01472098596378" x2="205.43478260869566" y2="151.56110920917502" stroke="black" stroke-width="1" />
  <rect x="197.1571906354515" y="148.931872646354" width="16.555183946488295" height="1.205066757959628" fill="red" />
  <line x1="223.8294314381271" y1="144.16638137624102" x2="223.8294314381271" y2="151.67066073262583" stroke="black" stroke-width="1" />
  <rect x="215.55183946488296" y="146.24786032180765" width="16.555183946488295" height="2.6292365628208927" fill="green" />
  <line x1="242.22408026755855" y1="144.44026018486824" x2="242.22408026755855" y2="150.95857583019517" stroke="black" stroke-width="1" />
  <rect x="233.9464882943144" y="144.79630263608357" width="16.555183946488295" height="4.738103389250284" fill="green" />
  <line x1="260.61872909698997" y1="150.76686066415613" x2="260.61872909698997" y2="154.84765491270116" stroke="black" stroke-width="1" />
  <rect x="252.34113712374582" y="151.3693940431359" width="16.555183946488295" height="2.4375213967819604" fill="red" />
  <line x1="279.0133779264214" y1="151.43211229031158" x2="279.0133779264214" y2="161.99589181787064" stroke="black" stroke-width="1" />
  <rect x="270.73578595317724" y="153.86169120164334" width="16.555183946488295" height="7.038685381718551" fill="red" />
  <line x1="297.4080267558529" y1="157.8877096884629" x2="297.4080267558529" y2="164.9263950701815" stroke="black" stroke-width="1" />
  <rect x="289.13043478260875" y="157.8877096884629" width="16.555183946488295" height="6.134885313248844" fill="red" />
  <line x1="315.8026755852843" y1="160.79082505991101" x2="315.8026755852843" y2="172.40328654570357" stroke="black" stroke-width="1" />
  <rect x="307.52508361204013" y="163.6528586100651" width="16.555183946488295" height="6.860664156110886" fill="red" />
  <line x1="334.19732441471575" y1="161.03731598767547" x2="334.19732441471575" y2="170.56829852790145" stroke="black" stroke-width="1" />
  <rect x="325.9197324414716" y="165.748031496063" width="16.555183946488295" height="4.560082163642676" fill="green" />
  <line x1="352.5919732441472" y1="163.61177678877095" x2="352.5919732441472" y2="174.5395412529956" stroke="black" stroke-width="1" />
  <rect x="344.314381270903" y="164.1184525847313" width="16.555183946488295" height="7.298870249914444" fill="red" />
  <line x1="370.98662207357864" y1="170.7323519342691" x2="370.98662207357864" y2="179.2579253680247" stroke="black" stroke-width="1" />
  <rect x="362.7090301003345" y="171.4720985963711" width="16.555183946488295" height="1" fill="red" />
  <line x1="389.3812709030101" y1="168.02122560766867" x2="389.3812709030101" y2="173.6357411845259" stroke="black" stroke-width="1" />
  <rect x="381.1036789297659" y="168.73331051009927" width="16.555183946488295" height="2.6840123245464724" fill="green" />
  <line x1="407.77591973244154" y1="162.37932214994868" x2="407.77591973244154" y2="167.3573433755563" stroke="black" stroke-width="1" />
  <rect x="399.49832775919737" y="164.89900718931875" width="16.555183946488295" height="2.026703183841107" fill="green" />
  <line x1="426.170568561873" y1="157.9014036288943" x2="426.170568561873" y2="163.6528586100651" stroke="black" stroke-width="1" />
  <rect x="417.8929765886288" y="160.84560082163642" width="16.555183946488295" height="1.0955152345088095" fill="green" />
  <line x1="444.5652173913044" y1="155.23108524477925" x2="444.5652173913044" y2="161.8041766518316" stroke="black" stroke-width="1" />
  <rect x="436.2876254180602" y="157.23040054775765" width="16.555183946488295" height="4.4094488188976015" fill="green" />
  <line x1="462.9598662207358" y1="151.23245463882233" x2="462.9598662207358" y2="157.8329339267375" stroke="black" stroke-width="1" />
  <rect x="454.68227424749165" y="155.7240671003081" width="16.555183946488295" height="1.752824375214061" fill="green" />
  <line x1="481.35451505016727" y1="148.0006846970216" x2="481.35451505016727" y2="153.06744265662445" stroke="black" stroke-width="1" />
  <rect x="473.0769230769231" y="150.65730914070525" width="16.555183946488295" height="2.2458062307429145" fill="red" />
  <line x1="499.7491638795987" y1="150.3834303320781" x2="499.7491638795987" y2="157.14823690516948" stroke="black" stroke-width="1" />
  <rect x="491.47157190635454" y="151.01335159192058" width="16.555183946488295" height="1.2324546388223894" fill="green" />
  <line x1="518.1438127090302" y1="143.5227661759672" x2="518.1438127090302" y2="150.27387880862727" stroke="black" stroke-width="1" />
  <rect x="509.866220735786" y="145.91920575145502" width="16.555183946488295" height="3.5330366312906563" fill="green" />
  <line x1="536.5384615384617" y1="141.646696336871" x2="536.5384615384617" y2="147.64464224580627" stroke="black" stroke-width="1" />
  <rect x="528.2608695652175" y="142.2492297158508" width="16.555183946488295" height="3.916466963368748" fill="red" />
  <line x1="554.933110367893" y1="146.2752482026704" x2="554.933110367893" y2="156.9839096199932" stroke="black" stroke-width="1" />
  <rect x="546.6555183946489" y="147.54878466278677" width="16.555183946488295" height="8.147894556658628" fill="red" />
  <line x1="573.3277591973244" y1="157.75077028414927" x2="573.3277591973244" y2="164.84423142759334" stroke="black" stroke-width="1" />
  <rect x="565.0501672240803" y="161.11947963026358" width="16.555183946488295" height="2.9852790140363368" fill="green" />
  <line x1="591.7224080267559" y1="150.76686066415613" x2="591.7224080267559" y2="158.79150975693256" stroke="black" stroke-width="1" />
  <rect x="583.4448160535118" y="151.53372132831225" width="16.555183946488295" height="6.874358096542323" fill="green" />
</svg>