<svg width="800" height="300" xmlns="http://www.w3.org/2000/svg">
  <line x1="40" y1="250" x2="40" y2="50" stroke="black" stroke-width="2" />
  <line x1="35" y1="250.0" x2="40" y2="250.0" stroke="black" stroke-width="1" />
  <text x="10" y="255.0" font-size="10" fill="black">75</text>
  <line x1="40" y1="250.0" x2="780" y2="250.0" stroke="lightgray" stroke-width="1" stroke-dasharray="5,5" />
  <line x1="35" y1="210.0" x2="40" y2="210.0" stroke="black" stroke-width="1" />
  <text x="10" y="215.0" font-size="10" fill="black">85</text>
  <line x1="40" y1="210.0" x2="780" y2="210.0" stroke="lightgray" stroke-width="1" stroke-dasharray="5,5" />
  <line x1="35" y1="170.0" x2="40" y2="170.0" stroke="black" stroke-width="1" />
  <text x="10" y="175.0" font-size="10" fill="black">95</text>
  <line x1="40" y1="170.0" x2="780" y2="170.0" stroke="lightgray" stroke-width="1" stroke-dasharray="5,5" />
  <line x1="35" y1="130.0" x2="40" y2="130.0" stroke="black" stroke-width="1" />
  <text x="10" y="135.0" font-size="10" fill="black">105</text>
  <line x1="40" y1="130.0" x2="780" y2="130.0" stroke="lightgray" stroke-width="1" stroke-dasharray="5,5" />
  <line x1="35" y1="90.0" x2="40" y2="90.0" stroke="black" stroke-width="1" />
  <text x="10" y="95.0" font-size="10" fill="black">115</text>
  <line x1="40" y1="90.0" x2="780" y2="90.0" stroke="lightgray" stroke-width="1" stroke-dasharray="5,5" />
  <line x1="35" y1="50.0" x2="40" y2="50.0" stroke="black" stroke-width="1" />
  <text x="10" y="55.0" font-size="10" fill="black">125</text>
  <line x1="40" y1="50.0" x2="780" y2="50.0" stroke="lightgray" stroke-width="1" stroke-dasharray="5,5" />
  <line x1="58.27759197324415" y1="147.32713538640326" x2="58.27759197324415" y2="151.1621150493899" stroke="black" stroke-width="1" />
  <rect x="50.0" y="148.0244044160371" width="16.555183946488295" height="1.9755955839628996" fill="green" />
  <line x1="76.67224080267559" y1="146.62986635676936" x2="76.67224080267559" y2="149.97094712376526" stroke="black" stroke-width="1" />
  <rect x="68.39464882943145" y="147.03660662405582" width="16.555183946488295" height="2.149912841371304" fill="red" />
  <line x1="95.06688963210702" y1="146.80418361417782" x2="95.06688963210702" y2="150.4357931435212" stroke="black" stroke-width="1" />
  <rect x="86.78929765886288" y="146.8622893666473" width="16.555183946488295" height="2.2661243463103347" fill="green" />
  <line x1="113.46153846153845" y1="142.50435793143527" x2="113.46153846153845" y2="147.1237652527601" stroke="black" stroke-width="1" />
  <rect x="105.18394648829431" y="145.758280069727" width="16.555183946488295" height="1" fill="green" />
  <line x1="131.8561872909699" y1="143.7245787332946" x2="131.8561872909699" y2="150.29052876234744" stroke="black" stroke-width="1" />
  <rect x="123.57859531772576" y="143.7245787332946" width="16.555183946488295" height="3.4282393957001887" fill="red" />
  <line x1="150.25083612040135" y1="144.13131900058113" x2="150.25083612040135" y2="149.44799535153982" stroke="black" stroke-width="1" />
  <rect x="141.9732441471572" y="144.47995351539805" width="16.555183946488295" height="2.266124346310221" fill="green" />
  <line x1="168.64548494983276" y1="137.9140034863451" x2="168.64548494983276" y2="144.82858803021497" stroke="black" stroke-width="1" />
  <rect x="160.36789297658862" y="138.37884950610106" width="16.555183946488295" height="5.868680999418984" fill="green" />
  <line x1="187.0401337792642" y1="134.36955258570606" x2="187.0401337792642" y2="137.15862870424172" stroke="black" stroke-width="1" />
  <rect x="178.76254180602007" y="134.54386984311446" width="16.555183946488295" height="1.0459035444509368" fill="green" />
  <line x1="205.43478260869566" y1="132.7425915165602" x2="205.43478260869566" y2="135.73503776873912" stroke="black" stroke-width="1" />
  <rect x="197.1571906354515" y="133.09122603137712" width="16.555183946488295" height="1" fill="green" />
  <line x1="223.8294314381271" y1="130.3602556653109" x2="223.8294314381271" y2="136.11272515979084" stroke="black" stroke-width="1" />
  <rect x="215.55183946488296" y="131.34805345729228" width="16.555183946488295" height="1" fill="green" />
  <line x1="242.22408026755855" y1="128.32655432887867" x2="242.22408026755855" y2="132.9169087739686" stroke="black" stroke-width="1" />
  <rect x="233.9464882943144" y="128.90761185357354" width="16.555183946488295" height="1.56885531667632" fill="green" />
  <line x1="260.61872909698997" y1="124.17199302730972" x2="260.61872909698997" y2="130.2149912841371" stroke="black" stroke-width="1" />
  <rect x="252.34113712374582" y="125.76990122022079" width="16.555183946488295" height="3.3120278907612715" fill="green" />
  <line x1="279.0133779264214" y1="122.74840209180712" x2="279.0133779264214" y2="132.16153399186527" stroke="black" stroke-width="1" />
  <rect x="270.73578595317724" y="124.08483439860555" width="16.555183946488295" height="4.299825682742494" fill="red" />
  <line x1="297.4080267558529" y1="127.68739105171409" x2="297.4080267558529" y2="137.5653689715282" stroke="black" stroke-width="1" />
  <rect x="289.13043478260875" y="128.03602556653112" width="16.555183946488295" height="8.42533410807664" fill="red" />
  <line x1="315.8026755852843" y1="133.55607205113307" x2="315.8026755852843" y2="138.08832074375363" stroke="black" stroke-width="1" />
  <rect x="307.52508361204013" y="136.63567693201628" width="16.555183946488295" height="1" fill="green" />
  <line x1="334.19732441471575" y1="129.86635676932013" x2="334.19732441471575" y2="137.5653689715282" stroke="black" stroke-width="1" />
  <rect x="325.9197324414716" y="132.5101685066822" width="16.555183946488295" height="3.6025566531086497" fill="green" />
  <line x1="352.5919732441472" y1="129.19814061592103" x2="352.5919732441472" y2="134.4276583381755" stroke="black" stroke-width="1" />
  <rect x="344.314381270903" y="131.8128994770483" width="16.555183946488295" height="2.440441603718739" fill="red" />
  <line x1="370.98662207357864" y1="135.29924462521785" x2="370.98662207357864" y2="139.9471237652528" stroke="black" stroke-width="1" />
  <rect x="362.7090301003345" y="135.35735037768745" width="16.555183946488295" height="1.6269610691458638" fill="red" />
  <line x1="389.3812709030101" y1="135.24113887274848" x2="389.3812709030101" y2="139.4538059267868" stroke="black" stroke-width="1" />
  <rect x="381.1036789297659" y="136.11272515979084" width="16.555183946488295" height="1.3364323067984287" fill="green" />
  <line x1="407.77591973244154" y1="134.74723997675773" x2="407.77591973244154" y2="140.47065659500288" stroke="black" stroke-width="1" />
  <rect x="399.49832775919737" y="135.06682161533996" width="16.555183946488295" height="3.312027890761101" fill="green" />
  <line x1="426.170568561873" y1="130.24404416037197" x2="426.170568561873" y2="133.8466008134805" stroke="black" stroke-width="1" />
  <rect x="417.8929765886288" y="131.05752469494485" width="16.555183946488295" height="1.9174898314932989" fill="green" />
  <line x1="444.5652173913044" y1="129.6048808832075" x2="444.5652173913044" y2="133.2364904125509" stroke="black" stroke-width="1" />
  <rect x="436.2876254180602" y="132.21963974433464" width="16.555183946488295" height="1" fill="red" />
  <line x1="462.9598662207358" y1="129.43056362579898" x2="462.9598662207358" y2="135.8803021499129" stroke="black" stroke-width="1" />
  <rect x="454.68227424749165" y="132.27774549680424" width="16.555183946488295" height="1" fill="red" />
  <line x1="481.35451505016727" y1="131.98721673445675" x2="481.35451505016727" y2="139.77338756536903" stroke="black" stroke-width="1" />
  <rect x="473.0769230769231" y="134.19523532829754" width="16.555183946488295" height="5.461940732132405" fill="red" />
  <line x1="499.7491638795987" y1="132.80069726902968" x2="499.7491638795987" y2="141.05171411969792" stroke="black" stroke-width="1" />
  <rect x="491.47157190635454" y="133.7303893085416" width="16.555183946488295" height="7.147007553747812" fill="green" />
  <line x1="518.1438127090302" y1="130.47646717024986" x2="518.1438127090302" y2="136.40325392213828" stroke="black" stroke-width="1" />
  <rect x="509.866220735786" y="133.20743753631604" width="16.555183946488295" height="1.0459035444509936" fill="green" />
  <line x1="536.5384615384617" y1="132.71353864032545" x2="536.5384615384617" y2="139.77338756536903" stroke="black" stroke-width="1" />
  <rect x="528.2608695652175" y="135.5316676350959" width="16.555183946488295" height="1" fill="green" />
  <line x1="554.933110367893" y1="132.10342823939573" x2="554.933110367893" y2="135.67693201626963" stroke="black" stroke-width="1" />
  <rect x="546.6555183946489" y="133.32364904125518" width="16.555183946488295" height="1.5107495642067192" fill="red" />
  <line x1="573.3277591973244" y1="133.9047065659501" x2="573.3277591973244" y2="138.37884950610106" stroke="black" stroke-width="1" />
  <rect x="565.0501672240803" y="135.1249273678094" width="16.555183946488295" height="3.1377106333527536" fill="green" />
  <line x1="591.7224080267559" y1="130.47646717024986" x2="591.7224080267559" y2="134.77629285299253" stroke="black" stroke-width="1" />
  <rect x="583.4448160535118" y="132.8588030214991" width="16.555183946488295" height="1.452643811737346" fill="green" />
</svg>