<svg width="800" height="300" xmlns="http://www.w3.org/2000/svg">
  <line x1="40" y1="250" x2="40" y2="50" stroke="black" stroke-width="2" />
  <line x1="35" y1="250.0" x2="40" y2="250.0" stroke="black" stroke-width="1" />
  <text x="10" y="255.0" font-size="10" fill="black">75</text>
  <line x1="40" y1="250.0" x2="780" y2="250.0" stroke="lightgray" stroke-width="1" stroke-dasharray="5, 5" />
  <line x1="35" y1="210.0" x2="40" y2="210.0" stroke="black" stroke-width="1" />
  <text x="10" y="215.0" font-size="10" fill="black">85</text>
  <line x1="40" y1="210.0" x2="780" y2="210.0" stroke="lightgray" stroke-width="1" stroke-dasharray="5, 5" />
  <line x1="35" y1="170.0" x2="40" y2="170.0" stroke="black" stroke-width="1" />
  <text x="10" y="175.0" font-size="10" fill="black">95</text>
  <line x1="40" y1="170.0" x2="780" y2="170.0" stroke="lightgray" stroke-width="1" stroke-dasharray="5, 5" />
  <line x1="35" y1="130.0" x2="40" y2="130.0" stroke="black" stroke-width="1" />
  <text x="10" y="135.0" font-size="10" fill="black">105</text>
  <line x1="40" y1="130.0" x2="780" y2="130.0" stroke="lightgray" stroke-width="1" stroke-dasharray="5, 5" />
  <line x1="35" y1="90.0" x2="40" y2="90.0" stroke="black" stroke-width="1" />
  <text x="10" y="95.0" font-size="10" fill="black">115</text>
  <line x1="40" y1="90.0" x2="780" y2="90.0" stroke="lightgray" stroke-width="1" stroke-dasharray="5, 5" />
  <line x1="35" y1="50.0" x2="40" y2="50.0" stroke="black" stroke-width="1" />
  <text x="10" y="55.0" font-size="10" fill="black">125</text>
  <line x1="40" y1="50.0" x2="780" y2="50.0" stroke="lightgray" stroke-width="1" stroke-dasharray="5, 5" />
  <line x1="35" y1="150.0" x2="40" y2="150.0" stroke="black" stroke-width="1" />
  <text x="10" y="155.0" font-size="10" fill="black">100</text>
  <line x1="40" y1="150.0" x2="780" y2="150.0" stroke="lightgray" stroke-width="1" stroke-dasharray="5, 5" />
  <line x1="48.666666666666664" y1="147.32713538640326" x2="48.666666666666664" y2="151.1621150493899" stroke="black" stroke-width="1" />
  <rect x="40.86666666666667" y="148.0244044160371" width="15.6" height="1.9755955839628996" fill="green" />
  <line x1="66.0" y1="146.62986635676936" x2="66.0" y2="149.97094712376526" stroke="black" stroke-width="1" />
  <rect x="58.199999999999996" y="147.03660662405582" width="15.6" height="2.149912841371304" fill="red" />
  <line x1="83.33333333333333" y1="146.80418361417782" x2="83.33333333333333" y2="150.4357931435212" stroke="black" stroke-width="1" />
  <rect x="75.53333333333332" y="146.8622893666473" width="15.6" height="2.2661243463103347" fill="green" />
  <line x1="100.66666666666667" y1="142.50435793143527" x2="100.66666666666667" y2="147.1237652527601" stroke="black" stroke-width="1" />
  <rect x="92.86666666666666" y="145.758280069727" width="15.6" height="1" fill="green" />
  <line x1="118.0" y1="143.7245787332946" x2="118.0" y2="150.29052876234744" stroke="black" stroke-width="1" />
  <rect x="110.19999999999999" y="143.7245787332946" width="15.6" height="3.4282393957001887" fill="red" />
  <line x1="135.33333333333331" y1="144.13131900058113" x2="135.33333333333331" y2="149.44799535153982" stroke="black" stroke-width="1" />
  <rect x="127.53333333333332" y="144.47995351539805" width="15.6" height="2.266124346310221" fill="green" />
  <line x1="152.66666666666666" y1="137.9140034863451" x2="152.66666666666666" y2="144.82858803021497" stroke="black" stroke-width="1" />
  <rect x="144.86666666666667" y="138.37884950610106" width="15.6" height="5.868680999418984" fill="green" />
  <line x1="169.99999999999997" y1="134.36955258570606" x2="169.99999999999997" y2="137.15862870424172" stroke="black" stroke-width="1" />
  <rect x="162.2" y="134.54386984311446" width="15.6" height="1.0459035444509368" fill="green" />
  <line x1="187.33333333333331" y1="132.7425915165602" x2="187.33333333333331" y2="135.73503776873912" stroke="black" stroke-width="1" />
  <rect x="179.53333333333333" y="133.09122603137712" width="15.6" height="1" fill="green" />
  <line x1="204.66666666666666" y1="130.3602556653109" x2="204.66666666666666" y2="136.11272515979084" stroke="black" stroke-width="1" />
  <rect x="196.86666666666667" y="131.34805345729228" width="15.6" height="1" fill="green" />
  <line x1="221.99999999999997" y1="128.32655432887867" x2="221.99999999999997" y2="132.9169087739686" stroke="black" stroke-width="1" />
  <rect x="214.2" y="128.90761185357354" width="15.6" height="1.56885531667632" fill="green" />
  <line x1="239.33333333333331" y1="124.17199302730972" x2="239.33333333333331" y2="130.2149912841371" stroke="black" stroke-width="1" />
  <rect x="231.53333333333333" y="125.76990122022079" width="15.6" height="3.3120278907612715" fill="green" />
  <line x1="256.6666666666667" y1="122.74840209180712" x2="256.6666666666667" y2="132.16153399186527" stroke="black" stroke-width="1" />
  <rect x="248.86666666666667" y="124.08483439860555" width="15.6" height="4.299825682742494" fill="red" />
  <line x1="274.0" y1="127.68739105171409" x2="274.0" y2="137.5653689715282" stroke="black" stroke-width="1" />
  <rect x="266.2" y="128.03602556653112" width="15.6" height="8.42533410807664" fill="red" />
  <line x1="291.3333333333333" y1="133.55607205113307" x2="291.3333333333333" y2="138.08832074375363" stroke="black" stroke-width="1" />
  <rect x="283.5333333333333" y="136.63567693201628" width="15.6" height="1" fill="green" />
  <line x1="308.6666666666667" y1="129.86635676932013" x2="308.6666666666667" y2="137.5653689715282" stroke="black" stroke-width="1" />
  <rect x="300.8666666666667" y="132.5101685066822" width="15.6" height="3.6025566531086497" fill="green" />
  <line x1="326.0" y1="129.19814061592103" x2="326.0" y2="134.4276583381755" stroke="black" stroke-width="1" />
  <rect x="318.2" y="131.8128994770483" width="15.6" height="2.440441603718739" fill="red" />
  <line x1="343.3333333333333" y1="135.29924462521785" x2="343.3333333333333" y2="139.9471237652528" stroke="black" stroke-width="1" />
  <rect x="335.5333333333333" y="135.35735037768745" width="15.6" height="1.6269610691458638" fill="red" />
  <line x1="360.6666666666667" y1="135.24113887274848" x2="360.6666666666667" y2="139.4538059267868" stroke="black" stroke-width="1" />
  <rect x="352.8666666666667" y="136.11272515979084" width="15.6" height="1.3364323067984287" fill="green" />
  <line x1="378.0" y1="134.74723997675773" x2="378.0" y2="140.47065659500288" stroke="black" stroke-width="1" />
  <rect x="370.2" y="135.06682161533996" width="15.6" height="3.312027890761101" fill="green" />
  <line x1="395.3333333333333" y1="130.24404416037197" x2="395.3333333333333" y2="133.8466008134805" stroke="black" stroke-width="1" />
  <rect x="387.5333333333333" y="131.05752469494485" width="15.6" height="1.9174898314932989" fill="green" />
  <line x1="412.6666666666667" y1="129.6048808832075" x2="412.6666666666667" y2="133.2364904125509" stroke="black" stroke-width="1" />
  <rect x="404.8666666666667" y="132.21963974433464" width="15.6" height="1" fill="red" />
  <line x1="430.0" y1="129.43056362579898" x2="430.0" y2="135.8803021499129" stroke="black" stroke-width="1" />
  <rect x="422.2" y="132.27774549680424" width="15.6" height="1" fill="red" />
  <line x1="447.3333333333333" y1="131.98721673445675" x2="447.3333333333333" y2="139.77338756536903" stroke="black" stroke-width="1" />
  <rect x="439.5333333333333" y="134.19523532829754" width="15.6" height="5.461940732132405" fill="red" />
  <line x1="464.6666666666667" y1="132.80069726902968" x2="464.6666666666667" y2="141.05171411969792" stroke="black" stroke-width="1" />
  <rect x="456.8666666666667" y="133.7303893085416" width="15.6" height="7.147007553747812" fill="green" />
  <line x1="482.0" y1="130.47646717024986" x2="482.0" y2="136.40325392213828" stroke="black" stroke-width="1" />
  <rect x="474.2" y="133.20743753631604" width="15.6" height="1.0459035444509936" fill="green" />
  <line x1="499.3333333333333" y1="132.71353864032545" x2="499.3333333333333" y2="139.77338756536903" stroke="black" stroke-width="1" />
  <rect x="491.5333333333333" y="135.5316676350959" width="15.6" height="1" fill="green" />
  <line x1="516.6666666666666" y1="132.10342823939573" x2="516.6666666666666" y2="135.67693201626963" stroke="black" stroke-width="1" />
  <rect x="508.8666666666666" y="133.32364904125518" width="15.6" height="1.5107495642067192" fill="red" />
  <line x1="533.9999999999999" y1="133.9047065659501" x2="533.9999999999999" y2="138.37884950610106" stroke="black" stroke-width="1" />
  <rect x="526.1999999999999" y="135.1249273678094" width="15.6" height="3.1377106333527536" fill="green" />
  <line x1="551.3333333333333" y1="130.47646717024986" x2="551.3333333333333" y2="134.77629285299253" stroke="black" stroke-width="1" />
  <rect x="543.5333333333333" y="132.8588030214991" width="15.6" height="1.452643811737346" fill="green" />

<line x1="40" y1="50" x2="600" y2="50" stroke="blue" stroke-width="2" />
     <text x="605" y="55" font-size="10" fill="blue">Support Level</text>
</svg>