<svg width="800" height="300" xmlns="http://www.w3.org/2000/svg">
  <line x1="40" y1="250" x2="40" y2="50" stroke="black" stroke-width="2" />
  <line x1="35" y1="250.0" x2="40" y2="250.0" stroke="black" stroke-width="1" />
  <text x="10" y="255.0" font-size="10" fill="black">75</text>
  <line x1="40" y1="250.0" x2="780" y2="250.0" stroke="lightgray" stroke-width="1" stroke-dasharray="5, 5" />
  <line x1="35" y1="210.0" x2="40" y2="210.0" stroke="black" stroke-width="1" />
  <text x="10" y="215.0" font-size="10" fill="black">85</text>
  <line x1="40" y1="210.0" x2="780" y2="210.0" stroke="lightgray" stroke-width="1" stroke-dasharray="5, 5" />
  <line x1="35" y1="170.0" x2="40" y2="170.0" stroke="black" stroke-width="1" />
  <text x="10" y="175.0" font-size="10" fill="black">95</text>
  <line x1="40" y1="170.0" x2="780" y2="170.0" stroke="lightgray" stroke-width="1" stroke-dasharray="5, 5" />
  <line x1="35" y1="130.0" x2="40" y2="130.0" stroke="black" stroke-width="1" />
  <text x="10" y="135.0" font-size="10" fill="black">105</text>
  <line x1="40" y1="130.0" x2="780" y2="130.0" stroke="lightgray" stroke-width="1" stroke-dasharray="5, 5" />
  <line x1="35" y1="90.0" x2="40" y2="90.0" stroke="black" stroke-width="1" />
  <text x="10" y="95.0" font-size="10" fill="black">115</text>
  <line x1="40" y1="90.0" x2="780" y2="90.0" stroke="lightgray" stroke-width="1" stroke-dasharray="5, 5" />
  <line x1="35" y1="50.0" x2="40" y2="50.0" stroke="black" stroke-width="1" />
  <text x="10" y="55.0" font-size="10" fill="black">125</text>
  <line x1="40" y1="50.0" x2="780" y2="50.0" stroke="lightgray" stroke-width="1" stroke-dasharray="5, 5" />
  <line x1="35" y1="150.0" x2="40" y2="150.0" stroke="black" stroke-width="1" />
  <text x="10" y="155.0" font-size="10" fill="black">100</text>
  <line x1="40" y1="150.0" x2="780" y2="150.0" stroke="lightgray" stroke-width="1" stroke-dasharray="5, 5" />
  <line x1="48.666666666666664" y1="146.5217391304348" x2="48.666666666666664" y2="150.36613272311217" stroke="black" stroke-width="1" />
  <rect x="40.86666666666667" y="148.90160183066365" width="15.6" height="1.098398169336349" fill="green" />
  <line x1="66.0" y1="145.78947368421058" x2="66.0" y2="149.45080091533185" stroke="black" stroke-width="1" />
  <rect x="58.199999999999996" y="145.78947368421058" width="15.6" height="2.562929061784871" fill="green" />
  <line x1="83.33333333333333" y1="145.0572082379863" x2="83.33333333333333" y2="146.88787185354693" stroke="black" stroke-width="1" />
  <rect x="75.53333333333332" y="145.9725400457666" width="15.6" height="1" fill="red" />
  <line x1="100.66666666666667" y1="144.14187643020597" x2="100.66666666666667" y2="145.9725400457666" stroke="black" stroke-width="1" />
  <rect x="92.86666666666666" y="144.69107551487417" width="15.6" height="1.2814645308924355" fill="green" />
  <line x1="118.0" y1="140.66361556064078" x2="118.0" y2="144.87414187643026" stroke="black" stroke-width="1" />
  <rect x="110.19999999999999" y="141.76201372997707" width="15.6" height="2.929061784897101" fill="green" />
  <line x1="135.33333333333331" y1="138.64988558352405" x2="135.33333333333331" y2="141.94508009153327" stroke="black" stroke-width="1" />
  <rect x="127.53333333333332" y="138.64988558352405" width="15.6" height="3.112128146453017" fill="green" />
  <line x1="152.66666666666666" y1="136.81922196796341" x2="152.66666666666666" y2="141.21281464530898" stroke="black" stroke-width="1" />
  <rect x="144.86666666666667" y="139.38215102974834" width="15.6" height="1.8306636155606384" fill="red" />
  <line x1="169.99999999999997" y1="138.64988558352405" x2="169.99999999999997" y2="141.0297482837529" stroke="black" stroke-width="1" />
  <rect x="162.2" y="141.0297482837529" width="15.6" height="1" fill="red" />
  <line x1="187.33333333333331" y1="139.7482837528604" x2="187.33333333333331" y2="143.22654462242565" stroke="black" stroke-width="1" />
  <rect x="179.53333333333333" y="141.0297482837529" width="15.6" height="1.8306636155606384" fill="green" />
  <line x1="204.66666666666666" y1="135.90389016018304" x2="204.66666666666666" y2="141.0297482837529" stroke="black" stroke-width="1" />
  <rect x="196.86666666666667" y="136.08695652173924" width="15.6" height="4.942791762013655" fill="green" />
  <line x1="221.99999999999997" y1="133.70709382151034" x2="221.99999999999997" y2="138.283752860412" stroke="black" stroke-width="1" />
  <rect x="214.2" y="133.70709382151034" width="15.6" height="3.112128146453074" fill="green" />
  <line x1="239.33333333333331" y1="126.93363844393593" x2="239.33333333333331" y2="133.5240274599543" stroke="black" stroke-width="1" />
  <rect x="231.53333333333333" y="128.94736842105266" width="15.6" height="4.576659038901653" fill="green" />
  <line x1="256.6666666666667" y1="127.48283752860414" x2="256.6666666666667" y2="134.62242562929066" stroke="black" stroke-width="1" />
  <rect x="248.86666666666667" y="128.21510297482848" width="15.6" height="2.196796338672641" fill="green" />
  <line x1="274.0" y1="121.99084668192228" x2="274.0" y2="129.13043478260875" stroke="black" stroke-width="1" />
  <rect x="266.2" y="122.3569794050344" width="15.6" height="5.858123569794088" fill="green" />
  <line x1="291.3333333333333" y1="121.80778032036619" x2="291.3333333333333" y2="125.65217391304355" stroke="black" stroke-width="1" />
  <rect x="283.5333333333333" y="122.17391304347825" width="15.6" height="1.2814645308924923" fill="green" />
  <line x1="308.6666666666667" y1="121.25858123569799" x2="308.6666666666667" y2="125.46910755148747" stroke="black" stroke-width="1" />
  <rect x="300.8666666666667" y="122.54004576659037" width="15.6" height="2.1967963386728115" fill="red" />
  <line x1="326.0" y1="123.27231121281466" x2="326.0" y2="127.66590389016022" stroke="black" stroke-width="1" />
  <rect x="318.2" y="124.73684210526318" width="15.6" height="2.929061784897044" fill="red" />
  <line x1="343.3333333333333" y1="126.38443935926773" x2="343.3333333333333" y2="133.8901601830663" stroke="black" stroke-width="1" />
  <rect x="335.5333333333333" y="126.56750572082382" width="15.6" height="1.4645308924484652" fill="green" />
  <line x1="360.6666666666667" y1="124.91990846681927" x2="360.6666666666667" y2="128.03203661327228" stroke="black" stroke-width="1" />
  <rect x="352.8666666666667" y="125.28604118993138" width="15.6" height="1" fill="green" />
  <line x1="378.0" y1="121.6247139588101" x2="378.0" y2="126.38443935926773" stroke="black" stroke-width="1" />
  <rect x="370.2" y="123.45537757437074" width="15.6" height="1.464530892448522" fill="green" />
  <line x1="395.3333333333333" y1="120.5263157894737" x2="395.3333333333333" y2="124.5537757437072" stroke="black" stroke-width="1" />
  <rect x="387.5333333333333" y="120.5263157894737" width="15.6" height="3.1121281464531307" fill="green" />
  <line x1="412.6666666666667" y1="116.86498855835242" x2="412.6666666666667" y2="121.25858123569799" stroke="black" stroke-width="1" />
  <rect x="404.8666666666667" y="117.04805491990851" width="15.6" height="2.929061784897044" fill="green" />
  <line x1="430.0" y1="114.3020594965675" x2="430.0" y2="117.7803203661328" stroke="black" stroke-width="1" />
  <rect x="422.2" y="115.58352402745999" width="15.6" height="1.8306636155606384" fill="green" />
  <line x1="447.3333333333333" y1="113.93592677345544" x2="447.3333333333333" y2="118.69565217391312" stroke="black" stroke-width="1" />
  <rect x="439.5333333333333" y="116.31578947368422" width="15.6" height="1.464530892448579" fill="red" />
  <line x1="464.6666666666667" y1="114.11899313501152" x2="464.6666666666667" y2="118.329519450801" stroke="black" stroke-width="1" />
  <rect x="456.8666666666667" y="115.03432494279178" width="15.6" height="2.7459954233410144" fill="green" />
  <line x1="482.0" y1="110.09153318077801" x2="482.0" y2="116.31578947368422" stroke="black" stroke-width="1" />
  <rect x="474.2" y="111.18993135011442" width="15.6" height="4.02745995423345" fill="green" />
  <line x1="499.3333333333333" y1="109.90846681922204" x2="499.3333333333333" y2="113.02059496567506" stroke="black" stroke-width="1" />
  <rect x="491.5333333333333" y="110.27459954233416" width="15.6" height="1" fill="green" />
  <line x1="516.6666666666666" y1="103.31807780320366" x2="516.6666666666666" y2="110.27459954233416" stroke="black" stroke-width="1" />
  <rect x="508.8666666666666" y="103.31807780320366" width="15.6" height="6.956521739130494" fill="green" />
  <line x1="533.9999999999999" y1="100.93821510297482" x2="533.9999999999999" y2="106.43020594965674" stroke="black" stroke-width="1" />
  <rect x="526.1999999999999" y="102.03661327231129" width="15.6" height="1.2814645308923787" fill="green" />
  <line x1="551.3333333333333" y1="100.75514874141885" x2="551.3333333333333" y2="111.37299771167051" stroke="black" stroke-width="1" />
  <rect x="543.5333333333333" y="101.304347826087" width="15.6" height="10.068649885583511" fill="red" />

<line x1="40" y1="150" x2="600" y2="150" stroke="blue" stroke-width="2" />
     <text x="605" y="150" font-size="10" fill="blue">Support</text>
</svg>