<svg width="800" height="300" xmlns="http://www.w3.org/2000/svg">
  <line x1="40" y1="250" x2="40" y2="50" stroke="black" stroke-width="2" />
  <line x1="35" y1="250.0" x2="40" y2="250.0" stroke="black" stroke-width="1" />
  <text x="10" y="255.0" font-size="10" fill="black">75</text>
  <line x1="40" y1="250.0" x2="780" y2="250.0" stroke="lightgray" stroke-width="1" stroke-dasharray="5,5" />
  <line x1="35" y1="210.0" x2="40" y2="210.0" stroke="black" stroke-width="1" />
  <text x="10" y="215.0" font-size="10" fill="black">85</text>
  <line x1="40" y1="210.0" x2="780" y2="210.0" stroke="lightgray" stroke-width="1" stroke-dasharray="5,5" />
  <line x1="35" y1="170.0" x2="40" y2="170.0" stroke="black" stroke-width="1" />
  <text x="10" y="175.0" font-size="10" fill="black">95</text>
  <line x1="40" y1="170.0" x2="780" y2="170.0" stroke="lightgray" stroke-width="1" stroke-dasharray="5,5" />
  <line x1="35" y1="130.0" x2="40" y2="130.0" stroke="black" stroke-width="1" />
  <text x="10" y="135.0" font-size="10" fill="black">105</text>
  <line x1="40" y1="130.0" x2="780" y2="130.0" stroke="lightgray" stroke-width="1" stroke-dasharray="5,5" />
  <line x1="35" y1="90.0" x2="40" y2="90.0" stroke="black" stroke-width="1" />
  <text x="10" y="95.0" font-size="10" fill="black">115</text>
  <line x1="40" y1="90.0" x2="780" y2="90.0" stroke="lightgray" stroke-width="1" stroke-dasharray="5,5" />
  <line x1="35" y1="50.0" x2="40" y2="50.0" stroke="black" stroke-width="1" />
  <text x="10" y="55.0" font-size="10" fill="black">125</text>
  <line x1="40" y1="50.0" x2="780" y2="50.0" stroke="lightgray" stroke-width="1" stroke-dasharray="5,5" />
  <line x1="58.27759197324415" y1="146.5217391304348" x2="58.27759197324415" y2="150.36613272311217" stroke="black" stroke-width="1" />
  <rect x="50.0" y="148.90160183066365" width="16.555183946488295" height="1.098398169336349" fill="green" />
  <line x1="76.67224080267559" y1="145.78947368421058" x2="76.67224080267559" y2="149.45080091533185" stroke="black" stroke-width="1" />
  <rect x="68.39464882943145" y="145.78947368421058" width="16.555183946488295" height="2.562929061784871" fill="green" />
  <line x1="95.06688963210702" y1="145.0572082379863" x2="95.06688963210702" y2="146.88787185354693" stroke="black" stroke-width="1" />
  <rect x="86.78929765886288" y="145.9725400457666" width="16.555183946488295" height="1" fill="red" />
  <line x1="113.46153846153845" y1="144.14187643020597" x2="113.46153846153845" y2="145.9725400457666" stroke="black" stroke-width="1" />
  <rect x="105.18394648829431" y="144.69107551487417" width="16.555183946488295" height="1.2814645308924355" fill="green" />
  <line x1="131.8561872909699" y1="140.66361556064078" x2="131.8561872909699" y2="144.87414187643026" stroke="black" stroke-width="1" />
  <rect x="123.57859531772576" y="141.76201372997707" width="16.555183946488295" height="2.929061784897101" fill="green" />
  <line x1="150.25083612040135" y1="138.64988558352405" x2="150.25083612040135" y2="141.94508009153327" stroke="black" stroke-width="1" />
  <rect x="141.9732441471572" y="138.64988558352405" width="16.555183946488295" height="3.112128146453017" fill="green" />
  <line x1="168.64548494983276" y1="136.81922196796341" x2="168.64548494983276" y2="141.21281464530898" stroke="black" stroke-width="1" />
  <rect x="160.36789297658862" y="139.38215102974834" width="16.555183946488295" height="1.8306636155606384" fill="red" />
  <line x1="187.0401337792642" y1="138.64988558352405" x2="187.0401337792642" y2="141.0297482837529" stroke="black" stroke-width="1" />
  <rect x="178.76254180602007" y="141.0297482837529" width="16.555183946488295" height="1" fill="red" />
  <line x1="205.43478260869566" y1="139.7482837528604" x2="205.43478260869566" y2="143.22654462242565" stroke="black" stroke-width="1" />
  <rect x="197.1571906354515" y="141.0297482837529" width="16.555183946488295" height="1.8306636155606384" fill="green" />
  <line x1="223.8294314381271" y1="135.90389016018304" x2="223.8294314381271" y2="141.0297482837529" stroke="black" stroke-width="1" />
  <rect x="215.55183946488296" y="136.08695652173924" width="16.555183946488295" height="4.942791762013655" fill="green" />
  <line x1="242.22408026755855" y1="133.70709382151034" x2="242.22408026755855" y2="138.283752860412" stroke="black" stroke-width="1" />
  <rect x="233.9464882943144" y="133.70709382151034" width="16.555183946488295" height="3.112128146453074" fill="green" />
  <line x1="260.61872909698997" y1="126.93363844393593" x2="260.61872909698997" y2="133.5240274599543" stroke="black" stroke-width="1" />
  <rect x="252.34113712374582" y="128.94736842105266" width="16.555183946488295" height="4.576659038901653" fill="green" />
  <line x1="279.0133779264214" y1="127.48283752860414" x2="279.0133779264214" y2="134.62242562929066" stroke="black" stroke-width="1" />
  <rect x="270.73578595317724" y="128.21510297482848" width="16.555183946488295" height="2.196796338672641" fill="green" />
  <line x1="297.4080267558529" y1="121.99084668192228" x2="297.4080267558529" y2="129.13043478260875" stroke="black" stroke-width="1" />
  <rect x="289.13043478260875" y="122.3569794050344" width="16.555183946488295" height="5.858123569794088" fill="green" />
  <line x1="315.8026755852843" y1="121.80778032036619" x2="315.8026755852843" y2="125.65217391304355" stroke="black" stroke-width="1" />
  <rect x="307.52508361204013" y="122.17391304347825" width="16.555183946488295" height="1.2814645308924923" fill="green" />
  <line x1="334.19732441471575" y1="121.25858123569799" x2="334.19732441471575" y2="125.46910755148747" stroke="black" stroke-width="1" />
  <rect x="325.9197324414716" y="122.54004576659037" width="16.555183946488295" height="2.1967963386728115" fill="red" />
  <line x1="352.5919732441472" y1="123.27231121281466" x2="352.5919732441472" y2="127.66590389016022" stroke="black" stroke-width="1" />
  <rect x="344.314381270903" y="124.73684210526318" width="16.555183946488295" height="2.929061784897044" fill="red" />
  <line x1="370.98662207357864" y1="126.38443935926773" x2="370.98662207357864" y2="133.8901601830663" stroke="black" stroke-width="1" />
  <rect x="362.7090301003345" y="126.56750572082382" width="16.555183946488295" height="1.4645308924484652" fill="green" />
  <line x1="389.3812709030101" y1="124.91990846681927" x2="389.3812709030101" y2="128.03203661327228" stroke="black" stroke-width="1" />
  <rect x="381.1036789297659" y="125.28604118993138" width="16.555183946488295" height="1" fill="green" />
  <line x1="407.77591973244154" y1="121.6247139588101" x2="407.77591973244154" y2="126.38443935926773" stroke="black" stroke-width="1" />
  <rect x="399.49832775919737" y="123.45537757437074" width="16.555183946488295" height="1.464530892448522" fill="green" />
  <line x1="426.170568561873" y1="120.5263157894737" x2="426.170568561873" y2="124.5537757437072" stroke="black" stroke-width="1" />
  <rect x="417.8929765886288" y="120.5263157894737" width="16.555183946488295" height="3.1121281464531307" fill="green" />
  <line x1="444.5652173913044" y1="116.86498855835242" x2="444.5652173913044" y2="121.25858123569799" stroke="black" stroke-width="1" />
  <rect x="436.2876254180602" y="117.04805491990851" width="16.555183946488295" height="2.929061784897044" fill="green" />
  <line x1="462.9598662207358" y1="114.3020594965675" x2="462.9598662207358" y2="117.7803203661328" stroke="black" stroke-width="1" />
  <rect x="454.68227424749165" y="115.58352402745999" width="16.555183946488295" height="1.8306636155606384" fill="green" />
  <line x1="481.35451505016727" y1="113.93592677345544" x2="481.35451505016727" y2="118.69565217391312" stroke="black" stroke-width="1" />
  <rect x="473.0769230769231" y="116.31578947368422" width="16.555183946488295" height="1.464530892448579" fill="red" />
  <line x1="499.7491638795987" y1="114.11899313501152" x2="499.7491638795987" y2="118.329519450801" stroke="black" stroke-width="1" />
  <rect x="491.47157190635454" y="115.03432494279178" width="16.555183946488295" height="2.7459954233410144" fill="green" />
  <line x1="518.1438127090302" y1="110.09153318077801" x2="518.1438127090302" y2="116.31578947368422" stroke="black" stroke-width="1" />
  <rect x="509.866220735786" y="111.18993135011442" width="16.555183946488295" height="4.02745995423345" fill="green" />
  <line x1="536.5384615384617" y1="109.90846681922204" x2="536.5384615384617" y2="113.02059496567506" stroke="black" stroke-width="1" />
  <rect x="528.2608695652175" y="110.27459954233416" width="16.555183946488295" height="1" fill="green" />
  <line x1="554.933110367893" y1="103.31807780320366" x2="554.933110367893" y2="110.27459954233416" stroke="black" stroke-width="1" />
  <rect x="546.6555183946489" y="103.31807780320366" width="16.555183946488295" height="6.956521739130494" fill="green" />
  <line x1="573.3277591973244" y1="100.93821510297482" x2="573.3277591973244" y2="106.43020594965674" stroke="black" stroke-width="1" />
  <rect x="565.0501672240803" y="102.03661327231129" width="16.555183946488295" height="1.2814645308923787" fill="green" />
  <line x1="591.7224080267559" y1="100.75514874141885" x2="591.7224080267559" y2="111.37299771167051" stroke="black" stroke-width="1" />
  <rect x="583.4448160535118" y="101.304347826087" width="16.555183946488295" height="10.068649885583511" fill="red" />
</svg>