<svg width="800" height="300" xmlns="http://www.w3.org/2000/svg">
  <line x1="40" y1="250" x2="40" y2="50" stroke="black" stroke-width="2" />
  <line x1="35" y1="250.0" x2="40" y2="250.0" stroke="black" stroke-width="1" />
  <text x="10" y="255.0" font-size="10" fill="black">75</text>
  <line x1="40" y1="250.0" x2="780" y2="250.0" stroke="lightgray" stroke-width="1" stroke-dasharray="5,5" />
  <line x1="35" y1="210.0" x2="40" y2="210.0" stroke="black" stroke-width="1" />
  <text x="10" y="215.0" font-size="10" fill="black">85</text>
  <line x1="40" y1="210.0" x2="780" y2="210.0" stroke="lightgray" stroke-width="1" stroke-dasharray="5,5" />
  <line x1="35" y1="170.0" x2="40" y2="170.0" stroke="black" stroke-width="1" />
  <text x="10" y="175.0" font-size="10" fill="black">95</text>
  <line x1="40" y1="170.0" x2="780" y2="170.0" stroke="lightgray" stroke-width="1" stroke-dasharray="5,5" />
  <line x1="35" y1="130.0" x2="40" y2="130.0" stroke="black" stroke-width="1" />
  <text x="10" y="135.0" font-size="10" fill="black">105</text>
  <line x1="40" y1="130.0" x2="780" y2="130.0" stroke="lightgray" stroke-width="1" stroke-dasharray="5,5" />
  <line x1="35" y1="90.0" x2="40" y2="90.0" stroke="black" stroke-width="1" />
  <text x="10" y="95.0" font-size="10" fill="black">115</text>
  <line x1="40" y1="90.0" x2="780" y2="90.0" stroke="lightgray" stroke-width="1" stroke-dasharray="5,5" />
  <line x1="35" y1="50.0" x2="40" y2="50.0" stroke="black" stroke-width="1" />
  <text x="10" y="55.0" font-size="10" fill="black">125</text>
  <line x1="40" y1="50.0" x2="780" y2="50.0" stroke="lightgray" stroke-width="1" stroke-dasharray="5,5" />
  <line x1="58.27759197324415" y1="148.33884227476898" x2="58.27759197324415" y2="151.11873887617594" stroke="black" stroke-width="1" />
  <rect x="50.0" y="149.38977879481314" width="16.555183946488295" height="1" fill="green" />
  <line x1="76.67224080267559" y1="141.49080430544956" x2="76.67224080267559" y2="149.38977879481314" stroke="black" stroke-width="1" />
  <rect x="68.39464882943145" y="148.16933638443936" width="16.555183946488295" height="1" fill="green" />
  <line x1="95.06688963210702" y1="147.76252224764806" x2="95.06688963210702" y2="161.7976099669463" stroke="black" stroke-width="1" />
  <rect x="86.78929765886288" y="147.76252224764806" width="16.555183946488295" height="13.797779472836737" fill="red" />
  <line x1="113.46153846153845" y1="158.20408509195698" x2="113.46153846153845" y2="164.34019832189165" stroke="black" stroke-width="1" />
  <rect x="105.18394648829431" y="160.10255106364946" width="16.555183946488295" height="3.9325366556487893" fill="red" />
  <line x1="131.8561872909699" y1="160.10255106364946" x2="131.8561872909699" y2="164.7639630477159" stroke="black" stroke-width="1" />
  <rect x="123.57859531772576" y="161.05178404949572" width="16.555183946488295" height="3.2206119162640903" fill="green" />
  <line x1="150.25083612040135" y1="154.30544961437408" x2="150.25083612040135" y2="160.0516992965505" stroke="black" stroke-width="1" />
  <rect x="141.9732441471572" y="155.6614967370116" width="16.555183946488295" height="4.3902025595389205" fill="green" />
  <line x1="168.64548494983276" y1="146.7793880837359" x2="168.64548494983276" y2="153.62742605305533" stroke="black" stroke-width="1" />
  <rect x="160.36789297658862" y="147.22010339859304" width="16.555183946488295" height="3.559623696923495" fill="green" />
  <line x1="187.0401337792642" y1="145.18603271463684" x2="187.0401337792642" y2="152.0001695058903" stroke="black" stroke-width="1" />
  <rect x="178.76254180602007" y="146.71158572760402" width="16.555183946488295" height="4.33935079244003" fill="red" />
  <line x1="205.43478260869566" y1="151.38994830070345" x2="205.43478260869566" y2="155.8649038054072" stroke="black" stroke-width="1" />
  <rect x="197.1571906354515" y="153.35621662852782" width="16.555183946488295" height="1.6272565471650182" fill="red" />
  <line x1="223.8294314381271" y1="147.28790575472493" x2="223.8294314381271" y2="155.5597932028138" stroke="black" stroke-width="1" />
  <rect x="215.55183946488296" y="149.52538350707687" width="16.555183946488295" height="3.152809560132198" fill="green" />
  <line x1="242.22408026755855" y1="149.89829646580216" x2="242.22408026755855" y2="155.76320027120943" stroke="black" stroke-width="1" />
  <rect x="233.9464882943144" y="150.16950589032967" width="16.555183946488295" height="3.898635477582843" fill="green" />
  <line x1="260.61872909698997" y1="156.44122383252818" x2="260.61872909698997" y2="163.39096533604538" stroke="black" stroke-width="1" />
  <rect x="252.34113712374582" y="157.2887532841766" width="16.555183946488295" height="1.2543435884396672" fill="red" />
  <line x1="279.0133779264214" y1="156.2378167641325" x2="279.0133779264214" y2="163.611322993474" stroke="black" stroke-width="1" />
  <rect x="270.73578595317724" y="159.1533180778032" width="16.555183946488295" height="4.169844902110356" fill="red" />
  <line x1="297.4080267558529" y1="159.18721925586914" x2="297.4080267558529" y2="166.67937960844142" stroke="black" stroke-width="1" />
  <rect x="289.13043478260875" y="159.89914399525384" width="16.555183946488295" height="6.441223832528124" fill="red" />
  <line x1="315.8026755852843" y1="162.91634884312225" x2="315.8026755852843" y2="171.21535723366384" stroke="black" stroke-width="1" />
  <rect x="307.52508361204013" y="164.91651834901262" width="16.555183946488295" height="3.2206119162640334" fill="red" />
  <line x1="334.19732441471575" y1="156.2378167641325" x2="334.19732441471575" y2="168.06932790914482" stroke="black" stroke-width="1" />
  <rect x="325.9197324414716" y="160.10255106364946" width="16.555183946488295" height="7.254852106110661" fill="green" />
  <line x1="352.5919732441472" y1="158.78040511907784" x2="352.5919732441472" y2="176.51072124756337" stroke="black" stroke-width="1" />
  <rect x="344.314381270903" y="159.79744046105606" width="16.555183946488295" height="14.509704212221322" fill="red" />
  <line x1="370.98662207357864" y1="173.8664293584202" x2="370.98662207357864" y2="184.6470039833884" stroke="black" stroke-width="1" />
  <rect x="362.7090301003345" y="174.4596999745741" width="16.555183946488295" height="3.57657428595644" fill="red" />
  <line x1="389.3812709030101" y1="172.57818459191452" x2="389.3812709030101" y2="177.8976184422408" stroke="black" stroke-width="1" />
  <rect x="381.1036789297659" y="172.91719637257393" width="16.555183946488295" height="4.508856682769704" fill="green" />
  <line x1="407.77591973244154" y1="168.71345029239768" x2="407.77591973244154" y2="173.93423171455203" stroke="black" stroke-width="1" />
  <rect x="399.49832775919737" y="172.10356809899145" width="16.555183946488295" height="1.0848376981099932" fill="red" />
  <line x1="426.170568561873" y1="166.62852784134247" x2="426.170568561873" y2="171.3577421815408" stroke="black" stroke-width="1" />
  <rect x="417.8929765886288" y="167.89982201881514" width="16.555183946488295" height="2.2374777523518787" fill="green" />
  <line x1="444.5652173913044" y1="162.27222645986944" x2="444.5652173913044" y2="169.89999152470546" stroke="black" stroke-width="1" />
  <rect x="436.2876254180602" y="162.91634884312225" width="16.555183946488295" height="6.3056191202645095" fill="green" />
  <line x1="462.9598662207358" y1="158.0006780235613" x2="462.9598662207358" y2="164.17069243156197" stroke="black" stroke-width="1" />
  <rect x="454.68227424749165" y="161.5603017204848" width="16.555183946488295" height="1.593355369099072" fill="green" />
  <line x1="481.35451505016727" y1="151.4068988897364" x2="481.35451505016727" y2="159.49232985846254" stroke="black" stroke-width="1" />
  <rect x="473.0769230769231" y="156.2039155860666" width="16.555183946488295" height="1" fill="red" />
  <line x1="499.7491638795987" y1="158.40749216035255" x2="499.7491638795987" y2="162.67904059666074" stroke="black" stroke-width="1" />
  <rect x="491.47157190635454" y="158.57699805068228" width="16.555183946488295" height="1" fill="red" />
  <line x1="518.1438127090302" y1="150.66785320789893" x2="518.1438127090302" y2="159.7296381049241" stroke="black" stroke-width="1" />
  <rect x="509.866220735786" y="152.1357742181541" width="16.555183946488295" height="6.881939147385367" fill="green" />
  <line x1="536.5384615384617" y1="149.42367997287909" x2="536.5384615384617" y2="153.9325366556488" stroke="black" stroke-width="1" />
  <rect x="528.2608695652175" y="150.50851767098902" width="16.555183946488295" height="2.678193067209122" fill="red" />
  <line x1="554.933110367893" y1="153.18671073819814" x2="554.933110367893" y2="163.39096533604538" stroke="black" stroke-width="1" />
  <rect x="546.6555183946489" y="155.10212729892362" width="16.555183946488295" height="5.814052038308375" fill="red" />
  <line x1="573.3277591973244" y1="165.2894313077379" x2="573.3277591973244" y2="173.22230697516738" stroke="black" stroke-width="1" />
  <rect x="565.0501672240803" y="167.59471141622168" width="16.555183946488295" height="5.6275955589457" fill="green" />
  <line x1="591.7224080267559" y1="156.44122383252818" x2="591.7224080267559" y2="166.0691584032545" stroke="black" stroke-width="1" />
  <rect x="583.4448160535118" y="157.3565556403085" width="16.555183946488295" height="6.983642681583149" fill="green" />
</svg>