<svg width="800" height="300" xmlns="http://www.w3.org/2000/svg">
  <line x1="40" y1="250" x2="40" y2="50" stroke="black" stroke-width="2" />
  <line x1="35" y1="250.0" x2="40" y2="250.0" stroke="black" stroke-width="1" />
  <text x="10" y="255.0" font-size="10" fill="black">75</text>
  <line x1="40" y1="250.0" x2="780" y2="250.0" stroke="lightgray" stroke-width="1" stroke-dasharray="5, 5" />
  <line x1="35" y1="210.0" x2="40" y2="210.0" stroke="black" stroke-width="1" />
  <text x="10" y="215.0" font-size="10" fill="black">85</text>
  <line x1="40" y1="210.0" x2="780" y2="210.0" stroke="lightgray" stroke-width="1" stroke-dasharray="5, 5" />
  <line x1="35" y1="170.0" x2="40" y2="170.0" stroke="black" stroke-width="1" />
  <text x="10" y="175.0" font-size="10" fill="black">95</text>
  <line x1="40" y1="170.0" x2="780" y2="170.0" stroke="lightgray" stroke-width="1" stroke-dasharray="5, 5" />
  <line x1="35" y1="130.0" x2="40" y2="130.0" stroke="black" stroke-width="1" />
  <text x="10" y="135.0" font-size="10" fill="black">105</text>
  <line x1="40" y1="130.0" x2="780" y2="130.0" stroke="lightgray" stroke-width="1" stroke-dasharray="5, 5" />
  <line x1="35" y1="90.0" x2="40" y2="90.0" stroke="black" stroke-width="1" />
  <text x="10" y="95.0" font-size="10" fill="black">115</text>
  <line x1="40" y1="90.0" x2="780" y2="90.0" stroke="lightgray" stroke-width="1" stroke-dasharray="5, 5" />
  <line x1="35" y1="50.0" x2="40" y2="50.0" stroke="black" stroke-width="1" />
  <text x="10" y="55.0" font-size="10" fill="black">125</text>
  <line x1="40" y1="50.0" x2="780" y2="50.0" stroke="lightgray" stroke-width="1" stroke-dasharray="5, 5" />
  <line x1="35" y1="150.0" x2="40" y2="150.0" stroke="black" stroke-width="1" />
  <text x="10" y="155.0" font-size="10" fill="black">100</text>
  <line x1="40" y1="150.0" x2="780" y2="150.0" stroke="lightgray" stroke-width="1" stroke-dasharray="5, 5" />
  <line x1="48.666666666666664" y1="148.33884227476898" x2="48.666666666666664" y2="151.11873887617594" stroke="black" stroke-width="1" />
  <rect x="40.86666666666667" y="149.38977879481314" width="15.6" height="1" fill="green" />
  <line x1="66.0" y1="141.49080430544956" x2="66.0" y2="149.38977879481314" stroke="black" stroke-width="1" />
  <rect x="58.199999999999996" y="148.16933638443936" width="15.6" height="1" fill="green" />
  <line x1="83.33333333333333" y1="147.76252224764806" x2="83.33333333333333" y2="161.7976099669463" stroke="black" stroke-width="1" />
  <rect x="75.53333333333332" y="147.76252224764806" width="15.6" height="13.797779472836737" fill="red" />
  <line x1="100.66666666666667" y1="158.20408509195698" x2="100.66666666666667" y2="164.34019832189165" stroke="black" stroke-width="1" />
  <rect x="92.86666666666666" y="160.10255106364946" width="15.6" height="3.9325366556487893" fill="red" />
  <line x1="118.0" y1="160.10255106364946" x2="118.0" y2="164.7639630477159" stroke="black" stroke-width="1" />
  <rect x="110.19999999999999" y="161.05178404949572" width="15.6" height="3.2206119162640903" fill="green" />
  <line x1="135.33333333333331" y1="154.30544961437408" x2="135.33333333333331" y2="160.0516992965505" stroke="black" stroke-width="1" />
  <rect x="127.53333333333332" y="155.6614967370116" width="15.6" height="4.3902025595389205" fill="green" />
  <line x1="152.66666666666666" y1="146.7793880837359" x2="152.66666666666666" y2="153.62742605305533" stroke="black" stroke-width="1" />
  <rect x="144.86666666666667" y="147.22010339859304" width="15.6" height="3.559623696923495" fill="green" />
  <line x1="169.99999999999997" y1="145.18603271463684" x2="169.99999999999997" y2="152.0001695058903" stroke="black" stroke-width="1" />
  <rect x="162.2" y="146.71158572760402" width="15.6" height="4.33935079244003" fill="red" />
  <line x1="187.33333333333331" y1="151.38994830070345" x2="187.33333333333331" y2="155.8649038054072" stroke="black" stroke-width="1" />
  <rect x="179.53333333333333" y="153.35621662852782" width="15.6" height="1.6272565471650182" fill="red" />
  <line x1="204.66666666666666" y1="147.28790575472493" x2="204.66666666666666" y2="155.5597932028138" stroke="black" stroke-width="1" />
  <rect x="196.86666666666667" y="149.52538350707687" width="15.6" height="3.152809560132198" fill="green" />
  <line x1="221.99999999999997" y1="149.89829646580216" x2="221.99999999999997" y2="155.76320027120943" stroke="black" stroke-width="1" />
  <rect x="214.2" y="150.16950589032967" width="15.6" height="3.898635477582843" fill="green" />
  <line x1="239.33333333333331" y1="156.44122383252818" x2="239.33333333333331" y2="163.39096533604538" stroke="black" stroke-width="1" />
  <rect x="231.53333333333333" y="157.2887532841766" width="15.6" height="1.2543435884396672" fill="red" />
  <line x1="256.6666666666667" y1="156.2378167641325" x2="256.6666666666667" y2="163.611322993474" stroke="black" stroke-width="1" />
  <rect x="248.86666666666667" y="159.1533180778032" width="15.6" height="4.169844902110356" fill="red" />
  <line x1="274.0" y1="159.18721925586914" x2="274.0" y2="166.67937960844142" stroke="black" stroke-width="1" />
  <rect x="266.2" y="159.89914399525384" width="15.6" height="6.441223832528124" fill="red" />
  <line x1="291.3333333333333" y1="162.91634884312225" x2="291.3333333333333" y2="171.21535723366384" stroke="black" stroke-width="1" />
  <rect x="283.5333333333333" y="164.91651834901262" width="15.6" height="3.2206119162640334" fill="red" />
  <line x1="308.6666666666667" y1="156.2378167641325" x2="308.6666666666667" y2="168.06932790914482" stroke="black" stroke-width="1" />
  <rect x="300.8666666666667" y="160.10255106364946" width="15.6" height="7.254852106110661" fill="green" />
  <line x1="326.0" y1="158.78040511907784" x2="326.0" y2="176.51072124756337" stroke="black" stroke-width="1" />
  <rect x="318.2" y="159.79744046105606" width="15.6" height="14.509704212221322" fill="red" />
  <line x1="343.3333333333333" y1="173.8664293584202" x2="343.3333333333333" y2="184.6470039833884" stroke="black" stroke-width="1" />
  <rect x="335.5333333333333" y="174.4596999745741" width="15.6" height="3.57657428595644" fill="red" />
  <line x1="360.6666666666667" y1="172.57818459191452" x2="360.6666666666667" y2="177.8976184422408" stroke="black" stroke-width="1" />
  <rect x="352.8666666666667" y="172.91719637257393" width="15.6" height="4.508856682769704" fill="green" />
  <line x1="378.0" y1="168.71345029239768" x2="378.0" y2="173.93423171455203" stroke="black" stroke-width="1" />
  <rect x="370.2" y="172.10356809899145" width="15.6" height="1.0848376981099932" fill="red" />
  <line x1="395.3333333333333" y1="166.62852784134247" x2="395.3333333333333" y2="171.3577421815408" stroke="black" stroke-width="1" />
  <rect x="387.5333333333333" y="167.89982201881514" width="15.6" height="2.2374777523518787" fill="green" />
  <line x1="412.6666666666667" y1="162.27222645986944" x2="412.6666666666667" y2="169.89999152470546" stroke="black" stroke-width="1" />
  <rect x="404.8666666666667" y="162.91634884312225" width="15.6" height="6.3056191202645095" fill="green" />
  <line x1="430.0" y1="158.0006780235613" x2="430.0" y2="164.17069243156197" stroke="black" stroke-width="1" />
  <rect x="422.2" y="161.5603017204848" width="15.6" height="1.593355369099072" fill="green" />
  <line x1="447.3333333333333" y1="151.4068988897364" x2="447.3333333333333" y2="159.49232985846254" stroke="black" stroke-width="1" />
  <rect x="439.5333333333333" y="156.2039155860666" width="15.6" height="1" fill="red" />
  <line x1="464.6666666666667" y1="158.40749216035255" x2="464.6666666666667" y2="162.67904059666074" stroke="black" stroke-width="1" />
  <rect x="456.8666666666667" y="158.57699805068228" width="15.6" height="1" fill="red" />
  <line x1="482.0" y1="150.66785320789893" x2="482.0" y2="159.7296381049241" stroke="black" stroke-width="1" />
  <rect x="474.2" y="152.1357742181541" width="15.6" height="6.881939147385367" fill="green" />
  <line x1="499.3333333333333" y1="149.42367997287909" x2="499.3333333333333" y2="153.9325366556488" stroke="black" stroke-width="1" />
  <rect x="491.5333333333333" y="150.50851767098902" width="15.6" height="2.678193067209122" fill="red" />
  <line x1="516.6666666666666" y1="153.18671073819814" x2="516.6666666666666" y2="163.39096533604538" stroke="black" stroke-width="1" />
  <rect x="508.8666666666666" y="155.10212729892362" width="15.6" height="5.814052038308375" fill="red" />
  <line x1="533.9999999999999" y1="165.2894313077379" x2="533.9999999999999" y2="173.22230697516738" stroke="black" stroke-width="1" />
  <rect x="526.1999999999999" y="167.59471141622168" width="15.6" height="5.6275955589457" fill="green" />
  <line x1="551.3333333333333" y1="156.44122383252818" x2="551.3333333333333" y2="166.0691584032545" stroke="black" stroke-width="1" />
  <rect x="543.5333333333333" y="157.3565556403085" width="15.6" height="6.983642681583149" fill="green" />

<line x1="40" y1="150" x2="600" y2="150" stroke="blue" stroke-width="2" />
<text x="605" y="150" font-size="10" fill="blue">Support</text>

<line x1="40" y1="170" x2="600" y2="170" stroke="red" stroke-width="2" />
<text x="605" y="170" font-size="10" fill="red">Resistance</text>

<line x1="40" y1="148" x2="600" y2="160" stroke="green" stroke-width="2" />
<text x="605" y="160" font-size="10" fill="green">Trendline</text>
</svg>