<svg width="800" height="300" xmlns="http://www.w3.org/2000/svg">
  <line x1="40" y1="250" x2="40" y2="50" stroke="black" stroke-width="2" />
  <line x1="35" y1="250.0" x2="40" y2="250.0" stroke="black" stroke-width="1" />
  <text x="10" y="255.0" font-size="10" fill="black">75</text>
  <line x1="40" y1="250.0" x2="780" y2="250.0" stroke="lightgray" stroke-width="1" stroke-dasharray="5,5" />
  <line x1="35" y1="210.0" x2="40" y2="210.0" stroke="black" stroke-width="1" />
  <text x="10" y="215.0" font-size="10" fill="black">85</text>
  <line x1="40" y1="210.0" x2="780" y2="210.0" stroke="lightgray" stroke-width="1" stroke-dasharray="5,5" />
  <line x1="35" y1="170.0" x2="40" y2="170.0" stroke="black" stroke-width="1" />
  <text x="10" y="175.0" font-size="10" fill="black">95</text>
  <line x1="40" y1="170.0" x2="780" y2="170.0" stroke="lightgray" stroke-width="1" stroke-dasharray="5,5" />
  <line x1="35" y1="130.0" x2="40" y2="130.0" stroke="black" stroke-width="1" />
  <text x="10" y="135.0" font-size="10" fill="black">105</text>
  <line x1="40" y1="130.0" x2="780" y2="130.0" stroke="lightgray" stroke-width="1" stroke-dasharray="5,5" />
  <line x1="35" y1="90.0" x2="40" y2="90.0" stroke="black" stroke-width="1" />
  <text x="10" y="95.0" font-size="10" fill="black">115</text>
  <line x1="40" y1="90.0" x2="780" y2="90.0" stroke="lightgray" stroke-width="1" stroke-dasharray="5,5" />
  <line x1="35" y1="50.0" x2="40" y2="50.0" stroke="black" stroke-width="1" />
  <text x="10" y="55.0" font-size="10" fill="black">125</text>
  <line x1="40" y1="50.0" x2="780" y2="50.0" stroke="lightgray" stroke-width="1" stroke-dasharray="5,5" />
  <line x1="58.27759197324415" y1="141.6347159288951" x2="58.27759197324415" y2="153.06727082607188" stroke="black" stroke-width="1" />
  <rect x="50.0" y="143.86545834785647" width="16.555183946488295" height="6.134541652143525" fill="green" />
  <line x1="76.67224080267559" y1="141.07703032415475" x2="76.67224080267559" y2="145.95677936563266" stroke="black" stroke-width="1" />
  <rect x="68.39464882943145" y="143.4471941443012" width="16.555183946488295" height="1" fill="green" />
  <line x1="95.06688963210702" y1="141.21645172533988" x2="95.06688963210702" y2="146.37504356918794" stroke="black" stroke-width="1" />
  <rect x="86.78929765886288" y="142.88950853956084" width="16.555183946488295" height="2.091321017776181" fill="red" />
  <line x1="113.46153846153845" y1="139.54339491111887" x2="113.46153846153845" y2="144.56256535378185" stroke="black" stroke-width="1" />
  <rect x="105.18394648829431" y="142.05298013245027" width="16.555183946488295" height="2.5095852213315766" fill="green" />
  <line x1="131.8561872909699" y1="137.73091669571284" x2="131.8561872909699" y2="141.21645172533988" stroke="black" stroke-width="1" />
  <rect x="123.57859531772576" y="139.54339491111887" width="16.555183946488295" height="1.6730568142210132" fill="green" />
  <line x1="150.25083612040135" y1="138.8462879051935" x2="150.25083612040135" y2="142.1924015336354" stroke="black" stroke-width="1" />
  <rect x="141.9732441471572" y="139.4039735099338" width="16.555183946488295" height="1" fill="green" />
  <line x1="168.64548494983276" y1="138.8462879051935" x2="168.64548494983276" y2="146.6538863715581" stroke="black" stroke-width="1" />
  <rect x="160.36789297658862" y="139.4039735099338" width="16.555183946488295" height="6.273963053328657" fill="red" />
  <line x1="187.0401337792642" y1="144.28372255141164" x2="187.0401337792642" y2="149.1634715928895" stroke="black" stroke-width="1" />
  <rect x="178.76254180602007" y="145.67793656326245" width="16.555183946488295" height="1.67305681422107" fill="red" />
  <line x1="205.43478260869566" y1="144.841408156152" x2="205.43478260869566" y2="154.18264203555248" stroke="black" stroke-width="1" />
  <rect x="197.1571906354515" y="145.67793656326245" width="16.555183946488295" height="5.019170442662926" fill="red" />
  <line x1="223.8294314381271" y1="141.6347159288951" x2="223.8294314381271" y2="148.6057859881492" stroke="black" stroke-width="1" />
  <rect x="215.55183946488296" y="146.7933077727431" width="16.555183946488295" height="1" fill="green" />
  <line x1="242.22408026755855" y1="144.0048797490415" x2="242.22408026755855" y2="150.41826420355522" stroke="black" stroke-width="1" />
  <rect x="233.9464882943144" y="144.70198675496687" width="16.555183946488295" height="2.3701638201465016" fill="green" />
  <line x1="260.61872909698997" y1="141.07703032415475" x2="260.61872909698997" y2="146.7933077727431" stroke="black" stroke-width="1" />
  <rect x="252.34113712374582" y="144.70198675496687" width="16.555183946488295" height="1" fill="red" />
  <line x1="279.0133779264214" y1="148.7452073893342" x2="279.0133779264214" y2="154.60090623910776" stroke="black" stroke-width="1" />
  <rect x="270.73578595317724" y="148.88462879051934" width="16.555183946488295" height="2.5095852213315197" fill="red" />
  <line x1="297.4080267558529" y1="147.07215057511337" x2="297.4080267558529" y2="155.29801324503313" stroke="black" stroke-width="1" />
  <rect x="289.13043478260875" y="151.53363541303594" width="16.555183946488295" height="3.7643778319971943" fill="red" />
  <line x1="315.8026755852843" y1="152.2307424189613" x2="315.8026755852843" y2="155.8556988497735" stroke="black" stroke-width="1" />
  <rect x="307.52508361204013" y="153.48553502962704" width="16.555183946488295" height="1.8124782154060881" fill="green" />
  <line x1="334.19732441471575" y1="152.50958522133146" x2="334.19732441471575" y2="155.8556988497735" stroke="black" stroke-width="1" />
  <rect x="325.9197324414716" y="153.48553502962704" width="16.555183946488295" height="1" fill="green" />
  <line x1="352.5919732441472" y1="145.81735796444758" x2="352.5919732441472" y2="155.01917044266298" stroke="black" stroke-width="1" />
  <rect x="344.314381270903" y="148.1875217845939" width="16.555183946488295" height="5.019170442662983" fill="green" />
  <line x1="370.98662207357864" y1="146.93272917392824" x2="370.98662207357864" y2="153.62495643081212" stroke="black" stroke-width="1" />
  <rect x="362.7090301003345" y="148.1875217845939" width="16.555183946488295" height="3.3461136284420263" fill="red" />
  <line x1="389.3812709030101" y1="148.32694318577904" x2="389.3812709030101" y2="158.92296967584525" stroke="black" stroke-width="1" />
  <rect x="381.1036789297659" y="150.41826420355522" width="16.555183946488295" height="6.134541652143639" fill="red" />
  <line x1="407.77591973244154" y1="154.18264203555248" x2="407.77591973244154" y2="158.22586266991982" stroke="black" stroke-width="1" />
  <rect x="399.49832775919737" y="155.15859184384806" width="16.555183946488295" height="1.5336354130358814" fill="red" />
  <line x1="426.170568561873" y1="155.71627744858836" x2="426.170568561873" y2="160.5960264900662" stroke="black" stroke-width="1" />
  <rect x="417.8929765886288" y="156.55280585569886" width="16.555183946488295" height="2.230742418961313" fill="red" />
  <line x1="444.5652173913044" y1="150.13942140118513" x2="444.5652173913044" y2="158.78354827466018" stroke="black" stroke-width="1" />
  <rect x="436.2876254180602" y="152.09132101777624" width="16.555183946488295" height="5.019170442662926" fill="green" />
  <line x1="462.9598662207358" y1="151.39421401185086" x2="462.9598662207358" y2="154.8797490414779" stroke="black" stroke-width="1" />
  <rect x="454.68227424749165" y="151.53363541303594" width="16.555183946488295" height="1" fill="green" />
  <line x1="481.35451505016727" y1="148.0481003834089" x2="481.35451505016727" y2="161.01429069362155" stroke="black" stroke-width="1" />
  <rect x="473.0769230769231" y="151.1153712094807" width="16.555183946488295" height="6.273963053328657" fill="red" />
  <line x1="499.7491638795987" y1="154.18264203555248" x2="499.7491638795987" y2="160.45660508888113" stroke="black" stroke-width="1" />
  <rect x="491.47157190635454" y="155.15859184384806" width="16.555183946488295" height="1.6730568142209563" fill="green" />
  <line x1="518.1438127090302" y1="150.8365284071105" x2="518.1438127090302" y2="155.01917044266298" stroke="black" stroke-width="1" />
  <rect x="509.866220735786" y="152.6490066225166" width="16.555183946488295" height="1.3942140118508064" fill="green" />
  <line x1="536.5384615384617" y1="145.25967235970717" x2="536.5384615384617" y2="154.32206343673755" stroke="black" stroke-width="1" />
  <rect x="528.2608695652175" y="146.2356221680028" width="16.555183946488295" height="5.019170442662926" fill="green" />
  <line x1="554.933110367893" y1="142.88950853956084" x2="554.933110367893" y2="147.90867898222376" stroke="black" stroke-width="1" />
  <rect x="546.6555183946489" y="142.88950853956084" width="16.555183946488295" height="5.019170442662926" fill="green" />
  <line x1="573.3277591973244" y1="131.5963750435692" x2="573.3277591973244" y2="142.1924015336354" stroke="black" stroke-width="1" />
  <rect x="565.0501672240803" y="137.17323109097254" width="16.555183946488295" height="2.9278494248867446" fill="green" />
  <line x1="591.7224080267559" y1="133.13001045660513" x2="591.7224080267559" y2="139.12513070756364" stroke="black" stroke-width="1" />
  <rect x="583.4448160535118" y="136.61554548623218" width="16.555183946488295" height="1.1153712094806565" fill="green" />
</svg>