<svg width="800" height="300" xmlns="http://www.w3.org/2000/svg">
  <line x1="40" y1="250" x2="40" y2="50" stroke="black" stroke-width="2" />
  <line x1="35" y1="250.0" x2="40" y2="250.0" stroke="black" stroke-width="1" />
  <text x="10" y="255.0" font-size="10" fill="black">75</text>
  <line x1="40" y1="250.0" x2="780" y2="250.0" stroke="lightgray" stroke-width="1" stroke-dasharray="5, 5" />
  <line x1="35" y1="210.0" x2="40" y2="210.0" stroke="black" stroke-width="1" />
  <text x="10" y="215.0" font-size="10" fill="black">85</text>
  <line x1="40" y1="210.0" x2="780" y2="210.0" stroke="lightgray" stroke-width="1" stroke-dasharray="5, 5" />
  <line x1="35" y1="170.0" x2="40" y2="170.0" stroke="black" stroke-width="1" />
  <text x="10" y="175.0" font-size="10" fill="black">95</text>
  <line x1="40" y1="170.0" x2="780" y2="170.0" stroke="lightgray" stroke-width="1" stroke-dasharray="5, 5" />
  <line x1="35" y1="130.0" x2="40" y2="130.0" stroke="black" stroke-width="1" />
  <text x="10" y="135.0" font-size="10" fill="black">105</text>
  <line x1="40" y1="130.0" x2="780" y2="130.0" stroke="lightgray" stroke-width="1" stroke-dasharray="5, 5" />
  <line x1="35" y1="90.0" x2="40" y2="90.0" stroke="black" stroke-width="1" />
  <text x="10" y="95.0" font-size="10" fill="black">115</text>
  <line x1="40" y1="90.0" x2="780" y2="90.0" stroke="lightgray" stroke-width="1" stroke-dasharray="5, 5" />
  <line x1="35" y1="50.0" x2="40" y2="50.0" stroke="black" stroke-width="1" />
  <text x="10" y="55.0" font-size="10" fill="black">125</text>
  <line x1="40" y1="50.0" x2="780" y2="50.0" stroke="lightgray" stroke-width="1" stroke-dasharray="5, 5" />
  <line x1="35" y1="150.0" x2="40" y2="150.0" stroke="black" stroke-width="1" />
  <text x="10" y="155.0" font-size="10" fill="black">100</text>
  <line x1="40" y1="150.0" x2="780" y2="150.0" stroke="lightgray" stroke-width="1" stroke-dasharray="5, 5" />
  <line x1="48.666666666666664" y1="141.6347159288951" x2="48.666666666666664" y2="153.06727082607188" stroke="black" stroke-width="1" />
  <rect x="40.86666666666667" y="143.86545834785647" width="15.6" height="6.134541652143525" fill="green" />
  <line x1="66.0" y1="141.07703032415475" x2="66.0" y2="145.95677936563266" stroke="black" stroke-width="1" />
  <rect x="58.199999999999996" y="143.4471941443012" width="15.6" height="1" fill="green" />
  <line x1="83.33333333333333" y1="141.21645172533988" x2="83.33333333333333" y2="146.37504356918794" stroke="black" stroke-width="1" />
  <rect x="75.53333333333332" y="142.88950853956084" width="15.6" height="2.091321017776181" fill="red" />
  <line x1="100.66666666666667" y1="139.54339491111887" x2="100.66666666666667" y2="144.56256535378185" stroke="black" stroke-width="1" />
  <rect x="92.86666666666666" y="142.05298013245027" width="15.6" height="2.5095852213315766" fill="green" />
  <line x1="118.0" y1="137.73091669571284" x2="118.0" y2="141.21645172533988" stroke="black" stroke-width="1" />
  <rect x="110.19999999999999" y="139.54339491111887" width="15.6" height="1.6730568142210132" fill="green" />
  <line x1="135.33333333333331" y1="138.8462879051935" x2="135.33333333333331" y2="142.1924015336354" stroke="black" stroke-width="1" />
  <rect x="127.53333333333332" y="139.4039735099338" width="15.6" height="1" fill="green" />
  <line x1="152.66666666666666" y1="138.8462879051935" x2="152.66666666666666" y2="146.6538863715581" stroke="black" stroke-width="1" />
  <rect x="144.86666666666667" y="139.4039735099338" width="15.6" height="6.273963053328657" fill="red" />
  <line x1="169.99999999999997" y1="144.28372255141164" x2="169.99999999999997" y2="149.1634715928895" stroke="black" stroke-width="1" />
  <rect x="162.2" y="145.67793656326245" width="15.6" height="1.67305681422107" fill="red" />
  <line x1="187.33333333333331" y1="144.841408156152" x2="187.33333333333331" y2="154.18264203555248" stroke="black" stroke-width="1" />
  <rect x="179.53333333333333" y="145.67793656326245" width="15.6" height="5.019170442662926" fill="red" />
  <line x1="204.66666666666666" y1="141.6347159288951" x2="204.66666666666666" y2="148.6057859881492" stroke="black" stroke-width="1" />
  <rect x="196.86666666666667" y="146.7933077727431" width="15.6" height="1" fill="green" />
  <line x1="221.99999999999997" y1="144.0048797490415" x2="221.99999999999997" y2="150.41826420355522" stroke="black" stroke-width="1" />
  <rect x="214.2" y="144.70198675496687" width="15.6" height="2.3701638201465016" fill="green" />
  <line x1="239.33333333333331" y1="141.07703032415475" x2="239.33333333333331" y2="146.7933077727431" stroke="black" stroke-width="1" />
  <rect x="231.53333333333333" y="144.70198675496687" width="15.6" height="1" fill="red" />
  <line x1="256.6666666666667" y1="148.7452073893342" x2="256.6666666666667" y2="154.60090623910776" stroke="black" stroke-width="1" />
  <rect x="248.86666666666667" y="148.88462879051934" width="15.6" height="2.5095852213315197" fill="red" />
  <line x1="274.0" y1="147.07215057511337" x2="274.0" y2="155.29801324503313" stroke="black" stroke-width="1" />
  <rect x="266.2" y="151.53363541303594" width="15.6" height="3.7643778319971943" fill="red" />
  <line x1="291.3333333333333" y1="152.2307424189613" x2="291.3333333333333" y2="155.8556988497735" stroke="black" stroke-width="1" />
  <rect x="283.5333333333333" y="153.48553502962704" width="15.6" height="1.8124782154060881" fill="green" />
  <line x1="308.6666666666667" y1="152.50958522133146" x2="308.6666666666667" y2="155.8556988497735" stroke="black" stroke-width="1" />
  <rect x="300.8666666666667" y="153.48553502962704" width="15.6" height="1" fill="green" />
  <line x1="326.0" y1="145.81735796444758" x2="326.0" y2="155.01917044266298" stroke="black" stroke-width="1" />
  <rect x="318.2" y="148.1875217845939" width="15.6" height="5.019170442662983" fill="green" />
  <line x1="343.3333333333333" y1="146.93272917392824" x2="343.3333333333333" y2="153.62495643081212" stroke="black" stroke-width="1" />
  <rect x="335.5333333333333" y="148.1875217845939" width="15.6" height="3.3461136284420263" fill="red" />
  <line x1="360.6666666666667" y1="148.32694318577904" x2="360.6666666666667" y2="158.92296967584525" stroke="black" stroke-width="1" />
  <rect x="352.8666666666667" y="150.41826420355522" width="15.6" height="6.134541652143639" fill="red" />
  <line x1="378.0" y1="154.18264203555248" x2="378.0" y2="158.22586266991982" stroke="black" stroke-width="1" />
  <rect x="370.2" y="155.15859184384806" width="15.6" height="1.5336354130358814" fill="red" />
  <line x1="395.3333333333333" y1="155.71627744858836" x2="395.3333333333333" y2="160.5960264900662" stroke="black" stroke-width="1" />
  <rect x="387.5333333333333" y="156.55280585569886" width="15.6" height="2.230742418961313" fill="red" />
  <line x1="412.6666666666667" y1="150.13942140118513" x2="412.6666666666667" y2="158.78354827466018" stroke="black" stroke-width="1" />
  <rect x="404.8666666666667" y="152.09132101777624" width="15.6" height="5.019170442662926" fill="green" />
  <line x1="430.0" y1="151.39421401185086" x2="430.0" y2="154.8797490414779" stroke="black" stroke-width="1" />
  <rect x="422.2" y="151.53363541303594" width="15.6" height="1" fill="green" />
  <line x1="447.3333333333333" y1="148.0481003834089" x2="447.3333333333333" y2="161.01429069362155" stroke="black" stroke-width="1" />
  <rect x="439.5333333333333" y="151.1153712094807" width="15.6" height="6.273963053328657" fill="red" />
  <line x1="464.6666666666667" y1="154.18264203555248" x2="464.6666666666667" y2="160.45660508888113" stroke="black" stroke-width="1" />
  <rect x="456.8666666666667" y="155.15859184384806" width="15.6" height="1.6730568142209563" fill="green" />
  <line x1="482.0" y1="150.8365284071105" x2="482.0" y2="155.01917044266298" stroke="black" stroke-width="1" />
  <rect x="474.2" y="152.6490066225166" width="15.6" height="1.3942140118508064" fill="green" />
  <line x1="499.3333333333333" y1="145.25967235970717" x2="499.3333333333333" y2="154.32206343673755" stroke="black" stroke-width="1" />
  <rect x="491.5333333333333" y="146.2356221680028" width="15.6" height="5.019170442662926" fill="green" />
  <line x1="516.6666666666666" y1="142.88950853956084" x2="516.6666666666666" y2="147.90867898222376" stroke="black" stroke-width="1" />
  <rect x="508.8666666666666" y="142.88950853956084" width="15.6" height="5.019170442662926" fill="green" />
  <line x1="533.9999999999999" y1="131.5963750435692" x2="533.9999999999999" y2="142.1924015336354" stroke="black" stroke-width="1" />
  <rect x="526.1999999999999" y="137.17323109097254" width="15.6" height="2.9278494248867446" fill="green" />
  <line x1="551.3333333333333" y1="133.13001045660513" x2="551.3333333333333" y2="139.12513070756364" stroke="black" stroke-width="1" />
  <rect x="543.5333333333333" y="136.61554548623218" width="15.6" height="1.1153712094806565" fill="green" />

<!-- Resistance Line -->
<line x1="40" y1="130" x2="600" y2="130" stroke="red" stroke-width="2" />
<text x="605" y="135" font-size="10" fill="red">Resistance</text>

<!-- Support Line -->
<line x1="40" y1="150" x2="600" y2="150" stroke="green" stroke-width="2" />
<text x="605" y="155" font-size="10" fill="green">Support</text>

<!-- Trendline -->
<line x1="40" y1="170" x2="600" y2="130" stroke="blue" stroke-width="2" />
<text x="605" y="125" font-size="10" fill="blue">Trendline</text>
</svg>