<svg width="800" height="300" xmlns="http://www.w3.org/2000/svg">
  <line x1="40" y1="250" x2="40" y2="50" stroke="black" stroke-width="2" />
  <line x1="35" y1="250.0" x2="40" y2="250.0" stroke="black" stroke-width="1" />
  <text x="10" y="255.0" font-size="10" fill="black">75</text>
  <line x1="40" y1="250.0" x2="780" y2="250.0" stroke="lightgray" stroke-width="1" stroke-dasharray="5,5" />
  <line x1="35" y1="210.0" x2="40" y2="210.0" stroke="black" stroke-width="1" />
  <text x="10" y="215.0" font-size="10" fill="black">85</text>
  <line x1="40" y1="210.0" x2="780" y2="210.0" stroke="lightgray" stroke-width="1" stroke-dasharray="5,5" />
  <line x1="35" y1="170.0" x2="40" y2="170.0" stroke="black" stroke-width="1" />
  <text x="10" y="175.0" font-size="10" fill="black">95</text>
  <line x1="40" y1="170.0" x2="780" y2="170.0" stroke="lightgray" stroke-width="1" stroke-dasharray="5,5" />
  <line x1="35" y1="130.0" x2="40" y2="130.0" stroke="black" stroke-width="1" />
  <text x="10" y="135.0" font-size="10" fill="black">105</text>
  <line x1="40" y1="130.0" x2="780" y2="130.0" stroke="lightgray" stroke-width="1" stroke-dasharray="5,5" />
  <line x1="35" y1="90.0" x2="40" y2="90.0" stroke="black" stroke-width="1" />
  <text x="10" y="95.0" font-size="10" fill="black">115</text>
  <line x1="40" y1="90.0" x2="780" y2="90.0" stroke="lightgray" stroke-width="1" stroke-dasharray="5,5" />
  <line x1="35" y1="50.0" x2="40" y2="50.0" stroke="black" stroke-width="1" />
  <text x="10" y="55.0" font-size="10" fill="black">125</text>
  <line x1="40" y1="50.0" x2="780" y2="50.0" stroke="lightgray" stroke-width="1" stroke-dasharray="5,5" />
  <line x1="58.27759197324415" y1="144.27312775330392" x2="58.27759197324415" y2="151.3215859030837" stroke="black" stroke-width="1" />
  <rect x="50.0" y="145.37444933920705" width="16.555183946488295" height="4.625550660792953" fill="green" />
  <line x1="76.67224080267559" y1="142.29074889867837" x2="76.67224080267559" y2="149.3392070484581" stroke="black" stroke-width="1" />
  <rect x="68.39464882943145" y="144.93392070484578" width="16.555183946488295" height="3.303964757709366" fill="red" />
  <line x1="95.06688963210702" y1="146.4757709251101" x2="95.06688963210702" y2="150.66079295154185" stroke="black" stroke-width="1" />
  <rect x="86.78929765886288" y="148.01762114537445" width="16.555183946488295" height="2.422907488986766" fill="green" />
  <line x1="113.46153846153845" y1="150.0" x2="113.46153846153845" y2="151.98237885462555" stroke="black" stroke-width="1" />
  <rect x="105.18394648829431" y="150.22026431718064" width="16.555183946488295" height="1" fill="red" />
  <line x1="131.8561872909699" y1="144.49339207048456" x2="131.8561872909699" y2="151.98237885462555" stroke="black" stroke-width="1" />
  <rect x="123.57859531772576" y="146.91629955947133" width="16.555183946488295" height="3.0837004405286734" fill="green" />
  <line x1="150.25083612040135" y1="146.91629955947133" x2="150.25083612040135" y2="150.88105726872243" stroke="black" stroke-width="1" />
  <rect x="141.9732441471572" y="146.91629955947133" width="16.555183946488295" height="1" fill="red" />
  <line x1="168.64548494983276" y1="145.81497797356826" x2="168.64548494983276" y2="149.77973568281936" stroke="black" stroke-width="1" />
  <rect x="160.36789297658862" y="147.7973568281938" width="16.555183946488295" height="1.3215859030837578" fill="red" />
  <line x1="187.0401337792642" y1="147.7973568281938" x2="187.0401337792642" y2="151.10132158590307" stroke="black" stroke-width="1" />
  <rect x="178.76254180602007" y="149.11894273127757" width="16.555183946488295" height="1.5418502202642799" fill="red" />
  <line x1="205.43478260869566" y1="146.0352422907489" x2="205.43478260869566" y2="150.66079295154185" stroke="black" stroke-width="1" />
  <rect x="197.1571906354515" y="146.91629955947133" width="16.555183946488295" height="3.744493392070524" fill="green" />
  <line x1="223.8294314381271" y1="141.18942731277536" x2="223.8294314381271" y2="147.57709251101323" stroke="black" stroke-width="1" />
  <rect x="215.55183946488296" y="141.85022026431716" width="16.555183946488295" height="5.066079295154168" fill="green" />
  <line x1="242.22408026755855" y1="141.40969162995594" x2="242.22408026755855" y2="145.37444933920705" stroke="black" stroke-width="1" />
  <rect x="233.9464882943144" y="142.0704845814978" width="16.555183946488295" height="1.5418502202643367" fill="red" />
  <line x1="260.61872909698997" y1="142.95154185022028" x2="260.61872909698997" y2="159.91189427312776" stroke="black" stroke-width="1" />
  <rect x="252.34113712374582" y="144.27312775330392" width="16.555183946488295" height="11.013215859030822" fill="red" />
  <line x1="279.0133779264214" y1="157.2687224669604" x2="279.0133779264214" y2="160.7929515418502" stroke="black" stroke-width="1" />
  <rect x="270.73578595317724" y="159.03083700440533" width="16.555183946488295" height="1" fill="green" />
  <line x1="297.4080267558529" y1="158.5903083700441" x2="297.4080267558529" y2="162.33480176211452" stroke="black" stroke-width="1" />
  <rect x="289.13043478260875" y="159.25110132158596" width="16.555183946488295" height="2.643171806167345" fill="red" />
  <line x1="315.8026755852843" y1="160.5726872246696" x2="315.8026755852843" y2="165.41850220264314" stroke="black" stroke-width="1" />
  <rect x="307.52508361204013" y="161.8942731277533" width="16.555183946488295" height="2.202643171806187" fill="red" />
  <line x1="334.19732441471575" y1="162.7753303964758" x2="334.19732441471575" y2="166.51982378854626" stroke="black" stroke-width="1" />
  <rect x="325.9197324414716" y="164.75770925110135" width="16.555183946488295" height="1" fill="red" />
  <line x1="352.5919732441472" y1="162.99559471365637" x2="352.5919732441472" y2="167.1806167400881" stroke="black" stroke-width="1" />
  <rect x="344.314381270903" y="164.97797356828193" width="16.555183946488295" height="1.7621145374449725" fill="red" />
  <line x1="370.98662207357864" y1="164.75770925110135" x2="370.98662207357864" y2="175.5506607929516" stroke="black" stroke-width="1" />
  <rect x="362.7090301003345" y="166.29955947136563" width="16.555183946488295" height="9.251101321585963" fill="red" />
  <line x1="389.3812709030101" y1="169.16299559471366" x2="389.3812709030101" y2="175.3303964757709" stroke="black" stroke-width="1" />
  <rect x="381.1036789297659" y="171.806167400881" width="16.555183946488295" height="1" fill="green" />
  <line x1="407.77591973244154" y1="166.7400881057269" x2="407.77591973244154" y2="170.704845814978" stroke="black" stroke-width="1" />
  <rect x="399.49832775919737" y="166.96035242290748" width="16.555183946488295" height="3.744493392070524" fill="green" />
  <line x1="426.170568561873" y1="166.96035242290748" x2="426.170568561873" y2="171.58590308370043" stroke="black" stroke-width="1" />
  <rect x="417.8929765886288" y="166.96035242290748" width="16.555183946488295" height="3.744493392070524" fill="red" />
  <line x1="444.5652173913044" y1="166.96035242290748" x2="444.5652173913044" y2="172.46696035242286" stroke="black" stroke-width="1" />
  <rect x="436.2876254180602" y="169.82378854625546" width="16.555183946488295" height="1.101321585903122" fill="green" />
  <line x1="462.9598662207358" y1="165.63876651982378" x2="462.9598662207358" y2="172.24669603524234" stroke="black" stroke-width="1" />
  <rect x="454.68227424749165" y="166.29955947136563" width="16.555183946488295" height="3.3039647577092524" fill="green" />
  <line x1="481.35451505016727" y1="156.6079295154185" x2="481.35451505016727" y2="163.87665198237886" stroke="black" stroke-width="1" />
  <rect x="473.0769230769231" y="158.5903083700441" width="16.555183946488295" height="4.6255506607928965" fill="green" />
  <line x1="499.7491638795987" y1="154.84581497797353" x2="499.7491638795987" y2="166.96035242290748" stroke="black" stroke-width="1" />
  <rect x="491.47157190635454" y="154.84581497797353" width="16.555183946488295" height="10.792951541850243" fill="red" />
  <line x1="518.1438127090302" y1="164.97797356828193" x2="518.1438127090302" y2="172.24669603524234" stroke="black" stroke-width="1" />
  <rect x="509.866220735786" y="165.63876651982378" width="16.555183946488295" height="5.066079295154225" fill="red" />
  <line x1="536.5384615384617" y1="164.0969162995595" x2="536.5384615384617" y2="169.38325991189424" stroke="black" stroke-width="1" />
  <rect x="528.2608695652175" y="164.0969162995595" width="16.555183946488295" height="3.0837004405286166" fill="green" />
  <line x1="554.933110367893" y1="155.9471365638766" x2="554.933110367893" y2="166.07929515418505" stroke="black" stroke-width="1" />
  <rect x="546.6555183946489" y="156.82819383259908" width="16.555183946488295" height="5.947136563876711" fill="red" />
  <line x1="573.3277591973244" y1="150.22026431718064" x2="573.3277591973244" y2="162.33480176211452" stroke="black" stroke-width="1" />
  <rect x="565.0501672240803" y="152.2026431718062" width="16.555183946488295" height="10.132158590308336" fill="green" />
  <line x1="591.7224080267559" y1="150.22026431718064" x2="591.7224080267559" y2="157.92951541850215" stroke="black" stroke-width="1" />
  <rect x="583.4448160535118" y="152.6431718061674" width="16.555183946488295" height="4.185022026431682" fill="red" />
</svg>