<svg width="800" height="300" xmlns="http://www.w3.org/2000/svg">
  <line x1="40" y1="250" x2="40" y2="50" stroke="black" stroke-width="2" />
  <line x1="35" y1="250.0" x2="40" y2="250.0" stroke="black" stroke-width="1" />
  <text x="10" y="255.0" font-size="10" fill="black">75</text>
  <line x1="40" y1="250.0" x2="780" y2="250.0" stroke="lightgray" stroke-width="1" stroke-dasharray="5,5" />
  <line x1="35" y1="210.0" x2="40" y2="210.0" stroke="black" stroke-width="1" />
  <text x="10" y="215.0" font-size="10" fill="black">85</text>
  <line x1="40" y1="210.0" x2="780" y2="210.0" stroke="lightgray" stroke-width="1" stroke-dasharray="5,5" />
  <line x1="35" y1="170.0" x2="40" y2="170.0" stroke="black" stroke-width="1" />
  <text x="10" y="175.0" font-size="10" fill="black">95</text>
  <line x1="40" y1="170.0" x2="780" y2="170.0" stroke="lightgray" stroke-width="1" stroke-dasharray="5,5" />
  <line x1="35" y1="130.0" x2="40" y2="130.0" stroke="black" stroke-width="1" />
  <text x="10" y="135.0" font-size="10" fill="black">105</text>
  <line x1="40" y1="130.0" x2="780" y2="130.0" stroke="lightgray" stroke-width="1" stroke-dasharray="5,5" />
  <line x1="35" y1="90.0" x2="40" y2="90.0" stroke="black" stroke-width="1" />
  <text x="10" y="95.0" font-size="10" fill="black">115</text>
  <line x1="40" y1="90.0" x2="780" y2="90.0" stroke="lightgray" stroke-width="1" stroke-dasharray="5,5" />
  <line x1="35" y1="50.0" x2="40" y2="50.0" stroke="black" stroke-width="1" />
  <text x="10" y="55.0" font-size="10" fill="black">125</text>
  <line x1="40" y1="50.0" x2="780" y2="50.0" stroke="lightgray" stroke-width="1" stroke-dasharray="5,5" />
  <line x1="58.27759197324415" y1="147.98919190649735" x2="58.27759197324415" y2="152.41296971220305" stroke="black" stroke-width="1" />
  <rect x="50.0" y="149.37162247078044" width="16.555183946488295" height="1" fill="green" />
  <line x1="76.67224080267559" y1="147.0968958150056" x2="76.67224080267559" y2="150.02513510116876" stroke="black" stroke-width="1" />
  <rect x="68.39464882943145" y="148.76838004272963" width="16.555183946488295" height="1" fill="green" />
  <line x1="95.06688963210702" y1="145.50081689078792" x2="95.06688963210702" y2="148.66783963805455" stroke="black" stroke-width="1" />
  <rect x="86.78929765886288" y="147.43621968078423" width="16.555183946488295" height="1" fill="green" />
  <line x1="113.46153846153845" y1="144.11838632650495" x2="113.46153846153845" y2="147.05919316325247" stroke="black" stroke-width="1" />
  <rect x="105.18394648829431" y="144.2440618323488" width="16.555183946488295" height="2.5889154203846374" fill="green" />
  <line x1="131.8561872909699" y1="141.57974110845794" x2="131.8561872909699" y2="145.85270830715092" stroke="black" stroke-width="1" />
  <rect x="123.57859531772576" y="141.93163252482088" width="16.555183946488295" height="1" fill="green" />
  <line x1="150.25083612040135" y1="137.23136860625863" x2="150.25083612040135" y2="143.57798165137615" stroke="black" stroke-width="1" />
  <rect x="141.9732441471572" y="137.45758451677767" width="16.555183946488295" height="4.0970214905115085" fill="green" />
  <line x1="168.64548494983276" y1="133.48623853211006" x2="168.64548494983276" y2="138.94055548573584" stroke="black" stroke-width="1" />
  <rect x="160.36789297658862" y="136.25109966067612" width="16.555183946488295" height="1.105944451426467" fill="green" />
  <line x1="187.0401337792642" y1="137.6963679778811" x2="187.0401337792642" y2="142.40919944702773" stroke="black" stroke-width="1" />
  <rect x="178.76254180602007" y="139.04109589041093" width="16.555183946488295" height="1.3824305642830268" fill="red" />
  <line x1="205.43478260869566" y1="135.27083071509355" x2="205.43478260869566" y2="141.0267688827447" stroke="black" stroke-width="1" />
  <rect x="197.1571906354515" y="137.98542164132203" width="16.555183946488295" height="2.3124293075280207" fill="green" />
  <line x1="223.8294314381271" y1="135.9746135478195" x2="223.8294314381271" y2="139.39298730677382" stroke="black" stroke-width="1" />
  <rect x="215.55183946488296" y="136.20082945833855" width="16.555183946488295" height="1.0054040467513232" fill="red" />
  <line x1="242.22408026755855" y1="132.80759080055293" x2="242.22408026755855" y2="138.26190775417865" stroke="black" stroke-width="1" />
  <rect x="233.9464882943144" y="133.1092120145783" width="16.555183946488295" height="4.373507603368125" fill="green" />
  <line x1="260.61872909698997" y1="128.20786728666576" x2="260.61872909698997" y2="135.8489380419756" stroke="black" stroke-width="1" />
  <rect x="252.34113712374582" y="129.84164886263665" width="16.555183946488295" height="4.825939424406101" fill="green" />
  <line x1="279.0133779264214" y1="125.59381676511248" x2="279.0133779264214" y2="132.65678019354021" stroke="black" stroke-width="1" />
  <rect x="270.73578595317724" y="128.20786728666576" width="16.555183946488295" height="1.1310795525951676" fill="red" />
  <line x1="297.4080267558529" y1="129.31381173809217" x2="297.4080267558529" y2="135.69812743496288" stroke="black" stroke-width="1" />
  <rect x="289.13043478260875" y="129.74110845796156" width="16.555183946488295" height="5.554857358300751" fill="red" />
  <line x1="315.8026755852843" y1="132.90838255623976" x2="315.8026755852843" y2="137.48271961794643" stroke="black" stroke-width="1" />
  <rect x="307.52508361204013" y="134.81839889405546" width="16.555183946488295" height="2.0108080935026464" fill="red" />
  <line x1="334.19732441471575" y1="129.22583888400146" x2="334.19732441471575" y2="136.60299107703906" stroke="black" stroke-width="1" />
  <rect x="325.9197324414716" y="131.22407942691962" width="16.555183946488295" height="4.448912906874455" fill="green" />
  <line x1="352.5919732441472" y1="126.57408571069493" x2="352.5919732441472" y2="130.8847555611411" stroke="black" stroke-width="1" />
  <rect x="344.314381270903" y="128.98705542289804" width="16.555183946488295" height="1" fill="red" />
  <line x1="370.98662207357864" y1="130.77164760588158" x2="370.98662207357864" y2="137.55812492145276" stroke="black" stroke-width="1" />
  <rect x="362.7090301003345" y="130.77164760588158" width="16.555183946488295" height="4.951614930250116" fill="red" />
  <line x1="389.3812709030101" y1="135.01947970340575" x2="389.3812709030101" y2="141.02651753173302" stroke="black" stroke-width="1" />
  <rect x="381.1036789297659" y="136.1756943571698" width="16.555183946488295" height="1.10594445142641" fill="green" />
  <line x1="407.77591973244154" y1="133.38569812743498" x2="407.77591973244154" y2="138.23677265300995" stroke="black" stroke-width="1" />
  <rect x="399.49832775919737" y="133.9638054543169" width="16.555183946488295" height="1.960537891164961" fill="green" />
  <line x1="426.170568561873" y1="129.6154329521176" x2="426.170568561873" y2="133.3102928239286" stroke="black" stroke-width="1" />
  <rect x="417.8929765886288" y="130.26894558250592" width="16.555183946488295" height="1.5835113736332573" fill="green" />
  <line x1="444.5652173913044" y1="128.4340831971848" x2="444.5652173913044" y2="132.93326630639683" stroke="black" stroke-width="1" />
  <rect x="436.2876254180602" y="130.0678647731557" width="16.555183946488295" height="2.086213397008862" fill="green" />
  <line x1="462.9598662207358" y1="126.85057182355155" x2="462.9598662207358" y2="133.41083322860368" stroke="black" stroke-width="1" />
  <rect x="454.68227424749165" y="131.1738092245821" width="16.555183946488295" height="1.2064848561015538" fill="red" />
  <line x1="481.35451505016727" y1="131.82732185497042" x2="481.35451505016727" y2="136.72866658288302" stroke="black" stroke-width="1" />
  <rect x="473.0769230769231" y="132.17921327133342" width="16.555183946488295" height="3.544049264798275" fill="red" />
  <line x1="499.7491638795987" y1="135.59758703028774" x2="499.7491638795987" y2="138.91542038456697" stroke="black" stroke-width="1" />
  <rect x="491.47157190635454" y="137.03028779690828" width="16.555183946488295" height="1" fill="red" />
  <line x1="518.1438127090302" y1="136.52758577353268" x2="518.1438127090302" y2="141.0016337815759" stroke="black" stroke-width="1" />
  <rect x="509.866220735786" y="136.77893678522048" width="16.555183946488295" height="2.965941937916284" fill="red" />
  <line x1="536.5384615384617" y1="139.0662309915797" x2="536.5384615384617" y2="143.94244061832342" stroke="black" stroke-width="1" />
  <rect x="528.2608695652175" y="140.82568807339453" width="16.555183946488295" height="1" fill="red" />
  <line x1="554.933110367893" y1="139.50609526203334" x2="554.933110367893" y2="146.93351765740852" stroke="black" stroke-width="1" />
  <rect x="546.6555183946489" y="140.29785094885005" width="16.555183946488295" height="6.032424280507769" fill="red" />
  <line x1="573.3277591973244" y1="143.96757571949223" x2="573.3277591973244" y2="147.78811109714712" stroke="black" stroke-width="1" />
  <rect x="565.0501672240803" y="144.344602237024" width="16.555183946488295" height="2.890536634409898" fill="green" />
  <line x1="591.7224080267559" y1="139.2170415985924" x2="591.7224080267559" y2="144.4702777428679" stroke="black" stroke-width="1" />
  <rect x="583.4448160535118" y="142.81136106572825" width="16.555183946488295" height="1.508106070126928" fill="red" />
</svg>