<svg width="800" height="300" xmlns="http://www.w3.org/2000/svg">
  <line x1="40" y1="250" x2="40" y2="50" stroke="black" stroke-width="2" />
  <line x1="35" y1="250.0" x2="40" y2="250.0" stroke="black" stroke-width="1" />
  <text x="10" y="255.0" font-size="10" fill="black">75</text>
  <line x1="40" y1="250.0" x2="780" y2="250.0" stroke="lightgray" stroke-width="1" stroke-dasharray="5, 5" />
  <line x1="35" y1="210.0" x2="40" y2="210.0" stroke="black" stroke-width="1" />
  <text x="10" y="215.0" font-size="10" fill="black">85</text>
  <line x1="40" y1="210.0" x2="780" y2="210.0" stroke="lightgray" stroke-width="1" stroke-dasharray="5, 5" />
  <line x1="35" y1="170.0" x2="40" y2="170.0" stroke="black" stroke-width="1" />
  <text x="10" y="175.0" font-size="10" fill="black">95</text>
  <line x1="40" y1="170.0" x2="780" y2="170.0" stroke="lightgray" stroke-width="1" stroke-dasharray="5, 5" />
  <line x1="35" y1="130.0" x2="40" y2="130.0" stroke="black" stroke-width="1" />
  <text x="10" y="135.0" font-size="10" fill="black">105</text>
  <line x1="40" y1="130.0" x2="780" y2="130.0" stroke="lightgray" stroke-width="1" stroke-dasharray="5, 5" />
  <line x1="35" y1="90.0" x2="40" y2="90.0" stroke="black" stroke-width="1" />
  <text x="10" y="95.0" font-size="10" fill="black">115</text>
  <line x1="40" y1="90.0" x2="780" y2="90.0" stroke="lightgray" stroke-width="1" stroke-dasharray="5, 5" />
  <line x1="35" y1="50.0" x2="40" y2="50.0" stroke="black" stroke-width="1" />
  <text x="10" y="55.0" font-size="10" fill="black">125</text>
  <line x1="40" y1="50.0" x2="780" y2="50.0" stroke="lightgray" stroke-width="1" stroke-dasharray="5, 5" />
  <line x1="35" y1="150.0" x2="40" y2="150.0" stroke="black" stroke-width="1" />
  <text x="10" y="155.0" font-size="10" fill="black">100</text>
  <line x1="40" y1="150.0" x2="780" y2="150.0" stroke="lightgray" stroke-width="1" stroke-dasharray="5, 5" />
  <line x1="48.666666666666664" y1="147.98919190649735" x2="48.666666666666664" y2="152.41296971220305" stroke="black" stroke-width="1" />
  <rect x="40.86666666666667" y="149.37162247078044" width="15.6" height="1" fill="green" />
  <line x1="66.0" y1="147.0968958150056" x2="66.0" y2="150.02513510116876" stroke="black" stroke-width="1" />
  <rect x="58.199999999999996" y="148.76838004272963" width="15.6" height="1" fill="green" />
  <line x1="83.33333333333333" y1="145.50081689078792" x2="83.33333333333333" y2="148.66783963805455" stroke="black" stroke-width="1" />
  <rect x="75.53333333333332" y="147.43621968078423" width="15.6" height="1" fill="green" />
  <line x1="100.66666666666667" y1="144.11838632650495" x2="100.66666666666667" y2="147.05919316325247" stroke="black" stroke-width="1" />
  <rect x="92.86666666666666" y="144.2440618323488" width="15.6" height="2.5889154203846374" fill="green" />
  <line x1="118.0" y1="141.57974110845794" x2="118.0" y2="145.85270830715092" stroke="black" stroke-width="1" />
  <rect x="110.19999999999999" y="141.93163252482088" width="15.6" height="1" fill="green" />
  <line x1="135.33333333333331" y1="137.23136860625863" x2="135.33333333333331" y2="143.57798165137615" stroke="black" stroke-width="1" />
  <rect x="127.53333333333332" y="137.45758451677767" width="15.6" height="4.0970214905115085" fill="green" />
  <line x1="152.66666666666666" y1="133.48623853211006" x2="152.66666666666666" y2="138.94055548573584" stroke="black" stroke-width="1" />
  <rect x="144.86666666666667" y="136.25109966067612" width="15.6" height="1.105944451426467" fill="green" />
  <line x1="169.99999999999997" y1="137.6963679778811" x2="169.99999999999997" y2="142.40919944702773" stroke="black" stroke-width="1" />
  <rect x="162.2" y="139.04109589041093" width="15.6" height="1.3824305642830268" fill="red" />
  <line x1="187.33333333333331" y1="135.27083071509355" x2="187.33333333333331" y2="141.0267688827447" stroke="black" stroke-width="1" />
  <rect x="179.53333333333333" y="137.98542164132203" width="15.6" height="2.3124293075280207" fill="green" />
  <line x1="204.66666666666666" y1="135.9746135478195" x2="204.66666666666666" y2="139.39298730677382" stroke="black" stroke-width="1" />
  <rect x="196.86666666666667" y="136.20082945833855" width="15.6" height="1.0054040467513232" fill="red" />
  <line x1="221.99999999999997" y1="132.80759080055293" x2="221.99999999999997" y2="138.26190775417865" stroke="black" stroke-width="1" />
  <rect x="214.2" y="133.1092120145783" width="15.6" height="4.373507603368125" fill="green" />
  <line x1="239.33333333333331" y1="128.20786728666576" x2="239.33333333333331" y2="135.8489380419756" stroke="black" stroke-width="1" />
  <rect x="231.53333333333333" y="129.84164886263665" width="15.6" height="4.825939424406101" fill="green" />
  <line x1="256.6666666666667" y1="125.59381676511248" x2="256.6666666666667" y2="132.65678019354021" stroke="black" stroke-width="1" />
  <rect x="248.86666666666667" y="128.20786728666576" width="15.6" height="1.1310795525951676" fill="red" />
  <line x1="274.0" y1="129.31381173809217" x2="274.0" y2="135.69812743496288" stroke="black" stroke-width="1" />
  <rect x="266.2" y="129.74110845796156" width="15.6" height="5.554857358300751" fill="red" />
  <line x1="291.3333333333333" y1="132.90838255623976" x2="291.3333333333333" y2="137.48271961794643" stroke="black" stroke-width="1" />
  <rect x="283.5333333333333" y="134.81839889405546" width="15.6" height="2.0108080935026464" fill="red" />
  <line x1="308.6666666666667" y1="129.22583888400146" x2="308.6666666666667" y2="136.60299107703906" stroke="black" stroke-width="1" />
  <rect x="300.8666666666667" y="131.22407942691962" width="15.6" height="4.448912906874455" fill="green" />
  <line x1="326.0" y1="126.57408571069493" x2="326.0" y2="130.8847555611411" stroke="black" stroke-width="1" />
  <rect x="318.2" y="128.98705542289804" width="15.6" height="1" fill="red" />
  <line x1="343.3333333333333" y1="130.77164760588158" x2="343.3333333333333" y2="137.55812492145276" stroke="black" stroke-width="1" />
  <rect x="335.5333333333333" y="130.77164760588158" width="15.6" height="4.951614930250116" fill="red" />
  <line x1="360.6666666666667" y1="135.01947970340575" x2="360.6666666666667" y2="141.02651753173302" stroke="black" stroke-width="1" />
  <rect x="352.8666666666667" y="136.1756943571698" width="15.6" height="1.10594445142641" fill="green" />
  <line x1="378.0" y1="133.38569812743498" x2="378.0" y2="138.23677265300995" stroke="black" stroke-width="1" />
  <rect x="370.2" y="133.9638054543169" width="15.6" height="1.960537891164961" fill="green" />
  <line x1="395.3333333333333" y1="129.6154329521176" x2="395.3333333333333" y2="133.3102928239286" stroke="black" stroke-width="1" />
  <rect x="387.5333333333333" y="130.26894558250592" width="15.6" height="1.5835113736332573" fill="green" />
  <line x1="412.6666666666667" y1="128.4340831971848" x2="412.6666666666667" y2="132.93326630639683" stroke="black" stroke-width="1" />
  <rect x="404.8666666666667" y="130.0678647731557" width="15.6" height="2.086213397008862" fill="green" />
  <line x1="430.0" y1="126.85057182355155" x2="430.0" y2="133.41083322860368" stroke="black" stroke-width="1" />
  <rect x="422.2" y="131.1738092245821" width="15.6" height="1.2064848561015538" fill="red" />
  <line x1="447.3333333333333" y1="131.82732185497042" x2="447.3333333333333" y2="136.72866658288302" stroke="black" stroke-width="1" />
  <rect x="439.5333333333333" y="132.17921327133342" width="15.6" height="3.544049264798275" fill="red" />
  <line x1="464.6666666666667" y1="135.59758703028774" x2="464.6666666666667" y2="138.91542038456697" stroke="black" stroke-width="1" />
  <rect x="456.8666666666667" y="137.03028779690828" width="15.6" height="1" fill="red" />
  <line x1="482.0" y1="136.52758577353268" x2="482.0" y2="141.0016337815759" stroke="black" stroke-width="1" />
  <rect x="474.2" y="136.77893678522048" width="15.6" height="2.965941937916284" fill="red" />
  <line x1="499.3333333333333" y1="139.0662309915797" x2="499.3333333333333" y2="143.94244061832342" stroke="black" stroke-width="1" />
  <rect x="491.5333333333333" y="140.82568807339453" width="15.6" height="1" fill="red" />
  <line x1="516.6666666666666" y1="139.50609526203334" x2="516.6666666666666" y2="146.93351765740852" stroke="black" stroke-width="1" />
  <rect x="508.8666666666666" y="140.29785094885005" width="15.6" height="6.032424280507769" fill="red" />
  <line x1="533.9999999999999" y1="143.96757571949223" x2="533.9999999999999" y2="147.78811109714712" stroke="black" stroke-width="1" />
  <rect x="526.1999999999999" y="144.344602237024" width="15.6" height="2.890536634409898" fill="green" />
  <line x1="551.3333333333333" y1="139.2170415985924" x2="551.3333333333333" y2="144.4702777428679" stroke="black" stroke-width="1" />
  <rect x="543.5333333333333" y="142.81136106572825" width="15.6" height="1.508106070126928" fill="red" />

<!-- Resistance Line -->
<line x1="40" y1="130" x2="600" y2="130" stroke="blue" stroke-width="2" />
<text x="605" y="130" font-size="10" fill="blue">Resistance</text>

<!-- Support Line -->
<line x1="40" y1="150" x2="600" y2="150" stroke="green" stroke-width="2" />
<text x="605" y="150" font-size="10" fill="green">Support</text>

<!-- Trendline -->
<line x1="40" y1="250" x2="600" y2="130" stroke="purple" stroke-width="2" />
<text x="605" y="130" font-size="10" fill="purple">Trendline</text>
</svg>