<svg width="800" height="300" xmlns="http://www.w3.org/2000/svg">
  <line x1="40" y1="250" x2="40" y2="50" stroke="black" stroke-width="2" />
  <line x1="35" y1="250.0" x2="40" y2="250.0" stroke="black" stroke-width="1" />
  <text x="10" y="255.0" font-size="10" fill="black">75</text>
  <line x1="40" y1="250.0" x2="780" y2="250.0" stroke="lightgray" stroke-width="1" stroke-dasharray="5, 5" />
  <line x1="35" y1="210.0" x2="40" y2="210.0" stroke="black" stroke-width="1" />
  <text x="10" y="215.0" font-size="10" fill="black">85</text>
  <line x1="40" y1="210.0" x2="780" y2="210.0" stroke="lightgray" stroke-width="1" stroke-dasharray="5, 5" />
  <line x1="35" y1="170.0" x2="40" y2="170.0" stroke="black" stroke-width="1" />
  <text x="10" y="175.0" font-size="10" fill="black">95</text>
  <line x1="40" y1="170.0" x2="780" y2="170.0" stroke="lightgray" stroke-width="1" stroke-dasharray="5, 5" />
  <line x1="35" y1="130.0" x2="40" y2="130.0" stroke="black" stroke-width="1" />
  <text x="10" y="135.0" font-size="10" fill="black">105</text>
  <line x1="40" y1="130.0" x2="780" y2="130.0" stroke="lightgray" stroke-width="1" stroke-dasharray="5, 5" />
  <line x1="35" y1="90.0" x2="40" y2="90.0" stroke="black" stroke-width="1" />
  <text x="10" y="95.0" font-size="10" fill="black">115</text>
  <line x1="40" y1="90.0" x2="780" y2="90.0" stroke="lightgray" stroke-width="1" stroke-dasharray="5, 5" />
  <line x1="35" y1="50.0" x2="40" y2="50.0" stroke="black" stroke-width="1" />
  <text x="10" y="55.0" font-size="10" fill="black">125</text>
  <line x1="40" y1="50.0" x2="780" y2="50.0" stroke="lightgray" stroke-width="1" stroke-dasharray="5, 5" />
  <line x1="35" y1="150.0" x2="40" y2="150.0" stroke="black" stroke-width="1" />
  <text x="10" y="155.0" font-size="10" fill="black">100</text>
  <line x1="40" y1="150.0" x2="780" y2="150.0" stroke="lightgray" stroke-width="1" stroke-dasharray="5, 5" />
  <line x1="48.666666666666664" y1="145.46506684302517" x2="48.666666666666664" y2="150.19840332561762" stroke="black" stroke-width="1" />
  <rect x="40.86666666666667" y="145.69181350087393" width="15.6" height="4.308186499126066" fill="green" />
  <line x1="66.0" y1="142.74410694884023" x2="66.0" y2="145.97524682318488" stroke="black" stroke-width="1" />
  <rect x="58.199999999999996" y="142.89527138740607" width="15.6" height="2.739855449005688" fill="green" />
  <line x1="83.33333333333333" y1="141.85601587226603" x2="83.33333333333333" y2="146.23978459067501" stroke="black" stroke-width="1" />
  <rect x="75.53333333333332" y="143.7455713543389" width="15.6" height="1" fill="red" />
  <line x1="100.66666666666667" y1="143.7455713543389" x2="100.66666666666667" y2="147.8270111956162" stroke="black" stroke-width="1" />
  <rect x="92.86666666666666" y="144.501393547168" width="15.6" height="1" fill="green" />
  <line x1="118.0" y1="140.34437148660777" x2="118.0" y2="145.00212574991735" stroke="black" stroke-width="1" />
  <rect x="110.19999999999999" y="140.6655959185602" width="15.6" height="3.873588738249282" fill="green" />
  <line x1="135.33333333333331" y1="135.82833388445363" x2="135.33333333333331" y2="140.9112381312296" stroke="black" stroke-width="1" />
  <rect x="127.53333333333332" y="137.49114270867773" width="15.6" height="1.341584392271784" fill="green" />
  <line x1="152.66666666666666" y1="134.90245169823794" x2="152.66666666666666" y2="137.98242713401675" stroke="black" stroke-width="1" />
  <rect x="144.86666666666667" y="135.86612499409512" width="15.6" height="1" fill="green" />
  <line x1="169.99999999999997" y1="133.5041806415041" x2="169.99999999999997" y2="135.82833388445363" stroke="black" stroke-width="1" />
  <rect x="162.2" y="133.9576739572015" width="15.6" height="1.2660021729888626" fill="green" />
  <line x1="187.33333333333331" y1="130.12187632859371" x2="187.33333333333331" y2="135.82833388445363" stroke="black" stroke-width="1" />
  <rect x="179.53333333333333" y="131.86026737210074" width="15.6" height="3.8546931834285374" fill="green" />
  <line x1="204.66666666666666" y1="128.66691860739763" x2="204.66666666666666" y2="136.3007227549719" stroke="black" stroke-width="1" />
  <rect x="196.86666666666667" y="130.12187632859371" width="15.6" height="1" fill="green" />
  <line x1="221.99999999999997" y1="123.94302990221553" x2="221.99999999999997" y2="130.65095186357405" stroke="black" stroke-width="1" />
  <rect x="214.2" y="125.22792763002496" width="15.6" height="4.345977608767555" fill="green" />
  <line x1="239.33333333333331" y1="126.550616467476" x2="239.33333333333331" y2="135.73385611035002" stroke="black" stroke-width="1" />
  <rect x="231.53333333333333" y="129.95181633520713" width="15.6" height="3.779110964145616" fill="red" />
  <line x1="256.6666666666667" y1="130.3864140960839" x2="256.6666666666667" y2="139.56965373895792" stroke="black" stroke-width="1" />
  <rect x="248.86666666666667" y="132.3326562426189" width="15.6" height="3.231139874344535" fill="red" />
  <line x1="274.0" y1="132.78614955831642" x2="274.0" y2="141.79932920780385" stroke="black" stroke-width="1" />
  <rect x="266.2" y="134.01436062166374" width="15.6" height="4.761679814823594" fill="red" />
  <line x1="291.3333333333333" y1="136.67863385138645" x2="291.3333333333333" y2="151.1337332892437" stroke="black" stroke-width="1" />
  <rect x="283.5333333333333" y="138.8327271009495" width="15.6" height="9.71231517785435" fill="red" />
  <line x1="308.6666666666667" y1="137.7934715858094" x2="308.6666666666667" y2="145.30445462704893" stroke="black" stroke-width="1" />
  <rect x="300.8666666666667" y="140.32547593178703" width="15.6" height="3.0610798809580615" fill="green" />
  <line x1="326.0" y1="136.86758939959373" x2="326.0" y2="170.93627474136707" stroke="black" stroke-width="1" />
  <rect x="318.2" y="136.94317161887665" width="15.6" height="24.63980348622988" fill="red" />
  <line x1="343.3333333333333" y1="157.53932637347066" x2="343.3333333333333" y2="168.6291274977562" stroke="black" stroke-width="1" />
  <rect x="335.5333333333333" y="158.4274174500449" width="15.6" height="3.7413198545041837" fill="green" />
  <line x1="360.6666666666667" y1="155.49860645283195" x2="360.6666666666667" y2="162.84897727809533" stroke="black" stroke-width="1" />
  <rect x="352.8666666666667" y="157.63380414757427" width="15.6" height="1.9840332561765308" fill="red" />
  <line x1="378.0" y1="157.25929425102743" x2="378.0" y2="166.38244602957155" stroke="black" stroke-width="1" />
  <rect x="370.2" y="159.12655297841178" width="15.6" height="4.7994709244650835" fill="red" />
  <line x1="395.3333333333333" y1="156.57565307761342" x2="395.3333333333333" y2="161.5262884406443" stroke="black" stroke-width="1" />
  <rect x="387.5333333333333" y="157.23699749633897" width="15.6" height="3.8357976286078497" fill="green" />
  <line x1="412.6666666666667" y1="153.3256176484482" x2="412.6666666666667" y2="157.61490859275358" stroke="black" stroke-width="1" />
  <rect x="404.8666666666667" y="154.6105153762577" width="15.6" height="2.8721243327507864" fill="green" />
  <line x1="430.0" y1="150.66871368510562" x2="430.0" y2="159.42888185554352" stroke="black" stroke-width="1" />
  <rect x="422.2" y="155.06400869195522" width="15.6" height="2.796542113467808" fill="red" />
  <line x1="447.3333333333333" y1="149.58429779394402" x2="447.3333333333333" y2="158.21956634701684" stroke="black" stroke-width="1" />
  <rect x="439.5333333333333" y="152.28636213330816" width="15.6" height="1.3226888374509826" fill="green" />
  <line x1="464.6666666666667" y1="150.51962775757005" x2="464.6666666666667" y2="154.13812650573948" stroke="black" stroke-width="1" />
  <rect x="456.8666666666667" y="151.1337332892437" width="15.6" height="2.1918843592044936" fill="green" />
  <line x1="482.0" y1="149.79214889697198" x2="482.0" y2="153.2122443195238" stroke="black" stroke-width="1" />
  <rect x="474.2" y="150.47238887051822" width="15.6" height="1" fill="green" />
  <line x1="499.3333333333333" y1="147.61916009258823" x2="499.3333333333333" y2="152.49421323633612" stroke="black" stroke-width="1" />
  <rect x="491.5333333333333" y="150.18895554820728" width="15.6" height="1" fill="green" />
  <line x1="516.6666666666666" y1="148.9607444848599" x2="516.6666666666666" y2="155.81983088478432" stroke="black" stroke-width="1" />
  <rect x="508.8666666666666" y="150.01889555482074" width="15.6" height="2.815437668288496" fill="red" />
  <line x1="533.9999999999999" y1="149.98110444517926" x2="533.9999999999999" y2="155.06400869195522" stroke="black" stroke-width="1" />
  <rect x="526.1999999999999" y="151.0581510699608" width="15.6" height="2.550899900798356" fill="red" />
  <line x1="551.3333333333333" y1="148.5828333884454" x2="551.3333333333333" y2="154.45935093769185" stroke="black" stroke-width="1" />
  <rect x="543.5333333333333" y="151.96513770135573" width="15.6" height="1" fill="red" />

<!-- Resistance Line -->
<line x1="40" y1="130" x2="600" y2="130" stroke="blue" stroke-width="2" />
<text x="605" y="135" font-size="10" fill="blue">Resistance</text>

<!-- Support Line -->
<line x1="40" y1="150" x2="600" y2="150" stroke="green" stroke-width="2" />
<text x="605" y="155" font-size="10" fill="green">Support</text>

<!-- Trendline -->
<line x1="40" y1="250" x2="600" y2="130" stroke="purple" stroke-width="2" />
<text x="605" y="135" font-size="10" fill="purple">Trendline</text>
</svg>