<svg width="800" height="300" xmlns="http://www.w3.org/2000/svg">
  <line x1="40" y1="250" x2="40" y2="50" stroke="black" stroke-width="2" />
  <line x1="35" y1="250.0" x2="40" y2="250.0" stroke="black" stroke-width="1" />
  <text x="10" y="255.0" font-size="10" fill="black">75</text>
  <line x1="40" y1="250.0" x2="780" y2="250.0" stroke="lightgray" stroke-width="1" stroke-dasharray="5,5" />
  <line x1="35" y1="210.0" x2="40" y2="210.0" stroke="black" stroke-width="1" />
  <text x="10" y="215.0" font-size="10" fill="black">85</text>
  <line x1="40" y1="210.0" x2="780" y2="210.0" stroke="lightgray" stroke-width="1" stroke-dasharray="5,5" />
  <line x1="35" y1="170.0" x2="40" y2="170.0" stroke="black" stroke-width="1" />
  <text x="10" y="175.0" font-size="10" fill="black">95</text>
  <line x1="40" y1="170.0" x2="780" y2="170.0" stroke="lightgray" stroke-width="1" stroke-dasharray="5,5" />
  <line x1="35" y1="130.0" x2="40" y2="130.0" stroke="black" stroke-width="1" />
  <text x="10" y="135.0" font-size="10" fill="black">105</text>
  <line x1="40" y1="130.0" x2="780" y2="130.0" stroke="lightgray" stroke-width="1" stroke-dasharray="5,5" />
  <line x1="35" y1="90.0" x2="40" y2="90.0" stroke="black" stroke-width="1" />
  <text x="10" y="95.0" font-size="10" fill="black">115</text>
  <line x1="40" y1="90.0" x2="780" y2="90.0" stroke="lightgray" stroke-width="1" stroke-dasharray="5,5" />
  <line x1="35" y1="50.0" x2="40" y2="50.0" stroke="black" stroke-width="1" />
  <text x="10" y="55.0" font-size="10" fill="black">125</text>
  <line x1="40" y1="50.0" x2="780" y2="50.0" stroke="lightgray" stroke-width="1" stroke-dasharray="5,5" />
  <line x1="58.27759197324415" y1="145.46506684302517" x2="58.27759197324415" y2="150.19840332561762" stroke="black" stroke-width="1" />
  <rect x="50.0" y="145.69181350087393" width="16.555183946488295" height="4.308186499126066" fill="green" />
  <line x1="76.67224080267559" y1="142.74410694884023" x2="76.67224080267559" y2="145.97524682318488" stroke="black" stroke-width="1" />
  <rect x="68.39464882943145" y="142.89527138740607" width="16.555183946488295" height="2.739855449005688" fill="green" />
  <line x1="95.06688963210702" y1="141.85601587226603" x2="95.06688963210702" y2="146.23978459067501" stroke="black" stroke-width="1" />
  <rect x="86.78929765886288" y="143.7455713543389" width="16.555183946488295" height="1" fill="red" />
  <line x1="113.46153846153845" y1="143.7455713543389" x2="113.46153846153845" y2="147.8270111956162" stroke="black" stroke-width="1" />
  <rect x="105.18394648829431" y="144.501393547168" width="16.555183946488295" height="1" fill="green" />
  <line x1="131.8561872909699" y1="140.34437148660777" x2="131.8561872909699" y2="145.00212574991735" stroke="black" stroke-width="1" />
  <rect x="123.57859531772576" y="140.6655959185602" width="16.555183946488295" height="3.873588738249282" fill="green" />
  <line x1="150.25083612040135" y1="135.82833388445363" x2="150.25083612040135" y2="140.9112381312296" stroke="black" stroke-width="1" />
  <rect x="141.9732441471572" y="137.49114270867773" width="16.555183946488295" height="1.341584392271784" fill="green" />
  <line x1="168.64548494983276" y1="134.90245169823794" x2="168.64548494983276" y2="137.98242713401675" stroke="black" stroke-width="1" />
  <rect x="160.36789297658862" y="135.86612499409512" width="16.555183946488295" height="1" fill="green" />
  <line x1="187.0401337792642" y1="133.5041806415041" x2="187.0401337792642" y2="135.82833388445363" stroke="black" stroke-width="1" />
  <rect x="178.76254180602007" y="133.9576739572015" width="16.555183946488295" height="1.2660021729888626" fill="green" />
  <line x1="205.43478260869566" y1="130.12187632859371" x2="205.43478260869566" y2="135.82833388445363" stroke="black" stroke-width="1" />
  <rect x="197.1571906354515" y="131.86026737210074" width="16.555183946488295" height="3.8546931834285374" fill="green" />
  <line x1="223.8294314381271" y1="128.66691860739763" x2="223.8294314381271" y2="136.3007227549719" stroke="black" stroke-width="1" />
  <rect x="215.55183946488296" y="130.12187632859371" width="16.555183946488295" height="1" fill="green" />
  <line x1="242.22408026755855" y1="123.94302990221553" x2="242.22408026755855" y2="130.65095186357405" stroke="black" stroke-width="1" />
  <rect x="233.9464882943144" y="125.22792763002496" width="16.555183946488295" height="4.345977608767555" fill="green" />
  <line x1="260.61872909698997" y1="126.550616467476" x2="260.61872909698997" y2="135.73385611035002" stroke="black" stroke-width="1" />
  <rect x="252.34113712374582" y="129.95181633520713" width="16.555183946488295" height="3.779110964145616" fill="red" />
  <line x1="279.0133779264214" y1="130.3864140960839" x2="279.0133779264214" y2="139.56965373895792" stroke="black" stroke-width="1" />
  <rect x="270.73578595317724" y="132.3326562426189" width="16.555183946488295" height="3.231139874344535" fill="red" />
  <line x1="297.4080267558529" y1="132.78614955831642" x2="297.4080267558529" y2="141.79932920780385" stroke="black" stroke-width="1" />
  <rect x="289.13043478260875" y="134.01436062166374" width="16.555183946488295" height="4.761679814823594" fill="red" />
  <line x1="315.8026755852843" y1="136.67863385138645" x2="315.8026755852843" y2="151.1337332892437" stroke="black" stroke-width="1" />
  <rect x="307.52508361204013" y="138.8327271009495" width="16.555183946488295" height="9.71231517785435" fill="red" />
  <line x1="334.19732441471575" y1="137.7934715858094" x2="334.19732441471575" y2="145.30445462704893" stroke="black" stroke-width="1" />
  <rect x="325.9197324414716" y="140.32547593178703" width="16.555183946488295" height="3.0610798809580615" fill="green" />
  <line x1="352.5919732441472" y1="136.86758939959373" x2="352.5919732441472" y2="170.93627474136707" stroke="black" stroke-width="1" />
  <rect x="344.314381270903" y="136.94317161887665" width="16.555183946488295" height="24.63980348622988" fill="red" />
  <line x1="370.98662207357864" y1="157.53932637347066" x2="370.98662207357864" y2="168.6291274977562" stroke="black" stroke-width="1" />
  <rect x="362.7090301003345" y="158.4274174500449" width="16.555183946488295" height="3.7413198545041837" fill="green" />
  <line x1="389.3812709030101" y1="155.49860645283195" x2="389.3812709030101" y2="162.84897727809533" stroke="black" stroke-width="1" />
  <rect x="381.1036789297659" y="157.63380414757427" width="16.555183946488295" height="1.9840332561765308" fill="red" />
  <line x1="407.77591973244154" y1="157.25929425102743" x2="407.77591973244154" y2="166.38244602957155" stroke="black" stroke-width="1" />
  <rect x="399.49832775919737" y="159.12655297841178" width="16.555183946488295" height="4.7994709244650835" fill="red" />
  <line x1="426.170568561873" y1="156.57565307761342" x2="426.170568561873" y2="161.5262884406443" stroke="black" stroke-width="1" />
  <rect x="417.8929765886288" y="157.23699749633897" width="16.555183946488295" height="3.8357976286078497" fill="green" />
  <line x1="444.5652173913044" y1="153.3256176484482" x2="444.5652173913044" y2="157.61490859275358" stroke="black" stroke-width="1" />
  <rect x="436.2876254180602" y="154.6105153762577" width="16.555183946488295" height="2.8721243327507864" fill="green" />
  <line x1="462.9598662207358" y1="150.66871368510562" x2="462.9598662207358" y2="159.42888185554352" stroke="black" stroke-width="1" />
  <rect x="454.68227424749165" y="155.06400869195522" width="16.555183946488295" height="2.796542113467808" fill="red" />
  <line x1="481.35451505016727" y1="149.58429779394402" x2="481.35451505016727" y2="158.21956634701684" stroke="black" stroke-width="1" />
  <rect x="473.0769230769231" y="152.28636213330816" width="16.555183946488295" height="1.3226888374509826" fill="green" />
  <line x1="499.7491638795987" y1="150.51962775757005" x2="499.7491638795987" y2="154.13812650573948" stroke="black" stroke-width="1" />
  <rect x="491.47157190635454" y="151.1337332892437" width="16.555183946488295" height="2.1918843592044936" fill="green" />
  <line x1="518.1438127090302" y1="149.79214889697198" x2="518.1438127090302" y2="153.2122443195238" stroke="black" stroke-width="1" />
  <rect x="509.866220735786" y="150.47238887051822" width="16.555183946488295" height="1" fill="green" />
  <line x1="536.5384615384617" y1="147.61916009258823" x2="536.5384615384617" y2="152.49421323633612" stroke="black" stroke-width="1" />
  <rect x="528.2608695652175" y="150.18895554820728" width="16.555183946488295" height="1" fill="green" />
  <line x1="554.933110367893" y1="148.9607444848599" x2="554.933110367893" y2="155.81983088478432" stroke="black" stroke-width="1" />
  <rect x="546.6555183946489" y="150.01889555482074" width="16.555183946488295" height="2.815437668288496" fill="red" />
  <line x1="573.3277591973244" y1="149.98110444517926" x2="573.3277591973244" y2="155.06400869195522" stroke="black" stroke-width="1" />
  <rect x="565.0501672240803" y="151.0581510699608" width="16.555183946488295" height="2.550899900798356" fill="red" />
  <line x1="591.7224080267559" y1="148.5828333884454" x2="591.7224080267559" y2="154.45935093769185" stroke="black" stroke-width="1" />
  <rect x="583.4448160535118" y="151.96513770135573" width="16.555183946488295" height="1" fill="red" />
</svg>