<svg width="800" height="300" xmlns="http://www.w3.org/2000/svg">
  <line x1="40" y1="250" x2="40" y2="50" stroke="black" stroke-width="2" />
  <line x1="35" y1="250.0" x2="40" y2="250.0" stroke="black" stroke-width="1" />
  <text x="10" y="255.0" font-size="10" fill="black">75</text>
  <line x1="40" y1="250.0" x2="780" y2="250.0" stroke="lightgray" stroke-width="1" stroke-dasharray="5, 5" />
  <line x1="35" y1="210.0" x2="40" y2="210.0" stroke="black" stroke-width="1" />
  <text x="10" y="215.0" font-size="10" fill="black">85</text>
  <line x1="40" y1="210.0" x2="780" y2="210.0" stroke="lightgray" stroke-width="1" stroke-dasharray="5, 5" />
  <line x1="35" y1="170.0" x2="40" y2="170.0" stroke="black" stroke-width="1" />
  <text x="10" y="175.0" font-size="10" fill="black">95</text>
  <line x1="40" y1="170.0" x2="780" y2="170.0" stroke="lightgray" stroke-width="1" stroke-dasharray="5, 5" />
  <line x1="35" y1="130.0" x2="40" y2="130.0" stroke="black" stroke-width="1" />
  <text x="10" y="135.0" font-size="10" fill="black">105</text>
  <line x1="40" y1="130.0" x2="780" y2="130.0" stroke="lightgray" stroke-width="1" stroke-dasharray="5, 5" />
  <line x1="35" y1="90.0" x2="40" y2="90.0" stroke="black" stroke-width="1" />
  <text x="10" y="95.0" font-size="10" fill="black">115</text>
  <line x1="40" y1="90.0" x2="780" y2="90.0" stroke="lightgray" stroke-width="1" stroke-dasharray="5, 5" />
  <line x1="35" y1="50.0" x2="40" y2="50.0" stroke="black" stroke-width="1" />
  <text x="10" y="55.0" font-size="10" fill="black">125</text>
  <line x1="40" y1="50.0" x2="780" y2="50.0" stroke="lightgray" stroke-width="1" stroke-dasharray="5, 5" />
  <line x1="35" y1="150.0" x2="40" y2="150.0" stroke="black" stroke-width="1" />
  <text x="10" y="155.0" font-size="10" fill="black">100</text>
  <line x1="40" y1="150.0" x2="780" y2="150.0" stroke="lightgray" stroke-width="1" stroke-dasharray="5, 5" />
  <line x1="48.666666666666664" y1="144.23631123919307" x2="48.666666666666664" y2="152.30547550432283" stroke="black" stroke-width="1" />
  <rect x="40.86666666666667" y="145.7732949087416" width="15.6" height="4.226705091258395" fill="green" />
  <line x1="66.0" y1="139.24111431316044" x2="66.0" y2="145.38904899135446" stroke="black" stroke-width="1" />
  <rect x="58.199999999999996" y="143.08357348703169" width="15.6" height="2.3054755043227715" fill="green" />
  <line x1="83.33333333333333" y1="138.47262247838614" x2="83.33333333333333" y2="143.46781940441883" stroke="black" stroke-width="1" />
  <rect x="75.53333333333332" y="138.47262247838614" width="15.6" height="4.610951008645543" fill="green" />
  <line x1="100.66666666666667" y1="132.32468780019218" x2="100.66666666666667" y2="138.85686839577335" stroke="black" stroke-width="1" />
  <rect x="92.86666666666666" y="134.24591738712775" width="15.6" height="3.8424591738713048" fill="green" />
  <line x1="118.0" y1="132.32468780019218" x2="118.0" y2="137.70413064361196" stroke="black" stroke-width="1" />
  <rect x="110.19999999999999" y="133.8616714697406" width="15.6" height="1" fill="green" />
  <line x1="135.33333333333331" y1="133.8616714697406" x2="135.33333333333331" y2="138.85686839577335" stroke="black" stroke-width="1" />
  <rect x="127.53333333333332" y="133.8616714697406" width="15.6" height="1.1527377521614426" fill="red" />
  <line x1="152.66666666666666" y1="130.0192122958694" x2="152.66666666666666" y2="137.31988472622476" stroke="black" stroke-width="1" />
  <rect x="144.86666666666667" y="133.09317963496642" width="15.6" height="3.0739673390970097" fill="green" />
  <line x1="169.99999999999997" y1="121.95004803073965" x2="169.99999999999997" y2="133.4774255523535" stroke="black" stroke-width="1" />
  <rect x="162.2" y="122.71853986551395" width="15.6" height="10.374639769452472" fill="green" />
  <line x1="187.33333333333331" y1="122.71853986551395" x2="187.33333333333331" y2="129.2507204610951" stroke="black" stroke-width="1" />
  <rect x="179.53333333333333" y="122.71853986551395" width="15.6" height="3.8424591738713048" fill="red" />
  <line x1="204.66666666666666" y1="120.79731027857832" x2="204.66666666666666" y2="128.09798270893367" stroke="black" stroke-width="1" />
  <rect x="196.86666666666667" y="123.87127761767533" width="15.6" height="1.152737752161329" fill="green" />
  <line x1="221.99999999999997" y1="120.02881844380403" x2="221.99999999999997" y2="127.32949087415949" stroke="black" stroke-width="1" />
  <rect x="214.2" y="123.87127761767533" width="15.6" height="1.152737752161329" fill="red" />
  <line x1="239.33333333333331" y1="122.33429394812674" x2="239.33333333333331" y2="131.17195004803068" stroke="black" stroke-width="1" />
  <rect x="231.53333333333333" y="127.32949087415949" width="15.6" height="2.689721421709919" fill="red" />
  <line x1="256.6666666666667" y1="128.09798270893367" x2="256.6666666666667" y2="137.31988472622476" stroke="black" stroke-width="1" />
  <rect x="248.86666666666667" y="130.7877041306436" width="15.6" height="4.6109510086456" fill="green" />
  <line x1="274.0" y1="130.7877041306436" x2="274.0" y2="136.16714697406343" stroke="black" stroke-width="1" />
  <rect x="266.2" y="131.17195004803068" width="15.6" height="4.226705091258509" fill="red" />
  <line x1="291.3333333333333" y1="132.70893371757933" x2="291.3333333333333" y2="146.15754082612875" stroke="black" stroke-width="1" />
  <rect x="283.5333333333333" y="136.16714697406343" width="15.6" height="9.990393852065324" fill="red" />
  <line x1="308.6666666666667" y1="136.9356388088376" x2="308.6666666666667" y2="144.23631123919307" stroke="black" stroke-width="1" />
  <rect x="300.8666666666667" y="142.31508165225745" width="15.6" height="1.921229586935624" fill="green" />
  <line x1="326.0" y1="137.31988472622476" x2="326.0" y2="145.00480307396737" stroke="black" stroke-width="1" />
  <rect x="318.2" y="141.16234390009606" width="15.6" height="1.1527377521613857" fill="green" />
  <line x1="343.3333333333333" y1="140.00960614793468" x2="343.3333333333333" y2="144.62055715658016" stroke="black" stroke-width="1" />
  <rect x="335.5333333333333" y="142.69932756964454" width="15.6" height="1.921229586935624" fill="red" />
  <line x1="360.6666666666667" y1="140.00960614793468" x2="360.6666666666667" y2="153.84245917387125" stroke="black" stroke-width="1" />
  <rect x="352.8666666666667" y="144.62055715658016" width="15.6" height="6.916426512968371" fill="red" />
  <line x1="378.0" y1="138.85686839577335" x2="378.0" y2="150.3842459173871" stroke="black" stroke-width="1" />
  <rect x="370.2" y="140.00960614793468" width="15.6" height="10.374639769452415" fill="green" />
  <line x1="395.3333333333333" y1="140.00960614793468" x2="395.3333333333333" y2="148.46301633045147" stroke="black" stroke-width="1" />
  <rect x="387.5333333333333" y="140.00960614793468" width="15.6" height="6.532180595581224" fill="red" />
  <line x1="412.6666666666667" y1="138.85686839577335" x2="412.6666666666667" y2="146.5417867435159" stroke="black" stroke-width="1" />
  <rect x="404.8666666666667" y="140.39385206532182" width="15.6" height="6.147934678194076" fill="green" />
  <line x1="430.0" y1="133.09317963496642" x2="430.0" y2="144.23631123919307" stroke="black" stroke-width="1" />
  <rect x="422.2" y="133.09317963496642" width="15.6" height="11.143131604226653" fill="green" />
  <line x1="447.3333333333333" y1="122.33429394812674" x2="447.3333333333333" y2="133.09317963496642" stroke="black" stroke-width="1" />
  <rect x="439.5333333333333" y="122.33429394812674" width="15.6" height="9.606147934678233" fill="green" />
  <line x1="464.6666666666667" y1="118.49183477425555" x2="464.6666666666667" y2="125.40826128722375" stroke="black" stroke-width="1" />
  <rect x="456.8666666666667" y="123.10278578290104" width="15.6" height="1.1527377521614426" fill="red" />
  <line x1="482.0" y1="116.95485110470702" x2="482.0" y2="125.02401536983666" stroke="black" stroke-width="1" />
  <rect x="474.2" y="120.79731027857832" width="15.6" height="3.4582132564841572" fill="green" />
  <line x1="499.3333333333333" y1="115.41786743515854" x2="499.3333333333333" y2="120.79731027857832" stroke="black" stroke-width="1" />
  <rect x="491.5333333333333" y="117.72334293948126" width="15.6" height="2.3054755043227715" fill="green" />
  <line x1="516.6666666666666" y1="106.58021133525455" x2="516.6666666666666" y2="131.17195004803068" stroke="black" stroke-width="1" />
  <rect x="508.8666666666666" y="117.72334293948126" width="15.6" height="8.453410182516848" fill="red" />
  <line x1="533.9999999999999" y1="117.72334293948126" x2="533.9999999999999" y2="129.2507204610951" stroke="black" stroke-width="1" />
  <rect x="526.1999999999999" y="121.18155619596547" width="15.6" height="4.995196926032634" fill="red" />
  <line x1="551.3333333333333" y1="114.2651296829971" x2="551.3333333333333" y2="127.32949087415949" stroke="black" stroke-width="1" />
  <rect x="543.5333333333333" y="115.80211335254563" width="15.6" height="11.527377521613857" fill="green" />

<!-- Support Level -->
<line x1="40" y1="90" x2="600" y2="90" stroke="blue" stroke-width="2" />
<text x="605" y="95" font-size="10" fill="blue">Support</text>

<!-- Resistance Level -->
<line x1="40" y1="130" x2="600" y2="130" stroke="red" stroke-width="2" />
<text x="605" y="135" font-size="10" fill="red">Resistance</text>

<!-- Trendline -->
<line x1="40" y1="250" x2="600" y2="120" stroke="green" stroke-width="2" />
<text x="605" y="125" font-size="10" fill="green">Trendline</text>
</svg>