<svg width="800" height="300" xmlns="http://www.w3.org/2000/svg">
  <line x1="40" y1="250" x2="40" y2="50" stroke="black" stroke-width="2" />
  <line x1="35" y1="250.0" x2="40" y2="250.0" stroke="black" stroke-width="1" />
  <text x="10" y="255.0" font-size="10" fill="black">75</text>
  <line x1="40" y1="250.0" x2="780" y2="250.0" stroke="lightgray" stroke-width="1" stroke-dasharray="5,5" />
  <line x1="35" y1="210.0" x2="40" y2="210.0" stroke="black" stroke-width="1" />
  <text x="10" y="215.0" font-size="10" fill="black">85</text>
  <line x1="40" y1="210.0" x2="780" y2="210.0" stroke="lightgray" stroke-width="1" stroke-dasharray="5,5" />
  <line x1="35" y1="170.0" x2="40" y2="170.0" stroke="black" stroke-width="1" />
  <text x="10" y="175.0" font-size="10" fill="black">95</text>
  <line x1="40" y1="170.0" x2="780" y2="170.0" stroke="lightgray" stroke-width="1" stroke-dasharray="5,5" />
  <line x1="35" y1="130.0" x2="40" y2="130.0" stroke="black" stroke-width="1" />
  <text x="10" y="135.0" font-size="10" fill="black">105</text>
  <line x1="40" y1="130.0" x2="780" y2="130.0" stroke="lightgray" stroke-width="1" stroke-dasharray="5,5" />
  <line x1="35" y1="90.0" x2="40" y2="90.0" stroke="black" stroke-width="1" />
  <text x="10" y="95.0" font-size="10" fill="black">115</text>
  <line x1="40" y1="90.0" x2="780" y2="90.0" stroke="lightgray" stroke-width="1" stroke-dasharray="5,5" />
  <line x1="35" y1="50.0" x2="40" y2="50.0" stroke="black" stroke-width="1" />
  <text x="10" y="55.0" font-size="10" fill="black">125</text>
  <line x1="40" y1="50.0" x2="780" y2="50.0" stroke="lightgray" stroke-width="1" stroke-dasharray="5,5" />
  <line x1="58.27759197324415" y1="144.23631123919307" x2="58.27759197324415" y2="152.30547550432283" stroke="black" stroke-width="1" />
  <rect x="50.0" y="145.7732949087416" width="16.555183946488295" height="4.226705091258395" fill="green" />
  <line x1="76.67224080267559" y1="139.24111431316044" x2="76.67224080267559" y2="145.38904899135446" stroke="black" stroke-width="1" />
  <rect x="68.39464882943145" y="143.08357348703169" width="16.555183946488295" height="2.3054755043227715" fill="green" />
  <line x1="95.06688963210702" y1="138.47262247838614" x2="95.06688963210702" y2="143.46781940441883" stroke="black" stroke-width="1" />
  <rect x="86.78929765886288" y="138.47262247838614" width="16.555183946488295" height="4.610951008645543" fill="green" />
  <line x1="113.46153846153845" y1="132.32468780019218" x2="113.46153846153845" y2="138.85686839577335" stroke="black" stroke-width="1" />
  <rect x="105.18394648829431" y="134.24591738712775" width="16.555183946488295" height="3.8424591738713048" fill="green" />
  <line x1="131.8561872909699" y1="132.32468780019218" x2="131.8561872909699" y2="137.70413064361196" stroke="black" stroke-width="1" />
  <rect x="123.57859531772576" y="133.8616714697406" width="16.555183946488295" height="1" fill="green" />
  <line x1="150.25083612040135" y1="133.8616714697406" x2="150.25083612040135" y2="138.85686839577335" stroke="black" stroke-width="1" />
  <rect x="141.9732441471572" y="133.8616714697406" width="16.555183946488295" height="1.1527377521614426" fill="red" />
  <line x1="168.64548494983276" y1="130.0192122958694" x2="168.64548494983276" y2="137.31988472622476" stroke="black" stroke-width="1" />
  <rect x="160.36789297658862" y="133.09317963496642" width="16.555183946488295" height="3.0739673390970097" fill="green" />
  <line x1="187.0401337792642" y1="121.95004803073965" x2="187.0401337792642" y2="133.4774255523535" stroke="black" stroke-width="1" />
  <rect x="178.76254180602007" y="122.71853986551395" width="16.555183946488295" height="10.374639769452472" fill="green" />
  <line x1="205.43478260869566" y1="122.71853986551395" x2="205.43478260869566" y2="129.2507204610951" stroke="black" stroke-width="1" />
  <rect x="197.1571906354515" y="122.71853986551395" width="16.555183946488295" height="3.8424591738713048" fill="red" />
  <line x1="223.8294314381271" y1="120.79731027857832" x2="223.8294314381271" y2="128.09798270893367" stroke="black" stroke-width="1" />
  <rect x="215.55183946488296" y="123.87127761767533" width="16.555183946488295" height="1.152737752161329" fill="green" />
  <line x1="242.22408026755855" y1="120.02881844380403" x2="242.22408026755855" y2="127.32949087415949" stroke="black" stroke-width="1" />
  <rect x="233.9464882943144" y="123.87127761767533" width="16.555183946488295" height="1.152737752161329" fill="red" />
  <line x1="260.61872909698997" y1="122.33429394812674" x2="260.61872909698997" y2="131.17195004803068" stroke="black" stroke-width="1" />
  <rect x="252.34113712374582" y="127.32949087415949" width="16.555183946488295" height="2.689721421709919" fill="red" />
  <line x1="279.0133779264214" y1="128.09798270893367" x2="279.0133779264214" y2="137.31988472622476" stroke="black" stroke-width="1" />
  <rect x="270.73578595317724" y="130.7877041306436" width="16.555183946488295" height="4.6109510086456" fill="green" />
  <line x1="297.4080267558529" y1="130.7877041306436" x2="297.4080267558529" y2="136.16714697406343" stroke="black" stroke-width="1" />
  <rect x="289.13043478260875" y="131.17195004803068" width="16.555183946488295" height="4.226705091258509" fill="red" />
  <line x1="315.8026755852843" y1="132.70893371757933" x2="315.8026755852843" y2="146.15754082612875" stroke="black" stroke-width="1" />
  <rect x="307.52508361204013" y="136.16714697406343" width="16.555183946488295" height="9.990393852065324" fill="red" />
  <line x1="334.19732441471575" y1="136.9356388088376" x2="334.19732441471575" y2="144.23631123919307" stroke="black" stroke-width="1" />
  <rect x="325.9197324414716" y="142.31508165225745" width="16.555183946488295" height="1.921229586935624" fill="green" />
  <line x1="352.5919732441472" y1="137.31988472622476" x2="352.5919732441472" y2="145.00480307396737" stroke="black" stroke-width="1" />
  <rect x="344.314381270903" y="141.16234390009606" width="16.555183946488295" height="1.1527377521613857" fill="green" />
  <line x1="370.98662207357864" y1="140.00960614793468" x2="370.98662207357864" y2="144.62055715658016" stroke="black" stroke-width="1" />
  <rect x="362.7090301003345" y="142.69932756964454" width="16.555183946488295" height="1.921229586935624" fill="red" />
  <line x1="389.3812709030101" y1="140.00960614793468" x2="389.3812709030101" y2="153.84245917387125" stroke="black" stroke-width="1" />
  <rect x="381.1036789297659" y="144.62055715658016" width="16.555183946488295" height="6.916426512968371" fill="red" />
  <line x1="407.77591973244154" y1="138.85686839577335" x2="407.77591973244154" y2="150.3842459173871" stroke="black" stroke-width="1" />
  <rect x="399.49832775919737" y="140.00960614793468" width="16.555183946488295" height="10.374639769452415" fill="green" />
  <line x1="426.170568561873" y1="140.00960614793468" x2="426.170568561873" y2="148.46301633045147" stroke="black" stroke-width="1" />
  <rect x="417.8929765886288" y="140.00960614793468" width="16.555183946488295" height="6.532180595581224" fill="red" />
  <line x1="444.5652173913044" y1="138.85686839577335" x2="444.5652173913044" y2="146.5417867435159" stroke="black" stroke-width="1" />
  <rect x="436.2876254180602" y="140.39385206532182" width="16.555183946488295" height="6.147934678194076" fill="green" />
  <line x1="462.9598662207358" y1="133.09317963496642" x2="462.9598662207358" y2="144.23631123919307" stroke="black" stroke-width="1" />
  <rect x="454.68227424749165" y="133.09317963496642" width="16.555183946488295" height="11.143131604226653" fill="green" />
  <line x1="481.35451505016727" y1="122.33429394812674" x2="481.35451505016727" y2="133.09317963496642" stroke="black" stroke-width="1" />
  <rect x="473.0769230769231" y="122.33429394812674" width="16.555183946488295" height="9.606147934678233" fill="green" />
  <line x1="499.7491638795987" y1="118.49183477425555" x2="499.7491638795987" y2="125.40826128722375" stroke="black" stroke-width="1" />
  <rect x="491.47157190635454" y="123.10278578290104" width="16.555183946488295" height="1.1527377521614426" fill="red" />
  <line x1="518.1438127090302" y1="116.95485110470702" x2="518.1438127090302" y2="125.02401536983666" stroke="black" stroke-width="1" />
  <rect x="509.866220735786" y="120.79731027857832" width="16.555183946488295" height="3.4582132564841572" fill="green" />
  <line x1="536.5384615384617" y1="115.41786743515854" x2="536.5384615384617" y2="120.79731027857832" stroke="black" stroke-width="1" />
  <rect x="528.2608695652175" y="117.72334293948126" width="16.555183946488295" height="2.3054755043227715" fill="green" />
  <line x1="554.933110367893" y1="106.58021133525455" x2="554.933110367893" y2="131.17195004803068" stroke="black" stroke-width="1" />
  <rect x="546.6555183946489" y="117.72334293948126" width="16.555183946488295" height="8.453410182516848" fill="red" />
  <line x1="573.3277591973244" y1="117.72334293948126" x2="573.3277591973244" y2="129.2507204610951" stroke="black" stroke-width="1" />
  <rect x="565.0501672240803" y="121.18155619596547" width="16.555183946488295" height="4.995196926032634" fill="red" />
  <line x1="591.7224080267559" y1="114.2651296829971" x2="591.7224080267559" y2="127.32949087415949" stroke="black" stroke-width="1" />
  <rect x="583.4448160535118" y="115.80211335254563" width="16.555183946488295" height="11.527377521613857" fill="green" />
</svg>