<svg width="800" height="300" xmlns="http://www.w3.org/2000/svg">
  <line x1="40" y1="250" x2="40" y2="50" stroke="black" stroke-width="2" />
  <line x1="35" y1="250.0" x2="40" y2="250.0" stroke="black" stroke-width="1" />
  <text x="10" y="255.0" font-size="10" fill="black">75</text>
  <line x1="40" y1="250.0" x2="780" y2="250.0" stroke="lightgray" stroke-width="1" stroke-dasharray="5, 5" />
  <line x1="35" y1="210.0" x2="40" y2="210.0" stroke="black" stroke-width="1" />
  <text x="10" y="215.0" font-size="10" fill="black">85</text>
  <line x1="40" y1="210.0" x2="780" y2="210.0" stroke="lightgray" stroke-width="1" stroke-dasharray="5, 5" />
  <line x1="35" y1="170.0" x2="40" y2="170.0" stroke="black" stroke-width="1" />
  <text x="10" y="175.0" font-size="10" fill="black">95</text>
  <line x1="40" y1="170.0" x2="780" y2="170.0" stroke="lightgray" stroke-width="1" stroke-dasharray="5, 5" />
  <line x1="35" y1="130.0" x2="40" y2="130.0" stroke="black" stroke-width="1" />
  <text x="10" y="135.0" font-size="10" fill="black">105</text>
  <line x1="40" y1="130.0" x2="780" y2="130.0" stroke="lightgray" stroke-width="1" stroke-dasharray="5, 5" />
  <line x1="35" y1="90.0" x2="40" y2="90.0" stroke="black" stroke-width="1" />
  <text x="10" y="95.0" font-size="10" fill="black">115</text>
  <line x1="40" y1="90.0" x2="780" y2="90.0" stroke="lightgray" stroke-width="1" stroke-dasharray="5, 5" />
  <line x1="35" y1="50.0" x2="40" y2="50.0" stroke="black" stroke-width="1" />
  <text x="10" y="55.0" font-size="10" fill="black">125</text>
  <line x1="40" y1="50.0" x2="780" y2="50.0" stroke="lightgray" stroke-width="1" stroke-dasharray="5, 5" />
  <line x1="35" y1="150.0" x2="40" y2="150.0" stroke="black" stroke-width="1" />
  <text x="10" y="155.0" font-size="10" fill="black">100</text>
  <line x1="40" y1="150.0" x2="780" y2="150.0" stroke="lightgray" stroke-width="1" stroke-dasharray="5, 5" />
  <line x1="48.666666666666664" y1="146.95321001088138" x2="48.666666666666664" y2="150.87051142546244" stroke="black" stroke-width="1" />
  <rect x="40.86666666666667" y="147.38846572361257" width="15.6" height="2.611534276387431" fill="green" />
  <line x1="66.0" y1="147.38846572361257" x2="66.0" y2="153.48204570184987" stroke="black" stroke-width="1" />
  <rect x="58.199999999999996" y="147.38846572361257" width="15.6" height="6.093579978237301" fill="red" />
  <line x1="83.33333333333333" y1="151.3057671381937" x2="83.33333333333333" y2="153.91730141458106" stroke="black" stroke-width="1" />
  <rect x="75.53333333333332" y="151.3057671381937" width="15.6" height="1.3057671381936302" fill="red" />
  <line x1="100.66666666666667" y1="149.5647442872688" x2="100.66666666666667" y2="152.61153427638732" stroke="black" stroke-width="1" />
  <rect x="92.86666666666666" y="150.0" width="15.6" height="1" fill="green" />
  <line x1="118.0" y1="146.95321001088138" x2="118.0" y2="150.0" stroke="black" stroke-width="1" />
  <rect x="110.19999999999999" y="146.95321001088138" width="15.6" height="2.611534276387431" fill="green" />
  <line x1="135.33333333333331" y1="146.95321001088138" x2="135.33333333333331" y2="152.61153427638732" stroke="black" stroke-width="1" />
  <rect x="127.53333333333332" y="147.38846572361257" width="15.6" height="3.917301414581118" fill="red" />
  <line x1="152.66666666666666" y1="149.12948857453745" x2="152.66666666666666" y2="151.74102285092488" stroke="black" stroke-width="1" />
  <rect x="144.86666666666667" y="150.4352557127312" width="15.6" height="1.305767138193687" fill="green" />
  <line x1="169.99999999999997" y1="148.69423286180626" x2="169.99999999999997" y2="153.48204570184987" stroke="black" stroke-width="1" />
  <rect x="162.2" y="150.0" width="15.6" height="2.6115342763873173" fill="red" />
  <line x1="187.33333333333331" y1="150.0" x2="187.33333333333331" y2="152.61153427638732" stroke="black" stroke-width="1" />
  <rect x="179.53333333333333" y="150.4352557127312" width="15.6" height="2.176278563656126" fill="green" />
  <line x1="204.66666666666666" y1="149.5647442872688" x2="204.66666666666666" y2="153.91730141458106" stroke="black" stroke-width="1" />
  <rect x="196.86666666666667" y="149.5647442872688" width="15.6" height="2.1762785636560693" fill="red" />
  <line x1="221.99999999999997" y1="149.12948857453745" x2="221.99999999999997" y2="151.3057671381937" stroke="black" stroke-width="1" />
  <rect x="214.2" y="150.0" width="15.6" height="1.305767138193687" fill="green" />
  <line x1="239.33333333333331" y1="143.03590859630032" x2="239.33333333333331" y2="149.5647442872688" stroke="black" stroke-width="1" />
  <rect x="231.53333333333333" y="145.6474428726877" width="15.6" height="3.917301414581118" fill="green" />
  <line x1="256.6666666666667" y1="146.51795429815013" x2="256.6666666666667" y2="152.17627856365607" stroke="black" stroke-width="1" />
  <rect x="248.86666666666667" y="146.51795429815013" width="15.6" height="3.917301414581061" fill="red" />
  <line x1="274.0" y1="147.82372143634382" x2="274.0" y2="151.74102285092488" stroke="black" stroke-width="1" />
  <rect x="266.2" y="150.87051142546244" width="15.6" height="1" fill="red" />
  <line x1="291.3333333333333" y1="148.69423286180626" x2="291.3333333333333" y2="154.3525571273123" stroke="black" stroke-width="1" />
  <rect x="283.5333333333333" y="150.87051142546244" width="15.6" height="1" fill="green" />
  <line x1="308.6666666666667" y1="144.7769314472252" x2="308.6666666666667" y2="150.4352557127312" stroke="black" stroke-width="1" />
  <rect x="300.8666666666667" y="146.51795429815013" width="15.6" height="3.917301414581061" fill="green" />
  <line x1="326.0" y1="143.4711643090315" x2="326.0" y2="150.0" stroke="black" stroke-width="1" />
  <rect x="318.2" y="145.2121871599564" width="15.6" height="3.046789989118622" fill="red" />
  <line x1="343.3333333333333" y1="147.82372143634382" x2="343.3333333333333" y2="150.4352557127312" stroke="black" stroke-width="1" />
  <rect x="335.5333333333333" y="147.82372143634382" width="15.6" height="1.7410228509249919" fill="red" />
  <line x1="360.6666666666667" y1="146.95321001088138" x2="360.6666666666667" y2="154.3525571273123" stroke="black" stroke-width="1" />
  <rect x="352.8666666666667" y="148.69423286180626" width="15.6" height="5.658324265506053" fill="red" />
  <line x1="378.0" y1="150.0" x2="378.0" y2="163.92818280739937" stroke="black" stroke-width="1" />
  <rect x="370.2" y="150.0" width="15.6" height="12.622415669205623" fill="red" />
  <line x1="395.3333333333333" y1="154.3525571273123" x2="395.3333333333333" y2="161.75190424374318" stroke="black" stroke-width="1" />
  <rect x="387.5333333333333" y="154.3525571273123" width="15.6" height="7.399347116430874" fill="green" />
  <line x1="412.6666666666667" y1="150.4352557127312" x2="412.6666666666667" y2="153.48204570184987" stroke="black" stroke-width="1" />
  <rect x="404.8666666666667" y="151.3057671381937" width="15.6" height="2.176278563656183" fill="green" />
  <line x1="430.0" y1="151.3057671381937" x2="430.0" y2="155.65832426550594" stroke="black" stroke-width="1" />
  <rect x="422.2" y="151.3057671381937" width="15.6" height="3.046789989118622" fill="red" />
  <line x1="447.3333333333333" y1="146.08269858541894" x2="447.3333333333333" y2="154.7878128400435" stroke="black" stroke-width="1" />
  <rect x="439.5333333333333" y="147.38846572361257" width="15.6" height="7.399347116430931" fill="green" />
  <line x1="464.6666666666667" y1="145.2121871599564" x2="464.6666666666667" y2="155.65832426550594" stroke="black" stroke-width="1" />
  <rect x="456.8666666666667" y="147.38846572361257" width="15.6" height="5.658324265506053" fill="red" />
  <line x1="482.0" y1="149.5647442872688" x2="482.0" y2="153.48204570184987" stroke="black" stroke-width="1" />
  <rect x="474.2" y="151.74102285092488" width="15.6" height="1.305767138193744" fill="green" />
  <line x1="499.3333333333333" y1="146.51795429815013" x2="499.3333333333333" y2="152.61153427638732" stroke="black" stroke-width="1" />
  <rect x="491.5333333333333" y="147.38846572361257" width="15.6" height="3.046789989118622" fill="green" />
  <line x1="516.6666666666666" y1="145.6474428726877" x2="516.6666666666666" y2="149.5647442872688" stroke="black" stroke-width="1" />
  <rect x="508.8666666666666" y="145.6474428726877" width="15.6" height="1.7410228509248782" fill="green" />
  <line x1="533.9999999999999" y1="140.42437431991289" x2="533.9999999999999" y2="145.2121871599564" stroke="black" stroke-width="1" />
  <rect x="526.1999999999999" y="141.73014145810657" width="15.6" height="3.482045701849813" fill="green" />
  <line x1="551.3333333333333" y1="137.8128400435255" x2="551.3333333333333" y2="140.85963003264413" stroke="black" stroke-width="1" />
  <rect x="543.5333333333333" y="139.55386289445045" width="15.6" height="1.305767138193687" fill="green" />

<line x1="40" y1="140" x2="600" y2="140" stroke="blue" stroke-width="2" />
     <text x="605" y="140" font-size="10" fill="blue">Support</text>
</svg>