<svg width="800" height="300" xmlns="http://www.w3.org/2000/svg">
  <line x1="40" y1="250" x2="40" y2="50" stroke="black" stroke-width="2" />
  <line x1="35" y1="250.0" x2="40" y2="250.0" stroke="black" stroke-width="1" />
  <text x="10" y="255.0" font-size="10" fill="black">75</text>
  <line x1="40" y1="250.0" x2="780" y2="250.0" stroke="lightgray" stroke-width="1" stroke-dasharray="5,5" />
  <line x1="35" y1="210.0" x2="40" y2="210.0" stroke="black" stroke-width="1" />
  <text x="10" y="215.0" font-size="10" fill="black">85</text>
  <line x1="40" y1="210.0" x2="780" y2="210.0" stroke="lightgray" stroke-width="1" stroke-dasharray="5,5" />
  <line x1="35" y1="170.0" x2="40" y2="170.0" stroke="black" stroke-width="1" />
  <text x="10" y="175.0" font-size="10" fill="black">95</text>
  <line x1="40" y1="170.0" x2="780" y2="170.0" stroke="lightgray" stroke-width="1" stroke-dasharray="5,5" />
  <line x1="35" y1="130.0" x2="40" y2="130.0" stroke="black" stroke-width="1" />
  <text x="10" y="135.0" font-size="10" fill="black">105</text>
  <line x1="40" y1="130.0" x2="780" y2="130.0" stroke="lightgray" stroke-width="1" stroke-dasharray="5,5" />
  <line x1="35" y1="90.0" x2="40" y2="90.0" stroke="black" stroke-width="1" />
  <text x="10" y="95.0" font-size="10" fill="black">115</text>
  <line x1="40" y1="90.0" x2="780" y2="90.0" stroke="lightgray" stroke-width="1" stroke-dasharray="5,5" />
  <line x1="35" y1="50.0" x2="40" y2="50.0" stroke="black" stroke-width="1" />
  <text x="10" y="55.0" font-size="10" fill="black">125</text>
  <line x1="40" y1="50.0" x2="780" y2="50.0" stroke="lightgray" stroke-width="1" stroke-dasharray="5,5" />
  <line x1="58.27759197324415" y1="146.95321001088138" x2="58.27759197324415" y2="150.87051142546244" stroke="black" stroke-width="1" />
  <rect x="50.0" y="147.38846572361257" width="16.555183946488295" height="2.611534276387431" fill="green" />
  <line x1="76.67224080267559" y1="147.38846572361257" x2="76.67224080267559" y2="153.48204570184987" stroke="black" stroke-width="1" />
  <rect x="68.39464882943145" y="147.38846572361257" width="16.555183946488295" height="6.093579978237301" fill="red" />
  <line x1="95.06688963210702" y1="151.3057671381937" x2="95.06688963210702" y2="153.91730141458106" stroke="black" stroke-width="1" />
  <rect x="86.78929765886288" y="151.3057671381937" width="16.555183946488295" height="1.3057671381936302" fill="red" />
  <line x1="113.46153846153845" y1="149.5647442872688" x2="113.46153846153845" y2="152.61153427638732" stroke="black" stroke-width="1" />
  <rect x="105.18394648829431" y="150.0" width="16.555183946488295" height="1" fill="green" />
  <line x1="131.8561872909699" y1="146.95321001088138" x2="131.8561872909699" y2="150.0" stroke="black" stroke-width="1" />
  <rect x="123.57859531772576" y="146.95321001088138" width="16.555183946488295" height="2.611534276387431" fill="green" />
  <line x1="150.25083612040135" y1="146.95321001088138" x2="150.25083612040135" y2="152.61153427638732" stroke="black" stroke-width="1" />
  <rect x="141.9732441471572" y="147.38846572361257" width="16.555183946488295" height="3.917301414581118" fill="red" />
  <line x1="168.64548494983276" y1="149.12948857453745" x2="168.64548494983276" y2="151.74102285092488" stroke="black" stroke-width="1" />
  <rect x="160.36789297658862" y="150.4352557127312" width="16.555183946488295" height="1.305767138193687" fill="green" />
  <line x1="187.0401337792642" y1="148.69423286180626" x2="187.0401337792642" y2="153.48204570184987" stroke="black" stroke-width="1" />
  <rect x="178.76254180602007" y="150.0" width="16.555183946488295" height="2.6115342763873173" fill="red" />
  <line x1="205.43478260869566" y1="150.0" x2="205.43478260869566" y2="152.61153427638732" stroke="black" stroke-width="1" />
  <rect x="197.1571906354515" y="150.4352557127312" width="16.555183946488295" height="2.176278563656126" fill="green" />
  <line x1="223.8294314381271" y1="149.5647442872688" x2="223.8294314381271" y2="153.91730141458106" stroke="black" stroke-width="1" />
  <rect x="215.55183946488296" y="149.5647442872688" width="16.555183946488295" height="2.1762785636560693" fill="red" />
  <line x1="242.22408026755855" y1="149.12948857453745" x2="242.22408026755855" y2="151.3057671381937" stroke="black" stroke-width="1" />
  <rect x="233.9464882943144" y="150.0" width="16.555183946488295" height="1.305767138193687" fill="green" />
  <line x1="260.61872909698997" y1="143.03590859630032" x2="260.61872909698997" y2="149.5647442872688" stroke="black" stroke-width="1" />
  <rect x="252.34113712374582" y="145.6474428726877" width="16.555183946488295" height="3.917301414581118" fill="green" />
  <line x1="279.0133779264214" y1="146.51795429815013" x2="279.0133779264214" y2="152.17627856365607" stroke="black" stroke-width="1" />
  <rect x="270.73578595317724" y="146.51795429815013" width="16.555183946488295" height="3.917301414581061" fill="red" />
  <line x1="297.4080267558529" y1="147.82372143634382" x2="297.4080267558529" y2="151.74102285092488" stroke="black" stroke-width="1" />
  <rect x="289.13043478260875" y="150.87051142546244" width="16.555183946488295" height="1" fill="red" />
  <line x1="315.8026755852843" y1="148.69423286180626" x2="315.8026755852843" y2="154.3525571273123" stroke="black" stroke-width="1" />
  <rect x="307.52508361204013" y="150.87051142546244" width="16.555183946488295" height="1" fill="green" />
  <line x1="334.19732441471575" y1="144.7769314472252" x2="334.19732441471575" y2="150.4352557127312" stroke="black" stroke-width="1" />
  <rect x="325.9197324414716" y="146.51795429815013" width="16.555183946488295" height="3.917301414581061" fill="green" />
  <line x1="352.5919732441472" y1="143.4711643090315" x2="352.5919732441472" y2="150.0" stroke="black" stroke-width="1" />
  <rect x="344.314381270903" y="145.2121871599564" width="16.555183946488295" height="3.046789989118622" fill="red" />
  <line x1="370.98662207357864" y1="147.82372143634382" x2="370.98662207357864" y2="150.4352557127312" stroke="black" stroke-width="1" />
  <rect x="362.7090301003345" y="147.82372143634382" width="16.555183946488295" height="1.7410228509249919" fill="red" />
  <line x1="389.3812709030101" y1="146.95321001088138" x2="389.3812709030101" y2="154.3525571273123" stroke="black" stroke-width="1" />
  <rect x="381.1036789297659" y="148.69423286180626" width="16.555183946488295" height="5.658324265506053" fill="red" />
  <line x1="407.77591973244154" y1="150.0" x2="407.77591973244154" y2="163.92818280739937" stroke="black" stroke-width="1" />
  <rect x="399.49832775919737" y="150.0" width="16.555183946488295" height="12.622415669205623" fill="red" />
  <line x1="426.170568561873" y1="154.3525571273123" x2="426.170568561873" y2="161.75190424374318" stroke="black" stroke-width="1" />
  <rect x="417.8929765886288" y="154.3525571273123" width="16.555183946488295" height="7.399347116430874" fill="green" />
  <line x1="444.5652173913044" y1="150.4352557127312" x2="444.5652173913044" y2="153.48204570184987" stroke="black" stroke-width="1" />
  <rect x="436.2876254180602" y="151.3057671381937" width="16.555183946488295" height="2.176278563656183" fill="green" />
  <line x1="462.9598662207358" y1="151.3057671381937" x2="462.9598662207358" y2="155.65832426550594" stroke="black" stroke-width="1" />
  <rect x="454.68227424749165" y="151.3057671381937" width="16.555183946488295" height="3.046789989118622" fill="red" />
  <line x1="481.35451505016727" y1="146.08269858541894" x2="481.35451505016727" y2="154.7878128400435" stroke="black" stroke-width="1" />
  <rect x="473.0769230769231" y="147.38846572361257" width="16.555183946488295" height="7.399347116430931" fill="green" />
  <line x1="499.7491638795987" y1="145.2121871599564" x2="499.7491638795987" y2="155.65832426550594" stroke="black" stroke-width="1" />
  <rect x="491.47157190635454" y="147.38846572361257" width="16.555183946488295" height="5.658324265506053" fill="red" />
  <line x1="518.1438127090302" y1="149.5647442872688" x2="518.1438127090302" y2="153.48204570184987" stroke="black" stroke-width="1" />
  <rect x="509.866220735786" y="151.74102285092488" width="16.555183946488295" height="1.305767138193744" fill="green" />
  <line x1="536.5384615384617" y1="146.51795429815013" x2="536.5384615384617" y2="152.61153427638732" stroke="black" stroke-width="1" />
  <rect x="528.2608695652175" y="147.38846572361257" width="16.555183946488295" height="3.046789989118622" fill="green" />
  <line x1="554.933110367893" y1="145.6474428726877" x2="554.933110367893" y2="149.5647442872688" stroke="black" stroke-width="1" />
  <rect x="546.6555183946489" y="145.6474428726877" width="16.555183946488295" height="1.7410228509248782" fill="green" />
  <line x1="573.3277591973244" y1="140.42437431991289" x2="573.3277591973244" y2="145.2121871599564" stroke="black" stroke-width="1" />
  <rect x="565.0501672240803" y="141.73014145810657" width="16.555183946488295" height="3.482045701849813" fill="green" />
  <line x1="591.7224080267559" y1="137.8128400435255" x2="591.7224080267559" y2="140.85963003264413" stroke="black" stroke-width="1" />
  <rect x="583.4448160535118" y="139.55386289445045" width="16.555183946488295" height="1.305767138193687" fill="green" />
</svg>