<svg width="800" height="300" xmlns="http://www.w3.org/2000/svg">
  <line x1="40" y1="250" x2="40" y2="50" stroke="black" stroke-width="2" />
  <line x1="35" y1="250.0" x2="40" y2="250.0" stroke="black" stroke-width="1" />
  <text x="10" y="255.0" font-size="10" fill="black">75</text>
  <line x1="40" y1="250.0" x2="780" y2="250.0" stroke="lightgray" stroke-width="1" stroke-dasharray="5,5" />
  <line x1="35" y1="210.0" x2="40" y2="210.0" stroke="black" stroke-width="1" />
  <text x="10" y="215.0" font-size="10" fill="black">85</text>
  <line x1="40" y1="210.0" x2="780" y2="210.0" stroke="lightgray" stroke-width="1" stroke-dasharray="5,5" />
  <line x1="35" y1="170.0" x2="40" y2="170.0" stroke="black" stroke-width="1" />
  <text x="10" y="175.0" font-size="10" fill="black">95</text>
  <line x1="40" y1="170.0" x2="780" y2="170.0" stroke="lightgray" stroke-width="1" stroke-dasharray="5,5" />
  <line x1="35" y1="130.0" x2="40" y2="130.0" stroke="black" stroke-width="1" />
  <text x="10" y="135.0" font-size="10" fill="black">105</text>
  <line x1="40" y1="130.0" x2="780" y2="130.0" stroke="lightgray" stroke-width="1" stroke-dasharray="5,5" />
  <line x1="35" y1="90.0" x2="40" y2="90.0" stroke="black" stroke-width="1" />
  <text x="10" y="95.0" font-size="10" fill="black">115</text>
  <line x1="40" y1="90.0" x2="780" y2="90.0" stroke="lightgray" stroke-width="1" stroke-dasharray="5,5" />
  <line x1="35" y1="50.0" x2="40" y2="50.0" stroke="black" stroke-width="1" />
  <text x="10" y="55.0" font-size="10" fill="black">125</text>
  <line x1="40" y1="50.0" x2="780" y2="50.0" stroke="lightgray" stroke-width="1" stroke-dasharray="5,5" />
  <line x1="58.27759197324415" y1="142.00444197667963" x2="58.27759197324415" y2="150.0" stroke="black" stroke-width="1" />
  <rect x="50.0" y="146.22431982232092" width="16.555183946488295" height="3.775680177679078" fill="green" />
  <line x1="76.67224080267559" y1="141.11604664075514" x2="76.67224080267559" y2="148.6674069961133" stroke="black" stroke-width="1" />
  <rect x="68.39464882943145" y="145.11382565241536" width="16.555183946488295" height="1.1104941699055644" fill="green" />
  <line x1="95.06688963210702" y1="130.8995002776236" x2="95.06688963210702" y2="142.22654081066077" stroke="black" stroke-width="1" />
  <rect x="86.78929765886288" y="138.67295946696282" width="16.555183946488295" height="2.6651860077735137" fill="green" />
  <line x1="113.46153846153845" y1="136.00777345918937" x2="113.46153846153845" y2="140.4497501388118" stroke="black" stroke-width="1" />
  <rect x="105.18394648829431" y="136.00777345918937" width="16.555183946488295" height="1" fill="green" />
  <line x1="131.8561872909699" y1="129.56690727373683" x2="131.8561872909699" y2="136.89616879511385" stroke="black" stroke-width="1" />
  <rect x="123.57859531772576" y="129.56690727373683" width="16.555183946488295" height="6.440866185452535" fill="green" />
  <line x1="150.25083612040135" y1="121.7934480843976" x2="150.25083612040135" y2="129.56690727373683" stroke="black" stroke-width="1" />
  <rect x="141.9732441471572" y="123.1260410882843" width="16.555183946488295" height="6.440866185452535" fill="green" />
  <line x1="168.64548494983276" y1="123.1260410882843" x2="168.64548494983276" y2="133.12048861743477" stroke="black" stroke-width="1" />
  <rect x="160.36789297658862" y="123.34813992226543" width="16.555183946488295" height="9.106052193225992" fill="red" />
  <line x1="187.0401337792642" y1="130.45530260966132" x2="187.0401337792642" y2="136.00777345918937" stroke="black" stroke-width="1" />
  <rect x="178.76254180602007" y="131.3436979455858" width="16.555183946488295" height="1" fill="red" />
  <line x1="205.43478260869566" y1="129.56690727373683" x2="205.43478260869566" y2="143.11493614658525" stroke="black" stroke-width="1" />
  <rect x="197.1571906354515" y="131.56579677956694" width="16.555183946488295" height="11.327040533037291" fill="red" />
  <line x1="223.8294314381271" y1="127.79011660188786" x2="223.8294314381271" y2="141.33814547473634" stroke="black" stroke-width="1" />
  <rect x="215.55183946488296" y="129.3448084397557" width="16.555183946488295" height="11.993337034980641" fill="green" />
  <line x1="242.22408026755855" y1="124.90283176013327" x2="242.22408026755855" y2="132.89838978345364" stroke="black" stroke-width="1" />
  <rect x="233.9464882943144" y="125.79122709605775" width="16.555183946488295" height="3.5535813436979424" fill="green" />
  <line x1="260.61872909698997" y1="125.79122709605775" x2="260.61872909698997" y2="138.67295946696282" stroke="black" stroke-width="1" />
  <rect x="252.34113712374582" y="125.79122709605775" width="16.555183946488295" height="2.8872848417545924" fill="red" />
  <line x1="279.0133779264214" y1="122.45974458634095" x2="279.0133779264214" y2="134.45308162132153" stroke="black" stroke-width="1" />
  <rect x="270.73578595317724" y="125.1249305941144" width="16.555183946488295" height="7.3292615213770205" fill="green" />
  <line x1="297.4080267558529" y1="105.35813436979458" x2="297.4080267558529" y2="127.12382009994451" stroke="black" stroke-width="1" />
  <rect x="289.13043478260875" y="109.3559133814548" width="16.555183946488295" height="17.767906718489712" fill="green" />
  <line x1="315.8026755852843" y1="104.91393670183237" x2="315.8026755852843" y2="118.906163242643" stroke="black" stroke-width="1" />
  <rect x="307.52508361204013" y="104.91393670183237" width="16.555183946488295" height="4.441976679622428" fill="green" />
  <line x1="334.19732441471575" y1="104.91393670183237" x2="334.19732441471575" y2="113.79789006107723" stroke="black" stroke-width="1" />
  <rect x="325.9197324414716" y="104.91393670183237" width="16.555183946488295" height="6.662965019433614" fill="red" />
  <line x1="352.5919732441472" y1="90.25541365907833" x2="352.5919732441472" y2="106.02443087173799" stroke="black" stroke-width="1" />
  <rect x="344.314381270903" y="94.69739033870076" width="16.555183946488295" height="9.772348695169342" fill="green" />
  <line x1="370.98662207357864" y1="92.0322043309273" x2="370.98662207357864" y2="104.02554136590788" stroke="black" stroke-width="1" />
  <rect x="362.7090301003345" y="94.25319267073854" width="16.555183946488295" height="5.774569683509128" fill="red" />
  <line x1="389.3812709030101" y1="94.25319267073854" x2="389.3812709030101" y2="98.2509716823987" stroke="black" stroke-width="1" />
  <rect x="381.1036789297659" y="96.47418101054967" width="16.555183946488295" height="1" fill="green" />
  <line x1="407.77591973244154" y1="80.48306496390899" x2="407.77591973244154" y2="96.47418101054967" stroke="black" stroke-width="1" />
  <rect x="399.49832775919737" y="82.70405330372023" width="16.555183946488295" height="7.551360355358099" fill="green" />
  <line x1="426.170568561873" y1="82.70405330372023" x2="426.170568561873" y2="87.14602998334266" stroke="black" stroke-width="1" />
  <rect x="417.8929765886288" y="82.70405330372023" width="16.555183946488295" height="3.5535813436979424" fill="red" />
  <line x1="444.5652173913044" y1="84.4808439755692" x2="444.5652173913044" y2="91.58800666296509" stroke="black" stroke-width="1" />
  <rect x="436.2876254180602" y="88.92282065519152" width="16.555183946488295" height="2.6651860077735705" fill="red" />
  <line x1="462.9598662207358" y1="87.59022765130487" x2="462.9598662207358" y2="96.02998334258751" stroke="black" stroke-width="1" />
  <rect x="454.68227424749165" y="91.58800666296509" width="16.555183946488295" height="1" fill="red" />
  <line x1="481.35451505016727" y1="77.81787895613547" x2="481.35451505016727" y2="88.47862298722936" stroke="black" stroke-width="1" />
  <rect x="473.0769230769231" y="80.03886729594677" width="16.555183946488295" height="7.551360355358099" fill="green" />
  <line x1="499.7491638795987" y1="79.15047196002229" x2="499.7491638795987" y2="88.47862298722936" stroke="black" stroke-width="1" />
  <rect x="491.47157190635454" y="80.03886729594677" width="16.555183946488295" height="8.439755691282585" fill="red" />
  <line x1="518.1438127090302" y1="76.04108828428656" x2="518.1438127090302" y2="92.0322043309273" stroke="black" stroke-width="1" />
  <rect x="509.866220735786" y="76.48528595224883" width="16.555183946488295" height="15.54691837867847" fill="green" />
  <line x1="536.5384615384617" y1="73.37590227651305" x2="536.5384615384617" y2="87.59022765130487" stroke="black" stroke-width="1" />
  <rect x="528.2608695652175" y="79.15047196002229" width="16.555183946488295" height="4.441976679622428" fill="red" />
  <line x1="554.933110367893" y1="82.25985563575796" x2="554.933110367893" y2="91.14380899500281" stroke="black" stroke-width="1" />
  <rect x="546.6555183946489" y="83.59244863964472" width="16.555183946488295" height="6.662965019433614" fill="red" />
  <line x1="573.3277591973244" y1="82.25985563575796" x2="573.3277591973244" y2="89.36701832315384" stroke="black" stroke-width="1" />
  <rect x="565.0501672240803" y="85.8134369794559" width="16.555183946488295" height="1" fill="green" />
  <line x1="591.7224080267559" y1="77.3736812881732" x2="591.7224080267559" y2="85.8134369794559" stroke="black" stroke-width="1" />
  <rect x="583.4448160535118" y="84.03664630760693" width="16.555183946488295" height="1.7767906718489712" fill="green" />
</svg>