<svg width="800" height="300" xmlns="http://www.w3.org/2000/svg">
  <line x1="40" y1="250" x2="40" y2="50" stroke="black" stroke-width="2" />
  <line x1="35" y1="250.0" x2="40" y2="250.0" stroke="black" stroke-width="1" />
  <text x="10" y="255.0" font-size="10" fill="black">75</text>
  <line x1="40" y1="250.0" x2="780" y2="250.0" stroke="lightgray" stroke-width="1" stroke-dasharray="5,5" />
  <line x1="35" y1="210.0" x2="40" y2="210.0" stroke="black" stroke-width="1" />
  <text x="10" y="215.0" font-size="10" fill="black">85</text>
  <line x1="40" y1="210.0" x2="780" y2="210.0" stroke="lightgray" stroke-width="1" stroke-dasharray="5,5" />
  <line x1="35" y1="170.0" x2="40" y2="170.0" stroke="black" stroke-width="1" />
  <text x="10" y="175.0" font-size="10" fill="black">95</text>
  <line x1="40" y1="170.0" x2="780" y2="170.0" stroke="lightgray" stroke-width="1" stroke-dasharray="5,5" />
  <line x1="35" y1="130.0" x2="40" y2="130.0" stroke="black" stroke-width="1" />
  <text x="10" y="135.0" font-size="10" fill="black">105</text>
  <line x1="40" y1="130.0" x2="780" y2="130.0" stroke="lightgray" stroke-width="1" stroke-dasharray="5,5" />
  <line x1="35" y1="90.0" x2="40" y2="90.0" stroke="black" stroke-width="1" />
  <text x="10" y="95.0" font-size="10" fill="black">115</text>
  <line x1="40" y1="90.0" x2="780" y2="90.0" stroke="lightgray" stroke-width="1" stroke-dasharray="5,5" />
  <line x1="35" y1="50.0" x2="40" y2="50.0" stroke="black" stroke-width="1" />
  <text x="10" y="55.0" font-size="10" fill="black">125</text>
  <line x1="40" y1="50.0" x2="780" y2="50.0" stroke="lightgray" stroke-width="1" stroke-dasharray="5,5" />
  <line x1="58.27759197324415" y1="146.03106125970663" x2="58.27759197324415" y2="150.0" stroke="black" stroke-width="1" />
  <rect x="50.0" y="147.23899913718725" width="16.555183946488295" height="2.7610008628127503" fill="green" />
  <line x1="76.67224080267559" y1="144.30543572044866" x2="76.67224080267559" y2="146.89387402933562" stroke="black" stroke-width="1" />
  <rect x="68.39464882943145" y="145.16824849007764" width="16.555183946488295" height="1.553062985332133" fill="green" />
  <line x1="95.06688963210702" y1="143.18377911993093" x2="95.06688963210702" y2="146.54874892148405" stroke="black" stroke-width="1" />
  <rect x="86.78929765886288" y="144.04659188956003" width="16.555183946488295" height="1" fill="green" />
  <line x1="113.46153846153845" y1="141.02674719585855" x2="113.46153846153845" y2="144.9094046591889" stroke="black" stroke-width="1" />
  <rect x="105.18394648829431" y="142.9249352890423" width="16.555183946488295" height="1.1216566005177242" fill="green" />
  <line x1="131.8561872909699" y1="135.504745470233" x2="131.8561872909699" y2="143.0974978429681" stroke="black" stroke-width="1" />
  <rect x="123.57859531772576" y="135.504745470233" width="16.555183946488295" height="7.42018981880932" fill="green" />
  <line x1="150.25083612040135" y1="135.15962036238136" x2="150.25083612040135" y2="138.7834339948231" stroke="black" stroke-width="1" />
  <rect x="141.9732441471572" y="135.67730802415872" width="16.555183946488295" height="1.9844693701467122" fill="red" />
  <line x1="168.64548494983276" y1="139.30112165660046" x2="168.64548494983276" y2="143.01121656600515" stroke="black" stroke-width="1" />
  <rect x="160.36789297658862" y="139.30112165660046" width="16.555183946488295" height="1" fill="red" />
  <line x1="187.0401337792642" y1="137.4892148403796" x2="187.0401337792642" y2="141.19930974978428" stroke="black" stroke-width="1" />
  <rect x="178.76254180602007" y="139.12855910267473" width="16.555183946488295" height="1.2079378774806173" fill="green" />
  <line x1="205.43478260869566" y1="132.6574633304573" x2="205.43478260869566" y2="139.6462467644521" stroke="black" stroke-width="1" />
  <rect x="197.1571906354515" y="132.6574633304573" width="16.555183946488295" height="6.988783433994797" fill="green" />
  <line x1="223.8294314381271" y1="128.51596203623814" x2="223.8294314381271" y2="133.08886971527176" stroke="black" stroke-width="1" />
  <rect x="215.55183946488296" y="128.94736842105266" width="16.555183946488295" height="2.674719585849857" fill="green" />
  <line x1="242.22408026755855" y1="124.97842968075929" x2="242.22408026755855" y2="133.3477135461605" stroke="black" stroke-width="1" />
  <rect x="233.9464882943144" y="125.92752372735117" width="16.555183946488295" height="4.659188955996569" fill="green" />
  <line x1="260.61872909698997" y1="120.40552200172561" x2="260.61872909698997" y2="126.10008628127696" stroke="black" stroke-width="1" />
  <rect x="252.34113712374582" y="122.13114754098359" width="16.555183946488295" height="3.7963761863675813" fill="green" />
  <line x1="279.0133779264214" y1="124.37446074201898" x2="279.0133779264214" y2="129.89646246764454" stroke="black" stroke-width="1" />
  <rect x="270.73578595317724" y="125.75496117342533" width="16.555183946488295" height="2.5884383088870777" fill="red" />
  <line x1="297.4080267558529" y1="127.82571182053493" x2="297.4080267558529" y2="131.36324417601378" stroke="black" stroke-width="1" />
  <rect x="289.13043478260875" y="128.3433994823124" width="16.555183946488295" height="2.1570319240723848" fill="red" />
  <line x1="315.8026755852843" y1="127.91199309749788" x2="315.8026755852843" y2="134.29680759275237" stroke="black" stroke-width="1" />
  <rect x="307.52508361204013" y="131.36324417601378" width="16.555183946488295" height="1" fill="green" />
  <line x1="334.19732441471575" y1="126.79033649698016" x2="334.19732441471575" y2="131.01811906816215" stroke="black" stroke-width="1" />
  <rect x="325.9197324414716" y="128.1708369283865" width="16.555183946488295" height="1.7256255392580329" fill="green" />
  <line x1="352.5919732441472" y1="124.02933563416741" x2="352.5919732441472" y2="131.44952545297667" stroke="black" stroke-width="1" />
  <rect x="344.314381270903" y="127.65314926660915" width="16.555183946488295" height="2.9335634167385933" fill="red" />
  <line x1="370.98662207357864" y1="124.28817946505603" x2="370.98662207357864" y2="129.81018119068153" stroke="black" stroke-width="1" />
  <rect x="362.7090301003345" y="128.1708369283865" width="16.555183946488295" height="1" fill="green" />
  <line x1="389.3812709030101" y1="119.45642795513373" x2="389.3812709030101" y2="125.5823986194996" stroke="black" stroke-width="1" />
  <rect x="381.1036789297659" y="121.2683347713546" width="16.555183946488295" height="3.3649698015531158" fill="green" />
  <line x1="407.77591973244154" y1="114.1069887834339" x2="407.77591973244154" y2="120.40552200172561" stroke="black" stroke-width="1" />
  <rect x="399.49832775919737" y="115.832614322692" width="16.555183946488295" height="4.055220017256204" fill="green" />
  <line x1="426.170568561873" y1="115.1423641069888" x2="426.170568561873" y2="120.23295944779983" stroke="black" stroke-width="1" />
  <rect x="417.8929765886288" y="116.52286453839514" width="16.555183946488295" height="3.623813632441795" fill="red" />
  <line x1="444.5652173913044" y1="117.38567730802413" x2="444.5652173913044" y2="126.87661777394305" stroke="black" stroke-width="1" />
  <rect x="436.2876254180602" y="119.28386540120795" width="16.555183946488295" height="1" fill="red" />
  <line x1="462.9598662207358" y1="114.62467644521138" x2="462.9598662207358" y2="121.52717860224334" stroke="black" stroke-width="1" />
  <rect x="454.68227424749165" y="117.55823986194997" width="16.555183946488295" height="1.9844693701466554" fill="green" />
  <line x1="481.35451505016727" y1="109.10267471958582" x2="481.35451505016727" y2="137.31665228645386" stroke="black" stroke-width="1" />
  <rect x="473.0769230769231" y="114.1069887834339" width="16.555183946488295" height="14.840379637618753" fill="red" />
  <line x1="499.7491638795987" y1="123.77049180327867" x2="499.7491638795987" y2="135.59102674719583" stroke="black" stroke-width="1" />
  <rect x="491.47157190635454" y="128.51596203623814" width="16.555183946488295" height="3.0198446937014864" fill="red" />
  <line x1="518.1438127090302" y1="122.56255392579811" x2="518.1438127090302" y2="131.7083692838654" stroke="black" stroke-width="1" />
  <rect x="509.866220735786" y="123.77049180327867" width="16.555183946488295" height="6.557377049180332" fill="green" />
  <line x1="536.5384615384617" y1="111.00086281276964" x2="536.5384615384617" y2="117.04055220017261" stroke="black" stroke-width="1" />
  <rect x="528.2608695652175" y="111.86367558239863" width="16.555183946488295" height="3.7963761863675245" fill="green" />
  <line x1="554.933110367893" y1="103.23554788610869" x2="554.933110367893" y2="113.93442622950818" stroke="black" stroke-width="1" />
  <rect x="546.6555183946489" y="103.23554788610869" width="16.555183946488295" height="9.663503019844711" fill="green" />
  <line x1="573.3277591973244" y1="84.59879206212253" x2="573.3277591973244" y2="98.74892148403802" stroke="black" stroke-width="1" />
  <rect x="565.0501672240803" y="90.29335634167381" width="16.555183946488295" height="3.9689387402933676" fill="green" />
  <line x1="591.7224080267559" y1="84.08110440034511" x2="591.7224080267559" y2="93.05435720448656" stroke="black" stroke-width="1" />
  <rect x="583.4448160535118" y="86.66954270923208" width="16.555183946488295" height="3.6238136324417383" fill="green" />
</svg>