<svg width="800" height="300" xmlns="http://www.w3.org/2000/svg">
  <line x1="40" y1="250" x2="40" y2="50" stroke="black" stroke-width="2" />
  <line x1="35" y1="250.0" x2="40" y2="250.0" stroke="black" stroke-width="1" />
  <text x="10" y="255.0" font-size="10" fill="black">75</text>
  <line x1="40" y1="250.0" x2="780" y2="250.0" stroke="lightgray" stroke-width="1" stroke-dasharray="5, 5" />
  <line x1="35" y1="210.0" x2="40" y2="210.0" stroke="black" stroke-width="1" />
  <text x="10" y="215.0" font-size="10" fill="black">85</text>
  <line x1="40" y1="210.0" x2="780" y2="210.0" stroke="lightgray" stroke-width="1" stroke-dasharray="5, 5" />
  <line x1="35" y1="170.0" x2="40" y2="170.0" stroke="black" stroke-width="1" />
  <text x="10" y="175.0" font-size="10" fill="black">95</text>
  <line x1="40" y1="170.0" x2="780" y2="170.0" stroke="lightgray" stroke-width="1" stroke-dasharray="5, 5" />
  <line x1="35" y1="130.0" x2="40" y2="130.0" stroke="black" stroke-width="1" />
  <text x="10" y="135.0" font-size="10" fill="black">105</text>
  <line x1="40" y1="130.0" x2="780" y2="130.0" stroke="lightgray" stroke-width="1" stroke-dasharray="5, 5" />
  <line x1="35" y1="90.0" x2="40" y2="90.0" stroke="black" stroke-width="1" />
  <text x="10" y="95.0" font-size="10" fill="black">115</text>
  <line x1="40" y1="90.0" x2="780" y2="90.0" stroke="lightgray" stroke-width="1" stroke-dasharray="5, 5" />
  <line x1="35" y1="50.0" x2="40" y2="50.0" stroke="black" stroke-width="1" />
  <text x="10" y="55.0" font-size="10" fill="black">125</text>
  <line x1="40" y1="50.0" x2="780" y2="50.0" stroke="lightgray" stroke-width="1" stroke-dasharray="5, 5" />
  <line x1="35" y1="150.0" x2="40" y2="150.0" stroke="black" stroke-width="1" />
  <text x="10" y="155.0" font-size="10" fill="black">100</text>
  <line x1="40" y1="150.0" x2="780" y2="150.0" stroke="lightgray" stroke-width="1" stroke-dasharray="5, 5" />
  <line x1="48.666666666666664" y1="150.0" x2="48.666666666666664" y2="154.32972522897586" stroke="black" stroke-width="1" />
  <rect x="40.86666666666667" y="150.0" width="15.6" height="1.665278934221476" fill="red" />
  <line x1="66.0" y1="148.00166527893418" x2="66.0" y2="154.99583680266443" stroke="black" stroke-width="1" />
  <rect x="58.199999999999996" y="151.66527893422148" width="15.6" height="1.9983347210657598" fill="red" />
  <line x1="83.33333333333333" y1="143.00582847626976" x2="83.33333333333333" y2="154.99583680266443" stroke="black" stroke-width="1" />
  <rect x="75.53333333333332" y="143.67194004995838" width="15.6" height="9.991673605328856" fill="green" />
  <line x1="100.66666666666667" y1="142.33971690258113" x2="100.66666666666667" y2="146.3363863447127" stroke="black" stroke-width="1" />
  <rect x="92.86666666666666" y="143.3388842631141" width="15.6" height="1.3322231473771353" fill="green" />
  <line x1="118.0" y1="135.67860116569523" x2="118.0" y2="146.66944213155705" stroke="black" stroke-width="1" />
  <rect x="110.19999999999999" y="136.0116569525395" width="15.6" height="9.325562031640288" fill="green" />
  <line x1="135.33333333333331" y1="132.34804329725227" x2="135.33333333333331" y2="141.67360532889256" stroke="black" stroke-width="1" />
  <rect x="127.53333333333332" y="133.68026644462947" width="15.6" height="3.9966694421315765" fill="green" />
  <line x1="152.66666666666666" y1="134.0133222314737" x2="152.66666666666666" y2="141.67360532889256" stroke="black" stroke-width="1" />
  <rect x="144.86666666666667" y="134.3463780183181" width="15.6" height="2.9975020815985545" fill="red" />
  <line x1="169.99999999999997" y1="129.6835970024979" x2="169.99999999999997" y2="137.01082431307248" stroke="black" stroke-width="1" />
  <rect x="162.2" y="133.0141548709409" width="15.6" height="2.9975020815986113" fill="green" />
  <line x1="187.33333333333331" y1="129.3505412156536" x2="187.33333333333331" y2="134.3463780183181" stroke="black" stroke-width="1" />
  <rect x="179.53333333333333" y="129.6835970024979" width="15.6" height="3.9966694421315765" fill="green" />
  <line x1="204.66666666666666" y1="127.01915070774356" x2="204.66666666666666" y2="133.0141548709409" stroke="black" stroke-width="1" />
  <rect x="196.86666666666667" y="127.01915070774356" width="15.6" height="5.328892589508712" fill="green" />
  <line x1="221.99999999999997" y1="124.02164862614484" x2="221.99999999999997" y2="131.01582014987503" stroke="black" stroke-width="1" />
  <rect x="214.2" y="125.68692756036637" width="15.6" height="1.3322231473771922" fill="green" />
  <line x1="239.33333333333331" y1="121.35720233139057" x2="239.33333333333331" y2="139.6752706078268" stroke="black" stroke-width="1" />
  <rect x="231.53333333333333" y="131.01582014987503" width="15.6" height="5.661948376353109" fill="red" />
  <line x1="256.6666666666667" y1="141.00749375520405" x2="256.6666666666667" y2="146.00333055786842" stroke="black" stroke-width="1" />
  <rect x="248.86666666666667" y="143.3388842631141" width="15.6" height="1" fill="green" />
  <line x1="274.0" y1="143.00582847626976" x2="274.0" y2="152.99750208159867" stroke="black" stroke-width="1" />
  <rect x="266.2" y="145.3372189841798" width="15.6" height="7.3272273105745285" fill="red" />
  <line x1="291.3333333333333" y1="153.99666944213152" x2="291.3333333333333" y2="166.31973355537053" stroke="black" stroke-width="1" />
  <rect x="283.5333333333333" y="155.661948376353" width="15.6" height="10.324729392173197" fill="red" />
  <line x1="308.6666666666667" y1="158.99250624479595" x2="308.6666666666667" y2="164.98751040799334" stroke="black" stroke-width="1" />
  <rect x="300.8666666666667" y="163.65528726061615" width="15.6" height="1" fill="red" />
  <line x1="326.0" y1="160.99084096586176" x2="326.0" y2="169.65029142381348" stroke="black" stroke-width="1" />
  <rect x="318.2" y="163.65528726061615" width="15.6" height="4.662781015820144" fill="red" />
  <line x1="343.3333333333333" y1="165.9866777685262" x2="343.3333333333333" y2="172.64779350541215" stroke="black" stroke-width="1" />
  <rect x="335.5333333333333" y="166.9858451290591" width="15.6" height="2.997502081598668" fill="red" />
  <line x1="360.6666666666667" y1="161.99000832639467" x2="360.6666666666667" y2="173.31390507910072" stroke="black" stroke-width="1" />
  <rect x="352.8666666666667" y="162.32306411323896" width="15.6" height="7.660283097418812" fill="red" />
  <line x1="378.0" y1="137.01082431307248" x2="378.0" y2="157.6602830974188" stroke="black" stroke-width="1" />
  <rect x="370.2" y="141.67360532889256" width="15.6" height="10.324729392173197" fill="red" />
  <line x1="395.3333333333333" y1="147.00249791840133" x2="395.3333333333333" y2="154.32972522897586" stroke="black" stroke-width="1" />
  <rect x="387.5333333333333" y="151.66527893422148" width="15.6" height="1.9983347210657598" fill="green" />
  <line x1="412.6666666666667" y1="143.67194004995838" x2="412.6666666666667" y2="151.66527893422148" stroke="black" stroke-width="1" />
  <rect x="404.8666666666667" y="143.67194004995838" width="15.6" height="6.661115736885904" fill="green" />
  <line x1="430.0" y1="131.68193172356365" x2="430.0" y2="146.00333055786842" stroke="black" stroke-width="1" />
  <rect x="422.2" y="132.014987510408" width="15.6" height="12.323064113239013" fill="green" />
  <line x1="447.3333333333333" y1="110.03330557868446" x2="447.3333333333333" y2="129.01748542880932" stroke="black" stroke-width="1" />
  <rect x="439.5333333333333" y="110.03330557868446" width="15.6" height="17.985012489591952" fill="green" />
  <line x1="464.6666666666667" y1="109.03413821815155" x2="464.6666666666667" y2="121.35720233139057" stroke="black" stroke-width="1" />
  <rect x="456.8666666666667" y="111.03247293921726" width="15.6" height="5.661948376353109" fill="red" />
  <line x1="482.0" y1="115.02914238134883" x2="482.0" y2="122.02331390507908" stroke="black" stroke-width="1" />
  <rect x="474.2" y="117.36053288925888" width="15.6" height="1.332223147377249" fill="red" />
  <line x1="499.3333333333333" y1="113.03080766028313" x2="499.3333333333333" y2="119.02581182348041" stroke="black" stroke-width="1" />
  <rect x="491.5333333333333" y="115.02914238134883" width="15.6" height="2.3313905079100437" fill="red" />
  <line x1="516.6666666666666" y1="107.7019150707743" x2="516.6666666666666" y2="119.02581182348041" stroke="black" stroke-width="1" />
  <rect x="508.8666666666666" y="108.0349708576187" width="15.6" height="10.657785179017424" fill="green" />
  <line x1="533.9999999999999" y1="93.0474604496253" x2="533.9999999999999" y2="103.70524562864273" stroke="black" stroke-width="1" />
  <rect x="526.1999999999999" y="94.37968359700244" width="15.6" height="9.325562031640288" fill="green" />
  <line x1="551.3333333333333" y1="97.37718567860111" x2="551.3333333333333" y2="102.03996669442131" stroke="black" stroke-width="1" />
  <rect x="543.5333333333333" y="99.04246461282264" width="15.6" height="1.3322231473771353" fill="red" />

<line x1="40" y1="50" x2="600" y2="50" stroke="blue" stroke-width="2" />
   <text x="610" y="55" font-size="10" fill="blue">Support Level</text>
</svg>