<svg width="800" height="300" xmlns="http://www.w3.org/2000/svg">
  <line x1="40" y1="250" x2="40" y2="50" stroke="black" stroke-width="2" />
  <line x1="35" y1="250.0" x2="40" y2="250.0" stroke="black" stroke-width="1" />
  <text x="10" y="255.0" font-size="10" fill="black">75</text>
  <line x1="40" y1="250.0" x2="780" y2="250.0" stroke="lightgray" stroke-width="1" stroke-dasharray="5, 5" />
  <line x1="35" y1="210.0" x2="40" y2="210.0" stroke="black" stroke-width="1" />
  <text x="10" y="215.0" font-size="10" fill="black">85</text>
  <line x1="40" y1="210.0" x2="780" y2="210.0" stroke="lightgray" stroke-width="1" stroke-dasharray="5, 5" />
  <line x1="35" y1="170.0" x2="40" y2="170.0" stroke="black" stroke-width="1" />
  <text x="10" y="175.0" font-size="10" fill="black">95</text>
  <line x1="40" y1="170.0" x2="780" y2="170.0" stroke="lightgray" stroke-width="1" stroke-dasharray="5, 5" />
  <line x1="35" y1="130.0" x2="40" y2="130.0" stroke="black" stroke-width="1" />
  <text x="10" y="135.0" font-size="10" fill="black">105</text>
  <line x1="40" y1="130.0" x2="780" y2="130.0" stroke="lightgray" stroke-width="1" stroke-dasharray="5, 5" />
  <line x1="35" y1="90.0" x2="40" y2="90.0" stroke="black" stroke-width="1" />
  <text x="10" y="95.0" font-size="10" fill="black">115</text>
  <line x1="40" y1="90.0" x2="780" y2="90.0" stroke="lightgray" stroke-width="1" stroke-dasharray="5, 5" />
  <line x1="35" y1="50.0" x2="40" y2="50.0" stroke="black" stroke-width="1" />
  <text x="10" y="55.0" font-size="10" fill="black">125</text>
  <line x1="40" y1="50.0" x2="780" y2="50.0" stroke="lightgray" stroke-width="1" stroke-dasharray="5, 5" />
  <line x1="35" y1="150.0" x2="40" y2="150.0" stroke="black" stroke-width="1" />
  <text x="10" y="155.0" font-size="10" fill="black">100</text>
  <line x1="40" y1="150.0" x2="780" y2="150.0" stroke="lightgray" stroke-width="1" stroke-dasharray="5, 5" />
  <line x1="48.666666666666664" y1="146.03106125970663" x2="48.666666666666664" y2="150.0" stroke="black" stroke-width="1" />
  <rect x="40.86666666666667" y="147.23899913718725" width="15.6" height="2.7610008628127503" fill="green" />
  <line x1="66.0" y1="144.30543572044866" x2="66.0" y2="146.89387402933562" stroke="black" stroke-width="1" />
  <rect x="58.199999999999996" y="145.16824849007764" width="15.6" height="1.553062985332133" fill="green" />
  <line x1="83.33333333333333" y1="143.18377911993093" x2="83.33333333333333" y2="146.54874892148405" stroke="black" stroke-width="1" />
  <rect x="75.53333333333332" y="144.04659188956003" width="15.6" height="1" fill="green" />
  <line x1="100.66666666666667" y1="141.02674719585855" x2="100.66666666666667" y2="144.9094046591889" stroke="black" stroke-width="1" />
  <rect x="92.86666666666666" y="142.9249352890423" width="15.6" height="1.1216566005177242" fill="green" />
  <line x1="118.0" y1="135.504745470233" x2="118.0" y2="143.0974978429681" stroke="black" stroke-width="1" />
  <rect x="110.19999999999999" y="135.504745470233" width="15.6" height="7.42018981880932" fill="green" />
  <line x1="135.33333333333331" y1="135.15962036238136" x2="135.33333333333331" y2="138.7834339948231" stroke="black" stroke-width="1" />
  <rect x="127.53333333333332" y="135.67730802415872" width="15.6" height="1.9844693701467122" fill="red" />
  <line x1="152.66666666666666" y1="139.30112165660046" x2="152.66666666666666" y2="143.01121656600515" stroke="black" stroke-width="1" />
  <rect x="144.86666666666667" y="139.30112165660046" width="15.6" height="1" fill="red" />
  <line x1="169.99999999999997" y1="137.4892148403796" x2="169.99999999999997" y2="141.19930974978428" stroke="black" stroke-width="1" />
  <rect x="162.2" y="139.12855910267473" width="15.6" height="1.2079378774806173" fill="green" />
  <line x1="187.33333333333331" y1="132.6574633304573" x2="187.33333333333331" y2="139.6462467644521" stroke="black" stroke-width="1" />
  <rect x="179.53333333333333" y="132.6574633304573" width="15.6" height="6.988783433994797" fill="green" />
  <line x1="204.66666666666666" y1="128.51596203623814" x2="204.66666666666666" y2="133.08886971527176" stroke="black" stroke-width="1" />
  <rect x="196.86666666666667" y="128.94736842105266" width="15.6" height="2.674719585849857" fill="green" />
  <line x1="221.99999999999997" y1="124.97842968075929" x2="221.99999999999997" y2="133.3477135461605" stroke="black" stroke-width="1" />
  <rect x="214.2" y="125.92752372735117" width="15.6" height="4.659188955996569" fill="green" />
  <line x1="239.33333333333331" y1="120.40552200172561" x2="239.33333333333331" y2="126.10008628127696" stroke="black" stroke-width="1" />
  <rect x="231.53333333333333" y="122.13114754098359" width="15.6" height="3.7963761863675813" fill="green" />
  <line x1="256.6666666666667" y1="124.37446074201898" x2="256.6666666666667" y2="129.89646246764454" stroke="black" stroke-width="1" />
  <rect x="248.86666666666667" y="125.75496117342533" width="15.6" height="2.5884383088870777" fill="red" />
  <line x1="274.0" y1="127.82571182053493" x2="274.0" y2="131.36324417601378" stroke="black" stroke-width="1" />
  <rect x="266.2" y="128.3433994823124" width="15.6" height="2.1570319240723848" fill="red" />
  <line x1="291.3333333333333" y1="127.91199309749788" x2="291.3333333333333" y2="134.29680759275237" stroke="black" stroke-width="1" />
  <rect x="283.5333333333333" y="131.36324417601378" width="15.6" height="1" fill="green" />
  <line x1="308.6666666666667" y1="126.79033649698016" x2="308.6666666666667" y2="131.01811906816215" stroke="black" stroke-width="1" />
  <rect x="300.8666666666667" y="128.1708369283865" width="15.6" height="1.7256255392580329" fill="green" />
  <line x1="326.0" y1="124.02933563416741" x2="326.0" y2="131.44952545297667" stroke="black" stroke-width="1" />
  <rect x="318.2" y="127.65314926660915" width="15.6" height="2.9335634167385933" fill="red" />
  <line x1="343.3333333333333" y1="124.28817946505603" x2="343.3333333333333" y2="129.81018119068153" stroke="black" stroke-width="1" />
  <rect x="335.5333333333333" y="128.1708369283865" width="15.6" height="1" fill="green" />
  <line x1="360.6666666666667" y1="119.45642795513373" x2="360.6666666666667" y2="125.5823986194996" stroke="black" stroke-width="1" />
  <rect x="352.8666666666667" y="121.2683347713546" width="15.6" height="3.3649698015531158" fill="green" />
  <line x1="378.0" y1="114.1069887834339" x2="378.0" y2="120.40552200172561" stroke="black" stroke-width="1" />
  <rect x="370.2" y="115.832614322692" width="15.6" height="4.055220017256204" fill="green" />
  <line x1="395.3333333333333" y1="115.1423641069888" x2="395.3333333333333" y2="120.23295944779983" stroke="black" stroke-width="1" />
  <rect x="387.5333333333333" y="116.52286453839514" width="15.6" height="3.623813632441795" fill="red" />
  <line x1="412.6666666666667" y1="117.38567730802413" x2="412.6666666666667" y2="126.87661777394305" stroke="black" stroke-width="1" />
  <rect x="404.8666666666667" y="119.28386540120795" width="15.6" height="1" fill="red" />
  <line x1="430.0" y1="114.62467644521138" x2="430.0" y2="121.52717860224334" stroke="black" stroke-width="1" />
  <rect x="422.2" y="117.55823986194997" width="15.6" height="1.9844693701466554" fill="green" />
  <line x1="447.3333333333333" y1="109.10267471958582" x2="447.3333333333333" y2="137.31665228645386" stroke="black" stroke-width="1" />
  <rect x="439.5333333333333" y="114.1069887834339" width="15.6" height="14.840379637618753" fill="red" />
  <line x1="464.6666666666667" y1="123.77049180327867" x2="464.6666666666667" y2="135.59102674719583" stroke="black" stroke-width="1" />
  <rect x="456.8666666666667" y="128.51596203623814" width="15.6" height="3.0198446937014864" fill="red" />
  <line x1="482.0" y1="122.56255392579811" x2="482.0" y2="131.7083692838654" stroke="black" stroke-width="1" />
  <rect x="474.2" y="123.77049180327867" width="15.6" height="6.557377049180332" fill="green" />
  <line x1="499.3333333333333" y1="111.00086281276964" x2="499.3333333333333" y2="117.04055220017261" stroke="black" stroke-width="1" />
  <rect x="491.5333333333333" y="111.86367558239863" width="15.6" height="3.7963761863675245" fill="green" />
  <line x1="516.6666666666666" y1="103.23554788610869" x2="516.6666666666666" y2="113.93442622950818" stroke="black" stroke-width="1" />
  <rect x="508.8666666666666" y="103.23554788610869" width="15.6" height="9.663503019844711" fill="green" />
  <line x1="533.9999999999999" y1="84.59879206212253" x2="533.9999999999999" y2="98.74892148403802" stroke="black" stroke-width="1" />
  <rect x="526.1999999999999" y="90.29335634167381" width="15.6" height="3.9689387402933676" fill="green" />
  <line x1="551.3333333333333" y1="84.08110440034511" x2="551.3333333333333" y2="93.05435720448656" stroke="black" stroke-width="1" />
  <rect x="543.5333333333333" y="86.66954270923208" width="15.6" height="3.6238136324417383" fill="green" />

<line x1="40" y1="130" x2="600" y2="130" stroke="blue" stroke-width="2" />
<text x="610" y="130" font-size="10" fill="blue">Resistance</text>
</svg>