<svg width="800" height="300" xmlns="http://www.w3.org/2000/svg">
  <line x1="40" y1="250" x2="40" y2="50" stroke="black" stroke-width="2" />
  <line x1="35" y1="250.0" x2="40" y2="250.0" stroke="black" stroke-width="1" />
  <text x="10" y="255.0" font-size="10" fill="black">75</text>
  <line x1="40" y1="250.0" x2="780" y2="250.0" stroke="lightgray" stroke-width="1" stroke-dasharray="5,5" />
  <line x1="35" y1="210.0" x2="40" y2="210.0" stroke="black" stroke-width="1" />
  <text x="10" y="215.0" font-size="10" fill="black">85</text>
  <line x1="40" y1="210.0" x2="780" y2="210.0" stroke="lightgray" stroke-width="1" stroke-dasharray="5,5" />
  <line x1="35" y1="170.0" x2="40" y2="170.0" stroke="black" stroke-width="1" />
  <text x="10" y="175.0" font-size="10" fill="black">95</text>
  <line x1="40" y1="170.0" x2="780" y2="170.0" stroke="lightgray" stroke-width="1" stroke-dasharray="5,5" />
  <line x1="35" y1="130.0" x2="40" y2="130.0" stroke="black" stroke-width="1" />
  <text x="10" y="135.0" font-size="10" fill="black">105</text>
  <line x1="40" y1="130.0" x2="780" y2="130.0" stroke="lightgray" stroke-width="1" stroke-dasharray="5,5" />
  <line x1="35" y1="90.0" x2="40" y2="90.0" stroke="black" stroke-width="1" />
  <text x="10" y="95.0" font-size="10" fill="black">115</text>
  <line x1="40" y1="90.0" x2="780" y2="90.0" stroke="lightgray" stroke-width="1" stroke-dasharray="5,5" />
  <line x1="35" y1="50.0" x2="40" y2="50.0" stroke="black" stroke-width="1" />
  <text x="10" y="55.0" font-size="10" fill="black">125</text>
  <line x1="40" y1="50.0" x2="780" y2="50.0" stroke="lightgray" stroke-width="1" stroke-dasharray="5,5" />
  <line x1="58.27759197324415" y1="150.0" x2="58.27759197324415" y2="154.32972522897586" stroke="black" stroke-width="1" />
  <rect x="50.0" y="150.0" width="16.555183946488295" height="1.665278934221476" fill="red" />
  <line x1="76.67224080267559" y1="148.00166527893418" x2="76.67224080267559" y2="154.99583680266443" stroke="black" stroke-width="1" />
  <rect x="68.39464882943145" y="151.66527893422148" width="16.555183946488295" height="1.9983347210657598" fill="red" />
  <line x1="95.06688963210702" y1="143.00582847626976" x2="95.06688963210702" y2="154.99583680266443" stroke="black" stroke-width="1" />
  <rect x="86.78929765886288" y="143.67194004995838" width="16.555183946488295" height="9.991673605328856" fill="green" />
  <line x1="113.46153846153845" y1="142.33971690258113" x2="113.46153846153845" y2="146.3363863447127" stroke="black" stroke-width="1" />
  <rect x="105.18394648829431" y="143.3388842631141" width="16.555183946488295" height="1.3322231473771353" fill="green" />
  <line x1="131.8561872909699" y1="135.67860116569523" x2="131.8561872909699" y2="146.66944213155705" stroke="black" stroke-width="1" />
  <rect x="123.57859531772576" y="136.0116569525395" width="16.555183946488295" height="9.325562031640288" fill="green" />
  <line x1="150.25083612040135" y1="132.34804329725227" x2="150.25083612040135" y2="141.67360532889256" stroke="black" stroke-width="1" />
  <rect x="141.9732441471572" y="133.68026644462947" width="16.555183946488295" height="3.9966694421315765" fill="green" />
  <line x1="168.64548494983276" y1="134.0133222314737" x2="168.64548494983276" y2="141.67360532889256" stroke="black" stroke-width="1" />
  <rect x="160.36789297658862" y="134.3463780183181" width="16.555183946488295" height="2.9975020815985545" fill="red" />
  <line x1="187.0401337792642" y1="129.6835970024979" x2="187.0401337792642" y2="137.01082431307248" stroke="black" stroke-width="1" />
  <rect x="178.76254180602007" y="133.0141548709409" width="16.555183946488295" height="2.9975020815986113" fill="green" />
  <line x1="205.43478260869566" y1="129.3505412156536" x2="205.43478260869566" y2="134.3463780183181" stroke="black" stroke-width="1" />
  <rect x="197.1571906354515" y="129.6835970024979" width="16.555183946488295" height="3.9966694421315765" fill="green" />
  <line x1="223.8294314381271" y1="127.01915070774356" x2="223.8294314381271" y2="133.0141548709409" stroke="black" stroke-width="1" />
  <rect x="215.55183946488296" y="127.01915070774356" width="16.555183946488295" height="5.328892589508712" fill="green" />
  <line x1="242.22408026755855" y1="124.02164862614484" x2="242.22408026755855" y2="131.01582014987503" stroke="black" stroke-width="1" />
  <rect x="233.9464882943144" y="125.68692756036637" width="16.555183946488295" height="1.3322231473771922" fill="green" />
  <line x1="260.61872909698997" y1="121.35720233139057" x2="260.61872909698997" y2="139.6752706078268" stroke="black" stroke-width="1" />
  <rect x="252.34113712374582" y="131.01582014987503" width="16.555183946488295" height="5.661948376353109" fill="red" />
  <line x1="279.0133779264214" y1="141.00749375520405" x2="279.0133779264214" y2="146.00333055786842" stroke="black" stroke-width="1" />
  <rect x="270.73578595317724" y="143.3388842631141" width="16.555183946488295" height="1" fill="green" />
  <line x1="297.4080267558529" y1="143.00582847626976" x2="297.4080267558529" y2="152.99750208159867" stroke="black" stroke-width="1" />
  <rect x="289.13043478260875" y="145.3372189841798" width="16.555183946488295" height="7.3272273105745285" fill="red" />
  <line x1="315.8026755852843" y1="153.99666944213152" x2="315.8026755852843" y2="166.31973355537053" stroke="black" stroke-width="1" />
  <rect x="307.52508361204013" y="155.661948376353" width="16.555183946488295" height="10.324729392173197" fill="red" />
  <line x1="334.19732441471575" y1="158.99250624479595" x2="334.19732441471575" y2="164.98751040799334" stroke="black" stroke-width="1" />
  <rect x="325.9197324414716" y="163.65528726061615" width="16.555183946488295" height="1" fill="red" />
  <line x1="352.5919732441472" y1="160.99084096586176" x2="352.5919732441472" y2="169.65029142381348" stroke="black" stroke-width="1" />
  <rect x="344.314381270903" y="163.65528726061615" width="16.555183946488295" height="4.662781015820144" fill="red" />
  <line x1="370.98662207357864" y1="165.9866777685262" x2="370.98662207357864" y2="172.64779350541215" stroke="black" stroke-width="1" />
  <rect x="362.7090301003345" y="166.9858451290591" width="16.555183946488295" height="2.997502081598668" fill="red" />
  <line x1="389.3812709030101" y1="161.99000832639467" x2="389.3812709030101" y2="173.31390507910072" stroke="black" stroke-width="1" />
  <rect x="381.1036789297659" y="162.32306411323896" width="16.555183946488295" height="7.660283097418812" fill="red" />
  <line x1="407.77591973244154" y1="137.01082431307248" x2="407.77591973244154" y2="157.6602830974188" stroke="black" stroke-width="1" />
  <rect x="399.49832775919737" y="141.67360532889256" width="16.555183946488295" height="10.324729392173197" fill="red" />
  <line x1="426.170568561873" y1="147.00249791840133" x2="426.170568561873" y2="154.32972522897586" stroke="black" stroke-width="1" />
  <rect x="417.8929765886288" y="151.66527893422148" width="16.555183946488295" height="1.9983347210657598" fill="green" />
  <line x1="444.5652173913044" y1="143.67194004995838" x2="444.5652173913044" y2="151.66527893422148" stroke="black" stroke-width="1" />
  <rect x="436.2876254180602" y="143.67194004995838" width="16.555183946488295" height="6.661115736885904" fill="green" />
  <line x1="462.9598662207358" y1="131.68193172356365" x2="462.9598662207358" y2="146.00333055786842" stroke="black" stroke-width="1" />
  <rect x="454.68227424749165" y="132.014987510408" width="16.555183946488295" height="12.323064113239013" fill="green" />
  <line x1="481.35451505016727" y1="110.03330557868446" x2="481.35451505016727" y2="129.01748542880932" stroke="black" stroke-width="1" />
  <rect x="473.0769230769231" y="110.03330557868446" width="16.555183946488295" height="17.985012489591952" fill="green" />
  <line x1="499.7491638795987" y1="109.03413821815155" x2="499.7491638795987" y2="121.35720233139057" stroke="black" stroke-width="1" />
  <rect x="491.47157190635454" y="111.03247293921726" width="16.555183946488295" height="5.661948376353109" fill="red" />
  <line x1="518.1438127090302" y1="115.02914238134883" x2="518.1438127090302" y2="122.02331390507908" stroke="black" stroke-width="1" />
  <rect x="509.866220735786" y="117.36053288925888" width="16.555183946488295" height="1.332223147377249" fill="red" />
  <line x1="536.5384615384617" y1="113.03080766028313" x2="536.5384615384617" y2="119.02581182348041" stroke="black" stroke-width="1" />
  <rect x="528.2608695652175" y="115.02914238134883" width="16.555183946488295" height="2.3313905079100437" fill="red" />
  <line x1="554.933110367893" y1="107.7019150707743" x2="554.933110367893" y2="119.02581182348041" stroke="black" stroke-width="1" />
  <rect x="546.6555183946489" y="108.0349708576187" width="16.555183946488295" height="10.657785179017424" fill="green" />
  <line x1="573.3277591973244" y1="93.0474604496253" x2="573.3277591973244" y2="103.70524562864273" stroke="black" stroke-width="1" />
  <rect x="565.0501672240803" y="94.37968359700244" width="16.555183946488295" height="9.325562031640288" fill="green" />
  <line x1="591.7224080267559" y1="97.37718567860111" x2="591.7224080267559" y2="102.03996669442131" stroke="black" stroke-width="1" />
  <rect x="583.4448160535118" y="99.04246461282264" width="16.555183946488295" height="1.3322231473771353" fill="red" />
</svg>