<svg width="800" height="300" xmlns="http://www.w3.org/2000/svg">
  <line x1="40" y1="250" x2="40" y2="50" stroke="black" stroke-width="2" />
  <line x1="35" y1="250.0" x2="40" y2="250.0" stroke="black" stroke-width="1" />
  <text x="10" y="255.0" font-size="10" fill="black">75</text>
  <line x1="40" y1="250.0" x2="780" y2="250.0" stroke="lightgray" stroke-width="1" stroke-dasharray="5,5" />
  <line x1="35" y1="210.0" x2="40" y2="210.0" stroke="black" stroke-width="1" />
  <text x="10" y="215.0" font-size="10" fill="black">85</text>
  <line x1="40" y1="210.0" x2="780" y2="210.0" stroke="lightgray" stroke-width="1" stroke-dasharray="5,5" />
  <line x1="35" y1="170.0" x2="40" y2="170.0" stroke="black" stroke-width="1" />
  <text x="10" y="175.0" font-size="10" fill="black">95</text>
  <line x1="40" y1="170.0" x2="780" y2="170.0" stroke="lightgray" stroke-width="1" stroke-dasharray="5,5" />
  <line x1="35" y1="130.0" x2="40" y2="130.0" stroke="black" stroke-width="1" />
  <text x="10" y="135.0" font-size="10" fill="black">105</text>
  <line x1="40" y1="130.0" x2="780" y2="130.0" stroke="lightgray" stroke-width="1" stroke-dasharray="5,5" />
  <line x1="35" y1="90.0" x2="40" y2="90.0" stroke="black" stroke-width="1" />
  <text x="10" y="95.0" font-size="10" fill="black">115</text>
  <line x1="40" y1="90.0" x2="780" y2="90.0" stroke="lightgray" stroke-width="1" stroke-dasharray="5,5" />
  <line x1="35" y1="50.0" x2="40" y2="50.0" stroke="black" stroke-width="1" />
  <text x="10" y="55.0" font-size="10" fill="black">125</text>
  <line x1="40" y1="50.0" x2="780" y2="50.0" stroke="lightgray" stroke-width="1" stroke-dasharray="5,5" />
  <line x1="58.27759197324415" y1="144.85139246431072" x2="58.27759197324415" y2="150.0" stroke="black" stroke-width="1" />
  <rect x="50.0" y="145.97472501755203" width="16.555183946488295" height="4.025274982447968" fill="green" />
  <line x1="76.67224080267559" y1="142.0430610812076" x2="76.67224080267559" y2="149.7191668616897" stroke="black" stroke-width="1" />
  <rect x="68.39464882943145" y="144.47694827989704" width="16.555183946488295" height="4.399719166861644" fill="red" />
  <line x1="95.06688963210702" y1="146.4427802480692" x2="95.06688963210702" y2="148.68944535455182" stroke="black" stroke-width="1" />
  <rect x="86.78929765886288" y="147.47250175520713" width="16.555183946488295" height="1" fill="green" />
  <line x1="113.46153846153845" y1="144.85139246431072" x2="113.46153846153845" y2="148.03416803182773" stroke="black" stroke-width="1" />
  <rect x="105.18394648829431" y="146.53639129417274" width="16.555183946488295" height="1" fill="green" />
  <line x1="131.8561872909699" y1="143.91528200327633" x2="131.8561872909699" y2="146.53639129417274" stroke="black" stroke-width="1" />
  <rect x="123.57859531772576" y="145.13222560262102" width="16.555183946488295" height="1" fill="green" />
  <line x1="150.25083612040135" y1="144.66417037210385" x2="150.25083612040135" y2="148.40861221624147" stroke="black" stroke-width="1" />
  <rect x="141.9732441471572" y="145.6002808331383" width="16.555183946488295" height="1.123332553241255" fill="red" />
  <line x1="168.64548494983276" y1="146.25555815586233" x2="168.64548494983276" y2="149.34472267727585" stroke="black" stroke-width="1" />
  <rect x="160.36789297658862" y="146.72361338637955" width="16.555183946488295" height="2.4338871986894333" fill="red" />
  <line x1="187.0401337792642" y1="146.25555815586233" x2="187.0401337792642" y2="149.157500585069" stroke="black" stroke-width="1" />
  <rect x="178.76254180602007" y="147.47250175520713" width="16.555183946488295" height="1.6849988298618541" fill="green" />
  <line x1="205.43478260869566" y1="146.72361338637955" x2="205.43478260869566" y2="150.2808331383103" stroke="black" stroke-width="1" />
  <rect x="197.1571906354515" y="147.47250175520713" width="16.555183946488295" height="1" fill="red" />
  <line x1="223.8294314381271" y1="146.63000234027612" x2="223.8294314381271" y2="149.25111163117253" stroke="black" stroke-width="1" />
  <rect x="215.55183946488296" y="147.56611280131045" width="16.555183946488295" height="1.6849988298620815" fill="red" />
  <line x1="242.22408026755855" y1="145.0386145565177" x2="242.22408026755855" y2="149.157500585069" stroke="black" stroke-width="1" />
  <rect x="233.9464882943144" y="146.06833606365547" width="16.555183946488295" height="3.0891645214135224" fill="green" />
  <line x1="260.61872909698997" y1="142.88556049613845" x2="260.61872909698997" y2="149.7191668616897" stroke="black" stroke-width="1" />
  <rect x="252.34113712374582" y="146.06833606365547" width="16.555183946488295" height="3.1827755675170692" fill="red" />
  <line x1="279.0133779264214" y1="149.53194476948283" x2="279.0133779264214" y2="154.49333021296513" stroke="black" stroke-width="1" />
  <rect x="270.73578595317724" y="151.4041656915516" width="16.555183946488295" height="1" fill="green" />
  <line x1="297.4080267558529" y1="150.74888836882752" x2="297.4080267558529" y2="153.7444418441376" stroke="black" stroke-width="1" />
  <rect x="289.13043478260875" y="151.4041656915516" width="16.555183946488295" height="2.340276152586" fill="red" />
  <line x1="315.8026755852843" y1="152.6211092908963" x2="315.8026755852843" y2="156.83360636555108" stroke="black" stroke-width="1" />
  <rect x="307.52508361204013" y="153.7444418441376" width="16.555183946488295" height="1.591387783758421" fill="red" />
  <line x1="334.19732441471575" y1="150.5616662766206" x2="334.19732441471575" y2="155.6166627662064" stroke="black" stroke-width="1" />
  <rect x="325.9197324414716" y="150.5616662766206" width="16.555183946488295" height="4.774163351275433" fill="green" />
  <line x1="352.5919732441472" y1="146.25555815586233" x2="352.5919732441472" y2="151.31055464544812" stroke="black" stroke-width="1" />
  <rect x="344.314381270903" y="150.09361104610338" width="16.555183946488295" height="1" fill="green" />
  <line x1="370.98662207357864" y1="144.00889304937976" x2="370.98662207357864" y2="149.25111163117253" stroke="black" stroke-width="1" />
  <rect x="362.7090301003345" y="144.00889304937976" width="16.555183946488295" height="3.369997659723822" fill="red" />
  <line x1="389.3812709030101" y1="145.22583664872457" x2="389.3812709030101" y2="151.4041656915516" stroke="black" stroke-width="1" />
  <rect x="381.1036789297659" y="145.50666978703487" width="16.555183946488295" height="2.901942429206599" fill="red" />
  <line x1="407.77591973244154" y1="145.3194476948279" x2="407.77591973244154" y2="150.84249941493096" stroke="black" stroke-width="1" />
  <rect x="399.49832775919737" y="148.2213901240346" width="16.555183946488295" height="1.591387783758421" fill="red" />
  <line x1="426.170568561873" y1="149.53194476948283" x2="426.170568561873" y2="151.9658319681722" stroke="black" stroke-width="1" />
  <rect x="417.8929765886288" y="149.81277790779302" width="16.555183946488295" height="1.404165691551725" fill="red" />
  <line x1="444.5652173913044" y1="149.06388953896555" x2="444.5652173913044" y2="153.4636087058273" stroke="black" stroke-width="1" />
  <rect x="436.2876254180602" y="151.21694359934475" width="16.555183946488295" height="1.591387783758421" fill="red" />
  <line x1="462.9598662207358" y1="150.9361104610344" x2="462.9598662207358" y2="154.9613854434823" stroke="black" stroke-width="1" />
  <rect x="454.68227424749165" y="150.9361104610344" width="16.555183946488295" height="2.714720336999733" fill="green" />
  <line x1="481.35451505016727" y1="147.75333489351743" x2="481.35451505016727" y2="150.9361104610344" stroke="black" stroke-width="1" />
  <rect x="473.0769230769231" y="149.06388953896555" width="16.555183946488295" height="1.3105546454481214" fill="red" />
  <line x1="499.7491638795987" y1="149.90638895389657" x2="499.7491638795987" y2="154.680552305172" stroke="black" stroke-width="1" />
  <rect x="491.47157190635454" y="150.37444418441368" width="16.555183946488295" height="2.43388719868949" fill="red" />
  <line x1="518.1438127090302" y1="139.51556283641474" x2="518.1438127090302" y2="153.65083079803412" stroke="black" stroke-width="1" />
  <rect x="509.866220735786" y="143.2600046805523" width="16.555183946488295" height="9.548326702550867" fill="green" />
  <line x1="536.5384615384617" y1="137.3625087760355" x2="536.5384615384617" y2="143.07278258834532" stroke="black" stroke-width="1" />
  <rect x="528.2608695652175" y="138.67306342148373" width="16.555183946488295" height="3.1827755675168987" fill="green" />
  <line x1="554.933110367893" y1="137.17528668382863" x2="554.933110367893" y2="142.51111631172478" stroke="black" stroke-width="1" />
  <rect x="546.6555183946489" y="140.45167329744908" width="16.555183946488295" height="1" fill="green" />
  <line x1="573.3277591973244" y1="133.71167797800138" x2="573.3277591973244" y2="139.9836180669319" stroke="black" stroke-width="1" />
  <rect x="565.0501672240803" y="136.5200093611046" width="16.555183946488295" height="3.463608705827312" fill="green" />
  <line x1="591.7224080267559" y1="129.03112567282938" x2="591.7224080267559" y2="135.3030657617599" stroke="black" stroke-width="1" />
  <rect x="583.4448160535118" y="132.21390124034633" width="16.555183946488295" height="2.901942429206599" fill="green" />
</svg>