<svg width="800" height="300" xmlns="http://www.w3.org/2000/svg">
  <line x1="40" y1="250" x2="40" y2="50" stroke="black" stroke-width="2" />
  <line x1="35" y1="250.0" x2="40" y2="250.0" stroke="black" stroke-width="1" />
  <text x="10" y="255.0" font-size="10" fill="black">75</text>
  <line x1="40" y1="250.0" x2="780" y2="250.0" stroke="lightgray" stroke-width="1" stroke-dasharray="5,5" />
  <line x1="35" y1="210.0" x2="40" y2="210.0" stroke="black" stroke-width="1" />
  <text x="10" y="215.0" font-size="10" fill="black">85</text>
  <line x1="40" y1="210.0" x2="780" y2="210.0" stroke="lightgray" stroke-width="1" stroke-dasharray="5,5" />
  <line x1="35" y1="170.0" x2="40" y2="170.0" stroke="black" stroke-width="1" />
  <text x="10" y="175.0" font-size="10" fill="black">95</text>
  <line x1="40" y1="170.0" x2="780" y2="170.0" stroke="lightgray" stroke-width="1" stroke-dasharray="5,5" />
  <line x1="35" y1="130.0" x2="40" y2="130.0" stroke="black" stroke-width="1" />
  <text x="10" y="135.0" font-size="10" fill="black">105</text>
  <line x1="40" y1="130.0" x2="780" y2="130.0" stroke="lightgray" stroke-width="1" stroke-dasharray="5,5" />
  <line x1="35" y1="90.0" x2="40" y2="90.0" stroke="black" stroke-width="1" />
  <text x="10" y="95.0" font-size="10" fill="black">115</text>
  <line x1="40" y1="90.0" x2="780" y2="90.0" stroke="lightgray" stroke-width="1" stroke-dasharray="5,5" />
  <line x1="35" y1="50.0" x2="40" y2="50.0" stroke="black" stroke-width="1" />
  <text x="10" y="55.0" font-size="10" fill="black">125</text>
  <line x1="40" y1="50.0" x2="780" y2="50.0" stroke="lightgray" stroke-width="1" stroke-dasharray="5,5" />
  <line x1="58.27759197324415" y1="148.06837606837604" x2="58.27759197324415" y2="151.67521367521368" stroke="black" stroke-width="1" />
  <rect x="50.0" y="149.24786324786322" width="16.555183946488295" height="1" fill="green" />
  <line x1="76.67224080267559" y1="148.1623931623932" x2="76.67224080267559" y2="152.11965811965814" stroke="black" stroke-width="1" />
  <rect x="68.39464882943145" y="149.14529914529913" width="16.555183946488295" height="1.7264957264957275" fill="red" />
  <line x1="95.06688963210702" y1="148.5726495726496" x2="95.06688963210702" y2="152.12820512820514" stroke="black" stroke-width="1" />
  <rect x="86.78929765886288" y="149.04273504273505" width="16.555183946488295" height="1" fill="green" />
  <line x1="113.46153846153845" y1="149.0683760683761" x2="113.46153846153845" y2="152.974358974359" stroke="black" stroke-width="1" />
  <rect x="105.18394648829431" y="149.5384615384615" width="16.555183946488295" height="1" fill="red" />
  <line x1="131.8561872909699" y1="147.5128205128205" x2="131.8561872909699" y2="151.1111111111111" stroke="black" stroke-width="1" />
  <rect x="123.57859531772576" y="148.72649572649567" width="16.555183946488295" height="1" fill="red" />
  <line x1="150.25083612040135" y1="148.00000000000006" x2="150.25083612040135" y2="155.21367521367523" stroke="black" stroke-width="1" />
  <rect x="141.9732441471572" y="148.03418803418805" width="16.555183946488295" height="3.299145299145266" fill="red" />
  <line x1="168.64548494983276" y1="147.8376068376068" x2="168.64548494983276" y2="150.85470085470087" stroke="black" stroke-width="1" />
  <rect x="160.36789297658862" y="149.4529914529915" width="16.555183946488295" height="1" fill="green" />
  <line x1="187.0401337792642" y1="143.5897435897436" x2="187.0401337792642" y2="149.81196581196582" stroke="black" stroke-width="1" />
  <rect x="178.76254180602007" y="144.025641025641" width="16.555183946488295" height="3.341880341880369" fill="green" />
  <line x1="205.43478260869566" y1="142.81196581196582" x2="205.43478260869566" y2="149.26068376068378" stroke="black" stroke-width="1" />
  <rect x="197.1571906354515" y="144.01709401709405" width="16.555183946488295" height="2.7350427350427253" fill="red" />
  <line x1="223.8294314381271" y1="138.1025641025641" x2="223.8294314381271" y2="144.4700854700854" stroke="black" stroke-width="1" />
  <rect x="215.55183946488296" y="139.05982905982899" width="16.555183946488295" height="5.410256410256409" fill="green" />
  <line x1="242.22408026755855" y1="134.8376068376068" x2="242.22408026755855" y2="140.0427350427351" stroke="black" stroke-width="1" />
  <rect x="233.9464882943144" y="136.88888888888886" width="16.555183946488295" height="1.2820512820513272" fill="green" />
  <line x1="260.61872909698997" y1="134.02564102564105" x2="260.61872909698997" y2="139.70940170940167" stroke="black" stroke-width="1" />
  <rect x="252.34113712374582" y="137.63247863247858" width="16.555183946488295" height="1" fill="red" />
  <line x1="279.0133779264214" y1="134.47008547008545" x2="279.0133779264214" y2="138.73504273504278" stroke="black" stroke-width="1" />
  <rect x="270.73578595317724" y="137.05982905982904" width="16.555183946488295" height="1" fill="green" />
  <line x1="297.4080267558529" y1="136.18803418803418" x2="297.4080267558529" y2="145.6323931623932" stroke="black" stroke-width="1" />
  <rect x="289.13043478260875" y="137.05982905982904" width="16.555183946488295" height="4.940170940170958" fill="red" />
  <line x1="315.8026755852843" y1="139.36752136752136" x2="315.8026755852843" y2="144.26495726495727" stroke="black" stroke-width="1" />
  <rect x="307.52508361204013" y="142.21367521367523" width="16.555183946488295" height="1" fill="red" />
  <line x1="334.19732441471575" y1="131.87179487179492" x2="334.19732441471575" y2="140.11538461538464" stroke="black" stroke-width="1" />
  <rect x="325.9197324414716" y="133.68376068376068" width="16.555183946488295" height="5.632478632478694" fill="green" />
  <line x1="352.5919732441472" y1="132.62393162393164" x2="352.5919732441472" y2="137.75213675213678" stroke="black" stroke-width="1" />
  <rect x="344.314381270903" y="132.88888888888886" width="16.555183946488295" height="1" fill="green" />
  <line x1="370.98662207357864" y1="131.957264957265" x2="370.98662207357864" y2="141.58974358974365" stroke="black" stroke-width="1" />
  <rect x="362.7090301003345" y="132.75213675213672" width="16.555183946488295" height="1.4188034188034635" fill="green" />
  <line x1="389.3812709030101" y1="128.73504273504273" x2="389.3812709030101" y2="137.17948717948713" stroke="black" stroke-width="1" />
  <rect x="381.1036789297659" y="129.39316239316236" width="16.555183946488295" height="4.410256410256409" fill="green" />
  <line x1="407.77591973244154" y1="125.34188034188037" x2="407.77591973244154" y2="129.95726495726495" stroke="black" stroke-width="1" />
  <rect x="399.49832775919737" y="128.32478632478626" width="16.555183946488295" height="1" fill="green" />
  <line x1="426.170568561873" y1="124.08547008547009" x2="426.170568561873" y2="128.29914529914532" stroke="black" stroke-width="1" />
  <rect x="417.8929765886288" y="124.60683760683764" width="16.555183946488295" height="2.059829059829042" fill="green" />
  <line x1="444.5652173913044" y1="121.16239316239313" x2="444.5652173913044" y2="124.4871794871795" stroke="black" stroke-width="1" />
  <rect x="436.2876254180602" y="121.80341880341877" width="16.555183946488295" height="2.042735042735103" fill="green" />
  <line x1="462.9598662207358" y1="121.11111111111114" x2="462.9598662207358" y2="127.74358974358978" stroke="black" stroke-width="1" />
  <rect x="454.68227424749165" y="121.55555555555554" width="16.555183946488295" height="5.572649572649652" fill="red" />
  <line x1="481.35451505016727" y1="121.68376068376068" x2="481.35451505016727" y2="134.40170940170935" stroke="black" stroke-width="1" />
  <rect x="473.0769230769231" y="122.64957264957263" width="16.555183946488295" height="5.974358974359006" fill="red" />
  <line x1="499.7491638795987" y1="128.17948717948724" x2="499.7491638795987" y2="133.12820512820514" stroke="black" stroke-width="1" />
  <rect x="491.47157190635454" y="128.85470085470087" width="16.555183946488295" height="2.6410256410255784" fill="green" />
  <line x1="518.1438127090302" y1="124.62393162393164" x2="518.1438127090302" y2="130.0854700854701" stroke="black" stroke-width="1" />
  <rect x="509.866220735786" y="125.09401709401715" width="16.555183946488295" height="3.4017094017092973" fill="green" />
  <line x1="536.5384615384617" y1="128.4230769230769" x2="536.5384615384617" y2="135.96581196581195" stroke="black" stroke-width="1" />
  <rect x="528.2608695652175" y="128.90598290598285" width="16.555183946488295" height="4.504273504273499" fill="red" />
  <line x1="554.933110367893" y1="131.28205128205127" x2="554.933110367893" y2="136.71794871794873" stroke="black" stroke-width="1" />
  <rect x="546.6555183946489" y="131.66666666666663" width="16.555183946488295" height="4.008547008547055" fill="green" />
  <line x1="573.3277591973244" y1="128.09829059829065" x2="573.3277591973244" y2="132.05128205128204" stroke="black" stroke-width="1" />
  <rect x="565.0501672240803" y="130.1111111111111" width="16.555183946488295" height="1" fill="green" />
  <line x1="591.7224080267559" y1="126.06837606837604" x2="591.7224080267559" y2="130.86324786324786" stroke="black" stroke-width="1" />
  <rect x="583.4448160535118" y="128.0854700854701" width="16.555183946488295" height="2.2307692307692832" fill="green" />
</svg>