<svg width="800" height="300" xmlns="http://www.w3.org/2000/svg">
  <line x1="40" y1="250" x2="40" y2="50" stroke="black" stroke-width="2" />
  <line x1="35" y1="250.0" x2="40" y2="250.0" stroke="black" stroke-width="1" />
  <text x="10" y="255.0" font-size="10" fill="black">75</text>
  <line x1="40" y1="250.0" x2="780" y2="250.0" stroke="lightgray" stroke-width="1" stroke-dasharray="5,5" />
  <line x1="35" y1="210.0" x2="40" y2="210.0" stroke="black" stroke-width="1" />
  <text x="10" y="215.0" font-size="10" fill="black">85</text>
  <line x1="40" y1="210.0" x2="780" y2="210.0" stroke="lightgray" stroke-width="1" stroke-dasharray="5,5" />
  <line x1="35" y1="170.0" x2="40" y2="170.0" stroke="black" stroke-width="1" />
  <text x="10" y="175.0" font-size="10" fill="black">95</text>
  <line x1="40" y1="170.0" x2="780" y2="170.0" stroke="lightgray" stroke-width="1" stroke-dasharray="5,5" />
  <line x1="35" y1="130.0" x2="40" y2="130.0" stroke="black" stroke-width="1" />
  <text x="10" y="135.0" font-size="10" fill="black">105</text>
  <line x1="40" y1="130.0" x2="780" y2="130.0" stroke="lightgray" stroke-width="1" stroke-dasharray="5,5" />
  <line x1="35" y1="90.0" x2="40" y2="90.0" stroke="black" stroke-width="1" />
  <text x="10" y="95.0" font-size="10" fill="black">115</text>
  <line x1="40" y1="90.0" x2="780" y2="90.0" stroke="lightgray" stroke-width="1" stroke-dasharray="5,5" />
  <line x1="35" y1="50.0" x2="40" y2="50.0" stroke="black" stroke-width="1" />
  <text x="10" y="55.0" font-size="10" fill="black">125</text>
  <line x1="40" y1="50.0" x2="780" y2="50.0" stroke="lightgray" stroke-width="1" stroke-dasharray="5,5" />
  <line x1="58.27759197324415" y1="148.67644294040235" x2="58.27759197324415" y2="155.4446324497086" stroke="black" stroke-width="1" />
  <rect x="50.0" y="150.0" width="16.555183946488295" height="3.369054333521376" fill="red" />
  <line x1="76.67224080267559" y1="150.1804850535815" x2="76.67224080267559" y2="156.8734724572288" stroke="black" stroke-width="1" />
  <rect x="68.39464882943145" y="151.97029516826473" width="16.555183946488295" height="1.81237074638085" fill="green" />
  <line x1="95.06688963210702" y1="150.6091370558375" x2="95.06688963210702" y2="154.52716676066927" stroke="black" stroke-width="1" />
  <rect x="86.78929765886288" y="152.66967475089297" width="16.555183946488295" height="1.2182741116751572" fill="red" />
  <line x1="113.46153846153845" y1="144.35984207557811" x2="113.46153846153845" y2="153.7337845459673" stroke="black" stroke-width="1" />
  <rect x="105.18394648829431" y="147.54841135551794" width="16.555183946488295" height="6.0236886632825986" fill="green" />
  <line x1="131.8561872909699" y1="140.72758037225037" x2="131.8561872909699" y2="152.48918969731147" stroke="black" stroke-width="1" />
  <rect x="123.57859531772576" y="146.16469261139315" width="16.555183946488295" height="3.8127467569091777" fill="red" />
  <line x1="150.25083612040135" y1="144.006392178981" x2="150.25083612040135" y2="155.1438240270728" stroke="black" stroke-width="1" />
  <rect x="141.9732441471572" y="146.2248542959203" width="16.555183946488295" height="6.7080278247790375" fill="red" />
  <line x1="168.64548494983276" y1="152.93288212069933" x2="168.64548494983276" y2="162.74675690919344" stroke="black" stroke-width="1" />
  <rect x="160.36789297658862" y="153.23369054333517" width="16.555183946488295" height="4.873096446700515" fill="red" />
  <line x1="187.0401337792642" y1="155.9334461364918" x2="187.0401337792642" y2="162.4760293288212" stroke="black" stroke-width="1" />
  <rect x="178.76254180602007" y="159.62586952434663" width="16.555183946488295" height="1" fill="green" />
  <line x1="205.43478260869566" y1="158.1331077270163" x2="205.43478260869566" y2="164.62680955066736" stroke="black" stroke-width="1" />
  <rect x="197.1571906354515" y="160.69749952998683" width="16.555183946488295" height="1" fill="red" />
  <line x1="223.8294314381271" y1="153.534498965971" x2="223.8294314381271" y2="162.1986087610453" stroke="black" stroke-width="1" />
  <rect x="215.55183946488296" y="159.66347057717616" width="16.555183946488295" height="1" fill="red" />
  <line x1="242.22408026755855" y1="156.28689603308896" x2="242.22408026755855" y2="162.55875164504602" stroke="black" stroke-width="1" />
  <rect x="233.9464882943144" y="157.93382214702007" width="16.555183946488295" height="1" fill="red" />
  <line x1="260.61872909698997" y1="154.82045497273924" x2="260.61872909698997" y2="167.50885504794132" stroke="black" stroke-width="1" />
  <rect x="252.34113712374582" y="159.2197781537883" width="16.555183946488295" height="5.925925925925924" fill="red" />
  <line x1="279.0133779264214" y1="161.51344237638654" x2="279.0133779264214" y2="170.92874600488813" stroke="black" stroke-width="1" />
  <rect x="270.73578595317724" y="164.40872344425645" width="16.555183946488295" height="5.015980447452478" fill="green" />
  <line x1="297.4080267558529" y1="157.7236322617033" x2="297.4080267558529" y2="165.60443692423388" stroke="black" stroke-width="1" />
  <rect x="289.13043478260875" y="161.31039669110731" width="16.555183946488295" height="3.865388230870508" fill="green" />
  <line x1="315.8026755852843" y1="155.50110923105848" x2="315.8026755852843" y2="175.3055085542395" stroke="black" stroke-width="1" />
  <rect x="307.52508361204013" y="157.5352509870276" width="16.555183946488295" height="16.25117503290096" fill="red" />
  <line x1="334.19732441471575" y1="165.46907313404773" x2="334.19732441471575" y2="172.4252679075014" stroke="black" stroke-width="1" />
  <rect x="325.9197324414716" y="169.3570219966159" width="16.555183946488295" height="1.0302688475276796" fill="red" />
  <line x1="352.5919732441472" y1="163.32581312276744" x2="352.5919732441472" y2="173.96856551983456" stroke="black" stroke-width="1" />
  <rect x="344.314381270903" y="167.85297988343666" width="16.555183946488295" height="2.5343109607069323" fill="red" />
  <line x1="370.98662207357864" y1="164.1229554427524" x2="370.98662207357864" y2="177.29836435420185" stroke="black" stroke-width="1" />
  <rect x="362.7090301003345" y="165.09306260575295" width="16.555183946488295" height="3.624741492761814" fill="green" />
  <line x1="389.3812709030101" y1="153.90298928369992" x2="389.3812709030101" y2="162.54371122391422" stroke="black" stroke-width="1" />
  <rect x="381.1036789297659" y="154.7377326565143" width="16.555183946488295" height="6.429780033841041" fill="green" />
  <line x1="407.77591973244154" y1="153.24797894341037" x2="407.77591973244154" y2="161.12239142695995" stroke="black" stroke-width="1" />
  <rect x="399.49832775919737" y="155.47471329197214" width="16.555183946488295" height="3.218650122203428" fill="green" />
  <line x1="426.170568561873" y1="148.3455536755029" x2="426.170568561873" y2="160.90430532054893" stroke="black" stroke-width="1" />
  <rect x="417.8929765886288" y="148.9622109419064" width="16.555183946488295" height="6.572664034592947" fill="green" />
  <line x1="444.5652173913044" y1="142.3293852227862" x2="444.5652173913044" y2="151.00018800526408" stroke="black" stroke-width="1" />
  <rect x="436.2876254180602" y="145.7134799774393" width="16.555183946488295" height="1" fill="red" />
  <line x1="462.9598662207358" y1="140.75014100394804" x2="462.9598662207358" y2="148.49400263207366" stroke="black" stroke-width="1" />
  <rect x="454.68227424749165" y="145.45027260763294" width="16.555183946488295" height="1" fill="green" />
  <line x1="481.35451505016727" y1="127.31152472269213" x2="481.35451505016727" y2="139.00545215266027" stroke="black" stroke-width="1" />
  <rect x="473.0769230769231" y="129.54502726076322" width="16.555183946488295" height="6.843391614965299" fill="green" />
  <line x1="499.7491638795987" y1="125.48411355517953" x2="499.7491638795987" y2="131.65061101710842" stroke="black" stroke-width="1" />
  <rect x="491.47157190635454" y="127.85297988343672" width="16.555183946488295" height="1.0152284263959928" fill="green" />
  <line x1="518.1438127090302" y1="118.35502914081593" x2="518.1438127090302" y2="127.05583756345175" stroke="black" stroke-width="1" />
  <rect x="509.866220735786" y="121.72400827223163" width="16.555183946488295" height="3.8277871780409782" fill="red" />
  <line x1="536.5384615384617" y1="123.04380522654634" x2="536.5384615384617" y2="133.23745064861805" stroke="black" stroke-width="1" />
  <rect x="528.2608695652175" y="123.8447076518143" width="16.555183946488295" height="2.519270539575018" fill="red" />
  <line x1="554.933110367893" y1="116.17409287460043" x2="554.933110367893" y2="126.07068997931935" stroke="black" stroke-width="1" />
  <rect x="546.6555183946489" y="122.61891332957322" width="16.555183946488295" height="3.2036097010716844" fill="green" />
  <line x1="573.3277591973244" y1="115.7830419251739" x2="573.3277591973244" y2="127.10088362474147" stroke="black" stroke-width="1" />
  <rect x="565.0501672240803" y="117.03891708967848" width="16.555183946488295" height="5.9334461364918525" fill="red" />
  <line x1="591.7224080267559" y1="120.7163752585073" x2="591.7224080267559" y2="125.4765933446136" stroke="black" stroke-width="1" />
  <rect x="583.4448160535118" y="121.27279563827784" width="16.555183946488295" height="2.060537695055473" fill="red" />
</svg>