<svg width="800" height="300" xmlns="http://www.w3.org/2000/svg">
  <line x1="40" y1="250" x2="40" y2="50" stroke="black" stroke-width="2" />
  <line x1="35" y1="250.0" x2="40" y2="250.0" stroke="black" stroke-width="1" />
  <text x="10" y="255.0" font-size="10" fill="black">75</text>
  <line x1="40" y1="250.0" x2="780" y2="250.0" stroke="lightgray" stroke-width="1" stroke-dasharray="5, 5" />
  <line x1="35" y1="210.0" x2="40" y2="210.0" stroke="black" stroke-width="1" />
  <text x="10" y="215.0" font-size="10" fill="black">85</text>
  <line x1="40" y1="210.0" x2="780" y2="210.0" stroke="lightgray" stroke-width="1" stroke-dasharray="5, 5" />
  <line x1="35" y1="170.0" x2="40" y2="170.0" stroke="black" stroke-width="1" />
  <text x="10" y="175.0" font-size="10" fill="black">95</text>
  <line x1="40" y1="170.0" x2="780" y2="170.0" stroke="lightgray" stroke-width="1" stroke-dasharray="5, 5" />
  <line x1="35" y1="130.0" x2="40" y2="130.0" stroke="black" stroke-width="1" />
  <text x="10" y="135.0" font-size="10" fill="black">105</text>
  <line x1="40" y1="130.0" x2="780" y2="130.0" stroke="lightgray" stroke-width="1" stroke-dasharray="5, 5" />
  <line x1="35" y1="90.0" x2="40" y2="90.0" stroke="black" stroke-width="1" />
  <text x="10" y="95.0" font-size="10" fill="black">115</text>
  <line x1="40" y1="90.0" x2="780" y2="90.0" stroke="lightgray" stroke-width="1" stroke-dasharray="5, 5" />
  <line x1="35" y1="50.0" x2="40" y2="50.0" stroke="black" stroke-width="1" />
  <text x="10" y="55.0" font-size="10" fill="black">125</text>
  <line x1="40" y1="50.0" x2="780" y2="50.0" stroke="lightgray" stroke-width="1" stroke-dasharray="5, 5" />
  <line x1="35" y1="150.0" x2="40" y2="150.0" stroke="black" stroke-width="1" />
  <text x="10" y="155.0" font-size="10" fill="black">100</text>
  <line x1="40" y1="150.0" x2="780" y2="150.0" stroke="lightgray" stroke-width="1" stroke-dasharray="5, 5" />
  <line x1="48.666666666666664" y1="148.67644294040235" x2="48.666666666666664" y2="155.4446324497086" stroke="black" stroke-width="1" />
  <rect x="40.86666666666667" y="150.0" width="15.6" height="3.369054333521376" fill="red" />
  <line x1="66.0" y1="150.1804850535815" x2="66.0" y2="156.8734724572288" stroke="black" stroke-width="1" />
  <rect x="58.199999999999996" y="151.97029516826473" width="15.6" height="1.81237074638085" fill="green" />
  <line x1="83.33333333333333" y1="150.6091370558375" x2="83.33333333333333" y2="154.52716676066927" stroke="black" stroke-width="1" />
  <rect x="75.53333333333332" y="152.66967475089297" width="15.6" height="1.2182741116751572" fill="red" />
  <line x1="100.66666666666667" y1="144.35984207557811" x2="100.66666666666667" y2="153.7337845459673" stroke="black" stroke-width="1" />
  <rect x="92.86666666666666" y="147.54841135551794" width="15.6" height="6.0236886632825986" fill="green" />
  <line x1="118.0" y1="140.72758037225037" x2="118.0" y2="152.48918969731147" stroke="black" stroke-width="1" />
  <rect x="110.19999999999999" y="146.16469261139315" width="15.6" height="3.8127467569091777" fill="red" />
  <line x1="135.33333333333331" y1="144.006392178981" x2="135.33333333333331" y2="155.1438240270728" stroke="black" stroke-width="1" />
  <rect x="127.53333333333332" y="146.2248542959203" width="15.6" height="6.7080278247790375" fill="red" />
  <line x1="152.66666666666666" y1="152.93288212069933" x2="152.66666666666666" y2="162.74675690919344" stroke="black" stroke-width="1" />
  <rect x="144.86666666666667" y="153.23369054333517" width="15.6" height="4.873096446700515" fill="red" />
  <line x1="169.99999999999997" y1="155.9334461364918" x2="169.99999999999997" y2="162.4760293288212" stroke="black" stroke-width="1" />
  <rect x="162.2" y="159.62586952434663" width="15.6" height="1" fill="green" />
  <line x1="187.33333333333331" y1="158.1331077270163" x2="187.33333333333331" y2="164.62680955066736" stroke="black" stroke-width="1" />
  <rect x="179.53333333333333" y="160.69749952998683" width="15.6" height="1" fill="red" />
  <line x1="204.66666666666666" y1="153.534498965971" x2="204.66666666666666" y2="162.1986087610453" stroke="black" stroke-width="1" />
  <rect x="196.86666666666667" y="159.66347057717616" width="15.6" height="1" fill="red" />
  <line x1="221.99999999999997" y1="156.28689603308896" x2="221.99999999999997" y2="162.55875164504602" stroke="black" stroke-width="1" />
  <rect x="214.2" y="157.93382214702007" width="15.6" height="1" fill="red" />
  <line x1="239.33333333333331" y1="154.82045497273924" x2="239.33333333333331" y2="167.50885504794132" stroke="black" stroke-width="1" />
  <rect x="231.53333333333333" y="159.2197781537883" width="15.6" height="5.925925925925924" fill="red" />
  <line x1="256.6666666666667" y1="161.51344237638654" x2="256.6666666666667" y2="170.92874600488813" stroke="black" stroke-width="1" />
  <rect x="248.86666666666667" y="164.40872344425645" width="15.6" height="5.015980447452478" fill="green" />
  <line x1="274.0" y1="157.7236322617033" x2="274.0" y2="165.60443692423388" stroke="black" stroke-width="1" />
  <rect x="266.2" y="161.31039669110731" width="15.6" height="3.865388230870508" fill="green" />
  <line x1="291.3333333333333" y1="155.50110923105848" x2="291.3333333333333" y2="175.3055085542395" stroke="black" stroke-width="1" />
  <rect x="283.5333333333333" y="157.5352509870276" width="15.6" height="16.25117503290096" fill="red" />
  <line x1="308.6666666666667" y1="165.46907313404773" x2="308.6666666666667" y2="172.4252679075014" stroke="black" stroke-width="1" />
  <rect x="300.8666666666667" y="169.3570219966159" width="15.6" height="1.0302688475276796" fill="red" />
  <line x1="326.0" y1="163.32581312276744" x2="326.0" y2="173.96856551983456" stroke="black" stroke-width="1" />
  <rect x="318.2" y="167.85297988343666" width="15.6" height="2.5343109607069323" fill="red" />
  <line x1="343.3333333333333" y1="164.1229554427524" x2="343.3333333333333" y2="177.29836435420185" stroke="black" stroke-width="1" />
  <rect x="335.5333333333333" y="165.09306260575295" width="15.6" height="3.624741492761814" fill="green" />
  <line x1="360.6666666666667" y1="153.90298928369992" x2="360.6666666666667" y2="162.54371122391422" stroke="black" stroke-width="1" />
  <rect x="352.8666666666667" y="154.7377326565143" width="15.6" height="6.429780033841041" fill="green" />
  <line x1="378.0" y1="153.24797894341037" x2="378.0" y2="161.12239142695995" stroke="black" stroke-width="1" />
  <rect x="370.2" y="155.47471329197214" width="15.6" height="3.218650122203428" fill="green" />
  <line x1="395.3333333333333" y1="148.3455536755029" x2="395.3333333333333" y2="160.90430532054893" stroke="black" stroke-width="1" />
  <rect x="387.5333333333333" y="148.9622109419064" width="15.6" height="6.572664034592947" fill="green" />
  <line x1="412.6666666666667" y1="142.3293852227862" x2="412.6666666666667" y2="151.00018800526408" stroke="black" stroke-width="1" />
  <rect x="404.8666666666667" y="145.7134799774393" width="15.6" height="1" fill="red" />
  <line x1="430.0" y1="140.75014100394804" x2="430.0" y2="148.49400263207366" stroke="black" stroke-width="1" />
  <rect x="422.2" y="145.45027260763294" width="15.6" height="1" fill="green" />
  <line x1="447.3333333333333" y1="127.31152472269213" x2="447.3333333333333" y2="139.00545215266027" stroke="black" stroke-width="1" />
  <rect x="439.5333333333333" y="129.54502726076322" width="15.6" height="6.843391614965299" fill="green" />
  <line x1="464.6666666666667" y1="125.48411355517953" x2="464.6666666666667" y2="131.65061101710842" stroke="black" stroke-width="1" />
  <rect x="456.8666666666667" y="127.85297988343672" width="15.6" height="1.0152284263959928" fill="green" />
  <line x1="482.0" y1="118.35502914081593" x2="482.0" y2="127.05583756345175" stroke="black" stroke-width="1" />
  <rect x="474.2" y="121.72400827223163" width="15.6" height="3.8277871780409782" fill="red" />
  <line x1="499.3333333333333" y1="123.04380522654634" x2="499.3333333333333" y2="133.23745064861805" stroke="black" stroke-width="1" />
  <rect x="491.5333333333333" y="123.8447076518143" width="15.6" height="2.519270539575018" fill="red" />
  <line x1="516.6666666666666" y1="116.17409287460043" x2="516.6666666666666" y2="126.07068997931935" stroke="black" stroke-width="1" />
  <rect x="508.8666666666666" y="122.61891332957322" width="15.6" height="3.2036097010716844" fill="green" />
  <line x1="533.9999999999999" y1="115.7830419251739" x2="533.9999999999999" y2="127.10088362474147" stroke="black" stroke-width="1" />
  <rect x="526.1999999999999" y="117.03891708967848" width="15.6" height="5.9334461364918525" fill="red" />
  <line x1="551.3333333333333" y1="120.7163752585073" x2="551.3333333333333" y2="125.4765933446136" stroke="black" stroke-width="1" />
  <rect x="543.5333333333333" y="121.27279563827784" width="15.6" height="2.060537695055473" fill="red" />

<line x1="40" y1="90" x2="600" y2="90" stroke="blue" stroke-width="2" />
     <text x="605" y="95" font-size="10" fill="blue">Support</text>
</svg>