<svg width="800" height="300" xmlns="http://www.w3.org/2000/svg">
  <line x1="40" y1="250" x2="40" y2="50" stroke="black" stroke-width="2" />
  <line x1="35" y1="250.0" x2="40" y2="250.0" stroke="black" stroke-width="1" />
  <text x="10" y="255.0" font-size="10" fill="black">75</text>
  <line x1="40" y1="250.0" x2="780" y2="250.0" stroke="lightgray" stroke-width="1" stroke-dasharray="5,5" />
  <line x1="35" y1="210.0" x2="40" y2="210.0" stroke="black" stroke-width="1" />
  <text x="10" y="215.0" font-size="10" fill="black">85</text>
  <line x1="40" y1="210.0" x2="780" y2="210.0" stroke="lightgray" stroke-width="1" stroke-dasharray="5,5" />
  <line x1="35" y1="170.0" x2="40" y2="170.0" stroke="black" stroke-width="1" />
  <text x="10" y="175.0" font-size="10" fill="black">95</text>
  <line x1="40" y1="170.0" x2="780" y2="170.0" stroke="lightgray" stroke-width="1" stroke-dasharray="5,5" />
  <line x1="35" y1="130.0" x2="40" y2="130.0" stroke="black" stroke-width="1" />
  <text x="10" y="135.0" font-size="10" fill="black">105</text>
  <line x1="40" y1="130.0" x2="780" y2="130.0" stroke="lightgray" stroke-width="1" stroke-dasharray="5,5" />
  <line x1="35" y1="90.0" x2="40" y2="90.0" stroke="black" stroke-width="1" />
  <text x="10" y="95.0" font-size="10" fill="black">115</text>
  <line x1="40" y1="90.0" x2="780" y2="90.0" stroke="lightgray" stroke-width="1" stroke-dasharray="5,5" />
  <line x1="35" y1="50.0" x2="40" y2="50.0" stroke="black" stroke-width="1" />
  <text x="10" y="55.0" font-size="10" fill="black">125</text>
  <line x1="40" y1="50.0" x2="780" y2="50.0" stroke="lightgray" stroke-width="1" stroke-dasharray="5,5" />
  <line x1="58.27759197324415" y1="147.9746835443038" x2="58.27759197324415" y2="151.01265822784808" stroke="black" stroke-width="1" />
  <rect x="50.0" y="150.0" width="16.555183946488295" height="1.0126582278480782" fill="red" />
  <line x1="76.67224080267559" y1="146.96202531645565" x2="76.67224080267559" y2="151.01265822784808" stroke="black" stroke-width="1" />
  <rect x="68.39464882943145" y="147.9746835443038" width="16.555183946488295" height="1.012658227848135" fill="red" />
  <line x1="95.06688963210702" y1="136.8354430379747" x2="95.06688963210702" y2="147.9746835443038" stroke="black" stroke-width="1" />
  <rect x="86.78929765886288" y="136.8354430379747" width="16.555183946488295" height="11.139240506329088" fill="green" />
  <line x1="113.46153846153845" y1="136.8354430379747" x2="113.46153846153845" y2="146.96202531645565" stroke="black" stroke-width="1" />
  <rect x="105.18394648829431" y="136.8354430379747" width="16.555183946488295" height="10.126582278480953" fill="red" />
  <line x1="131.8561872909699" y1="146.96202531645565" x2="131.8561872909699" y2="156.07594936708858" stroke="black" stroke-width="1" />
  <rect x="123.57859531772576" y="151.01265822784808" width="16.555183946488295" height="5.063291139240505" fill="green" />
  <line x1="150.25083612040135" y1="150.0" x2="150.25083612040135" y2="154.05063291139243" stroke="black" stroke-width="1" />
  <rect x="141.9732441471572" y="152.0253164556962" width="16.555183946488295" height="1.012658227848135" fill="red" />
  <line x1="168.64548494983276" y1="144.93670886075955" x2="168.64548494983276" y2="154.05063291139243" stroke="black" stroke-width="1" />
  <rect x="160.36789297658862" y="144.93670886075955" width="16.555183946488295" height="8.101265822784796" fill="green" />
  <line x1="187.0401337792642" y1="142.91139240506334" x2="187.0401337792642" y2="156.07594936708858" stroke="black" stroke-width="1" />
  <rect x="178.76254180602007" y="142.91139240506334" width="16.555183946488295" height="12.151898734177166" fill="red" />
  <line x1="205.43478260869566" y1="141.89873417721515" x2="205.43478260869566" y2="155.0632911392405" stroke="black" stroke-width="1" />
  <rect x="197.1571906354515" y="146.96202531645565" width="16.555183946488295" height="8.101265822784853" fill="green" />
  <line x1="223.8294314381271" y1="135.82278481012662" x2="223.8294314381271" y2="146.96202531645565" stroke="black" stroke-width="1" />
  <rect x="215.55183946488296" y="135.82278481012662" width="16.555183946488295" height="10.126582278480953" fill="red" />
  <line x1="242.22408026755855" y1="140.88607594936713" x2="242.22408026755855" y2="147.9746835443038" stroke="black" stroke-width="1" />
  <rect x="233.9464882943144" y="140.88607594936713" width="16.555183946488295" height="4.050632911392427" fill="green" />
  <line x1="260.61872909698997" y1="139.87341772151905" x2="260.61872909698997" y2="150.0" stroke="black" stroke-width="1" />
  <rect x="252.34113712374582" y="139.87341772151905" width="16.555183946488295" height="1.0126582278480782" fill="red" />
  <line x1="279.0133779264214" y1="146.96202531645565" x2="279.0133779264214" y2="150.0" stroke="black" stroke-width="1" />
  <rect x="270.73578595317724" y="146.96202531645565" width="16.555183946488295" height="3.0379746835443484" fill="green" />
  <line x1="297.4080267558529" y1="139.87341772151905" x2="297.4080267558529" y2="146.96202531645565" stroke="black" stroke-width="1" />
  <rect x="289.13043478260875" y="139.87341772151905" width="16.555183946488295" height="6.075949367088526" fill="red" />
  <line x1="315.8026755852843" y1="145.94936708860757" x2="315.8026755852843" y2="150.0" stroke="black" stroke-width="1" />
  <rect x="307.52508361204013" y="145.94936708860757" width="16.555183946488295" height="1.0126582278480782" fill="red" />
  <line x1="334.19732441471575" y1="142.91139240506334" x2="334.19732441471575" y2="155.0632911392405" stroke="black" stroke-width="1" />
  <rect x="325.9197324414716" y="145.94936708860757" width="16.555183946488295" height="1" fill="red" />
  <line x1="352.5919732441472" y1="143.92405063291147" x2="352.5919732441472" y2="150.0" stroke="black" stroke-width="1" />
  <rect x="344.314381270903" y="144.93670886075955" width="16.555183946488295" height="3.0379746835442347" fill="red" />
  <line x1="370.98662207357864" y1="144.93670886075955" x2="370.98662207357864" y2="150.0" stroke="black" stroke-width="1" />
  <rect x="362.7090301003345" y="144.93670886075955" width="16.555183946488295" height="3.0379746835442347" fill="green" />
  <line x1="389.3812709030101" y1="145.94936708860757" x2="389.3812709030101" y2="155.0632911392405" stroke="black" stroke-width="1" />
  <rect x="381.1036789297659" y="150.0" width="16.555183946488295" height="1.0126582278480782" fill="red" />
  <line x1="407.77591973244154" y1="140.88607594936713" x2="407.77591973244154" y2="150.0" stroke="black" stroke-width="1" />
  <rect x="399.49832775919737" y="140.88607594936713" width="16.555183946488295" height="4.050632911392427" fill="red" />
  <line x1="426.170568561873" y1="143.92405063291147" x2="426.170568561873" y2="151.01265822784808" stroke="black" stroke-width="1" />
  <rect x="417.8929765886288" y="143.92405063291147" width="16.555183946488295" height="7.0886075949366045" fill="red" />
  <line x1="444.5652173913044" y1="140.88607594936713" x2="444.5652173913044" y2="151.01265822784808" stroke="black" stroke-width="1" />
  <rect x="436.2876254180602" y="145.94936708860757" width="16.555183946488295" height="5.063291139240505" fill="green" />
  <line x1="462.9598662207358" y1="147.9746835443038" x2="462.9598662207358" y2="155.0632911392405" stroke="black" stroke-width="1" />
  <rect x="454.68227424749165" y="147.9746835443038" width="16.555183946488295" height="7.088607594936718" fill="green" />
  <line x1="481.35451505016727" y1="130.75949367088617" x2="481.35451505016727" y2="144.93670886075955" stroke="black" stroke-width="1" />
  <rect x="473.0769230769231" y="139.87341772151905" width="16.555183946488295" height="5.063291139240505" fill="green" />
  <line x1="499.7491638795987" y1="138.8607594936709" x2="499.7491638795987" y2="148.98734177215192" stroke="black" stroke-width="1" />
  <rect x="491.47157190635454" y="139.87341772151905" width="16.555183946488295" height="9.113924050632875" fill="red" />
  <line x1="518.1438127090302" y1="150.0" x2="518.1438127090302" y2="154.05063291139243" stroke="black" stroke-width="1" />
  <rect x="509.866220735786" y="150.0" width="16.555183946488295" height="1.0126582278480782" fill="green" />
  <line x1="536.5384615384617" y1="150.0" x2="536.5384615384617" y2="153.03797468354435" stroke="black" stroke-width="1" />
  <rect x="528.2608695652175" y="151.01265822784808" width="16.555183946488295" height="2.02531645569627" fill="green" />
  <line x1="554.933110367893" y1="144.93670886075955" x2="554.933110367893" y2="152.0253164556962" stroke="black" stroke-width="1" />
  <rect x="546.6555183946489" y="144.93670886075955" width="16.555183946488295" height="7.088607594936661" fill="red" />
  <line x1="573.3277591973244" y1="135.82278481012662" x2="573.3277591973244" y2="145.94936708860757" stroke="black" stroke-width="1" />
  <rect x="565.0501672240803" y="145.94936708860757" width="16.555183946488295" height="1" fill="red" />
  <line x1="591.7224080267559" y1="137.84810126582283" x2="591.7224080267559" y2="147.9746835443038" stroke="black" stroke-width="1" />
  <rect x="583.4448160535118" y="145.94936708860757" width="16.555183946488295" height="2.0253164556962133" fill="green" />
</svg>