<svg width="800" height="300" xmlns="http://www.w3.org/2000/svg">
  <line x1="40" y1="250" x2="40" y2="50" stroke="black" stroke-width="2" />
  <line x1="35" y1="250.0" x2="40" y2="250.0" stroke="black" stroke-width="1" />
  <text x="10" y="255.0" font-size="10" fill="black">75</text>
  <line x1="40" y1="250.0" x2="780" y2="250.0" stroke="lightgray" stroke-width="1" stroke-dasharray="5, 5" />
  <line x1="35" y1="210.0" x2="40" y2="210.0" stroke="black" stroke-width="1" />
  <text x="10" y="215.0" font-size="10" fill="black">85</text>
  <line x1="40" y1="210.0" x2="780" y2="210.0" stroke="lightgray" stroke-width="1" stroke-dasharray="5, 5" />
  <line x1="35" y1="170.0" x2="40" y2="170.0" stroke="black" stroke-width="1" />
  <text x="10" y="175.0" font-size="10" fill="black">95</text>
  <line x1="40" y1="170.0" x2="780" y2="170.0" stroke="lightgray" stroke-width="1" stroke-dasharray="5, 5" />
  <line x1="35" y1="130.0" x2="40" y2="130.0" stroke="black" stroke-width="1" />
  <text x="10" y="135.0" font-size="10" fill="black">105</text>
  <line x1="40" y1="130.0" x2="780" y2="130.0" stroke="lightgray" stroke-width="1" stroke-dasharray="5, 5" />
  <line x1="35" y1="90.0" x2="40" y2="90.0" stroke="black" stroke-width="1" />
  <text x="10" y="95.0" font-size="10" fill="black">115</text>
  <line x1="40" y1="90.0" x2="780" y2="90.0" stroke="lightgray" stroke-width="1" stroke-dasharray="5, 5" />
  <line x1="35" y1="50.0" x2="40" y2="50.0" stroke="black" stroke-width="1" />
  <text x="10" y="55.0" font-size="10" fill="black">125</text>
  <line x1="40" y1="50.0" x2="780" y2="50.0" stroke="lightgray" stroke-width="1" stroke-dasharray="5, 5" />
  <line x1="35" y1="150.0" x2="40" y2="150.0" stroke="black" stroke-width="1" />
  <text x="10" y="155.0" font-size="10" fill="black">100</text>
  <line x1="40" y1="150.0" x2="780" y2="150.0" stroke="lightgray" stroke-width="1" stroke-dasharray="5, 5" />
  <line x1="48.666666666666664" y1="140.31847133757964" x2="48.666666666666664" y2="160.36093418259026" stroke="black" stroke-width="1" />
  <rect x="40.86666666666667" y="150.0" width="15.6" height="2.377919320594458" fill="red" />
  <line x1="66.0" y1="148.38641188959656" x2="66.0" y2="157.13375796178337" stroke="black" stroke-width="1" />
  <rect x="58.199999999999996" y="152.1231422505308" width="15.6" height="2.717622080679405" fill="red" />
  <line x1="83.33333333333333" y1="150.50955414012736" x2="83.33333333333333" y2="154.75583864118897" stroke="black" stroke-width="1" />
  <rect x="75.53333333333332" y="153.99150743099784" width="15.6" height="1" fill="green" />
  <line x1="100.66666666666667" y1="149.49044585987264" x2="100.66666666666667" y2="156.28450106157112" stroke="black" stroke-width="1" />
  <rect x="92.86666666666666" y="150.50955414012736" width="15.6" height="4.076433121019193" fill="green" />
  <line x1="118.0" y1="146.2632696390658" x2="118.0" y2="152.1231422505308" stroke="black" stroke-width="1" />
  <rect x="110.19999999999999" y="148.72611464968156" width="15.6" height="1.9532908704882743" fill="green" />
  <line x1="135.33333333333331" y1="147.53715498938436" x2="135.33333333333331" y2="155.7749469214437" stroke="black" stroke-width="1" />
  <rect x="127.53333333333332" y="148.72611464968156" width="15.6" height="3.6518046709128953" fill="red" />
  <line x1="152.66666666666666" y1="151.10403397027602" x2="152.66666666666666" y2="157.55838641188956" stroke="black" stroke-width="1" />
  <rect x="144.86666666666667" y="151.18895966029726" width="15.6" height="6.199575371549884" fill="red" />
  <line x1="169.99999999999997" y1="155.4352441613588" x2="169.99999999999997" y2="163.1634819532909" stroke="black" stroke-width="1" />
  <rect x="162.2" y="157.21868365180467" width="15.6" height="5.94479830148623" fill="red" />
  <line x1="187.33333333333331" y1="155.2653927813164" x2="187.33333333333331" y2="162.99363057324837" stroke="black" stroke-width="1" />
  <rect x="179.53333333333333" y="158.3227176220807" width="15.6" height="4.670912951167679" fill="green" />
  <line x1="204.66666666666666" y1="156.11464968152865" x2="204.66666666666666" y2="162.65392781316348" stroke="black" stroke-width="1" />
  <rect x="196.86666666666667" y="157.30360934182596" width="15.6" height="2.8874734607218215" fill="red" />
  <line x1="221.99999999999997" y1="159.17197452229294" x2="221.99999999999997" y2="165.6263269639066" stroke="black" stroke-width="1" />
  <rect x="214.2" y="160.27600849256896" width="15.6" height="1.358811040339674" fill="red" />
  <line x1="239.33333333333331" y1="158.74734607218682" x2="239.33333333333331" y2="170.55201698513798" stroke="black" stroke-width="1" />
  <rect x="231.53333333333333" y="163.58811040339702" width="15.6" height="6.02972399150741" fill="red" />
  <line x1="256.6666666666667" y1="176.41188959660298" x2="256.6666666666667" y2="184.47983014861995" stroke="black" stroke-width="1" />
  <rect x="248.86666666666667" y="179.46921443736727" width="15.6" height="1.1040339702760775" fill="red" />
  <line x1="274.0" y1="177.2611464968153" x2="274.0" y2="185.58386411889592" stroke="black" stroke-width="1" />
  <rect x="266.2" y="180.57324840764335" width="15.6" height="5.010615711252569" fill="red" />
  <line x1="291.3333333333333" y1="183.80042462845012" x2="291.3333333333333" y2="195.43524416135887" stroke="black" stroke-width="1" />
  <rect x="283.5333333333333" y="186.43312101910834" width="15.6" height="9.002123142250525" fill="red" />
  <line x1="308.6666666666667" y1="188.64118895966027" x2="308.6666666666667" y2="192.80254777070058" stroke="black" stroke-width="1" />
  <rect x="300.8666666666667" y="191.95329087048833" width="15.6" height="1" fill="red" />
  <line x1="326.0" y1="191.52866242038215" x2="326.0" y2="199.59660297239913" stroke="black" stroke-width="1" />
  <rect x="318.2" y="192.547770700637" width="15.6" height="5.9447983014861165" fill="red" />
  <line x1="343.3333333333333" y1="190.3397027600849" x2="343.3333333333333" y2="198.9171974522293" stroke="black" stroke-width="1" />
  <rect x="335.5333333333333" y="196.70912951167725" width="15.6" height="1" fill="green" />
  <line x1="360.6666666666667" y1="184.90445859872608" x2="360.6666666666667" y2="192.97239915074312" stroke="black" stroke-width="1" />
  <rect x="352.8666666666667" y="190.42462845010613" width="15.6" height="2.5477707006369883" fill="red" />
  <line x1="378.0" y1="187.79193205944802" x2="378.0" y2="193.312101910828" stroke="black" stroke-width="1" />
  <rect x="370.2" y="188.98089171974516" width="15.6" height="2.292993630573278" fill="green" />
  <line x1="395.3333333333333" y1="185.92356687898086" x2="395.3333333333333" y2="191.27388535031844" stroke="black" stroke-width="1" />
  <rect x="387.5333333333333" y="188.64118895966027" width="15.6" height="2.632696390658168" fill="red" />
  <line x1="412.6666666666667" y1="177.515923566879" x2="412.6666666666667" y2="190.67940552016984" stroke="black" stroke-width="1" />
  <rect x="404.8666666666667" y="179.12951167728238" width="15.6" height="11.040339702760093" fill="green" />
  <line x1="430.0" y1="179.0445859872611" x2="430.0" y2="183.20594479830146" stroke="black" stroke-width="1" />
  <rect x="422.2" y="179.0445859872611" width="15.6" height="1" fill="green" />
  <line x1="447.3333333333333" y1="160.9554140127388" x2="447.3333333333333" y2="174.7133757961784" stroke="black" stroke-width="1" />
  <rect x="439.5333333333333" y="171.06157112526546" width="15.6" height="1.8683651804669807" fill="green" />
  <line x1="464.6666666666667" y1="166.98513800424627" x2="464.6666666666667" y2="185.6687898089172" stroke="black" stroke-width="1" />
  <rect x="456.8666666666667" y="167.57961783439492" width="15.6" height="16.645435244161263" fill="red" />
  <line x1="482.0" y1="181.0828025477707" x2="482.0" y2="191.44373673036085" stroke="black" stroke-width="1" />
  <rect x="474.2" y="183.29087048832275" width="15.6" height="1" fill="green" />
  <line x1="499.3333333333333" y1="170.72186836518046" x2="499.3333333333333" y2="179.3842887473461" stroke="black" stroke-width="1" />
  <rect x="491.5333333333333" y="176.07218683651809" width="15.6" height="1.1040339702760207" fill="red" />
  <line x1="516.6666666666666" y1="171.7409766454353" x2="516.6666666666666" y2="180.40339702760082" stroke="black" stroke-width="1" />
  <rect x="508.8666666666666" y="173.43949044585986" width="15.6" height="6.114649681528647" fill="green" />
  <line x1="533.9999999999999" y1="152.37791932059446" x2="533.9999999999999" y2="167.83439490445858" stroke="black" stroke-width="1" />
  <rect x="526.1999999999999" y="154.07643312101914" width="15.6" height="13.757961783439441" fill="green" />
  <line x1="551.3333333333333" y1="144.14012738853506" x2="551.3333333333333" y2="153.22717622080683" stroke="black" stroke-width="1" />
  <rect x="543.5333333333333" y="144.14012738853506" width="15.6" height="7.048832271762194" fill="green" />

<!-- Resistance Line -->
<line x1="40" y1="150" x2="600" y2="150" stroke="red" stroke-width="2" />
<text x="605" y="150" font-size="10" fill="red">Resistance</text>

<!-- Support Line -->
<line x1="40" y1="185" x2="600" y2="185" stroke="green" stroke-width="2" />
<text x="605" y="185" font-size="10" fill="green">Support</text>

<!-- Downward Trendline -->
<line x1="40" y1="130" x2="600" y2="200" stroke="blue" stroke-width="2" />
<text x="605" y="200" font-size="10" fill="blue">Trendline</text>
</svg>