<svg width="800" height="300" xmlns="http://www.w3.org/2000/svg">
  <line x1="40" y1="250" x2="40" y2="50" stroke="black" stroke-width="2" />
  <line x1="35" y1="250.0" x2="40" y2="250.0" stroke="black" stroke-width="1" />
  <text x="10" y="255.0" font-size="10" fill="black">75</text>
  <line x1="40" y1="250.0" x2="780" y2="250.0" stroke="lightgray" stroke-width="1" stroke-dasharray="5, 5" />
  <line x1="35" y1="210.0" x2="40" y2="210.0" stroke="black" stroke-width="1" />
  <text x="10" y="215.0" font-size="10" fill="black">85</text>
  <line x1="40" y1="210.0" x2="780" y2="210.0" stroke="lightgray" stroke-width="1" stroke-dasharray="5, 5" />
  <line x1="35" y1="170.0" x2="40" y2="170.0" stroke="black" stroke-width="1" />
  <text x="10" y="175.0" font-size="10" fill="black">95</text>
  <line x1="40" y1="170.0" x2="780" y2="170.0" stroke="lightgray" stroke-width="1" stroke-dasharray="5, 5" />
  <line x1="35" y1="130.0" x2="40" y2="130.0" stroke="black" stroke-width="1" />
  <text x="10" y="135.0" font-size="10" fill="black">105</text>
  <line x1="40" y1="130.0" x2="780" y2="130.0" stroke="lightgray" stroke-width="1" stroke-dasharray="5, 5" />
  <line x1="35" y1="90.0" x2="40" y2="90.0" stroke="black" stroke-width="1" />
  <text x="10" y="95.0" font-size="10" fill="black">115</text>
  <line x1="40" y1="90.0" x2="780" y2="90.0" stroke="lightgray" stroke-width="1" stroke-dasharray="5, 5" />
  <line x1="35" y1="50.0" x2="40" y2="50.0" stroke="black" stroke-width="1" />
  <text x="10" y="55.0" font-size="10" fill="black">125</text>
  <line x1="40" y1="50.0" x2="780" y2="50.0" stroke="lightgray" stroke-width="1" stroke-dasharray="5, 5" />
  <line x1="35" y1="150.0" x2="40" y2="150.0" stroke="black" stroke-width="1" />
  <text x="10" y="155.0" font-size="10" fill="black">100</text>
  <line x1="40" y1="150.0" x2="780" y2="150.0" stroke="lightgray" stroke-width="1" stroke-dasharray="5, 5" />
  <line x1="48.666666666666664" y1="147.9746835443038" x2="48.666666666666664" y2="151.01265822784808" stroke="black" stroke-width="1" />
  <rect x="40.86666666666667" y="150.0" width="15.6" height="1.0126582278480782" fill="red" />
  <line x1="66.0" y1="146.96202531645565" x2="66.0" y2="151.01265822784808" stroke="black" stroke-width="1" />
  <rect x="58.199999999999996" y="147.9746835443038" width="15.6" height="1.012658227848135" fill="red" />
  <line x1="83.33333333333333" y1="136.8354430379747" x2="83.33333333333333" y2="147.9746835443038" stroke="black" stroke-width="1" />
  <rect x="75.53333333333332" y="136.8354430379747" width="15.6" height="11.139240506329088" fill="green" />
  <line x1="100.66666666666667" y1="136.8354430379747" x2="100.66666666666667" y2="146.96202531645565" stroke="black" stroke-width="1" />
  <rect x="92.86666666666666" y="136.8354430379747" width="15.6" height="10.126582278480953" fill="red" />
  <line x1="118.0" y1="146.96202531645565" x2="118.0" y2="156.07594936708858" stroke="black" stroke-width="1" />
  <rect x="110.19999999999999" y="151.01265822784808" width="15.6" height="5.063291139240505" fill="green" />
  <line x1="135.33333333333331" y1="150.0" x2="135.33333333333331" y2="154.05063291139243" stroke="black" stroke-width="1" />
  <rect x="127.53333333333332" y="152.0253164556962" width="15.6" height="1.012658227848135" fill="red" />
  <line x1="152.66666666666666" y1="144.93670886075955" x2="152.66666666666666" y2="154.05063291139243" stroke="black" stroke-width="1" />
  <rect x="144.86666666666667" y="144.93670886075955" width="15.6" height="8.101265822784796" fill="green" />
  <line x1="169.99999999999997" y1="142.91139240506334" x2="169.99999999999997" y2="156.07594936708858" stroke="black" stroke-width="1" />
  <rect x="162.2" y="142.91139240506334" width="15.6" height="12.151898734177166" fill="red" />
  <line x1="187.33333333333331" y1="141.89873417721515" x2="187.33333333333331" y2="155.0632911392405" stroke="black" stroke-width="1" />
  <rect x="179.53333333333333" y="146.96202531645565" width="15.6" height="8.101265822784853" fill="green" />
  <line x1="204.66666666666666" y1="135.82278481012662" x2="204.66666666666666" y2="146.96202531645565" stroke="black" stroke-width="1" />
  <rect x="196.86666666666667" y="135.82278481012662" width="15.6" height="10.126582278480953" fill="red" />
  <line x1="221.99999999999997" y1="140.88607594936713" x2="221.99999999999997" y2="147.9746835443038" stroke="black" stroke-width="1" />
  <rect x="214.2" y="140.88607594936713" width="15.6" height="4.050632911392427" fill="green" />
  <line x1="239.33333333333331" y1="139.87341772151905" x2="239.33333333333331" y2="150.0" stroke="black" stroke-width="1" />
  <rect x="231.53333333333333" y="139.87341772151905" width="15.6" height="1.0126582278480782" fill="red" />
  <line x1="256.6666666666667" y1="146.96202531645565" x2="256.6666666666667" y2="150.0" stroke="black" stroke-width="1" />
  <rect x="248.86666666666667" y="146.96202531645565" width="15.6" height="3.0379746835443484" fill="green" />
  <line x1="274.0" y1="139.87341772151905" x2="274.0" y2="146.96202531645565" stroke="black" stroke-width="1" />
  <rect x="266.2" y="139.87341772151905" width="15.6" height="6.075949367088526" fill="red" />
  <line x1="291.3333333333333" y1="145.94936708860757" x2="291.3333333333333" y2="150.0" stroke="black" stroke-width="1" />
  <rect x="283.5333333333333" y="145.94936708860757" width="15.6" height="1.0126582278480782" fill="red" />
  <line x1="308.6666666666667" y1="142.91139240506334" x2="308.6666666666667" y2="155.0632911392405" stroke="black" stroke-width="1" />
  <rect x="300.8666666666667" y="145.94936708860757" width="15.6" height="1" fill="red" />
  <line x1="326.0" y1="143.92405063291147" x2="326.0" y2="150.0" stroke="black" stroke-width="1" />
  <rect x="318.2" y="144.93670886075955" width="15.6" height="3.0379746835442347" fill="red" />
  <line x1="343.3333333333333" y1="144.93670886075955" x2="343.3333333333333" y2="150.0" stroke="black" stroke-width="1" />
  <rect x="335.5333333333333" y="144.93670886075955" width="15.6" height="3.0379746835442347" fill="green" />
  <line x1="360.6666666666667" y1="145.94936708860757" x2="360.6666666666667" y2="155.0632911392405" stroke="black" stroke-width="1" />
  <rect x="352.8666666666667" y="150.0" width="15.6" height="1.0126582278480782" fill="red" />
  <line x1="378.0" y1="140.88607594936713" x2="378.0" y2="150.0" stroke="black" stroke-width="1" />
  <rect x="370.2" y="140.88607594936713" width="15.6" height="4.050632911392427" fill="red" />
  <line x1="395.3333333333333" y1="143.92405063291147" x2="395.3333333333333" y2="151.01265822784808" stroke="black" stroke-width="1" />
  <rect x="387.5333333333333" y="143.92405063291147" width="15.6" height="7.0886075949366045" fill="red" />
  <line x1="412.6666666666667" y1="140.88607594936713" x2="412.6666666666667" y2="151.01265822784808" stroke="black" stroke-width="1" />
  <rect x="404.8666666666667" y="145.94936708860757" width="15.6" height="5.063291139240505" fill="green" />
  <line x1="430.0" y1="147.9746835443038" x2="430.0" y2="155.0632911392405" stroke="black" stroke-width="1" />
  <rect x="422.2" y="147.9746835443038" width="15.6" height="7.088607594936718" fill="green" />
  <line x1="447.3333333333333" y1="130.75949367088617" x2="447.3333333333333" y2="144.93670886075955" stroke="black" stroke-width="1" />
  <rect x="439.5333333333333" y="139.87341772151905" width="15.6" height="5.063291139240505" fill="green" />
  <line x1="464.6666666666667" y1="138.8607594936709" x2="464.6666666666667" y2="148.98734177215192" stroke="black" stroke-width="1" />
  <rect x="456.8666666666667" y="139.87341772151905" width="15.6" height="9.113924050632875" fill="red" />
  <line x1="482.0" y1="150.0" x2="482.0" y2="154.05063291139243" stroke="black" stroke-width="1" />
  <rect x="474.2" y="150.0" width="15.6" height="1.0126582278480782" fill="green" />
  <line x1="499.3333333333333" y1="150.0" x2="499.3333333333333" y2="153.03797468354435" stroke="black" stroke-width="1" />
  <rect x="491.5333333333333" y="151.01265822784808" width="15.6" height="2.02531645569627" fill="green" />
  <line x1="516.6666666666666" y1="144.93670886075955" x2="516.6666666666666" y2="152.0253164556962" stroke="black" stroke-width="1" />
  <rect x="508.8666666666666" y="144.93670886075955" width="15.6" height="7.088607594936661" fill="red" />
  <line x1="533.9999999999999" y1="135.82278481012662" x2="533.9999999999999" y2="145.94936708860757" stroke="black" stroke-width="1" />
  <rect x="526.1999999999999" y="145.94936708860757" width="15.6" height="1" fill="red" />
  <line x1="551.3333333333333" y1="137.84810126582283" x2="551.3333333333333" y2="147.9746835443038" stroke="black" stroke-width="1" />
  <rect x="543.5333333333333" y="145.94936708860757" width="15.6" height="2.0253164556962133" fill="green" />

<!-- Resistance Line -->
<line x1="40" y1="130" x2="600" y2="130" stroke="blue" stroke-width="2" />
<text x="605" y="135" font-size="10" fill="blue">Resistance</text>

<!-- Support Line -->
<line x1="40" y1="150" x2="600" y2="150" stroke="green" stroke-width="2" />
<text x="605" y="155" font-size="10" fill="green">Support</text>

<!-- Trendline -->
<line x1="40" y1="170" x2="600" y2="130" stroke="purple" stroke-width="2" />
<text x="605" y="135" font-size="10" fill="purple">Trendline</text>
</svg>