<svg width="800" height="300" xmlns="http://www.w3.org/2000/svg">
  <line x1="40" y1="250" x2="40" y2="50" stroke="black" stroke-width="2" />
  <line x1="35" y1="250.0" x2="40" y2="250.0" stroke="black" stroke-width="1" />
  <text x="10" y="255.0" font-size="10" fill="black">75</text>
  <line x1="40" y1="250.0" x2="780" y2="250.0" stroke="lightgray" stroke-width="1" stroke-dasharray="5,5" />
  <line x1="35" y1="210.0" x2="40" y2="210.0" stroke="black" stroke-width="1" />
  <text x="10" y="215.0" font-size="10" fill="black">85</text>
  <line x1="40" y1="210.0" x2="780" y2="210.0" stroke="lightgray" stroke-width="1" stroke-dasharray="5,5" />
  <line x1="35" y1="170.0" x2="40" y2="170.0" stroke="black" stroke-width="1" />
  <text x="10" y="175.0" font-size="10" fill="black">95</text>
  <line x1="40" y1="170.0" x2="780" y2="170.0" stroke="lightgray" stroke-width="1" stroke-dasharray="5,5" />
  <line x1="35" y1="130.0" x2="40" y2="130.0" stroke="black" stroke-width="1" />
  <text x="10" y="135.0" font-size="10" fill="black">105</text>
  <line x1="40" y1="130.0" x2="780" y2="130.0" stroke="lightgray" stroke-width="1" stroke-dasharray="5,5" />
  <line x1="35" y1="90.0" x2="40" y2="90.0" stroke="black" stroke-width="1" />
  <text x="10" y="95.0" font-size="10" fill="black">115</text>
  <line x1="40" y1="90.0" x2="780" y2="90.0" stroke="lightgray" stroke-width="1" stroke-dasharray="5,5" />
  <line x1="35" y1="50.0" x2="40" y2="50.0" stroke="black" stroke-width="1" />
  <text x="10" y="55.0" font-size="10" fill="black">125</text>
  <line x1="40" y1="50.0" x2="780" y2="50.0" stroke="lightgray" stroke-width="1" stroke-dasharray="5,5" />
  <line x1="58.27759197324415" y1="140.31847133757964" x2="58.27759197324415" y2="160.36093418259026" stroke="black" stroke-width="1" />
  <rect x="50.0" y="150.0" width="16.555183946488295" height="2.377919320594458" fill="red" />
  <line x1="76.67224080267559" y1="148.38641188959656" x2="76.67224080267559" y2="157.13375796178337" stroke="black" stroke-width="1" />
  <rect x="68.39464882943145" y="152.1231422505308" width="16.555183946488295" height="2.717622080679405" fill="red" />
  <line x1="95.06688963210702" y1="150.50955414012736" x2="95.06688963210702" y2="154.75583864118897" stroke="black" stroke-width="1" />
  <rect x="86.78929765886288" y="153.99150743099784" width="16.555183946488295" height="1" fill="green" />
  <line x1="113.46153846153845" y1="149.49044585987264" x2="113.46153846153845" y2="156.28450106157112" stroke="black" stroke-width="1" />
  <rect x="105.18394648829431" y="150.50955414012736" width="16.555183946488295" height="4.076433121019193" fill="green" />
  <line x1="131.8561872909699" y1="146.2632696390658" x2="131.8561872909699" y2="152.1231422505308" stroke="black" stroke-width="1" />
  <rect x="123.57859531772576" y="148.72611464968156" width="16.555183946488295" height="1.9532908704882743" fill="green" />
  <line x1="150.25083612040135" y1="147.53715498938436" x2="150.25083612040135" y2="155.7749469214437" stroke="black" stroke-width="1" />
  <rect x="141.9732441471572" y="148.72611464968156" width="16.555183946488295" height="3.6518046709128953" fill="red" />
  <line x1="168.64548494983276" y1="151.10403397027602" x2="168.64548494983276" y2="157.55838641188956" stroke="black" stroke-width="1" />
  <rect x="160.36789297658862" y="151.18895966029726" width="16.555183946488295" height="6.199575371549884" fill="red" />
  <line x1="187.0401337792642" y1="155.4352441613588" x2="187.0401337792642" y2="163.1634819532909" stroke="black" stroke-width="1" />
  <rect x="178.76254180602007" y="157.21868365180467" width="16.555183946488295" height="5.94479830148623" fill="red" />
  <line x1="205.43478260869566" y1="155.2653927813164" x2="205.43478260869566" y2="162.99363057324837" stroke="black" stroke-width="1" />
  <rect x="197.1571906354515" y="158.3227176220807" width="16.555183946488295" height="4.670912951167679" fill="green" />
  <line x1="223.8294314381271" y1="156.11464968152865" x2="223.8294314381271" y2="162.65392781316348" stroke="black" stroke-width="1" />
  <rect x="215.55183946488296" y="157.30360934182596" width="16.555183946488295" height="2.8874734607218215" fill="red" />
  <line x1="242.22408026755855" y1="159.17197452229294" x2="242.22408026755855" y2="165.6263269639066" stroke="black" stroke-width="1" />
  <rect x="233.9464882943144" y="160.27600849256896" width="16.555183946488295" height="1.358811040339674" fill="red" />
  <line x1="260.61872909698997" y1="158.74734607218682" x2="260.61872909698997" y2="170.55201698513798" stroke="black" stroke-width="1" />
  <rect x="252.34113712374582" y="163.58811040339702" width="16.555183946488295" height="6.02972399150741" fill="red" />
  <line x1="279.0133779264214" y1="176.41188959660298" x2="279.0133779264214" y2="184.47983014861995" stroke="black" stroke-width="1" />
  <rect x="270.73578595317724" y="179.46921443736727" width="16.555183946488295" height="1.1040339702760775" fill="red" />
  <line x1="297.4080267558529" y1="177.2611464968153" x2="297.4080267558529" y2="185.58386411889592" stroke="black" stroke-width="1" />
  <rect x="289.13043478260875" y="180.57324840764335" width="16.555183946488295" height="5.010615711252569" fill="red" />
  <line x1="315.8026755852843" y1="183.80042462845012" x2="315.8026755852843" y2="195.43524416135887" stroke="black" stroke-width="1" />
  <rect x="307.52508361204013" y="186.43312101910834" width="16.555183946488295" height="9.002123142250525" fill="red" />
  <line x1="334.19732441471575" y1="188.64118895966027" x2="334.19732441471575" y2="192.80254777070058" stroke="black" stroke-width="1" />
  <rect x="325.9197324414716" y="191.95329087048833" width="16.555183946488295" height="1" fill="red" />
  <line x1="352.5919732441472" y1="191.52866242038215" x2="352.5919732441472" y2="199.59660297239913" stroke="black" stroke-width="1" />
  <rect x="344.314381270903" y="192.547770700637" width="16.555183946488295" height="5.9447983014861165" fill="red" />
  <line x1="370.98662207357864" y1="190.3397027600849" x2="370.98662207357864" y2="198.9171974522293" stroke="black" stroke-width="1" />
  <rect x="362.7090301003345" y="196.70912951167725" width="16.555183946488295" height="1" fill="green" />
  <line x1="389.3812709030101" y1="184.90445859872608" x2="389.3812709030101" y2="192.97239915074312" stroke="black" stroke-width="1" />
  <rect x="381.1036789297659" y="190.42462845010613" width="16.555183946488295" height="2.5477707006369883" fill="red" />
  <line x1="407.77591973244154" y1="187.79193205944802" x2="407.77591973244154" y2="193.312101910828" stroke="black" stroke-width="1" />
  <rect x="399.49832775919737" y="188.98089171974516" width="16.555183946488295" height="2.292993630573278" fill="green" />
  <line x1="426.170568561873" y1="185.92356687898086" x2="426.170568561873" y2="191.27388535031844" stroke="black" stroke-width="1" />
  <rect x="417.8929765886288" y="188.64118895966027" width="16.555183946488295" height="2.632696390658168" fill="red" />
  <line x1="444.5652173913044" y1="177.515923566879" x2="444.5652173913044" y2="190.67940552016984" stroke="black" stroke-width="1" />
  <rect x="436.2876254180602" y="179.12951167728238" width="16.555183946488295" height="11.040339702760093" fill="green" />
  <line x1="462.9598662207358" y1="179.0445859872611" x2="462.9598662207358" y2="183.20594479830146" stroke="black" stroke-width="1" />
  <rect x="454.68227424749165" y="179.0445859872611" width="16.555183946488295" height="1" fill="green" />
  <line x1="481.35451505016727" y1="160.9554140127388" x2="481.35451505016727" y2="174.7133757961784" stroke="black" stroke-width="1" />
  <rect x="473.0769230769231" y="171.06157112526546" width="16.555183946488295" height="1.8683651804669807" fill="green" />
  <line x1="499.7491638795987" y1="166.98513800424627" x2="499.7491638795987" y2="185.6687898089172" stroke="black" stroke-width="1" />
  <rect x="491.47157190635454" y="167.57961783439492" width="16.555183946488295" height="16.645435244161263" fill="red" />
  <line x1="518.1438127090302" y1="181.0828025477707" x2="518.1438127090302" y2="191.44373673036085" stroke="black" stroke-width="1" />
  <rect x="509.866220735786" y="183.29087048832275" width="16.555183946488295" height="1" fill="green" />
  <line x1="536.5384615384617" y1="170.72186836518046" x2="536.5384615384617" y2="179.3842887473461" stroke="black" stroke-width="1" />
  <rect x="528.2608695652175" y="176.07218683651809" width="16.555183946488295" height="1.1040339702760207" fill="red" />
  <line x1="554.933110367893" y1="171.7409766454353" x2="554.933110367893" y2="180.40339702760082" stroke="black" stroke-width="1" />
  <rect x="546.6555183946489" y="173.43949044585986" width="16.555183946488295" height="6.114649681528647" fill="green" />
  <line x1="573.3277591973244" y1="152.37791932059446" x2="573.3277591973244" y2="167.83439490445858" stroke="black" stroke-width="1" />
  <rect x="565.0501672240803" y="154.07643312101914" width="16.555183946488295" height="13.757961783439441" fill="green" />
  <line x1="591.7224080267559" y1="144.14012738853506" x2="591.7224080267559" y2="153.22717622080683" stroke="black" stroke-width="1" />
  <rect x="583.4448160535118" y="144.14012738853506" width="16.555183946488295" height="7.048832271762194" fill="green" />
</svg>