<svg width="800" height="300" xmlns="http://www.w3.org/2000/svg">
  <line x1="40" y1="250" x2="40" y2="50" stroke="black" stroke-width="2" />
  <line x1="35" y1="250.0" x2="40" y2="250.0" stroke="black" stroke-width="1" />
  <text x="10" y="255.0" font-size="10" fill="black">75</text>
  <line x1="40" y1="250.0" x2="780" y2="250.0" stroke="lightgray" stroke-width="1" stroke-dasharray="5, 5" />
  <line x1="35" y1="210.0" x2="40" y2="210.0" stroke="black" stroke-width="1" />
  <text x="10" y="215.0" font-size="10" fill="black">85</text>
  <line x1="40" y1="210.0" x2="780" y2="210.0" stroke="lightgray" stroke-width="1" stroke-dasharray="5, 5" />
  <line x1="35" y1="170.0" x2="40" y2="170.0" stroke="black" stroke-width="1" />
  <text x="10" y="175.0" font-size="10" fill="black">95</text>
  <line x1="40" y1="170.0" x2="780" y2="170.0" stroke="lightgray" stroke-width="1" stroke-dasharray="5, 5" />
  <line x1="35" y1="130.0" x2="40" y2="130.0" stroke="black" stroke-width="1" />
  <text x="10" y="135.0" font-size="10" fill="black">105</text>
  <line x1="40" y1="130.0" x2="780" y2="130.0" stroke="lightgray" stroke-width="1" stroke-dasharray="5, 5" />
  <line x1="35" y1="90.0" x2="40" y2="90.0" stroke="black" stroke-width="1" />
  <text x="10" y="95.0" font-size="10" fill="black">115</text>
  <line x1="40" y1="90.0" x2="780" y2="90.0" stroke="lightgray" stroke-width="1" stroke-dasharray="5, 5" />
  <line x1="35" y1="50.0" x2="40" y2="50.0" stroke="black" stroke-width="1" />
  <text x="10" y="55.0" font-size="10" fill="black">125</text>
  <line x1="40" y1="50.0" x2="780" y2="50.0" stroke="lightgray" stroke-width="1" stroke-dasharray="5, 5" />
  <line x1="35" y1="150.0" x2="40" y2="150.0" stroke="black" stroke-width="1" />
  <text x="10" y="155.0" font-size="10" fill="black">100</text>
  <line x1="40" y1="150.0" x2="780" y2="150.0" stroke="lightgray" stroke-width="1" stroke-dasharray="5, 5" />
  <line x1="48.666666666666664" y1="149.29624346172136" x2="48.666666666666664" y2="153.13837375178315" stroke="black" stroke-width="1" />
  <rect x="40.86666666666667" y="150.0" width="15.6" height="2.0256776034236736" fill="red" />
  <line x1="66.0" y1="148.90632429862103" x2="66.0" y2="153.93723252496437" stroke="black" stroke-width="1" />
  <rect x="58.199999999999996" y="149.1155492154066" width="15.6" height="2.4441274369947905" fill="green" />
  <line x1="83.33333333333333" y1="144.9976224441275" x2="83.33333333333333" y2="149.01093675701384" stroke="black" stroke-width="1" />
  <rect x="75.53333333333332" y="146.00570613409423" width="15.6" height="2.948169281978039" fill="green" />
  <line x1="100.66666666666667" y1="144.48407037565386" x2="100.66666666666667" y2="148.93485496909176" stroke="black" stroke-width="1" />
  <rect x="92.86666666666666" y="146.63338088445084" width="15.6" height="1" fill="green" />
  <line x1="118.0" y1="144.11326676176895" x2="118.0" y2="155.69662387066097" stroke="black" stroke-width="1" />
  <rect x="110.19999999999999" y="146.42415596766529" width="15.6" height="8.378506894911993" fill="red" />
  <line x1="135.33333333333331" y1="151.2743699476938" x2="135.33333333333331" y2="158.09320019020447" stroke="black" stroke-width="1" />
  <rect x="127.53333333333332" y="153.44270090347123" width="15.6" height="1" fill="red" />
  <line x1="152.66666666666666" y1="153.15748930099858" x2="152.66666666666666" y2="158.8064669519734" stroke="black" stroke-width="1" />
  <rect x="144.86666666666667" y="154.02757964812173" width="15.6" height="2.7341892534474823" fill="red" />
  <line x1="169.99999999999997" y1="155.93437945791726" x2="169.99999999999997" y2="159.84308131241085" stroke="black" stroke-width="1" />
  <rect x="162.2" y="156.4289110794104" width="15.6" height="1" fill="green" />
  <line x1="187.33333333333331" y1="155.32572515454115" x2="187.33333333333331" y2="162.63908701854496" stroke="black" stroke-width="1" />
  <rect x="179.53333333333333" y="155.43984783642418" width="15.6" height="4.070375653827853" fill="red" />
  <line x1="204.66666666666666" y1="148.6210175939135" x2="204.66666666666666" y2="159.51022349025203" stroke="black" stroke-width="1" />
  <rect x="196.86666666666667" y="155.38278649548266" width="15.6" height="1.7308606752258697" fill="red" />
  <line x1="221.99999999999997" y1="152.95767950546838" x2="221.99999999999997" y2="158.05515929624352" stroke="black" stroke-width="1" />
  <rect x="214.2" y="153.29053732762725" width="15.6" height="1.4645744174987954" fill="green" />
  <line x1="239.33333333333331" y1="150.6847360912982" x2="239.33333333333331" y2="162.90537327627203" stroke="black" stroke-width="1" />
  <rect x="231.53333333333333" y="152.55825011887782" width="15.6" height="8.05515929624346" fill="red" />
  <line x1="256.6666666666667" y1="158.90156918687592" x2="256.6666666666667" y2="165.43509272467907" stroke="black" stroke-width="1" />
  <rect x="248.86666666666667" y="161.12696148359487" width="15.6" height="2.8435568235853452" fill="green" />
  <line x1="274.0" y1="157.13266761768898" x2="274.0" y2="163.7612933903947" stroke="black" stroke-width="1" />
  <rect x="266.2" y="161.61198288159773" width="15.6" height="1" fill="green" />
  <line x1="291.3333333333333" y1="159.4626723728008" x2="291.3333333333333" y2="168.830242510699" stroke="black" stroke-width="1" />
  <rect x="283.5333333333333" y="160.97479790775083" width="15.6" height="6.9995244888255" fill="red" />
  <line x1="308.6666666666667" y1="161.3647170708512" x2="308.6666666666667" y2="167.54636233951504" stroke="black" stroke-width="1" />
  <rect x="300.8666666666667" y="162.7056585829767" width="15.6" height="1.44555397051829" fill="red" />
  <line x1="326.0" y1="154.06086543033769" x2="326.0" y2="162.26818830242513" stroke="black" stroke-width="1" />
  <rect x="318.2" y="156.0865430337613" width="15.6" height="5.706134094151196" fill="green" />
  <line x1="343.3333333333333" y1="146.7760342368046" x2="343.3333333333333" y2="160.48026628625774" stroke="black" stroke-width="1" />
  <rect x="335.5333333333333" y="147.67950546837847" width="15.6" height="7.170708511650105" fill="green" />
  <line x1="360.6666666666667" y1="143.56233951497865" x2="360.6666666666667" y2="150.80836899667145" stroke="black" stroke-width="1" />
  <rect x="352.8666666666667" y="143.91345696623875" width="15.6" height="3.5092724679029175" fill="green" />
  <line x1="378.0" y1="139.32001902044703" x2="378.0" y2="145.37803138373755" stroke="black" stroke-width="1" />
  <rect x="370.2" y="140.4992867332383" width="15.6" height="4.531621493105035" fill="green" />
  <line x1="395.3333333333333" y1="137.7032810271042" x2="395.3333333333333" y2="142.75320970042793" stroke="black" stroke-width="1" />
  <rect x="387.5333333333333" y="139.78601997146933" width="15.6" height="1" fill="green" />
  <line x1="412.6666666666667" y1="129.79077508321444" x2="412.6666666666667" y2="138.90156918687592" stroke="black" stroke-width="1" />
  <rect x="404.8666666666667" y="131.33143128863526" width="15.6" height="4.831193533048122" fill="red" />
  <line x1="430.0" y1="135.3257251545412" x2="430.0" y2="140.67047075606274" stroke="black" stroke-width="1" />
  <rect x="422.2" y="136.30527817403708" width="15.6" height="3.984783642415664" fill="red" />
  <line x1="447.3333333333333" y1="130.1236329053733" x2="447.3333333333333" y2="134.49833571088925" stroke="black" stroke-width="1" />
  <rect x="439.5333333333333" y="130.38516405135522" width="15.6" height="2.410841654778949" fill="red" />
  <line x1="464.6666666666667" y1="132.2729434141703" x2="464.6666666666667" y2="137.04707560627674" stroke="black" stroke-width="1" />
  <rect x="456.8666666666667" y="134.1940085592011" width="15.6" height="1.8544935805991827" fill="red" />
  <line x1="482.0" y1="134.91678554446037" x2="482.0" y2="140.69053732762723" stroke="black" stroke-width="1" />
  <rect x="474.2" y="136.99001426533528" width="15.6" height="1" fill="red" />
  <line x1="499.3333333333333" y1="137.8744650499287" x2="499.3333333333333" y2="144.76937708036138" stroke="black" stroke-width="1" />
  <rect x="491.5333333333333" y="138.2073228720875" width="15.6" height="3.6424155967665115" fill="red" />
  <line x1="516.6666666666666" y1="138.09415121255347" x2="516.6666666666666" y2="142.42035187826917" stroke="black" stroke-width="1" />
  <rect x="508.8666666666666" y="139.0537327627199" width="15.6" height="2.1683309557775488" fill="green" />
  <line x1="533.9999999999999" y1="136.01997146932956" x2="533.9999999999999" y2="141.88777936281508" stroke="black" stroke-width="1" />
  <rect x="526.1999999999999" y="136.22444127437" width="15.6" height="3.5901093675701077" fill="red" />
  <line x1="551.3333333333333" y1="139.30099857346647" x2="551.3333333333333" y2="143.4664764621969" stroke="black" stroke-width="1" />
  <rect x="543.5333333333333" y="139.61483594864478" width="15.6" height="3.328578221588259" fill="red" />

<!-- Resistance Line -->
<line x1="40" y1="130" x2="600" y2="130" stroke="blue" stroke-width="2" />
<text x="605" y="135" font-size="10" fill="blue">Resistance</text>

<!-- Support Line -->
<line x1="40" y1="170" x2="600" y2="170" stroke="green" stroke-width="2" />
<text x="605" y="175" font-size="10" fill="green">Support</text>

<!-- Trendline -->
<line x1="40" y1="250" x2="600" y2="140" stroke="purple" stroke-width="2" />
<text x="605" y="145" font-size="10" fill="purple">Trendline</text>
</svg>