<svg width="800" height="300" xmlns="http://www.w3.org/2000/svg">
  <line x1="40" y1="250" x2="40" y2="50" stroke="black" stroke-width="2" />
  <line x1="35" y1="250.0" x2="40" y2="250.0" stroke="black" stroke-width="1" />
  <text x="10" y="255.0" font-size="10" fill="black">75</text>
  <line x1="40" y1="250.0" x2="780" y2="250.0" stroke="lightgray" stroke-width="1" stroke-dasharray="5,5" />
  <line x1="35" y1="210.0" x2="40" y2="210.0" stroke="black" stroke-width="1" />
  <text x="10" y="215.0" font-size="10" fill="black">85</text>
  <line x1="40" y1="210.0" x2="780" y2="210.0" stroke="lightgray" stroke-width="1" stroke-dasharray="5,5" />
  <line x1="35" y1="170.0" x2="40" y2="170.0" stroke="black" stroke-width="1" />
  <text x="10" y="175.0" font-size="10" fill="black">95</text>
  <line x1="40" y1="170.0" x2="780" y2="170.0" stroke="lightgray" stroke-width="1" stroke-dasharray="5,5" />
  <line x1="35" y1="130.0" x2="40" y2="130.0" stroke="black" stroke-width="1" />
  <text x="10" y="135.0" font-size="10" fill="black">105</text>
  <line x1="40" y1="130.0" x2="780" y2="130.0" stroke="lightgray" stroke-width="1" stroke-dasharray="5,5" />
  <line x1="35" y1="90.0" x2="40" y2="90.0" stroke="black" stroke-width="1" />
  <text x="10" y="95.0" font-size="10" fill="black">115</text>
  <line x1="40" y1="90.0" x2="780" y2="90.0" stroke="lightgray" stroke-width="1" stroke-dasharray="5,5" />
  <line x1="35" y1="50.0" x2="40" y2="50.0" stroke="black" stroke-width="1" />
  <text x="10" y="55.0" font-size="10" fill="black">125</text>
  <line x1="40" y1="50.0" x2="780" y2="50.0" stroke="lightgray" stroke-width="1" stroke-dasharray="5,5" />
  <line x1="58.27759197324415" y1="149.29624346172136" x2="58.27759197324415" y2="153.13837375178315" stroke="black" stroke-width="1" />
  <rect x="50.0" y="150.0" width="16.555183946488295" height="2.0256776034236736" fill="red" />
  <line x1="76.67224080267559" y1="148.90632429862103" x2="76.67224080267559" y2="153.93723252496437" stroke="black" stroke-width="1" />
  <rect x="68.39464882943145" y="149.1155492154066" width="16.555183946488295" height="2.4441274369947905" fill="green" />
  <line x1="95.06688963210702" y1="144.9976224441275" x2="95.06688963210702" y2="149.01093675701384" stroke="black" stroke-width="1" />
  <rect x="86.78929765886288" y="146.00570613409423" width="16.555183946488295" height="2.948169281978039" fill="green" />
  <line x1="113.46153846153845" y1="144.48407037565386" x2="113.46153846153845" y2="148.93485496909176" stroke="black" stroke-width="1" />
  <rect x="105.18394648829431" y="146.63338088445084" width="16.555183946488295" height="1" fill="green" />
  <line x1="131.8561872909699" y1="144.11326676176895" x2="131.8561872909699" y2="155.69662387066097" stroke="black" stroke-width="1" />
  <rect x="123.57859531772576" y="146.42415596766529" width="16.555183946488295" height="8.378506894911993" fill="red" />
  <line x1="150.25083612040135" y1="151.2743699476938" x2="150.25083612040135" y2="158.09320019020447" stroke="black" stroke-width="1" />
  <rect x="141.9732441471572" y="153.44270090347123" width="16.555183946488295" height="1" fill="red" />
  <line x1="168.64548494983276" y1="153.15748930099858" x2="168.64548494983276" y2="158.8064669519734" stroke="black" stroke-width="1" />
  <rect x="160.36789297658862" y="154.02757964812173" width="16.555183946488295" height="2.7341892534474823" fill="red" />
  <line x1="187.0401337792642" y1="155.93437945791726" x2="187.0401337792642" y2="159.84308131241085" stroke="black" stroke-width="1" />
  <rect x="178.76254180602007" y="156.4289110794104" width="16.555183946488295" height="1" fill="green" />
  <line x1="205.43478260869566" y1="155.32572515454115" x2="205.43478260869566" y2="162.63908701854496" stroke="black" stroke-width="1" />
  <rect x="197.1571906354515" y="155.43984783642418" width="16.555183946488295" height="4.070375653827853" fill="red" />
  <line x1="223.8294314381271" y1="148.6210175939135" x2="223.8294314381271" y2="159.51022349025203" stroke="black" stroke-width="1" />
  <rect x="215.55183946488296" y="155.38278649548266" width="16.555183946488295" height="1.7308606752258697" fill="red" />
  <line x1="242.22408026755855" y1="152.95767950546838" x2="242.22408026755855" y2="158.05515929624352" stroke="black" stroke-width="1" />
  <rect x="233.9464882943144" y="153.29053732762725" width="16.555183946488295" height="1.4645744174987954" fill="green" />
  <line x1="260.61872909698997" y1="150.6847360912982" x2="260.61872909698997" y2="162.90537327627203" stroke="black" stroke-width="1" />
  <rect x="252.34113712374582" y="152.55825011887782" width="16.555183946488295" height="8.05515929624346" fill="red" />
  <line x1="279.0133779264214" y1="158.90156918687592" x2="279.0133779264214" y2="165.43509272467907" stroke="black" stroke-width="1" />
  <rect x="270.73578595317724" y="161.12696148359487" width="16.555183946488295" height="2.8435568235853452" fill="green" />
  <line x1="297.4080267558529" y1="157.13266761768898" x2="297.4080267558529" y2="163.7612933903947" stroke="black" stroke-width="1" />
  <rect x="289.13043478260875" y="161.61198288159773" width="16.555183946488295" height="1" fill="green" />
  <line x1="315.8026755852843" y1="159.4626723728008" x2="315.8026755852843" y2="168.830242510699" stroke="black" stroke-width="1" />
  <rect x="307.52508361204013" y="160.97479790775083" width="16.555183946488295" height="6.9995244888255" fill="red" />
  <line x1="334.19732441471575" y1="161.3647170708512" x2="334.19732441471575" y2="167.54636233951504" stroke="black" stroke-width="1" />
  <rect x="325.9197324414716" y="162.7056585829767" width="16.555183946488295" height="1.44555397051829" fill="red" />
  <line x1="352.5919732441472" y1="154.06086543033769" x2="352.5919732441472" y2="162.26818830242513" stroke="black" stroke-width="1" />
  <rect x="344.314381270903" y="156.0865430337613" width="16.555183946488295" height="5.706134094151196" fill="green" />
  <line x1="370.98662207357864" y1="146.7760342368046" x2="370.98662207357864" y2="160.48026628625774" stroke="black" stroke-width="1" />
  <rect x="362.7090301003345" y="147.67950546837847" width="16.555183946488295" height="7.170708511650105" fill="green" />
  <line x1="389.3812709030101" y1="143.56233951497865" x2="389.3812709030101" y2="150.80836899667145" stroke="black" stroke-width="1" />
  <rect x="381.1036789297659" y="143.91345696623875" width="16.555183946488295" height="3.5092724679029175" fill="green" />
  <line x1="407.77591973244154" y1="139.32001902044703" x2="407.77591973244154" y2="145.37803138373755" stroke="black" stroke-width="1" />
  <rect x="399.49832775919737" y="140.4992867332383" width="16.555183946488295" height="4.531621493105035" fill="green" />
  <line x1="426.170568561873" y1="137.7032810271042" x2="426.170568561873" y2="142.75320970042793" stroke="black" stroke-width="1" />
  <rect x="417.8929765886288" y="139.78601997146933" width="16.555183946488295" height="1" fill="green" />
  <line x1="444.5652173913044" y1="129.79077508321444" x2="444.5652173913044" y2="138.90156918687592" stroke="black" stroke-width="1" />
  <rect x="436.2876254180602" y="131.33143128863526" width="16.555183946488295" height="4.831193533048122" fill="red" />
  <line x1="462.9598662207358" y1="135.3257251545412" x2="462.9598662207358" y2="140.67047075606274" stroke="black" stroke-width="1" />
  <rect x="454.68227424749165" y="136.30527817403708" width="16.555183946488295" height="3.984783642415664" fill="red" />
  <line x1="481.35451505016727" y1="130.1236329053733" x2="481.35451505016727" y2="134.49833571088925" stroke="black" stroke-width="1" />
  <rect x="473.0769230769231" y="130.38516405135522" width="16.555183946488295" height="2.410841654778949" fill="red" />
  <line x1="499.7491638795987" y1="132.2729434141703" x2="499.7491638795987" y2="137.04707560627674" stroke="black" stroke-width="1" />
  <rect x="491.47157190635454" y="134.1940085592011" width="16.555183946488295" height="1.8544935805991827" fill="red" />
  <line x1="518.1438127090302" y1="134.91678554446037" x2="518.1438127090302" y2="140.69053732762723" stroke="black" stroke-width="1" />
  <rect x="509.866220735786" y="136.99001426533528" width="16.555183946488295" height="1" fill="red" />
  <line x1="536.5384615384617" y1="137.8744650499287" x2="536.5384615384617" y2="144.76937708036138" stroke="black" stroke-width="1" />
  <rect x="528.2608695652175" y="138.2073228720875" width="16.555183946488295" height="3.6424155967665115" fill="red" />
  <line x1="554.933110367893" y1="138.09415121255347" x2="554.933110367893" y2="142.42035187826917" stroke="black" stroke-width="1" />
  <rect x="546.6555183946489" y="139.0537327627199" width="16.555183946488295" height="2.1683309557775488" fill="green" />
  <line x1="573.3277591973244" y1="136.01997146932956" x2="573.3277591973244" y2="141.88777936281508" stroke="black" stroke-width="1" />
  <rect x="565.0501672240803" y="136.22444127437" width="16.555183946488295" height="3.5901093675701077" fill="red" />
  <line x1="591.7224080267559" y1="139.30099857346647" x2="591.7224080267559" y2="143.4664764621969" stroke="black" stroke-width="1" />
  <rect x="583.4448160535118" y="139.61483594864478" width="16.555183946488295" height="3.328578221588259" fill="red" />
</svg>