<svg width="800" height="300" xmlns="http://www.w3.org/2000/svg">
  <line x1="40" y1="250" x2="40" y2="50" stroke="black" stroke-width="2" />
  <line x1="35" y1="250.0" x2="40" y2="250.0" stroke="black" stroke-width="1" />
  <text x="10" y="255.0" font-size="10" fill="black">75</text>
  <line x1="40" y1="250.0" x2="780" y2="250.0" stroke="lightgray" stroke-width="1" stroke-dasharray="5, 5" />
  <line x1="35" y1="210.0" x2="40" y2="210.0" stroke="black" stroke-width="1" />
  <text x="10" y="215.0" font-size="10" fill="black">85</text>
  <line x1="40" y1="210.0" x2="780" y2="210.0" stroke="lightgray" stroke-width="1" stroke-dasharray="5, 5" />
  <line x1="35" y1="170.0" x2="40" y2="170.0" stroke="black" stroke-width="1" />
  <text x="10" y="175.0" font-size="10" fill="black">95</text>
  <line x1="40" y1="170.0" x2="780" y2="170.0" stroke="lightgray" stroke-width="1" stroke-dasharray="5, 5" />
  <line x1="35" y1="130.0" x2="40" y2="130.0" stroke="black" stroke-width="1" />
  <text x="10" y="135.0" font-size="10" fill="black">105</text>
  <line x1="40" y1="130.0" x2="780" y2="130.0" stroke="lightgray" stroke-width="1" stroke-dasharray="5, 5" />
  <line x1="35" y1="90.0" x2="40" y2="90.0" stroke="black" stroke-width="1" />
  <text x="10" y="95.0" font-size="10" fill="black">115</text>
  <line x1="40" y1="90.0" x2="780" y2="90.0" stroke="lightgray" stroke-width="1" stroke-dasharray="5, 5" />
  <line x1="35" y1="50.0" x2="40" y2="50.0" stroke="black" stroke-width="1" />
  <text x="10" y="55.0" font-size="10" fill="black">125</text>
  <line x1="40" y1="50.0" x2="780" y2="50.0" stroke="lightgray" stroke-width="1" stroke-dasharray="5, 5" />
  <line x1="35" y1="150.0" x2="40" y2="150.0" stroke="black" stroke-width="1" />
  <text x="10" y="155.0" font-size="10" fill="black">100</text>
  <line x1="40" y1="150.0" x2="780" y2="150.0" stroke="lightgray" stroke-width="1" stroke-dasharray="5, 5" />
  <line x1="48.666666666666664" y1="142.23985890652557" x2="48.666666666666664" y2="153.9304610733182" stroke="black" stroke-width="1" />
  <rect x="40.86666666666667" y="142.44142101284956" width="15.6" height="7.55857898715044" fill="green" />
  <line x1="66.0" y1="140.2242378432855" x2="66.0" y2="149.798437893676" stroke="black" stroke-width="1" />
  <rect x="58.199999999999996" y="142.23985890652557" width="15.6" height="6.651549508692426" fill="red" />
  <line x1="83.33333333333333" y1="147.48047367094983" x2="83.33333333333333" y2="152.4187452758881" stroke="black" stroke-width="1" />
  <rect x="75.53333333333332" y="147.48047367094983" width="15.6" height="2.5195263290501657" fill="green" />
  <line x1="100.66666666666667" y1="146.47266313932982" x2="100.66666666666667" y2="151.5117157974301" stroke="black" stroke-width="1" />
  <rect x="92.86666666666666" y="148.6898463088939" width="15.6" height="1" fill="red" />
  <line x1="118.0" y1="141.83673469387753" x2="118.0" y2="148.4882842025699" stroke="black" stroke-width="1" />
  <rect x="110.19999999999999" y="143.44923154446957" width="15.6" height="5.039052658100331" fill="green" />
  <line x1="135.33333333333331" y1="138.6117409926934" x2="135.33333333333331" y2="144.4570420760897" stroke="black" stroke-width="1" />
  <rect x="127.53333333333332" y="143.44923154446957" width="15.6" height="1.0078105316201231" fill="red" />
  <line x1="152.66666666666666" y1="124.30083144368848" x2="152.66666666666666" y2="138.8133030990174" stroke="black" stroke-width="1" />
  <rect x="144.86666666666667" y="130.9523809523809" width="15.6" height="4.837490551776341" fill="green" />
  <line x1="169.99999999999997" y1="126.92113882590075" x2="169.99999999999997" y2="137.20080624842524" stroke="black" stroke-width="1" />
  <rect x="162.2" y="129.7430083144368" width="15.6" height="1.0078105316201231" fill="green" />
  <line x1="187.33333333333331" y1="109.78835978835974" x2="187.33333333333331" y2="119.6649029982363" stroke="black" stroke-width="1" />
  <rect x="179.53333333333333" y="109.78835978835974" width="15.6" height="1" fill="green" />
  <line x1="204.66666666666666" y1="103.7414965986394" x2="204.66666666666666" y2="125.71176618795664" stroke="black" stroke-width="1" />
  <rect x="196.86666666666667" y="108.57898715041568" width="15.6" height="15.11715797430088" fill="red" />
  <line x1="221.99999999999997" y1="123.29302091206847" x2="221.99999999999997" y2="132.16175359032496" stroke="black" stroke-width="1" />
  <rect x="214.2" y="124.90551776266062" width="15.6" height="6.046863189720284" fill="red" />
  <line x1="239.33333333333331" y1="128.93675988914077" x2="239.33333333333331" y2="142.23985890652557" stroke="black" stroke-width="1" />
  <rect x="231.53333333333333" y="130.9523809523809" width="15.6" height="11.287477954144663" fill="red" />
  <line x1="256.6666666666667" y1="147.27891156462584" x2="256.6666666666667" y2="164.61325270849073" stroke="black" stroke-width="1" />
  <rect x="248.86666666666667" y="149.39531368102797" width="15.6" height="14.814814814814781" fill="red" />
  <line x1="274.0" y1="153.52733686067012" x2="274.0" y2="164.4116906021668" stroke="black" stroke-width="1" />
  <rect x="266.2" y="162.8999748047367" width="15.6" height="1.5117157974300994" fill="red" />
  <line x1="291.3333333333333" y1="165.01637692113877" x2="291.3333333333333" y2="182.8546233308138" stroke="black" stroke-width="1" />
  <rect x="283.5333333333333" y="165.01637692113877" width="15.6" height="16.93121693121691" fill="red" />
  <line x1="308.6666666666667" y1="174.69135802469134" x2="308.6666666666667" y2="186.18039808515994" stroke="black" stroke-width="1" />
  <rect x="300.8666666666667" y="179.73041068279156" width="15.6" height="6.449987402368379" fill="red" />
  <line x1="326.0" y1="182.35071806500378" x2="326.0" y2="192.22726127488033" stroke="black" stroke-width="1" />
  <rect x="318.2" y="185.57571176618796" width="15.6" height="6.651549508692369" fill="red" />
  <line x1="343.3333333333333" y1="186.88586545729396" x2="343.3333333333333" y2="230.22171831695636" stroke="black" stroke-width="1" />
  <rect x="335.5333333333333" y="190.5139833711262" width="15.6" height="35.87805492567401" fill="red" />
  <line x1="360.6666666666667" y1="221.35298563869992" x2="360.6666666666667" y2="237.47795414462075" stroke="black" stroke-width="1" />
  <rect x="352.8666666666667" y="223.46938775510205" width="15.6" height="12.39606953892661" fill="red" />
  <line x1="378.0" y1="225.6865709246661" x2="378.0" y2="238.28420256991683" stroke="black" stroke-width="1" />
  <rect x="370.2" y="227.50062988158226" width="15.6" height="8.364827412446402" fill="green" />
  <line x1="395.3333333333333" y1="221.25220458553792" x2="395.3333333333333" y2="228.91156462585036" stroke="black" stroke-width="1" />
  <rect x="387.5333333333333" y="222.15923406399594" width="15.6" height="6.147644242882336" fill="green" />
  <line x1="412.6666666666667" y1="217.22096245905766" x2="412.6666666666667" y2="222.36079617032" stroke="black" stroke-width="1" />
  <rect x="404.8666666666667" y="222.15923406399594" width="15.6" height="1" fill="red" />
  <line x1="430.0" y1="217.01940035273367" x2="430.0" y2="223.7717309145881" stroke="black" stroke-width="1" />
  <rect x="422.2" y="220.84908037288994" width="15.6" height="1" fill="red" />
  <line x1="447.3333333333333" y1="211.4764424288233" x2="447.3333333333333" y2="218.43033509700172" stroke="black" stroke-width="1" />
  <rect x="439.5333333333333" y="211.4764424288233" width="15.6" height="6.34920634920644" fill="green" />
  <line x1="464.6666666666667" y1="208.55379188712521" x2="464.6666666666667" y2="215.30612244897958" stroke="black" stroke-width="1" />
  <rect x="456.8666666666667" y="211.37566137566137" width="15.6" height="1.6124968505920947" fill="red" />
  <line x1="482.0" y1="210.0655076845553" x2="482.0" y2="227.39984882842026" stroke="black" stroke-width="1" />
  <rect x="474.2" y="210.97253716301333" width="15.6" height="7.760141093474488" fill="red" />
  <line x1="499.3333333333333" y1="208.15066767447712" x2="499.3333333333333" y2="215.60846560846556" stroke="black" stroke-width="1" />
  <rect x="491.5333333333333" y="212.8873771730914" width="15.6" height="2.519526329050109" fill="green" />
  <line x1="516.6666666666666" y1="212.0811287477954" x2="516.6666666666666" y2="220.74829931972783" stroke="black" stroke-width="1" />
  <rect x="508.8666666666666" y="212.28269085411944" width="15.6" height="5.8453010833962935" fill="red" />
  <line x1="533.9999999999999" y1="212.98815822625346" x2="533.9999999999999" y2="225.7873519778281" stroke="black" stroke-width="1" />
  <rect x="526.1999999999999" y="214.39909297052156" width="15.6" height="3.023431594860085" fill="green" />
  <line x1="551.3333333333333" y1="202.50692869740493" x2="551.3333333333333" y2="212.7865961199294" stroke="black" stroke-width="1" />
  <rect x="543.5333333333333" y="203.4139581758629" width="15.6" height="9.372637944066526" fill="green" />

<!-- Resistance Level -->
<line x1="40" y1="50" x2="600" y2="50" stroke="blue" stroke-width="2" />
<text x="610" y="55" font-size="10" fill="blue">Resistance Level</text>

<!-- Support Level -->
<line x1="40" y1="150" x2="600" y2="150" stroke="green" stroke-width="2" />
<text x="610" y="155" font-size="10" fill="green">Support Level</text>

<!-- Trendline -->
<line x1="152.66666666666666" y1="138.8133030990174" x2="600" y2="50" stroke="purple" stroke-width="2" />
<text x="610" y="55" font-size="10" fill="purple">Trendline</text>
</svg>