<svg width="800" height="300" xmlns="http://www.w3.org/2000/svg">
  <line x1="40" y1="250" x2="40" y2="50" stroke="black" stroke-width="2" />
  <line x1="35" y1="250.0" x2="40" y2="250.0" stroke="black" stroke-width="1" />
  <text x="10" y="255.0" font-size="10" fill="black">75</text>
  <line x1="40" y1="250.0" x2="780" y2="250.0" stroke="lightgray" stroke-width="1" stroke-dasharray="5,5" />
  <line x1="35" y1="210.0" x2="40" y2="210.0" stroke="black" stroke-width="1" />
  <text x="10" y="215.0" font-size="10" fill="black">85</text>
  <line x1="40" y1="210.0" x2="780" y2="210.0" stroke="lightgray" stroke-width="1" stroke-dasharray="5,5" />
  <line x1="35" y1="170.0" x2="40" y2="170.0" stroke="black" stroke-width="1" />
  <text x="10" y="175.0" font-size="10" fill="black">95</text>
  <line x1="40" y1="170.0" x2="780" y2="170.0" stroke="lightgray" stroke-width="1" stroke-dasharray="5,5" />
  <line x1="35" y1="130.0" x2="40" y2="130.0" stroke="black" stroke-width="1" />
  <text x="10" y="135.0" font-size="10" fill="black">105</text>
  <line x1="40" y1="130.0" x2="780" y2="130.0" stroke="lightgray" stroke-width="1" stroke-dasharray="5,5" />
  <line x1="35" y1="90.0" x2="40" y2="90.0" stroke="black" stroke-width="1" />
  <text x="10" y="95.0" font-size="10" fill="black">115</text>
  <line x1="40" y1="90.0" x2="780" y2="90.0" stroke="lightgray" stroke-width="1" stroke-dasharray="5,5" />
  <line x1="35" y1="50.0" x2="40" y2="50.0" stroke="black" stroke-width="1" />
  <text x="10" y="55.0" font-size="10" fill="black">125</text>
  <line x1="40" y1="50.0" x2="780" y2="50.0" stroke="lightgray" stroke-width="1" stroke-dasharray="5,5" />
  <line x1="58.27759197324415" y1="142.23985890652557" x2="58.27759197324415" y2="153.9304610733182" stroke="black" stroke-width="1" />
  <rect x="50.0" y="142.44142101284956" width="16.555183946488295" height="7.55857898715044" fill="green" />
  <line x1="76.67224080267559" y1="140.2242378432855" x2="76.67224080267559" y2="149.798437893676" stroke="black" stroke-width="1" />
  <rect x="68.39464882943145" y="142.23985890652557" width="16.555183946488295" height="6.651549508692426" fill="red" />
  <line x1="95.06688963210702" y1="147.48047367094983" x2="95.06688963210702" y2="152.4187452758881" stroke="black" stroke-width="1" />
  <rect x="86.78929765886288" y="147.48047367094983" width="16.555183946488295" height="2.5195263290501657" fill="green" />
  <line x1="113.46153846153845" y1="146.47266313932982" x2="113.46153846153845" y2="151.5117157974301" stroke="black" stroke-width="1" />
  <rect x="105.18394648829431" y="148.6898463088939" width="16.555183946488295" height="1" fill="red" />
  <line x1="131.8561872909699" y1="141.83673469387753" x2="131.8561872909699" y2="148.4882842025699" stroke="black" stroke-width="1" />
  <rect x="123.57859531772576" y="143.44923154446957" width="16.555183946488295" height="5.039052658100331" fill="green" />
  <line x1="150.25083612040135" y1="138.6117409926934" x2="150.25083612040135" y2="144.4570420760897" stroke="black" stroke-width="1" />
  <rect x="141.9732441471572" y="143.44923154446957" width="16.555183946488295" height="1.0078105316201231" fill="red" />
  <line x1="168.64548494983276" y1="124.30083144368848" x2="168.64548494983276" y2="138.8133030990174" stroke="black" stroke-width="1" />
  <rect x="160.36789297658862" y="130.9523809523809" width="16.555183946488295" height="4.837490551776341" fill="green" />
  <line x1="187.0401337792642" y1="126.92113882590075" x2="187.0401337792642" y2="137.20080624842524" stroke="black" stroke-width="1" />
  <rect x="178.76254180602007" y="129.7430083144368" width="16.555183946488295" height="1.0078105316201231" fill="green" />
  <line x1="205.43478260869566" y1="109.78835978835974" x2="205.43478260869566" y2="119.6649029982363" stroke="black" stroke-width="1" />
  <rect x="197.1571906354515" y="109.78835978835974" width="16.555183946488295" height="1" fill="green" />
  <line x1="223.8294314381271" y1="103.7414965986394" x2="223.8294314381271" y2="125.71176618795664" stroke="black" stroke-width="1" />
  <rect x="215.55183946488296" y="108.57898715041568" width="16.555183946488295" height="15.11715797430088" fill="red" />
  <line x1="242.22408026755855" y1="123.29302091206847" x2="242.22408026755855" y2="132.16175359032496" stroke="black" stroke-width="1" />
  <rect x="233.9464882943144" y="124.90551776266062" width="16.555183946488295" height="6.046863189720284" fill="red" />
  <line x1="260.61872909698997" y1="128.93675988914077" x2="260.61872909698997" y2="142.23985890652557" stroke="black" stroke-width="1" />
  <rect x="252.34113712374582" y="130.9523809523809" width="16.555183946488295" height="11.287477954144663" fill="red" />
  <line x1="279.0133779264214" y1="147.27891156462584" x2="279.0133779264214" y2="164.61325270849073" stroke="black" stroke-width="1" />
  <rect x="270.73578595317724" y="149.39531368102797" width="16.555183946488295" height="14.814814814814781" fill="red" />
  <line x1="297.4080267558529" y1="153.52733686067012" x2="297.4080267558529" y2="164.4116906021668" stroke="black" stroke-width="1" />
  <rect x="289.13043478260875" y="162.8999748047367" width="16.555183946488295" height="1.5117157974300994" fill="red" />
  <line x1="315.8026755852843" y1="165.01637692113877" x2="315.8026755852843" y2="182.8546233308138" stroke="black" stroke-width="1" />
  <rect x="307.52508361204013" y="165.01637692113877" width="16.555183946488295" height="16.93121693121691" fill="red" />
  <line x1="334.19732441471575" y1="174.69135802469134" x2="334.19732441471575" y2="186.18039808515994" stroke="black" stroke-width="1" />
  <rect x="325.9197324414716" y="179.73041068279156" width="16.555183946488295" height="6.449987402368379" fill="red" />
  <line x1="352.5919732441472" y1="182.35071806500378" x2="352.5919732441472" y2="192.22726127488033" stroke="black" stroke-width="1" />
  <rect x="344.314381270903" y="185.57571176618796" width="16.555183946488295" height="6.651549508692369" fill="red" />
  <line x1="370.98662207357864" y1="186.88586545729396" x2="370.98662207357864" y2="230.22171831695636" stroke="black" stroke-width="1" />
  <rect x="362.7090301003345" y="190.5139833711262" width="16.555183946488295" height="35.87805492567401" fill="red" />
  <line x1="389.3812709030101" y1="221.35298563869992" x2="389.3812709030101" y2="237.47795414462075" stroke="black" stroke-width="1" />
  <rect x="381.1036789297659" y="223.46938775510205" width="16.555183946488295" height="12.39606953892661" fill="red" />
  <line x1="407.77591973244154" y1="225.6865709246661" x2="407.77591973244154" y2="238.28420256991683" stroke="black" stroke-width="1" />
  <rect x="399.49832775919737" y="227.50062988158226" width="16.555183946488295" height="8.364827412446402" fill="green" />
  <line x1="426.170568561873" y1="221.25220458553792" x2="426.170568561873" y2="228.91156462585036" stroke="black" stroke-width="1" />
  <rect x="417.8929765886288" y="222.15923406399594" width="16.555183946488295" height="6.147644242882336" fill="green" />
  <line x1="444.5652173913044" y1="217.22096245905766" x2="444.5652173913044" y2="222.36079617032" stroke="black" stroke-width="1" />
  <rect x="436.2876254180602" y="222.15923406399594" width="16.555183946488295" height="1" fill="red" />
  <line x1="462.9598662207358" y1="217.01940035273367" x2="462.9598662207358" y2="223.7717309145881" stroke="black" stroke-width="1" />
  <rect x="454.68227424749165" y="220.84908037288994" width="16.555183946488295" height="1" fill="red" />
  <line x1="481.35451505016727" y1="211.4764424288233" x2="481.35451505016727" y2="218.43033509700172" stroke="black" stroke-width="1" />
  <rect x="473.0769230769231" y="211.4764424288233" width="16.555183946488295" height="6.34920634920644" fill="green" />
  <line x1="499.7491638795987" y1="208.55379188712521" x2="499.7491638795987" y2="215.30612244897958" stroke="black" stroke-width="1" />
  <rect x="491.47157190635454" y="211.37566137566137" width="16.555183946488295" height="1.6124968505920947" fill="red" />
  <line x1="518.1438127090302" y1="210.0655076845553" x2="518.1438127090302" y2="227.39984882842026" stroke="black" stroke-width="1" />
  <rect x="509.866220735786" y="210.97253716301333" width="16.555183946488295" height="7.760141093474488" fill="red" />
  <line x1="536.5384615384617" y1="208.15066767447712" x2="536.5384615384617" y2="215.60846560846556" stroke="black" stroke-width="1" />
  <rect x="528.2608695652175" y="212.8873771730914" width="16.555183946488295" height="2.519526329050109" fill="green" />
  <line x1="554.933110367893" y1="212.0811287477954" x2="554.933110367893" y2="220.74829931972783" stroke="black" stroke-width="1" />
  <rect x="546.6555183946489" y="212.28269085411944" width="16.555183946488295" height="5.8453010833962935" fill="red" />
  <line x1="573.3277591973244" y1="212.98815822625346" x2="573.3277591973244" y2="225.7873519778281" stroke="black" stroke-width="1" />
  <rect x="565.0501672240803" y="214.39909297052156" width="16.555183946488295" height="3.023431594860085" fill="green" />
  <line x1="591.7224080267559" y1="202.50692869740493" x2="591.7224080267559" y2="212.7865961199294" stroke="black" stroke-width="1" />
  <rect x="583.4448160535118" y="203.4139581758629" width="16.555183946488295" height="9.372637944066526" fill="green" />
</svg>