<svg width="800" height="300" xmlns="http://www.w3.org/2000/svg">
  <line x1="40" y1="250" x2="40" y2="50" stroke="black" stroke-width="2" />
  <line x1="35" y1="250.0" x2="40" y2="250.0" stroke="black" stroke-width="1" />
  <text x="10" y="255.0" font-size="10" fill="black">75</text>
  <line x1="40" y1="250.0" x2="780" y2="250.0" stroke="lightgray" stroke-width="1" stroke-dasharray="5,5" />
  <line x1="35" y1="210.0" x2="40" y2="210.0" stroke="black" stroke-width="1" />
  <text x="10" y="215.0" font-size="10" fill="black">85</text>
  <line x1="40" y1="210.0" x2="780" y2="210.0" stroke="lightgray" stroke-width="1" stroke-dasharray="5,5" />
  <line x1="35" y1="170.0" x2="40" y2="170.0" stroke="black" stroke-width="1" />
  <text x="10" y="175.0" font-size="10" fill="black">95</text>
  <line x1="40" y1="170.0" x2="780" y2="170.0" stroke="lightgray" stroke-width="1" stroke-dasharray="5,5" />
  <line x1="35" y1="130.0" x2="40" y2="130.0" stroke="black" stroke-width="1" />
  <text x="10" y="135.0" font-size="10" fill="black">105</text>
  <line x1="40" y1="130.0" x2="780" y2="130.0" stroke="lightgray" stroke-width="1" stroke-dasharray="5,5" />
  <line x1="35" y1="90.0" x2="40" y2="90.0" stroke="black" stroke-width="1" />
  <text x="10" y="95.0" font-size="10" fill="black">115</text>
  <line x1="40" y1="90.0" x2="780" y2="90.0" stroke="lightgray" stroke-width="1" stroke-dasharray="5,5" />
  <line x1="35" y1="50.0" x2="40" y2="50.0" stroke="black" stroke-width="1" />
  <text x="10" y="55.0" font-size="10" fill="black">125</text>
  <line x1="40" y1="50.0" x2="780" y2="50.0" stroke="lightgray" stroke-width="1" stroke-dasharray="5,5" />
  <line x1="58.27759197324415" y1="143.5467487265285" x2="58.27759197324415" y2="152.431919692873" stroke="black" stroke-width="1" />
  <rect x="50.0" y="147.22749204547148" width="16.555183946488295" height="2.772507954528521" fill="green" />
  <line x1="76.67224080267559" y1="138.40207340573318" x2="76.67224080267559" y2="147.92061903410365" stroke="black" stroke-width="1" />
  <rect x="68.39464882943145" y="138.5873056182125" width="16.555183946488295" height="8.640186427258982" fill="green" />
  <line x1="95.06688963210702" y1="124.96377515199492" x2="95.06688963210702" y2="138.75759974904025" stroke="black" stroke-width="1" />
  <rect x="86.78929765886288" y="132.60609772493018" width="16.555183946488295" height="5.78402521548179" fill="green" />
  <line x1="113.46153846153845" y1="131.13619049041716" x2="113.46153846153845" y2="136.88436430993522" stroke="black" stroke-width="1" />
  <rect x="105.18394648829431" y="133.45458076273837" width="16.555183946488295" height="1" fill="green" />
  <line x1="131.8561872909699" y1="130.83742885738616" x2="131.8561872909699" y2="139.9556338974948" stroke="black" stroke-width="1" />
  <rect x="123.57859531772576" y="137.11142315103888" width="16.555183946488295" height="1.2189474627668346" fill="red" />
  <line x1="150.25083612040135" y1="134.08198019210369" x2="150.25083612040135" y2="144.50278595222795" stroke="black" stroke-width="1" />
  <rect x="141.9732441471572" y="135.24117532826432" width="16.555183946488295" height="4.421672168860027" fill="red" />
  <line x1="168.64548494983276" y1="137.35640769012434" x2="168.64548494983276" y2="142.70567497721942" stroke="black" stroke-width="1" />
  <rect x="160.36789297658862" y="138.6410827121581" width="16.555183946488295" height="1" fill="green" />
  <line x1="187.0401337792642" y1="127.0192551872488" x2="187.0401337792642" y2="139.5493180765726" stroke="black" stroke-width="1" />
  <rect x="178.76254180602007" y="134.29111333522548" width="16.555183946488295" height="4.296192282987022" fill="green" />
  <line x1="205.43478260869566" y1="133.72346623246642" x2="205.43478260869566" y2="145.41699654930306" stroke="black" stroke-width="1" />
  <rect x="197.1571906354515" y="134.2253857759586" width="16.555183946488295" height="7.1643039600854195" fill="red" />
  <line x1="223.8294314381271" y1="131.85321840969186" x2="223.8294314381271" y2="140.0572128527254" stroke="black" stroke-width="1" />
  <rect x="215.55183946488296" y="136.2270887172669" width="16.555183946488295" height="1.4818576998341655" fill="green" />
  <line x1="242.22408026755855" y1="130.6223204816037" x2="242.22408026755855" y2="138.8083892266555" stroke="black" stroke-width="1" />
  <rect x="233.9464882943144" y="130.92705734729543" width="16.555183946488295" height="1" fill="green" />
  <line x1="260.61872909698997" y1="129.4272739494794" x2="260.61872909698997" y2="149.05591323962176" stroke="black" stroke-width="1" />
  <rect x="252.34113712374582" y="131.6739614298731" width="16.555183946488295" height="14.806626533020676" fill="red" />
  <line x1="279.0133779264214" y1="140.9056958905337" x2="279.0133779264214" y2="147.83099054419432" stroke="black" stroke-width="1" />
  <rect x="270.73578595317724" y="143.87538652286275" width="16.555183946488295" height="3.8062232048160354" fill="green" />
  <line x1="297.4080267558529" y1="139.3162840028084" x2="297.4080267558529" y2="148.5480184634689" stroke="black" stroke-width="1" />
  <rect x="289.13043478260875" y="141.52114485457776" width="16.555183946488295" height="6.262043828331514" fill="green" />
  <line x1="315.8026755852843" y1="141.80090524774806" x2="315.8026755852843" y2="154.23643995638076" stroke="black" stroke-width="1" />
  <rect x="307.52508361204013" y="142.57278580284714" width="16.555183946488295" height="9.614149350940409" fill="red" />
  <line x1="334.19732441471575" y1="141.59284764650522" x2="334.19732441471575" y2="148.38071194897145" stroke="black" stroke-width="1" />
  <rect x="325.9197324414716" y="146.42083563628756" width="16.555183946488295" height="1" fill="green" />
  <line x1="352.5919732441472" y1="143.3317001030727" x2="352.5919732441472" y2="152.16602183947538" stroke="black" stroke-width="1" />
  <rect x="344.314381270903" y="145.55442690049745" width="16.555183946488295" height="1.941950614702023" fill="red" />
  <line x1="370.98662207357864" y1="141.90953497751815" x2="370.98662207357864" y2="155.15662578611654" stroke="black" stroke-width="1" />
  <rect x="362.7090301003345" y="142.8058198766114" width="16.555183946488295" height="2.396068296909334" fill="green" />
  <line x1="389.3812709030101" y1="134.79303287871767" x2="389.3812709030101" y2="142.36962789238595" stroke="black" stroke-width="1" />
  <rect x="381.1036789297659" y="139.62102086850007" width="16.555183946488295" height="1.1233437401969013" fill="green" />
  <line x1="407.77591973244154" y1="131.9488221322618" x2="407.77591973244154" y2="143.68417907772277" stroke="black" stroke-width="1" />
  <rect x="399.49832775919737" y="133.49043215870216" width="16.555183946488295" height="10.187771686360065" fill="green" />
  <line x1="426.170568561873" y1="129.9291934929716" x2="426.170568561873" y2="138.52659725438048" stroke="black" stroke-width="1" />
  <rect x="417.8929765886288" y="131.73371375647935" width="16.555183946488295" height="2.091331431217668" fill="red" />
  <line x1="444.5652173913044" y1="127.174611236425" x2="444.5652173913044" y2="132.70767668016072" stroke="black" stroke-width="1" />
  <rect x="436.2876254180602" y="127.60482798798972" width="16.555183946488295" height="3.638916690318638" fill="green" />
  <line x1="462.9598662207358" y1="127.22241309770999" x2="462.9598662207358" y2="138.90399294922543" stroke="black" stroke-width="1" />
  <rect x="454.68227424749165" y="127.22241309770999" width="16.555183946488295" height="10.205697384341818" fill="red" />
  <line x1="481.35451505016727" y1="122.37649940994578" x2="481.35451505016727" y2="134.5002464783472" stroke="black" stroke-width="1" />
  <rect x="473.0769230769231" y="128.7460974261685" width="16.555183946488295" height="1" fill="red" />
  <line x1="499.7491638795987" y1="127.7463214973933" x2="499.7491638795987" y2="133.9385746082488" stroke="black" stroke-width="1" />
  <rect x="491.47157190635454" y="128.41745962983435" width="16.555183946488295" height="2.700805162601" fill="red" />
  <line x1="518.1438127090302" y1="124.41411349954433" x2="518.1438127090302" y2="132.2356332999716" stroke="black" stroke-width="1" />
  <rect x="509.866220735786" y="128.5250138177255" width="16.555183946488295" height="1.7806193328652853" fill="green" />
  <line x1="536.5384615384617" y1="118.32529166604422" x2="536.5384615384617" y2="129.07473522250268" stroke="black" stroke-width="1" />
  <rect x="528.2608695652175" y="118.43284585393536" width="16.555183946488295" height="9.342276264882116" fill="green" />
  <line x1="554.933110367893" y1="116.7239293129976" x2="554.933110367893" y2="122.04786161361153" stroke="black" stroke-width="1" />
  <rect x="546.6555183946489" y="118.85111214017894" width="16.555183946488295" height="1" fill="green" />
  <line x1="573.3277591973244" y1="116.64027605574887" x2="573.3277591973244" y2="130.70597373885244" stroke="black" stroke-width="1" />
  <rect x="565.0501672240803" y="116.9569633867618" width="16.555183946488295" height="7.9470594386269795" fill="red" />
  <line x1="591.7224080267559" y1="125.33423957695345" x2="591.7224080267559" y2="130.98627190296213" stroke="black" stroke-width="1" />
  <rect x="583.4448160535118" y="126.73841925219955" width="16.555183946488295" height="1" fill="red" />
</svg>