<svg width="800" height="300" xmlns="http://www.w3.org/2000/svg">
  <line x1="40" y1="250" x2="40" y2="50" stroke="black" stroke-width="2" />
  <line x1="35" y1="250.0" x2="40" y2="250.0" stroke="black" stroke-width="1" />
  <text x="10" y="255.0" font-size="10" fill="black">75</text>
  <line x1="40" y1="250.0" x2="780" y2="250.0" stroke="lightgray" stroke-width="1" stroke-dasharray="5, 5" />
  <line x1="35" y1="210.0" x2="40" y2="210.0" stroke="black" stroke-width="1" />
  <text x="10" y="215.0" font-size="10" fill="black">85</text>
  <line x1="40" y1="210.0" x2="780" y2="210.0" stroke="lightgray" stroke-width="1" stroke-dasharray="5, 5" />
  <line x1="35" y1="170.0" x2="40" y2="170.0" stroke="black" stroke-width="1" />
  <text x="10" y="175.0" font-size="10" fill="black">95</text>
  <line x1="40" y1="170.0" x2="780" y2="170.0" stroke="lightgray" stroke-width="1" stroke-dasharray="5, 5" />
  <line x1="35" y1="130.0" x2="40" y2="130.0" stroke="black" stroke-width="1" />
  <text x="10" y="135.0" font-size="10" fill="black">105</text>
  <line x1="40" y1="130.0" x2="780" y2="130.0" stroke="lightgray" stroke-width="1" stroke-dasharray="5, 5" />
  <line x1="35" y1="90.0" x2="40" y2="90.0" stroke="black" stroke-width="1" />
  <text x="10" y="95.0" font-size="10" fill="black">115</text>
  <line x1="40" y1="90.0" x2="780" y2="90.0" stroke="lightgray" stroke-width="1" stroke-dasharray="5, 5" />
  <line x1="35" y1="50.0" x2="40" y2="50.0" stroke="black" stroke-width="1" />
  <text x="10" y="55.0" font-size="10" fill="black">125</text>
  <line x1="40" y1="50.0" x2="780" y2="50.0" stroke="lightgray" stroke-width="1" stroke-dasharray="5, 5" />
  <line x1="35" y1="150.0" x2="40" y2="150.0" stroke="black" stroke-width="1" />
  <text x="10" y="155.0" font-size="10" fill="black">100</text>
  <line x1="40" y1="150.0" x2="780" y2="150.0" stroke="lightgray" stroke-width="1" stroke-dasharray="5, 5" />
  <line x1="48.666666666666664" y1="143.99661099007506" x2="48.666666666666664" y2="150.48414427499392" stroke="black" stroke-width="1" />
  <rect x="40.86666666666667" y="143.99661099007506" width="15.6" height="6.003389009924945" fill="green" />
  <line x1="66.0" y1="142.83466473008957" x2="66.0" y2="148.54756717501817" stroke="black" stroke-width="1" />
  <rect x="58.199999999999996" y="143.31880900508355" width="15.6" height="4.454127329944356" fill="red" />
  <line x1="83.33333333333333" y1="143.2219801500848" x2="83.33333333333333" y2="148.160251755023" stroke="black" stroke-width="1" />
  <rect x="75.53333333333332" y="143.2219801500848" width="15.6" height="2.2270636649720927" fill="green" />
  <line x1="100.66666666666667" y1="138.961510530138" x2="100.66666666666667" y2="144.86807068506414" stroke="black" stroke-width="1" />
  <rect x="92.86666666666666" y="139.05833938513678" width="15.6" height="4.163640764948013" fill="green" />
  <line x1="118.0" y1="136.0566448801743" x2="118.0" y2="140.31711450012108" stroke="black" stroke-width="1" />
  <rect x="110.19999999999999" y="136.0566448801743" width="15.6" height="3.389009924957577" fill="green" />
  <line x1="135.33333333333331" y1="128.21350762527237" x2="135.33333333333331" y2="137.5090777051562" stroke="black" stroke-width="1" />
  <rect x="127.53333333333332" y="132.47397724521903" width="15.6" height="3.5826676349552713" fill="green" />
  <line x1="152.66666666666666" y1="127.92302106027603" x2="152.66666666666666" y2="133.2486080852094" stroke="black" stroke-width="1" />
  <rect x="144.86666666666667" y="132.1834906802227" width="15.6" height="1.0651174049867222" fill="red" />
  <line x1="169.99999999999997" y1="129.85959816025172" x2="169.99999999999997" y2="138.38053740014527" stroke="black" stroke-width="1" />
  <rect x="162.2" y="131.50568869523119" width="15.6" height="1.4524328249818268" fill="red" />
  <line x1="187.33333333333331" y1="132.1834906802227" x2="187.33333333333331" y2="139.54248366013076" stroke="black" stroke-width="1" />
  <rect x="179.53333333333333" y="133.63592350520463" width="15.6" height="4.841442749939404" fill="red" />
  <line x1="204.66666666666666" y1="131.50568869523119" x2="204.66666666666666" y2="138.1868796901477" stroke="black" stroke-width="1" />
  <rect x="196.86666666666667" y="134.89469862018888" width="15.6" height="2.8080367949648917" fill="green" />
  <line x1="221.99999999999997" y1="125.59912854030506" x2="221.99999999999997" y2="136.83127572016457" stroke="black" stroke-width="1" />
  <rect x="214.2" y="127.63253449527963" width="15.6" height="6.487533284918868" fill="green" />
  <line x1="239.33333333333331" y1="123.27523602033403" x2="239.33333333333331" y2="133.34543694020817" stroke="black" stroke-width="1" />
  <rect x="231.53333333333333" y="127.05156136528683" width="15.6" height="3.098523359961291" fill="red" />
  <line x1="256.6666666666667" y1="133.44226579520705" x2="256.6666666666667" y2="138.38053740014527" stroke="black" stroke-width="1" />
  <rect x="248.86666666666667" y="134.79786976519" width="15.6" height="1.6460905349794643" fill="red" />
  <line x1="274.0" y1="135.37884289518274" x2="274.0" y2="143.80295328007742" stroke="black" stroke-width="1" />
  <rect x="266.2" y="136.44396030016946" width="15.6" height="1.0651174049867222" fill="red" />
  <line x1="291.3333333333333" y1="135.57250060518032" x2="291.3333333333333" y2="145.25538610505936" stroke="black" stroke-width="1" />
  <rect x="283.5333333333333" y="136.0566448801743" width="15.6" height="8.230452674897094" fill="red" />
  <line x1="308.6666666666667" y1="138.38053740014527" x2="308.6666666666667" y2="143.80295328007742" stroke="black" stroke-width="1" />
  <rect x="300.8666666666667" y="138.76785282014043" width="15.6" height="5.035100459936984" fill="green" />
  <line x1="326.0" y1="136.0566448801743" x2="326.0" y2="149.03171145001215" stroke="black" stroke-width="1" />
  <rect x="318.2" y="138.76785282014043" width="15.6" height="5.422415879932203" fill="red" />
  <line x1="343.3333333333333" y1="141.57588961510532" x2="343.3333333333333" y2="148.4507383200194" stroke="black" stroke-width="1" />
  <rect x="335.5333333333333" y="144.19026870007264" width="15.6" height="3.5826676349552713" fill="red" />
  <line x1="360.6666666666667" y1="141.1885741951101" x2="360.6666666666667" y2="152.9048656499637" stroke="black" stroke-width="1" />
  <rect x="352.8666666666667" y="146.61099007504237" width="15.6" height="5.131929314935803" fill="red" />
  <line x1="378.0" y1="141.6727184701042" x2="378.0" y2="150.58097312999274" stroke="black" stroke-width="1" />
  <rect x="370.2" y="144.2870975550714" width="15.6" height="6.293875574921344" fill="green" />
  <line x1="395.3333333333333" y1="143.02832244008715" x2="395.3333333333333" y2="147.86976519002667" stroke="black" stroke-width="1" />
  <rect x="387.5333333333333" y="144.2870975550714" width="15.6" height="3.2921810699589287" fill="red" />
  <line x1="412.6666666666667" y1="141.38223190510774" x2="412.6666666666667" y2="147.86976519002667" stroke="black" stroke-width="1" />
  <rect x="404.8666666666667" y="142.44734931009447" width="15.6" height="4.550956184943118" fill="green" />
  <line x1="430.0" y1="133.63592350520463" x2="430.0" y2="142.15686274509807" stroke="black" stroke-width="1" />
  <rect x="422.2" y="133.63592350520463" width="15.6" height="3.0016945049624155" fill="red" />
  <line x1="447.3333333333333" y1="125.59912854030506" x2="447.3333333333333" y2="135.28201404018398" stroke="black" stroke-width="1" />
  <rect x="439.5333333333333" y="131.11837327523608" width="15.6" height="4.1636407649479" fill="green" />
  <line x1="464.6666666666667" y1="131.11837327523608" x2="464.6666666666667" y2="139.05833938513678" stroke="black" stroke-width="1" />
  <rect x="456.8666666666667" y="131.21520213023484" width="15.6" height="6.003389009924945" fill="red" />
  <line x1="482.0" y1="135.37884289518274" x2="482.0" y2="140.41394335511984" stroke="black" stroke-width="1" />
  <rect x="474.2" y="137.0249334301622" width="15.6" height="3.3890099249576338" fill="red" />
  <line x1="499.3333333333333" y1="131.79617526022759" x2="499.3333333333333" y2="137.31541999515866" stroke="black" stroke-width="1" />
  <rect x="491.5333333333333" y="133.15177923021065" width="15.6" height="4.163640764948013" fill="green" />
  <line x1="516.6666666666666" y1="130.44057129024446" x2="516.6666666666666" y2="134.60421205519248" stroke="black" stroke-width="1" />
  <rect x="508.8666666666666" y="132.8612926652143" width="15.6" height="1" fill="green" />
  <line x1="533.9999999999999" y1="125.21181312030996" x2="533.9999999999999" y2="131.60251755023006" stroke="black" stroke-width="1" />
  <rect x="526.1999999999999" y="128.6976519002663" width="15.6" height="2.8080367949648917" fill="green" />
  <line x1="551.3333333333333" y1="117.36867586540791" x2="551.3333333333333" y2="127.92302106027603" stroke="black" stroke-width="1" />
  <rect x="543.5333333333333" y="121.82280319535221" width="15.6" height="6.10021786492382" fill="green" />

<line x1="40" y1="50" x2="600" y2="50" stroke="blue" stroke-width="2" />
     <text x="605" y="55" font-size="10" fill="blue">Support Level</text>
</svg>