<svg width="800" height="300" xmlns="http://www.w3.org/2000/svg">
  <line x1="40" y1="250" x2="40" y2="50" stroke="black" stroke-width="2" />
  <line x1="35" y1="250.0" x2="40" y2="250.0" stroke="black" stroke-width="1" />
  <text x="10" y="255.0" font-size="10" fill="black">75</text>
  <line x1="40" y1="250.0" x2="780" y2="250.0" stroke="lightgray" stroke-width="1" stroke-dasharray="5,5" />
  <line x1="35" y1="210.0" x2="40" y2="210.0" stroke="black" stroke-width="1" />
  <text x="10" y="215.0" font-size="10" fill="black">85</text>
  <line x1="40" y1="210.0" x2="780" y2="210.0" stroke="lightgray" stroke-width="1" stroke-dasharray="5,5" />
  <line x1="35" y1="170.0" x2="40" y2="170.0" stroke="black" stroke-width="1" />
  <text x="10" y="175.0" font-size="10" fill="black">95</text>
  <line x1="40" y1="170.0" x2="780" y2="170.0" stroke="lightgray" stroke-width="1" stroke-dasharray="5,5" />
  <line x1="35" y1="130.0" x2="40" y2="130.0" stroke="black" stroke-width="1" />
  <text x="10" y="135.0" font-size="10" fill="black">105</text>
  <line x1="40" y1="130.0" x2="780" y2="130.0" stroke="lightgray" stroke-width="1" stroke-dasharray="5,5" />
  <line x1="35" y1="90.0" x2="40" y2="90.0" stroke="black" stroke-width="1" />
  <text x="10" y="95.0" font-size="10" fill="black">115</text>
  <line x1="40" y1="90.0" x2="780" y2="90.0" stroke="lightgray" stroke-width="1" stroke-dasharray="5,5" />
  <line x1="35" y1="50.0" x2="40" y2="50.0" stroke="black" stroke-width="1" />
  <text x="10" y="55.0" font-size="10" fill="black">125</text>
  <line x1="40" y1="50.0" x2="780" y2="50.0" stroke="lightgray" stroke-width="1" stroke-dasharray="5,5" />
  <line x1="58.27759197324415" y1="143.99661099007506" x2="58.27759197324415" y2="150.48414427499392" stroke="black" stroke-width="1" />
  <rect x="50.0" y="143.99661099007506" width="16.555183946488295" height="6.003389009924945" fill="green" />
  <line x1="76.67224080267559" y1="142.83466473008957" x2="76.67224080267559" y2="148.54756717501817" stroke="black" stroke-width="1" />
  <rect x="68.39464882943145" y="143.31880900508355" width="16.555183946488295" height="4.454127329944356" fill="red" />
  <line x1="95.06688963210702" y1="143.2219801500848" x2="95.06688963210702" y2="148.160251755023" stroke="black" stroke-width="1" />
  <rect x="86.78929765886288" y="143.2219801500848" width="16.555183946488295" height="2.2270636649720927" fill="green" />
  <line x1="113.46153846153845" y1="138.961510530138" x2="113.46153846153845" y2="144.86807068506414" stroke="black" stroke-width="1" />
  <rect x="105.18394648829431" y="139.05833938513678" width="16.555183946488295" height="4.163640764948013" fill="green" />
  <line x1="131.8561872909699" y1="136.0566448801743" x2="131.8561872909699" y2="140.31711450012108" stroke="black" stroke-width="1" />
  <rect x="123.57859531772576" y="136.0566448801743" width="16.555183946488295" height="3.389009924957577" fill="green" />
  <line x1="150.25083612040135" y1="128.21350762527237" x2="150.25083612040135" y2="137.5090777051562" stroke="black" stroke-width="1" />
  <rect x="141.9732441471572" y="132.47397724521903" width="16.555183946488295" height="3.5826676349552713" fill="green" />
  <line x1="168.64548494983276" y1="127.92302106027603" x2="168.64548494983276" y2="133.2486080852094" stroke="black" stroke-width="1" />
  <rect x="160.36789297658862" y="132.1834906802227" width="16.555183946488295" height="1.0651174049867222" fill="red" />
  <line x1="187.0401337792642" y1="129.85959816025172" x2="187.0401337792642" y2="138.38053740014527" stroke="black" stroke-width="1" />
  <rect x="178.76254180602007" y="131.50568869523119" width="16.555183946488295" height="1.4524328249818268" fill="red" />
  <line x1="205.43478260869566" y1="132.1834906802227" x2="205.43478260869566" y2="139.54248366013076" stroke="black" stroke-width="1" />
  <rect x="197.1571906354515" y="133.63592350520463" width="16.555183946488295" height="4.841442749939404" fill="red" />
  <line x1="223.8294314381271" y1="131.50568869523119" x2="223.8294314381271" y2="138.1868796901477" stroke="black" stroke-width="1" />
  <rect x="215.55183946488296" y="134.89469862018888" width="16.555183946488295" height="2.8080367949648917" fill="green" />
  <line x1="242.22408026755855" y1="125.59912854030506" x2="242.22408026755855" y2="136.83127572016457" stroke="black" stroke-width="1" />
  <rect x="233.9464882943144" y="127.63253449527963" width="16.555183946488295" height="6.487533284918868" fill="green" />
  <line x1="260.61872909698997" y1="123.27523602033403" x2="260.61872909698997" y2="133.34543694020817" stroke="black" stroke-width="1" />
  <rect x="252.34113712374582" y="127.05156136528683" width="16.555183946488295" height="3.098523359961291" fill="red" />
  <line x1="279.0133779264214" y1="133.44226579520705" x2="279.0133779264214" y2="138.38053740014527" stroke="black" stroke-width="1" />
  <rect x="270.73578595317724" y="134.79786976519" width="16.555183946488295" height="1.6460905349794643" fill="red" />
  <line x1="297.4080267558529" y1="135.37884289518274" x2="297.4080267558529" y2="143.80295328007742" stroke="black" stroke-width="1" />
  <rect x="289.13043478260875" y="136.44396030016946" width="16.555183946488295" height="1.0651174049867222" fill="red" />
  <line x1="315.8026755852843" y1="135.57250060518032" x2="315.8026755852843" y2="145.25538610505936" stroke="black" stroke-width="1" />
  <rect x="307.52508361204013" y="136.0566448801743" width="16.555183946488295" height="8.230452674897094" fill="red" />
  <line x1="334.19732441471575" y1="138.38053740014527" x2="334.19732441471575" y2="143.80295328007742" stroke="black" stroke-width="1" />
  <rect x="325.9197324414716" y="138.76785282014043" width="16.555183946488295" height="5.035100459936984" fill="green" />
  <line x1="352.5919732441472" y1="136.0566448801743" x2="352.5919732441472" y2="149.03171145001215" stroke="black" stroke-width="1" />
  <rect x="344.314381270903" y="138.76785282014043" width="16.555183946488295" height="5.422415879932203" fill="red" />
  <line x1="370.98662207357864" y1="141.57588961510532" x2="370.98662207357864" y2="148.4507383200194" stroke="black" stroke-width="1" />
  <rect x="362.7090301003345" y="144.19026870007264" width="16.555183946488295" height="3.5826676349552713" fill="red" />
  <line x1="389.3812709030101" y1="141.1885741951101" x2="389.3812709030101" y2="152.9048656499637" stroke="black" stroke-width="1" />
  <rect x="381.1036789297659" y="146.61099007504237" width="16.555183946488295" height="5.131929314935803" fill="red" />
  <line x1="407.77591973244154" y1="141.6727184701042" x2="407.77591973244154" y2="150.58097312999274" stroke="black" stroke-width="1" />
  <rect x="399.49832775919737" y="144.2870975550714" width="16.555183946488295" height="6.293875574921344" fill="green" />
  <line x1="426.170568561873" y1="143.02832244008715" x2="426.170568561873" y2="147.86976519002667" stroke="black" stroke-width="1" />
  <rect x="417.8929765886288" y="144.2870975550714" width="16.555183946488295" height="3.2921810699589287" fill="red" />
  <line x1="444.5652173913044" y1="141.38223190510774" x2="444.5652173913044" y2="147.86976519002667" stroke="black" stroke-width="1" />
  <rect x="436.2876254180602" y="142.44734931009447" width="16.555183946488295" height="4.550956184943118" fill="green" />
  <line x1="462.9598662207358" y1="133.63592350520463" x2="462.9598662207358" y2="142.15686274509807" stroke="black" stroke-width="1" />
  <rect x="454.68227424749165" y="133.63592350520463" width="16.555183946488295" height="3.0016945049624155" fill="red" />
  <line x1="481.35451505016727" y1="125.59912854030506" x2="481.35451505016727" y2="135.28201404018398" stroke="black" stroke-width="1" />
  <rect x="473.0769230769231" y="131.11837327523608" width="16.555183946488295" height="4.1636407649479" fill="green" />
  <line x1="499.7491638795987" y1="131.11837327523608" x2="499.7491638795987" y2="139.05833938513678" stroke="black" stroke-width="1" />
  <rect x="491.47157190635454" y="131.21520213023484" width="16.555183946488295" height="6.003389009924945" fill="red" />
  <line x1="518.1438127090302" y1="135.37884289518274" x2="518.1438127090302" y2="140.41394335511984" stroke="black" stroke-width="1" />
  <rect x="509.866220735786" y="137.0249334301622" width="16.555183946488295" height="3.3890099249576338" fill="red" />
  <line x1="536.5384615384617" y1="131.79617526022759" x2="536.5384615384617" y2="137.31541999515866" stroke="black" stroke-width="1" />
  <rect x="528.2608695652175" y="133.15177923021065" width="16.555183946488295" height="4.163640764948013" fill="green" />
  <line x1="554.933110367893" y1="130.44057129024446" x2="554.933110367893" y2="134.60421205519248" stroke="black" stroke-width="1" />
  <rect x="546.6555183946489" y="132.8612926652143" width="16.555183946488295" height="1" fill="green" />
  <line x1="573.3277591973244" y1="125.21181312030996" x2="573.3277591973244" y2="131.60251755023006" stroke="black" stroke-width="1" />
  <rect x="565.0501672240803" y="128.6976519002663" width="16.555183946488295" height="2.8080367949648917" fill="green" />
  <line x1="591.7224080267559" y1="117.36867586540791" x2="591.7224080267559" y2="127.92302106027603" stroke="black" stroke-width="1" />
  <rect x="583.4448160535118" y="121.82280319535221" width="16.555183946488295" height="6.10021786492382" fill="green" />
</svg>