<svg width="800" height="300" xmlns="http://www.w3.org/2000/svg">
  <line x1="40" y1="250" x2="40" y2="50" stroke="black" stroke-width="2" />
  <line x1="35" y1="250.0" x2="40" y2="250.0" stroke="black" stroke-width="1" />
  <text x="10" y="255.0" font-size="10" fill="black">75</text>
  <line x1="40" y1="250.0" x2="780" y2="250.0" stroke="lightgray" stroke-width="1" stroke-dasharray="5, 5" />
  <line x1="35" y1="210.0" x2="40" y2="210.0" stroke="black" stroke-width="1" />
  <text x="10" y="215.0" font-size="10" fill="black">85</text>
  <line x1="40" y1="210.0" x2="780" y2="210.0" stroke="lightgray" stroke-width="1" stroke-dasharray="5, 5" />
  <line x1="35" y1="170.0" x2="40" y2="170.0" stroke="black" stroke-width="1" />
  <text x="10" y="175.0" font-size="10" fill="black">95</text>
  <line x1="40" y1="170.0" x2="780" y2="170.0" stroke="lightgray" stroke-width="1" stroke-dasharray="5, 5" />
  <line x1="35" y1="130.0" x2="40" y2="130.0" stroke="black" stroke-width="1" />
  <text x="10" y="135.0" font-size="10" fill="black">105</text>
  <line x1="40" y1="130.0" x2="780" y2="130.0" stroke="lightgray" stroke-width="1" stroke-dasharray="5, 5" />
  <line x1="35" y1="90.0" x2="40" y2="90.0" stroke="black" stroke-width="1" />
  <text x="10" y="95.0" font-size="10" fill="black">115</text>
  <line x1="40" y1="90.0" x2="780" y2="90.0" stroke="lightgray" stroke-width="1" stroke-dasharray="5, 5" />
  <line x1="35" y1="50.0" x2="40" y2="50.0" stroke="black" stroke-width="1" />
  <text x="10" y="55.0" font-size="10" fill="black">125</text>
  <line x1="40" y1="50.0" x2="780" y2="50.0" stroke="lightgray" stroke-width="1" stroke-dasharray="5, 5" />
  <line x1="35" y1="150.0" x2="40" y2="150.0" stroke="black" stroke-width="1" />
  <text x="10" y="155.0" font-size="10" fill="black">100</text>
  <line x1="40" y1="150.0" x2="780" y2="150.0" stroke="lightgray" stroke-width="1" stroke-dasharray="5, 5" />
  <line x1="48.666666666666664" y1="141.25000000000006" x2="48.666666666666664" y2="150.54347826086962" stroke="black" stroke-width="1" />
  <rect x="40.86666666666667" y="143.47826086956525" width="15.6" height="6.521739130434753" fill="green" />
  <line x1="66.0" y1="138.26086956521743" x2="66.0" y2="143.31521739130437" stroke="black" stroke-width="1" />
  <rect x="58.199999999999996" y="140.5978260869565" width="15.6" height="2.500000000000057" fill="red" />
  <line x1="83.33333333333333" y1="142.2826086956522" x2="83.33333333333333" y2="147.1195652173913" stroke="black" stroke-width="1" />
  <rect x="75.53333333333332" y="142.66304347826082" width="15.6" height="2.282608695652243" fill="red" />
  <line x1="100.66666666666667" y1="144.07608695652175" x2="100.66666666666667" y2="148.695652173913" stroke="black" stroke-width="1" />
  <rect x="92.86666666666666" y="144.56521739130437" width="15.6" height="1" fill="green" />
  <line x1="118.0" y1="140.76086956521738" x2="118.0" y2="145.86956521739137" stroke="black" stroke-width="1" />
  <rect x="110.19999999999999" y="142.44565217391312" width="15.6" height="2.499999999999943" fill="green" />
  <line x1="135.33333333333331" y1="141.57608695652175" x2="135.33333333333331" y2="145.5978260869565" stroke="black" stroke-width="1" />
  <rect x="127.53333333333332" y="143.0434782608695" width="15.6" height="1" fill="red" />
  <line x1="152.66666666666666" y1="136.79347826086962" x2="152.66666666666666" y2="144.07608695652175" stroke="black" stroke-width="1" />
  <rect x="144.86666666666667" y="140.76086956521738" width="15.6" height="2.3369565217391823" fill="green" />
  <line x1="169.99999999999997" y1="136.9565217391305" x2="169.99999999999997" y2="142.01086956521738" stroke="black" stroke-width="1" />
  <rect x="162.2" y="138.26086956521743" width="15.6" height="3.695652173913004" fill="green" />
  <line x1="187.33333333333331" y1="102.66304347826087" x2="187.33333333333331" y2="139.83695652173918" stroke="black" stroke-width="1" />
  <rect x="179.53333333333333" y="117.39130434782606" width="15.6" height="20.978260869565304" fill="green" />
  <line x1="204.66666666666666" y1="114.1304347826088" x2="204.66666666666666" y2="122.98913043478262" stroke="black" stroke-width="1" />
  <rect x="196.86666666666667" y="117.60869565217388" width="15.6" height="1.9021739130435549" fill="green" />
  <line x1="221.99999999999997" y1="115.92391304347825" x2="221.99999999999997" y2="121.304347826087" stroke="black" stroke-width="1" />
  <rect x="214.2" y="116.03260869565213" width="15.6" height="2.989130434782737" fill="green" />
  <line x1="239.33333333333331" y1="112.98913043478257" x2="239.33333333333331" y2="119.67391304347831" stroke="black" stroke-width="1" />
  <rect x="231.53333333333333" y="117.06521739130437" width="15.6" height="1" fill="red" />
  <line x1="256.6666666666667" y1="117.71739130434787" x2="256.6666666666667" y2="123.42391304347825" stroke="black" stroke-width="1" />
  <rect x="248.86666666666667" y="120.86956521739137" width="15.6" height="1.4673913043478137" fill="green" />
  <line x1="274.0" y1="118.69565217391306" x2="274.0" y2="123.85869565217388" stroke="black" stroke-width="1" />
  <rect x="266.2" y="122.60869565217394" width="15.6" height="1" fill="red" />
  <line x1="291.3333333333333" y1="125.97826086956525" x2="291.3333333333333" y2="132.11956521739137" stroke="black" stroke-width="1" />
  <rect x="283.5333333333333" y="126.08695652173918" width="15.6" height="5.8152173913043725" fill="red" />
  <line x1="308.6666666666667" y1="129.0217391304348" x2="308.6666666666667" y2="132.60869565217394" stroke="black" stroke-width="1" />
  <rect x="300.8666666666667" y="130.43478260869568" width="15.6" height="1.4673913043478706" fill="green" />
  <line x1="326.0" y1="129.51086956521738" x2="326.0" y2="136.9565217391305" stroke="black" stroke-width="1" />
  <rect x="318.2" y="131.9565217391305" width="15.6" height="2.9891304347826235" fill="red" />
  <line x1="343.3333333333333" y1="135.16304347826093" x2="343.3333333333333" y2="142.33695652173913" stroke="black" stroke-width="1" />
  <rect x="335.5333333333333" y="135.76086956521738" width="15.6" height="4.510869565217433" fill="red" />
  <line x1="360.6666666666667" y1="132.60869565217394" x2="360.6666666666667" y2="141.08695652173913" stroke="black" stroke-width="1" />
  <rect x="352.8666666666667" y="139.1304347826087" width="15.6" height="1" fill="red" />
  <line x1="378.0" y1="135.6521739130435" x2="378.0" y2="140.3804347826087" stroke="black" stroke-width="1" />
  <rect x="370.2" y="137.8260869565218" width="15.6" height="1" fill="red" />
  <line x1="395.3333333333333" y1="132.7173913043478" x2="395.3333333333333" y2="140.92391304347825" stroke="black" stroke-width="1" />
  <rect x="387.5333333333333" y="137.2826086956522" width="15.6" height="3.6413043478260647" fill="green" />
  <line x1="412.6666666666667" y1="134.83695652173913" x2="412.6666666666667" y2="139.1304347826087" stroke="black" stroke-width="1" />
  <rect x="404.8666666666667" y="137.1195652173913" width="15.6" height="1" fill="green" />
  <line x1="430.0" y1="136.68478260869563" x2="430.0" y2="141.35869565217394" stroke="black" stroke-width="1" />
  <rect x="422.2" y="137.1195652173913" width="15.6" height="1.9565217391304373" fill="red" />
  <line x1="447.3333333333333" y1="135.21739130434787" x2="447.3333333333333" y2="140.5978260869565" stroke="black" stroke-width="1" />
  <rect x="439.5333333333333" y="135.32608695652175" width="15.6" height="1" fill="green" />
  <line x1="464.6666666666667" y1="133.85869565217394" x2="464.6666666666667" y2="139.6739130434783" stroke="black" stroke-width="1" />
  <rect x="456.8666666666667" y="135.32608695652175" width="15.6" height="1" fill="red" />
  <line x1="482.0" y1="129.945652173913" x2="482.0" y2="135.70652173913044" stroke="black" stroke-width="1" />
  <rect x="474.2" y="131.46739130434793" width="15.6" height="2.2826086956521294" fill="green" />
  <line x1="499.3333333333333" y1="124.83695652173913" x2="499.3333333333333" y2="130.48913043478262" stroke="black" stroke-width="1" />
  <rect x="491.5333333333333" y="125.16304347826087" width="15.6" height="4.72826086956519" fill="green" />
  <line x1="516.6666666666666" y1="121.14130434782612" x2="516.6666666666666" y2="126.52173913043481" stroke="black" stroke-width="1" />
  <rect x="508.8666666666666" y="122.39130434782606" width="15.6" height="3.152173913043555" fill="green" />
  <line x1="533.9999999999999" y1="118.47826086956525" x2="533.9999999999999" y2="122.50000000000006" stroke="black" stroke-width="1" />
  <rect x="526.1999999999999" y="120.65217391304344" width="15.6" height="1" fill="red" />
  <line x1="551.3333333333333" y1="119.56521739130437" x2="551.3333333333333" y2="125.81521739130437" stroke="black" stroke-width="1" />
  <rect x="543.5333333333333" y="121.35869565217394" width="15.6" height="1.4673913043478137" fill="green" />

<!-- Resistance Line -->
<line x1="40" y1="130" x2="600" y2="130" stroke="red" stroke-width="2" />
<text x="605" y="135" font-size="10" fill="red">Resistance</text>

<!-- Support Line -->
<line x1="40" y1="150" x2="600" y2="150" stroke="green" stroke-width="2" />
<text x="605" y="155" font-size="10" fill="green">Support</text>

<!-- Downward Trendline -->
<line x1="40" y1="90" x2="600" y2="150" stroke="blue" stroke-width="2" />
<text x="605" y="145" font-size="10" fill="blue">Trendline</text>
</svg>