<svg width="800" height="300" xmlns="http://www.w3.org/2000/svg">
  <line x1="40" y1="250" x2="40" y2="50" stroke="black" stroke-width="2" />
  <line x1="35" y1="250.0" x2="40" y2="250.0" stroke="black" stroke-width="1" />
  <text x="10" y="255.0" font-size="10" fill="black">75</text>
  <line x1="40" y1="250.0" x2="780" y2="250.0" stroke="lightgray" stroke-width="1" stroke-dasharray="5,5" />
  <line x1="35" y1="210.0" x2="40" y2="210.0" stroke="black" stroke-width="1" />
  <text x="10" y="215.0" font-size="10" fill="black">85</text>
  <line x1="40" y1="210.0" x2="780" y2="210.0" stroke="lightgray" stroke-width="1" stroke-dasharray="5,5" />
  <line x1="35" y1="170.0" x2="40" y2="170.0" stroke="black" stroke-width="1" />
  <text x="10" y="175.0" font-size="10" fill="black">95</text>
  <line x1="40" y1="170.0" x2="780" y2="170.0" stroke="lightgray" stroke-width="1" stroke-dasharray="5,5" />
  <line x1="35" y1="130.0" x2="40" y2="130.0" stroke="black" stroke-width="1" />
  <text x="10" y="135.0" font-size="10" fill="black">105</text>
  <line x1="40" y1="130.0" x2="780" y2="130.0" stroke="lightgray" stroke-width="1" stroke-dasharray="5,5" />
  <line x1="35" y1="90.0" x2="40" y2="90.0" stroke="black" stroke-width="1" />
  <text x="10" y="95.0" font-size="10" fill="black">115</text>
  <line x1="40" y1="90.0" x2="780" y2="90.0" stroke="lightgray" stroke-width="1" stroke-dasharray="5,5" />
  <line x1="35" y1="50.0" x2="40" y2="50.0" stroke="black" stroke-width="1" />
  <text x="10" y="55.0" font-size="10" fill="black">125</text>
  <line x1="40" y1="50.0" x2="780" y2="50.0" stroke="lightgray" stroke-width="1" stroke-dasharray="5,5" />
  <line x1="58.27759197324415" y1="141.25000000000006" x2="58.27759197324415" y2="150.54347826086962" stroke="black" stroke-width="1" />
  <rect x="50.0" y="143.47826086956525" width="16.555183946488295" height="6.521739130434753" fill="green" />
  <line x1="76.67224080267559" y1="138.26086956521743" x2="76.67224080267559" y2="143.31521739130437" stroke="black" stroke-width="1" />
  <rect x="68.39464882943145" y="140.5978260869565" width="16.555183946488295" height="2.500000000000057" fill="red" />
  <line x1="95.06688963210702" y1="142.2826086956522" x2="95.06688963210702" y2="147.1195652173913" stroke="black" stroke-width="1" />
  <rect x="86.78929765886288" y="142.66304347826082" width="16.555183946488295" height="2.282608695652243" fill="red" />
  <line x1="113.46153846153845" y1="144.07608695652175" x2="113.46153846153845" y2="148.695652173913" stroke="black" stroke-width="1" />
  <rect x="105.18394648829431" y="144.56521739130437" width="16.555183946488295" height="1" fill="green" />
  <line x1="131.8561872909699" y1="140.76086956521738" x2="131.8561872909699" y2="145.86956521739137" stroke="black" stroke-width="1" />
  <rect x="123.57859531772576" y="142.44565217391312" width="16.555183946488295" height="2.499999999999943" fill="green" />
  <line x1="150.25083612040135" y1="141.57608695652175" x2="150.25083612040135" y2="145.5978260869565" stroke="black" stroke-width="1" />
  <rect x="141.9732441471572" y="143.0434782608695" width="16.555183946488295" height="1" fill="red" />
  <line x1="168.64548494983276" y1="136.79347826086962" x2="168.64548494983276" y2="144.07608695652175" stroke="black" stroke-width="1" />
  <rect x="160.36789297658862" y="140.76086956521738" width="16.555183946488295" height="2.3369565217391823" fill="green" />
  <line x1="187.0401337792642" y1="136.9565217391305" x2="187.0401337792642" y2="142.01086956521738" stroke="black" stroke-width="1" />
  <rect x="178.76254180602007" y="138.26086956521743" width="16.555183946488295" height="3.695652173913004" fill="green" />
  <line x1="205.43478260869566" y1="102.66304347826087" x2="205.43478260869566" y2="139.83695652173918" stroke="black" stroke-width="1" />
  <rect x="197.1571906354515" y="117.39130434782606" width="16.555183946488295" height="20.978260869565304" fill="green" />
  <line x1="223.8294314381271" y1="114.1304347826088" x2="223.8294314381271" y2="122.98913043478262" stroke="black" stroke-width="1" />
  <rect x="215.55183946488296" y="117.60869565217388" width="16.555183946488295" height="1.9021739130435549" fill="green" />
  <line x1="242.22408026755855" y1="115.92391304347825" x2="242.22408026755855" y2="121.304347826087" stroke="black" stroke-width="1" />
  <rect x="233.9464882943144" y="116.03260869565213" width="16.555183946488295" height="2.989130434782737" fill="green" />
  <line x1="260.61872909698997" y1="112.98913043478257" x2="260.61872909698997" y2="119.67391304347831" stroke="black" stroke-width="1" />
  <rect x="252.34113712374582" y="117.06521739130437" width="16.555183946488295" height="1" fill="red" />
  <line x1="279.0133779264214" y1="117.71739130434787" x2="279.0133779264214" y2="123.42391304347825" stroke="black" stroke-width="1" />
  <rect x="270.73578595317724" y="120.86956521739137" width="16.555183946488295" height="1.4673913043478137" fill="green" />
  <line x1="297.4080267558529" y1="118.69565217391306" x2="297.4080267558529" y2="123.85869565217388" stroke="black" stroke-width="1" />
  <rect x="289.13043478260875" y="122.60869565217394" width="16.555183946488295" height="1" fill="red" />
  <line x1="315.8026755852843" y1="125.97826086956525" x2="315.8026755852843" y2="132.11956521739137" stroke="black" stroke-width="1" />
  <rect x="307.52508361204013" y="126.08695652173918" width="16.555183946488295" height="5.8152173913043725" fill="red" />
  <line x1="334.19732441471575" y1="129.0217391304348" x2="334.19732441471575" y2="132.60869565217394" stroke="black" stroke-width="1" />
  <rect x="325.9197324414716" y="130.43478260869568" width="16.555183946488295" height="1.4673913043478706" fill="green" />
  <line x1="352.5919732441472" y1="129.51086956521738" x2="352.5919732441472" y2="136.9565217391305" stroke="black" stroke-width="1" />
  <rect x="344.314381270903" y="131.9565217391305" width="16.555183946488295" height="2.9891304347826235" fill="red" />
  <line x1="370.98662207357864" y1="135.16304347826093" x2="370.98662207357864" y2="142.33695652173913" stroke="black" stroke-width="1" />
  <rect x="362.7090301003345" y="135.76086956521738" width="16.555183946488295" height="4.510869565217433" fill="red" />
  <line x1="389.3812709030101" y1="132.60869565217394" x2="389.3812709030101" y2="141.08695652173913" stroke="black" stroke-width="1" />
  <rect x="381.1036789297659" y="139.1304347826087" width="16.555183946488295" height="1" fill="red" />
  <line x1="407.77591973244154" y1="135.6521739130435" x2="407.77591973244154" y2="140.3804347826087" stroke="black" stroke-width="1" />
  <rect x="399.49832775919737" y="137.8260869565218" width="16.555183946488295" height="1" fill="red" />
  <line x1="426.170568561873" y1="132.7173913043478" x2="426.170568561873" y2="140.92391304347825" stroke="black" stroke-width="1" />
  <rect x="417.8929765886288" y="137.2826086956522" width="16.555183946488295" height="3.6413043478260647" fill="green" />
  <line x1="444.5652173913044" y1="134.83695652173913" x2="444.5652173913044" y2="139.1304347826087" stroke="black" stroke-width="1" />
  <rect x="436.2876254180602" y="137.1195652173913" width="16.555183946488295" height="1" fill="green" />
  <line x1="462.9598662207358" y1="136.68478260869563" x2="462.9598662207358" y2="141.35869565217394" stroke="black" stroke-width="1" />
  <rect x="454.68227424749165" y="137.1195652173913" width="16.555183946488295" height="1.9565217391304373" fill="red" />
  <line x1="481.35451505016727" y1="135.21739130434787" x2="481.35451505016727" y2="140.5978260869565" stroke="black" stroke-width="1" />
  <rect x="473.0769230769231" y="135.32608695652175" width="16.555183946488295" height="1" fill="green" />
  <line x1="499.7491638795987" y1="133.85869565217394" x2="499.7491638795987" y2="139.6739130434783" stroke="black" stroke-width="1" />
  <rect x="491.47157190635454" y="135.32608695652175" width="16.555183946488295" height="1" fill="red" />
  <line x1="518.1438127090302" y1="129.945652173913" x2="518.1438127090302" y2="135.70652173913044" stroke="black" stroke-width="1" />
  <rect x="509.866220735786" y="131.46739130434793" width="16.555183946488295" height="2.2826086956521294" fill="green" />
  <line x1="536.5384615384617" y1="124.83695652173913" x2="536.5384615384617" y2="130.48913043478262" stroke="black" stroke-width="1" />
  <rect x="528.2608695652175" y="125.16304347826087" width="16.555183946488295" height="4.72826086956519" fill="green" />
  <line x1="554.933110367893" y1="121.14130434782612" x2="554.933110367893" y2="126.52173913043481" stroke="black" stroke-width="1" />
  <rect x="546.6555183946489" y="122.39130434782606" width="16.555183946488295" height="3.152173913043555" fill="green" />
  <line x1="573.3277591973244" y1="118.47826086956525" x2="573.3277591973244" y2="122.50000000000006" stroke="black" stroke-width="1" />
  <rect x="565.0501672240803" y="120.65217391304344" width="16.555183946488295" height="1" fill="red" />
  <line x1="591.7224080267559" y1="119.56521739130437" x2="591.7224080267559" y2="125.81521739130437" stroke="black" stroke-width="1" />
  <rect x="583.4448160535118" y="121.35869565217394" width="16.555183946488295" height="1.4673913043478137" fill="green" />
</svg>