<svg width="800" height="300" xmlns="http://www.w3.org/2000/svg">
  <line x1="40" y1="250" x2="40" y2="50" stroke="black" stroke-width="2" />
  <line x1="35" y1="250.0" x2="40" y2="250.0" stroke="black" stroke-width="1" />
  <text x="10" y="255.0" font-size="10" fill="black">75</text>
  <line x1="40" y1="250.0" x2="780" y2="250.0" stroke="lightgray" stroke-width="1" stroke-dasharray="5,5" />
  <line x1="35" y1="210.0" x2="40" y2="210.0" stroke="black" stroke-width="1" />
  <text x="10" y="215.0" font-size="10" fill="black">85</text>
  <line x1="40" y1="210.0" x2="780" y2="210.0" stroke="lightgray" stroke-width="1" stroke-dasharray="5,5" />
  <line x1="35" y1="170.0" x2="40" y2="170.0" stroke="black" stroke-width="1" />
  <text x="10" y="175.0" font-size="10" fill="black">95</text>
  <line x1="40" y1="170.0" x2="780" y2="170.0" stroke="lightgray" stroke-width="1" stroke-dasharray="5,5" />
  <line x1="35" y1="130.0" x2="40" y2="130.0" stroke="black" stroke-width="1" />
  <text x="10" y="135.0" font-size="10" fill="black">105</text>
  <line x1="40" y1="130.0" x2="780" y2="130.0" stroke="lightgray" stroke-width="1" stroke-dasharray="5,5" />
  <line x1="35" y1="90.0" x2="40" y2="90.0" stroke="black" stroke-width="1" />
  <text x="10" y="95.0" font-size="10" fill="black">115</text>
  <line x1="40" y1="90.0" x2="780" y2="90.0" stroke="lightgray" stroke-width="1" stroke-dasharray="5,5" />
  <line x1="35" y1="50.0" x2="40" y2="50.0" stroke="black" stroke-width="1" />
  <text x="10" y="55.0" font-size="10" fill="black">125</text>
  <line x1="40" y1="50.0" x2="780" y2="50.0" stroke="lightgray" stroke-width="1" stroke-dasharray="5,5" />
  <line x1="58.27759197324415" y1="142.93937068303916" x2="58.27759197324415" y2="150.0" stroke="black" stroke-width="1" />
  <rect x="50.0" y="142.93937068303916" width="16.555183946488295" height="7.060629316960842" fill="green" />
  <line x1="76.67224080267559" y1="144.47429009976986" x2="76.67224080267559" y2="144.47429009976986" stroke="black" stroke-width="1" />
  <rect x="68.39464882943145" y="144.47429009976986" width="16.555183946488295" height="1" fill="red" />
  <line x1="95.06688963210702" y1="137.4136607828089" x2="95.06688963210702" y2="146.00920951650045" stroke="black" stroke-width="1" />
  <rect x="86.78929765886288" y="137.4136607828089" width="16.555183946488295" height="8.595548733691544" fill="green" />
  <line x1="113.46153846153845" y1="135.87874136607832" x2="113.46153846153845" y2="140.17651573292403" stroke="black" stroke-width="1" />
  <rect x="105.18394648829431" y="139.86953184957792" width="16.555183946488295" height="1" fill="red" />
  <line x1="131.8561872909699" y1="141.09746738296246" x2="131.8561872909699" y2="141.09746738296246" stroke="black" stroke-width="1" />
  <rect x="123.57859531772576" y="141.09746738296246" width="16.555183946488295" height="1" fill="red" />
  <line x1="150.25083612040135" y1="126.36224098234845" x2="150.25083612040135" y2="133.42287029930935" stroke="black" stroke-width="1" />
  <rect x="141.9732441471572" y="126.36224098234845" width="16.555183946488295" height="7.060629316960899" fill="green" />
  <line x1="168.64548494983276" y1="130.04604758250196" x2="168.64548494983276" y2="133.42287029930935" stroke="black" stroke-width="1" />
  <rect x="160.36789297658862" y="130.04604758250196" width="16.555183946488295" height="1.5349194167305882" fill="green" />
  <line x1="187.0401337792642" y1="129.73906369915585" x2="187.0401337792642" y2="137.4136607828089" stroke="black" stroke-width="1" />
  <rect x="178.76254180602007" y="129.73906369915585" width="16.555183946488295" height="7.674597083653055" fill="red" />
  <line x1="205.43478260869566" y1="137.72064466615507" x2="205.43478260869566" y2="139.25556408288566" stroke="black" stroke-width="1" />
  <rect x="197.1571906354515" y="137.72064466615507" width="16.555183946488295" height="1" fill="red" />
  <line x1="223.8294314381271" y1="126.97620874904072" x2="223.8294314381271" y2="134.65080583269378" stroke="black" stroke-width="1" />
  <rect x="215.55183946488296" y="129.73906369915585" width="16.555183946488295" height="4.911742133537928" fill="green" />
  <line x1="242.22408026755855" y1="130.66001534919423" x2="242.22408026755855" y2="133.11588641596313" stroke="black" stroke-width="1" />
  <rect x="233.9464882943144" y="130.66001534919423" width="16.555183946488295" height="2.455871066768907" fill="green" />
  <line x1="260.61872909698997" y1="129.4320798158097" x2="260.61872909698997" y2="131.88795088257876" stroke="black" stroke-width="1" />
  <rect x="252.34113712374582" y="131.58096699923254" width="16.555183946488295" height="1" fill="red" />
  <line x1="279.0133779264214" y1="140.7904834996163" x2="279.0133779264214" y2="144.7812739831159" stroke="black" stroke-width="1" />
  <rect x="270.73578595317724" y="144.7812739831159" width="16.555183946488295" height="1" fill="red" />
  <line x1="297.4080267558529" y1="135.26477359938605" x2="297.4080267558529" y2="144.1673062164237" stroke="black" stroke-width="1" />
  <rect x="289.13043478260875" y="137.4136607828089" width="16.555183946488295" height="6.753645433614793" fill="green" />
  <line x1="315.8026755852843" y1="134.65080583269378" x2="315.8026755852843" y2="134.65080583269378" stroke="black" stroke-width="1" />
  <rect x="307.52508361204013" y="134.65080583269378" width="16.555183946488295" height="1" fill="red" />
  <line x1="334.19732441471575" y1="138.33461243284734" x2="334.19732441471575" y2="150.92095165003843" stroke="black" stroke-width="1" />
  <rect x="325.9197324414716" y="138.64159631619344" width="16.555183946488295" height="12.27935533384499" fill="red" />
  <line x1="352.5919732441472" y1="144.7812739831159" x2="352.5919732441472" y2="146.93016116653877" stroke="black" stroke-width="1" />
  <rect x="344.314381270903" y="146.31619339984655" width="16.555183946488295" height="1" fill="green" />
  <line x1="370.98662207357864" y1="148.4650805832694" x2="370.98662207357864" y2="148.4650805832694" stroke="black" stroke-width="1" />
  <rect x="362.7090301003345" y="148.4650805832694" width="16.555183946488295" height="1" fill="red" />
  <line x1="389.3812709030101" y1="139.56254796623188" x2="389.3812709030101" y2="144.7812739831159" stroke="black" stroke-width="1" />
  <rect x="381.1036789297659" y="141.71143514965473" width="16.555183946488295" height="3.0698388334611764" fill="green" />
  <line x1="407.77591973244154" y1="140.7904834996163" x2="407.77591973244154" y2="140.7904834996163" stroke="black" stroke-width="1" />
  <rect x="399.49832775919737" y="140.7904834996163" width="16.555183946488295" height="1" fill="red" />
  <line x1="426.170568561873" y1="133.72985418265546" x2="426.170568561873" y2="137.72064466615507" stroke="black" stroke-width="1" />
  <rect x="417.8929765886288" y="133.72985418265546" width="16.555183946488295" height="3.06983883346129" fill="green" />
  <line x1="444.5652173913044" y1="123.90636991557943" x2="444.5652173913044" y2="134.0368380660015" stroke="black" stroke-width="1" />
  <rect x="436.2876254180602" y="123.90636991557943" width="16.555183946488295" height="10.130468150422075" fill="green" />
  <line x1="462.9598662207358" y1="118.68764389869534" x2="462.9598662207358" y2="127.59017651573299" stroke="black" stroke-width="1" />
  <rect x="454.68227424749165" y="121.75748273215657" width="16.555183946488295" height="5.832693783576417" fill="green" />
  <line x1="481.35451505016727" y1="104.25940138142755" x2="481.35451505016727" y2="119.91557943207988" stroke="black" stroke-width="1" />
  <rect x="473.0769230769231" y="106.71527244819652" width="16.555183946488295" height="13.200306983883365" fill="green" />
  <line x1="499.7491638795987" y1="107.94320798158094" x2="499.7491638795987" y2="114.69685341519568" stroke="black" stroke-width="1" />
  <rect x="491.47157190635454" y="108.55717574827327" width="16.555183946488295" height="6.13967766692241" fill="red" />
  <line x1="518.1438127090302" y1="121.45049884881047" x2="518.1438127090302" y2="161.66538756715278" stroke="black" stroke-width="1" />
  <rect x="509.866220735786" y="121.45049884881047" width="16.555183946488295" height="38.37298541826556" fill="red" />
  <line x1="536.5384615384617" y1="162.27935533384505" x2="536.5384615384617" y2="175.17267843438225" stroke="black" stroke-width="1" />
  <rect x="528.2608695652175" y="163.81427475057563" width="16.555183946488295" height="2.455871066768964" fill="red" />
  <line x1="554.933110367893" y1="165.04221028396012" x2="554.933110367893" y2="175.47966231772835" stroke="black" stroke-width="1" />
  <rect x="546.6555183946489" y="165.04221028396012" width="16.555183946488295" height="3.069838833461233" fill="green" />
  <line x1="573.3277591973244" y1="146.6231772831926" x2="573.3277591973244" y2="162.5863392171911" stroke="black" stroke-width="1" />
  <rect x="565.0501672240803" y="148.4650805832694" width="16.555183946488295" height="14.121258633921684" fill="green" />
  <line x1="591.7224080267559" y1="144.1673062164237" x2="591.7224080267559" y2="148.4650805832694" stroke="black" stroke-width="1" />
  <rect x="583.4448160535118" y="146.00920951650045" width="16.555183946488295" height="2.455871066768964" fill="red" />
</svg>