<svg width="800" height="300" xmlns="http://www.w3.org/2000/svg">
  <line x1="40" y1="250" x2="40" y2="50" stroke="black" stroke-width="2" />
  <line x1="35" y1="250.0" x2="40" y2="250.0" stroke="black" stroke-width="1" />
  <text x="10" y="255.0" font-size="10" fill="black">75</text>
  <line x1="40" y1="250.0" x2="780" y2="250.0" stroke="lightgray" stroke-width="1" stroke-dasharray="5, 5" />
  <line x1="35" y1="210.0" x2="40" y2="210.0" stroke="black" stroke-width="1" />
  <text x="10" y="215.0" font-size="10" fill="black">85</text>
  <line x1="40" y1="210.0" x2="780" y2="210.0" stroke="lightgray" stroke-width="1" stroke-dasharray="5, 5" />
  <line x1="35" y1="170.0" x2="40" y2="170.0" stroke="black" stroke-width="1" />
  <text x="10" y="175.0" font-size="10" fill="black">95</text>
  <line x1="40" y1="170.0" x2="780" y2="170.0" stroke="lightgray" stroke-width="1" stroke-dasharray="5, 5" />
  <line x1="35" y1="130.0" x2="40" y2="130.0" stroke="black" stroke-width="1" />
  <text x="10" y="135.0" font-size="10" fill="black">105</text>
  <line x1="40" y1="130.0" x2="780" y2="130.0" stroke="lightgray" stroke-width="1" stroke-dasharray="5, 5" />
  <line x1="35" y1="90.0" x2="40" y2="90.0" stroke="black" stroke-width="1" />
  <text x="10" y="95.0" font-size="10" fill="black">115</text>
  <line x1="40" y1="90.0" x2="780" y2="90.0" stroke="lightgray" stroke-width="1" stroke-dasharray="5, 5" />
  <line x1="35" y1="50.0" x2="40" y2="50.0" stroke="black" stroke-width="1" />
  <text x="10" y="55.0" font-size="10" fill="black">125</text>
  <line x1="40" y1="50.0" x2="780" y2="50.0" stroke="lightgray" stroke-width="1" stroke-dasharray="5, 5" />
  <line x1="35" y1="150.0" x2="40" y2="150.0" stroke="black" stroke-width="1" />
  <text x="10" y="155.0" font-size="10" fill="black">100</text>
  <line x1="40" y1="150.0" x2="780" y2="150.0" stroke="lightgray" stroke-width="1" stroke-dasharray="5, 5" />
  <line x1="48.666666666666664" y1="139.96227652944071" x2="48.666666666666664" y2="152.493029358701" stroke="black" stroke-width="1" />
  <rect x="40.86666666666667" y="141.34000328030186" width="15.6" height="8.659996719698142" fill="green" />
  <line x1="66.0" y1="123.56076759061835" x2="66.0" y2="145.14515335410857" stroke="black" stroke-width="1" />
  <rect x="58.199999999999996" y="123.56076759061835" width="15.6" height="18.763326226012794" fill="green" />
  <line x1="83.33333333333333" y1="123.9544038051501" x2="83.33333333333333" y2="137.04280793833033" stroke="black" stroke-width="1" />
  <rect x="75.53333333333332" y="128.80925045104146" width="15.6" height="3.772347055929174" fill="red" />
  <line x1="100.66666666666667" y1="125.69296375266521" x2="100.66666666666667" y2="134.51697556175174" stroke="black" stroke-width="1" />
  <rect x="92.86666666666666" y="128.4812202722651" width="15.6" height="3.8871576185008507" fill="green" />
  <line x1="118.0" y1="121.10054124979496" x2="118.0" y2="146.19484992619317" stroke="black" stroke-width="1" />
  <rect x="110.19999999999999" y="123.49516155486305" width="15.6" height="20.60029522716087" fill="red" />
  <line x1="135.33333333333331" y1="124.87288830572413" x2="135.33333333333331" y2="139.2406101361325" stroke="black" stroke-width="1" />
  <rect x="127.53333333333332" y="125.62735771690996" width="15.6" height="11.513859275053278" fill="green" />
  <line x1="152.66666666666666" y1="119.42758733803515" x2="152.66666666666666" y2="142.02886665573232" stroke="black" stroke-width="1" />
  <rect x="144.86666666666667" y="124.9712973593571" width="15.6" height="10.2017385599475" fill="red" />
  <line x1="169.99999999999997" y1="126.18500902082997" x2="169.99999999999997" y2="143.63621453173698" stroke="black" stroke-width="1" />
  <rect x="162.2" y="129.13728062981795" width="15.6" height="10.660980810234548" fill="green" />
  <line x1="187.33333333333331" y1="129.038871576185" x2="187.33333333333331" y2="147.70378874856488" stroke="black" stroke-width="1" />
  <rect x="179.53333333333333" y="129.7277349516155" width="15.6" height="8.233557487288863" fill="red" />
  <line x1="204.66666666666666" y1="141.83204854846645" x2="204.66666666666666" y2="167.15597835000818" stroke="black" stroke-width="1" />
  <rect x="196.86666666666667" y="151.9189765458422" width="15.6" height="12.350336230933237" fill="red" />
  <line x1="221.99999999999997" y1="150.62325733967526" x2="221.99999999999997" y2="165.48302443824832" stroke="black" stroke-width="1" />
  <rect x="214.2" y="157.90552730851238" width="15.6" height="1" fill="red" />
  <line x1="239.33333333333331" y1="168.79612924389045" x2="239.33333333333331" y2="198.05642119074952" stroke="black" stroke-width="1" />
  <rect x="231.53333333333333" y="169.4521896014433" width="15.6" height="26.27521731999343" fill="red" />
  <line x1="256.6666666666667" y1="178.440216499918" x2="256.6666666666667" y2="208.45497785796294" stroke="black" stroke-width="1" />
  <rect x="248.86666666666667" y="201.59914712153522" width="15.6" height="2.624241430211555" fill="green" />
  <line x1="274.0" y1="190.31490897162536" x2="274.0" y2="206.35558471379363" stroke="black" stroke-width="1" />
  <rect x="266.2" y="198.3188453337707" width="15.6" height="7.29867147777594" fill="green" />
  <line x1="291.3333333333333" y1="195.2353616532721" x2="291.3333333333333" y2="218.85353452517631" stroke="black" stroke-width="1" />
  <rect x="283.5333333333333" y="195.59619484992618" width="15.6" height="17.09037231425293" fill="red" />
  <line x1="308.6666666666667" y1="200.48384451369526" x2="308.6666666666667" y2="209.86550762670169" stroke="black" stroke-width="1" />
  <rect x="300.8666666666667" y="200.74626865671644" width="15.6" height="5.215679842545512" fill="green" />
  <line x1="326.0" y1="191.1349844185665" x2="326.0" y2="205.73232737411843" stroke="black" stroke-width="1" />
  <rect x="318.2" y="195.3993767426603" width="15.6" height="1" fill="green" />
  <line x1="343.3333333333333" y1="165.58143349188128" x2="343.3333333333333" y2="197.62998195834018" stroke="black" stroke-width="1" />
  <rect x="335.5333333333333" y="166.49991799245527" width="15.6" height="24.667869443988877" fill="green" />
  <line x1="360.6666666666667" y1="153.77234705592912" x2="360.6666666666667" y2="171.51877972773497" stroke="black" stroke-width="1" />
  <rect x="352.8666666666667" y="159.1848450057405" width="15.6" height="7.544694111858291" fill="green" />
  <line x1="378.0" y1="156.51139904871252" x2="378.0" y2="164.2365097588978" stroke="black" stroke-width="1" />
  <rect x="370.2" y="159.31605707725112" width="15.6" height="1" fill="green" />
  <line x1="395.3333333333333" y1="162.3339347219944" x2="395.3333333333333" y2="174.86468755125475" stroke="black" stroke-width="1" />
  <rect x="387.5333333333333" y="166.893554206987" width="15.6" height="1" fill="red" />
  <line x1="412.6666666666667" y1="160.30014761358046" x2="412.6666666666667" y2="173.3229457110054" stroke="black" stroke-width="1" />
  <rect x="404.8666666666667" y="162.36673773987206" width="15.6" height="8.46317861243233" fill="red" />
  <line x1="430.0" y1="163.9084795801213" x2="430.0" y2="178.6042315893062" stroke="black" stroke-width="1" />
  <rect x="422.2" y="169.84582581597505" width="15.6" height="8.266360505166517" fill="red" />
  <line x1="447.3333333333333" y1="157.47908807610298" x2="447.3333333333333" y2="165.38461538461536" stroke="black" stroke-width="1" />
  <rect x="439.5333333333333" y="163.35082827620136" width="15.6" height="1.7057569296375732" fill="green" />
  <line x1="464.6666666666667" y1="160.89683450877482" x2="464.6666666666667" y2="171.48564867967855" stroke="black" stroke-width="1" />
  <rect x="456.8666666666667" y="166.00787272429062" width="15.6" height="3.4771198950303415" fill="red" />
  <line x1="482.0" y1="166.23749384943414" x2="482.0" y2="173.22453665737243" stroke="black" stroke-width="1" />
  <rect x="474.2" y="167.68082663605048" width="15.6" height="1" fill="red" />
  <line x1="499.3333333333333" y1="150.459242250287" x2="499.3333333333333" y2="171.51877972773497" stroke="black" stroke-width="1" />
  <rect x="491.5333333333333" y="153.50992291290794" width="15.6" height="14.285714285714334" fill="green" />
  <line x1="516.6666666666666" y1="140.15909463670664" x2="516.6666666666666" y2="151.08249958996225" stroke="black" stroke-width="1" />
  <rect x="508.8666666666666" y="144.84992619320974" width="15.6" height="4.887649663769082" fill="green" />
  <line x1="533.9999999999999" y1="131.22027226504838" x2="533.9999999999999" y2="150.459242250287" stroke="black" stroke-width="1" />
  <rect x="526.1999999999999" y="134.0577333114647" width="15.6" height="9.053632934229938" fill="red" />
  <line x1="551.3333333333333" y1="143.14416926357228" x2="551.3333333333333" y2="158.79120879120876" stroke="black" stroke-width="1" />
  <rect x="543.5333333333333" y="143.34098737083815" width="15.6" height="8.430375594554619" fill="red" />

<line x1="40" y1="90" x2="600" y2="90" stroke="red" stroke-width="2" />
     <text x="605" y="95" font-size="10" fill="red">Resistance</text>
</svg>