<svg width="800" height="300" xmlns="http://www.w3.org/2000/svg">
  <line x1="40" y1="250" x2="40" y2="50" stroke="black" stroke-width="2" />
  <line x1="35" y1="250.0" x2="40" y2="250.0" stroke="black" stroke-width="1" />
  <text x="10" y="255.0" font-size="10" fill="black">75</text>
  <line x1="40" y1="250.0" x2="780" y2="250.0" stroke="lightgray" stroke-width="1" stroke-dasharray="5,5" />
  <line x1="35" y1="210.0" x2="40" y2="210.0" stroke="black" stroke-width="1" />
  <text x="10" y="215.0" font-size="10" fill="black">85</text>
  <line x1="40" y1="210.0" x2="780" y2="210.0" stroke="lightgray" stroke-width="1" stroke-dasharray="5,5" />
  <line x1="35" y1="170.0" x2="40" y2="170.0" stroke="black" stroke-width="1" />
  <text x="10" y="175.0" font-size="10" fill="black">95</text>
  <line x1="40" y1="170.0" x2="780" y2="170.0" stroke="lightgray" stroke-width="1" stroke-dasharray="5,5" />
  <line x1="35" y1="130.0" x2="40" y2="130.0" stroke="black" stroke-width="1" />
  <text x="10" y="135.0" font-size="10" fill="black">105</text>
  <line x1="40" y1="130.0" x2="780" y2="130.0" stroke="lightgray" stroke-width="1" stroke-dasharray="5,5" />
  <line x1="35" y1="90.0" x2="40" y2="90.0" stroke="black" stroke-width="1" />
  <text x="10" y="95.0" font-size="10" fill="black">115</text>
  <line x1="40" y1="90.0" x2="780" y2="90.0" stroke="lightgray" stroke-width="1" stroke-dasharray="5,5" />
  <line x1="35" y1="50.0" x2="40" y2="50.0" stroke="black" stroke-width="1" />
  <text x="10" y="55.0" font-size="10" fill="black">125</text>
  <line x1="40" y1="50.0" x2="780" y2="50.0" stroke="lightgray" stroke-width="1" stroke-dasharray="5,5" />
  <line x1="58.27759197324415" y1="139.96227652944071" x2="58.27759197324415" y2="152.493029358701" stroke="black" stroke-width="1" />
  <rect x="50.0" y="141.34000328030186" width="16.555183946488295" height="8.659996719698142" fill="green" />
  <line x1="76.67224080267559" y1="123.56076759061835" x2="76.67224080267559" y2="145.14515335410857" stroke="black" stroke-width="1" />
  <rect x="68.39464882943145" y="123.56076759061835" width="16.555183946488295" height="18.763326226012794" fill="green" />
  <line x1="95.06688963210702" y1="123.9544038051501" x2="95.06688963210702" y2="137.04280793833033" stroke="black" stroke-width="1" />
  <rect x="86.78929765886288" y="128.80925045104146" width="16.555183946488295" height="3.772347055929174" fill="red" />
  <line x1="113.46153846153845" y1="125.69296375266521" x2="113.46153846153845" y2="134.51697556175174" stroke="black" stroke-width="1" />
  <rect x="105.18394648829431" y="128.4812202722651" width="16.555183946488295" height="3.8871576185008507" fill="green" />
  <line x1="131.8561872909699" y1="121.10054124979496" x2="131.8561872909699" y2="146.19484992619317" stroke="black" stroke-width="1" />
  <rect x="123.57859531772576" y="123.49516155486305" width="16.555183946488295" height="20.60029522716087" fill="red" />
  <line x1="150.25083612040135" y1="124.87288830572413" x2="150.25083612040135" y2="139.2406101361325" stroke="black" stroke-width="1" />
  <rect x="141.9732441471572" y="125.62735771690996" width="16.555183946488295" height="11.513859275053278" fill="green" />
  <line x1="168.64548494983276" y1="119.42758733803515" x2="168.64548494983276" y2="142.02886665573232" stroke="black" stroke-width="1" />
  <rect x="160.36789297658862" y="124.9712973593571" width="16.555183946488295" height="10.2017385599475" fill="red" />
  <line x1="187.0401337792642" y1="126.18500902082997" x2="187.0401337792642" y2="143.63621453173698" stroke="black" stroke-width="1" />
  <rect x="178.76254180602007" y="129.13728062981795" width="16.555183946488295" height="10.660980810234548" fill="green" />
  <line x1="205.43478260869566" y1="129.038871576185" x2="205.43478260869566" y2="147.70378874856488" stroke="black" stroke-width="1" />
  <rect x="197.1571906354515" y="129.7277349516155" width="16.555183946488295" height="8.233557487288863" fill="red" />
  <line x1="223.8294314381271" y1="141.83204854846645" x2="223.8294314381271" y2="167.15597835000818" stroke="black" stroke-width="1" />
  <rect x="215.55183946488296" y="151.9189765458422" width="16.555183946488295" height="12.350336230933237" fill="red" />
  <line x1="242.22408026755855" y1="150.62325733967526" x2="242.22408026755855" y2="165.48302443824832" stroke="black" stroke-width="1" />
  <rect x="233.9464882943144" y="157.90552730851238" width="16.555183946488295" height="1" fill="red" />
  <line x1="260.61872909698997" y1="168.79612924389045" x2="260.61872909698997" y2="198.05642119074952" stroke="black" stroke-width="1" />
  <rect x="252.34113712374582" y="169.4521896014433" width="16.555183946488295" height="26.27521731999343" fill="red" />
  <line x1="279.0133779264214" y1="178.440216499918" x2="279.0133779264214" y2="208.45497785796294" stroke="black" stroke-width="1" />
  <rect x="270.73578595317724" y="201.59914712153522" width="16.555183946488295" height="2.624241430211555" fill="green" />
  <line x1="297.4080267558529" y1="190.31490897162536" x2="297.4080267558529" y2="206.35558471379363" stroke="black" stroke-width="1" />
  <rect x="289.13043478260875" y="198.3188453337707" width="16.555183946488295" height="7.29867147777594" fill="green" />
  <line x1="315.8026755852843" y1="195.2353616532721" x2="315.8026755852843" y2="218.85353452517631" stroke="black" stroke-width="1" />
  <rect x="307.52508361204013" y="195.59619484992618" width="16.555183946488295" height="17.09037231425293" fill="red" />
  <line x1="334.19732441471575" y1="200.48384451369526" x2="334.19732441471575" y2="209.86550762670169" stroke="black" stroke-width="1" />
  <rect x="325.9197324414716" y="200.74626865671644" width="16.555183946488295" height="5.215679842545512" fill="green" />
  <line x1="352.5919732441472" y1="191.1349844185665" x2="352.5919732441472" y2="205.73232737411843" stroke="black" stroke-width="1" />
  <rect x="344.314381270903" y="195.3993767426603" width="16.555183946488295" height="1" fill="green" />
  <line x1="370.98662207357864" y1="165.58143349188128" x2="370.98662207357864" y2="197.62998195834018" stroke="black" stroke-width="1" />
  <rect x="362.7090301003345" y="166.49991799245527" width="16.555183946488295" height="24.667869443988877" fill="green" />
  <line x1="389.3812709030101" y1="153.77234705592912" x2="389.3812709030101" y2="171.51877972773497" stroke="black" stroke-width="1" />
  <rect x="381.1036789297659" y="159.1848450057405" width="16.555183946488295" height="7.544694111858291" fill="green" />
  <line x1="407.77591973244154" y1="156.51139904871252" x2="407.77591973244154" y2="164.2365097588978" stroke="black" stroke-width="1" />
  <rect x="399.49832775919737" y="159.31605707725112" width="16.555183946488295" height="1" fill="green" />
  <line x1="426.170568561873" y1="162.3339347219944" x2="426.170568561873" y2="174.86468755125475" stroke="black" stroke-width="1" />
  <rect x="417.8929765886288" y="166.893554206987" width="16.555183946488295" height="1" fill="red" />
  <line x1="444.5652173913044" y1="160.30014761358046" x2="444.5652173913044" y2="173.3229457110054" stroke="black" stroke-width="1" />
  <rect x="436.2876254180602" y="162.36673773987206" width="16.555183946488295" height="8.46317861243233" fill="red" />
  <line x1="462.9598662207358" y1="163.9084795801213" x2="462.9598662207358" y2="178.6042315893062" stroke="black" stroke-width="1" />
  <rect x="454.68227424749165" y="169.84582581597505" width="16.555183946488295" height="8.266360505166517" fill="red" />
  <line x1="481.35451505016727" y1="157.47908807610298" x2="481.35451505016727" y2="165.38461538461536" stroke="black" stroke-width="1" />
  <rect x="473.0769230769231" y="163.35082827620136" width="16.555183946488295" height="1.7057569296375732" fill="green" />
  <line x1="499.7491638795987" y1="160.89683450877482" x2="499.7491638795987" y2="171.48564867967855" stroke="black" stroke-width="1" />
  <rect x="491.47157190635454" y="166.00787272429062" width="16.555183946488295" height="3.4771198950303415" fill="red" />
  <line x1="518.1438127090302" y1="166.23749384943414" x2="518.1438127090302" y2="173.22453665737243" stroke="black" stroke-width="1" />
  <rect x="509.866220735786" y="167.68082663605048" width="16.555183946488295" height="1" fill="red" />
  <line x1="536.5384615384617" y1="150.459242250287" x2="536.5384615384617" y2="171.51877972773497" stroke="black" stroke-width="1" />
  <rect x="528.2608695652175" y="153.50992291290794" width="16.555183946488295" height="14.285714285714334" fill="green" />
  <line x1="554.933110367893" y1="140.15909463670664" x2="554.933110367893" y2="151.08249958996225" stroke="black" stroke-width="1" />
  <rect x="546.6555183946489" y="144.84992619320974" width="16.555183946488295" height="4.887649663769082" fill="green" />
  <line x1="573.3277591973244" y1="131.22027226504838" x2="573.3277591973244" y2="150.459242250287" stroke="black" stroke-width="1" />
  <rect x="565.0501672240803" y="134.0577333114647" width="16.555183946488295" height="9.053632934229938" fill="red" />
  <line x1="591.7224080267559" y1="143.14416926357228" x2="591.7224080267559" y2="158.79120879120876" stroke="black" stroke-width="1" />
  <rect x="583.4448160535118" y="143.34098737083815" width="16.555183946488295" height="8.430375594554619" fill="red" />
</svg>