<svg width="800" height="300" xmlns="http://www.w3.org/2000/svg">
  <line x1="40" y1="250" x2="40" y2="50" stroke="black" stroke-width="2" />
  <line x1="35" y1="250.0" x2="40" y2="250.0" stroke="black" stroke-width="1" />
  <text x="10" y="255.0" font-size="10" fill="black">75</text>
  <line x1="40" y1="250.0" x2="780" y2="250.0" stroke="lightgray" stroke-width="1" stroke-dasharray="5, 5" />
  <line x1="35" y1="210.0" x2="40" y2="210.0" stroke="black" stroke-width="1" />
  <text x="10" y="215.0" font-size="10" fill="black">85</text>
  <line x1="40" y1="210.0" x2="780" y2="210.0" stroke="lightgray" stroke-width="1" stroke-dasharray="5, 5" />
  <line x1="35" y1="170.0" x2="40" y2="170.0" stroke="black" stroke-width="1" />
  <text x="10" y="175.0" font-size="10" fill="black">95</text>
  <line x1="40" y1="170.0" x2="780" y2="170.0" stroke="lightgray" stroke-width="1" stroke-dasharray="5, 5" />
  <line x1="35" y1="130.0" x2="40" y2="130.0" stroke="black" stroke-width="1" />
  <text x="10" y="135.0" font-size="10" fill="black">105</text>
  <line x1="40" y1="130.0" x2="780" y2="130.0" stroke="lightgray" stroke-width="1" stroke-dasharray="5, 5" />
  <line x1="35" y1="90.0" x2="40" y2="90.0" stroke="black" stroke-width="1" />
  <text x="10" y="95.0" font-size="10" fill="black">115</text>
  <line x1="40" y1="90.0" x2="780" y2="90.0" stroke="lightgray" stroke-width="1" stroke-dasharray="5, 5" />
  <line x1="35" y1="50.0" x2="40" y2="50.0" stroke="black" stroke-width="1" />
  <text x="10" y="55.0" font-size="10" fill="black">125</text>
  <line x1="40" y1="50.0" x2="780" y2="50.0" stroke="lightgray" stroke-width="1" stroke-dasharray="5, 5" />
  <line x1="35" y1="150.0" x2="40" y2="150.0" stroke="black" stroke-width="1" />
  <text x="10" y="155.0" font-size="10" fill="black">100</text>
  <line x1="40" y1="150.0" x2="780" y2="150.0" stroke="lightgray" stroke-width="1" stroke-dasharray="5, 5" />
  <line x1="48.666666666666664" y1="144.8466257668711" x2="48.666666666666664" y2="150.85889570552143" stroke="black" stroke-width="1" />
  <rect x="40.86666666666667" y="146.56441717791415" width="15.6" height="3.4355828220858484" fill="green" />
  <line x1="66.0" y1="143.00613496932516" x2="66.0" y2="150.1226993865031" stroke="black" stroke-width="1" />
  <rect x="58.199999999999996" y="146.1963190184049" width="15.6" height="3.9263803680981937" fill="red" />
  <line x1="83.33333333333333" y1="135.88957055214718" x2="83.33333333333333" y2="148.5276073619632" stroke="black" stroke-width="1" />
  <rect x="75.53333333333332" y="136.50306748466255" width="15.6" height="12.02453987730064" fill="green" />
  <line x1="100.66666666666667" y1="136.38036809815947" x2="100.66666666666667" y2="144.47852760736197" stroke="black" stroke-width="1" />
  <rect x="92.86666666666666" y="136.50306748466255" width="15.6" height="3.4355828220859053" fill="red" />
  <line x1="118.0" y1="134.29447852760734" x2="118.0" y2="139.44785276073617" stroke="black" stroke-width="1" />
  <rect x="110.19999999999999" y="134.66257668711654" width="15.6" height="4.294478527607339" fill="green" />
  <line x1="135.33333333333331" y1="134.66257668711654" x2="135.33333333333331" y2="139.81595092024543" stroke="black" stroke-width="1" />
  <rect x="127.53333333333332" y="134.66257668711654" width="15.6" height="1.8404907975460105" fill="red" />
  <line x1="152.66666666666666" y1="133.31288343558282" x2="152.66666666666666" y2="136.1349693251533" stroke="black" stroke-width="1" />
  <rect x="144.86666666666667" y="134.78527607361963" width="15.6" height="1" fill="red" />
  <line x1="169.99999999999997" y1="135.1533742331289" x2="169.99999999999997" y2="142.1472392638036" stroke="black" stroke-width="1" />
  <rect x="162.2" y="135.64417177914112" width="15.6" height="3.0674846625766463" fill="red" />
  <line x1="187.33333333333331" y1="135.88957055214718" x2="187.33333333333331" y2="139.32515337423314" stroke="black" stroke-width="1" />
  <rect x="179.53333333333333" y="138.71165644171776" width="15.6" height="1" fill="red" />
  <line x1="204.66666666666666" y1="134.5398773006135" x2="204.66666666666666" y2="139.5705521472392" stroke="black" stroke-width="1" />
  <rect x="196.86666666666667" y="137.11656441717787" width="15.6" height="1" fill="green" />
  <line x1="221.99999999999997" y1="135.88957055214718" x2="221.99999999999997" y2="142.1472392638036" stroke="black" stroke-width="1" />
  <rect x="214.2" y="135.88957055214718" width="15.6" height="1.2269938650306926" fill="green" />
  <line x1="239.33333333333331" y1="135.88957055214718" x2="239.33333333333331" y2="154.17177914110425" stroke="black" stroke-width="1" />
  <rect x="231.53333333333333" y="135.88957055214718" width="15.6" height="15.705521472392718" fill="red" />
  <line x1="256.6666666666667" y1="152.08588957055213" x2="256.6666666666667" y2="158.22085889570548" stroke="black" stroke-width="1" />
  <rect x="248.86666666666667" y="155.88957055214723" width="15.6" height="2.331288343558242" fill="red" />
  <line x1="274.0" y1="154.04907975460122" x2="274.0" y2="162.2699386503067" stroke="black" stroke-width="1" />
  <rect x="266.2" y="155.03067484662574" width="15.6" height="3.1901840490797326" fill="green" />
  <line x1="291.3333333333333" y1="153.68098159509202" x2="291.3333333333333" y2="162.6380368098159" stroke="black" stroke-width="1" />
  <rect x="283.5333333333333" y="155.03067484662574" width="15.6" height="7.484662576687128" fill="red" />
  <line x1="308.6666666666667" y1="157.97546012269936" x2="308.6666666666667" y2="161.41104294478527" stroke="black" stroke-width="1" />
  <rect x="300.8666666666667" y="159.20245398773" width="15.6" height="1.8404907975460674" fill="green" />
  <line x1="326.0" y1="155.64417177914106" x2="326.0" y2="160.67484662576686" stroke="black" stroke-width="1" />
  <rect x="318.2" y="158.58895705521473" width="15.6" height="1.7177914110428674" fill="green" />
  <line x1="343.3333333333333" y1="151.2269938650307" x2="343.3333333333333" y2="162.6380368098159" stroke="black" stroke-width="1" />
  <rect x="335.5333333333333" y="158.58895705521473" width="15.6" height="3.0674846625766463" fill="red" />
  <line x1="360.6666666666667" y1="151.34969325153367" x2="360.6666666666667" y2="160.67484662576686" stroke="black" stroke-width="1" />
  <rect x="352.8666666666667" y="158.95705521472394" width="15.6" height="1" fill="green" />
  <line x1="378.0" y1="151.71779141104292" x2="378.0" y2="158.34355828220856" stroke="black" stroke-width="1" />
  <rect x="370.2" y="154.29447852760734" width="15.6" height="4.049079754601223" fill="green" />
  <line x1="395.3333333333333" y1="151.96319018404904" x2="395.3333333333333" y2="156.01226993865032" stroke="black" stroke-width="1" />
  <rect x="387.5333333333333" y="153.68098159509202" width="15.6" height="1.595092024539838" fill="red" />
  <line x1="412.6666666666667" y1="145.58282208588957" x2="412.6666666666667" y2="155.88957055214723" stroke="black" stroke-width="1" />
  <rect x="404.8666666666667" y="147.54601226993867" width="15.6" height="7.852760736196274" fill="green" />
  <line x1="430.0" y1="145.09202453987734" x2="430.0" y2="150.36809815950915" stroke="black" stroke-width="1" />
  <rect x="422.2" y="145.21472392638037" width="15.6" height="1" fill="green" />
  <line x1="447.3333333333333" y1="132.57668711656436" x2="447.3333333333333" y2="143.1288343558282" stroke="black" stroke-width="1" />
  <rect x="439.5333333333333" y="134.66257668711654" width="15.6" height="4.294478527607339" fill="green" />
  <line x1="464.6666666666667" y1="133.0674846625766" x2="464.6666666666667" y2="141.65644171779138" stroke="black" stroke-width="1" />
  <rect x="456.8666666666667" y="133.31288343558282" width="15.6" height="8.220858895705419" fill="red" />
  <line x1="482.0" y1="137.97546012269936" x2="482.0" y2="143.74233128834356" stroke="black" stroke-width="1" />
  <rect x="474.2" y="138.46625766871165" width="15.6" height="2.0858895705520695" fill="green" />
  <line x1="499.3333333333333" y1="119.81595092024537" x2="499.3333333333333" y2="130.98159509202452" stroke="black" stroke-width="1" />
  <rect x="491.5333333333333" y="124.60122699386494" width="15.6" height="4.417177914110482" fill="green" />
  <line x1="516.6666666666666" y1="119.9386503067484" x2="516.6666666666666" y2="126.19631901840489" stroke="black" stroke-width="1" />
  <rect x="508.8666666666666" y="123.0061349693251" width="15.6" height="1" fill="green" />
  <line x1="533.9999999999999" y1="109.75460122699383" x2="533.9999999999999" y2="118.71165644171776" stroke="black" stroke-width="1" />
  <rect x="526.1999999999999" y="114.17177914110425" width="15.6" height="3.312883435582819" fill="green" />
  <line x1="551.3333333333333" y1="108.15950920245393" x2="551.3333333333333" y2="113.19018404907968" stroke="black" stroke-width="1" />
  <rect x="543.5333333333333" y="109.26380368098154" width="15.6" height="2.699386503067501" fill="green" />

<!-- Resistance Line -->
<line x1="40" y1="130" x2="600" y2="130" stroke="red" stroke-width="2" />
<text x="610" y="135" font-size="12" fill="red">Resistance</text>

<!-- Support Line -->
<line x1="40" y1="170" x2="600" y2="170" stroke="green" stroke-width="2" />
<text x="610" y="175" font-size="12" fill="green">Support</text>

<!-- Downward Trendline -->
<line x1="40" y1="150" x2="600" y2="110" stroke="blue" stroke-width="2" />
<text x="610" y="115" font-size="12" fill="blue">Trendline</text>
</svg>