<svg width="800" height="300" xmlns="http://www.w3.org/2000/svg">
  <line x1="40" y1="250" x2="40" y2="50" stroke="black" stroke-width="2" />
  <line x1="35" y1="250.0" x2="40" y2="250.0" stroke="black" stroke-width="1" />
  <text x="10" y="255.0" font-size="10" fill="black">75</text>
  <line x1="40" y1="250.0" x2="780" y2="250.0" stroke="lightgray" stroke-width="1" stroke-dasharray="5,5" />
  <line x1="35" y1="210.0" x2="40" y2="210.0" stroke="black" stroke-width="1" />
  <text x="10" y="215.0" font-size="10" fill="black">85</text>
  <line x1="40" y1="210.0" x2="780" y2="210.0" stroke="lightgray" stroke-width="1" stroke-dasharray="5,5" />
  <line x1="35" y1="170.0" x2="40" y2="170.0" stroke="black" stroke-width="1" />
  <text x="10" y="175.0" font-size="10" fill="black">95</text>
  <line x1="40" y1="170.0" x2="780" y2="170.0" stroke="lightgray" stroke-width="1" stroke-dasharray="5,5" />
  <line x1="35" y1="130.0" x2="40" y2="130.0" stroke="black" stroke-width="1" />
  <text x="10" y="135.0" font-size="10" fill="black">105</text>
  <line x1="40" y1="130.0" x2="780" y2="130.0" stroke="lightgray" stroke-width="1" stroke-dasharray="5,5" />
  <line x1="35" y1="90.0" x2="40" y2="90.0" stroke="black" stroke-width="1" />
  <text x="10" y="95.0" font-size="10" fill="black">115</text>
  <line x1="40" y1="90.0" x2="780" y2="90.0" stroke="lightgray" stroke-width="1" stroke-dasharray="5,5" />
  <line x1="35" y1="50.0" x2="40" y2="50.0" stroke="black" stroke-width="1" />
  <text x="10" y="55.0" font-size="10" fill="black">125</text>
  <line x1="40" y1="50.0" x2="780" y2="50.0" stroke="lightgray" stroke-width="1" stroke-dasharray="5,5" />
  <line x1="58.27759197324415" y1="144.8466257668711" x2="58.27759197324415" y2="150.85889570552143" stroke="black" stroke-width="1" />
  <rect x="50.0" y="146.56441717791415" width="16.555183946488295" height="3.4355828220858484" fill="green" />
  <line x1="76.67224080267559" y1="143.00613496932516" x2="76.67224080267559" y2="150.1226993865031" stroke="black" stroke-width="1" />
  <rect x="68.39464882943145" y="146.1963190184049" width="16.555183946488295" height="3.9263803680981937" fill="red" />
  <line x1="95.06688963210702" y1="135.88957055214718" x2="95.06688963210702" y2="148.5276073619632" stroke="black" stroke-width="1" />
  <rect x="86.78929765886288" y="136.50306748466255" width="16.555183946488295" height="12.02453987730064" fill="green" />
  <line x1="113.46153846153845" y1="136.38036809815947" x2="113.46153846153845" y2="144.47852760736197" stroke="black" stroke-width="1" />
  <rect x="105.18394648829431" y="136.50306748466255" width="16.555183946488295" height="3.4355828220859053" fill="red" />
  <line x1="131.8561872909699" y1="134.29447852760734" x2="131.8561872909699" y2="139.44785276073617" stroke="black" stroke-width="1" />
  <rect x="123.57859531772576" y="134.66257668711654" width="16.555183946488295" height="4.294478527607339" fill="green" />
  <line x1="150.25083612040135" y1="134.66257668711654" x2="150.25083612040135" y2="139.81595092024543" stroke="black" stroke-width="1" />
  <rect x="141.9732441471572" y="134.66257668711654" width="16.555183946488295" height="1.8404907975460105" fill="red" />
  <line x1="168.64548494983276" y1="133.31288343558282" x2="168.64548494983276" y2="136.1349693251533" stroke="black" stroke-width="1" />
  <rect x="160.36789297658862" y="134.78527607361963" width="16.555183946488295" height="1" fill="red" />
  <line x1="187.0401337792642" y1="135.1533742331289" x2="187.0401337792642" y2="142.1472392638036" stroke="black" stroke-width="1" />
  <rect x="178.76254180602007" y="135.64417177914112" width="16.555183946488295" height="3.0674846625766463" fill="red" />
  <line x1="205.43478260869566" y1="135.88957055214718" x2="205.43478260869566" y2="139.32515337423314" stroke="black" stroke-width="1" />
  <rect x="197.1571906354515" y="138.71165644171776" width="16.555183946488295" height="1" fill="red" />
  <line x1="223.8294314381271" y1="134.5398773006135" x2="223.8294314381271" y2="139.5705521472392" stroke="black" stroke-width="1" />
  <rect x="215.55183946488296" y="137.11656441717787" width="16.555183946488295" height="1" fill="green" />
  <line x1="242.22408026755855" y1="135.88957055214718" x2="242.22408026755855" y2="142.1472392638036" stroke="black" stroke-width="1" />
  <rect x="233.9464882943144" y="135.88957055214718" width="16.555183946488295" height="1.2269938650306926" fill="green" />
  <line x1="260.61872909698997" y1="135.88957055214718" x2="260.61872909698997" y2="154.17177914110425" stroke="black" stroke-width="1" />
  <rect x="252.34113712374582" y="135.88957055214718" width="16.555183946488295" height="15.705521472392718" fill="red" />
  <line x1="279.0133779264214" y1="152.08588957055213" x2="279.0133779264214" y2="158.22085889570548" stroke="black" stroke-width="1" />
  <rect x="270.73578595317724" y="155.88957055214723" width="16.555183946488295" height="2.331288343558242" fill="red" />
  <line x1="297.4080267558529" y1="154.04907975460122" x2="297.4080267558529" y2="162.2699386503067" stroke="black" stroke-width="1" />
  <rect x="289.13043478260875" y="155.03067484662574" width="16.555183946488295" height="3.1901840490797326" fill="green" />
  <line x1="315.8026755852843" y1="153.68098159509202" x2="315.8026755852843" y2="162.6380368098159" stroke="black" stroke-width="1" />
  <rect x="307.52508361204013" y="155.03067484662574" width="16.555183946488295" height="7.484662576687128" fill="red" />
  <line x1="334.19732441471575" y1="157.97546012269936" x2="334.19732441471575" y2="161.41104294478527" stroke="black" stroke-width="1" />
  <rect x="325.9197324414716" y="159.20245398773" width="16.555183946488295" height="1.8404907975460674" fill="green" />
  <line x1="352.5919732441472" y1="155.64417177914106" x2="352.5919732441472" y2="160.67484662576686" stroke="black" stroke-width="1" />
  <rect x="344.314381270903" y="158.58895705521473" width="16.555183946488295" height="1.7177914110428674" fill="green" />
  <line x1="370.98662207357864" y1="151.2269938650307" x2="370.98662207357864" y2="162.6380368098159" stroke="black" stroke-width="1" />
  <rect x="362.7090301003345" y="158.58895705521473" width="16.555183946488295" height="3.0674846625766463" fill="red" />
  <line x1="389.3812709030101" y1="151.34969325153367" x2="389.3812709030101" y2="160.67484662576686" stroke="black" stroke-width="1" />
  <rect x="381.1036789297659" y="158.95705521472394" width="16.555183946488295" height="1" fill="green" />
  <line x1="407.77591973244154" y1="151.71779141104292" x2="407.77591973244154" y2="158.34355828220856" stroke="black" stroke-width="1" />
  <rect x="399.49832775919737" y="154.29447852760734" width="16.555183946488295" height="4.049079754601223" fill="green" />
  <line x1="426.170568561873" y1="151.96319018404904" x2="426.170568561873" y2="156.01226993865032" stroke="black" stroke-width="1" />
  <rect x="417.8929765886288" y="153.68098159509202" width="16.555183946488295" height="1.595092024539838" fill="red" />
  <line x1="444.5652173913044" y1="145.58282208588957" x2="444.5652173913044" y2="155.88957055214723" stroke="black" stroke-width="1" />
  <rect x="436.2876254180602" y="147.54601226993867" width="16.555183946488295" height="7.852760736196274" fill="green" />
  <line x1="462.9598662207358" y1="145.09202453987734" x2="462.9598662207358" y2="150.36809815950915" stroke="black" stroke-width="1" />
  <rect x="454.68227424749165" y="145.21472392638037" width="16.555183946488295" height="1" fill="green" />
  <line x1="481.35451505016727" y1="132.57668711656436" x2="481.35451505016727" y2="143.1288343558282" stroke="black" stroke-width="1" />
  <rect x="473.0769230769231" y="134.66257668711654" width="16.555183946488295" height="4.294478527607339" fill="green" />
  <line x1="499.7491638795987" y1="133.0674846625766" x2="499.7491638795987" y2="141.65644171779138" stroke="black" stroke-width="1" />
  <rect x="491.47157190635454" y="133.31288343558282" width="16.555183946488295" height="8.220858895705419" fill="red" />
  <line x1="518.1438127090302" y1="137.97546012269936" x2="518.1438127090302" y2="143.74233128834356" stroke="black" stroke-width="1" />
  <rect x="509.866220735786" y="138.46625766871165" width="16.555183946488295" height="2.0858895705520695" fill="green" />
  <line x1="536.5384615384617" y1="119.81595092024537" x2="536.5384615384617" y2="130.98159509202452" stroke="black" stroke-width="1" />
  <rect x="528.2608695652175" y="124.60122699386494" width="16.555183946488295" height="4.417177914110482" fill="green" />
  <line x1="554.933110367893" y1="119.9386503067484" x2="554.933110367893" y2="126.19631901840489" stroke="black" stroke-width="1" />
  <rect x="546.6555183946489" y="123.0061349693251" width="16.555183946488295" height="1" fill="green" />
  <line x1="573.3277591973244" y1="109.75460122699383" x2="573.3277591973244" y2="118.71165644171776" stroke="black" stroke-width="1" />
  <rect x="565.0501672240803" y="114.17177914110425" width="16.555183946488295" height="3.312883435582819" fill="green" />
  <line x1="591.7224080267559" y1="108.15950920245393" x2="591.7224080267559" y2="113.19018404907968" stroke="black" stroke-width="1" />
  <rect x="583.4448160535118" y="109.26380368098154" width="16.555183946488295" height="2.699386503067501" fill="green" />
</svg>