<svg width="800" height="300" xmlns="http://www.w3.org/2000/svg">
  <line x1="40" y1="250" x2="40" y2="50" stroke="black" stroke-width="2" />
  <line x1="35" y1="250.0" x2="40" y2="250.0" stroke="black" stroke-width="1" />
  <text x="10" y="255.0" font-size="10" fill="black">75</text>
  <line x1="40" y1="250.0" x2="780" y2="250.0" stroke="lightgray" stroke-width="1" stroke-dasharray="5,5" />
  <line x1="35" y1="210.0" x2="40" y2="210.0" stroke="black" stroke-width="1" />
  <text x="10" y="215.0" font-size="10" fill="black">85</text>
  <line x1="40" y1="210.0" x2="780" y2="210.0" stroke="lightgray" stroke-width="1" stroke-dasharray="5,5" />
  <line x1="35" y1="170.0" x2="40" y2="170.0" stroke="black" stroke-width="1" />
  <text x="10" y="175.0" font-size="10" fill="black">95</text>
  <line x1="40" y1="170.0" x2="780" y2="170.0" stroke="lightgray" stroke-width="1" stroke-dasharray="5,5" />
  <line x1="35" y1="130.0" x2="40" y2="130.0" stroke="black" stroke-width="1" />
  <text x="10" y="135.0" font-size="10" fill="black">105</text>
  <line x1="40" y1="130.0" x2="780" y2="130.0" stroke="lightgray" stroke-width="1" stroke-dasharray="5,5" />
  <line x1="35" y1="90.0" x2="40" y2="90.0" stroke="black" stroke-width="1" />
  <text x="10" y="95.0" font-size="10" fill="black">115</text>
  <line x1="40" y1="90.0" x2="780" y2="90.0" stroke="lightgray" stroke-width="1" stroke-dasharray="5,5" />
  <line x1="35" y1="50.0" x2="40" y2="50.0" stroke="black" stroke-width="1" />
  <text x="10" y="55.0" font-size="10" fill="black">125</text>
  <line x1="40" y1="50.0" x2="780" y2="50.0" stroke="lightgray" stroke-width="1" stroke-dasharray="5,5" />
  <line x1="58.27759197324415" y1="149.39717134245302" x2="58.27759197324415" y2="153.27869232552752" stroke="black" stroke-width="1" />
  <rect x="50.0" y="149.7681428240204" width="16.555183946488295" height="1" fill="green" />
  <line x1="76.67224080267559" y1="146.61488523069795" x2="76.67224080267559" y2="150.1854857407837" stroke="black" stroke-width="1" />
  <rect x="68.39464882943145" y="146.98585671226533" width="16.555183946488295" height="2.6895432413632534" fill="green" />
  <line x1="95.06688963210702" y1="141.86181312311612" x2="95.06688963210702" y2="150.0463714351959" stroke="black" stroke-width="1" />
  <rect x="86.78929765886288" y="142.27915603987952" width="16.555183946488295" height="5.379086482726564" fill="green" />
  <line x1="113.46153846153845" y1="140.03014143287737" x2="113.46153846153845" y2="145.12195687456534" stroke="black" stroke-width="1" />
  <rect x="105.18394648829431" y="142.07048458149785" width="16.555183946488295" height="1.6925573846509678" fill="red" />
  <line x1="131.8561872909699" y1="141.74588453512638" x2="131.8561872909699" y2="144.9455135636448" stroke="black" stroke-width="1" />
  <rect x="123.57859531772576" y="142.32552747507538" width="16.555183946488295" height="1" fill="red" />
  <line x1="150.25083612040135" y1="140.3547414792488" x2="150.25083612040135" y2="147.33364247623467" stroke="black" stroke-width="1" />
  <rect x="141.9732441471572" y="140.4706700672386" width="16.555183946488295" height="1.7621145374449725" fill="red" />
  <line x1="168.64548494983276" y1="139.9837699976814" x2="168.64548494983276" y2="142.55738465105497" stroke="black" stroke-width="1" />
  <rect x="160.36789297658862" y="141.18942731277536" width="16.555183946488295" height="1" fill="red" />
  <line x1="187.0401337792642" y1="139.89102712728965" x2="187.0401337792642" y2="145.36285648040808" stroke="black" stroke-width="1" />
  <rect x="178.76254180602007" y="141.2126130303733" width="16.555183946488295" height="2.3417574773939123" fill="red" />
  <line x1="205.43478260869566" y1="142.52677950382565" x2="205.43478260869566" y2="148.07558543936938" stroke="black" stroke-width="1" />
  <rect x="197.1571906354515" y="142.97472756781826" width="16.555183946488295" height="3.7792719684674694" fill="red" />
  <line x1="223.8294314381271" y1="146.6612566658938" x2="223.8294314381271" y2="151.41432877347557" stroke="black" stroke-width="1" />
  <rect x="215.55183946488296" y="147.12497101785306" width="16.555183946488295" height="3.8720148388592293" fill="red" />
  <line x1="242.22408026755855" y1="147.5886853698122" x2="242.22408026755855" y2="152.9445861349409" stroke="black" stroke-width="1" />
  <rect x="233.9464882943144" y="149.16531416647342" width="16.555183946488295" height="1.9012288430327544" fill="green" />
  <line x1="260.61872909698997" y1="137.54926964989573" x2="260.61872909698997" y2="151.48388592626947" stroke="black" stroke-width="1" />
  <rect x="252.34113712374582" y="138.36076976582427" width="16.555183946488295" height="11.9638302805472" fill="green" />
  <line x1="279.0133779264214" y1="133.46858335265478" x2="279.0133779264214" y2="141.25898446556926" stroke="black" stroke-width="1" />
  <rect x="270.73578595317724" y="136.0885694412242" width="16.555183946488295" height="1.437514491073557" fill="green" />
  <line x1="297.4080267558529" y1="133.28309761187114" x2="297.4080267558529" y2="138.40714120102018" stroke="black" stroke-width="1" />
  <rect x="289.13043478260875" y="134.28008346858337" width="16.555183946488295" height="1.3215859030837578" fill="green" />
  <line x1="315.8026755852843" y1="135.94945513563647" x2="315.8026755852843" y2="139.61279851611408" stroke="black" stroke-width="1" />
  <rect x="307.52508361204013" y="138.59262694180387" width="16.555183946488295" height="1" fill="red" />
  <line x1="334.19732441471575" y1="135.4625550660794" x2="334.19732441471575" y2="142.26756318108056" stroke="black" stroke-width="1" />
  <rect x="325.9197324414716" y="136.85369812195694" width="16.555183946488295" height="2.643171806167345" fill="green" />
  <line x1="352.5919732441472" y1="134.74379782054262" x2="352.5919732441472" y2="138.12891258984467" stroke="black" stroke-width="1" />
  <rect x="344.314381270903" y="135.7871551124507" width="16.555183946488295" height="1.9476002782286628" fill="red" />
  <line x1="370.98662207357864" y1="137.8738696962671" x2="370.98662207357864" y2="145.58312079758872" stroke="black" stroke-width="1" />
  <rect x="362.7090301003345" y="138.59262694180387" width="16.555183946488295" height="3.8488291212613035" fill="red" />
  <line x1="389.3812709030101" y1="138.01298400185493" x2="389.3812709030101" y2="146.68444238349184" stroke="black" stroke-width="1" />
  <rect x="381.1036789297659" y="139.0331555761651" width="16.555183946488295" height="3.408300486900089" fill="green" />
  <line x1="407.77591973244154" y1="137.3869696267099" x2="407.77591973244154" y2="141.08509158358453" stroke="black" stroke-width="1" />
  <rect x="399.49832775919737" y="138.5810340830049" width="16.555183946488295" height="1" fill="red" />
  <line x1="426.170568561873" y1="133.99026199860884" x2="426.170568561873" y2="141.11987015998153" stroke="black" stroke-width="1" />
  <rect x="417.8929765886288" y="134.97565499652222" width="16.555183946488295" height="4.150243450034679" fill="red" />
  <line x1="444.5652173913044" y1="137.08555529793654" x2="444.5652173913044" y2="141.23579874797122" stroke="black" stroke-width="1" />
  <rect x="436.2876254180602" y="139.61279851611408" width="16.555183946488295" height="1" fill="red" />
  <line x1="462.9598662207358" y1="137.15511245073031" x2="462.9598662207358" y2="145.57152793878976" stroke="black" stroke-width="1" />
  <rect x="454.68227424749165" y="139.93739856248555" width="16.555183946488295" height="3.825643403663264" fill="red" />
  <line x1="481.35451505016727" y1="141.4212844887549" x2="481.35451505016727" y2="146.2207280315326" stroke="black" stroke-width="1" />
  <rect x="473.0769230769231" y="142.51101321585907" width="16.555183946488295" height="2.5272432181776026" fill="red" />
  <line x1="499.7491638795987" y1="147.10178530025502" x2="499.7491638795987" y2="155.33271504753077" stroke="black" stroke-width="1" />
  <rect x="491.47157190635454" y="149.8840714120102" width="16.555183946488295" height="3.2228147461163985" fill="red" />
  <line x1="518.1438127090302" y1="146.70762810108977" x2="518.1438127090302" y2="154.16183630883376" stroke="black" stroke-width="1" />
  <rect x="509.866220735786" y="150.95061442151632" width="16.555183946488295" height="2.8750289821470005" fill="green" />
  <line x1="536.5384615384617" y1="152.13308601901235" x2="536.5384615384617" y2="157.0020867145838" stroke="black" stroke-width="1" />
  <rect x="528.2608695652175" y="153.5474147924878" width="16.555183946488295" height="2.480871782981751" fill="red" />
  <line x1="554.933110367893" y1="154.069093438442" x2="554.933110367893" y2="158.7124971017853" stroke="black" stroke-width="1" />
  <rect x="546.6555183946489" y="154.91537213076742" width="16.555183946488295" height="2.3185717597960434" fill="red" />
  <line x1="573.3277591973244" y1="153.5242290748899" x2="573.3277591973244" y2="158.9033155576165" stroke="black" stroke-width="1" />
  <rect x="565.0501672240803" y="156.5615580802226" width="16.555183946488295" height="1.0897287271041023" fill="green" />
  <line x1="591.7224080267559" y1="152.02875028982146" x2="591.7224080267559" y2="156.58474379782052" stroke="black" stroke-width="1" />
  <rect x="583.4448160535118" y="155.84280083468582" width="16.555183946488295" height="1" fill="green" />
</svg>