<svg width="800" height="300" xmlns="http://www.w3.org/2000/svg">
  <line x1="40" y1="250" x2="40" y2="50" stroke="black" stroke-width="2" />
  <line x1="35" y1="250.0" x2="40" y2="250.0" stroke="black" stroke-width="1" />
  <text x="10" y="255.0" font-size="10" fill="black">75</text>
  <line x1="40" y1="250.0" x2="780" y2="250.0" stroke="lightgray" stroke-width="1" stroke-dasharray="5,5" />
  <line x1="35" y1="210.0" x2="40" y2="210.0" stroke="black" stroke-width="1" />
  <text x="10" y="215.0" font-size="10" fill="black">85</text>
  <line x1="40" y1="210.0" x2="780" y2="210.0" stroke="lightgray" stroke-width="1" stroke-dasharray="5,5" />
  <line x1="35" y1="170.0" x2="40" y2="170.0" stroke="black" stroke-width="1" />
  <text x="10" y="175.0" font-size="10" fill="black">95</text>
  <line x1="40" y1="170.0" x2="780" y2="170.0" stroke="lightgray" stroke-width="1" stroke-dasharray="5,5" />
  <line x1="35" y1="130.0" x2="40" y2="130.0" stroke="black" stroke-width="1" />
  <text x="10" y="135.0" font-size="10" fill="black">105</text>
  <line x1="40" y1="130.0" x2="780" y2="130.0" stroke="lightgray" stroke-width="1" stroke-dasharray="5,5" />
  <line x1="35" y1="90.0" x2="40" y2="90.0" stroke="black" stroke-width="1" />
  <text x="10" y="95.0" font-size="10" fill="black">115</text>
  <line x1="40" y1="90.0" x2="780" y2="90.0" stroke="lightgray" stroke-width="1" stroke-dasharray="5,5" />
  <line x1="35" y1="50.0" x2="40" y2="50.0" stroke="black" stroke-width="1" />
  <text x="10" y="55.0" font-size="10" fill="black">125</text>
  <line x1="40" y1="50.0" x2="780" y2="50.0" stroke="lightgray" stroke-width="1" stroke-dasharray="5,5" />
  <line x1="58.27759197324415" y1="148.73674174711005" x2="58.27759197324415" y2="152.43117626027885" stroke="black" stroke-width="1" />
  <rect x="50.0" y="149.83315457037304" width="16.555183946488295" height="1" fill="green" />
  <line x1="76.67224080267559" y1="146.62733881539742" x2="76.67224080267559" y2="149.16577285186509" stroke="black" stroke-width="1" />
  <rect x="68.39464882943145" y="148.56989631748309" width="16.555183946488295" height="1" fill="green" />
  <line x1="95.06688963210702" y1="143.46919318317248" x2="95.06688963210702" y2="149.30878322011677" stroke="black" stroke-width="1" />
  <rect x="86.78929765886288" y="143.82671910380174" width="16.555183946488295" height="3.908950065546321" fill="green" />
  <line x1="113.46153846153845" y1="140.29913002025978" x2="113.46153846153845" y2="145.7573590751996" stroke="black" stroke-width="1" />
  <rect x="105.18394648829431" y="144.3510904540579" width="16.555183946488295" height="1" fill="red" />
  <line x1="131.8561872909699" y1="141.84840900965315" x2="131.8561872909699" y2="146.8537718984627" stroke="black" stroke-width="1" />
  <rect x="123.57859531772576" y="142.7064712191634" width="16.555183946488295" height="1.7399594803955551" fill="red" />
  <line x1="150.25083612040135" y1="144.54177094506014" x2="150.25083612040135" y2="148.9750923608628" stroke="black" stroke-width="1" />
  <rect x="141.9732441471572" y="144.68478131331182" width="16.555183946488295" height="2.097485401024983" fill="red" />
  <line x1="168.64548494983276" y1="142.49195566678583" x2="168.64548494983276" y2="147.9144321296627" stroke="black" stroke-width="1" />
  <rect x="160.36789297658862" y="143.96972947205342" width="16.555183946488295" height="3.944702657609298" fill="green" />
  <line x1="187.0401337792642" y1="142.18209986890713" x2="187.0401337792642" y2="146.99678226671426" stroke="black" stroke-width="1" />
  <rect x="178.76254180602007" y="142.82564652603975" width="16.555183946488295" height="3.7659396972947548" fill="red" />
  <line x1="205.43478260869566" y1="141.9437492551544" x2="205.43478260869566" y2="148.1885353354785" stroke="black" stroke-width="1" />
  <rect x="197.1571906354515" y="146.18639017995474" width="16.555183946488295" height="1" fill="red" />
  <line x1="223.8294314381271" y1="143.3738529376713" x2="223.8294314381271" y2="147.3304731259683" stroke="black" stroke-width="1" />
  <rect x="215.55183946488296" y="144.73245143606243" width="16.555183946488295" height="1" fill="green" />
  <line x1="242.22408026755855" y1="140.32296508163506" x2="242.22408026755855" y2="145.54284352282207" stroke="black" stroke-width="1" />
  <rect x="233.9464882943144" y="141.1333571683947" width="16.555183946488295" height="3.2892384697890975" fill="green" />
  <line x1="260.61872909698997" y1="132.88642593254679" x2="260.61872909698997" y2="142.4442855440352" stroke="black" stroke-width="1" />
  <rect x="252.34113712374582" y="134.03050887856034" width="16.555183946488295" height="8.318436419973807" fill="green" />
  <line x1="279.0133779264214" y1="130.50291979501844" x2="279.0133779264214" y2="136.15182934096055" stroke="black" stroke-width="1" />
  <rect x="270.73578595317724" y="130.7412704087713" width="16.555183946488295" height="5.410558932189247" fill="green" />
  <line x1="297.4080267558529" y1="129.19199141937787" x2="297.4080267558529" y2="133.67298295793108" stroke="black" stroke-width="1" />
  <rect x="289.13043478260875" y="130.52675485639372" width="16.555183946488295" height="1.2394231915146747" fill="red" />
  <line x1="315.8026755852843" y1="128.02407341198904" x2="315.8026755852843" y2="132.07603384578715" stroke="black" stroke-width="1" />
  <rect x="307.52508361204013" y="131.07496126802528" width="16.555183946488295" height="1" fill="red" />
  <line x1="334.19732441471575" y1="128.5007746394947" x2="334.19732441471575" y2="133.69681801930636" stroke="black" stroke-width="1" />
  <rect x="325.9197324414716" y="130.35990942676676" width="16.555183946488295" height="1.2394231915147316" fill="green" />
  <line x1="352.5919732441472" y1="125.8789178882136" x2="352.5919732441472" y2="130.71743534739602" stroke="black" stroke-width="1" />
  <rect x="344.314381270903" y="126.23644380884286" width="16.555183946488295" height="4.480991538553155" fill="green" />
  <line x1="370.98662207357864" y1="128.11941365749016" x2="370.98662207357864" y2="136.15182934096055" stroke="black" stroke-width="1" />
  <rect x="362.7090301003345" y="129.07281611250153" width="16.555183946488295" height="6.387796448575841" fill="red" />
  <line x1="389.3812709030101" y1="133.81337146943156" x2="389.3812709030101" y2="138.9882016446192" stroke="black" stroke-width="1" />
  <rect x="381.1036789297659" y="135.50828268382793" width="16.555183946488295" height="1.0249076391370977" fill="red" />
  <line x1="407.77591973244154" y1="133.98283875580984" x2="407.77591973244154" y2="138.13013943510902" stroke="black" stroke-width="1" />
  <rect x="399.49832775919737" y="135.07925157907277" width="16.555183946488295" height="1.6922893576451088" fill="green" />
  <line x1="426.170568561873" y1="127.38052675485642" x2="426.170568561873" y2="134.50721010606605" stroke="black" stroke-width="1" />
  <rect x="417.8929765886288" y="127.54737218448338" width="16.555183946488295" height="6.030270527946584" fill="green" />
  <line x1="444.5652173913044" y1="128.190918841616" x2="444.5652173913044" y2="132.02836372303653" stroke="black" stroke-width="1" />
  <rect x="436.2876254180602" y="129.01322845906327" width="16.555183946488295" height="1.7757120724586457" fill="red" />
  <line x1="462.9598662207358" y1="130.7412704087713" x2="462.9598662207358" y2="138.67834584674057" stroke="black" stroke-width="1" />
  <rect x="454.68227424749165" y="132.76725062567027" width="16.555183946488295" height="2.693361935407097" fill="red" />
  <line x1="481.35451505016727" y1="137.27207722559882" x2="481.35451505016727" y2="143.89822428792752" stroke="black" stroke-width="1" />
  <rect x="473.0769230769231" y="137.93945894410678" width="16.555183946488295" height="3.1938982242879206" fill="red" />
  <line x1="499.7491638795987" y1="133.98283875580984" x2="499.7491638795987" y2="141.22869741389582" stroke="black" stroke-width="1" />
  <rect x="491.47157190635454" y="134.74556071981885" width="16.555183946488295" height="6.459301632701681" fill="green" />
  <line x1="518.1438127090302" y1="132.44547729710405" x2="518.1438127090302" y2="138.6304373733762" stroke="black" stroke-width="1" />
  <rect x="509.866220735786" y="135.2460970086998" width="16.555183946488295" height="1" fill="red" />
  <line x1="536.5384615384617" y1="134.0781790013109" x2="536.5384615384617" y2="138.5710880705518" stroke="black" stroke-width="1" />
  <rect x="528.2608695652175" y="137.08139673459652" width="16.555183946488295" height="1" fill="green" />
  <line x1="554.933110367893" y1="133.64914789655586" x2="554.933110367893" y2="139.8939339768799" stroke="black" stroke-width="1" />
  <rect x="546.6555183946489" y="135.1030866404481" width="16.555183946488295" height="4.314146108926252" fill="red" />
  <line x1="573.3277591973244" y1="133.81599332618282" x2="573.3277591973244" y2="141.5623882731498" stroke="black" stroke-width="1" />
  <rect x="565.0501672240803" y="137.15290191872242" width="16.555183946488295" height="4.075795495173395" fill="green" />
  <line x1="591.7224080267559" y1="134.20927183887494" x2="591.7224080267559" y2="138.65451078536523" stroke="black" stroke-width="1" />
  <rect x="583.4448160535118" y="136.34250983196273" width="16.555183946488295" height="1.2870933142653485" fill="green" />
</svg>