<svg width="800" height="300" xmlns="http://www.w3.org/2000/svg">
  <line x1="40" y1="250" x2="40" y2="50" stroke="black" stroke-width="2" />
  <line x1="35" y1="250.0" x2="40" y2="250.0" stroke="black" stroke-width="1" />
  <text x="10" y="255.0" font-size="10" fill="black">75</text>
  <line x1="40" y1="250.0" x2="780" y2="250.0" stroke="lightgray" stroke-width="1" stroke-dasharray="5,5" />
  <line x1="35" y1="210.0" x2="40" y2="210.0" stroke="black" stroke-width="1" />
  <text x="10" y="215.0" font-size="10" fill="black">85</text>
  <line x1="40" y1="210.0" x2="780" y2="210.0" stroke="lightgray" stroke-width="1" stroke-dasharray="5,5" />
  <line x1="35" y1="170.0" x2="40" y2="170.0" stroke="black" stroke-width="1" />
  <text x="10" y="175.0" font-size="10" fill="black">95</text>
  <line x1="40" y1="170.0" x2="780" y2="170.0" stroke="lightgray" stroke-width="1" stroke-dasharray="5,5" />
  <line x1="35" y1="130.0" x2="40" y2="130.0" stroke="black" stroke-width="1" />
  <text x="10" y="135.0" font-size="10" fill="black">105</text>
  <line x1="40" y1="130.0" x2="780" y2="130.0" stroke="lightgray" stroke-width="1" stroke-dasharray="5,5" />
  <line x1="35" y1="90.0" x2="40" y2="90.0" stroke="black" stroke-width="1" />
  <text x="10" y="95.0" font-size="10" fill="black">115</text>
  <line x1="40" y1="90.0" x2="780" y2="90.0" stroke="lightgray" stroke-width="1" stroke-dasharray="5,5" />
  <line x1="35" y1="50.0" x2="40" y2="50.0" stroke="black" stroke-width="1" />
  <text x="10" y="55.0" font-size="10" fill="black">125</text>
  <line x1="40" y1="50.0" x2="780" y2="50.0" stroke="lightgray" stroke-width="1" stroke-dasharray="5,5" />
  <line x1="58.27759197324415" y1="141.11592632719396" x2="58.27759197324415" y2="150.21668472372698" stroke="black" stroke-width="1" />
  <rect x="50.0" y="143.9328277356446" width="16.555183946488295" height="6.067172264355406" fill="green" />
  <line x1="76.67224080267559" y1="139.1657638136511" x2="76.67224080267559" y2="143.49945828819068" stroke="black" stroke-width="1" />
  <rect x="68.39464882943145" y="141.33261105092095" width="16.555183946488295" height="1.3001083423617956" fill="green" />
  <line x1="95.06688963210702" y1="138.94907908992417" x2="95.06688963210702" y2="144.36619718309862" stroke="black" stroke-width="1" />
  <rect x="86.78929765886288" y="139.1657638136511" width="16.555183946488295" height="1.3001083423619093" fill="green" />
  <line x1="113.46153846153845" y1="138.2990249187432" x2="113.46153846153845" y2="143.71614301191767" stroke="black" stroke-width="1" />
  <rect x="105.18394648829431" y="139.1657638136511" width="16.555183946488295" height="2.6002166847237618" fill="red" />
  <line x1="131.8561872909699" y1="139.38244853737808" x2="131.8561872909699" y2="149.78331527627302" stroke="black" stroke-width="1" />
  <rect x="123.57859531772576" y="139.599133261105" width="16.555183946488295" height="4.767063921993611" fill="green" />
  <line x1="150.25083612040135" y1="139.38244853737808" x2="150.25083612040135" y2="144.58288190682555" stroke="black" stroke-width="1" />
  <rect x="141.9732441471572" y="139.599133261105" width="16.555183946488295" height="3.0335861321777315" fill="red" />
  <line x1="168.64548494983276" y1="140.24918743228596" x2="168.64548494983276" y2="142.63271939328274" stroke="black" stroke-width="1" />
  <rect x="160.36789297658862" y="140.89924160346692" width="16.555183946488295" height="1.5167930660888942" fill="green" />
  <line x1="187.0401337792642" y1="137.8656554712893" x2="187.0401337792642" y2="142.4160346695558" stroke="black" stroke-width="1" />
  <rect x="178.76254180602007" y="141.76598049837486" width="16.555183946488295" height="1" fill="red" />
  <line x1="205.43478260869566" y1="139.38244853737808" x2="205.43478260869566" y2="143.49945828819068" stroke="black" stroke-width="1" />
  <rect x="197.1571906354515" y="140.68255687974" width="16.555183946488295" height="2.81690140845069" fill="green" />
  <line x1="223.8294314381271" y1="136.13217768147348" x2="223.8294314381271" y2="144.79956663055253" stroke="black" stroke-width="1" />
  <rect x="215.55183946488296" y="136.13217768147348" width="16.555183946488295" height="5.63380281690138" fill="green" />
  <line x1="242.22408026755855" y1="128.9815817984832" x2="242.22408026755855" y2="138.51570964247014" stroke="black" stroke-width="1" />
  <rect x="233.9464882943144" y="131.5817984832069" width="16.555183946488295" height="1.0834236186348676" fill="red" />
  <line x1="260.61872909698997" y1="133.9653304442037" x2="260.61872909698997" y2="152.1668472372698" stroke="black" stroke-width="1" />
  <rect x="252.34113712374582" y="136.78223185265443" width="16.555183946488295" height="14.734561213434404" fill="red" />
  <line x1="279.0133779264214" y1="154.7670639219935" x2="279.0133779264214" y2="164.51787648970748" stroke="black" stroke-width="1" />
  <rect x="270.73578595317724" y="155.41711809317445" width="16.555183946488295" height="4.550379198266455" fill="green" />
  <line x1="297.4080267558529" y1="154.98374864572042" x2="297.4080267558529" y2="161.26760563380282" stroke="black" stroke-width="1" />
  <rect x="289.13043478260875" y="155.41711809317445" width="16.555183946488295" height="4.333694474539527" fill="red" />
  <line x1="315.8026755852843" y1="153.03358613217767" x2="315.8026755852843" y2="165.81798483206927" stroke="black" stroke-width="1" />
  <rect x="307.52508361204013" y="159.75081256771398" width="16.555183946488295" height="5.63380281690138" fill="red" />
  <line x1="334.19732441471575" y1="158.45070422535213" x2="334.19732441471575" y2="165.81798483206927" stroke="black" stroke-width="1" />
  <rect x="325.9197324414716" y="163.65113759479954" width="16.555183946488295" height="1.7334777898158222" fill="green" />
  <line x1="352.5919732441472" y1="157.5839653304442" x2="352.5919732441472" y2="165.60130010834234" stroke="black" stroke-width="1" />
  <rect x="344.314381270903" y="157.80065005417117" width="16.555183946488295" height="4.76706392199344" fill="red" />
  <line x1="370.98662207357864" y1="159.75081256771398" x2="370.98662207357864" y2="168.2015167930661" stroke="black" stroke-width="1" />
  <rect x="362.7090301003345" y="162.5677139761646" width="16.555183946488295" height="3.683640303358686" fill="red" />
  <line x1="389.3812709030101" y1="159.534127843987" x2="389.3812709030101" y2="167.55146262188515" stroke="black" stroke-width="1" />
  <rect x="381.1036789297659" y="161.7009750812568" width="16.555183946488295" height="1.9501625135427503" fill="red" />
  <line x1="407.77591973244154" y1="159.9674972914409" x2="407.77591973244154" y2="170.36836403033584" stroke="black" stroke-width="1" />
  <rect x="399.49832775919737" y="161.05092091007583" width="16.555183946488295" height="7.800650054171172" fill="red" />
  <line x1="426.170568561873" y1="167.33477789815817" x2="426.170568561873" y2="177.30227518959913" stroke="black" stroke-width="1" />
  <rect x="417.8929765886288" y="168.2015167930661" width="16.555183946488295" height="7.583965330444187" fill="red" />
  <line x1="444.5652173913044" y1="165.81798483206927" x2="444.5652173913044" y2="174.05200433369447" stroke="black" stroke-width="1" />
  <rect x="436.2876254180602" y="169.71830985915489" width="16.555183946488295" height="4.333694474539584" fill="green" />
  <line x1="462.9598662207358" y1="169.93499458288193" x2="462.9598662207358" y2="174.70205850487542" stroke="black" stroke-width="1" />
  <rect x="454.68227424749165" y="169.93499458288193" width="16.555183946488295" height="3.6836403033585725" fill="red" />
  <line x1="481.35451505016727" y1="151.73347778981577" x2="481.35451505016727" y2="169.50162513542796" stroke="black" stroke-width="1" />
  <rect x="473.0769230769231" y="153.68364030335857" width="16.555183946488295" height="13.001083423618638" fill="green" />
  <line x1="499.7491638795987" y1="150.4333694474539" x2="499.7491638795987" y2="162.35102925243768" stroke="black" stroke-width="1" />
  <rect x="491.47157190635454" y="153.68364030335857" width="16.555183946488295" height="6.283856988082334" fill="red" />
  <line x1="518.1438127090302" y1="156.0671722643553" x2="518.1438127090302" y2="161.91765980498377" stroke="black" stroke-width="1" />
  <rect x="509.866220735786" y="159.9674972914409" width="16.555183946488295" height="1" fill="red" />
  <line x1="536.5384615384617" y1="154.33369447453953" x2="536.5384615384617" y2="166.2513542795233" stroke="black" stroke-width="1" />
  <rect x="528.2608695652175" y="154.33369447453953" width="16.555183946488295" height="10.400866738894877" fill="red" />
  <line x1="554.933110367893" y1="158.6673889490791" x2="554.933110367893" y2="168.63488624052002" stroke="black" stroke-width="1" />
  <rect x="546.6555183946489" y="158.6673889490791" width="16.555183946488295" height="9.534127843986994" fill="green" />
  <line x1="573.3277591973244" y1="144.79956663055253" x2="573.3277591973244" y2="153.4669555796316" stroke="black" stroke-width="1" />
  <rect x="565.0501672240803" y="147.83315276273026" width="16.555183946488295" height="5.633802816901323" fill="green" />
  <line x1="591.7224080267559" y1="145.4496208017335" x2="591.7224080267559" y2="152.6002166847237" stroke="black" stroke-width="1" />
  <rect x="583.4448160535118" y="150.86673889490794" width="16.555183946488295" height="1" fill="red" />
</svg>