<svg width="800" height="300" xmlns="http://www.w3.org/2000/svg">
  <line x1="40" y1="250" x2="40" y2="50" stroke="black" stroke-width="2" />
  <line x1="35" y1="250.0" x2="40" y2="250.0" stroke="black" stroke-width="1" />
  <text x="10" y="255.0" font-size="10" fill="black">75</text>
  <line x1="40" y1="250.0" x2="780" y2="250.0" stroke="lightgray" stroke-width="1" stroke-dasharray="5,5" />
  <line x1="35" y1="210.0" x2="40" y2="210.0" stroke="black" stroke-width="1" />
  <text x="10" y="215.0" font-size="10" fill="black">85</text>
  <line x1="40" y1="210.0" x2="780" y2="210.0" stroke="lightgray" stroke-width="1" stroke-dasharray="5,5" />
  <line x1="35" y1="170.0" x2="40" y2="170.0" stroke="black" stroke-width="1" />
  <text x="10" y="175.0" font-size="10" fill="black">95</text>
  <line x1="40" y1="170.0" x2="780" y2="170.0" stroke="lightgray" stroke-width="1" stroke-dasharray="5,5" />
  <line x1="35" y1="130.0" x2="40" y2="130.0" stroke="black" stroke-width="1" />
  <text x="10" y="135.0" font-size="10" fill="black">105</text>
  <line x1="40" y1="130.0" x2="780" y2="130.0" stroke="lightgray" stroke-width="1" stroke-dasharray="5,5" />
  <line x1="35" y1="90.0" x2="40" y2="90.0" stroke="black" stroke-width="1" />
  <text x="10" y="95.0" font-size="10" fill="black">115</text>
  <line x1="40" y1="90.0" x2="780" y2="90.0" stroke="lightgray" stroke-width="1" stroke-dasharray="5,5" />
  <line x1="35" y1="50.0" x2="40" y2="50.0" stroke="black" stroke-width="1" />
  <text x="10" y="55.0" font-size="10" fill="black">125</text>
  <line x1="40" y1="50.0" x2="780" y2="50.0" stroke="lightgray" stroke-width="1" stroke-dasharray="5,5" />
  <line x1="58.27759197324415" y1="147.17287488061118" x2="58.27759197324415" y2="153.16332378223495" stroke="black" stroke-width="1" />
  <rect x="50.0" y="148.2273161413562" width="16.555183946488295" height="1.772683858643802" fill="green" />
  <line x1="76.67224080267559" y1="144.43744030563516" x2="76.67224080267559" y2="150.18338108882523" stroke="black" stroke-width="1" />
  <rect x="68.39464882943145" y="144.45272206303724" width="16.555183946488295" height="3.484240687679062" fill="green" />
  <line x1="95.06688963210702" y1="144.26934097421207" x2="95.06688963210702" y2="151.10028653295132" stroke="black" stroke-width="1" />
  <rect x="86.78929765886288" y="145.10983763132765" width="16.555183946488295" height="4.752626552053471" fill="red" />
  <line x1="113.46153846153845" y1="149.40401146131802" x2="113.46153846153845" y2="153.92741165234003" stroke="black" stroke-width="1" />
  <rect x="105.18394648829431" y="150.99331423113654" width="16.555183946488295" height="1" fill="red" />
  <line x1="131.8561872909699" y1="147.69245463228276" x2="131.8561872909699" y2="156.84622731614138" stroke="black" stroke-width="1" />
  <rect x="123.57859531772576" y="150.38204393505254" width="16.555183946488295" height="4.446991404011499" fill="red" />
  <line x1="150.25083612040135" y1="144.116523400191" x2="150.25083612040135" y2="151.60458452722065" stroke="black" stroke-width="1" />
  <rect x="141.9732441471572" y="146.56160458452723" width="16.555183946488295" height="3.0716332378223683" fill="green" />
  <line x1="168.64548494983276" y1="141.51862464183375" x2="168.64548494983276" y2="147.72301814708692" stroke="black" stroke-width="1" />
  <rect x="160.36789297658862" y="144.6055396370583" width="16.555183946488295" height="2.047755491881503" fill="green" />
  <line x1="187.0401337792642" y1="145.8586437440306" x2="187.0401337792642" y2="153.59121298949378" stroke="black" stroke-width="1" />
  <rect x="178.76254180602007" y="146.25596943648526" width="16.555183946488295" height="6.953199617956045" fill="green" />
  <line x1="205.43478260869566" y1="144.75835721107921" x2="205.43478260869566" y2="156.70869149952244" stroke="black" stroke-width="1" />
  <rect x="197.1571906354515" y="149.8777459407832" width="16.555183946488295" height="4.477554918815713" fill="red" />
  <line x1="223.8294314381271" y1="134.41260744985675" x2="223.8294314381271" y2="158.35912129894945" stroke="black" stroke-width="1" />
  <rect x="215.55183946488296" y="135.84909264565425" width="16.555183946488295" height="21.394460362941743" fill="red" />
  <line x1="242.22408026755855" y1="154.00382043935053" x2="242.22408026755855" y2="166.42788920725883" stroke="black" stroke-width="1" />
  <rect x="233.9464882943144" y="156.58643744030564" width="16.555183946488295" height="6.93791786055391" fill="red" />
  <line x1="260.61872909698997" y1="162.31709646609363" x2="260.61872909698997" y2="173.09073543457498" stroke="black" stroke-width="1" />
  <rect x="252.34113712374582" y="163.95224450811844" width="16.555183946488295" height="6.968481375358124" fill="red" />
  <line x1="279.0133779264214" y1="168.75071633237826" x2="279.0133779264214" y2="175.35243553008593" stroke="black" stroke-width="1" />
  <rect x="270.73578595317724" y="171.5014326647564" width="16.555183946488295" height="1.8490926456543093" fill="green" />
  <line x1="297.4080267558529" y1="170.24848137535815" x2="297.4080267558529" y2="175.59694364851958" stroke="black" stroke-width="1" />
  <rect x="289.13043478260875" y="173.88538681948427" width="16.555183946488295" height="1" fill="green" />
  <line x1="315.8026755852843" y1="167.95606494746897" x2="315.8026755852843" y2="181.0370964660936" stroke="black" stroke-width="1" />
  <rect x="307.52508361204013" y="171.40974212034382" width="16.555183946488295" height="5.7612225405922" fill="red" />
  <line x1="334.19732441471575" y1="168.93409742120343" x2="334.19732441471575" y2="175.94842406876785" stroke="black" stroke-width="1" />
  <rect x="325.9197324414716" y="173.30468003820442" width="16.555183946488295" height="1.130850047755473" fill="red" />
  <line x1="352.5919732441472" y1="172.02101241642788" x2="352.5919732441472" y2="178.17803247373445" stroke="black" stroke-width="1" />
  <rect x="344.314381270903" y="172.34192932187204" width="16.555183946488295" height="1.482330468003795" fill="red" />
  <line x1="370.98662207357864" y1="167.92550143266476" x2="370.98662207357864" y2="180.159923591213" stroke="black" stroke-width="1" />
  <rect x="362.7090301003345" y="168.61318051575932" width="16.555183946488295" height="7.274116523400153" fill="green" />
  <line x1="389.3812709030101" y1="161.62941738299907" x2="389.3812709030101" y2="168.61318051575932" stroke="black" stroke-width="1" />
  <rect x="381.1036789297659" y="162.80611270296083" width="16.555183946488295" height="3.0257879656160753" fill="green" />
  <line x1="407.77591973244154" y1="157.5186246418338" x2="407.77591973244154" y2="164.2196752626552" stroke="black" stroke-width="1" />
  <rect x="399.49832775919737" y="160.97230181470871" width="16.555183946488295" height="3.1021967526265257" fill="green" />
  <line x1="426.170568561873" y1="156.02101241642788" x2="426.170568561873" y2="160.97230181470871" stroke="black" stroke-width="1" />
  <rect x="417.8929765886288" y="157.39637058261695" width="16.555183946488295" height="3.5759312320917616" fill="green" />
  <line x1="444.5652173913044" y1="153.63705826170013" x2="444.5652173913044" y2="160.68194842406876" stroke="black" stroke-width="1" />
  <rect x="436.2876254180602" y="154.6303724928366" width="16.555183946488295" height="5.3944603629418" fill="red" />
  <line x1="462.9598662207358" y1="158.603629417383" x2="462.9598662207358" y2="166.48901623686726" stroke="black" stroke-width="1" />
  <rect x="454.68227424749165" y="158.78701050620822" width="16.555183946488295" height="5.455587392550115" fill="red" />
  <line x1="481.35451505016727" y1="138.09551098376306" x2="481.35451505016727" y2="155.65425023877742" stroke="black" stroke-width="1" />
  <rect x="473.0769230769231" y="143.52053486150902" width="16.555183946488295" height="8.05348615090736" fill="green" />
  <line x1="499.7491638795987" y1="136.90353390639922" x2="499.7491638795987" y2="150.65711556829035" stroke="black" stroke-width="1" />
  <rect x="491.47157190635454" y="142.28271251193883" width="16.555183946488295" height="1.2072588347660371" fill="green" />
  <line x1="518.1438127090302" y1="140.35721107927407" x2="518.1438127090302" y2="149.251193887297" stroke="black" stroke-width="1" />
  <rect x="509.866220735786" y="141.59503342884426" width="16.555183946488295" height="4.64565425023892" fill="red" />
  <line x1="536.5384615384617" y1="133.63323782234954" x2="536.5384615384617" y2="143.06208213944603" stroke="black" stroke-width="1" />
  <rect x="528.2608695652175" y="136.720152817574" width="16.555183946488295" height="1" fill="green" />
  <line x1="554.933110367893" y1="126.61891117478507" x2="554.933110367893" y2="138.33390639923596" stroke="black" stroke-width="1" />
  <rect x="546.6555183946489" y="131.14231136580707" width="16.555183946488295" height="5.562559694364836" fill="green" />
  <line x1="573.3277591973244" y1="124.18911174785103" x2="573.3277591973244" y2="133.25119388729706" stroke="black" stroke-width="1" />
  <rect x="565.0501672240803" y="128.0248328557784" width="16.555183946488295" height="1" fill="red" />
  <line x1="591.7224080267559" y1="125.41165234001915" x2="591.7224080267559" y2="129.65982808022932" stroke="black" stroke-width="1" />
  <rect x="583.4448160535118" y="127.24546322827132" width="16.555183946488295" height="1" fill="green" />
</svg>