<svg width="800" height="300" xmlns="http://www.w3.org/2000/svg">
  <line x1="40" y1="250" x2="40" y2="50" stroke="black" stroke-width="2" />
  <line x1="35" y1="250.0" x2="40" y2="250.0" stroke="black" stroke-width="1" />
  <text x="10" y="255.0" font-size="10" fill="black">75</text>
  <line x1="40" y1="250.0" x2="780" y2="250.0" stroke="lightgray" stroke-width="1" stroke-dasharray="5, 5" />
  <line x1="35" y1="210.0" x2="40" y2="210.0" stroke="black" stroke-width="1" />
  <text x="10" y="215.0" font-size="10" fill="black">85</text>
  <line x1="40" y1="210.0" x2="780" y2="210.0" stroke="lightgray" stroke-width="1" stroke-dasharray="5, 5" />
  <line x1="35" y1="170.0" x2="40" y2="170.0" stroke="black" stroke-width="1" />
  <text x="10" y="175.0" font-size="10" fill="black">95</text>
  <line x1="40" y1="170.0" x2="780" y2="170.0" stroke="lightgray" stroke-width="1" stroke-dasharray="5, 5" />
  <line x1="35" y1="130.0" x2="40" y2="130.0" stroke="black" stroke-width="1" />
  <text x="10" y="135.0" font-size="10" fill="black">105</text>
  <line x1="40" y1="130.0" x2="780" y2="130.0" stroke="lightgray" stroke-width="1" stroke-dasharray="5, 5" />
  <line x1="35" y1="90.0" x2="40" y2="90.0" stroke="black" stroke-width="1" />
  <text x="10" y="95.0" font-size="10" fill="black">115</text>
  <line x1="40" y1="90.0" x2="780" y2="90.0" stroke="lightgray" stroke-width="1" stroke-dasharray="5, 5" />
  <line x1="35" y1="50.0" x2="40" y2="50.0" stroke="black" stroke-width="1" />
  <text x="10" y="55.0" font-size="10" fill="black">125</text>
  <line x1="40" y1="50.0" x2="780" y2="50.0" stroke="lightgray" stroke-width="1" stroke-dasharray="5, 5" />
  <line x1="35" y1="150.0" x2="40" y2="150.0" stroke="black" stroke-width="1" />
  <text x="10" y="155.0" font-size="10" fill="black">100</text>
  <line x1="40" y1="150.0" x2="780" y2="150.0" stroke="lightgray" stroke-width="1" stroke-dasharray="5, 5" />
  <line x1="48.666666666666664" y1="147.17287488061118" x2="48.666666666666664" y2="153.16332378223495" stroke="black" stroke-width="1" />
  <rect x="40.86666666666667" y="148.2273161413562" width="15.6" height="1.772683858643802" fill="green" />
  <line x1="66.0" y1="144.43744030563516" x2="66.0" y2="150.18338108882523" stroke="black" stroke-width="1" />
  <rect x="58.199999999999996" y="144.45272206303724" width="15.6" height="3.484240687679062" fill="green" />
  <line x1="83.33333333333333" y1="144.26934097421207" x2="83.33333333333333" y2="151.10028653295132" stroke="black" stroke-width="1" />
  <rect x="75.53333333333332" y="145.10983763132765" width="15.6" height="4.752626552053471" fill="red" />
  <line x1="100.66666666666667" y1="149.40401146131802" x2="100.66666666666667" y2="153.92741165234003" stroke="black" stroke-width="1" />
  <rect x="92.86666666666666" y="150.99331423113654" width="15.6" height="1" fill="red" />
  <line x1="118.0" y1="147.69245463228276" x2="118.0" y2="156.84622731614138" stroke="black" stroke-width="1" />
  <rect x="110.19999999999999" y="150.38204393505254" width="15.6" height="4.446991404011499" fill="red" />
  <line x1="135.33333333333331" y1="144.116523400191" x2="135.33333333333331" y2="151.60458452722065" stroke="black" stroke-width="1" />
  <rect x="127.53333333333332" y="146.56160458452723" width="15.6" height="3.0716332378223683" fill="green" />
  <line x1="152.66666666666666" y1="141.51862464183375" x2="152.66666666666666" y2="147.72301814708692" stroke="black" stroke-width="1" />
  <rect x="144.86666666666667" y="144.6055396370583" width="15.6" height="2.047755491881503" fill="green" />
  <line x1="169.99999999999997" y1="145.8586437440306" x2="169.99999999999997" y2="153.59121298949378" stroke="black" stroke-width="1" />
  <rect x="162.2" y="146.25596943648526" width="15.6" height="6.953199617956045" fill="green" />
  <line x1="187.33333333333331" y1="144.75835721107921" x2="187.33333333333331" y2="156.70869149952244" stroke="black" stroke-width="1" />
  <rect x="179.53333333333333" y="149.8777459407832" width="15.6" height="4.477554918815713" fill="red" />
  <line x1="204.66666666666666" y1="134.41260744985675" x2="204.66666666666666" y2="158.35912129894945" stroke="black" stroke-width="1" />
  <rect x="196.86666666666667" y="135.84909264565425" width="15.6" height="21.394460362941743" fill="red" />
  <line x1="221.99999999999997" y1="154.00382043935053" x2="221.99999999999997" y2="166.42788920725883" stroke="black" stroke-width="1" />
  <rect x="214.2" y="156.58643744030564" width="15.6" height="6.93791786055391" fill="red" />
  <line x1="239.33333333333331" y1="162.31709646609363" x2="239.33333333333331" y2="173.09073543457498" stroke="black" stroke-width="1" />
  <rect x="231.53333333333333" y="163.95224450811844" width="15.6" height="6.968481375358124" fill="red" />
  <line x1="256.6666666666667" y1="168.75071633237826" x2="256.6666666666667" y2="175.35243553008593" stroke="black" stroke-width="1" />
  <rect x="248.86666666666667" y="171.5014326647564" width="15.6" height="1.8490926456543093" fill="green" />
  <line x1="274.0" y1="170.24848137535815" x2="274.0" y2="175.59694364851958" stroke="black" stroke-width="1" />
  <rect x="266.2" y="173.88538681948427" width="15.6" height="1" fill="green" />
  <line x1="291.3333333333333" y1="167.95606494746897" x2="291.3333333333333" y2="181.0370964660936" stroke="black" stroke-width="1" />
  <rect x="283.5333333333333" y="171.40974212034382" width="15.6" height="5.7612225405922" fill="red" />
  <line x1="308.6666666666667" y1="168.93409742120343" x2="308.6666666666667" y2="175.94842406876785" stroke="black" stroke-width="1" />
  <rect x="300.8666666666667" y="173.30468003820442" width="15.6" height="1.130850047755473" fill="red" />
  <line x1="326.0" y1="172.02101241642788" x2="326.0" y2="178.17803247373445" stroke="black" stroke-width="1" />
  <rect x="318.2" y="172.34192932187204" width="15.6" height="1.482330468003795" fill="red" />
  <line x1="343.3333333333333" y1="167.92550143266476" x2="343.3333333333333" y2="180.159923591213" stroke="black" stroke-width="1" />
  <rect x="335.5333333333333" y="168.61318051575932" width="15.6" height="7.274116523400153" fill="green" />
  <line x1="360.6666666666667" y1="161.62941738299907" x2="360.6666666666667" y2="168.61318051575932" stroke="black" stroke-width="1" />
  <rect x="352.8666666666667" y="162.80611270296083" width="15.6" height="3.0257879656160753" fill="green" />
  <line x1="378.0" y1="157.5186246418338" x2="378.0" y2="164.2196752626552" stroke="black" stroke-width="1" />
  <rect x="370.2" y="160.97230181470871" width="15.6" height="3.1021967526265257" fill="green" />
  <line x1="395.3333333333333" y1="156.02101241642788" x2="395.3333333333333" y2="160.97230181470871" stroke="black" stroke-width="1" />
  <rect x="387.5333333333333" y="157.39637058261695" width="15.6" height="3.5759312320917616" fill="green" />
  <line x1="412.6666666666667" y1="153.63705826170013" x2="412.6666666666667" y2="160.68194842406876" stroke="black" stroke-width="1" />
  <rect x="404.8666666666667" y="154.6303724928366" width="15.6" height="5.3944603629418" fill="red" />
  <line x1="430.0" y1="158.603629417383" x2="430.0" y2="166.48901623686726" stroke="black" stroke-width="1" />
  <rect x="422.2" y="158.78701050620822" width="15.6" height="5.455587392550115" fill="red" />
  <line x1="447.3333333333333" y1="138.09551098376306" x2="447.3333333333333" y2="155.65425023877742" stroke="black" stroke-width="1" />
  <rect x="439.5333333333333" y="143.52053486150902" width="15.6" height="8.05348615090736" fill="green" />
  <line x1="464.6666666666667" y1="136.90353390639922" x2="464.6666666666667" y2="150.65711556829035" stroke="black" stroke-width="1" />
  <rect x="456.8666666666667" y="142.28271251193883" width="15.6" height="1.2072588347660371" fill="green" />
  <line x1="482.0" y1="140.35721107927407" x2="482.0" y2="149.251193887297" stroke="black" stroke-width="1" />
  <rect x="474.2" y="141.59503342884426" width="15.6" height="4.64565425023892" fill="red" />
  <line x1="499.3333333333333" y1="133.63323782234954" x2="499.3333333333333" y2="143.06208213944603" stroke="black" stroke-width="1" />
  <rect x="491.5333333333333" y="136.720152817574" width="15.6" height="1" fill="green" />
  <line x1="516.6666666666666" y1="126.61891117478507" x2="516.6666666666666" y2="138.33390639923596" stroke="black" stroke-width="1" />
  <rect x="508.8666666666666" y="131.14231136580707" width="15.6" height="5.562559694364836" fill="green" />
  <line x1="533.9999999999999" y1="124.18911174785103" x2="533.9999999999999" y2="133.25119388729706" stroke="black" stroke-width="1" />
  <rect x="526.1999999999999" y="128.0248328557784" width="15.6" height="1" fill="red" />
  <line x1="551.3333333333333" y1="125.41165234001915" x2="551.3333333333333" y2="129.65982808022932" stroke="black" stroke-width="1" />
  <rect x="543.5333333333333" y="127.24546322827132" width="15.6" height="1" fill="green" />

<!-- Resistance Line -->
<line x1="40" y1="130" x2="600" y2="130" stroke="blue" stroke-width="2" />
<text x="610" y="135" font-size="10" fill="blue">Resistance</text>

<!-- Support Line -->
<line x1="40" y1="170" x2="600" y2="170" stroke="green" stroke-width="2" />
<text x="610" y="175" font-size="10" fill="green">Support</text>

<!-- Trendline -->
<line x1="40" y1="250" x2="600" y2="130" stroke="purple" stroke-width="2" />
<text x="610" y="135" font-size="10" fill="purple">Trendline</text>
</svg>