<svg width="800" height="300" xmlns="http://www.w3.org/2000/svg">
  <line x1="40" y1="250" x2="40" y2="50" stroke="black" stroke-width="2" />
  <line x1="35" y1="250.0" x2="40" y2="250.0" stroke="black" stroke-width="1" />
  <text x="10" y="255.0" font-size="10" fill="black">75</text>
  <line x1="40" y1="250.0" x2="780" y2="250.0" stroke="lightgray" stroke-width="1" stroke-dasharray="5,5" />
  <line x1="35" y1="210.0" x2="40" y2="210.0" stroke="black" stroke-width="1" />
  <text x="10" y="215.0" font-size="10" fill="black">85</text>
  <line x1="40" y1="210.0" x2="780" y2="210.0" stroke="lightgray" stroke-width="1" stroke-dasharray="5,5" />
  <line x1="35" y1="170.0" x2="40" y2="170.0" stroke="black" stroke-width="1" />
  <text x="10" y="175.0" font-size="10" fill="black">95</text>
  <line x1="40" y1="170.0" x2="780" y2="170.0" stroke="lightgray" stroke-width="1" stroke-dasharray="5,5" />
  <line x1="35" y1="130.0" x2="40" y2="130.0" stroke="black" stroke-width="1" />
  <text x="10" y="135.0" font-size="10" fill="black">105</text>
  <line x1="40" y1="130.0" x2="780" y2="130.0" stroke="lightgray" stroke-width="1" stroke-dasharray="5,5" />
  <line x1="35" y1="90.0" x2="40" y2="90.0" stroke="black" stroke-width="1" />
  <text x="10" y="95.0" font-size="10" fill="black">115</text>
  <line x1="40" y1="90.0" x2="780" y2="90.0" stroke="lightgray" stroke-width="1" stroke-dasharray="5,5" />
  <line x1="35" y1="50.0" x2="40" y2="50.0" stroke="black" stroke-width="1" />
  <text x="10" y="55.0" font-size="10" fill="black">125</text>
  <line x1="40" y1="50.0" x2="780" y2="50.0" stroke="lightgray" stroke-width="1" stroke-dasharray="5,5" />
  <line x1="58.27759197324415" y1="148.0473517207713" x2="58.27759197324415" y2="151.2692213814986" stroke="black" stroke-width="1" />
  <rect x="50.0" y="149.80473517207713" width="16.555183946488295" height="1" fill="green" />
  <line x1="76.67224080267559" y1="148.3402489626556" x2="76.67224080267559" y2="152.92897241884305" stroke="black" stroke-width="1" />
  <rect x="68.39464882943145" y="149.60947034415426" width="16.555183946488295" height="2.8313400048816106" fill="red" />
  <line x1="95.06688963210702" y1="150.87869172565286" x2="95.06688963210702" y2="153.41713448865028" stroke="black" stroke-width="1" />
  <rect x="86.78929765886288" y="152.44081034903587" width="16.555183946488295" height="1" fill="red" />
  <line x1="113.46153846153845" y1="152.92897241884305" x2="113.46153846153845" y2="157.32243104710767" stroke="black" stroke-width="1" />
  <rect x="105.18394648829431" y="154.00292897241883" width="16.555183946488295" height="2.733707590920176" fill="red" />
  <line x1="131.8561872909699" y1="154.1981938003417" x2="131.8561872909699" y2="157.51769587503048" stroke="black" stroke-width="1" />
  <rect x="123.57859531772576" y="154.97925311203318" width="16.555183946488295" height="1.5621186233830144" fill="green" />
  <line x1="150.25083612040135" y1="155.0768855259946" x2="150.25083612040135" y2="157.32243104710767" stroke="black" stroke-width="1" />
  <rect x="141.9732441471572" y="156.2484744935319" width="16.555183946488295" height="1" fill="green" />
  <line x1="168.64548494983276" y1="155.1745179399561" x2="168.64548494983276" y2="157.61532828899198" stroke="black" stroke-width="1" />
  <rect x="160.36789297658862" y="155.76031242372466" width="16.555183946488295" height="1" fill="green" />
  <line x1="187.0401337792642" y1="153.51476690261165" x2="187.0401337792642" y2="156.93190139126193" stroke="black" stroke-width="1" />
  <rect x="178.76254180602007" y="155.4674151818404" width="16.555183946488295" height="1" fill="green" />
  <line x1="205.43478260869566" y1="153.71003173053447" x2="205.43478260869566" y2="157.8105931169148" stroke="black" stroke-width="1" />
  <rect x="197.1571906354515" y="154.88162069807174" width="16.555183946488295" height="1.5621186233829576" fill="red" />
  <line x1="223.8294314381271" y1="155.36978276787892" x2="223.8294314381271" y2="158.20112277276053" stroke="black" stroke-width="1" />
  <rect x="215.55183946488296" y="155.4674151818404" width="16.555183946488295" height="1.366853795460031" fill="green" />
  <line x1="242.22408026755855" y1="149.90236758603857" x2="242.22408026755855" y2="156.15084207957034" stroke="black" stroke-width="1" />
  <rect x="233.9464882943144" y="150.97632413961435" width="16.555183946488295" height="4.49109104222606" fill="green" />
  <line x1="260.61872909698997" y1="148.14498413473274" x2="260.61872909698997" y2="152.3431779350745" stroke="black" stroke-width="1" />
  <rect x="252.34113712374582" y="150.0" width="16.555183946488295" height="1" fill="green" />
  <line x1="279.0133779264214" y1="151.65975103734445" x2="279.0133779264214" y2="155.27215035391748" stroke="black" stroke-width="1" />
  <rect x="270.73578595317724" y="152.5384427629973" width="16.555183946488295" height="1.6597510373443924" fill="green" />
  <line x1="297.4080267558529" y1="146.77813033927265" x2="297.4080267558529" y2="153.31950207468873" stroke="black" stroke-width="1" />
  <rect x="289.13043478260875" y="150.39052965584574" width="16.555183946488295" height="1.7573834513058273" fill="green" />
  <line x1="315.8026755852843" y1="150.48816206980712" x2="315.8026755852843" y2="154.78398828411036" stroke="black" stroke-width="1" />
  <rect x="307.52508361204013" y="151.3668537954601" width="16.555183946488295" height="1.5621186233829576" fill="red" />
  <line x1="334.19732441471575" y1="148.53551379057848" x2="334.19732441471575" y2="154.00292897241883" stroke="black" stroke-width="1" />
  <rect x="325.9197324414716" y="150.68342689773004" width="16.555183946488295" height="2.9289724188430455" fill="green" />
  <line x1="352.5919732441472" y1="146.97339516719552" x2="352.5919732441472" y2="151.65975103734445" stroke="black" stroke-width="1" />
  <rect x="344.314381270903" y="150.48816206980712" width="16.555183946488295" height="1" fill="green" />
  <line x1="370.98662207357864" y1="150.09763241396143" x2="370.98662207357864" y2="155.36978276787892" stroke="black" stroke-width="1" />
  <rect x="362.7090301003345" y="150.48816206980712" width="16.555183946488295" height="2.8313400048816106" fill="red" />
  <line x1="389.3812709030101" y1="144.53258481815965" x2="389.3812709030101" y2="150.97632413961435" stroke="black" stroke-width="1" />
  <rect x="381.1036789297659" y="146.28996826946548" width="16.555183946488295" height="4.686355870148873" fill="green" />
  <line x1="407.77591973244154" y1="142.87283378081514" x2="407.77591973244154" y2="145.89943861361974" stroke="black" stroke-width="1" />
  <rect x="399.49832775919737" y="144.82548206004395" width="16.555183946488295" height="1" fill="green" />
  <line x1="426.170568561873" y1="139.9438613619721" x2="426.170568561873" y2="145.8018061996583" stroke="black" stroke-width="1" />
  <rect x="417.8929765886288" y="140.13912618989508" width="16.555183946488295" height="5.565047595801786" fill="green" />
  <line x1="444.5652173913044" y1="136.72199170124486" x2="444.5652173913044" y2="140.23675860385652" stroke="black" stroke-width="1" />
  <rect x="436.2876254180602" y="137.01488894312916" width="16.555183946488295" height="2.928972418842932" fill="green" />
  <line x1="462.9598662207358" y1="140.62728825970225" x2="462.9598662207358" y2="149.60947034415426" stroke="black" stroke-width="1" />
  <rect x="454.68227424749165" y="142.87283378081514" width="16.555183946488295" height="3.3195020746888986" fill="red" />
  <line x1="481.35451505016727" y1="140.52965584574082" x2="481.35451505016727" y2="145.313644129851" stroke="black" stroke-width="1" />
  <rect x="473.0769230769231" y="141.50597998535505" width="16.555183946488295" height="3.3195020746888986" fill="green" />
  <line x1="499.7491638795987" y1="141.11545032950931" x2="499.7491638795987" y2="153.41713448865028" stroke="black" stroke-width="1" />
  <rect x="491.47157190635454" y="141.79887722723936" width="16.555183946488295" height="9.567976568220729" fill="red" />
  <line x1="518.1438127090302" y1="144.63021723212097" x2="518.1438127090302" y2="150.58579448376867" stroke="black" stroke-width="1" />
  <rect x="509.866220735786" y="146.87576275323408" width="16.555183946488295" height="1.5621186233829576" fill="green" />
  <line x1="536.5384615384617" y1="144.04442274835247" x2="536.5384615384617" y2="147.55918965096413" stroke="black" stroke-width="1" />
  <rect x="528.2608695652175" y="144.82548206004395" width="16.555183946488295" height="1" fill="red" />
  <line x1="554.933110367893" y1="140.92018550158656" x2="554.933110367893" y2="145.313644129851" stroke="black" stroke-width="1" />
  <rect x="546.6555183946489" y="142.87283378081514" width="16.555183946488295" height="2.1479131071516804" fill="green" />
  <line x1="573.3277591973244" y1="138.38174273858925" x2="573.3277591973244" y2="142.6775689528924" stroke="black" stroke-width="1" />
  <rect x="565.0501672240803" y="139.26043446424205" width="16.555183946488295" height="2.538442762997306" fill="green" />
  <line x1="591.7224080267559" y1="136.33146204539912" x2="591.7224080267559" y2="141.21308274347086" stroke="black" stroke-width="1" />
  <rect x="583.4448160535118" y="138.8699048083963" width="16.555183946488295" height="1" fill="green" />
</svg>