<svg width="800" height="300" xmlns="http://www.w3.org/2000/svg">
  <line x1="40" y1="250" x2="40" y2="50" stroke="black" stroke-width="2" />
  <line x1="35" y1="250.0" x2="40" y2="250.0" stroke="black" stroke-width="1" />
  <text x="10" y="255.0" font-size="10" fill="black">75</text>
  <line x1="40" y1="250.0" x2="780" y2="250.0" stroke="lightgray" stroke-width="1" stroke-dasharray="5, 5" />
  <line x1="35" y1="210.0" x2="40" y2="210.0" stroke="black" stroke-width="1" />
  <text x="10" y="215.0" font-size="10" fill="black">85</text>
  <line x1="40" y1="210.0" x2="780" y2="210.0" stroke="lightgray" stroke-width="1" stroke-dasharray="5, 5" />
  <line x1="35" y1="170.0" x2="40" y2="170.0" stroke="black" stroke-width="1" />
  <text x="10" y="175.0" font-size="10" fill="black">95</text>
  <line x1="40" y1="170.0" x2="780" y2="170.0" stroke="lightgray" stroke-width="1" stroke-dasharray="5, 5" />
  <line x1="35" y1="130.0" x2="40" y2="130.0" stroke="black" stroke-width="1" />
  <text x="10" y="135.0" font-size="10" fill="black">105</text>
  <line x1="40" y1="130.0" x2="780" y2="130.0" stroke="lightgray" stroke-width="1" stroke-dasharray="5, 5" />
  <line x1="35" y1="90.0" x2="40" y2="90.0" stroke="black" stroke-width="1" />
  <text x="10" y="95.0" font-size="10" fill="black">115</text>
  <line x1="40" y1="90.0" x2="780" y2="90.0" stroke="lightgray" stroke-width="1" stroke-dasharray="5, 5" />
  <line x1="35" y1="50.0" x2="40" y2="50.0" stroke="black" stroke-width="1" />
  <text x="10" y="55.0" font-size="10" fill="black">125</text>
  <line x1="40" y1="50.0" x2="780" y2="50.0" stroke="lightgray" stroke-width="1" stroke-dasharray="5, 5" />
  <line x1="35" y1="150.0" x2="40" y2="150.0" stroke="black" stroke-width="1" />
  <text x="10" y="155.0" font-size="10" fill="black">100</text>
  <line x1="40" y1="150.0" x2="780" y2="150.0" stroke="lightgray" stroke-width="1" stroke-dasharray="5, 5" />
  <line x1="48.666666666666664" y1="148.0473517207713" x2="48.666666666666664" y2="151.2692213814986" stroke="black" stroke-width="1" />
  <rect x="40.86666666666667" y="149.80473517207713" width="15.6" height="1" fill="green" />
  <line x1="66.0" y1="148.3402489626556" x2="66.0" y2="152.92897241884305" stroke="black" stroke-width="1" />
  <rect x="58.199999999999996" y="149.60947034415426" width="15.6" height="2.8313400048816106" fill="red" />
  <line x1="83.33333333333333" y1="150.87869172565286" x2="83.33333333333333" y2="153.41713448865028" stroke="black" stroke-width="1" />
  <rect x="75.53333333333332" y="152.44081034903587" width="15.6" height="1" fill="red" />
  <line x1="100.66666666666667" y1="152.92897241884305" x2="100.66666666666667" y2="157.32243104710767" stroke="black" stroke-width="1" />
  <rect x="92.86666666666666" y="154.00292897241883" width="15.6" height="2.733707590920176" fill="red" />
  <line x1="118.0" y1="154.1981938003417" x2="118.0" y2="157.51769587503048" stroke="black" stroke-width="1" />
  <rect x="110.19999999999999" y="154.97925311203318" width="15.6" height="1.5621186233830144" fill="green" />
  <line x1="135.33333333333331" y1="155.0768855259946" x2="135.33333333333331" y2="157.32243104710767" stroke="black" stroke-width="1" />
  <rect x="127.53333333333332" y="156.2484744935319" width="15.6" height="1" fill="green" />
  <line x1="152.66666666666666" y1="155.1745179399561" x2="152.66666666666666" y2="157.61532828899198" stroke="black" stroke-width="1" />
  <rect x="144.86666666666667" y="155.76031242372466" width="15.6" height="1" fill="green" />
  <line x1="169.99999999999997" y1="153.51476690261165" x2="169.99999999999997" y2="156.93190139126193" stroke="black" stroke-width="1" />
  <rect x="162.2" y="155.4674151818404" width="15.6" height="1" fill="green" />
  <line x1="187.33333333333331" y1="153.71003173053447" x2="187.33333333333331" y2="157.8105931169148" stroke="black" stroke-width="1" />
  <rect x="179.53333333333333" y="154.88162069807174" width="15.6" height="1.5621186233829576" fill="red" />
  <line x1="204.66666666666666" y1="155.36978276787892" x2="204.66666666666666" y2="158.20112277276053" stroke="black" stroke-width="1" />
  <rect x="196.86666666666667" y="155.4674151818404" width="15.6" height="1.366853795460031" fill="green" />
  <line x1="221.99999999999997" y1="149.90236758603857" x2="221.99999999999997" y2="156.15084207957034" stroke="black" stroke-width="1" />
  <rect x="214.2" y="150.97632413961435" width="15.6" height="4.49109104222606" fill="green" />
  <line x1="239.33333333333331" y1="148.14498413473274" x2="239.33333333333331" y2="152.3431779350745" stroke="black" stroke-width="1" />
  <rect x="231.53333333333333" y="150.0" width="15.6" height="1" fill="green" />
  <line x1="256.6666666666667" y1="151.65975103734445" x2="256.6666666666667" y2="155.27215035391748" stroke="black" stroke-width="1" />
  <rect x="248.86666666666667" y="152.5384427629973" width="15.6" height="1.6597510373443924" fill="green" />
  <line x1="274.0" y1="146.77813033927265" x2="274.0" y2="153.31950207468873" stroke="black" stroke-width="1" />
  <rect x="266.2" y="150.39052965584574" width="15.6" height="1.7573834513058273" fill="green" />
  <line x1="291.3333333333333" y1="150.48816206980712" x2="291.3333333333333" y2="154.78398828411036" stroke="black" stroke-width="1" />
  <rect x="283.5333333333333" y="151.3668537954601" width="15.6" height="1.5621186233829576" fill="red" />
  <line x1="308.6666666666667" y1="148.53551379057848" x2="308.6666666666667" y2="154.00292897241883" stroke="black" stroke-width="1" />
  <rect x="300.8666666666667" y="150.68342689773004" width="15.6" height="2.9289724188430455" fill="green" />
  <line x1="326.0" y1="146.97339516719552" x2="326.0" y2="151.65975103734445" stroke="black" stroke-width="1" />
  <rect x="318.2" y="150.48816206980712" width="15.6" height="1" fill="green" />
  <line x1="343.3333333333333" y1="150.09763241396143" x2="343.3333333333333" y2="155.36978276787892" stroke="black" stroke-width="1" />
  <rect x="335.5333333333333" y="150.48816206980712" width="15.6" height="2.8313400048816106" fill="red" />
  <line x1="360.6666666666667" y1="144.53258481815965" x2="360.6666666666667" y2="150.97632413961435" stroke="black" stroke-width="1" />
  <rect x="352.8666666666667" y="146.28996826946548" width="15.6" height="4.686355870148873" fill="green" />
  <line x1="378.0" y1="142.87283378081514" x2="378.0" y2="145.89943861361974" stroke="black" stroke-width="1" />
  <rect x="370.2" y="144.82548206004395" width="15.6" height="1" fill="green" />
  <line x1="395.3333333333333" y1="139.9438613619721" x2="395.3333333333333" y2="145.8018061996583" stroke="black" stroke-width="1" />
  <rect x="387.5333333333333" y="140.13912618989508" width="15.6" height="5.565047595801786" fill="green" />
  <line x1="412.6666666666667" y1="136.72199170124486" x2="412.6666666666667" y2="140.23675860385652" stroke="black" stroke-width="1" />
  <rect x="404.8666666666667" y="137.01488894312916" width="15.6" height="2.928972418842932" fill="green" />
  <line x1="430.0" y1="140.62728825970225" x2="430.0" y2="149.60947034415426" stroke="black" stroke-width="1" />
  <rect x="422.2" y="142.87283378081514" width="15.6" height="3.3195020746888986" fill="red" />
  <line x1="447.3333333333333" y1="140.52965584574082" x2="447.3333333333333" y2="145.313644129851" stroke="black" stroke-width="1" />
  <rect x="439.5333333333333" y="141.50597998535505" width="15.6" height="3.3195020746888986" fill="green" />
  <line x1="464.6666666666667" y1="141.11545032950931" x2="464.6666666666667" y2="153.41713448865028" stroke="black" stroke-width="1" />
  <rect x="456.8666666666667" y="141.79887722723936" width="15.6" height="9.567976568220729" fill="red" />
  <line x1="482.0" y1="144.63021723212097" x2="482.0" y2="150.58579448376867" stroke="black" stroke-width="1" />
  <rect x="474.2" y="146.87576275323408" width="15.6" height="1.5621186233829576" fill="green" />
  <line x1="499.3333333333333" y1="144.04442274835247" x2="499.3333333333333" y2="147.55918965096413" stroke="black" stroke-width="1" />
  <rect x="491.5333333333333" y="144.82548206004395" width="15.6" height="1" fill="red" />
  <line x1="516.6666666666666" y1="140.92018550158656" x2="516.6666666666666" y2="145.313644129851" stroke="black" stroke-width="1" />
  <rect x="508.8666666666666" y="142.87283378081514" width="15.6" height="2.1479131071516804" fill="green" />
  <line x1="533.9999999999999" y1="138.38174273858925" x2="533.9999999999999" y2="142.6775689528924" stroke="black" stroke-width="1" />
  <rect x="526.1999999999999" y="139.26043446424205" width="15.6" height="2.538442762997306" fill="green" />
  <line x1="551.3333333333333" y1="136.33146204539912" x2="551.3333333333333" y2="141.21308274347086" stroke="black" stroke-width="1" />
  <rect x="543.5333333333333" y="138.8699048083963" width="15.6" height="1" fill="green" />

<!-- Resistance Line -->
<line x1="40" y1="150" x2="600" y2="150" stroke="red" stroke-width="2" />
<text x="605" y="150" font-size="10" fill="red">Resistance</text>

<!-- Support Line -->
<line x1="40" y1="170" x2="600" y2="170" stroke="green" stroke-width="2" />
<text x="605" y="170" font-size="10" fill="green">Support</text>

<!-- Trendline -->
<line x1="40" y1="250" x2="600" y2="140" stroke="blue" stroke-width="2" />
<text x="605" y="140" font-size="10" fill="blue">Trendline</text>
</svg>