<svg width="800" height="300" xmlns="http://www.w3.org/2000/svg">
  <line x1="40" y1="250" x2="40" y2="50" stroke="black" stroke-width="2" />
  <line x1="35" y1="250.0" x2="40" y2="250.0" stroke="black" stroke-width="1" />
  <text x="10" y="255.0" font-size="10" fill="black">75</text>
  <line x1="40" y1="250.0" x2="780" y2="250.0" stroke="lightgray" stroke-width="1" stroke-dasharray="5, 5" />
  <line x1="35" y1="210.0" x2="40" y2="210.0" stroke="black" stroke-width="1" />
  <text x="10" y="215.0" font-size="10" fill="black">85</text>
  <line x1="40" y1="210.0" x2="780" y2="210.0" stroke="lightgray" stroke-width="1" stroke-dasharray="5, 5" />
  <line x1="35" y1="170.0" x2="40" y2="170.0" stroke="black" stroke-width="1" />
  <text x="10" y="175.0" font-size="10" fill="black">95</text>
  <line x1="40" y1="170.0" x2="780" y2="170.0" stroke="lightgray" stroke-width="1" stroke-dasharray="5, 5" />
  <line x1="35" y1="130.0" x2="40" y2="130.0" stroke="black" stroke-width="1" />
  <text x="10" y="135.0" font-size="10" fill="black">105</text>
  <line x1="40" y1="130.0" x2="780" y2="130.0" stroke="lightgray" stroke-width="1" stroke-dasharray="5, 5" />
  <line x1="35" y1="90.0" x2="40" y2="90.0" stroke="black" stroke-width="1" />
  <text x="10" y="95.0" font-size="10" fill="black">115</text>
  <line x1="40" y1="90.0" x2="780" y2="90.0" stroke="lightgray" stroke-width="1" stroke-dasharray="5, 5" />
  <line x1="35" y1="50.0" x2="40" y2="50.0" stroke="black" stroke-width="1" />
  <text x="10" y="55.0" font-size="10" fill="black">125</text>
  <line x1="40" y1="50.0" x2="780" y2="50.0" stroke="lightgray" stroke-width="1" stroke-dasharray="5, 5" />
  <line x1="35" y1="150.0" x2="40" y2="150.0" stroke="black" stroke-width="1" />
  <text x="10" y="155.0" font-size="10" fill="black">100</text>
  <line x1="40" y1="150.0" x2="780" y2="150.0" stroke="lightgray" stroke-width="1" stroke-dasharray="5, 5" />
  <line x1="48.666666666666664" y1="140.05874378671484" x2="48.666666666666664" y2="150.90375056484413" stroke="black" stroke-width="1" />
  <rect x="40.86666666666667" y="141.68549480343427" width="15.6" height="8.314505196565733" fill="green" />
  <line x1="66.0" y1="136.62449164030727" x2="66.0" y2="140.60099412562136" stroke="black" stroke-width="1" />
  <rect x="58.199999999999996" y="137.34749209218256" width="15.6" height="3.2535020334387923" fill="green" />
  <line x1="83.33333333333333" y1="132.46723904202435" x2="83.33333333333333" y2="137.34749209218256" stroke="black" stroke-width="1" />
  <rect x="75.53333333333332" y="134.27474017171255" width="15.6" height="3.0727519204700116" fill="green" />
  <line x1="100.66666666666667" y1="135.53999096249436" x2="100.66666666666667" y2="142.22774514234072" stroke="black" stroke-width="1" />
  <rect x="92.86666666666666" y="136.08224130140087" width="15.6" height="2.5305015815633283" fill="red" />
  <line x1="118.0" y1="133.73248983280615" x2="118.0" y2="139.3357433348396" stroke="black" stroke-width="1" />
  <rect x="110.19999999999999" y="134.27474017171255" width="15.6" height="4.338002711251647" fill="green" />
  <line x1="135.33333333333331" y1="125.05648441030274" x2="135.33333333333331" y2="137.88974243108896" stroke="black" stroke-width="1" />
  <rect x="127.53333333333332" y="130.47898779936736" width="15.6" height="4.338002711251704" fill="green" />
  <line x1="152.66666666666666" y1="127.76773610483508" x2="152.66666666666666" y2="132.28648892905557" stroke="black" stroke-width="1" />
  <rect x="144.86666666666667" y="129.21373700858555" width="15.6" height="3.0727519204700116" fill="red" />
  <line x1="169.99999999999997" y1="129.9367374604609" x2="169.99999999999997" y2="136.8052417532761" stroke="black" stroke-width="1" />
  <rect x="162.2" y="132.64798915499318" width="15.6" height="2.7112516945323364" fill="red" />
  <line x1="187.33333333333331" y1="129.21373700858555" x2="187.33333333333331" y2="135.17849073655668" stroke="black" stroke-width="1" />
  <rect x="179.53333333333333" y="133.0094893809308" width="15.6" height="2.1690013556258805" fill="green" />
  <line x1="204.66666666666666" y1="126.50248531405327" x2="204.66666666666666" y2="132.82873926796208" stroke="black" stroke-width="1" />
  <rect x="196.86666666666667" y="127.22548576592862" width="15.6" height="4.88025305015816" fill="green" />
  <line x1="221.99999999999997" y1="124.51423407139634" x2="221.99999999999997" y2="130.47898779936736" stroke="black" stroke-width="1" />
  <rect x="214.2" y="127.94848621780386" width="15.6" height="1" fill="green" />
  <line x1="239.33333333333331" y1="125.41798463624036" x2="239.33333333333331" y2="140.23949389968362" stroke="black" stroke-width="1" />
  <rect x="231.53333333333333" y="128.12923633077264" width="15.6" height="9.037505648441083" fill="red" />
  <line x1="256.6666666666667" y1="143.8544961590601" x2="256.6666666666667" y2="150.90375056484413" stroke="black" stroke-width="1" />
  <rect x="248.86666666666667" y="144.938996836873" width="15.6" height="3.976502485314029" fill="red" />
  <line x1="274.0" y1="143.49299593312247" x2="274.0" y2="150.36150022593762" stroke="black" stroke-width="1" />
  <rect x="266.2" y="148.73474920921825" width="15.6" height="1.4460009037505301" fill="green" />
  <line x1="291.3333333333333" y1="149.63849977406232" x2="291.3333333333333" y2="157.95300497062806" stroke="black" stroke-width="1" />
  <rect x="283.5333333333333" y="150.36150022593762" width="15.6" height="7.0492544057840405" fill="red" />
  <line x1="308.6666666666667" y1="153.97650248531403" x2="308.6666666666667" y2="161.025756891098" stroke="black" stroke-width="1" />
  <rect x="300.8666666666667" y="157.41075463172166" width="15.6" height="2.7112516945322795" fill="red" />
  <line x1="326.0" y1="156.50700406687753" x2="326.0" y2="162.4717577948486" stroke="black" stroke-width="1" />
  <rect x="318.2" y="160.6642566651604" width="15.6" height="1" fill="green" />
  <line x1="343.3333333333333" y1="157.41075463172166" x2="343.3333333333333" y2="162.65250790781744" stroke="black" stroke-width="1" />
  <rect x="335.5333333333333" y="160.48350655219156" width="15.6" height="1" fill="green" />
  <line x1="360.6666666666667" y1="149.4577496610935" x2="360.6666666666667" y2="157.23000451875282" stroke="black" stroke-width="1" />
  <rect x="352.8666666666667" y="154.51875282422048" width="15.6" height="2.7112516945323364" fill="green" />
  <line x1="378.0" y1="148.73474920921825" x2="378.0" y2="154.51875282422048" stroke="black" stroke-width="1" />
  <rect x="370.2" y="150.7230004518753" width="15.6" height="3.7957523723451914" fill="green" />
  <line x1="395.3333333333333" y1="151.62675101671937" x2="395.3333333333333" y2="154.51875282422048" stroke="black" stroke-width="1" />
  <rect x="387.5333333333333" y="152.16900135562577" width="15.6" height="1" fill="green" />
  <line x1="412.6666666666667" y1="144.39674649796655" x2="412.6666666666667" y2="153.0727519204699" stroke="black" stroke-width="1" />
  <rect x="404.8666666666667" y="147.46949841843644" width="15.6" height="3.976502485314086" fill="green" />
  <line x1="430.0" y1="142.22774514234072" x2="430.0" y2="148.55399909624947" stroke="black" stroke-width="1" />
  <rect x="422.2" y="143.8544961590601" width="15.6" height="3.7957523723451914" fill="green" />
  <line x1="447.3333333333333" y1="131.38273836421143" x2="447.3333333333333" y2="141.3239945774966" stroke="black" stroke-width="1" />
  <rect x="439.5333333333333" y="139.877993673746" width="15.6" height="1.0845006778130255" fill="red" />
  <line x1="464.6666666666667" y1="140.23949389968362" x2="464.6666666666667" y2="160.30275643922278" stroke="black" stroke-width="1" />
  <rect x="456.8666666666667" y="140.78174423859008" width="15.6" height="18.07501129688211" fill="red" />
  <line x1="482.0" y1="157.59150474469044" x2="482.0" y2="163.1947582467239" stroke="black" stroke-width="1" />
  <rect x="474.2" y="158.49525530953457" width="15.6" height="2.530501581563442" fill="red" />
  <line x1="499.3333333333333" y1="146.02349751468591" x2="499.3333333333333" y2="157.04925440578404" stroke="black" stroke-width="1" />
  <rect x="491.5333333333333" y="148.73474920921825" width="15.6" height="7.0492544057840405" fill="green" />
  <line x1="516.6666666666666" y1="143.8544961590601" x2="516.6666666666666" y2="151.62675101671937" stroke="black" stroke-width="1" />
  <rect x="508.8666666666666" y="144.938996836873" width="15.6" height="5.603253502033397" fill="green" />
  <line x1="533.9999999999999" y1="133.37098960686848" x2="533.9999999999999" y2="140.60099412562136" stroke="black" stroke-width="1" />
  <rect x="526.1999999999999" y="136.2629914143696" width="15.6" height="1" fill="green" />
  <line x1="551.3333333333333" y1="132.28648892905557" x2="551.3333333333333" y2="137.16674197921373" stroke="black" stroke-width="1" />
  <rect x="543.5333333333333" y="135.72074107546308" width="15.6" height="1" fill="red" />

<!-- Resistance Line -->
<line x1="40" y1="130" x2="600" y2="130" stroke="blue" stroke-width="2" />
<text x="610" y="130" font-size="10" fill="blue">Resistance</text>

<!-- Support Line -->
<line x1="40" y1="150" x2="600" y2="150" stroke="green" stroke-width="2" />
<text x="610" y="150" font-size="10" fill="green">Support</text>

<!-- Trendline -->
<line x1="40" y1="170" x2="600" y2="130" stroke="red" stroke-width="2" />
<text x="610" y="130" font-size="10" fill="red">Trendline</text>
</svg>