<svg width="800" height="300" xmlns="http://www.w3.org/2000/svg">
  <line x1="40" y1="250" x2="40" y2="50" stroke="black" stroke-width="2" />
  <line x1="35" y1="250.0" x2="40" y2="250.0" stroke="black" stroke-width="1" />
  <text x="10" y="255.0" font-size="10" fill="black">75</text>
  <line x1="40" y1="250.0" x2="780" y2="250.0" stroke="lightgray" stroke-width="1" stroke-dasharray="5,5" />
  <line x1="35" y1="210.0" x2="40" y2="210.0" stroke="black" stroke-width="1" />
  <text x="10" y="215.0" font-size="10" fill="black">85</text>
  <line x1="40" y1="210.0" x2="780" y2="210.0" stroke="lightgray" stroke-width="1" stroke-dasharray="5,5" />
  <line x1="35" y1="170.0" x2="40" y2="170.0" stroke="black" stroke-width="1" />
  <text x="10" y="175.0" font-size="10" fill="black">95</text>
  <line x1="40" y1="170.0" x2="780" y2="170.0" stroke="lightgray" stroke-width="1" stroke-dasharray="5,5" />
  <line x1="35" y1="130.0" x2="40" y2="130.0" stroke="black" stroke-width="1" />
  <text x="10" y="135.0" font-size="10" fill="black">105</text>
  <line x1="40" y1="130.0" x2="780" y2="130.0" stroke="lightgray" stroke-width="1" stroke-dasharray="5,5" />
  <line x1="35" y1="90.0" x2="40" y2="90.0" stroke="black" stroke-width="1" />
  <text x="10" y="95.0" font-size="10" fill="black">115</text>
  <line x1="40" y1="90.0" x2="780" y2="90.0" stroke="lightgray" stroke-width="1" stroke-dasharray="5,5" />
  <line x1="35" y1="50.0" x2="40" y2="50.0" stroke="black" stroke-width="1" />
  <text x="10" y="55.0" font-size="10" fill="black">125</text>
  <line x1="40" y1="50.0" x2="780" y2="50.0" stroke="lightgray" stroke-width="1" stroke-dasharray="5,5" />
  <line x1="58.27759197324415" y1="140.05874378671484" x2="58.27759197324415" y2="150.90375056484413" stroke="black" stroke-width="1" />
  <rect x="50.0" y="141.68549480343427" width="16.555183946488295" height="8.314505196565733" fill="green" />
  <line x1="76.67224080267559" y1="136.62449164030727" x2="76.67224080267559" y2="140.60099412562136" stroke="black" stroke-width="1" />
  <rect x="68.39464882943145" y="137.34749209218256" width="16.555183946488295" height="3.2535020334387923" fill="green" />
  <line x1="95.06688963210702" y1="132.46723904202435" x2="95.06688963210702" y2="137.34749209218256" stroke="black" stroke-width="1" />
  <rect x="86.78929765886288" y="134.27474017171255" width="16.555183946488295" height="3.0727519204700116" fill="green" />
  <line x1="113.46153846153845" y1="135.53999096249436" x2="113.46153846153845" y2="142.22774514234072" stroke="black" stroke-width="1" />
  <rect x="105.18394648829431" y="136.08224130140087" width="16.555183946488295" height="2.5305015815633283" fill="red" />
  <line x1="131.8561872909699" y1="133.73248983280615" x2="131.8561872909699" y2="139.3357433348396" stroke="black" stroke-width="1" />
  <rect x="123.57859531772576" y="134.27474017171255" width="16.555183946488295" height="4.338002711251647" fill="green" />
  <line x1="150.25083612040135" y1="125.05648441030274" x2="150.25083612040135" y2="137.88974243108896" stroke="black" stroke-width="1" />
  <rect x="141.9732441471572" y="130.47898779936736" width="16.555183946488295" height="4.338002711251704" fill="green" />
  <line x1="168.64548494983276" y1="127.76773610483508" x2="168.64548494983276" y2="132.28648892905557" stroke="black" stroke-width="1" />
  <rect x="160.36789297658862" y="129.21373700858555" width="16.555183946488295" height="3.0727519204700116" fill="red" />
  <line x1="187.0401337792642" y1="129.9367374604609" x2="187.0401337792642" y2="136.8052417532761" stroke="black" stroke-width="1" />
  <rect x="178.76254180602007" y="132.64798915499318" width="16.555183946488295" height="2.7112516945323364" fill="red" />
  <line x1="205.43478260869566" y1="129.21373700858555" x2="205.43478260869566" y2="135.17849073655668" stroke="black" stroke-width="1" />
  <rect x="197.1571906354515" y="133.0094893809308" width="16.555183946488295" height="2.1690013556258805" fill="green" />
  <line x1="223.8294314381271" y1="126.50248531405327" x2="223.8294314381271" y2="132.82873926796208" stroke="black" stroke-width="1" />
  <rect x="215.55183946488296" y="127.22548576592862" width="16.555183946488295" height="4.88025305015816" fill="green" />
  <line x1="242.22408026755855" y1="124.51423407139634" x2="242.22408026755855" y2="130.47898779936736" stroke="black" stroke-width="1" />
  <rect x="233.9464882943144" y="127.94848621780386" width="16.555183946488295" height="1" fill="green" />
  <line x1="260.61872909698997" y1="125.41798463624036" x2="260.61872909698997" y2="140.23949389968362" stroke="black" stroke-width="1" />
  <rect x="252.34113712374582" y="128.12923633077264" width="16.555183946488295" height="9.037505648441083" fill="red" />
  <line x1="279.0133779264214" y1="143.8544961590601" x2="279.0133779264214" y2="150.90375056484413" stroke="black" stroke-width="1" />
  <rect x="270.73578595317724" y="144.938996836873" width="16.555183946488295" height="3.976502485314029" fill="red" />
  <line x1="297.4080267558529" y1="143.49299593312247" x2="297.4080267558529" y2="150.36150022593762" stroke="black" stroke-width="1" />
  <rect x="289.13043478260875" y="148.73474920921825" width="16.555183946488295" height="1.4460009037505301" fill="green" />
  <line x1="315.8026755852843" y1="149.63849977406232" x2="315.8026755852843" y2="157.95300497062806" stroke="black" stroke-width="1" />
  <rect x="307.52508361204013" y="150.36150022593762" width="16.555183946488295" height="7.0492544057840405" fill="red" />
  <line x1="334.19732441471575" y1="153.97650248531403" x2="334.19732441471575" y2="161.025756891098" stroke="black" stroke-width="1" />
  <rect x="325.9197324414716" y="157.41075463172166" width="16.555183946488295" height="2.7112516945322795" fill="red" />
  <line x1="352.5919732441472" y1="156.50700406687753" x2="352.5919732441472" y2="162.4717577948486" stroke="black" stroke-width="1" />
  <rect x="344.314381270903" y="160.6642566651604" width="16.555183946488295" height="1" fill="green" />
  <line x1="370.98662207357864" y1="157.41075463172166" x2="370.98662207357864" y2="162.65250790781744" stroke="black" stroke-width="1" />
  <rect x="362.7090301003345" y="160.48350655219156" width="16.555183946488295" height="1" fill="green" />
  <line x1="389.3812709030101" y1="149.4577496610935" x2="389.3812709030101" y2="157.23000451875282" stroke="black" stroke-width="1" />
  <rect x="381.1036789297659" y="154.51875282422048" width="16.555183946488295" height="2.7112516945323364" fill="green" />
  <line x1="407.77591973244154" y1="148.73474920921825" x2="407.77591973244154" y2="154.51875282422048" stroke="black" stroke-width="1" />
  <rect x="399.49832775919737" y="150.7230004518753" width="16.555183946488295" height="3.7957523723451914" fill="green" />
  <line x1="426.170568561873" y1="151.62675101671937" x2="426.170568561873" y2="154.51875282422048" stroke="black" stroke-width="1" />
  <rect x="417.8929765886288" y="152.16900135562577" width="16.555183946488295" height="1" fill="green" />
  <line x1="444.5652173913044" y1="144.39674649796655" x2="444.5652173913044" y2="153.0727519204699" stroke="black" stroke-width="1" />
  <rect x="436.2876254180602" y="147.46949841843644" width="16.555183946488295" height="3.976502485314086" fill="green" />
  <line x1="462.9598662207358" y1="142.22774514234072" x2="462.9598662207358" y2="148.55399909624947" stroke="black" stroke-width="1" />
  <rect x="454.68227424749165" y="143.8544961590601" width="16.555183946488295" height="3.7957523723451914" fill="green" />
  <line x1="481.35451505016727" y1="131.38273836421143" x2="481.35451505016727" y2="141.3239945774966" stroke="black" stroke-width="1" />
  <rect x="473.0769230769231" y="139.877993673746" width="16.555183946488295" height="1.0845006778130255" fill="red" />
  <line x1="499.7491638795987" y1="140.23949389968362" x2="499.7491638795987" y2="160.30275643922278" stroke="black" stroke-width="1" />
  <rect x="491.47157190635454" y="140.78174423859008" width="16.555183946488295" height="18.07501129688211" fill="red" />
  <line x1="518.1438127090302" y1="157.59150474469044" x2="518.1438127090302" y2="163.1947582467239" stroke="black" stroke-width="1" />
  <rect x="509.866220735786" y="158.49525530953457" width="16.555183946488295" height="2.530501581563442" fill="red" />
  <line x1="536.5384615384617" y1="146.02349751468591" x2="536.5384615384617" y2="157.04925440578404" stroke="black" stroke-width="1" />
  <rect x="528.2608695652175" y="148.73474920921825" width="16.555183946488295" height="7.0492544057840405" fill="green" />
  <line x1="554.933110367893" y1="143.8544961590601" x2="554.933110367893" y2="151.62675101671937" stroke="black" stroke-width="1" />
  <rect x="546.6555183946489" y="144.938996836873" width="16.555183946488295" height="5.603253502033397" fill="green" />
  <line x1="573.3277591973244" y1="133.37098960686848" x2="573.3277591973244" y2="140.60099412562136" stroke="black" stroke-width="1" />
  <rect x="565.0501672240803" y="136.2629914143696" width="16.555183946488295" height="1" fill="green" />
  <line x1="591.7224080267559" y1="132.28648892905557" x2="591.7224080267559" y2="137.16674197921373" stroke="black" stroke-width="1" />
  <rect x="583.4448160535118" y="135.72074107546308" width="16.555183946488295" height="1" fill="red" />
</svg>