<svg width="800" height="300" xmlns="http://www.w3.org/2000/svg">
  <line x1="40" y1="250" x2="40" y2="50" stroke="black" stroke-width="2" />
  <line x1="35" y1="250.0" x2="40" y2="250.0" stroke="black" stroke-width="1" />
  <text x="10" y="255.0" font-size="10" fill="black">75</text>
  <line x1="40" y1="250.0" x2="780" y2="250.0" stroke="lightgray" stroke-width="1" stroke-dasharray="5,5" />
  <line x1="35" y1="210.0" x2="40" y2="210.0" stroke="black" stroke-width="1" />
  <text x="10" y="215.0" font-size="10" fill="black">85</text>
  <line x1="40" y1="210.0" x2="780" y2="210.0" stroke="lightgray" stroke-width="1" stroke-dasharray="5,5" />
  <line x1="35" y1="170.0" x2="40" y2="170.0" stroke="black" stroke-width="1" />
  <text x="10" y="175.0" font-size="10" fill="black">95</text>
  <line x1="40" y1="170.0" x2="780" y2="170.0" stroke="lightgray" stroke-width="1" stroke-dasharray="5,5" />
  <line x1="35" y1="130.0" x2="40" y2="130.0" stroke="black" stroke-width="1" />
  <text x="10" y="135.0" font-size="10" fill="black">105</text>
  <line x1="40" y1="130.0" x2="780" y2="130.0" stroke="lightgray" stroke-width="1" stroke-dasharray="5,5" />
  <line x1="35" y1="90.0" x2="40" y2="90.0" stroke="black" stroke-width="1" />
  <text x="10" y="95.0" font-size="10" fill="black">115</text>
  <line x1="40" y1="90.0" x2="780" y2="90.0" stroke="lightgray" stroke-width="1" stroke-dasharray="5,5" />
  <line x1="35" y1="50.0" x2="40" y2="50.0" stroke="black" stroke-width="1" />
  <text x="10" y="55.0" font-size="10" fill="black">125</text>
  <line x1="40" y1="50.0" x2="780" y2="50.0" stroke="lightgray" stroke-width="1" stroke-dasharray="5,5" />
  <line x1="58.27759197324415" y1="133.61354487331278" x2="58.27759197324415" y2="150.66303575657116" stroke="black" stroke-width="1" />
  <rect x="50.0" y="140.58489225668956" width="16.555183946488295" height="9.415107743310443" fill="green" />
  <line x1="76.67224080267559" y1="127.58939142789484" x2="76.67224080267559" y2="144.43049964480224" stroke="black" stroke-width="1" />
  <rect x="68.39464882943145" y="128.08193227563345" width="16.555183946488295" height="10.703291498934448" fill="green" />
  <line x1="95.06688963210702" y1="117.66279895808668" x2="95.06688963210702" y2="134.068197963533" stroke="black" stroke-width="1" />
  <rect x="86.78929765886288" y="123.9900544636514" width="16.555183946488295" height="7.160786170968549" fill="red" />
  <line x1="113.46153846153845" y1="124.40795642907887" x2="113.46153846153845" y2="135.39426947667533" stroke="black" stroke-width="1" />
  <rect x="105.18394648829431" y="127.04001894387875" width="16.555183946488295" height="1.1366327255506121" fill="green" />
  <line x1="131.8561872909699" y1="124.14160549372485" x2="131.8561872909699" y2="151.57234193701163" stroke="black" stroke-width="1" />
  <rect x="123.57859531772576" y="125.99810561212405" width="16.555183946488295" height="24.930144447075577" fill="red" />
  <line x1="150.25083612040135" y1="130.4309732417713" x2="150.25083612040135" y2="144.20317309969215" stroke="black" stroke-width="1" />
  <rect x="141.9732441471572" y="132.62846317783567" width="16.555183946488295" height="11.110584892256668" fill="green" />
  <line x1="168.64548494983276" y1="134.95856026521426" x2="168.64548494983276" y2="150.26521430262846" stroke="black" stroke-width="1" />
  <rect x="160.36789297658862" y="135.60265214302632" width="16.555183946488295" height="10.494908832583462" fill="red" />
  <line x1="187.0401337792642" y1="141.4563106796117" x2="187.0401337792642" y2="157.9753729576131" stroke="black" stroke-width="1" />
  <rect x="178.76254180602007" y="146.02178546057303" width="16.555183946488295" height="7.6533270187071025" fill="red" />
  <line x1="205.43478260869566" y1="148.69287236561684" x2="205.43478260869566" y2="166.21596021785462" stroke="black" stroke-width="1" />
  <rect x="197.1571906354515" y="152.70897466256218" width="16.555183946488295" height="7.520719867392813" fill="red" />
  <line x1="223.8294314381271" y1="142.9149893440682" x2="223.8294314381271" y2="159.81292919725314" stroke="black" stroke-width="1" />
  <rect x="215.55183946488296" y="152.55742363248874" width="16.555183946488295" height="6.6682453232299395" fill="red" />
  <line x1="242.22408026755855" y1="143.52100402557426" x2="242.22408026755855" y2="157.8048780487805" stroke="black" stroke-width="1" />
  <rect x="233.9464882943144" y="144.39261188728392" width="16.555183946488295" height="10.381245560028447" fill="green" />
  <line x1="260.61872909698997" y1="133.4159602178546" x2="260.61872909698997" y2="152.86052569263558" stroke="black" stroke-width="1" />
  <rect x="252.34113712374582" y="142.21406582997867" width="16.555183946488295" height="8.827847501776034" fill="red" />
  <line x1="279.0133779264214" y1="129.02912621359224" x2="279.0133779264214" y2="151.09874496803224" stroke="black" stroke-width="1" />
  <rect x="270.73578595317724" y="134.35235614492063" width="16.555183946488295" height="16.708501065593225" fill="green" />
  <line x1="297.4080267558529" y1="104.81884915936541" x2="297.4080267558529" y2="128.9722945773147" stroke="black" stroke-width="1" />
  <rect x="289.13043478260875" y="113.96874260004745" width="16.555183946488295" height="12.654511011129443" fill="green" />
  <line x1="315.8026755852843" y1="107.47099218565" x2="315.8026755852843" y2="151.2124082405873" stroke="black" stroke-width="1" />
  <rect x="307.52508361204013" y="109.36538006156763" width="16.555183946488295" height="41.43026284631782" fill="red" />
  <line x1="334.19732441471575" y1="133.4809377219986" x2="334.19732441471575" y2="145.2261425526877" stroke="black" stroke-width="1" />
  <rect x="325.9197324414716" y="140.30073407530193" width="16.555183946488295" height="1" fill="green" />
  <line x1="352.5919732441472" y1="121.11058489225667" x2="352.5919732441472" y2="135.8153919014918" stroke="black" stroke-width="1" />
  <rect x="344.314381270903" y="121.54629410371774" width="16.555183946488295" height="11.555766043097321" fill="green" />
  <line x1="370.98662207357864" y1="117.18920198910723" x2="370.98662207357864" y2="139.29614018470284" stroke="black" stroke-width="1" />
  <rect x="362.7090301003345" y="117.83329386691923" width="16.555183946488295" height="6.781908595784955" fill="green" />
  <line x1="389.3812709030101" y1="111.54392611887289" x2="389.3812709030101" y2="125.97916173336489" stroke="black" stroke-width="1" />
  <rect x="381.1036789297659" y="114.65072223537771" width="16.555183946488295" height="9.756097560975604" fill="green" />
  <line x1="407.77591973244154" y1="109.2327729102534" x2="407.77591973244154" y2="121.26213592233012" stroke="black" stroke-width="1" />
  <rect x="399.49832775919737" y="113.74141605493725" width="16.555183946488295" height="4.3381482358513495" fill="green" />
  <line x1="426.170568561873" y1="114.36656405399003" x2="426.170568561873" y2="126.54747809614014" stroke="black" stroke-width="1" />
  <rect x="417.8929765886288" y="115.61686005209566" width="16.555183946488295" height="4.773857447312309" fill="red" />
  <line x1="444.5652173913044" y1="105.63343594600997" x2="444.5652173913044" y2="120.82017523087848" stroke="black" stroke-width="1" />
  <rect x="436.2876254180602" y="115.33270187070804" width="16.555183946488295" height="2.993132843949809" fill="red" />
  <line x1="462.9598662207358" y1="103.53066540374141" x2="462.9598662207358" y2="120.20127871181626" stroke="black" stroke-width="1" />
  <rect x="454.68227424749165" y="114.12029363012078" width="16.555183946488295" height="5.474780961401848" fill="red" />
  <line x1="481.35451505016727" y1="87.3147051858868" x2="481.35451505016727" y2="110.25574236324888" stroke="black" stroke-width="1" />
  <rect x="473.0769230769231" y="87.92090930618048" width="16.555183946488295" height="18.79232772910251" fill="green" />
  <line x1="499.7491638795987" y1="87.78830215486619" x2="499.7491638795987" y2="103.07601231352123" stroke="black" stroke-width="1" />
  <rect x="491.47157190635454" y="92.46744020838264" width="16.555183946488295" height="6.194648354250603" fill="red" />
  <line x1="518.1438127090302" y1="76.40303102060147" x2="518.1438127090302" y2="91.70968505801562" stroke="black" stroke-width="1" />
  <rect x="509.866220735786" y="76.40303102060147" width="16.555183946488295" height="13.999526403031041" fill="green" />
  <line x1="536.5384615384617" y1="62.78238219275397" x2="536.5384615384617" y2="78.20251006393562" stroke="black" stroke-width="1" />
  <rect x="528.2608695652175" y="68.31399479043336" width="16.555183946488295" height="1" fill="green" />
  <line x1="554.933110367893" y1="63.047596495382436" x2="554.933110367893" y2="72.08382666350934" stroke="black" stroke-width="1" />
  <rect x="546.6555183946489" y="63.10442813166003" width="16.555183946488295" height="8.48685768411076" fill="green" />
  <line x1="573.3277591973244" y1="54.14397347856976" x2="573.3277591973244" y2="73.50461757044752" stroke="black" stroke-width="1" />
  <rect x="565.0501672240803" y="56.32251953587496" width="16.555183946488295" height="12.086194648354308" fill="red" />
  <line x1="591.7224080267559" y1="56.133270187070764" x2="591.7224080267559" y2="68.59815297182098" stroke="black" stroke-width="1" />
  <rect x="583.4448160535118" y="56.58773383850348" width="16.555183946488295" height="5.844186597205692" fill="green" />
</svg>