<svg width="800" height="300" xmlns="http://www.w3.org/2000/svg">
  <line x1="40" y1="250" x2="40" y2="50" stroke="black" stroke-width="2" />
  <line x1="35" y1="250.0" x2="40" y2="250.0" stroke="black" stroke-width="1" />
  <text x="10" y="255.0" font-size="10" fill="black">75</text>
  <line x1="40" y1="250.0" x2="780" y2="250.0" stroke="lightgray" stroke-width="1" stroke-dasharray="5,5" />
  <line x1="35" y1="210.0" x2="40" y2="210.0" stroke="black" stroke-width="1" />
  <text x="10" y="215.0" font-size="10" fill="black">85</text>
  <line x1="40" y1="210.0" x2="780" y2="210.0" stroke="lightgray" stroke-width="1" stroke-dasharray="5,5" />
  <line x1="35" y1="170.0" x2="40" y2="170.0" stroke="black" stroke-width="1" />
  <text x="10" y="175.0" font-size="10" fill="black">95</text>
  <line x1="40" y1="170.0" x2="780" y2="170.0" stroke="lightgray" stroke-width="1" stroke-dasharray="5,5" />
  <line x1="35" y1="130.0" x2="40" y2="130.0" stroke="black" stroke-width="1" />
  <text x="10" y="135.0" font-size="10" fill="black">105</text>
  <line x1="40" y1="130.0" x2="780" y2="130.0" stroke="lightgray" stroke-width="1" stroke-dasharray="5,5" />
  <line x1="35" y1="90.0" x2="40" y2="90.0" stroke="black" stroke-width="1" />
  <text x="10" y="95.0" font-size="10" fill="black">115</text>
  <line x1="40" y1="90.0" x2="780" y2="90.0" stroke="lightgray" stroke-width="1" stroke-dasharray="5,5" />
  <line x1="35" y1="50.0" x2="40" y2="50.0" stroke="black" stroke-width="1" />
  <text x="10" y="55.0" font-size="10" fill="black">125</text>
  <line x1="40" y1="50.0" x2="780" y2="50.0" stroke="lightgray" stroke-width="1" stroke-dasharray="5,5" />
  <line x1="58.27759197324415" y1="142.85327558202488" x2="58.27759197324415" y2="150.0" stroke="black" stroke-width="1" />
  <rect x="50.0" y="143.5029778018408" width="16.555183946488295" height="6.497022198159186" fill="green" />
  <line x1="76.67224080267559" y1="140.47103410936649" x2="76.67224080267559" y2="146.75148890092038" stroke="black" stroke-width="1" />
  <rect x="68.39464882943145" y="142.85327558202488" width="16.555183946488295" height="3.8982133188955004" fill="red" />
  <line x1="95.06688963210702" y1="143.28641039523546" x2="95.06688963210702" y2="148.0508933405522" stroke="black" stroke-width="1" />
  <rect x="86.78929765886288" y="145.23551705468327" width="16.555183946488295" height="1" fill="green" />
  <line x1="113.46153846153845" y1="142.85327558202488" x2="113.46153846153845" y2="147.8343259339469" stroke="black" stroke-width="1" />
  <rect x="105.18394648829431" y="146.1017866811045" width="16.555183946488295" height="1.7325392528424004" fill="green" />
  <line x1="131.8561872909699" y1="141.12073632918242" x2="131.8561872909699" y2="147.18462371413096" stroke="black" stroke-width="1" />
  <rect x="123.57859531772576" y="142.20357336220906" width="16.555183946488295" height="4.764482945316615" fill="green" />
  <line x1="150.25083612040135" y1="141.553871142393" x2="150.25083612040135" y2="144.36924742826199" stroke="black" stroke-width="1" />
  <rect x="141.9732441471572" y="141.77043854899836" width="16.555183946488295" height="1.0828370330265216" fill="green" />
  <line x1="168.64548494983276" y1="140.68760151597183" x2="168.64548494983276" y2="143.9361126150514" stroke="black" stroke-width="1" />
  <rect x="160.36789297658862" y="140.68760151597183" width="16.555183946488295" height="1.2994044396318714" fill="red" />
  <line x1="187.0401337792642" y1="140.47103410936649" x2="187.0401337792642" y2="143.5029778018408" stroke="black" stroke-width="1" />
  <rect x="178.76254180602007" y="141.553871142393" width="16.555183946488295" height="1.2994044396318714" fill="green" />
  <line x1="205.43478260869566" y1="137.22252301028692" x2="205.43478260869566" y2="141.553871142393" stroke="black" stroke-width="1" />
  <rect x="197.1571906354515" y="138.5219274499188" width="16.555183946488295" height="3.031943692474215" fill="green" />
  <line x1="223.8294314381271" y1="135.7065511640498" x2="223.8294314381271" y2="138.95506226312938" stroke="black" stroke-width="1" />
  <rect x="215.55183946488296" y="137.8722252301028" width="16.555183946488295" height="1" fill="red" />
  <line x1="242.22408026755855" y1="137.22252301028692" x2="242.22408026755855" y2="142.63670817541964" stroke="black" stroke-width="1" />
  <rect x="233.9464882943144" y="138.5219274499188" width="16.555183946488295" height="1" fill="red" />
  <line x1="260.61872909698997" y1="135.05684894423382" x2="260.61872909698997" y2="145.23551705468327" stroke="black" stroke-width="1" />
  <rect x="252.34113712374582" y="138.30536004331344" width="16.555183946488295" height="6.497022198159129" fill="red" />
  <line x1="279.0133779264214" y1="144.58581483486734" x2="279.0133779264214" y2="150.4331348132106" stroke="black" stroke-width="1" />
  <rect x="270.73578595317724" y="146.53492149431509" width="16.555183946488295" height="2.815376285868979" fill="green" />
  <line x1="297.4080267558529" y1="139.6047644829453" x2="297.4080267558529" y2="147.6177585273416" stroke="black" stroke-width="1" />
  <rect x="289.13043478260875" y="143.71954520844605" width="16.555183946488295" height="3.2485110990796215" fill="green" />
  <line x1="315.8026755852843" y1="143.71954520844605" x2="315.8026755852843" y2="149.35029778018406" stroke="black" stroke-width="1" />
  <rect x="307.52508361204013" y="143.71954520844605" width="16.555183946488295" height="5.6307525717380145" fill="red" />
  <line x1="334.19732441471575" y1="145.88521927449915" x2="334.19732441471575" y2="150.4331348132106" stroke="black" stroke-width="1" />
  <rect x="325.9197324414716" y="147.6177585273416" width="16.555183946488295" height="1.7325392528424572" fill="red" />
  <line x1="352.5919732441472" y1="142.4201407688143" x2="352.5919732441472" y2="149.35029778018406" stroke="black" stroke-width="1" />
  <rect x="344.314381270903" y="147.40119112073626" width="16.555183946488295" height="1.949106659447807" fill="green" />
  <line x1="370.98662207357864" y1="144.15268002165675" x2="370.98662207357864" y2="150.21656740660524" stroke="black" stroke-width="1" />
  <rect x="362.7090301003345" y="147.40119112073626" width="16.555183946488295" height="2.5988088792637427" fill="red" />
  <line x1="389.3812709030101" y1="143.06984298863023" x2="389.3812709030101" y2="149.5668651867894" stroke="black" stroke-width="1" />
  <rect x="381.1036789297659" y="147.6177585273416" width="16.555183946488295" height="1" fill="green" />
  <line x1="407.77591973244154" y1="143.5029778018408" x2="407.77591973244154" y2="147.40119112073626" stroke="black" stroke-width="1" />
  <rect x="399.49832775919737" y="145.45208446128856" width="16.555183946488295" height="1" fill="green" />
  <line x1="426.170568561873" y1="142.85327558202488" x2="426.170568561873" y2="148.0508933405522" stroke="black" stroke-width="1" />
  <rect x="417.8929765886288" y="145.01894964807792" width="16.555183946488295" height="1" fill="green" />
  <line x1="444.5652173913044" y1="134.62371413102323" x2="444.5652173913044" y2="144.15268002165675" stroke="black" stroke-width="1" />
  <rect x="436.2876254180602" y="137.22252301028692" width="16.555183946488295" height="6.930157011369829" fill="green" />
  <line x1="462.9598662207358" y1="136.13968597726046" x2="462.9598662207358" y2="140.0378992961559" stroke="black" stroke-width="1" />
  <rect x="454.68227424749165" y="136.3562533838657" width="16.555183946488295" height="1" fill="green" />
  <line x1="481.35451505016727" y1="128.12669193286405" x2="481.35451505016727" y2="134.19057931781265" stroke="black" stroke-width="1" />
  <rect x="473.0769230769231" y="129.20952896589063" width="16.555183946488295" height="4.981050351922022" fill="green" />
  <line x1="499.7491638795987" y1="145.01894964807792" x2="499.7491638795987" y2="166.0259880887926" stroke="black" stroke-width="1" />
  <rect x="491.47157190635454" y="145.88521927449915" width="16.555183946488295" height="20.140768814293438" fill="red" />
  <line x1="518.1438127090302" y1="162.99404439631832" x2="518.1438127090302" y2="169.9242014076881" stroke="black" stroke-width="1" />
  <rect x="509.866220735786" y="164.51001624255548" width="16.555183946488295" height="1" fill="red" />
  <line x1="536.5384615384617" y1="159.09583107742282" x2="536.5384615384617" y2="165.37628586897665" stroke="black" stroke-width="1" />
  <rect x="528.2608695652175" y="160.82837033026533" width="16.555183946488295" height="1.5159718462371075" fill="red" />
  <line x1="554.933110367893" y1="158.2295614510016" x2="554.933110367893" y2="163.64374661613425" stroke="black" stroke-width="1" />
  <rect x="546.6555183946489" y="159.09583107742282" width="16.555183946488295" height="3.2485110990796215" fill="green" />
  <line x1="573.3277591973244" y1="148.26746074715754" x2="573.3277591973244" y2="158.44612885760694" stroke="black" stroke-width="1" />
  <rect x="565.0501672240803" y="149.5668651867894" width="16.555183946488295" height="8.012994044396237" fill="green" />
  <line x1="591.7224080267559" y1="142.20357336220906" x2="591.7224080267559" y2="149.35029778018406" stroke="black" stroke-width="1" />
  <rect x="583.4448160535118" y="143.9361126150514" width="16.555183946488295" height="5.414185165132665" fill="green" />
</svg>