<svg width="800" height="300" xmlns="http://www.w3.org/2000/svg">
  <line x1="40" y1="250" x2="40" y2="50" stroke="black" stroke-width="2" />
  <line x1="35" y1="250.0" x2="40" y2="250.0" stroke="black" stroke-width="1" />
  <text x="10" y="255.0" font-size="10" fill="black">75</text>
  <line x1="40" y1="250.0" x2="780" y2="250.0" stroke="lightgray" stroke-width="1" stroke-dasharray="5, 5" />
  <line x1="35" y1="210.0" x2="40" y2="210.0" stroke="black" stroke-width="1" />
  <text x="10" y="215.0" font-size="10" fill="black">85</text>
  <line x1="40" y1="210.0" x2="780" y2="210.0" stroke="lightgray" stroke-width="1" stroke-dasharray="5, 5" />
  <line x1="35" y1="170.0" x2="40" y2="170.0" stroke="black" stroke-width="1" />
  <text x="10" y="175.0" font-size="10" fill="black">95</text>
  <line x1="40" y1="170.0" x2="780" y2="170.0" stroke="lightgray" stroke-width="1" stroke-dasharray="5, 5" />
  <line x1="35" y1="130.0" x2="40" y2="130.0" stroke="black" stroke-width="1" />
  <text x="10" y="135.0" font-size="10" fill="black">105</text>
  <line x1="40" y1="130.0" x2="780" y2="130.0" stroke="lightgray" stroke-width="1" stroke-dasharray="5, 5" />
  <line x1="35" y1="90.0" x2="40" y2="90.0" stroke="black" stroke-width="1" />
  <text x="10" y="95.0" font-size="10" fill="black">115</text>
  <line x1="40" y1="90.0" x2="780" y2="90.0" stroke="lightgray" stroke-width="1" stroke-dasharray="5, 5" />
  <line x1="35" y1="50.0" x2="40" y2="50.0" stroke="black" stroke-width="1" />
  <text x="10" y="55.0" font-size="10" fill="black">125</text>
  <line x1="40" y1="50.0" x2="780" y2="50.0" stroke="lightgray" stroke-width="1" stroke-dasharray="5, 5" />
  <line x1="35" y1="150.0" x2="40" y2="150.0" stroke="black" stroke-width="1" />
  <text x="10" y="155.0" font-size="10" fill="black">100</text>
  <line x1="40" y1="150.0" x2="780" y2="150.0" stroke="lightgray" stroke-width="1" stroke-dasharray="5, 5" />
  <line x1="48.666666666666664" y1="145.63924677898905" x2="48.666666666666664" y2="150.9250082590023" stroke="black" stroke-width="1" />
  <rect x="40.86666666666667" y="146.2999669639907" width="15.6" height="3.7000330360093017" fill="green" />
  <line x1="66.0" y1="140.35348529897584" x2="66.0" y2="145.37495870498844" stroke="black" stroke-width="1" />
  <rect x="58.199999999999996" y="142.0713577799802" width="15.6" height="3.3036009250082543" fill="green" />
  <line x1="83.33333333333333" y1="139.6927651139742" x2="83.33333333333333" y2="142.99636603898244" stroke="black" stroke-width="1" />
  <rect x="75.53333333333332" y="141.80706970597947" width="15.6" height="1" fill="green" />
  <line x1="100.66666666666667" y1="142.99636603898244" x2="100.66666666666667" y2="148.9428477039973" stroke="black" stroke-width="1" />
  <rect x="92.86666666666666" y="143.78923026098443" width="15.6" height="4.228609184010622" fill="red" />
  <line x1="118.0" y1="142.86422200198217" x2="118.0" y2="147.22497522299307" stroke="black" stroke-width="1" />
  <rect x="110.19999999999999" y="144.58209448298646" width="15.6" height="2.3785926660058863" fill="green" />
  <line x1="135.33333333333331" y1="140.35348529897584" x2="135.33333333333331" y2="149.33927981499835" stroke="black" stroke-width="1" />
  <rect x="127.53333333333332" y="141.67492566897926" width="15.6" height="7.267922035018046" fill="green" />
  <line x1="152.66666666666666" y1="139.4284770399736" x2="152.66666666666666" y2="149.33927981499835" stroke="black" stroke-width="1" />
  <rect x="144.86666666666667" y="141.93921374297986" width="15.6" height="7.40006607201849" fill="red" />
  <line x1="169.99999999999997" y1="147.75355137099433" x2="169.99999999999997" y2="151.7178724810043" stroke="black" stroke-width="1" />
  <rect x="162.2" y="149.33927981499835" width="15.6" height="1.1892963330029716" fill="red" />
  <line x1="187.33333333333331" y1="145.37495870498844" x2="187.33333333333331" y2="150.26428807400066" stroke="black" stroke-width="1" />
  <rect x="179.53333333333333" y="149.73571192599928" width="15.6" height="1" fill="green" />
  <line x1="204.66666666666666" y1="144.18566237198547" x2="204.66666666666666" y2="149.47142385199868" stroke="black" stroke-width="1" />
  <rect x="196.86666666666667" y="145.90353485298976" width="15.6" height="3.5678889990089147" fill="green" />
  <line x1="221.99999999999997" y1="138.6356128179716" x2="221.99999999999997" y2="148.81070366699703" stroke="black" stroke-width="1" />
  <rect x="214.2" y="141.2784935579782" width="15.6" height="4.625041295011556" fill="green" />
  <line x1="239.33333333333331" y1="137.18202841096792" x2="239.33333333333331" y2="146.69639907499175" stroke="black" stroke-width="1" />
  <rect x="231.53333333333333" y="141.2784935579782" width="15.6" height="2.246448629005556" fill="red" />
  <line x1="256.6666666666667" y1="148.54641559299637" x2="256.6666666666667" y2="152.11430459200528" stroke="black" stroke-width="1" />
  <rect x="248.86666666666667" y="150.26428807400066" width="15.6" height="1.8500165180046224" fill="red" />
  <line x1="274.0" y1="147.22497522299307" x2="274.0" y2="161.10009910802773" stroke="black" stroke-width="1" />
  <rect x="266.2" y="152.11430459200528" width="15.6" height="6.475057813016178" fill="red" />
  <line x1="291.3333333333333" y1="157.9286422200198" x2="291.3333333333333" y2="166.2537165510406" stroke="black" stroke-width="1" />
  <rect x="283.5333333333333" y="158.58936240502146" width="15.6" height="4.492897258011226" fill="red" />
  <line x1="308.6666666666667" y1="160.43937892302608" x2="308.6666666666667" y2="167.70730095804424" stroke="black" stroke-width="1" />
  <rect x="300.8666666666667" y="163.0822596630327" width="15.6" height="4.492897258011226" fill="red" />
  <line x1="326.0" y1="163.21440370003302" x2="326.0" y2="167.5751569210439" stroke="black" stroke-width="1" />
  <rect x="318.2" y="166.12157251404028" width="15.6" height="1.3214403700033586" fill="green" />
  <line x1="343.3333333333333" y1="164.403700033036" x2="343.3333333333333" y2="171.27518995705316" stroke="black" stroke-width="1" />
  <rect x="335.5333333333333" y="166.12157251404028" width="15.6" height="3.964321110009962" fill="red" />
  <line x1="360.6666666666667" y1="163.74297984803434" x2="360.6666666666667" y2="168.1037330690453" stroke="black" stroke-width="1" />
  <rect x="352.8666666666667" y="166.51800462504133" width="15.6" height="1.585728444003962" fill="green" />
  <line x1="378.0" y1="161.89296333002972" x2="378.0" y2="165.98942847703995" stroke="black" stroke-width="1" />
  <rect x="370.2" y="162.81797158903203" width="15.6" height="3.171456888007924" fill="green" />
  <line x1="395.3333333333333" y1="163.34654773703335" x2="395.3333333333333" y2="165.85728444003962" stroke="black" stroke-width="1" />
  <rect x="387.5333333333333" y="164.13941195903539" width="15.6" height="1.1892963330029147" fill="red" />
  <line x1="412.6666666666667" y1="160.0429468120251" x2="412.6666666666667" y2="166.6501486620416" stroke="black" stroke-width="1" />
  <rect x="404.8666666666667" y="161.10009910802773" width="15.6" height="5.0214734060125465" fill="green" />
  <line x1="430.0" y1="158.7215064420218" x2="430.0" y2="162.6858275520317" stroke="black" stroke-width="1" />
  <rect x="422.2" y="158.7215064420218" width="15.6" height="2.378592666005943" fill="green" />
  <line x1="447.3333333333333" y1="148.14998348199538" x2="447.3333333333333" y2="155.94648166501486" stroke="black" stroke-width="1" />
  <rect x="439.5333333333333" y="155.41790551701354" width="15.6" height="1" fill="green" />
  <line x1="464.6666666666667" y1="153.70003303600924" x2="464.6666666666667" y2="167.17872481004298" stroke="black" stroke-width="1" />
  <rect x="456.8666666666667" y="154.49289725801123" width="15.6" height="10.175090849025423" fill="red" />
  <line x1="482.0" y1="161.76081929302939" x2="482.0" y2="167.0465807730426" stroke="black" stroke-width="1" />
  <rect x="474.2" y="163.0822596630327" width="15.6" height="1.585728444003962" fill="green" />
  <line x1="499.3333333333333" y1="153.30360092500825" x2="499.3333333333333" y2="158.98579451602245" stroke="black" stroke-width="1" />
  <rect x="491.5333333333333" y="155.15361744301288" width="15.6" height="3.832177073009575" fill="green" />
  <line x1="516.6666666666666" y1="152.90716881400726" x2="516.6666666666666" y2="161.89296333002972" stroke="black" stroke-width="1" />
  <rect x="508.8666666666666" y="156.21076973901552" width="15.6" height="5.153617443012877" fill="red" />
  <line x1="533.9999999999999" y1="150.79286422200198" x2="533.9999999999999" y2="158.3250743310208" stroke="black" stroke-width="1" />
  <rect x="526.1999999999999" y="152.51073670300627" width="15.6" height="5.682193591014254" fill="green" />
  <line x1="551.3333333333333" y1="148.54641559299637" x2="551.3333333333333" y2="155.2857614800132" stroke="black" stroke-width="1" />
  <rect x="543.5333333333333" y="152.51073670300627" width="15.6" height="2.5107367030062733" fill="red" />

<!-- Resistance Line -->
<line x1="40" y1="140" x2="600" y2="140" stroke="blue" stroke-width="2" />
<text x="605" y="140" font-size="10" fill="blue">Resistance</text>

<!-- Support Line -->
<line x1="40" y1="160" x2="600" y2="160" stroke="green" stroke-width="2" />
<text x="605" y="160" font-size="10" fill="green">Support</text>

<!-- Trendline -->
<line x1="40" y1="170" x2="600" y2="150" stroke="purple" stroke-width="2" />
<text x="605" y="150" font-size="10" fill="purple">Trendline</text>
</svg>