<svg width="800" height="300" xmlns="http://www.w3.org/2000/svg">
  <line x1="40" y1="250" x2="40" y2="50" stroke="black" stroke-width="2" />
  <line x1="35" y1="250.0" x2="40" y2="250.0" stroke="black" stroke-width="1" />
  <text x="10" y="255.0" font-size="10" fill="black">75</text>
  <line x1="40" y1="250.0" x2="780" y2="250.0" stroke="lightgray" stroke-width="1" stroke-dasharray="5,5" />
  <line x1="35" y1="210.0" x2="40" y2="210.0" stroke="black" stroke-width="1" />
  <text x="10" y="215.0" font-size="10" fill="black">85</text>
  <line x1="40" y1="210.0" x2="780" y2="210.0" stroke="lightgray" stroke-width="1" stroke-dasharray="5,5" />
  <line x1="35" y1="170.0" x2="40" y2="170.0" stroke="black" stroke-width="1" />
  <text x="10" y="175.0" font-size="10" fill="black">95</text>
  <line x1="40" y1="170.0" x2="780" y2="170.0" stroke="lightgray" stroke-width="1" stroke-dasharray="5,5" />
  <line x1="35" y1="130.0" x2="40" y2="130.0" stroke="black" stroke-width="1" />
  <text x="10" y="135.0" font-size="10" fill="black">105</text>
  <line x1="40" y1="130.0" x2="780" y2="130.0" stroke="lightgray" stroke-width="1" stroke-dasharray="5,5" />
  <line x1="35" y1="90.0" x2="40" y2="90.0" stroke="black" stroke-width="1" />
  <text x="10" y="95.0" font-size="10" fill="black">115</text>
  <line x1="40" y1="90.0" x2="780" y2="90.0" stroke="lightgray" stroke-width="1" stroke-dasharray="5,5" />
  <line x1="35" y1="50.0" x2="40" y2="50.0" stroke="black" stroke-width="1" />
  <text x="10" y="55.0" font-size="10" fill="black">125</text>
  <line x1="40" y1="50.0" x2="780" y2="50.0" stroke="lightgray" stroke-width="1" stroke-dasharray="5,5" />
  <line x1="58.27759197324415" y1="145.63924677898905" x2="58.27759197324415" y2="150.9250082590023" stroke="black" stroke-width="1" />
  <rect x="50.0" y="146.2999669639907" width="16.555183946488295" height="3.7000330360093017" fill="green" />
  <line x1="76.67224080267559" y1="140.35348529897584" x2="76.67224080267559" y2="145.37495870498844" stroke="black" stroke-width="1" />
  <rect x="68.39464882943145" y="142.0713577799802" width="16.555183946488295" height="3.3036009250082543" fill="green" />
  <line x1="95.06688963210702" y1="139.6927651139742" x2="95.06688963210702" y2="142.99636603898244" stroke="black" stroke-width="1" />
  <rect x="86.78929765886288" y="141.80706970597947" width="16.555183946488295" height="1" fill="green" />
  <line x1="113.46153846153845" y1="142.99636603898244" x2="113.46153846153845" y2="148.9428477039973" stroke="black" stroke-width="1" />
  <rect x="105.18394648829431" y="143.78923026098443" width="16.555183946488295" height="4.228609184010622" fill="red" />
  <line x1="131.8561872909699" y1="142.86422200198217" x2="131.8561872909699" y2="147.22497522299307" stroke="black" stroke-width="1" />
  <rect x="123.57859531772576" y="144.58209448298646" width="16.555183946488295" height="2.3785926660058863" fill="green" />
  <line x1="150.25083612040135" y1="140.35348529897584" x2="150.25083612040135" y2="149.33927981499835" stroke="black" stroke-width="1" />
  <rect x="141.9732441471572" y="141.67492566897926" width="16.555183946488295" height="7.267922035018046" fill="green" />
  <line x1="168.64548494983276" y1="139.4284770399736" x2="168.64548494983276" y2="149.33927981499835" stroke="black" stroke-width="1" />
  <rect x="160.36789297658862" y="141.93921374297986" width="16.555183946488295" height="7.40006607201849" fill="red" />
  <line x1="187.0401337792642" y1="147.75355137099433" x2="187.0401337792642" y2="151.7178724810043" stroke="black" stroke-width="1" />
  <rect x="178.76254180602007" y="149.33927981499835" width="16.555183946488295" height="1.1892963330029716" fill="red" />
  <line x1="205.43478260869566" y1="145.37495870498844" x2="205.43478260869566" y2="150.26428807400066" stroke="black" stroke-width="1" />
  <rect x="197.1571906354515" y="149.73571192599928" width="16.555183946488295" height="1" fill="green" />
  <line x1="223.8294314381271" y1="144.18566237198547" x2="223.8294314381271" y2="149.47142385199868" stroke="black" stroke-width="1" />
  <rect x="215.55183946488296" y="145.90353485298976" width="16.555183946488295" height="3.5678889990089147" fill="green" />
  <line x1="242.22408026755855" y1="138.6356128179716" x2="242.22408026755855" y2="148.81070366699703" stroke="black" stroke-width="1" />
  <rect x="233.9464882943144" y="141.2784935579782" width="16.555183946488295" height="4.625041295011556" fill="green" />
  <line x1="260.61872909698997" y1="137.18202841096792" x2="260.61872909698997" y2="146.69639907499175" stroke="black" stroke-width="1" />
  <rect x="252.34113712374582" y="141.2784935579782" width="16.555183946488295" height="2.246448629005556" fill="red" />
  <line x1="279.0133779264214" y1="148.54641559299637" x2="279.0133779264214" y2="152.11430459200528" stroke="black" stroke-width="1" />
  <rect x="270.73578595317724" y="150.26428807400066" width="16.555183946488295" height="1.8500165180046224" fill="red" />
  <line x1="297.4080267558529" y1="147.22497522299307" x2="297.4080267558529" y2="161.10009910802773" stroke="black" stroke-width="1" />
  <rect x="289.13043478260875" y="152.11430459200528" width="16.555183946488295" height="6.475057813016178" fill="red" />
  <line x1="315.8026755852843" y1="157.9286422200198" x2="315.8026755852843" y2="166.2537165510406" stroke="black" stroke-width="1" />
  <rect x="307.52508361204013" y="158.58936240502146" width="16.555183946488295" height="4.492897258011226" fill="red" />
  <line x1="334.19732441471575" y1="160.43937892302608" x2="334.19732441471575" y2="167.70730095804424" stroke="black" stroke-width="1" />
  <rect x="325.9197324414716" y="163.0822596630327" width="16.555183946488295" height="4.492897258011226" fill="red" />
  <line x1="352.5919732441472" y1="163.21440370003302" x2="352.5919732441472" y2="167.5751569210439" stroke="black" stroke-width="1" />
  <rect x="344.314381270903" y="166.12157251404028" width="16.555183946488295" height="1.3214403700033586" fill="green" />
  <line x1="370.98662207357864" y1="164.403700033036" x2="370.98662207357864" y2="171.27518995705316" stroke="black" stroke-width="1" />
  <rect x="362.7090301003345" y="166.12157251404028" width="16.555183946488295" height="3.964321110009962" fill="red" />
  <line x1="389.3812709030101" y1="163.74297984803434" x2="389.3812709030101" y2="168.1037330690453" stroke="black" stroke-width="1" />
  <rect x="381.1036789297659" y="166.51800462504133" width="16.555183946488295" height="1.585728444003962" fill="green" />
  <line x1="407.77591973244154" y1="161.89296333002972" x2="407.77591973244154" y2="165.98942847703995" stroke="black" stroke-width="1" />
  <rect x="399.49832775919737" y="162.81797158903203" width="16.555183946488295" height="3.171456888007924" fill="green" />
  <line x1="426.170568561873" y1="163.34654773703335" x2="426.170568561873" y2="165.85728444003962" stroke="black" stroke-width="1" />
  <rect x="417.8929765886288" y="164.13941195903539" width="16.555183946488295" height="1.1892963330029147" fill="red" />
  <line x1="444.5652173913044" y1="160.0429468120251" x2="444.5652173913044" y2="166.6501486620416" stroke="black" stroke-width="1" />
  <rect x="436.2876254180602" y="161.10009910802773" width="16.555183946488295" height="5.0214734060125465" fill="green" />
  <line x1="462.9598662207358" y1="158.7215064420218" x2="462.9598662207358" y2="162.6858275520317" stroke="black" stroke-width="1" />
  <rect x="454.68227424749165" y="158.7215064420218" width="16.555183946488295" height="2.378592666005943" fill="green" />
  <line x1="481.35451505016727" y1="148.14998348199538" x2="481.35451505016727" y2="155.94648166501486" stroke="black" stroke-width="1" />
  <rect x="473.0769230769231" y="155.41790551701354" width="16.555183946488295" height="1" fill="green" />
  <line x1="499.7491638795987" y1="153.70003303600924" x2="499.7491638795987" y2="167.17872481004298" stroke="black" stroke-width="1" />
  <rect x="491.47157190635454" y="154.49289725801123" width="16.555183946488295" height="10.175090849025423" fill="red" />
  <line x1="518.1438127090302" y1="161.76081929302939" x2="518.1438127090302" y2="167.0465807730426" stroke="black" stroke-width="1" />
  <rect x="509.866220735786" y="163.0822596630327" width="16.555183946488295" height="1.585728444003962" fill="green" />
  <line x1="536.5384615384617" y1="153.30360092500825" x2="536.5384615384617" y2="158.98579451602245" stroke="black" stroke-width="1" />
  <rect x="528.2608695652175" y="155.15361744301288" width="16.555183946488295" height="3.832177073009575" fill="green" />
  <line x1="554.933110367893" y1="152.90716881400726" x2="554.933110367893" y2="161.89296333002972" stroke="black" stroke-width="1" />
  <rect x="546.6555183946489" y="156.21076973901552" width="16.555183946488295" height="5.153617443012877" fill="red" />
  <line x1="573.3277591973244" y1="150.79286422200198" x2="573.3277591973244" y2="158.3250743310208" stroke="black" stroke-width="1" />
  <rect x="565.0501672240803" y="152.51073670300627" width="16.555183946488295" height="5.682193591014254" fill="green" />
  <line x1="591.7224080267559" y1="148.54641559299637" x2="591.7224080267559" y2="155.2857614800132" stroke="black" stroke-width="1" />
  <rect x="583.4448160535118" y="152.51073670300627" width="16.555183946488295" height="2.5107367030062733" fill="red" />
</svg>