<svg width="800" height="300" xmlns="http://www.w3.org/2000/svg">
  <line x1="40" y1="250" x2="40" y2="50" stroke="black" stroke-width="2" />
  <line x1="35" y1="250.0" x2="40" y2="250.0" stroke="black" stroke-width="1" />
  <text x="10" y="255.0" font-size="10" fill="black">75</text>
  <line x1="40" y1="250.0" x2="780" y2="250.0" stroke="lightgray" stroke-width="1" stroke-dasharray="5,5" />
  <line x1="35" y1="210.0" x2="40" y2="210.0" stroke="black" stroke-width="1" />
  <text x="10" y="215.0" font-size="10" fill="black">85</text>
  <line x1="40" y1="210.0" x2="780" y2="210.0" stroke="lightgray" stroke-width="1" stroke-dasharray="5,5" />
  <line x1="35" y1="170.0" x2="40" y2="170.0" stroke="black" stroke-width="1" />
  <text x="10" y="175.0" font-size="10" fill="black">95</text>
  <line x1="40" y1="170.0" x2="780" y2="170.0" stroke="lightgray" stroke-width="1" stroke-dasharray="5,5" />
  <line x1="35" y1="130.0" x2="40" y2="130.0" stroke="black" stroke-width="1" />
  <text x="10" y="135.0" font-size="10" fill="black">105</text>
  <line x1="40" y1="130.0" x2="780" y2="130.0" stroke="lightgray" stroke-width="1" stroke-dasharray="5,5" />
  <line x1="35" y1="90.0" x2="40" y2="90.0" stroke="black" stroke-width="1" />
  <text x="10" y="95.0" font-size="10" fill="black">115</text>
  <line x1="40" y1="90.0" x2="780" y2="90.0" stroke="lightgray" stroke-width="1" stroke-dasharray="5,5" />
  <line x1="35" y1="50.0" x2="40" y2="50.0" stroke="black" stroke-width="1" />
  <text x="10" y="55.0" font-size="10" fill="black">125</text>
  <line x1="40" y1="50.0" x2="780" y2="50.0" stroke="lightgray" stroke-width="1" stroke-dasharray="5,5" />
  <line x1="58.27759197324415" y1="144.3150414528227" x2="58.27759197324415" y2="150.0" stroke="black" stroke-width="1" />
  <rect x="50.0" y="145.262534544019" width="16.555183946488295" height="4.73746545598101" fill="green" />
  <line x1="76.67224080267559" y1="140.68298460323723" x2="76.67224080267559" y2="147.6312672720095" stroke="black" stroke-width="1" />
  <rect x="68.39464882943145" y="144.94670351362015" width="16.555183946488295" height="2.2108172127911416" fill="red" />
  <line x1="95.06688963210702" y1="143.52546387682594" x2="95.06688963210702" y2="147.1575207264113" stroke="black" stroke-width="1" />
  <rect x="86.78929765886288" y="143.52546387682594" width="16.555183946488295" height="3.6320568495853536" fill="green" />
  <line x1="113.46153846153845" y1="142.26213975523086" x2="113.46153846153845" y2="147.3154362416107" stroke="black" stroke-width="1" />
  <rect x="105.18394648829431" y="142.89380181602837" width="16.555183946488295" height="1" fill="green" />
  <line x1="131.8561872909699" y1="142.26213975523086" x2="131.8561872909699" y2="148.89459139360446" stroke="black" stroke-width="1" />
  <rect x="123.57859531772576" y="142.26213975523086" width="16.555183946488295" height="1.4212396367943825" fill="green" />
  <line x1="150.25083612040135" y1="142.42005527043034" x2="150.25083612040135" y2="149.5262534544019" stroke="black" stroke-width="1" />
  <rect x="141.9732441471572" y="142.42005527043034" width="16.555183946488295" height="4.895380971180373" fill="red" />
  <line x1="168.64548494983276" y1="147.3154362416107" x2="168.64548494983276" y2="153.78997236478483" stroke="black" stroke-width="1" />
  <rect x="160.36789297658862" y="147.3154362416107" width="16.555183946488295" height="4.89538097118043" fill="red" />
  <line x1="187.0401337792642" y1="151.42123963679433" x2="187.0401337792642" y2="155.36912751677852" stroke="black" stroke-width="1" />
  <rect x="178.76254180602007" y="151.73707066719305" width="16.555183946488295" height="1.737070667193052" fill="red" />
  <line x1="205.43478260869566" y1="144.94670351362015" x2="205.43478260869566" y2="153.6320568495854" stroke="black" stroke-width="1" />
  <rect x="197.1571906354515" y="147.6312672720095" width="16.555183946488295" height="5.842874062376609" fill="green" />
  <line x1="223.8294314381271" y1="138.4721673904461" x2="223.8294314381271" y2="147.94709830240816" stroke="black" stroke-width="1" />
  <rect x="215.55183946488296" y="140.998815633636" width="16.555183946488295" height="6.632451638373482" fill="green" />
  <line x1="242.22408026755855" y1="141.31464666403468" x2="242.22408026755855" y2="148.42084484800625" stroke="black" stroke-width="1" />
  <rect x="233.9464882943144" y="142.42005527043034" width="16.555183946488295" height="1" fill="red" />
  <line x1="260.61872909698997" y1="140.68298460323723" x2="260.61872909698997" y2="152.05290169759178" stroke="black" stroke-width="1" />
  <rect x="252.34113712374582" y="144.63087248322142" width="16.555183946488295" height="6.316620607974755" fill="red" />
  <line x1="279.0133779264214" y1="154.26371891038298" x2="279.0133779264214" y2="162.1594946703513" stroke="black" stroke-width="1" />
  <rect x="270.73578595317724" y="156.63245163837342" width="16.555183946488295" height="5.211212001579213" fill="red" />
  <line x1="297.4080267558529" y1="161.84366363995264" x2="297.4080267558529" y2="173.84524279510458" stroke="black" stroke-width="1" />
  <rect x="289.13043478260875" y="162.31741018555067" width="16.555183946488295" height="9.159099881563463" fill="red" />
  <line x1="315.8026755852843" y1="168.47611527832606" x2="315.8026755852843" y2="177.16146861429132" stroke="black" stroke-width="1" />
  <rect x="307.52508361204013" y="172.58191867350968" width="16.555183946488295" height="4.26371891038292" fill="red" />
  <line x1="334.19732441471575" y1="170.21318594551911" x2="334.19732441471575" y2="176.8456375838926" stroke="black" stroke-width="1" />
  <rect x="325.9197324414716" y="175.1085669166996" width="16.555183946488295" height="1.7370706671929952" fill="red" />
  <line x1="352.5919732441472" y1="170.05527043031975" x2="352.5919732441472" y2="176.68772206869323" stroke="black" stroke-width="1" />
  <rect x="344.314381270903" y="173.68732727990522" width="16.555183946488295" height="2.8424792735886513" fill="green" />
  <line x1="370.98662207357864" y1="166.739044611133" x2="370.98662207357864" y2="175.1085669166996" stroke="black" stroke-width="1" />
  <rect x="362.7090301003345" y="173.05566521910777" width="16.555183946488295" height="1.2633241215949624" fill="red" />
  <line x1="389.3812709030101" y1="163.26490327674696" x2="389.3812709030101" y2="172.73983418870904" stroke="black" stroke-width="1" />
  <rect x="381.1036789297659" y="168.3181997631267" width="16.555183946488295" height="4.42163442558234" fill="red" />
  <line x1="407.77591973244154" y1="165.00197394393996" x2="407.77591973244154" y2="171.63442558231338" stroke="black" stroke-width="1" />
  <rect x="399.49832775919737" y="168.47611527832606" width="16.555183946488295" height="3.158310303987321" fill="green" />
  <line x1="426.170568561873" y1="164.52822739834187" x2="426.170568561873" y2="170.52901697591784" stroke="black" stroke-width="1" />
  <rect x="417.8929765886288" y="167.05487564153174" width="16.555183946488295" height="1.1054086063955992" fill="green" />
  <line x1="444.5652173913044" y1="158.05369127516775" x2="444.5652173913044" y2="167.05487564153174" stroke="black" stroke-width="1" />
  <rect x="436.2876254180602" y="159.47493091196208" width="16.555183946488295" height="7.579944729569661" fill="green" />
  <line x1="462.9598662207358" y1="157.57994472956966" x2="462.9598662207358" y2="161.52783260955385" stroke="black" stroke-width="1" />
  <rect x="454.68227424749165" y="157.57994472956966" width="16.555183946488295" height="2.0529016975917784" fill="green" />
  <line x1="481.35451505016727" y1="143.8412949072246" x2="481.35451505016727" y2="156.15870509277534" stroke="black" stroke-width="1" />
  <rect x="473.0769230769231" y="146.2100276352151" width="16.555183946488295" height="6.948282668772208" fill="green" />
  <line x1="499.7491638795987" y1="141.9463087248322" x2="499.7491638795987" y2="149.5262534544019" stroke="black" stroke-width="1" />
  <rect x="491.47157190635454" y="145.10461902881957" width="16.555183946488295" height="4.105803395183557" fill="red" />
  <line x1="518.1438127090302" y1="147.94709830240816" x2="518.1438127090302" y2="155.68495854717725" stroke="black" stroke-width="1" />
  <rect x="509.866220735786" y="149.05250690880376" width="16.555183946488295" height="4.105803395183557" fill="red" />
  <line x1="536.5384615384617" y1="143.36754836162652" x2="536.5384615384617" y2="150.94749309119618" stroke="black" stroke-width="1" />
  <rect x="528.2608695652175" y="147.94709830240816" width="16.555183946488295" height="3.0003947887880145" fill="red" />
  <line x1="554.933110367893" y1="103.09909198578754" x2="554.933110367893" y2="119.99605211211997" stroke="black" stroke-width="1" />
  <rect x="546.6555183946489" y="104.2045005921832" width="16.555183946488295" height="13.106987761547543" fill="green" />
  <line x1="573.3277591973244" y1="74.6742992499012" x2="573.3277591973244" y2="101.99368337939194" stroke="black" stroke-width="1" />
  <rect x="565.0501672240803" y="77.67469403868927" width="16.555183946488295" height="20.371101460718535" fill="green" />
  <line x1="591.7224080267559" y1="74.51638373470189" x2="591.7224080267559" y2="85.72838531385713" stroke="black" stroke-width="1" />
  <rect x="583.4448160535118" y="76.56928543229367" width="16.555183946488295" height="4.737465455981123" fill="red" />
</svg>