<svg width="800" height="300" xmlns="http://www.w3.org/2000/svg">
  <line x1="40" y1="250" x2="40" y2="50" stroke="black" stroke-width="2" />
  <line x1="35" y1="250.0" x2="40" y2="250.0" stroke="black" stroke-width="1" />
  <text x="10" y="255.0" font-size="10" fill="black">75</text>
  <line x1="40" y1="250.0" x2="780" y2="250.0" stroke="lightgray" stroke-width="1" stroke-dasharray="5, 5" />
  <line x1="35" y1="210.0" x2="40" y2="210.0" stroke="black" stroke-width="1" />
  <text x="10" y="215.0" font-size="10" fill="black">85</text>
  <line x1="40" y1="210.0" x2="780" y2="210.0" stroke="lightgray" stroke-width="1" stroke-dasharray="5, 5" />
  <line x1="35" y1="170.0" x2="40" y2="170.0" stroke="black" stroke-width="1" />
  <text x="10" y="175.0" font-size="10" fill="black">95</text>
  <line x1="40" y1="170.0" x2="780" y2="170.0" stroke="lightgray" stroke-width="1" stroke-dasharray="5, 5" />
  <line x1="35" y1="130.0" x2="40" y2="130.0" stroke="black" stroke-width="1" />
  <text x="10" y="135.0" font-size="10" fill="black">105</text>
  <line x1="40" y1="130.0" x2="780" y2="130.0" stroke="lightgray" stroke-width="1" stroke-dasharray="5, 5" />
  <line x1="35" y1="90.0" x2="40" y2="90.0" stroke="black" stroke-width="1" />
  <text x="10" y="95.0" font-size="10" fill="black">115</text>
  <line x1="40" y1="90.0" x2="780" y2="90.0" stroke="lightgray" stroke-width="1" stroke-dasharray="5, 5" />
  <line x1="35" y1="50.0" x2="40" y2="50.0" stroke="black" stroke-width="1" />
  <text x="10" y="55.0" font-size="10" fill="black">125</text>
  <line x1="40" y1="50.0" x2="780" y2="50.0" stroke="lightgray" stroke-width="1" stroke-dasharray="5, 5" />
  <line x1="35" y1="150.0" x2="40" y2="150.0" stroke="black" stroke-width="1" />
  <text x="10" y="155.0" font-size="10" fill="black">100</text>
  <line x1="40" y1="150.0" x2="780" y2="150.0" stroke="lightgray" stroke-width="1" stroke-dasharray="5, 5" />
  <line x1="48.666666666666664" y1="144.3150414528227" x2="48.666666666666664" y2="150.0" stroke="black" stroke-width="1" />
  <rect x="40.86666666666667" y="145.262534544019" width="15.6" height="4.73746545598101" fill="green" />
  <line x1="66.0" y1="140.68298460323723" x2="66.0" y2="147.6312672720095" stroke="black" stroke-width="1" />
  <rect x="58.199999999999996" y="144.94670351362015" width="15.6" height="2.2108172127911416" fill="red" />
  <line x1="83.33333333333333" y1="143.52546387682594" x2="83.33333333333333" y2="147.1575207264113" stroke="black" stroke-width="1" />
  <rect x="75.53333333333332" y="143.52546387682594" width="15.6" height="3.6320568495853536" fill="green" />
  <line x1="100.66666666666667" y1="142.26213975523086" x2="100.66666666666667" y2="147.3154362416107" stroke="black" stroke-width="1" />
  <rect x="92.86666666666666" y="142.89380181602837" width="15.6" height="1" fill="green" />
  <line x1="118.0" y1="142.26213975523086" x2="118.0" y2="148.89459139360446" stroke="black" stroke-width="1" />
  <rect x="110.19999999999999" y="142.26213975523086" width="15.6" height="1.4212396367943825" fill="green" />
  <line x1="135.33333333333331" y1="142.42005527043034" x2="135.33333333333331" y2="149.5262534544019" stroke="black" stroke-width="1" />
  <rect x="127.53333333333332" y="142.42005527043034" width="15.6" height="4.895380971180373" fill="red" />
  <line x1="152.66666666666666" y1="147.3154362416107" x2="152.66666666666666" y2="153.78997236478483" stroke="black" stroke-width="1" />
  <rect x="144.86666666666667" y="147.3154362416107" width="15.6" height="4.89538097118043" fill="red" />
  <line x1="169.99999999999997" y1="151.42123963679433" x2="169.99999999999997" y2="155.36912751677852" stroke="black" stroke-width="1" />
  <rect x="162.2" y="151.73707066719305" width="15.6" height="1.737070667193052" fill="red" />
  <line x1="187.33333333333331" y1="144.94670351362015" x2="187.33333333333331" y2="153.6320568495854" stroke="black" stroke-width="1" />
  <rect x="179.53333333333333" y="147.6312672720095" width="15.6" height="5.842874062376609" fill="green" />
  <line x1="204.66666666666666" y1="138.4721673904461" x2="204.66666666666666" y2="147.94709830240816" stroke="black" stroke-width="1" />
  <rect x="196.86666666666667" y="140.998815633636" width="15.6" height="6.632451638373482" fill="green" />
  <line x1="221.99999999999997" y1="141.31464666403468" x2="221.99999999999997" y2="148.42084484800625" stroke="black" stroke-width="1" />
  <rect x="214.2" y="142.42005527043034" width="15.6" height="1" fill="red" />
  <line x1="239.33333333333331" y1="140.68298460323723" x2="239.33333333333331" y2="152.05290169759178" stroke="black" stroke-width="1" />
  <rect x="231.53333333333333" y="144.63087248322142" width="15.6" height="6.316620607974755" fill="red" />
  <line x1="256.6666666666667" y1="154.26371891038298" x2="256.6666666666667" y2="162.1594946703513" stroke="black" stroke-width="1" />
  <rect x="248.86666666666667" y="156.63245163837342" width="15.6" height="5.211212001579213" fill="red" />
  <line x1="274.0" y1="161.84366363995264" x2="274.0" y2="173.84524279510458" stroke="black" stroke-width="1" />
  <rect x="266.2" y="162.31741018555067" width="15.6" height="9.159099881563463" fill="red" />
  <line x1="291.3333333333333" y1="168.47611527832606" x2="291.3333333333333" y2="177.16146861429132" stroke="black" stroke-width="1" />
  <rect x="283.5333333333333" y="172.58191867350968" width="15.6" height="4.26371891038292" fill="red" />
  <line x1="308.6666666666667" y1="170.21318594551911" x2="308.6666666666667" y2="176.8456375838926" stroke="black" stroke-width="1" />
  <rect x="300.8666666666667" y="175.1085669166996" width="15.6" height="1.7370706671929952" fill="red" />
  <line x1="326.0" y1="170.05527043031975" x2="326.0" y2="176.68772206869323" stroke="black" stroke-width="1" />
  <rect x="318.2" y="173.68732727990522" width="15.6" height="2.8424792735886513" fill="green" />
  <line x1="343.3333333333333" y1="166.739044611133" x2="343.3333333333333" y2="175.1085669166996" stroke="black" stroke-width="1" />
  <rect x="335.5333333333333" y="173.05566521910777" width="15.6" height="1.2633241215949624" fill="red" />
  <line x1="360.6666666666667" y1="163.26490327674696" x2="360.6666666666667" y2="172.73983418870904" stroke="black" stroke-width="1" />
  <rect x="352.8666666666667" y="168.3181997631267" width="15.6" height="4.42163442558234" fill="red" />
  <line x1="378.0" y1="165.00197394393996" x2="378.0" y2="171.63442558231338" stroke="black" stroke-width="1" />
  <rect x="370.2" y="168.47611527832606" width="15.6" height="3.158310303987321" fill="green" />
  <line x1="395.3333333333333" y1="164.52822739834187" x2="395.3333333333333" y2="170.52901697591784" stroke="black" stroke-width="1" />
  <rect x="387.5333333333333" y="167.05487564153174" width="15.6" height="1.1054086063955992" fill="green" />
  <line x1="412.6666666666667" y1="158.05369127516775" x2="412.6666666666667" y2="167.05487564153174" stroke="black" stroke-width="1" />
  <rect x="404.8666666666667" y="159.47493091196208" width="15.6" height="7.579944729569661" fill="green" />
  <line x1="430.0" y1="157.57994472956966" x2="430.0" y2="161.52783260955385" stroke="black" stroke-width="1" />
  <rect x="422.2" y="157.57994472956966" width="15.6" height="2.0529016975917784" fill="green" />
  <line x1="447.3333333333333" y1="143.8412949072246" x2="447.3333333333333" y2="156.15870509277534" stroke="black" stroke-width="1" />
  <rect x="439.5333333333333" y="146.2100276352151" width="15.6" height="6.948282668772208" fill="green" />
  <line x1="464.6666666666667" y1="141.9463087248322" x2="464.6666666666667" y2="149.5262534544019" stroke="black" stroke-width="1" />
  <rect x="456.8666666666667" y="145.10461902881957" width="15.6" height="4.105803395183557" fill="red" />
  <line x1="482.0" y1="147.94709830240816" x2="482.0" y2="155.68495854717725" stroke="black" stroke-width="1" />
  <rect x="474.2" y="149.05250690880376" width="15.6" height="4.105803395183557" fill="red" />
  <line x1="499.3333333333333" y1="143.36754836162652" x2="499.3333333333333" y2="150.94749309119618" stroke="black" stroke-width="1" />
  <rect x="491.5333333333333" y="147.94709830240816" width="15.6" height="3.0003947887880145" fill="red" />
  <line x1="516.6666666666666" y1="103.09909198578754" x2="516.6666666666666" y2="119.99605211211997" stroke="black" stroke-width="1" />
  <rect x="508.8666666666666" y="104.2045005921832" width="15.6" height="13.106987761547543" fill="green" />
  <line x1="533.9999999999999" y1="74.6742992499012" x2="533.9999999999999" y2="101.99368337939194" stroke="black" stroke-width="1" />
  <rect x="526.1999999999999" y="77.67469403868927" width="15.6" height="20.371101460718535" fill="green" />
  <line x1="551.3333333333333" y1="74.51638373470189" x2="551.3333333333333" y2="85.72838531385713" stroke="black" stroke-width="1" />
  <rect x="543.5333333333333" y="76.56928543229367" width="15.6" height="4.737465455981123" fill="red" />

<!-- Resistance Line -->
<line x1="40" y1="130" x2="600" y2="130" stroke="blue" stroke-width="2" />
<text x="610" y="130" font-size="10" fill="blue">Resistance</text>

<!-- Support Line -->
<line x1="40" y1="150" x2="600" y2="150" stroke="green" stroke-width="2" />
<text x="610" y="150" font-size="10" fill="green">Support</text>

<!-- Trendline -->
<line x1="40" y1="250" x2="600" y2="74.51638373470189" stroke="purple" stroke-width="2" />
<text x="610" y="74.51638373470189" font-size="10" fill="purple">Trendline</text>
</svg>