<svg width="800" height="300" xmlns="http://www.w3.org/2000/svg">
  <line x1="40" y1="250" x2="40" y2="50" stroke="black" stroke-width="2" />
  <line x1="35" y1="250.0" x2="40" y2="250.0" stroke="black" stroke-width="1" />
  <text x="10" y="255.0" font-size="10" fill="black">75</text>
  <line x1="40" y1="250.0" x2="780" y2="250.0" stroke="lightgray" stroke-width="1" stroke-dasharray="5,5" />
  <line x1="35" y1="210.0" x2="40" y2="210.0" stroke="black" stroke-width="1" />
  <text x="10" y="215.0" font-size="10" fill="black">85</text>
  <line x1="40" y1="210.0" x2="780" y2="210.0" stroke="lightgray" stroke-width="1" stroke-dasharray="5,5" />
  <line x1="35" y1="170.0" x2="40" y2="170.0" stroke="black" stroke-width="1" />
  <text x="10" y="175.0" font-size="10" fill="black">95</text>
  <line x1="40" y1="170.0" x2="780" y2="170.0" stroke="lightgray" stroke-width="1" stroke-dasharray="5,5" />
  <line x1="35" y1="130.0" x2="40" y2="130.0" stroke="black" stroke-width="1" />
  <text x="10" y="135.0" font-size="10" fill="black">105</text>
  <line x1="40" y1="130.0" x2="780" y2="130.0" stroke="lightgray" stroke-width="1" stroke-dasharray="5,5" />
  <line x1="35" y1="90.0" x2="40" y2="90.0" stroke="black" stroke-width="1" />
  <text x="10" y="95.0" font-size="10" fill="black">115</text>
  <line x1="40" y1="90.0" x2="780" y2="90.0" stroke="lightgray" stroke-width="1" stroke-dasharray="5,5" />
  <line x1="35" y1="50.0" x2="40" y2="50.0" stroke="black" stroke-width="1" />
  <text x="10" y="55.0" font-size="10" fill="black">125</text>
  <line x1="40" y1="50.0" x2="780" y2="50.0" stroke="lightgray" stroke-width="1" stroke-dasharray="5,5" />
  <line x1="58.27759197324415" y1="144.81296758104742" x2="58.27759197324415" y2="150.39900249376558" stroke="black" stroke-width="1" />
  <rect x="50.0" y="144.91271820448884" width="16.555183946488295" height="5.08728179551116" fill="green" />
  <line x1="76.67224080267559" y1="142.4189526184539" x2="76.67224080267559" y2="145.41147132169573" stroke="black" stroke-width="1" />
  <rect x="68.39464882943145" y="143.61596009975062" width="16.555183946488295" height="1.147132169576082" fill="green" />
  <line x1="95.06688963210702" y1="141.47132169576065" x2="95.06688963210702" y2="144.7630922693267" stroke="black" stroke-width="1" />
  <rect x="86.78929765886288" y="142.5187032418953" width="16.555183946488295" height="1.8952618453865284" fill="green" />
  <line x1="113.46153846153845" y1="140.32418952618457" x2="113.46153846153845" y2="143.71571072319205" stroke="black" stroke-width="1" />
  <rect x="105.18394648829431" y="140.52369077306741" width="16.555183946488295" height="1.3965087281794695" fill="green" />
  <line x1="131.8561872909699" y1="139.42643391521204" x2="131.8561872909699" y2="144.91271820448884" stroke="black" stroke-width="1" />
  <rect x="123.57859531772576" y="140.02493765586036" width="16.555183946488295" height="2.294264339152164" fill="red" />
  <line x1="150.25083612040135" y1="138.7281795511222" x2="150.25083612040135" y2="141.87032418952617" stroke="black" stroke-width="1" />
  <rect x="141.9732441471572" y="138.92768079800499" width="16.555183946488295" height="2.194513715710741" fill="green" />
  <line x1="168.64548494983276" y1="133.64089775561092" x2="168.64548494983276" y2="138.62842892768077" stroke="black" stroke-width="1" />
  <rect x="160.36789297658862" y="136.13466334164588" width="16.555183946488295" height="1.1970074812968505" fill="green" />
  <line x1="187.0401337792642" y1="134.63840399002498" x2="187.0401337792642" y2="139.2768079800499" stroke="black" stroke-width="1" />
  <rect x="178.76254180602007" y="135.53615960099756" width="16.555183946488295" height="1" fill="red" />
  <line x1="205.43478260869566" y1="133.96109725685778" x2="205.43478260869566" y2="137.43142144638404" stroke="black" stroke-width="1" />
  <rect x="197.1571906354515" y="136.13466334164588" width="16.555183946488295" height="1" fill="red" />
  <line x1="223.8294314381271" y1="135.38653366583543" x2="223.8294314381271" y2="139.62593516209483" stroke="black" stroke-width="1" />
  <rect x="215.55183946488296" y="135.63591022443893" width="16.555183946488295" height="2.892768079800476" fill="red" />
  <line x1="242.22408026755855" y1="132.14463840399003" x2="242.22408026755855" y2="139.32668329177062" stroke="black" stroke-width="1" />
  <rect x="233.9464882943144" y="133.2418952618454" width="16.555183946488295" height="4.788029925187061" fill="green" />
  <line x1="260.61872909698997" y1="121.7705735660848" x2="260.61872909698997" y2="131.84538653366582" stroke="black" stroke-width="1" />
  <rect x="252.34113712374582" y="121.7705735660848" width="16.555183946488295" height="9.675810473815488" fill="green" />
  <line x1="279.0133779264214" y1="118.37905236907727" x2="279.0133779264214" y2="139.0274314214464" stroke="black" stroke-width="1" />
  <rect x="270.73578595317724" y="121.07231920199501" width="16.555183946488295" height="15.162094763092341" fill="red" />
  <line x1="297.4080267558529" y1="132.9426433915212" x2="297.4080267558529" y2="142.0199501246883" stroke="black" stroke-width="1" />
  <rect x="289.13043478260875" y="137.93017456359104" width="16.555183946488295" height="1" fill="green" />
  <line x1="315.8026755852843" y1="133.13216957605994" x2="315.8026755852843" y2="139.72568578553614" stroke="black" stroke-width="1" />
  <rect x="307.52508361204013" y="137.43142144638404" width="16.555183946488295" height="2.094763092269318" fill="red" />
  <line x1="334.19732441471575" y1="123.26683291770576" x2="334.19732441471575" y2="138.42892768079798" stroke="black" stroke-width="1" />
  <rect x="325.9197324414716" y="123.7655860349127" width="16.555183946488295" height="14.663341645885282" fill="green" />
  <line x1="352.5919732441472" y1="114.19052369077303" x2="352.5919732441472" y2="127.2568578553616" stroke="black" stroke-width="1" />
  <rect x="344.314381270903" y="114.58852867830427" width="16.555183946488295" height="8.578553615960061" fill="green" />
  <line x1="370.98662207357864" y1="112.89276807980053" x2="370.98662207357864" y2="121.67082294264338" stroke="black" stroke-width="1" />
  <rect x="362.7090301003345" y="113.09226932668332" width="16.555183946488295" height="2.892768079800476" fill="green" />
  <line x1="389.3812709030101" y1="112.29426433915216" x2="389.3812709030101" y2="116.78304239401501" stroke="black" stroke-width="1" />
  <rect x="381.1036789297659" y="112.4937655860349" width="16.555183946488295" height="3.5910224438902674" fill="green" />
  <line x1="407.77591973244154" y1="106.40897755610973" x2="407.77591973244154" y2="114.88778054862843" stroke="black" stroke-width="1" />
  <rect x="399.49832775919737" y="106.80798004987537" width="16.555183946488295" height="5.037406483790505" fill="green" />
  <line x1="426.170568561873" y1="100.62344139650878" x2="426.170568561873" y2="106.50872817955116" stroke="black" stroke-width="1" />
  <rect x="417.8929765886288" y="101.12219451371567" width="16.555183946488295" height="3.890274314214537" fill="green" />
  <line x1="444.5652173913044" y1="103.61596009975062" x2="444.5652173913044" y2="111.89526184538653" stroke="black" stroke-width="1" />
  <rect x="436.2876254180602" y="103.61596009975062" width="16.555183946488295" height="6.683291770573646" fill="red" />
  <line x1="462.9598662207358" y1="106.10972568578552" x2="462.9598662207358" y2="113.29177057356611" stroke="black" stroke-width="1" />
  <rect x="454.68227424749165" y="110.09975062344142" width="16.555183946488295" height="2.194513715710741" fill="red" />
  <line x1="481.35451505016727" y1="111.39650872817953" x2="481.35451505016727" y2="117.83042394014956" stroke="black" stroke-width="1" />
  <rect x="473.0769230769231" y="111.49625935162095" width="16.555183946488295" height="1" fill="red" />
  <line x1="499.7491638795987" y1="106.40897755610973" x2="499.7491638795987" y2="114.63840399002498" stroke="black" stroke-width="1" />
  <rect x="491.47157190635454" y="107.80548628428932" width="16.555183946488295" height="5.486284289276796" fill="green" />
  <line x1="518.1438127090302" y1="105.81047381546131" x2="518.1438127090302" y2="111.59600997506232" stroke="black" stroke-width="1" />
  <rect x="509.866220735786" y="107.60598503740653" width="16.555183946488295" height="1" fill="red" />
  <line x1="536.5384615384617" y1="103.2169576059851" x2="536.5384615384617" y2="109.80049875311721" stroke="black" stroke-width="1" />
  <rect x="528.2608695652175" y="104.51371571072326" width="16.555183946488295" height="4.488778054862735" fill="green" />
  <line x1="554.933110367893" y1="102.31920199501252" x2="554.933110367893" y2="106.86384039900253" stroke="black" stroke-width="1" />
  <rect x="546.6555183946489" y="103.11720698254368" width="16.555183946488295" height="2.4937655860349537" fill="red" />
  <line x1="573.3277591973244" y1="102.31920199501252" x2="573.3277591973244" y2="107.5062344139651" stroke="black" stroke-width="1" />
  <rect x="565.0501672240803" y="104.91271820448878" width="16.555183946488295" height="1" fill="green" />
  <line x1="591.7224080267559" y1="100.62344139650878" x2="591.7224080267559" y2="106.25935162094765" stroke="black" stroke-width="1" />
  <rect x="583.4448160535118" y="102.21945137157104" width="16.555183946488295" height="1.7456359102244505" fill="green" />
</svg>