<svg width="800" height="300" xmlns="http://www.w3.org/2000/svg">
  <line x1="40" y1="250" x2="40" y2="50" stroke="black" stroke-width="2" />
  <line x1="35" y1="250.0" x2="40" y2="250.0" stroke="black" stroke-width="1" />
  <text x="10" y="255.0" font-size="10" fill="black">75</text>
  <line x1="40" y1="250.0" x2="780" y2="250.0" stroke="lightgray" stroke-width="1" stroke-dasharray="5, 5" />
  <line x1="35" y1="210.0" x2="40" y2="210.0" stroke="black" stroke-width="1" />
  <text x="10" y="215.0" font-size="10" fill="black">85</text>
  <line x1="40" y1="210.0" x2="780" y2="210.0" stroke="lightgray" stroke-width="1" stroke-dasharray="5, 5" />
  <line x1="35" y1="170.0" x2="40" y2="170.0" stroke="black" stroke-width="1" />
  <text x="10" y="175.0" font-size="10" fill="black">95</text>
  <line x1="40" y1="170.0" x2="780" y2="170.0" stroke="lightgray" stroke-width="1" stroke-dasharray="5, 5" />
  <line x1="35" y1="130.0" x2="40" y2="130.0" stroke="black" stroke-width="1" />
  <text x="10" y="135.0" font-size="10" fill="black">105</text>
  <line x1="40" y1="130.0" x2="780" y2="130.0" stroke="lightgray" stroke-width="1" stroke-dasharray="5, 5" />
  <line x1="35" y1="90.0" x2="40" y2="90.0" stroke="black" stroke-width="1" />
  <text x="10" y="95.0" font-size="10" fill="black">115</text>
  <line x1="40" y1="90.0" x2="780" y2="90.0" stroke="lightgray" stroke-width="1" stroke-dasharray="5, 5" />
  <line x1="35" y1="50.0" x2="40" y2="50.0" stroke="black" stroke-width="1" />
  <text x="10" y="55.0" font-size="10" fill="black">125</text>
  <line x1="40" y1="50.0" x2="780" y2="50.0" stroke="lightgray" stroke-width="1" stroke-dasharray="5, 5" />
  <line x1="35" y1="150.0" x2="40" y2="150.0" stroke="black" stroke-width="1" />
  <text x="10" y="155.0" font-size="10" fill="black">100</text>
  <line x1="40" y1="150.0" x2="780" y2="150.0" stroke="lightgray" stroke-width="1" stroke-dasharray="5, 5" />
  <line x1="48.666666666666664" y1="147.61663856098937" x2="48.666666666666664" y2="152.18849540940607" stroke="black" stroke-width="1" />
  <rect x="40.86666666666667" y="149.20554618699651" width="15.6" height="1" fill="green" />
  <line x1="66.0" y1="147.81060520891884" x2="66.0" y2="152.42833052276563" stroke="black" stroke-width="1" />
  <rect x="58.199999999999996" y="149.14558740865658" width="15.6" height="1.4240209855723833" fill="red" />
  <line x1="83.33333333333333" y1="148.21622634438825" x2="83.33333333333333" y2="151.60389732059218" stroke="black" stroke-width="1" />
  <rect x="75.53333333333332" y="148.21622634438825" width="15.6" height="1.5589282368371755" fill="green" />
  <line x1="100.66666666666667" y1="146.37249391043667" x2="100.66666666666667" y2="149.19055649241153" stroke="black" stroke-width="1" />
  <rect x="92.86666666666666" y="147.4367622259697" width="15.6" height="1" fill="red" />
  <line x1="118.0" y1="146.0277309349823" x2="118.0" y2="150.41971144837925" stroke="black" stroke-width="1" />
  <rect x="110.19999999999999" y="146.86715383174072" width="15.6" height="1.4989694584972426" fill="red" />
  <line x1="135.33333333333331" y1="146.46243207794652" x2="135.33333333333331" y2="152.30841296608583" stroke="black" stroke-width="1" />
  <rect x="127.53333333333332" y="147.2269065017801" width="15.6" height="1.8887015177065223" fill="red" />
  <line x1="152.66666666666666" y1="144.7236275060896" x2="152.66666666666666" y2="148.77084504403217" stroke="black" stroke-width="1" />
  <rect x="144.86666666666667" y="147.96140153644376" width="15.6" height="1" fill="green" />
  <line x1="169.99999999999997" y1="143.85422522016114" x2="169.99999999999997" y2="148.44107176316294" stroke="black" stroke-width="1" />
  <rect x="162.2" y="144.19898819561547" width="15.6" height="3.2977328086941498" fill="green" />
  <line x1="187.33333333333331" y1="142.31028667790895" x2="187.33333333333331" y2="148.77084504403217" stroke="black" stroke-width="1" />
  <rect x="179.53333333333333" y="143.53944163387666" width="15.6" height="2.952969833239763" fill="red" />
  <line x1="204.66666666666666" y1="136.29941914933488" x2="204.66666666666666" y2="144.6037099494099" stroke="black" stroke-width="1" />
  <rect x="196.86666666666667" y="138.80269814502537" width="15.6" height="5.0065579913808165" fill="green" />
  <line x1="221.99999999999997" y1="134.80044969083752" x2="221.99999999999997" y2="138.89263631253516" stroke="black" stroke-width="1" />
  <rect x="214.2" y="135.72981075510586" width="15.6" height="2.0535881581413378" fill="green" />
  <line x1="239.33333333333331" y1="127.15570545250154" x2="239.33333333333331" y2="135.72981075510586" stroke="black" stroke-width="1" />
  <rect x="231.53333333333333" y="132.47704703016677" width="15.6" height="3.2527637249390864" fill="green" />
  <line x1="256.6666666666667" y1="127.82274686153272" x2="256.6666666666667" y2="132.23721191680727" stroke="black" stroke-width="1" />
  <rect x="248.86666666666667" y="129.55405658609703" width="15.6" height="2.668165636125252" fill="green" />
  <line x1="274.0" y1="128.0400974330148" x2="274.0" y2="134.17088251826874" stroke="black" stroke-width="1" />
  <rect x="266.2" y="128.78958216226346" width="15.6" height="3.5675473112235068" fill="red" />
  <line x1="291.3333333333333" y1="129.8688401723815" x2="291.3333333333333" y2="134.14090312909883" stroke="black" stroke-width="1" />
  <rect x="283.5333333333333" y="131.23290237961402" width="15.6" height="2.3983511335957246" fill="green" />
  <line x1="308.6666666666667" y1="119.84073449503467" x2="308.6666666666667" y2="127.81525201424023" stroke="black" stroke-width="1" />
  <rect x="300.8666666666667" y="121.87933295859096" width="15.6" height="5.276372493910571" fill="green" />
  <line x1="326.0" y1="120.69799512834936" x2="326.0" y2="124.93723065392544" stroke="black" stroke-width="1" />
  <rect x="318.2" y="121.39966273187184" width="15.6" height="1" fill="red" />
  <line x1="343.3333333333333" y1="122.53887952032977" x2="343.3333333333333" y2="132.83679970020614" stroke="black" stroke-width="1" />
  <rect x="335.5333333333333" y="122.76372493910446" width="15.6" height="1.5889076260070283" fill="red" />
  <line x1="360.6666666666667" y1="121.29473486977707" x2="360.6666666666667" y2="128.0850665167697" stroke="black" stroke-width="1" />
  <rect x="352.8666666666667" y="122.23908562863028" width="15.6" height="2.0535881581413378" fill="green" />
  <line x1="378.0" y1="117.18755855349451" x2="378.0" y2="121.96927112610086" stroke="black" stroke-width="1" />
  <rect x="370.2" y="119.2711261008057" width="15.6" height="1.2891137343077048" fill="green" />
  <line x1="395.3333333333333" y1="113.94978452314047" x2="395.3333333333333" y2="118.68652801199175" stroke="black" stroke-width="1" />
  <rect x="387.5333333333333" y="114.57935169570925" width="15.6" height="3.642495784148366" fill="green" />
  <line x1="412.6666666666667" y1="110.69702079820127" x2="412.6666666666667" y2="115.17144463181569" stroke="black" stroke-width="1" />
  <rect x="404.8666666666667" y="112.9604646805322" width="15.6" height="1" fill="green" />
  <line x1="430.0" y1="112.27093872962348" x2="430.0" y2="118.10192992317792" stroke="black" stroke-width="1" />
  <rect x="422.2" y="112.54075323215301" width="15.6" height="5.036537380550783" fill="red" />
  <line x1="447.3333333333333" y1="113.08412966085814" x2="447.3333333333333" y2="125.98650927487353" stroke="black" stroke-width="1" />
  <rect x="439.5333333333333" y="113.66498032602595" width="15.6" height="8.768971332209048" fill="red" />
  <line x1="464.6666666666667" y1="119.79576541127972" x2="464.6666666666667" y2="125.41690088064462" stroke="black" stroke-width="1" />
  <rect x="456.8666666666667" y="122.04421959902572" width="15.6" height="1.0942477047030366" fill="red" />
  <line x1="482.0" y1="116.97770282930486" x2="482.0" y2="123.36331272250334" stroke="black" stroke-width="1" />
  <rect x="474.2" y="117.35244519392916" width="15.6" height="5.591156080194935" fill="green" />
  <line x1="499.3333333333333" y1="128.78958216226346" x2="499.3333333333333" y2="141.21603897320603" stroke="black" stroke-width="1" />
  <rect x="491.5333333333333" y="130.0187371182313" width="15.6" height="11.092373992879857" fill="red" />
  <line x1="516.6666666666666" y1="138.90762600712014" x2="516.6666666666666" y2="147.93142214727374" stroke="black" stroke-width="1" />
  <rect x="508.8666666666666" y="138.99756417462993" width="15.6" height="6.83530073074769" fill="red" />
  <line x1="533.9999999999999" y1="140.42158516020243" x2="533.9999999999999" y2="145.27824620573358" stroke="black" stroke-width="1" />
  <rect x="526.1999999999999" y="142.74498782087318" width="15.6" height="1.7837736556117534" fill="green" />
  <line x1="551.3333333333333" y1="133.3164699269252" x2="551.3333333333333" y2="141.11111111111114" stroke="black" stroke-width="1" />
  <rect x="543.5333333333333" y="137.5285741053026" width="15.6" height="3.012928611579582" fill="green" />

<!-- Resistance Line -->
<line x1="40" y1="130" x2="600" y2="130" stroke="red" stroke-width="2" />
<text x="610" y="130" font-size="10" fill="red">Resistance</text>

<!-- Support Line -->
<line x1="40" y1="150" x2="600" y2="150" stroke="green" stroke-width="2" />
<text x="610" y="150" font-size="10" fill="green">Support</text>

<!-- Trendline -->
<line x1="40" y1="250" x2="600" y2="110" stroke="blue" stroke-width="2" />
<text x="610" y="110" font-size="10" fill="blue">Trendline</text>
</svg>