<svg width="800" height="300" xmlns="http://www.w3.org/2000/svg">
  <line x1="40" y1="250" x2="40" y2="50" stroke="black" stroke-width="2" />
  <line x1="35" y1="250.0" x2="40" y2="250.0" stroke="black" stroke-width="1" />
  <text x="10" y="255.0" font-size="10" fill="black">75</text>
  <line x1="40" y1="250.0" x2="780" y2="250.0" stroke="lightgray" stroke-width="1" stroke-dasharray="5,5" />
  <line x1="35" y1="210.0" x2="40" y2="210.0" stroke="black" stroke-width="1" />
  <text x="10" y="215.0" font-size="10" fill="black">85</text>
  <line x1="40" y1="210.0" x2="780" y2="210.0" stroke="lightgray" stroke-width="1" stroke-dasharray="5,5" />
  <line x1="35" y1="170.0" x2="40" y2="170.0" stroke="black" stroke-width="1" />
  <text x="10" y="175.0" font-size="10" fill="black">95</text>
  <line x1="40" y1="170.0" x2="780" y2="170.0" stroke="lightgray" stroke-width="1" stroke-dasharray="5,5" />
  <line x1="35" y1="130.0" x2="40" y2="130.0" stroke="black" stroke-width="1" />
  <text x="10" y="135.0" font-size="10" fill="black">105</text>
  <line x1="40" y1="130.0" x2="780" y2="130.0" stroke="lightgray" stroke-width="1" stroke-dasharray="5,5" />
  <line x1="35" y1="90.0" x2="40" y2="90.0" stroke="black" stroke-width="1" />
  <text x="10" y="95.0" font-size="10" fill="black">115</text>
  <line x1="40" y1="90.0" x2="780" y2="90.0" stroke="lightgray" stroke-width="1" stroke-dasharray="5,5" />
  <line x1="35" y1="50.0" x2="40" y2="50.0" stroke="black" stroke-width="1" />
  <text x="10" y="55.0" font-size="10" fill="black">125</text>
  <line x1="40" y1="50.0" x2="780" y2="50.0" stroke="lightgray" stroke-width="1" stroke-dasharray="5,5" />
  <line x1="58.27759197324415" y1="147.61663856098937" x2="58.27759197324415" y2="152.18849540940607" stroke="black" stroke-width="1" />
  <rect x="50.0" y="149.20554618699651" width="16.555183946488295" height="1" fill="green" />
  <line x1="76.67224080267559" y1="147.81060520891884" x2="76.67224080267559" y2="152.42833052276563" stroke="black" stroke-width="1" />
  <rect x="68.39464882943145" y="149.14558740865658" width="16.555183946488295" height="1.4240209855723833" fill="red" />
  <line x1="95.06688963210702" y1="148.21622634438825" x2="95.06688963210702" y2="151.60389732059218" stroke="black" stroke-width="1" />
  <rect x="86.78929765886288" y="148.21622634438825" width="16.555183946488295" height="1.5589282368371755" fill="green" />
  <line x1="113.46153846153845" y1="146.37249391043667" x2="113.46153846153845" y2="149.19055649241153" stroke="black" stroke-width="1" />
  <rect x="105.18394648829431" y="147.4367622259697" width="16.555183946488295" height="1" fill="red" />
  <line x1="131.8561872909699" y1="146.0277309349823" x2="131.8561872909699" y2="150.41971144837925" stroke="black" stroke-width="1" />
  <rect x="123.57859531772576" y="146.86715383174072" width="16.555183946488295" height="1.4989694584972426" fill="red" />
  <line x1="150.25083612040135" y1="146.46243207794652" x2="150.25083612040135" y2="152.30841296608583" stroke="black" stroke-width="1" />
  <rect x="141.9732441471572" y="147.2269065017801" width="16.555183946488295" height="1.8887015177065223" fill="red" />
  <line x1="168.64548494983276" y1="144.7236275060896" x2="168.64548494983276" y2="148.77084504403217" stroke="black" stroke-width="1" />
  <rect x="160.36789297658862" y="147.96140153644376" width="16.555183946488295" height="1" fill="green" />
  <line x1="187.0401337792642" y1="143.85422522016114" x2="187.0401337792642" y2="148.44107176316294" stroke="black" stroke-width="1" />
  <rect x="178.76254180602007" y="144.19898819561547" width="16.555183946488295" height="3.2977328086941498" fill="green" />
  <line x1="205.43478260869566" y1="142.31028667790895" x2="205.43478260869566" y2="148.77084504403217" stroke="black" stroke-width="1" />
  <rect x="197.1571906354515" y="143.53944163387666" width="16.555183946488295" height="2.952969833239763" fill="red" />
  <line x1="223.8294314381271" y1="136.29941914933488" x2="223.8294314381271" y2="144.6037099494099" stroke="black" stroke-width="1" />
  <rect x="215.55183946488296" y="138.80269814502537" width="16.555183946488295" height="5.0065579913808165" fill="green" />
  <line x1="242.22408026755855" y1="134.80044969083752" x2="242.22408026755855" y2="138.89263631253516" stroke="black" stroke-width="1" />
  <rect x="233.9464882943144" y="135.72981075510586" width="16.555183946488295" height="2.0535881581413378" fill="green" />
  <line x1="260.61872909698997" y1="127.15570545250154" x2="260.61872909698997" y2="135.72981075510586" stroke="black" stroke-width="1" />
  <rect x="252.34113712374582" y="132.47704703016677" width="16.555183946488295" height="3.2527637249390864" fill="green" />
  <line x1="279.0133779264214" y1="127.82274686153272" x2="279.0133779264214" y2="132.23721191680727" stroke="black" stroke-width="1" />
  <rect x="270.73578595317724" y="129.55405658609703" width="16.555183946488295" height="2.668165636125252" fill="green" />
  <line x1="297.4080267558529" y1="128.0400974330148" x2="297.4080267558529" y2="134.17088251826874" stroke="black" stroke-width="1" />
  <rect x="289.13043478260875" y="128.78958216226346" width="16.555183946488295" height="3.5675473112235068" fill="red" />
  <line x1="315.8026755852843" y1="129.8688401723815" x2="315.8026755852843" y2="134.14090312909883" stroke="black" stroke-width="1" />
  <rect x="307.52508361204013" y="131.23290237961402" width="16.555183946488295" height="2.3983511335957246" fill="green" />
  <line x1="334.19732441471575" y1="119.84073449503467" x2="334.19732441471575" y2="127.81525201424023" stroke="black" stroke-width="1" />
  <rect x="325.9197324414716" y="121.87933295859096" width="16.555183946488295" height="5.276372493910571" fill="green" />
  <line x1="352.5919732441472" y1="120.69799512834936" x2="352.5919732441472" y2="124.93723065392544" stroke="black" stroke-width="1" />
  <rect x="344.314381270903" y="121.39966273187184" width="16.555183946488295" height="1" fill="red" />
  <line x1="370.98662207357864" y1="122.53887952032977" x2="370.98662207357864" y2="132.83679970020614" stroke="black" stroke-width="1" />
  <rect x="362.7090301003345" y="122.76372493910446" width="16.555183946488295" height="1.5889076260070283" fill="red" />
  <line x1="389.3812709030101" y1="121.29473486977707" x2="389.3812709030101" y2="128.0850665167697" stroke="black" stroke-width="1" />
  <rect x="381.1036789297659" y="122.23908562863028" width="16.555183946488295" height="2.0535881581413378" fill="green" />
  <line x1="407.77591973244154" y1="117.18755855349451" x2="407.77591973244154" y2="121.96927112610086" stroke="black" stroke-width="1" />
  <rect x="399.49832775919737" y="119.2711261008057" width="16.555183946488295" height="1.2891137343077048" fill="green" />
  <line x1="426.170568561873" y1="113.94978452314047" x2="426.170568561873" y2="118.68652801199175" stroke="black" stroke-width="1" />
  <rect x="417.8929765886288" y="114.57935169570925" width="16.555183946488295" height="3.642495784148366" fill="green" />
  <line x1="444.5652173913044" y1="110.69702079820127" x2="444.5652173913044" y2="115.17144463181569" stroke="black" stroke-width="1" />
  <rect x="436.2876254180602" y="112.9604646805322" width="16.555183946488295" height="1" fill="green" />
  <line x1="462.9598662207358" y1="112.27093872962348" x2="462.9598662207358" y2="118.10192992317792" stroke="black" stroke-width="1" />
  <rect x="454.68227424749165" y="112.54075323215301" width="16.555183946488295" height="5.036537380550783" fill="red" />
  <line x1="481.35451505016727" y1="113.08412966085814" x2="481.35451505016727" y2="125.98650927487353" stroke="black" stroke-width="1" />
  <rect x="473.0769230769231" y="113.66498032602595" width="16.555183946488295" height="8.768971332209048" fill="red" />
  <line x1="499.7491638795987" y1="119.79576541127972" x2="499.7491638795987" y2="125.41690088064462" stroke="black" stroke-width="1" />
  <rect x="491.47157190635454" y="122.04421959902572" width="16.555183946488295" height="1.0942477047030366" fill="red" />
  <line x1="518.1438127090302" y1="116.97770282930486" x2="518.1438127090302" y2="123.36331272250334" stroke="black" stroke-width="1" />
  <rect x="509.866220735786" y="117.35244519392916" width="16.555183946488295" height="5.591156080194935" fill="green" />
  <line x1="536.5384615384617" y1="128.78958216226346" x2="536.5384615384617" y2="141.21603897320603" stroke="black" stroke-width="1" />
  <rect x="528.2608695652175" y="130.0187371182313" width="16.555183946488295" height="11.092373992879857" fill="red" />
  <line x1="554.933110367893" y1="138.90762600712014" x2="554.933110367893" y2="147.93142214727374" stroke="black" stroke-width="1" />
  <rect x="546.6555183946489" y="138.99756417462993" width="16.555183946488295" height="6.83530073074769" fill="red" />
  <line x1="573.3277591973244" y1="140.42158516020243" x2="573.3277591973244" y2="145.27824620573358" stroke="black" stroke-width="1" />
  <rect x="565.0501672240803" y="142.74498782087318" width="16.555183946488295" height="1.7837736556117534" fill="green" />
  <line x1="591.7224080267559" y1="133.3164699269252" x2="591.7224080267559" y2="141.11111111111114" stroke="black" stroke-width="1" />
  <rect x="583.4448160535118" y="137.5285741053026" width="16.555183946488295" height="3.012928611579582" fill="green" />
</svg>