<svg width="800" height="300" xmlns="http://www.w3.org/2000/svg">
  <line x1="40" y1="250" x2="40" y2="50" stroke="black" stroke-width="2" />
  <line x1="35" y1="250.0" x2="40" y2="250.0" stroke="black" stroke-width="1" />
  <text x="10" y="255.0" font-size="10" fill="black">75</text>
  <line x1="40" y1="250.0" x2="780" y2="250.0" stroke="lightgray" stroke-width="1" stroke-dasharray="5,5" />
  <line x1="35" y1="210.0" x2="40" y2="210.0" stroke="black" stroke-width="1" />
  <text x="10" y="215.0" font-size="10" fill="black">85</text>
  <line x1="40" y1="210.0" x2="780" y2="210.0" stroke="lightgray" stroke-width="1" stroke-dasharray="5,5" />
  <line x1="35" y1="170.0" x2="40" y2="170.0" stroke="black" stroke-width="1" />
  <text x="10" y="175.0" font-size="10" fill="black">95</text>
  <line x1="40" y1="170.0" x2="780" y2="170.0" stroke="lightgray" stroke-width="1" stroke-dasharray="5,5" />
  <line x1="35" y1="130.0" x2="40" y2="130.0" stroke="black" stroke-width="1" />
  <text x="10" y="135.0" font-size="10" fill="black">105</text>
  <line x1="40" y1="130.0" x2="780" y2="130.0" stroke="lightgray" stroke-width="1" stroke-dasharray="5,5" />
  <line x1="35" y1="90.0" x2="40" y2="90.0" stroke="black" stroke-width="1" />
  <text x="10" y="95.0" font-size="10" fill="black">115</text>
  <line x1="40" y1="90.0" x2="780" y2="90.0" stroke="lightgray" stroke-width="1" stroke-dasharray="5,5" />
  <line x1="35" y1="50.0" x2="40" y2="50.0" stroke="black" stroke-width="1" />
  <text x="10" y="55.0" font-size="10" fill="black">125</text>
  <line x1="40" y1="50.0" x2="780" y2="50.0" stroke="lightgray" stroke-width="1" stroke-dasharray="5,5" />
  <line x1="58.27759197324415" y1="145.02063273727651" x2="58.27759197324415" y2="150.99037138927105" stroke="black" stroke-width="1" />
  <rect x="50.0" y="145.87345254470432" width="16.555183946488295" height="4.126547455295679" fill="green" />
  <line x1="76.67224080267559" y1="142.9573590096286" x2="76.67224080267559" y2="146.4786795048143" stroke="black" stroke-width="1" />
  <rect x="68.39464882943145" y="144.38789546079784" width="16.555183946488295" height="1.815680880330092" fill="green" />
  <line x1="95.06688963210702" y1="138.72077028885832" x2="95.06688963210702" y2="144.38789546079784" stroke="black" stroke-width="1" />
  <rect x="86.78929765886288" y="139.87620357634114" width="16.555183946488295" height="4.346629986244807" fill="green" />
  <line x1="113.46153846153845" y1="134.15405777166438" x2="113.46153846153845" y2="139.60110041265477" stroke="black" stroke-width="1" />
  <rect x="105.18394648829431" y="135.69463548830817" width="16.555183946488295" height="1" fill="red" />
  <line x1="131.8561872909699" y1="130.63273727647868" x2="131.8561872909699" y2="136.5199449793672" stroke="black" stroke-width="1" />
  <rect x="123.57859531772576" y="134.15405777166438" width="16.555183946488295" height="1.155433287482822" fill="green" />
  <line x1="150.25083612040135" y1="132.88858321870703" x2="150.25083612040135" y2="137.3028885832187" stroke="black" stroke-width="1" />
  <rect x="141.9732441471572" y="133.4938101788171" width="16.555183946488295" height="1" fill="green" />
  <line x1="168.64548494983276" y1="130.71526822558457" x2="168.64548494983276" y2="134.20907840440168" stroke="black" stroke-width="1" />
  <rect x="160.36789297658862" y="131.6781292984869" width="16.555183946488295" height="1" fill="green" />
  <line x1="187.0401337792642" y1="129.36726272352132" x2="187.0401337792642" y2="133.1086657496561" stroke="black" stroke-width="1" />
  <rect x="178.76254180602007" y="129.36726272352132" width="16.555183946488295" height="1.7606602475929094" fill="red" />
  <line x1="205.43478260869566" y1="129.4773039889958" x2="205.43478260869566" y2="132.91609353507567" stroke="black" stroke-width="1" />
  <rect x="197.1571906354515" y="130.30261348005502" width="16.555183946488295" height="1.1004126547455826" fill="red" />
  <line x1="223.8294314381271" y1="129.25722145804679" x2="223.8294314381271" y2="133.6588720770289" stroke="black" stroke-width="1" />
  <rect x="215.55183946488296" y="129.53232462173315" width="16.555183946488295" height="2.36588720770294" fill="green" />
  <line x1="242.22408026755855" y1="123.72764786795057" x2="242.22408026755855" y2="130.63273727647868" stroke="black" stroke-width="1" />
  <rect x="233.9464882943144" y="125.07565337001375" width="16.555183946488295" height="4.3466299862449205" fill="green" />
  <line x1="260.61872909698997" y1="121.88445667125177" x2="260.61872909698997" y2="127.46905089408529" stroke="black" stroke-width="1" />
  <rect x="252.34113712374582" y="124.52544704264096" width="16.555183946488295" height="1" fill="red" />
  <line x1="279.0133779264214" y1="123.70013755158186" x2="279.0133779264214" y2="127.8266850068776" stroke="black" stroke-width="1" />
  <rect x="270.73578595317724" y="124.52544704264096" width="16.555183946488295" height="1" fill="red" />
  <line x1="297.4080267558529" y1="123.86519944979364" x2="297.4080267558529" y2="129.69738651994504" stroke="black" stroke-width="1" />
  <rect x="289.13043478260875" y="124.96561210453922" width="16.555183946488295" height="1.5955983493810777" fill="red" />
  <line x1="315.8026755852843" y1="124.58046767537832" x2="315.8026755852843" y2="130.19257221458054" stroke="black" stroke-width="1" />
  <rect x="307.52508361204013" y="126.89133425034385" width="16.555183946488295" height="1.4305364511691891" fill="red" />
  <line x1="334.19732441471575" y1="123.7551581843191" x2="334.19732441471575" y2="129.14718019257225" stroke="black" stroke-width="1" />
  <rect x="325.9197324414716" y="124.47042640990372" width="16.555183946488295" height="2.6960110041266034" fill="green" />
  <line x1="352.5919732441472" y1="115.88720770288859" x2="352.5919732441472" y2="124.80055020632739" stroke="black" stroke-width="1" />
  <rect x="344.314381270903" y="116.38239339752408" width="16.555183946488295" height="8.0330123796424" fill="green" />
  <line x1="370.98662207357864" y1="115.777166437414" x2="370.98662207357864" y2="123.23246217331507" stroke="black" stroke-width="1" />
  <rect x="362.7090301003345" y="116.21733149931225" width="16.555183946488295" height="2.5309491059147717" fill="green" />
  <line x1="389.3812709030101" y1="110.35763411279225" x2="389.3812709030101" y2="117.41623108665749" stroke="black" stroke-width="1" />
  <rect x="381.1036789297659" y="111.70563961485567" width="16.555183946488295" height="3.686382393397423" fill="green" />
  <line x1="407.77591973244154" y1="106.06602475928469" x2="407.77591973244154" y2="111.54057771664378" stroke="black" stroke-width="1" />
  <rect x="399.49832775919737" y="106.53370013755159" width="16.555183946488295" height="4.2916093535075674" fill="green" />
  <line x1="426.170568561873" y1="104.222833562586" x2="426.170568561873" y2="109.0646492434663" stroke="black" stroke-width="1" />
  <rect x="417.8929765886288" y="105.21320495185694" width="16.555183946488295" height="1.5405777166437815" fill="red" />
  <line x1="444.5652173913044" y1="108.40440165061898" x2="444.5652173913044" y2="119.4085281980743" stroke="black" stroke-width="1" />
  <rect x="436.2876254180602" y="111.15543328748282" width="16.555183946488295" height="6.38239339752414" fill="red" />
  <line x1="462.9598662207358" y1="113.0811554332875" x2="462.9598662207358" y2="119.2984869325997" stroke="black" stroke-width="1" />
  <rect x="454.68227424749165" y="115.17193947730402" width="16.555183946488295" height="2.145804676753812" fill="green" />
  <line x1="481.35451505016727" y1="114.84181568088036" x2="481.35451505016727" y2="123.64511691884462" stroke="black" stroke-width="1" />
  <rect x="473.0769230769231" y="115.06189821182949" width="16.555183946488295" height="5.557083906464811" fill="red" />
  <line x1="499.7491638795987" y1="111.98074277854192" x2="499.7491638795987" y2="120.23383768913345" stroke="black" stroke-width="1" />
  <rect x="491.47157190635454" y="115.00687757909213" width="16.555183946488295" height="4.566712517193935" fill="green" />
  <line x1="518.1438127090302" y1="107.42833562585975" x2="518.1438127090302" y2="114.95185694635495" stroke="black" stroke-width="1" />
  <rect x="509.866220735786" y="108.01925722145808" width="16.555183946488295" height="6.932599724896875" fill="green" />
  <line x1="536.5384615384617" y1="104.82806052269603" x2="536.5384615384617" y2="108.51444291609357" stroke="black" stroke-width="1" />
  <rect x="528.2608695652175" y="106.14855570839063" width="16.555183946488295" height="1.0453920220082296" fill="green" />
  <line x1="554.933110367893" y1="101.03163686382396" x2="554.933110367893" y2="106.09353507565339" stroke="black" stroke-width="1" />
  <rect x="546.6555183946489" y="102.13204951856943" width="16.555183946488295" height="2.806052269601082" fill="green" />
  <line x1="573.3277591973244" y1="103.23246217331501" x2="573.3277591973244" y2="113.90646492434666" stroke="black" stroke-width="1" />
  <rect x="565.0501672240803" y="104.11279229711141" width="16.555183946488295" height="6.162310866575012" fill="red" />
  <line x1="591.7224080267559" y1="108.25309491059147" x2="591.7224080267559" y2="112.03576341127928" stroke="black" stroke-width="1" />
  <rect x="583.4448160535118" y="110.38514442916096" width="16.555183946488295" height="1" fill="red" />
</svg>