<svg width="800" height="300" xmlns="http://www.w3.org/2000/svg">
  <line x1="40" y1="250" x2="40" y2="50" stroke="black" stroke-width="2" />
  <line x1="35" y1="250.0" x2="40" y2="250.0" stroke="black" stroke-width="1" />
  <text x="10" y="255.0" font-size="10" fill="black">75</text>
  <line x1="40" y1="250.0" x2="780" y2="250.0" stroke="lightgray" stroke-width="1" stroke-dasharray="5, 5" />
  <line x1="35" y1="210.0" x2="40" y2="210.0" stroke="black" stroke-width="1" />
  <text x="10" y="215.0" font-size="10" fill="black">85</text>
  <line x1="40" y1="210.0" x2="780" y2="210.0" stroke="lightgray" stroke-width="1" stroke-dasharray="5, 5" />
  <line x1="35" y1="170.0" x2="40" y2="170.0" stroke="black" stroke-width="1" />
  <text x="10" y="175.0" font-size="10" fill="black">95</text>
  <line x1="40" y1="170.0" x2="780" y2="170.0" stroke="lightgray" stroke-width="1" stroke-dasharray="5, 5" />
  <line x1="35" y1="130.0" x2="40" y2="130.0" stroke="black" stroke-width="1" />
  <text x="10" y="135.0" font-size="10" fill="black">105</text>
  <line x1="40" y1="130.0" x2="780" y2="130.0" stroke="lightgray" stroke-width="1" stroke-dasharray="5, 5" />
  <line x1="35" y1="90.0" x2="40" y2="90.0" stroke="black" stroke-width="1" />
  <text x="10" y="95.0" font-size="10" fill="black">115</text>
  <line x1="40" y1="90.0" x2="780" y2="90.0" stroke="lightgray" stroke-width="1" stroke-dasharray="5, 5" />
  <line x1="35" y1="50.0" x2="40" y2="50.0" stroke="black" stroke-width="1" />
  <text x="10" y="55.0" font-size="10" fill="black">125</text>
  <line x1="40" y1="50.0" x2="780" y2="50.0" stroke="lightgray" stroke-width="1" stroke-dasharray="5, 5" />
  <line x1="35" y1="150.0" x2="40" y2="150.0" stroke="black" stroke-width="1" />
  <text x="10" y="155.0" font-size="10" fill="black">100</text>
  <line x1="40" y1="150.0" x2="780" y2="150.0" stroke="lightgray" stroke-width="1" stroke-dasharray="5, 5" />
  <line x1="48.666666666666664" y1="145.02063273727651" x2="48.666666666666664" y2="150.99037138927105" stroke="black" stroke-width="1" />
  <rect x="40.86666666666667" y="145.87345254470432" width="15.6" height="4.126547455295679" fill="green" />
  <line x1="66.0" y1="142.9573590096286" x2="66.0" y2="146.4786795048143" stroke="black" stroke-width="1" />
  <rect x="58.199999999999996" y="144.38789546079784" width="15.6" height="1.815680880330092" fill="green" />
  <line x1="83.33333333333333" y1="138.72077028885832" x2="83.33333333333333" y2="144.38789546079784" stroke="black" stroke-width="1" />
  <rect x="75.53333333333332" y="139.87620357634114" width="15.6" height="4.346629986244807" fill="green" />
  <line x1="100.66666666666667" y1="134.15405777166438" x2="100.66666666666667" y2="139.60110041265477" stroke="black" stroke-width="1" />
  <rect x="92.86666666666666" y="135.69463548830817" width="15.6" height="1" fill="red" />
  <line x1="118.0" y1="130.63273727647868" x2="118.0" y2="136.5199449793672" stroke="black" stroke-width="1" />
  <rect x="110.19999999999999" y="134.15405777166438" width="15.6" height="1.155433287482822" fill="green" />
  <line x1="135.33333333333331" y1="132.88858321870703" x2="135.33333333333331" y2="137.3028885832187" stroke="black" stroke-width="1" />
  <rect x="127.53333333333332" y="133.4938101788171" width="15.6" height="1" fill="green" />
  <line x1="152.66666666666666" y1="130.71526822558457" x2="152.66666666666666" y2="134.20907840440168" stroke="black" stroke-width="1" />
  <rect x="144.86666666666667" y="131.6781292984869" width="15.6" height="1" fill="green" />
  <line x1="169.99999999999997" y1="129.36726272352132" x2="169.99999999999997" y2="133.1086657496561" stroke="black" stroke-width="1" />
  <rect x="162.2" y="129.36726272352132" width="15.6" height="1.7606602475929094" fill="red" />
  <line x1="187.33333333333331" y1="129.4773039889958" x2="187.33333333333331" y2="132.91609353507567" stroke="black" stroke-width="1" />
  <rect x="179.53333333333333" y="130.30261348005502" width="15.6" height="1.1004126547455826" fill="red" />
  <line x1="204.66666666666666" y1="129.25722145804679" x2="204.66666666666666" y2="133.6588720770289" stroke="black" stroke-width="1" />
  <rect x="196.86666666666667" y="129.53232462173315" width="15.6" height="2.36588720770294" fill="green" />
  <line x1="221.99999999999997" y1="123.72764786795057" x2="221.99999999999997" y2="130.63273727647868" stroke="black" stroke-width="1" />
  <rect x="214.2" y="125.07565337001375" width="15.6" height="4.3466299862449205" fill="green" />
  <line x1="239.33333333333331" y1="121.88445667125177" x2="239.33333333333331" y2="127.46905089408529" stroke="black" stroke-width="1" />
  <rect x="231.53333333333333" y="124.52544704264096" width="15.6" height="1" fill="red" />
  <line x1="256.6666666666667" y1="123.70013755158186" x2="256.6666666666667" y2="127.8266850068776" stroke="black" stroke-width="1" />
  <rect x="248.86666666666667" y="124.52544704264096" width="15.6" height="1" fill="red" />
  <line x1="274.0" y1="123.86519944979364" x2="274.0" y2="129.69738651994504" stroke="black" stroke-width="1" />
  <rect x="266.2" y="124.96561210453922" width="15.6" height="1.5955983493810777" fill="red" />
  <line x1="291.3333333333333" y1="124.58046767537832" x2="291.3333333333333" y2="130.19257221458054" stroke="black" stroke-width="1" />
  <rect x="283.5333333333333" y="126.89133425034385" width="15.6" height="1.4305364511691891" fill="red" />
  <line x1="308.6666666666667" y1="123.7551581843191" x2="308.6666666666667" y2="129.14718019257225" stroke="black" stroke-width="1" />
  <rect x="300.8666666666667" y="124.47042640990372" width="15.6" height="2.6960110041266034" fill="green" />
  <line x1="326.0" y1="115.88720770288859" x2="326.0" y2="124.80055020632739" stroke="black" stroke-width="1" />
  <rect x="318.2" y="116.38239339752408" width="15.6" height="8.0330123796424" fill="green" />
  <line x1="343.3333333333333" y1="115.777166437414" x2="343.3333333333333" y2="123.23246217331507" stroke="black" stroke-width="1" />
  <rect x="335.5333333333333" y="116.21733149931225" width="15.6" height="2.5309491059147717" fill="green" />
  <line x1="360.6666666666667" y1="110.35763411279225" x2="360.6666666666667" y2="117.41623108665749" stroke="black" stroke-width="1" />
  <rect x="352.8666666666667" y="111.70563961485567" width="15.6" height="3.686382393397423" fill="green" />
  <line x1="378.0" y1="106.06602475928469" x2="378.0" y2="111.54057771664378" stroke="black" stroke-width="1" />
  <rect x="370.2" y="106.53370013755159" width="15.6" height="4.2916093535075674" fill="green" />
  <line x1="395.3333333333333" y1="104.222833562586" x2="395.3333333333333" y2="109.0646492434663" stroke="black" stroke-width="1" />
  <rect x="387.5333333333333" y="105.21320495185694" width="15.6" height="1.5405777166437815" fill="red" />
  <line x1="412.6666666666667" y1="108.40440165061898" x2="412.6666666666667" y2="119.4085281980743" stroke="black" stroke-width="1" />
  <rect x="404.8666666666667" y="111.15543328748282" width="15.6" height="6.38239339752414" fill="red" />
  <line x1="430.0" y1="113.0811554332875" x2="430.0" y2="119.2984869325997" stroke="black" stroke-width="1" />
  <rect x="422.2" y="115.17193947730402" width="15.6" height="2.145804676753812" fill="green" />
  <line x1="447.3333333333333" y1="114.84181568088036" x2="447.3333333333333" y2="123.64511691884462" stroke="black" stroke-width="1" />
  <rect x="439.5333333333333" y="115.06189821182949" width="15.6" height="5.557083906464811" fill="red" />
  <line x1="464.6666666666667" y1="111.98074277854192" x2="464.6666666666667" y2="120.23383768913345" stroke="black" stroke-width="1" />
  <rect x="456.8666666666667" y="115.00687757909213" width="15.6" height="4.566712517193935" fill="green" />
  <line x1="482.0" y1="107.42833562585975" x2="482.0" y2="114.95185694635495" stroke="black" stroke-width="1" />
  <rect x="474.2" y="108.01925722145808" width="15.6" height="6.932599724896875" fill="green" />
  <line x1="499.3333333333333" y1="104.82806052269603" x2="499.3333333333333" y2="108.51444291609357" stroke="black" stroke-width="1" />
  <rect x="491.5333333333333" y="106.14855570839063" width="15.6" height="1.0453920220082296" fill="green" />
  <line x1="516.6666666666666" y1="101.03163686382396" x2="516.6666666666666" y2="106.09353507565339" stroke="black" stroke-width="1" />
  <rect x="508.8666666666666" y="102.13204951856943" width="15.6" height="2.806052269601082" fill="green" />
  <line x1="533.9999999999999" y1="103.23246217331501" x2="533.9999999999999" y2="113.90646492434666" stroke="black" stroke-width="1" />
  <rect x="526.1999999999999" y="104.11279229711141" width="15.6" height="6.162310866575012" fill="red" />
  <line x1="551.3333333333333" y1="108.25309491059147" x2="551.3333333333333" y2="112.03576341127928" stroke="black" stroke-width="1" />
  <rect x="543.5333333333333" y="110.38514442916096" width="15.6" height="1" fill="red" />

<!-- Resistance Line -->
<line x1="40" y1="130" x2="600" y2="130" stroke="red" stroke-width="2" />
<text x="610" y="130" font-size="10" fill="red">Resistance</text>

<!-- Support Line -->
<line x1="40" y1="150" x2="600" y2="150" stroke="green" stroke-width="2" />
<text x="610" y="150" font-size="10" fill="green">Support</text>

<!-- Trendline -->
<line x1="40" y1="250" x2="600" y2="100" stroke="blue" stroke-width="2" />
<text x="610" y="100" font-size="10" fill="blue">Trendline</text>
</svg>