<svg width="800" height="300" xmlns="http://www.w3.org/2000/svg">
  <line x1="40" y1="250" x2="40" y2="50" stroke="black" stroke-width="2" />
  <line x1="35" y1="250.0" x2="40" y2="250.0" stroke="black" stroke-width="1" />
  <text x="10" y="255.0" font-size="10" fill="black">75</text>
  <line x1="40" y1="250.0" x2="780" y2="250.0" stroke="lightgray" stroke-width="1" stroke-dasharray="5,5" />
  <line x1="35" y1="210.0" x2="40" y2="210.0" stroke="black" stroke-width="1" />
  <text x="10" y="215.0" font-size="10" fill="black">85</text>
  <line x1="40" y1="210.0" x2="780" y2="210.0" stroke="lightgray" stroke-width="1" stroke-dasharray="5,5" />
  <line x1="35" y1="170.0" x2="40" y2="170.0" stroke="black" stroke-width="1" />
  <text x="10" y="175.0" font-size="10" fill="black">95</text>
  <line x1="40" y1="170.0" x2="780" y2="170.0" stroke="lightgray" stroke-width="1" stroke-dasharray="5,5" />
  <line x1="35" y1="130.0" x2="40" y2="130.0" stroke="black" stroke-width="1" />
  <text x="10" y="135.0" font-size="10" fill="black">105</text>
  <line x1="40" y1="130.0" x2="780" y2="130.0" stroke="lightgray" stroke-width="1" stroke-dasharray="5,5" />
  <line x1="35" y1="90.0" x2="40" y2="90.0" stroke="black" stroke-width="1" />
  <text x="10" y="95.0" font-size="10" fill="black">115</text>
  <line x1="40" y1="90.0" x2="780" y2="90.0" stroke="lightgray" stroke-width="1" stroke-dasharray="5,5" />
  <line x1="35" y1="50.0" x2="40" y2="50.0" stroke="black" stroke-width="1" />
  <text x="10" y="55.0" font-size="10" fill="black">125</text>
  <line x1="40" y1="50.0" x2="780" y2="50.0" stroke="lightgray" stroke-width="1" stroke-dasharray="5,5" />
  <line x1="58.27759197324415" y1="145.15086206896547" x2="58.27759197324415" y2="152.15517241379308" stroke="black" stroke-width="1" />
  <rect x="50.0" y="146.22844827586204" width="16.555183946488295" height="3.7715517241379644" fill="green" />
  <line x1="76.67224080267559" y1="142.24137931034477" x2="76.67224080267559" y2="152.04741379310343" stroke="black" stroke-width="1" />
  <rect x="68.39464882943145" y="145.58189655172413" width="16.555183946488295" height="4.849137931034477" fill="red" />
  <line x1="95.06688963210702" y1="142.6724137931035" x2="95.06688963210702" y2="151.0775862068965" stroke="black" stroke-width="1" />
  <rect x="86.78929765886288" y="142.6724137931035" width="16.555183946488295" height="8.081896551724071" fill="green" />
  <line x1="113.46153846153845" y1="135.0215517241379" x2="113.46153846153845" y2="144.1810344827586" stroke="black" stroke-width="1" />
  <rect x="105.18394648829431" y="136.74568965517233" width="16.555183946488295" height="5.92672413793116" fill="green" />
  <line x1="131.8561872909699" y1="129.2025862068965" x2="131.8561872909699" y2="137.6077586206896" stroke="black" stroke-width="1" />
  <rect x="123.57859531772576" y="133.51293103448273" width="16.555183946488295" height="4.094827586206861" fill="green" />
  <line x1="150.25083612040135" y1="132.3275862068965" x2="150.25083612040135" y2="142.02586206896547" stroke="black" stroke-width="1" />
  <rect x="141.9732441471572" y="134.05172413793093" width="16.555183946488295" height="1.1853448275862206" fill="red" />
  <line x1="168.64548494983276" y1="133.18965517241378" x2="168.64548494983276" y2="138.79310344827587" stroke="black" stroke-width="1" />
  <rect x="160.36789297658862" y="133.18965517241378" width="16.555183946488295" height="2.262931034482733" fill="green" />
  <line x1="187.0401337792642" y1="131.3577586206896" x2="187.0401337792642" y2="138.90086206896547" stroke="black" stroke-width="1" />
  <rect x="178.76254180602007" y="133.18965517241378" width="16.555183946488295" height="1.4008620689654663" fill="red" />
  <line x1="205.43478260869566" y1="118.31896551724128" x2="205.43478260869566" y2="134.375" stroke="black" stroke-width="1" />
  <rect x="197.1571906354515" y="118.31896551724128" width="16.555183946488295" height="16.05603448275872" fill="green" />
  <line x1="223.8294314381271" y1="116.59482758620686" x2="223.8294314381271" y2="123.70689655172413" stroke="black" stroke-width="1" />
  <rect x="215.55183946488296" y="118.53448275862064" width="16.555183946488295" height="1.5086206896552312" fill="green" />
  <line x1="242.22408026755855" y1="118.10344827586209" x2="242.22408026755855" y2="125.4310344827586" stroke="black" stroke-width="1" />
  <rect x="233.9464882943144" y="118.96551724137925" width="16.555183946488295" height="1.0775862068966262" fill="red" />
  <line x1="260.61872909698997" y1="119.1810344827586" x2="260.61872909698997" y2="134.4827586206896" stroke="black" stroke-width="1" />
  <rect x="252.34113712374582" y="121.12068965517244" width="16.555183946488295" height="11.961206896551687" fill="red" />
  <line x1="279.0133779264214" y1="136.63793103448273" x2="279.0133779264214" y2="143.1034482758621" stroke="black" stroke-width="1" />
  <rect x="270.73578595317724" y="139.65517241379308" width="16.555183946488295" height="1" fill="red" />
  <line x1="297.4080267558529" y1="140.84051724137925" x2="297.4080267558529" y2="152.5862068965517" stroke="black" stroke-width="1" />
  <rect x="289.13043478260875" y="140.84051724137925" width="16.555183946488295" height="8.8362068965518" fill="red" />
  <line x1="315.8026755852843" y1="145.25862068965517" x2="315.8026755852843" y2="154.52586206896547" stroke="black" stroke-width="1" />
  <rect x="307.52508361204013" y="150.53879310344826" width="16.555183946488295" height="2.4784482758620356" fill="red" />
  <line x1="334.19732441471575" y1="145.25862068965517" x2="334.19732441471575" y2="152.2629310344828" stroke="black" stroke-width="1" />
  <rect x="325.9197324414716" y="146.875" width="16.555183946488295" height="5.38793103448279" fill="green" />
  <line x1="352.5919732441472" y1="147.84482758620686" x2="352.5919732441472" y2="155.28017241379308" stroke="black" stroke-width="1" />
  <rect x="344.314381270903" y="150.3232758620689" width="16.555183946488295" height="1" fill="red" />
  <line x1="370.98662207357864" y1="150.0" x2="370.98662207357864" y2="157.43534482758616" stroke="black" stroke-width="1" />
  <rect x="362.7090301003345" y="151.29310344827587" width="16.555183946488295" height="2.9094827586206975" fill="red" />
  <line x1="389.3812709030101" y1="146.12068965517244" x2="389.3812709030101" y2="151.50862068965517" stroke="black" stroke-width="1" />
  <rect x="381.1036789297659" y="146.98275862068965" width="16.555183946488295" height="1.7241379310344769" fill="green" />
  <line x1="407.77591973244154" y1="143.2112068965517" x2="407.77591973244154" y2="153.5560344827586" stroke="black" stroke-width="1" />
  <rect x="399.49832775919737" y="144.5043103448275" width="16.555183946488295" height="6.573275862069011" fill="green" />
  <line x1="426.170568561873" y1="142.13362068965517" x2="426.170568561873" y2="147.3060344827586" stroke="black" stroke-width="1" />
  <rect x="417.8929765886288" y="145.15086206896547" width="16.555183946488295" height="1.831896551724185" fill="red" />
  <line x1="444.5652173913044" y1="143.1034482758621" x2="444.5652173913044" y2="150.75431034482756" stroke="black" stroke-width="1" />
  <rect x="436.2876254180602" y="144.61206896551727" width="16.555183946488295" height="5.387931034482733" fill="red" />
  <line x1="462.9598662207358" y1="142.88793103448273" x2="462.9598662207358" y2="151.61637931034477" stroke="black" stroke-width="1" />
  <rect x="454.68227424749165" y="144.07327586206895" width="16.555183946488295" height="6.142241379310292" fill="green" />
  <line x1="481.35451505016727" y1="123.49137931034483" x2="481.35451505016727" y2="143.2112068965517" stroke="black" stroke-width="1" />
  <rect x="473.0769230769231" y="124.13793103448268" width="16.555183946488295" height="16.379310344827672" fill="green" />
  <line x1="499.7491638795987" y1="122.19827586206884" x2="499.7491638795987" y2="128.01724137931035" stroke="black" stroke-width="1" />
  <rect x="491.47157190635454" y="124.13793103448268" width="16.555183946488295" height="1" fill="red" />
  <line x1="518.1438127090302" y1="120.25862068965506" x2="518.1438127090302" y2="128.5560344827586" stroke="black" stroke-width="1" />
  <rect x="509.866220735786" y="120.90517241379308" width="16.555183946488295" height="4.310344827586164" fill="green" />
  <line x1="536.5384615384617" y1="114.65517241379308" x2="536.5384615384617" y2="122.4137931034482" stroke="black" stroke-width="1" />
  <rect x="528.2608695652175" y="115.51724137931035" width="16.555183946488295" height="3.6637931034482563" fill="green" />
  <line x1="554.933110367893" y1="109.69827586206895" x2="554.933110367893" y2="117.24137931034483" stroke="black" stroke-width="1" />
  <rect x="546.6555183946489" y="112.49999999999989" width="16.555183946488295" height="3.8793103448276156" fill="green" />
  <line x1="573.3277591973244" y1="104.52586206896547" x2="573.3277591973244" y2="108.40517241379314" stroke="black" stroke-width="1" />
  <rect x="565.0501672240803" y="107.32758620689651" width="16.555183946488295" height="1" fill="red" />
  <line x1="591.7224080267559" y1="108.40517241379314" x2="591.7224080267559" y2="117.02586206896547" stroke="black" stroke-width="1" />
  <rect x="583.4448160535118" y="108.40517241379314" width="16.555183946488295" height="7.11206896551721" fill="red" />
</svg>