<svg width="800" height="300" xmlns="http://www.w3.org/2000/svg">
  <line x1="40" y1="250" x2="40" y2="50" stroke="black" stroke-width="2" />
  <line x1="35" y1="250.0" x2="40" y2="250.0" stroke="black" stroke-width="1" />
  <text x="10" y="255.0" font-size="10" fill="black">75</text>
  <line x1="40" y1="250.0" x2="780" y2="250.0" stroke="lightgray" stroke-width="1" stroke-dasharray="5, 5" />
  <line x1="35" y1="210.0" x2="40" y2="210.0" stroke="black" stroke-width="1" />
  <text x="10" y="215.0" font-size="10" fill="black">85</text>
  <line x1="40" y1="210.0" x2="780" y2="210.0" stroke="lightgray" stroke-width="1" stroke-dasharray="5, 5" />
  <line x1="35" y1="170.0" x2="40" y2="170.0" stroke="black" stroke-width="1" />
  <text x="10" y="175.0" font-size="10" fill="black">95</text>
  <line x1="40" y1="170.0" x2="780" y2="170.0" stroke="lightgray" stroke-width="1" stroke-dasharray="5, 5" />
  <line x1="35" y1="130.0" x2="40" y2="130.0" stroke="black" stroke-width="1" />
  <text x="10" y="135.0" font-size="10" fill="black">105</text>
  <line x1="40" y1="130.0" x2="780" y2="130.0" stroke="lightgray" stroke-width="1" stroke-dasharray="5, 5" />
  <line x1="35" y1="90.0" x2="40" y2="90.0" stroke="black" stroke-width="1" />
  <text x="10" y="95.0" font-size="10" fill="black">115</text>
  <line x1="40" y1="90.0" x2="780" y2="90.0" stroke="lightgray" stroke-width="1" stroke-dasharray="5, 5" />
  <line x1="35" y1="50.0" x2="40" y2="50.0" stroke="black" stroke-width="1" />
  <text x="10" y="55.0" font-size="10" fill="black">125</text>
  <line x1="40" y1="50.0" x2="780" y2="50.0" stroke="lightgray" stroke-width="1" stroke-dasharray="5, 5" />
  <line x1="35" y1="150.0" x2="40" y2="150.0" stroke="black" stroke-width="1" />
  <text x="10" y="155.0" font-size="10" fill="black">100</text>
  <line x1="40" y1="150.0" x2="780" y2="150.0" stroke="lightgray" stroke-width="1" stroke-dasharray="5, 5" />
  <line x1="48.666666666666664" y1="145.15086206896547" x2="48.666666666666664" y2="152.15517241379308" stroke="black" stroke-width="1" />
  <rect x="40.86666666666667" y="146.22844827586204" width="15.6" height="3.7715517241379644" fill="green" />
  <line x1="66.0" y1="142.24137931034477" x2="66.0" y2="152.04741379310343" stroke="black" stroke-width="1" />
  <rect x="58.199999999999996" y="145.58189655172413" width="15.6" height="4.849137931034477" fill="red" />
  <line x1="83.33333333333333" y1="142.6724137931035" x2="83.33333333333333" y2="151.0775862068965" stroke="black" stroke-width="1" />
  <rect x="75.53333333333332" y="142.6724137931035" width="15.6" height="8.081896551724071" fill="green" />
  <line x1="100.66666666666667" y1="135.0215517241379" x2="100.66666666666667" y2="144.1810344827586" stroke="black" stroke-width="1" />
  <rect x="92.86666666666666" y="136.74568965517233" width="15.6" height="5.92672413793116" fill="green" />
  <line x1="118.0" y1="129.2025862068965" x2="118.0" y2="137.6077586206896" stroke="black" stroke-width="1" />
  <rect x="110.19999999999999" y="133.51293103448273" width="15.6" height="4.094827586206861" fill="green" />
  <line x1="135.33333333333331" y1="132.3275862068965" x2="135.33333333333331" y2="142.02586206896547" stroke="black" stroke-width="1" />
  <rect x="127.53333333333332" y="134.05172413793093" width="15.6" height="1.1853448275862206" fill="red" />
  <line x1="152.66666666666666" y1="133.18965517241378" x2="152.66666666666666" y2="138.79310344827587" stroke="black" stroke-width="1" />
  <rect x="144.86666666666667" y="133.18965517241378" width="15.6" height="2.262931034482733" fill="green" />
  <line x1="169.99999999999997" y1="131.3577586206896" x2="169.99999999999997" y2="138.90086206896547" stroke="black" stroke-width="1" />
  <rect x="162.2" y="133.18965517241378" width="15.6" height="1.4008620689654663" fill="red" />
  <line x1="187.33333333333331" y1="118.31896551724128" x2="187.33333333333331" y2="134.375" stroke="black" stroke-width="1" />
  <rect x="179.53333333333333" y="118.31896551724128" width="15.6" height="16.05603448275872" fill="green" />
  <line x1="204.66666666666666" y1="116.59482758620686" x2="204.66666666666666" y2="123.70689655172413" stroke="black" stroke-width="1" />
  <rect x="196.86666666666667" y="118.53448275862064" width="15.6" height="1.5086206896552312" fill="green" />
  <line x1="221.99999999999997" y1="118.10344827586209" x2="221.99999999999997" y2="125.4310344827586" stroke="black" stroke-width="1" />
  <rect x="214.2" y="118.96551724137925" width="15.6" height="1.0775862068966262" fill="red" />
  <line x1="239.33333333333331" y1="119.1810344827586" x2="239.33333333333331" y2="134.4827586206896" stroke="black" stroke-width="1" />
  <rect x="231.53333333333333" y="121.12068965517244" width="15.6" height="11.961206896551687" fill="red" />
  <line x1="256.6666666666667" y1="136.63793103448273" x2="256.6666666666667" y2="143.1034482758621" stroke="black" stroke-width="1" />
  <rect x="248.86666666666667" y="139.65517241379308" width="15.6" height="1" fill="red" />
  <line x1="274.0" y1="140.84051724137925" x2="274.0" y2="152.5862068965517" stroke="black" stroke-width="1" />
  <rect x="266.2" y="140.84051724137925" width="15.6" height="8.8362068965518" fill="red" />
  <line x1="291.3333333333333" y1="145.25862068965517" x2="291.3333333333333" y2="154.52586206896547" stroke="black" stroke-width="1" />
  <rect x="283.5333333333333" y="150.53879310344826" width="15.6" height="2.4784482758620356" fill="red" />
  <line x1="308.6666666666667" y1="145.25862068965517" x2="308.6666666666667" y2="152.2629310344828" stroke="black" stroke-width="1" />
  <rect x="300.8666666666667" y="146.875" width="15.6" height="5.38793103448279" fill="green" />
  <line x1="326.0" y1="147.84482758620686" x2="326.0" y2="155.28017241379308" stroke="black" stroke-width="1" />
  <rect x="318.2" y="150.3232758620689" width="15.6" height="1" fill="red" />
  <line x1="343.3333333333333" y1="150.0" x2="343.3333333333333" y2="157.43534482758616" stroke="black" stroke-width="1" />
  <rect x="335.5333333333333" y="151.29310344827587" width="15.6" height="2.9094827586206975" fill="red" />
  <line x1="360.6666666666667" y1="146.12068965517244" x2="360.6666666666667" y2="151.50862068965517" stroke="black" stroke-width="1" />
  <rect x="352.8666666666667" y="146.98275862068965" width="15.6" height="1.7241379310344769" fill="green" />
  <line x1="378.0" y1="143.2112068965517" x2="378.0" y2="153.5560344827586" stroke="black" stroke-width="1" />
  <rect x="370.2" y="144.5043103448275" width="15.6" height="6.573275862069011" fill="green" />
  <line x1="395.3333333333333" y1="142.13362068965517" x2="395.3333333333333" y2="147.3060344827586" stroke="black" stroke-width="1" />
  <rect x="387.5333333333333" y="145.15086206896547" width="15.6" height="1.831896551724185" fill="red" />
  <line x1="412.6666666666667" y1="143.1034482758621" x2="412.6666666666667" y2="150.75431034482756" stroke="black" stroke-width="1" />
  <rect x="404.8666666666667" y="144.61206896551727" width="15.6" height="5.387931034482733" fill="red" />
  <line x1="430.0" y1="142.88793103448273" x2="430.0" y2="151.61637931034477" stroke="black" stroke-width="1" />
  <rect x="422.2" y="144.07327586206895" width="15.6" height="6.142241379310292" fill="green" />
  <line x1="447.3333333333333" y1="123.49137931034483" x2="447.3333333333333" y2="143.2112068965517" stroke="black" stroke-width="1" />
  <rect x="439.5333333333333" y="124.13793103448268" width="15.6" height="16.379310344827672" fill="green" />
  <line x1="464.6666666666667" y1="122.19827586206884" x2="464.6666666666667" y2="128.01724137931035" stroke="black" stroke-width="1" />
  <rect x="456.8666666666667" y="124.13793103448268" width="15.6" height="1" fill="red" />
  <line x1="482.0" y1="120.25862068965506" x2="482.0" y2="128.5560344827586" stroke="black" stroke-width="1" />
  <rect x="474.2" y="120.90517241379308" width="15.6" height="4.310344827586164" fill="green" />
  <line x1="499.3333333333333" y1="114.65517241379308" x2="499.3333333333333" y2="122.4137931034482" stroke="black" stroke-width="1" />
  <rect x="491.5333333333333" y="115.51724137931035" width="15.6" height="3.6637931034482563" fill="green" />
  <line x1="516.6666666666666" y1="109.69827586206895" x2="516.6666666666666" y2="117.24137931034483" stroke="black" stroke-width="1" />
  <rect x="508.8666666666666" y="112.49999999999989" width="15.6" height="3.8793103448276156" fill="green" />
  <line x1="533.9999999999999" y1="104.52586206896547" x2="533.9999999999999" y2="108.40517241379314" stroke="black" stroke-width="1" />
  <rect x="526.1999999999999" y="107.32758620689651" width="15.6" height="1" fill="red" />
  <line x1="551.3333333333333" y1="108.40517241379314" x2="551.3333333333333" y2="117.02586206896547" stroke="black" stroke-width="1" />
  <rect x="543.5333333333333" y="108.40517241379314" width="15.6" height="7.11206896551721" fill="red" />

<!-- Resistance Line -->
<line x1="40" y1="50" x2="600" y2="50" stroke="blue" stroke-width="2" />
<text x="610" y="55" font-size="10" fill="blue">Resistance</text>

<!-- Support Line -->
<line x1="40" y1="130" x2="600" y2="130" stroke="green" stroke-width="2" />
<text x="610" y="135" font-size="10" fill="green">Support</text>

<!-- Trendline -->
<line x1="40" y1="250" x2="600" y2="90" stroke="purple" stroke-width="2" />
<text x="610" y="95" font-size="10" fill="purple">Trendline</text>
</svg>